G04*
G04 #@! TF.GenerationSoftware,Altium Limited,Altium Designer,21.0.8 (223)*
G04*
G04 Layer_Physical_Order=1*
G04 Layer_Color=255*
%FSLAX24Y24*%
%MOIN*%
G70*
G04*
G04 #@! TF.SameCoordinates,F91D3ADF-50DC-415E-B976-C9826125F88D*
G04*
G04*
G04 #@! TF.FilePolarity,Positive*
G04*
G01*
G75*
%ADD11C,0.0118*%
G04:AMPARAMS|DCode=12|XSize=29.9mil|YSize=29.9mil|CornerRadius=3.7mil|HoleSize=0mil|Usage=FLASHONLY|Rotation=180.000|XOffset=0mil|YOffset=0mil|HoleType=Round|Shape=RoundedRectangle|*
%AMROUNDEDRECTD12*
21,1,0.0299,0.0224,0,0,180.0*
21,1,0.0224,0.0299,0,0,180.0*
1,1,0.0075,-0.0112,0.0112*
1,1,0.0075,0.0112,0.0112*
1,1,0.0075,0.0112,-0.0112*
1,1,0.0075,-0.0112,-0.0112*
%
%ADD12ROUNDEDRECTD12*%
G04:AMPARAMS|DCode=13|XSize=37.4mil|YSize=37.4mil|CornerRadius=1.9mil|HoleSize=0mil|Usage=FLASHONLY|Rotation=180.000|XOffset=0mil|YOffset=0mil|HoleType=Round|Shape=RoundedRectangle|*
%AMROUNDEDRECTD13*
21,1,0.0374,0.0337,0,0,180.0*
21,1,0.0337,0.0374,0,0,180.0*
1,1,0.0037,-0.0168,0.0168*
1,1,0.0037,0.0168,0.0168*
1,1,0.0037,0.0168,-0.0168*
1,1,0.0037,-0.0168,-0.0168*
%
%ADD13ROUNDEDRECTD13*%
G04:AMPARAMS|DCode=14|XSize=43.3mil|YSize=55.1mil|CornerRadius=2.2mil|HoleSize=0mil|Usage=FLASHONLY|Rotation=0.000|XOffset=0mil|YOffset=0mil|HoleType=Round|Shape=RoundedRectangle|*
%AMROUNDEDRECTD14*
21,1,0.0433,0.0508,0,0,0.0*
21,1,0.0390,0.0551,0,0,0.0*
1,1,0.0043,0.0195,-0.0254*
1,1,0.0043,-0.0195,-0.0254*
1,1,0.0043,-0.0195,0.0254*
1,1,0.0043,0.0195,0.0254*
%
%ADD14ROUNDEDRECTD14*%
G04:AMPARAMS|DCode=15|XSize=157.5mil|YSize=63mil|CornerRadius=3.2mil|HoleSize=0mil|Usage=FLASHONLY|Rotation=90.000|XOffset=0mil|YOffset=0mil|HoleType=Round|Shape=RoundedRectangle|*
%AMROUNDEDRECTD15*
21,1,0.1575,0.0567,0,0,90.0*
21,1,0.1512,0.0630,0,0,90.0*
1,1,0.0063,0.0283,0.0756*
1,1,0.0063,0.0283,-0.0756*
1,1,0.0063,-0.0283,-0.0756*
1,1,0.0063,-0.0283,0.0756*
%
%ADD15ROUNDEDRECTD15*%
G04:AMPARAMS|DCode=16|XSize=11.8mil|YSize=47.2mil|CornerRadius=0.6mil|HoleSize=0mil|Usage=FLASHONLY|Rotation=180.000|XOffset=0mil|YOffset=0mil|HoleType=Round|Shape=RoundedRectangle|*
%AMROUNDEDRECTD16*
21,1,0.0118,0.0461,0,0,180.0*
21,1,0.0106,0.0472,0,0,180.0*
1,1,0.0012,-0.0053,0.0230*
1,1,0.0012,0.0053,0.0230*
1,1,0.0012,0.0053,-0.0230*
1,1,0.0012,-0.0053,-0.0230*
%
%ADD16ROUNDEDRECTD16*%
G04:AMPARAMS|DCode=17|XSize=11.8mil|YSize=47.2mil|CornerRadius=0.6mil|HoleSize=0mil|Usage=FLASHONLY|Rotation=90.000|XOffset=0mil|YOffset=0mil|HoleType=Round|Shape=RoundedRectangle|*
%AMROUNDEDRECTD17*
21,1,0.0118,0.0461,0,0,90.0*
21,1,0.0106,0.0472,0,0,90.0*
1,1,0.0012,0.0230,0.0053*
1,1,0.0012,0.0230,-0.0053*
1,1,0.0012,-0.0230,-0.0053*
1,1,0.0012,-0.0230,0.0053*
%
%ADD17ROUNDEDRECTD17*%
G04:AMPARAMS|DCode=18|XSize=43.3mil|YSize=55.1mil|CornerRadius=2.2mil|HoleSize=0mil|Usage=FLASHONLY|Rotation=90.000|XOffset=0mil|YOffset=0mil|HoleType=Round|Shape=RoundedRectangle|*
%AMROUNDEDRECTD18*
21,1,0.0433,0.0508,0,0,90.0*
21,1,0.0390,0.0551,0,0,90.0*
1,1,0.0043,0.0254,0.0195*
1,1,0.0043,0.0254,-0.0195*
1,1,0.0043,-0.0254,-0.0195*
1,1,0.0043,-0.0254,0.0195*
%
%ADD18ROUNDEDRECTD18*%
G04:AMPARAMS|DCode=19|XSize=13.8mil|YSize=65mil|CornerRadius=0.7mil|HoleSize=0mil|Usage=FLASHONLY|Rotation=270.000|XOffset=0mil|YOffset=0mil|HoleType=Round|Shape=RoundedRectangle|*
%AMROUNDEDRECTD19*
21,1,0.0138,0.0636,0,0,270.0*
21,1,0.0124,0.0650,0,0,270.0*
1,1,0.0014,-0.0318,-0.0062*
1,1,0.0014,-0.0318,0.0062*
1,1,0.0014,0.0318,0.0062*
1,1,0.0014,0.0318,-0.0062*
%
%ADD19ROUNDEDRECTD19*%
G04:AMPARAMS|DCode=20|XSize=37.4mil|YSize=37.4mil|CornerRadius=1.9mil|HoleSize=0mil|Usage=FLASHONLY|Rotation=90.000|XOffset=0mil|YOffset=0mil|HoleType=Round|Shape=RoundedRectangle|*
%AMROUNDEDRECTD20*
21,1,0.0374,0.0337,0,0,90.0*
21,1,0.0337,0.0374,0,0,90.0*
1,1,0.0037,0.0168,0.0168*
1,1,0.0037,0.0168,-0.0168*
1,1,0.0037,-0.0168,-0.0168*
1,1,0.0037,-0.0168,0.0168*
%
%ADD20ROUNDEDRECTD20*%
%ADD21O,0.0886X0.0197*%
G04:AMPARAMS|DCode=22|XSize=98.4mil|YSize=78.7mil|CornerRadius=3.9mil|HoleSize=0mil|Usage=FLASHONLY|Rotation=180.000|XOffset=0mil|YOffset=0mil|HoleType=Round|Shape=RoundedRectangle|*
%AMROUNDEDRECTD22*
21,1,0.0984,0.0709,0,0,180.0*
21,1,0.0906,0.0787,0,0,180.0*
1,1,0.0079,-0.0453,0.0354*
1,1,0.0079,0.0453,0.0354*
1,1,0.0079,0.0453,-0.0354*
1,1,0.0079,-0.0453,-0.0354*
%
%ADD22ROUNDEDRECTD22*%
G04:AMPARAMS|DCode=23|XSize=59.1mil|YSize=51.2mil|CornerRadius=12.8mil|HoleSize=0mil|Usage=FLASHONLY|Rotation=90.000|XOffset=0mil|YOffset=0mil|HoleType=Round|Shape=RoundedRectangle|*
%AMROUNDEDRECTD23*
21,1,0.0591,0.0256,0,0,90.0*
21,1,0.0335,0.0512,0,0,90.0*
1,1,0.0256,0.0128,0.0167*
1,1,0.0256,0.0128,-0.0167*
1,1,0.0256,-0.0128,-0.0167*
1,1,0.0256,-0.0128,0.0167*
%
%ADD23ROUNDEDRECTD23*%
G04:AMPARAMS|DCode=24|XSize=129.1mil|YSize=59.1mil|CornerRadius=14.8mil|HoleSize=0mil|Usage=FLASHONLY|Rotation=0.000|XOffset=0mil|YOffset=0mil|HoleType=Round|Shape=RoundedRectangle|*
%AMROUNDEDRECTD24*
21,1,0.1291,0.0295,0,0,0.0*
21,1,0.0996,0.0591,0,0,0.0*
1,1,0.0295,0.0498,-0.0148*
1,1,0.0295,-0.0498,-0.0148*
1,1,0.0295,-0.0498,0.0148*
1,1,0.0295,0.0498,0.0148*
%
%ADD24ROUNDEDRECTD24*%
G04:AMPARAMS|DCode=25|XSize=39.4mil|YSize=59.1mil|CornerRadius=9.8mil|HoleSize=0mil|Usage=FLASHONLY|Rotation=0.000|XOffset=0mil|YOffset=0mil|HoleType=Round|Shape=RoundedRectangle|*
%AMROUNDEDRECTD25*
21,1,0.0394,0.0394,0,0,0.0*
21,1,0.0197,0.0591,0,0,0.0*
1,1,0.0197,0.0098,-0.0197*
1,1,0.0197,-0.0098,-0.0197*
1,1,0.0197,-0.0098,0.0197*
1,1,0.0197,0.0098,0.0197*
%
%ADD25ROUNDEDRECTD25*%
%ADD26C,0.0750*%
%ADD47C,0.0240*%
%ADD48C,0.0065*%
%ADD49C,0.0100*%
%ADD50C,0.0079*%
%ADD51C,0.0200*%
%ADD52C,0.0150*%
%ADD53C,0.0512*%
%ADD54C,0.0630*%
%ADD55C,0.1181*%
%ADD56C,0.0394*%
%ADD57R,0.0630X0.0630*%
%ADD58C,0.0160*%
G36*
X13677Y14280D02*
X13675Y14286D01*
X13672Y14292D01*
X13668Y14296D01*
X13663Y14301D01*
X13657Y14304D01*
X13649Y14307D01*
X13640Y14309D01*
X13631Y14311D01*
X13620Y14312D01*
X13607Y14312D01*
Y14377D01*
X13620Y14378D01*
X13631Y14379D01*
X13640Y14380D01*
X13649Y14383D01*
X13657Y14386D01*
X13663Y14389D01*
X13668Y14393D01*
X13672Y14398D01*
X13675Y14404D01*
X13677Y14410D01*
Y14280D01*
D02*
G37*
G36*
X22178Y15303D02*
X22134Y15267D01*
X22046Y15159D01*
X21980Y15036D01*
X21939Y14903D01*
X21926Y14764D01*
X21939Y14625D01*
X21980Y14491D01*
X22046Y14368D01*
X22134Y14260D01*
X22242Y14172D01*
X22365Y14106D01*
X22499Y14065D01*
X22638Y14052D01*
X22777Y14065D01*
X22910Y14106D01*
X23033Y14172D01*
X23141Y14260D01*
X23210Y14344D01*
X23260Y14326D01*
X23260Y1422D01*
X23210Y1404D01*
X23141Y1488D01*
X23033Y1576D01*
X22910Y1642D01*
X22777Y1683D01*
X22638Y1696D01*
X22499Y1683D01*
X22365Y1642D01*
X22242Y1576D01*
X22134Y1488D01*
X22046Y1380D01*
X21980Y1257D01*
X21939Y1123D01*
X21926Y984D01*
X21939Y845D01*
X21980Y712D01*
X22017Y643D01*
X21991Y600D01*
X12450Y600D01*
Y1287D01*
X12998D01*
X13042Y1182D01*
X13111Y1091D01*
X13202Y1022D01*
X13307Y978D01*
X13420Y963D01*
X13533Y978D01*
X13638Y1022D01*
X13729Y1091D01*
X13798Y1182D01*
X13842Y1287D01*
X13857Y1400D01*
X13842Y1513D01*
X13798Y1618D01*
X13729Y1709D01*
X13638Y1778D01*
X13533Y1822D01*
X13420Y1837D01*
X13307Y1822D01*
X13202Y1778D01*
X13111Y1709D01*
X13042Y1618D01*
X12998Y1513D01*
X12450D01*
X12450Y5357D01*
X12500Y5373D01*
X12506Y5364D01*
X12547Y5336D01*
X12595Y5327D01*
X12702D01*
X12747Y5336D01*
X12792Y5327D01*
X12898D01*
X12944Y5336D01*
X12989Y5327D01*
X13095D01*
X13141Y5336D01*
X13186Y5327D01*
X13292D01*
X13337Y5336D01*
X13383Y5327D01*
X13489D01*
X13534Y5336D01*
X13580Y5327D01*
X13686D01*
X13731Y5336D01*
X13776Y5327D01*
X13883D01*
X13928Y5336D01*
X13973Y5327D01*
X14080D01*
X14125Y5336D01*
X14170Y5327D01*
X14276D01*
X14289Y5316D01*
Y1814D01*
X14202Y1778D01*
X14111Y1709D01*
X14042Y1618D01*
X13998Y1513D01*
X13983Y1400D01*
X13998Y1287D01*
X14042Y1182D01*
X14111Y1091D01*
X14202Y1022D01*
X14307Y978D01*
X14420Y963D01*
X14533Y978D01*
X14638Y1022D01*
X14729Y1091D01*
X14798Y1182D01*
X14842Y1287D01*
X14857Y1400D01*
X14842Y1513D01*
X14798Y1618D01*
X14729Y1709D01*
X14638Y1778D01*
X14551Y1814D01*
Y5356D01*
X14563Y5364D01*
X14590Y5405D01*
X14591Y5412D01*
X14642D01*
X14644Y5405D01*
X14671Y5364D01*
X14700Y5344D01*
Y5287D01*
X14671Y5267D01*
X14627Y5202D01*
X14612Y5125D01*
X14627Y5047D01*
X14671Y4982D01*
X14736Y4938D01*
X14814Y4923D01*
X14891Y4938D01*
X14957Y4982D01*
X15000Y5047D01*
X15016Y5125D01*
X15000Y5202D01*
X14957Y5267D01*
X14927Y5287D01*
Y5344D01*
X14956Y5364D01*
X14984Y5405D01*
X14993Y5453D01*
Y5914D01*
X14984Y5962D01*
X14956Y6003D01*
X14915Y6031D01*
X14867Y6040D01*
X14761D01*
X14735Y6061D01*
Y6222D01*
X14740Y6247D01*
X14732Y6290D01*
X14707Y6327D01*
X14670Y6352D01*
X14627Y6360D01*
X14583Y6352D01*
X14547Y6327D01*
X14542Y6322D01*
X14517Y6285D01*
X14508Y6242D01*
Y6069D01*
X14473Y6040D01*
X14367D01*
X14322Y6031D01*
X14276Y6040D01*
X14170D01*
X14125Y6031D01*
X14080Y6040D01*
X13973D01*
X13928Y6031D01*
X13883Y6040D01*
X13776D01*
X13731Y6031D01*
X13686Y6040D01*
X13580D01*
X13534Y6031D01*
X13489Y6040D01*
X13383D01*
X13337Y6031D01*
X13292Y6040D01*
X13186D01*
X13141Y6031D01*
X13095Y6040D01*
X12989D01*
X12944Y6031D01*
X12898Y6040D01*
X12792D01*
X12747Y6031D01*
X12702Y6040D01*
X12595D01*
X12547Y6031D01*
X12506Y6003D01*
X12500Y5994D01*
X12450Y6010D01*
Y6397D01*
X12950D01*
X12994Y6405D01*
X13030Y6430D01*
X13500Y6900D01*
X13525Y6937D01*
X13533Y6980D01*
X13525Y7023D01*
X13500Y7060D01*
X13463Y7085D01*
X13420Y7093D01*
X13377Y7085D01*
X13340Y7060D01*
X12903Y6624D01*
X12450D01*
Y8783D01*
X12500Y8798D01*
X12506Y8789D01*
X12547Y8762D01*
X12595Y8752D01*
X12702D01*
X12747Y8761D01*
X12792Y8752D01*
X12898D01*
X12944Y8761D01*
X12989Y8752D01*
X13095D01*
X13141Y8761D01*
X13186Y8752D01*
X13292D01*
X13341Y8762D01*
X13382Y8789D01*
X13409Y8830D01*
X13410Y8837D01*
X13461D01*
X13463Y8830D01*
X13490Y8789D01*
X13531Y8762D01*
X13580Y8752D01*
X13686D01*
X13731Y8761D01*
X13776Y8752D01*
X13883D01*
X13928Y8761D01*
X13973Y8752D01*
X14080D01*
X14125Y8761D01*
X14170Y8752D01*
X14276D01*
X14322Y8761D01*
X14367Y8752D01*
X14473D01*
X14519Y8761D01*
X14564Y8752D01*
X14670D01*
X14715Y8761D01*
X14761Y8752D01*
X14867D01*
X14915Y8762D01*
X14956Y8789D01*
X14984Y8830D01*
X14993Y8878D01*
Y9339D01*
X14986Y9378D01*
X15004Y9405D01*
X15020Y9483D01*
X15004Y9560D01*
X14960Y9626D01*
X14895Y9669D01*
X14818Y9685D01*
X14782Y9678D01*
X14766Y9699D01*
X14757Y9724D01*
X14797Y9783D01*
X14812Y9860D01*
X14797Y9937D01*
X14753Y10003D01*
X14687Y10047D01*
X14626Y10059D01*
X14631Y10109D01*
X16276D01*
X16513Y9871D01*
Y4335D01*
X16523Y4285D01*
X16552Y4242D01*
X16983Y3811D01*
X16959Y3753D01*
X16947Y3656D01*
X16959Y3558D01*
X16997Y3467D01*
X17057Y3389D01*
X17135Y3329D01*
X17226Y3291D01*
X17324Y3278D01*
X17421Y3291D01*
X17512Y3329D01*
X17591Y3389D01*
X17650Y3467D01*
X17674Y3524D01*
X18856D01*
Y3467D01*
X18867Y3412D01*
X18898Y3366D01*
X18944Y3335D01*
X18999Y3324D01*
X19507D01*
X19561Y3335D01*
X19608Y3366D01*
X19639Y3412D01*
X19649Y3467D01*
Y3856D01*
X19639Y3911D01*
X19608Y3957D01*
X19561Y3988D01*
X19507Y3999D01*
X18999D01*
X18944Y3988D01*
X18898Y3957D01*
X18867Y3911D01*
X18856Y3856D01*
Y3787D01*
X17674D01*
X17650Y3844D01*
X17591Y3922D01*
X17512Y3982D01*
X17421Y4020D01*
X17324Y4033D01*
X17226Y4020D01*
X17169Y3996D01*
X16776Y4389D01*
Y9926D01*
X16766Y9976D01*
X16737Y10018D01*
X16457Y10299D01*
X16478Y10349D01*
X16696D01*
X17193Y9852D01*
Y5927D01*
X17135Y5903D01*
X17057Y5844D01*
X16997Y5765D01*
X16959Y5674D01*
X16947Y5577D01*
X16959Y5479D01*
X16997Y5388D01*
X17057Y5310D01*
X17135Y5250D01*
X17226Y5212D01*
X17324Y5200D01*
X17421Y5212D01*
X17512Y5250D01*
X17591Y5310D01*
X17650Y5388D01*
X17670Y5436D01*
X18856D01*
Y5415D01*
X18867Y5361D01*
X18898Y5315D01*
X18944Y5284D01*
X18999Y5273D01*
X19507D01*
X19561Y5284D01*
X19608Y5315D01*
X19639Y5361D01*
X19649Y5415D01*
Y5805D01*
X19639Y5860D01*
X19608Y5906D01*
X19561Y5937D01*
X19507Y5948D01*
X18999D01*
X18944Y5937D01*
X18898Y5906D01*
X18867Y5860D01*
X18856Y5805D01*
Y5717D01*
X17670D01*
X17650Y5765D01*
X17591Y5844D01*
X17512Y5903D01*
X17455Y5927D01*
Y9906D01*
X17445Y9956D01*
X17417Y9999D01*
X16876Y10540D01*
X16897Y10590D01*
X17010D01*
X17840Y9760D01*
Y8708D01*
X17766D01*
X17711Y8697D01*
X17665Y8667D01*
X17634Y8620D01*
X17623Y8566D01*
Y8058D01*
X17634Y8003D01*
X17665Y7957D01*
X17711Y7926D01*
X17721Y7924D01*
X17721Y7924D01*
X17726Y7872D01*
X17694Y7850D01*
X17663Y7805D01*
X17653Y7752D01*
Y7415D01*
X17663Y7362D01*
X17694Y7317D01*
X17739Y7286D01*
X17792Y7276D01*
X18129D01*
X18182Y7286D01*
X18227Y7317D01*
X18258Y7362D01*
X18268Y7415D01*
Y7752D01*
X18258Y7805D01*
X18227Y7850D01*
X18195Y7872D01*
X18200Y7924D01*
X18200Y7924D01*
X18210Y7926D01*
X18256Y7957D01*
X18277Y7989D01*
X18283Y7990D01*
X18327D01*
X18333Y7989D01*
X18354Y7957D01*
X18400Y7926D01*
X18455Y7915D01*
X18844D01*
X18899Y7926D01*
X18945Y7957D01*
X18976Y8003D01*
X18987Y8058D01*
Y8118D01*
X19031Y8142D01*
X19050Y8129D01*
X19128Y8114D01*
X19205Y8129D01*
X19271Y8173D01*
X19314Y8238D01*
X19330Y8316D01*
X19314Y8393D01*
X19271Y8458D01*
X19205Y8502D01*
X19128Y8518D01*
X19050Y8502D01*
X19031Y8489D01*
X18987Y8513D01*
Y8566D01*
X18976Y8620D01*
X18945Y8667D01*
X18899Y8697D01*
X18844Y8708D01*
X18455D01*
X18400Y8697D01*
X18354Y8667D01*
X18333Y8635D01*
X18327Y8633D01*
X18283D01*
X18277Y8635D01*
X18256Y8667D01*
X18210Y8697D01*
X18155Y8708D01*
X18081D01*
Y9809D01*
X18072Y9856D01*
X18046Y9895D01*
X18046Y9895D01*
X17145Y10795D01*
X17106Y10821D01*
X17060Y10830D01*
X17060Y10830D01*
X14000D01*
X14000Y10830D01*
X13954Y10821D01*
X13915Y10795D01*
X13915Y10795D01*
X13548Y10428D01*
X13521Y10389D01*
X13512Y10343D01*
X13512Y10343D01*
Y10063D01*
X13462Y10033D01*
X13436Y10038D01*
X13392Y10029D01*
X13356Y10005D01*
X13331Y9968D01*
X13322Y9924D01*
Y9718D01*
X13272Y9677D01*
X13235Y9685D01*
X13158Y9669D01*
X13092Y9626D01*
X13049Y9560D01*
X13033Y9483D01*
X13033Y9482D01*
X12986Y9465D01*
X12944Y9456D01*
X12898Y9465D01*
X12792D01*
X12747Y9456D01*
X12702Y9465D01*
X12595D01*
X12547Y9456D01*
X12506Y9428D01*
X12500Y9420D01*
X12450Y9435D01*
Y10728D01*
X12500Y10743D01*
X12517Y10717D01*
X12583Y10673D01*
X12660Y10658D01*
X12737Y10673D01*
X12803Y10717D01*
X12847Y10783D01*
X12862Y10860D01*
X12847Y10937D01*
X12803Y11003D01*
X12773Y11022D01*
Y12508D01*
X13071Y12805D01*
X13443D01*
X13497Y12816D01*
X13543Y12847D01*
X13564Y12878D01*
X13570Y12880D01*
X13614D01*
X13620Y12878D01*
X13641Y12847D01*
X13687Y12816D01*
X13742Y12805D01*
X13823D01*
Y12249D01*
X13764Y12238D01*
X13712Y12203D01*
X13678Y12152D01*
X13666Y12091D01*
Y11867D01*
X13678Y11806D01*
X13712Y11755D01*
X13764Y11720D01*
X13824Y11708D01*
X14049D01*
X14110Y11720D01*
X14161Y11755D01*
X14195Y11806D01*
X14207Y11867D01*
Y12091D01*
X14195Y12152D01*
X14161Y12203D01*
X14110Y12238D01*
X14050Y12249D01*
Y12805D01*
X14132D01*
X14186Y12816D01*
X14232Y12847D01*
X14263Y12893D01*
X14274Y12947D01*
Y13455D01*
X14263Y13510D01*
X14232Y13556D01*
X14186Y13587D01*
X14132Y13598D01*
X13742D01*
X13687Y13587D01*
X13641Y13556D01*
X13620Y13525D01*
X13614Y13523D01*
X13570D01*
X13564Y13525D01*
X13543Y13556D01*
X13497Y13587D01*
X13443Y13598D01*
X13361D01*
Y14131D01*
X13462Y14231D01*
X13564D01*
X13566Y14216D01*
X13615Y14096D01*
X13694Y13993D01*
X13797Y13914D01*
X13917Y13864D01*
X14046Y13848D01*
X14175Y13864D01*
X14295Y13914D01*
X14398Y13993D01*
X14477Y14096D01*
X14526Y14216D01*
X14543Y14345D01*
X14526Y14474D01*
X14477Y14594D01*
X14398Y14697D01*
X14295Y14776D01*
X14175Y14825D01*
X14046Y14842D01*
X13917Y14825D01*
X13797Y14776D01*
X13694Y14697D01*
X13615Y14594D01*
X13566Y14474D01*
X13564Y14458D01*
X13415D01*
X13371Y14450D01*
X13335Y14425D01*
X13168Y14258D01*
X13143Y14221D01*
X13134Y14178D01*
Y13598D01*
X13053D01*
X12998Y13587D01*
X12952Y13556D01*
X12921Y13510D01*
X12910Y13455D01*
Y12965D01*
X12620Y12675D01*
X12570Y12696D01*
Y13650D01*
X12561Y13696D01*
X12535Y13735D01*
X12496Y13761D01*
X12450Y13770D01*
Y15350D01*
X22161Y15350D01*
X22178Y15303D01*
D02*
G37*
G36*
X13281Y13530D02*
X13282Y13519D01*
X13283Y13509D01*
X13285Y13500D01*
X13288Y13493D01*
X13292Y13487D01*
X13296Y13482D01*
X13301Y13479D01*
X13307Y13477D01*
X13313Y13476D01*
X13183D01*
X13189Y13477D01*
X13194Y13479D01*
X13199Y13482D01*
X13204Y13487D01*
X13207Y13493D01*
X13210Y13500D01*
X13212Y13509D01*
X13214Y13519D01*
X13215Y13530D01*
X13215Y13542D01*
X13280D01*
X13281Y13530D01*
D02*
G37*
G36*
X13123Y12927D02*
X13118Y12930D01*
X13112Y12932D01*
X13105Y12932D01*
X13097Y12930D01*
X13088Y12926D01*
X13079Y12920D01*
X13068Y12913D01*
X13057Y12904D01*
X13031Y12879D01*
X12985Y12925D01*
X12998Y12939D01*
X13018Y12963D01*
X13026Y12973D01*
X13031Y12983D01*
X13035Y12992D01*
X13037Y13000D01*
X13037Y13006D01*
X13035Y13012D01*
X13032Y13017D01*
X13123Y12927D01*
D02*
G37*
G36*
X13995Y12926D02*
X13990Y12924D01*
X13985Y12921D01*
X13981Y12916D01*
X13977Y12910D01*
X13974Y12903D01*
X13972Y12894D01*
X13970Y12884D01*
X13969Y12873D01*
X13969Y12860D01*
X13904D01*
X13904Y12873D01*
X13903Y12884D01*
X13901Y12894D01*
X13899Y12903D01*
X13896Y12910D01*
X13892Y12916D01*
X13888Y12921D01*
X13883Y12924D01*
X13878Y12926D01*
X13872Y12927D01*
X14002D01*
X13995Y12926D01*
D02*
G37*
G36*
X13969Y12181D02*
X13970Y12169D01*
X13972Y12159D01*
X13974Y12151D01*
X13977Y12143D01*
X13981Y12137D01*
X13985Y12133D01*
X13990Y12130D01*
X13995Y12128D01*
X14002Y12127D01*
X13872D01*
X13878Y12128D01*
X13883Y12130D01*
X13888Y12133D01*
X13892Y12137D01*
X13896Y12143D01*
X13899Y12151D01*
X13901Y12159D01*
X13903Y12169D01*
X13904Y12181D01*
X13904Y12193D01*
X13969D01*
X13969Y12181D01*
D02*
G37*
G36*
X12450Y11467D02*
X12217D01*
X12199Y11479D01*
X12146Y11490D01*
X11809D01*
X11756Y11479D01*
X11738Y11467D01*
X11630D01*
Y10560D01*
X12010Y10560D01*
X12010Y9240D01*
X11919D01*
X11868Y9230D01*
X11826Y9201D01*
X11624Y9000D01*
X10340Y9000D01*
X10340Y11467D01*
X6500D01*
Y13650D01*
X12450D01*
Y11467D01*
D02*
G37*
G36*
X12693Y10973D02*
X12693Y10965D01*
X12695Y10958D01*
X12696Y10951D01*
X12698Y10945D01*
X12701Y10938D01*
X12704Y10933D01*
X12708Y10927D01*
X12712Y10922D01*
X12716Y10917D01*
X12604D01*
X12608Y10922D01*
X12612Y10927D01*
X12616Y10933D01*
X12619Y10938D01*
X12622Y10945D01*
X12624Y10951D01*
X12625Y10958D01*
X12627Y10965D01*
X12627Y10973D01*
X12628Y10981D01*
X12693D01*
X12693Y10973D01*
D02*
G37*
G36*
X12113Y10994D02*
X12100Y10990D01*
X12089Y10982D01*
X12079Y10972D01*
X12071Y10958D01*
X12064Y10941D01*
X12059Y10922D01*
X12055Y10899D01*
X12053Y10873D01*
X12052Y10845D01*
X11902D01*
X11902Y10873D01*
X11899Y10899D01*
X11896Y10922D01*
X11890Y10941D01*
X11884Y10958D01*
X11875Y10972D01*
X11866Y10982D01*
X11854Y10990D01*
X11842Y10994D01*
X11827Y10996D01*
X12127D01*
X12113Y10994D01*
D02*
G37*
G36*
X13484Y9881D02*
X13481Y9875D01*
X13478Y9869D01*
X13476Y9863D01*
X13473Y9856D01*
X13472Y9850D01*
X13470Y9843D01*
X13469Y9835D01*
X13469Y9828D01*
X13468Y9820D01*
X13403Y9810D01*
X13403Y9818D01*
X13402Y9826D01*
X13401Y9833D01*
X13399Y9840D01*
X13397Y9846D01*
X13394Y9852D01*
X13391Y9857D01*
X13387Y9862D01*
X13382Y9867D01*
X13377Y9871D01*
X13488Y9886D01*
X13484Y9881D01*
D02*
G37*
G36*
X14664Y9800D02*
X14660Y9795D01*
X14657Y9789D01*
X14654Y9783D01*
X14652Y9777D01*
X14650Y9770D01*
X14648Y9764D01*
X14647Y9756D01*
X14646Y9749D01*
X14646Y9741D01*
X14581Y9737D01*
X14581Y9745D01*
X14580Y9753D01*
X14579Y9760D01*
X14577Y9767D01*
X14575Y9774D01*
X14572Y9780D01*
X14569Y9786D01*
X14565Y9791D01*
X14561Y9796D01*
X14557Y9801D01*
X14668Y9805D01*
X14664Y9800D01*
D02*
G37*
G36*
X10063Y9544D02*
X10046Y9538D01*
X10031Y9528D01*
X10018Y9513D01*
X10007Y9495D01*
X9998Y9473D01*
X9991Y9447D01*
X9986Y9417D01*
X9983Y9383D01*
X9982Y9344D01*
X9782D01*
X9781Y9383D01*
X9778Y9417D01*
X9773Y9447D01*
X9766Y9473D01*
X9757Y9495D01*
X9746Y9513D01*
X9733Y9528D01*
X9718Y9538D01*
X9701Y9544D01*
X9682Y9546D01*
X10082D01*
X10063Y9544D01*
D02*
G37*
G36*
X12591Y9009D02*
X12590Y9018D01*
X12587Y9027D01*
X12582Y9034D01*
X12575Y9041D01*
X12566Y9046D01*
X12555Y9051D01*
X12542Y9054D01*
X12527Y9057D01*
X12509Y9058D01*
X12490Y9059D01*
Y9159D01*
X12509Y9159D01*
X12527Y9161D01*
X12542Y9163D01*
X12555Y9167D01*
X12566Y9171D01*
X12575Y9177D01*
X12582Y9183D01*
X12587Y9191D01*
X12590Y9199D01*
X12591Y9209D01*
Y9009D01*
D02*
G37*
G36*
X979Y13820D02*
X979Y13737D01*
X977Y13735D01*
X951Y13696D01*
X942Y13650D01*
X942Y11590D01*
X944Y11580D01*
X943Y11570D01*
X948Y11557D01*
X951Y11544D01*
X956Y11535D01*
X960Y11526D01*
X969Y11516D01*
X977Y11504D01*
X981Y11502D01*
X981Y11490D01*
X996D01*
X1005Y11486D01*
X1016Y11478D01*
X1026Y11476D01*
X1035Y11472D01*
X1085Y11461D01*
X1087Y11461D01*
X1088Y11460D01*
X1110D01*
X1132Y11459D01*
X1134Y11460D01*
X1135D01*
X1156Y11468D01*
X1167Y11473D01*
X1191Y11478D01*
X1504D01*
X1525Y11473D01*
X1531Y11471D01*
X1541Y11464D01*
X1552Y11462D01*
X1563Y11457D01*
X1575D01*
X1587Y11455D01*
X3955D01*
X3955Y8775D01*
X3905Y8734D01*
X3884Y8738D01*
X2978D01*
X2917Y8726D01*
X2865Y8691D01*
X2830Y8639D01*
X2818Y8577D01*
Y7868D01*
X2829Y7812D01*
X2824Y7811D01*
X2785Y7785D01*
X2759Y7746D01*
X2750Y7700D01*
Y7570D01*
X2700Y7553D01*
X2693Y7562D01*
X2627Y7612D01*
X2551Y7644D01*
X2468Y7655D01*
X2386Y7644D01*
X2310Y7612D01*
X2244Y7562D01*
X2193Y7496D01*
X2162Y7419D01*
X2151Y7337D01*
X2162Y7255D01*
X2184Y7200D01*
X2163Y7162D01*
X2205D01*
X2244Y7112D01*
X2310Y7062D01*
X2386Y7030D01*
X2468Y7019D01*
X2551Y7030D01*
X2627Y7062D01*
X2693Y7112D01*
X2700Y7121D01*
X2750Y7104D01*
Y7010D01*
X2759Y6964D01*
X2785Y6925D01*
X2824Y6899D01*
X2870Y6890D01*
X2889D01*
X2926Y6840D01*
X2915Y6786D01*
X2932Y6701D01*
X2980Y6630D01*
Y6627D01*
X2932Y6555D01*
X2915Y6471D01*
X2932Y6386D01*
X2953Y6354D01*
X2979Y6313D01*
X2953Y6272D01*
X2932Y6240D01*
X2915Y6156D01*
X2932Y6071D01*
X2980Y6000D01*
X3051Y5952D01*
X3136Y5935D01*
X3825D01*
X3909Y5952D01*
X3981Y6000D01*
X4029Y6071D01*
X4046Y6156D01*
X4029Y6240D01*
X4007Y6272D01*
X3982Y6313D01*
X4007Y6354D01*
X4029Y6386D01*
X4038Y6432D01*
X4387D01*
X4429Y6391D01*
X4466Y6366D01*
X4491Y6361D01*
X4513Y6328D01*
X4579Y6284D01*
X4656Y6269D01*
X4722Y6282D01*
X4772Y6254D01*
Y4828D01*
X4780Y4784D01*
X4805Y4748D01*
X5590Y3962D01*
X5613Y3947D01*
X5598Y3897D01*
X4810Y3897D01*
X4764Y3888D01*
X4725Y3862D01*
X4699Y3823D01*
X4690Y3776D01*
Y2091D01*
X4699Y2045D01*
X4725Y2006D01*
X4725Y2006D01*
X4760Y1971D01*
X4760Y1971D01*
X4799Y1945D01*
X4845Y1935D01*
X4845Y1935D01*
X6338Y1935D01*
X6384Y1945D01*
X6423Y1971D01*
X6449Y2010D01*
X6485Y2037D01*
X6874D01*
X6929Y2048D01*
X6975Y2079D01*
X7006Y2125D01*
X7017Y2180D01*
Y2284D01*
X7230D01*
Y2248D01*
X7249Y2152D01*
X7304Y2071D01*
X7385Y2017D01*
X7481Y1998D01*
X7737D01*
X7833Y2017D01*
X7914Y2071D01*
X7954Y2131D01*
X8012D01*
X8052Y2071D01*
X8133Y2017D01*
X8229Y1998D01*
X8485D01*
X8581Y2017D01*
X8662Y2071D01*
X8717Y2152D01*
X8736Y2248D01*
Y2284D01*
X9873D01*
X9923Y2294D01*
X9966Y2323D01*
X10399Y2756D01*
X10427Y2799D01*
X10437Y2849D01*
Y6313D01*
X10427Y6364D01*
X10399Y6406D01*
X9985Y6820D01*
X9943Y6848D01*
X9893Y6858D01*
X9233D01*
X9194Y6908D01*
X9196Y6921D01*
Y7045D01*
X9227Y7082D01*
X9444D01*
X9504Y7094D01*
X9554Y7128D01*
X9578Y7162D01*
X11268D01*
X11299Y7124D01*
X11295Y7101D01*
X11310Y7023D01*
X11354Y6958D01*
X11420Y6914D01*
X11497Y6899D01*
X11574Y6914D01*
X11612Y6939D01*
X11662Y6913D01*
Y6851D01*
X11671Y6806D01*
X11662Y6760D01*
Y6654D01*
X11671Y6606D01*
X11699Y6565D01*
X11740Y6537D01*
X11747Y6536D01*
Y6485D01*
X11740Y6483D01*
X11699Y6456D01*
X11697Y6456D01*
X11643Y6462D01*
X11586Y6500D01*
X11509Y6515D01*
X11432Y6500D01*
X11366Y6456D01*
X11322Y6391D01*
X11307Y6313D01*
X11322Y6236D01*
X11366Y6171D01*
X11395Y6151D01*
Y1741D01*
X11404Y1698D01*
X11429Y1661D01*
X11770Y1320D01*
X11807Y1295D01*
X11850Y1287D01*
X12449D01*
Y600D01*
X1631Y600D01*
X1605Y643D01*
X1642Y712D01*
X1683Y845D01*
X1696Y984D01*
X1683Y1123D01*
X1642Y1257D01*
X1576Y1380D01*
X1488Y1488D01*
X1380Y1576D01*
X1257Y1642D01*
X1123Y1683D01*
X984Y1696D01*
X845Y1683D01*
X712Y1642D01*
X589Y1576D01*
X481Y1488D01*
X392Y1380D01*
X345Y1291D01*
X295Y1304D01*
X299Y7162D01*
X300D01*
X300Y13820D01*
X979Y13820D01*
D02*
G37*
G36*
X9941Y8823D02*
X9943Y8822D01*
X9946Y8821D01*
X9951Y8820D01*
X9955Y8820D01*
X9968Y8819D01*
X9993Y8818D01*
Y8718D01*
X9983Y8718D01*
X9951Y8716D01*
X9946Y8715D01*
X9943Y8714D01*
X9941Y8713D01*
X9939Y8712D01*
Y8824D01*
X9941Y8823D01*
D02*
G37*
G36*
X18000Y8652D02*
X18002Y8638D01*
X18003Y8626D01*
X18006Y8616D01*
X18010Y8607D01*
X18014Y8600D01*
X18019Y8594D01*
X18025Y8590D01*
X18032Y8588D01*
X18039Y8587D01*
X17882D01*
X17889Y8588D01*
X17896Y8590D01*
X17902Y8594D01*
X17907Y8600D01*
X17911Y8607D01*
X17915Y8616D01*
X17918Y8626D01*
X17920Y8638D01*
X17921Y8652D01*
X17921Y8667D01*
X18000D01*
X18000Y8652D01*
D02*
G37*
G36*
X11785Y8422D02*
X11783Y8423D01*
X11780Y8424D01*
X11774Y8425D01*
X11767Y8426D01*
X11747Y8428D01*
X11683Y8429D01*
Y8529D01*
X11702Y8529D01*
X11783Y8534D01*
X11785Y8535D01*
Y8422D01*
D02*
G37*
G36*
X19073Y8257D02*
X19068Y8261D01*
X19063Y8265D01*
X19057Y8268D01*
X19051Y8271D01*
X19045Y8274D01*
X19038Y8276D01*
X19031Y8277D01*
X19024Y8278D01*
X19016Y8279D01*
X19008Y8279D01*
X19005Y8344D01*
X19013Y8345D01*
X19021Y8345D01*
X19028Y8347D01*
X19035Y8348D01*
X19041Y8351D01*
X19047Y8353D01*
X19053Y8356D01*
X19059Y8360D01*
X19063Y8364D01*
X19068Y8369D01*
X19073Y8257D01*
D02*
G37*
G36*
X18866Y8371D02*
X18868Y8365D01*
X18871Y8360D01*
X18876Y8356D01*
X18882Y8353D01*
X18889Y8350D01*
X18898Y8347D01*
X18908Y8346D01*
X18919Y8345D01*
X18932Y8344D01*
Y8279D01*
X18919Y8279D01*
X18908Y8278D01*
X18898Y8276D01*
X18889Y8274D01*
X18882Y8271D01*
X18876Y8268D01*
X18871Y8263D01*
X18868Y8259D01*
X18866Y8253D01*
X18865Y8247D01*
Y8377D01*
X18866Y8371D01*
D02*
G37*
G36*
X9825Y8205D02*
X9823Y8206D01*
X9821Y8207D01*
X9818Y8208D01*
X9814Y8208D01*
X9809Y8209D01*
X9796Y8210D01*
X9772Y8211D01*
Y8311D01*
X9781Y8311D01*
X9814Y8313D01*
X9818Y8314D01*
X9821Y8314D01*
X9823Y8315D01*
X9825Y8317D01*
Y8205D01*
D02*
G37*
G36*
X6375Y8070D02*
X6379Y8067D01*
X6385Y8064D01*
X6393Y8062D01*
X6402Y8060D01*
X6413Y8059D01*
X6440Y8057D01*
X6475Y8056D01*
Y7956D01*
X6457Y7956D01*
X6402Y7952D01*
X6393Y7950D01*
X6385Y7948D01*
X6379Y7946D01*
X6375Y7943D01*
X6373Y7940D01*
Y8073D01*
X6375Y8070D01*
D02*
G37*
G36*
X18051Y8036D02*
X18043Y8033D01*
X18035Y8028D01*
X18029Y8021D01*
X18023Y8012D01*
X18019Y8001D01*
X18015Y7987D01*
X18013Y7972D01*
X18011Y7955D01*
X18011Y7936D01*
X17911D01*
X17910Y7955D01*
X17909Y7972D01*
X17906Y7987D01*
X17903Y8001D01*
X17898Y8012D01*
X17893Y8021D01*
X17886Y8028D01*
X17879Y8033D01*
X17870Y8036D01*
X17861Y8037D01*
X18061D01*
X18051Y8036D01*
D02*
G37*
G36*
X18011Y7852D02*
X18013Y7834D01*
X18015Y7819D01*
X18019Y7806D01*
X18023Y7795D01*
X18029Y7786D01*
X18035Y7779D01*
X18043Y7774D01*
X18051Y7771D01*
X18061Y7770D01*
X17861D01*
X17870Y7771D01*
X17879Y7774D01*
X17886Y7779D01*
X17893Y7786D01*
X17898Y7795D01*
X17903Y7806D01*
X17906Y7819D01*
X17909Y7834D01*
X17910Y7852D01*
X17911Y7871D01*
X18011D01*
X18011Y7852D01*
D02*
G37*
G36*
X6170Y11576D02*
X5280D01*
X5280Y7700D01*
D01*
Y7320D01*
X5676D01*
X5684Y7315D01*
X5733Y7305D01*
X6369D01*
X6405Y7312D01*
Y7165D01*
X6369Y7172D01*
X5733D01*
X5684Y7162D01*
X5680Y7160D01*
X5290Y7160D01*
Y7010D01*
X2870D01*
Y7700D01*
X4075D01*
X4075Y11576D01*
X1587D01*
X1569Y11587D01*
X1516Y11598D01*
X1179D01*
X1126Y11587D01*
X1112Y11578D01*
X1062Y11590D01*
X1062Y13650D01*
X6170Y13650D01*
X6170Y11576D01*
D02*
G37*
G36*
X11556Y7156D02*
X11558Y7155D01*
X11561Y7154D01*
X11565Y7153D01*
X11570Y7152D01*
X11583Y7151D01*
X11607Y7151D01*
Y7051D01*
X11598Y7051D01*
X11565Y7049D01*
X11561Y7048D01*
X11558Y7047D01*
X11556Y7046D01*
X11554Y7045D01*
Y7157D01*
X11556Y7156D01*
D02*
G37*
G36*
X11785Y7044D02*
X11783Y7045D01*
X11780Y7046D01*
X11774Y7047D01*
X11767Y7048D01*
X11747Y7050D01*
X11683Y7051D01*
Y7151D01*
X11702Y7151D01*
X11783Y7156D01*
X11785Y7158D01*
Y7044D01*
D02*
G37*
G36*
X6375Y7046D02*
X6379Y7043D01*
X6385Y7041D01*
X6393Y7039D01*
X6402Y7037D01*
X6413Y7035D01*
X6440Y7033D01*
X6475Y7033D01*
Y6933D01*
X6457Y6933D01*
X6402Y6929D01*
X6393Y6927D01*
X6385Y6925D01*
X6379Y6922D01*
X6375Y6919D01*
X6373Y6916D01*
Y7049D01*
X6375Y7046D01*
D02*
G37*
G36*
X13419Y6900D02*
X13413Y6900D01*
X13406Y6899D01*
X13400Y6898D01*
X13393Y6896D01*
X13387Y6893D01*
X13381Y6890D01*
X13375Y6886D01*
X13369Y6882D01*
X13363Y6877D01*
X13357Y6871D01*
X13311Y6917D01*
X13317Y6923D01*
X13322Y6929D01*
X13326Y6935D01*
X13330Y6941D01*
X13333Y6947D01*
X13336Y6954D01*
X13338Y6960D01*
X13339Y6966D01*
X13340Y6973D01*
X13340Y6979D01*
X13419Y6900D01*
D02*
G37*
G36*
X4595Y6735D02*
X4590Y6740D01*
X4585Y6744D01*
X4580Y6748D01*
X4575Y6751D01*
X4569Y6754D01*
X4562Y6756D01*
X4555Y6758D01*
X4548Y6759D01*
X4541Y6760D01*
X4533Y6760D01*
X4539Y6825D01*
X4547Y6825D01*
X4554Y6826D01*
X4562Y6827D01*
X4569Y6829D01*
X4575Y6830D01*
X4582Y6833D01*
X4588Y6836D01*
X4594Y6839D01*
X4599Y6842D01*
X4604Y6846D01*
X4595Y6735D01*
D02*
G37*
G36*
X4735Y6768D02*
X4735Y6766D01*
X4737Y6764D01*
X4739Y6761D01*
X4741Y6758D01*
X4748Y6750D01*
X4764Y6734D01*
X4718Y6688D01*
X4713Y6693D01*
X4697Y6707D01*
X4693Y6709D01*
X4691Y6710D01*
X4688Y6711D01*
X4687Y6711D01*
X4685Y6711D01*
X4735Y6770D01*
X4735Y6768D01*
D02*
G37*
G36*
X9075Y6790D02*
X9079Y6787D01*
X9085Y6785D01*
X9093Y6783D01*
X9102Y6781D01*
X9113Y6779D01*
X9140Y6777D01*
X9175Y6777D01*
Y6677D01*
X9157Y6677D01*
X9102Y6673D01*
X9093Y6671D01*
X9085Y6669D01*
X9079Y6666D01*
X9075Y6664D01*
X9073Y6660D01*
Y6793D01*
X9075Y6790D01*
D02*
G37*
G36*
X4764Y6523D02*
X4758Y6517D01*
X4739Y6495D01*
X4737Y6493D01*
X4735Y6490D01*
X4735Y6488D01*
X4735Y6487D01*
X4685Y6546D01*
X4687Y6545D01*
X4688Y6546D01*
X4691Y6547D01*
X4693Y6548D01*
X4697Y6550D01*
X4700Y6553D01*
X4708Y6560D01*
X4718Y6569D01*
X4764Y6523D01*
D02*
G37*
G36*
X12255Y6562D02*
X12258Y6558D01*
X12263Y6555D01*
X12268Y6551D01*
X12274Y6549D01*
X12281Y6547D01*
X12289Y6545D01*
X12298Y6544D01*
X12308Y6543D01*
X12319Y6543D01*
Y6478D01*
X12308Y6477D01*
X12289Y6476D01*
X12281Y6474D01*
X12274Y6472D01*
X12268Y6469D01*
X12263Y6466D01*
X12258Y6462D01*
X12255Y6458D01*
X12252Y6453D01*
Y6567D01*
X12255Y6562D01*
D02*
G37*
G36*
X4599Y6415D02*
X4594Y6419D01*
X4589Y6423D01*
X4584Y6427D01*
X4578Y6430D01*
X4572Y6432D01*
X4565Y6435D01*
X4558Y6436D01*
X4551Y6437D01*
X4543Y6438D01*
X4535Y6438D01*
Y6503D01*
X4543Y6504D01*
X4551Y6504D01*
X4558Y6505D01*
X4565Y6507D01*
X4572Y6509D01*
X4578Y6512D01*
X4584Y6515D01*
X4589Y6518D01*
X4594Y6522D01*
X4599Y6527D01*
Y6415D01*
D02*
G37*
G36*
X9075Y6534D02*
X9079Y6531D01*
X9085Y6529D01*
X9093Y6527D01*
X9102Y6525D01*
X9113Y6523D01*
X9140Y6522D01*
X9175Y6521D01*
Y6421D01*
X9157Y6421D01*
X9102Y6417D01*
X9093Y6415D01*
X9085Y6413D01*
X9079Y6410D01*
X9075Y6408D01*
X9073Y6405D01*
Y6537D01*
X9075Y6534D01*
D02*
G37*
G36*
X11571Y6365D02*
X11576Y6361D01*
X11581Y6357D01*
X11587Y6354D01*
X11593Y6352D01*
X11600Y6350D01*
X11607Y6348D01*
X11614Y6347D01*
X11622Y6346D01*
X11630Y6346D01*
X11630Y6281D01*
X11622Y6281D01*
X11614Y6280D01*
X11607Y6279D01*
X11600Y6277D01*
X11593Y6275D01*
X11587Y6272D01*
X11581Y6269D01*
X11576Y6266D01*
X11571Y6262D01*
X11566Y6257D01*
X11566Y6369D01*
X11571Y6365D01*
D02*
G37*
G36*
X11785Y6257D02*
X11782Y6261D01*
X11779Y6265D01*
X11774Y6269D01*
X11769Y6272D01*
X11763Y6275D01*
X11756Y6277D01*
X11748Y6279D01*
X11739Y6280D01*
X11729Y6281D01*
X11718Y6281D01*
Y6346D01*
X11729Y6346D01*
X11748Y6348D01*
X11756Y6350D01*
X11763Y6352D01*
X11769Y6355D01*
X11774Y6358D01*
X11779Y6361D01*
X11782Y6366D01*
X11785Y6370D01*
Y6257D01*
D02*
G37*
G36*
X11560Y6252D02*
X11556Y6246D01*
X11553Y6241D01*
X11550Y6235D01*
X11547Y6229D01*
X11545Y6222D01*
X11543Y6215D01*
X11542Y6208D01*
X11542Y6200D01*
X11541Y6192D01*
X11476D01*
X11476Y6200D01*
X11475Y6208D01*
X11474Y6215D01*
X11473Y6222D01*
X11470Y6229D01*
X11468Y6235D01*
X11465Y6241D01*
X11461Y6246D01*
X11457Y6252D01*
X11453Y6256D01*
X11565D01*
X11560Y6252D01*
D02*
G37*
G36*
X14679Y6186D02*
X14674Y6182D01*
X14670Y6177D01*
X14666Y6172D01*
X14663Y6166D01*
X14661Y6160D01*
X14658Y6153D01*
X14657Y6147D01*
X14655Y6139D01*
X14655Y6132D01*
X14654Y6124D01*
X14589Y6128D01*
X14589Y6136D01*
X14588Y6144D01*
X14587Y6151D01*
X14586Y6158D01*
X14584Y6165D01*
X14581Y6171D01*
X14579Y6177D01*
X14575Y6183D01*
X14572Y6188D01*
X14567Y6193D01*
X14679Y6186D01*
D02*
G37*
G36*
X8328Y7112D02*
X8315Y7093D01*
X8305Y7045D01*
Y6921D01*
X8315Y6872D01*
X8327Y6855D01*
X8315Y6838D01*
X8305Y6789D01*
Y6665D01*
X8315Y6616D01*
X8327Y6599D01*
X8315Y6582D01*
X8305Y6533D01*
Y6409D01*
X8315Y6360D01*
X8343Y6319D01*
X8384Y6291D01*
X8433Y6281D01*
X8556D01*
X8597Y6231D01*
X8594Y6215D01*
X8597Y6199D01*
X8556Y6149D01*
X8433D01*
X8384Y6139D01*
X8343Y6111D01*
X8335Y6100D01*
X8059D01*
X7681Y6477D01*
X7682Y6480D01*
X7667Y6557D01*
X7623Y6623D01*
X7557Y6667D01*
X7480Y6682D01*
X7403Y6667D01*
X7337Y6623D01*
X7293Y6557D01*
X7278Y6480D01*
X7293Y6403D01*
X7337Y6337D01*
X7403Y6293D01*
X7480Y6278D01*
X7483Y6279D01*
X7902Y5860D01*
X7947Y5829D01*
X8001Y5819D01*
X8265D01*
X8306Y5769D01*
X8305Y5765D01*
Y5641D01*
X8315Y5592D01*
X8343Y5551D01*
X8384Y5523D01*
X8433Y5514D01*
X8556D01*
X8597Y5464D01*
X8594Y5447D01*
X8597Y5431D01*
X8556Y5381D01*
X8433D01*
X8384Y5371D01*
X8343Y5343D01*
X8315Y5302D01*
X8305Y5253D01*
Y5129D01*
X8315Y5081D01*
X8327Y5063D01*
X8315Y5046D01*
X8307Y5003D01*
X7921D01*
X7877Y4995D01*
X7841Y4970D01*
X7191Y4321D01*
X5786D01*
X5632Y4474D01*
X5664Y4513D01*
X5684Y4500D01*
X5733Y4490D01*
X6369D01*
X6417Y4500D01*
X6459Y4527D01*
X6486Y4569D01*
X6496Y4618D01*
Y4742D01*
X6486Y4790D01*
X6475Y4807D01*
X6486Y4825D01*
X6496Y4873D01*
Y4997D01*
X6486Y5046D01*
X6475Y5063D01*
X6486Y5081D01*
X6496Y5129D01*
Y5253D01*
X6486Y5302D01*
X6475Y5319D01*
X6486Y5336D01*
X6496Y5385D01*
Y5509D01*
X6486Y5558D01*
X6475Y5575D01*
X6486Y5592D01*
X6496Y5641D01*
Y5765D01*
X6486Y5814D01*
X6475Y5831D01*
X6486Y5848D01*
X6496Y5897D01*
Y6021D01*
X6486Y6070D01*
X6475Y6087D01*
X6486Y6104D01*
X6496Y6153D01*
Y6277D01*
X6527Y6314D01*
X6802D01*
X6862Y6326D01*
X6913Y6360D01*
X6947Y6411D01*
X6959Y6471D01*
X6947Y6531D01*
X6913Y6582D01*
X6862Y6616D01*
X6802Y6628D01*
X6527D01*
X6496Y6665D01*
Y6789D01*
X6494Y6801D01*
X6533Y6851D01*
X7033D01*
X7083Y6861D01*
X7125Y6890D01*
X7313Y7077D01*
X7341Y7120D01*
X7350Y7162D01*
X8301D01*
X8328Y7112D01*
D02*
G37*
G36*
X14655Y5973D02*
X14656Y5953D01*
X14657Y5945D01*
X14659Y5938D01*
X14661Y5932D01*
X14664Y5927D01*
X14667Y5923D01*
X14670Y5919D01*
X14674Y5917D01*
X14560D01*
X14566Y5920D01*
X14571Y5924D01*
X14575Y5928D01*
X14579Y5934D01*
X14582Y5940D01*
X14585Y5947D01*
X14587Y5955D01*
X14588Y5964D01*
X14589Y5973D01*
X14589Y5984D01*
X14654D01*
X14655Y5973D01*
D02*
G37*
G36*
X8429Y5893D02*
X8427Y5894D01*
X8423Y5895D01*
X8416Y5896D01*
X8408Y5897D01*
X8368Y5899D01*
X8309Y5900D01*
Y6018D01*
X8331Y6018D01*
X8427Y6024D01*
X8429Y6025D01*
Y5893D01*
D02*
G37*
G36*
X17375Y5962D02*
X17379Y5942D01*
X17385Y5921D01*
X17394Y5900D01*
X17406Y5878D01*
X17420Y5856D01*
X17437Y5833D01*
X17456Y5809D01*
X17503Y5760D01*
X17145D01*
X17169Y5785D01*
X17211Y5833D01*
X17227Y5856D01*
X17241Y5878D01*
X17253Y5900D01*
X17262Y5921D01*
X17269Y5942D01*
X17272Y5962D01*
X17274Y5981D01*
X17374D01*
X17375Y5962D01*
D02*
G37*
G36*
X18978Y5459D02*
X18977Y5470D01*
X18973Y5480D01*
X18967Y5489D01*
X18959Y5496D01*
X18948Y5503D01*
X18935Y5508D01*
X18920Y5512D01*
X18902Y5515D01*
X18881Y5517D01*
X18859Y5518D01*
Y5636D01*
X18881Y5636D01*
X18902Y5638D01*
X18920Y5641D01*
X18935Y5645D01*
X18948Y5651D01*
X18959Y5657D01*
X18967Y5665D01*
X18973Y5674D01*
X18977Y5684D01*
X18978Y5695D01*
Y5459D01*
D02*
G37*
G36*
X17530Y5733D02*
X17576Y5695D01*
X17598Y5679D01*
X17620Y5666D01*
X17642Y5655D01*
X17664Y5647D01*
X17685Y5641D01*
X17706Y5637D01*
X17726Y5636D01*
Y5518D01*
X17706Y5517D01*
X17685Y5513D01*
X17664Y5507D01*
X17642Y5498D01*
X17620Y5488D01*
X17598Y5474D01*
X17576Y5459D01*
X17553Y5441D01*
X17530Y5420D01*
X17507Y5398D01*
Y5756D01*
X17530Y5733D01*
D02*
G37*
G36*
X14866Y5447D02*
X14862Y5444D01*
X14858Y5439D01*
X14855Y5434D01*
X14852Y5428D01*
X14850Y5421D01*
X14848Y5413D01*
X14847Y5404D01*
X14847Y5394D01*
X14846Y5383D01*
X14781D01*
X14781Y5394D01*
X14779Y5413D01*
X14777Y5421D01*
X14775Y5428D01*
X14773Y5434D01*
X14769Y5439D01*
X14766Y5444D01*
X14762Y5447D01*
X14757Y5450D01*
X14871D01*
X14866Y5447D01*
D02*
G37*
G36*
X14476Y5448D02*
X14474Y5445D01*
X14473Y5439D01*
X14473Y5432D01*
X14471Y5412D01*
X14470Y5348D01*
X14370D01*
X14370Y5367D01*
X14365Y5448D01*
X14363Y5450D01*
X14477D01*
X14476Y5448D01*
D02*
G37*
G36*
X14847Y5238D02*
X14847Y5230D01*
X14848Y5223D01*
X14850Y5216D01*
X14852Y5209D01*
X14855Y5203D01*
X14858Y5197D01*
X14861Y5192D01*
X14865Y5186D01*
X14870Y5182D01*
X14758D01*
X14762Y5186D01*
X14766Y5192D01*
X14770Y5197D01*
X14773Y5203D01*
X14775Y5209D01*
X14778Y5216D01*
X14779Y5223D01*
X14780Y5230D01*
X14781Y5238D01*
X14781Y5246D01*
X14846D01*
X14847Y5238D01*
D02*
G37*
G36*
X9324Y5135D02*
X9322Y5136D01*
X9320Y5138D01*
X9316Y5138D01*
X9312Y5139D01*
X9307Y5140D01*
X9295Y5141D01*
X9270Y5141D01*
Y5241D01*
X9279Y5241D01*
X9312Y5243D01*
X9316Y5244D01*
X9320Y5245D01*
X9322Y5246D01*
X9324Y5247D01*
Y5135D01*
D02*
G37*
G36*
X9075Y5255D02*
X9079Y5252D01*
X9085Y5249D01*
X9093Y5247D01*
X9102Y5245D01*
X9113Y5244D01*
X9140Y5242D01*
X9175Y5241D01*
Y5141D01*
X9157Y5141D01*
X9102Y5137D01*
X9093Y5135D01*
X9085Y5133D01*
X9079Y5131D01*
X9075Y5128D01*
X9073Y5125D01*
Y5258D01*
X9075Y5255D01*
D02*
G37*
G36*
X5605Y6921D02*
X5615Y6872D01*
X5627Y6855D01*
X5615Y6838D01*
X5605Y6789D01*
Y6665D01*
X5615Y6616D01*
X5643Y6575D01*
X5684Y6547D01*
X5733Y6537D01*
X6125D01*
X6167Y6487D01*
X6163Y6471D01*
X6167Y6454D01*
X6125Y6404D01*
X5733D01*
X5684Y6395D01*
X5643Y6367D01*
X5615Y6326D01*
X5605Y6277D01*
Y6153D01*
X5615Y6104D01*
X5627Y6087D01*
X5615Y6070D01*
X5605Y6021D01*
Y5897D01*
X5615Y5848D01*
X5627Y5831D01*
X5615Y5814D01*
X5605Y5765D01*
Y5641D01*
X5615Y5592D01*
X5627Y5575D01*
X5615Y5558D01*
X5605Y5509D01*
Y5385D01*
X5615Y5336D01*
X5627Y5319D01*
X5615Y5302D01*
X5605Y5253D01*
Y5129D01*
X5615Y5081D01*
X5627Y5063D01*
X5615Y5046D01*
X5605Y4997D01*
Y4873D01*
X5615Y4825D01*
X5627Y4807D01*
X5615Y4790D01*
X5605Y4742D01*
Y4618D01*
X5615Y4569D01*
X5629Y4549D01*
X5590Y4517D01*
X5163Y4943D01*
Y6560D01*
X5155Y6603D01*
X5130Y6640D01*
X4979Y6791D01*
X4942Y6816D01*
X4899Y6824D01*
X4897D01*
X4889Y6840D01*
X4919Y6890D01*
X5290D01*
X5336Y6899D01*
X5375Y6925D01*
X5401Y6964D01*
X5410Y7010D01*
Y7040D01*
X5605Y7040D01*
Y6921D01*
D02*
G37*
G36*
X17088Y3964D02*
X17105Y3953D01*
X17124Y3943D01*
X17145Y3934D01*
X17169Y3927D01*
X17195Y3921D01*
X17223Y3917D01*
X17253Y3913D01*
X17321Y3911D01*
X17068Y3658D01*
X17068Y3693D01*
X17063Y3756D01*
X17058Y3785D01*
X17052Y3811D01*
X17045Y3834D01*
X17037Y3856D01*
X17027Y3875D01*
X17015Y3892D01*
X17002Y3906D01*
X17073Y3977D01*
X17088Y3964D01*
D02*
G37*
G36*
X18978Y3556D02*
X18977Y3565D01*
X18974Y3574D01*
X18969Y3581D01*
X18962Y3588D01*
X18953Y3593D01*
X18942Y3598D01*
X18928Y3601D01*
X18913Y3604D01*
X18896Y3605D01*
X18877Y3606D01*
Y3706D01*
X18896Y3706D01*
X18913Y3708D01*
X18928Y3710D01*
X18942Y3714D01*
X18953Y3718D01*
X18962Y3724D01*
X18969Y3730D01*
X18974Y3738D01*
X18977Y3746D01*
X18978Y3756D01*
Y3556D01*
D02*
G37*
G36*
X17532Y3810D02*
X17580Y3769D01*
X17603Y3752D01*
X17625Y3738D01*
X17647Y3726D01*
X17668Y3717D01*
X17689Y3711D01*
X17709Y3707D01*
X17728Y3706D01*
Y3606D01*
X17709Y3604D01*
X17689Y3600D01*
X17668Y3594D01*
X17647Y3585D01*
X17625Y3573D01*
X17603Y3559D01*
X17580Y3542D01*
X17556Y3523D01*
X17507Y3476D01*
Y3835D01*
X17532Y3810D01*
D02*
G37*
G36*
X8618Y3489D02*
X8621Y3480D01*
X8626Y3473D01*
X8633Y3467D01*
X8643Y3461D01*
X8654Y3456D01*
X8667Y3453D01*
X8682Y3451D01*
X8699Y3449D01*
X8718Y3449D01*
Y3349D01*
X8699Y3348D01*
X8682Y3347D01*
X8667Y3344D01*
X8654Y3340D01*
X8643Y3336D01*
X8633Y3331D01*
X8626Y3324D01*
X8621Y3316D01*
X8618Y3308D01*
X8617Y3298D01*
Y3498D01*
X8618Y3489D01*
D02*
G37*
G36*
X7360Y3298D02*
X7359Y3308D01*
X7356Y3316D01*
X7351Y3324D01*
X7344Y3331D01*
X7335Y3336D01*
X7324Y3340D01*
X7310Y3344D01*
X7295Y3347D01*
X7278Y3348D01*
X7259Y3349D01*
Y3449D01*
X7278Y3449D01*
X7295Y3451D01*
X7310Y3453D01*
X7324Y3456D01*
X7335Y3461D01*
X7344Y3467D01*
X7351Y3473D01*
X7356Y3480D01*
X7359Y3489D01*
X7360Y3498D01*
Y3298D01*
D02*
G37*
G36*
X6902Y3489D02*
X6905Y3480D01*
X6910Y3473D01*
X6917Y3467D01*
X6927Y3461D01*
X6938Y3456D01*
X6951Y3453D01*
X6966Y3451D01*
X6983Y3449D01*
X7002Y3449D01*
Y3349D01*
X6983Y3348D01*
X6966Y3347D01*
X6951Y3344D01*
X6938Y3340D01*
X6927Y3336D01*
X6917Y3331D01*
X6910Y3324D01*
X6905Y3316D01*
X6902Y3308D01*
X6901Y3298D01*
Y3498D01*
X6902Y3489D01*
D02*
G37*
G36*
X8613Y2506D02*
X8616Y2498D01*
X8621Y2490D01*
X8628Y2484D01*
X8637Y2478D01*
X8648Y2474D01*
X8661Y2470D01*
X8676Y2468D01*
X8694Y2466D01*
X8713Y2466D01*
Y2366D01*
X8694Y2365D01*
X8676Y2364D01*
X8661Y2361D01*
X8648Y2358D01*
X8637Y2353D01*
X8628Y2348D01*
X8621Y2341D01*
X8616Y2334D01*
X8613Y2325D01*
X8612Y2316D01*
Y2516D01*
X8613Y2506D01*
D02*
G37*
G36*
X7354Y2316D02*
X7353Y2325D01*
X7350Y2334D01*
X7345Y2341D01*
X7338Y2348D01*
X7329Y2353D01*
X7318Y2358D01*
X7305Y2361D01*
X7290Y2364D01*
X7272Y2365D01*
X7253Y2366D01*
Y2466D01*
X7272Y2466D01*
X7290Y2468D01*
X7305Y2470D01*
X7318Y2474D01*
X7329Y2478D01*
X7338Y2484D01*
X7345Y2490D01*
X7350Y2498D01*
X7353Y2506D01*
X7354Y2516D01*
Y2316D01*
D02*
G37*
G36*
X6896Y2506D02*
X6899Y2498D01*
X6904Y2490D01*
X6912Y2484D01*
X6921Y2478D01*
X6932Y2474D01*
X6945Y2470D01*
X6960Y2468D01*
X6977Y2466D01*
X6997Y2466D01*
Y2366D01*
X6977Y2365D01*
X6960Y2364D01*
X6945Y2361D01*
X6932Y2358D01*
X6921Y2353D01*
X6912Y2348D01*
X6904Y2341D01*
X6899Y2334D01*
X6896Y2325D01*
X6895Y2316D01*
Y2516D01*
X6896Y2506D01*
D02*
G37*
G36*
X6338Y3741D02*
Y2056D01*
X4845Y2056D01*
X4810Y2091D01*
Y3776D01*
X6303Y3776D01*
X6338Y3741D01*
D02*
G37*
G36*
X14470Y1900D02*
X14472Y1878D01*
X14477Y1854D01*
X14485Y1830D01*
X14497Y1804D01*
X14513Y1777D01*
X14531Y1749D01*
X14554Y1720D01*
X14608Y1658D01*
X14641Y1625D01*
X14200Y1625D01*
X14232Y1658D01*
X14287Y1720D01*
X14309Y1749D01*
X14327Y1777D01*
X14343Y1804D01*
X14355Y1830D01*
X14363Y1854D01*
X14368Y1878D01*
X14370Y1900D01*
X14470Y1900D01*
D02*
G37*
G36*
X13195Y1180D02*
X13159Y1215D01*
X13062Y1300D01*
X13034Y1321D01*
X13007Y1337D01*
X12982Y1351D01*
X12959Y1360D01*
X12937Y1366D01*
X12918Y1367D01*
Y1433D01*
X12937Y1434D01*
X12959Y1440D01*
X12982Y1449D01*
X13007Y1463D01*
X13034Y1479D01*
X13062Y1500D01*
X13125Y1553D01*
X13159Y1585D01*
X13195Y1620D01*
Y1180D01*
D02*
G37*
%LPC*%
G36*
X13180Y12662D02*
X13103Y12647D01*
X13037Y12603D01*
X12993Y12537D01*
X12978Y12460D01*
X12993Y12383D01*
X13037Y12317D01*
X13044Y12313D01*
Y12243D01*
X13016Y12238D01*
X12964Y12203D01*
X12930Y12152D01*
X12918Y12091D01*
Y11867D01*
X12930Y11806D01*
X12964Y11755D01*
X13016Y11720D01*
X13076Y11708D01*
X13301D01*
X13362Y11720D01*
X13413Y11755D01*
X13447Y11806D01*
X13459Y11867D01*
Y12091D01*
X13447Y12152D01*
X13413Y12203D01*
X13362Y12238D01*
X13325Y12245D01*
Y12320D01*
X13367Y12383D01*
X13382Y12460D01*
X13367Y12537D01*
X13323Y12603D01*
X13257Y12647D01*
X13180Y12662D01*
D02*
G37*
G36*
X17770Y11517D02*
X17657Y11502D01*
X17552Y11458D01*
X17461Y11389D01*
X17392Y11298D01*
X17348Y11193D01*
X17348Y11191D01*
X13833D01*
X13821Y11250D01*
X13787Y11302D01*
X13736Y11336D01*
X13675Y11348D01*
X13450D01*
X13390Y11336D01*
X13338Y11302D01*
X13304Y11250D01*
X13292Y11190D01*
Y10965D01*
X13304Y10905D01*
X13338Y10853D01*
X13390Y10819D01*
X13450Y10807D01*
X13675D01*
X13736Y10819D01*
X13787Y10853D01*
X13821Y10905D01*
X13833Y10964D01*
X17349D01*
X17392Y10862D01*
X17461Y10771D01*
X17552Y10702D01*
X17657Y10658D01*
X17770Y10643D01*
X17883Y10658D01*
X17988Y10702D01*
X18079Y10771D01*
X18148Y10862D01*
X18192Y10967D01*
X18207Y11080D01*
X18192Y11193D01*
X18148Y11298D01*
X18079Y11389D01*
X17988Y11458D01*
X17883Y11502D01*
X17770Y11517D01*
D02*
G37*
G36*
X15975Y8681D02*
X15898Y8665D01*
X15832Y8622D01*
X15826Y8612D01*
X15770D01*
X15763Y8621D01*
X15722Y8649D01*
X15674Y8658D01*
X15213D01*
X15165Y8649D01*
X15124Y8621D01*
X15097Y8580D01*
X15087Y8532D01*
Y8426D01*
X15062Y8395D01*
X13867D01*
X13824Y8387D01*
X13787Y8362D01*
X13340Y7915D01*
X13315Y7878D01*
X13307Y7835D01*
X13315Y7791D01*
X13340Y7754D01*
X13377Y7730D01*
X13420Y7721D01*
X13463Y7730D01*
X13500Y7754D01*
X13914Y8168D01*
X15062D01*
X15087Y8138D01*
Y8032D01*
X15096Y7987D01*
X15087Y7941D01*
Y7835D01*
X15096Y7790D01*
X15087Y7744D01*
Y7638D01*
X15096Y7593D01*
X15087Y7548D01*
Y7441D01*
X15096Y7396D01*
X15087Y7351D01*
Y7244D01*
X15096Y7199D01*
X15087Y7154D01*
Y7048D01*
X15096Y7002D01*
X15087Y6957D01*
Y6851D01*
X15096Y6806D01*
X15087Y6760D01*
Y6654D01*
X15096Y6609D01*
X15087Y6563D01*
Y6457D01*
X15096Y6412D01*
X15087Y6367D01*
Y6260D01*
X15097Y6212D01*
X15124Y6171D01*
X15165Y6143D01*
X15213Y6134D01*
X15289D01*
Y1814D01*
X15202Y1778D01*
X15111Y1709D01*
X15042Y1618D01*
X14998Y1513D01*
X14983Y1400D01*
X14998Y1287D01*
X15042Y1182D01*
X15111Y1091D01*
X15202Y1022D01*
X15307Y978D01*
X15420Y963D01*
X15533Y978D01*
X15638Y1022D01*
X15729Y1091D01*
X15798Y1182D01*
X15842Y1287D01*
X15857Y1400D01*
X15842Y1513D01*
X15798Y1618D01*
X15729Y1709D01*
X15638Y1778D01*
X15551Y1814D01*
Y6134D01*
X15674D01*
X15722Y6143D01*
X15763Y6171D01*
X15791Y6212D01*
X15800Y6260D01*
Y6367D01*
X15791Y6412D01*
X15800Y6457D01*
Y6563D01*
X15791Y6609D01*
X15800Y6654D01*
Y6760D01*
X15791Y6806D01*
X15800Y6851D01*
Y6957D01*
X15791Y7002D01*
X15800Y7048D01*
Y7154D01*
X15791Y7199D01*
X15800Y7244D01*
Y7351D01*
X15791Y7396D01*
X15800Y7441D01*
Y7475D01*
X15850Y7502D01*
X15916Y7489D01*
X15993Y7505D01*
X16059Y7549D01*
X16103Y7614D01*
X16118Y7691D01*
X16103Y7769D01*
X16059Y7834D01*
X15993Y7878D01*
X15916Y7893D01*
X15850Y7880D01*
X15800Y7908D01*
Y7941D01*
X15791Y7987D01*
X15800Y8032D01*
Y8138D01*
X15791Y8187D01*
X15763Y8228D01*
X15722Y8255D01*
X15715Y8256D01*
Y8307D01*
X15722Y8309D01*
X15763Y8336D01*
X15770Y8345D01*
X15826D01*
X15832Y8336D01*
X15898Y8292D01*
X15975Y8277D01*
X16052Y8292D01*
X16118Y8336D01*
X16162Y8401D01*
X16177Y8479D01*
X16162Y8556D01*
X16118Y8622D01*
X16052Y8665D01*
X15975Y8681D01*
D02*
G37*
%LPD*%
G36*
X13244Y12223D02*
X13246Y12203D01*
X13249Y12185D01*
X13253Y12169D01*
X13258Y12156D01*
X13265Y12146D01*
X13272Y12137D01*
X13281Y12131D01*
X13291Y12128D01*
X13302Y12127D01*
X13066Y12125D01*
X13078Y12126D01*
X13088Y12130D01*
X13096Y12136D01*
X13104Y12144D01*
X13111Y12155D01*
X13116Y12169D01*
X13120Y12184D01*
X13123Y12203D01*
X13125Y12223D01*
X13125Y12246D01*
X13243D01*
X13244Y12223D01*
D02*
G37*
G36*
X13711Y11136D02*
X13713Y11131D01*
X13717Y11126D01*
X13721Y11122D01*
X13727Y11118D01*
X13734Y11115D01*
X13743Y11113D01*
X13753Y11111D01*
X13764Y11110D01*
X13777Y11110D01*
Y11045D01*
X13764Y11045D01*
X13753Y11044D01*
X13743Y11042D01*
X13734Y11040D01*
X13727Y11037D01*
X13721Y11033D01*
X13717Y11029D01*
X13713Y11024D01*
X13711Y11019D01*
X13711Y11012D01*
Y11142D01*
X13711Y11136D01*
D02*
G37*
G36*
X17547Y10858D02*
X17511Y10893D01*
X17413Y10977D01*
X17384Y10998D01*
X17357Y11015D01*
X17332Y11028D01*
X17309Y11037D01*
X17287Y11043D01*
X17268Y11045D01*
X17267Y11110D01*
X17287Y11112D01*
X17309Y11117D01*
X17332Y11127D01*
X17357Y11140D01*
X17383Y11157D01*
X17412Y11178D01*
X17474Y11231D01*
X17508Y11263D01*
X17543Y11299D01*
X17547Y10858D01*
D02*
G37*
G36*
X15918Y8423D02*
X15913Y8427D01*
X15908Y8431D01*
X15903Y8435D01*
X15897Y8438D01*
X15891Y8440D01*
X15884Y8442D01*
X15877Y8444D01*
X15870Y8445D01*
X15862Y8446D01*
X15854Y8446D01*
Y8511D01*
X15862Y8511D01*
X15870Y8512D01*
X15877Y8513D01*
X15884Y8515D01*
X15891Y8517D01*
X15897Y8520D01*
X15903Y8523D01*
X15908Y8526D01*
X15913Y8530D01*
X15918Y8535D01*
Y8423D01*
D02*
G37*
G36*
X15680Y8531D02*
X15683Y8527D01*
X15688Y8523D01*
X15693Y8520D01*
X15699Y8517D01*
X15706Y8515D01*
X15714Y8513D01*
X15723Y8512D01*
X15733Y8511D01*
X15744Y8511D01*
Y8446D01*
X15733Y8446D01*
X15714Y8444D01*
X15706Y8442D01*
X15699Y8440D01*
X15693Y8438D01*
X15688Y8434D01*
X15683Y8431D01*
X15680Y8427D01*
X15678Y8422D01*
Y8535D01*
X15680Y8531D01*
D02*
G37*
G36*
X15210Y8225D02*
X15207Y8230D01*
X15204Y8234D01*
X15200Y8238D01*
X15194Y8241D01*
X15188Y8243D01*
X15181Y8246D01*
X15173Y8247D01*
X15164Y8248D01*
X15154Y8249D01*
X15143Y8249D01*
Y8314D01*
X15154Y8315D01*
X15173Y8317D01*
X15181Y8318D01*
X15188Y8320D01*
X15194Y8323D01*
X15200Y8326D01*
X15204Y8330D01*
X15207Y8334D01*
X15210Y8339D01*
Y8225D01*
D02*
G37*
G36*
X13529Y7897D02*
X13523Y7891D01*
X13518Y7886D01*
X13514Y7880D01*
X13510Y7874D01*
X13507Y7867D01*
X13504Y7861D01*
X13502Y7855D01*
X13501Y7848D01*
X13500Y7842D01*
X13500Y7835D01*
X13421Y7915D01*
X13427Y7915D01*
X13434Y7916D01*
X13440Y7917D01*
X13446Y7919D01*
X13453Y7922D01*
X13459Y7925D01*
X13465Y7929D01*
X13471Y7933D01*
X13477Y7938D01*
X13483Y7943D01*
X13529Y7897D01*
D02*
G37*
G36*
X15859Y7635D02*
X15857Y7636D01*
X15855Y7638D01*
X15852Y7638D01*
X15848Y7639D01*
X15843Y7640D01*
X15830Y7641D01*
X15806Y7641D01*
Y7741D01*
X15815Y7741D01*
X15848Y7743D01*
X15852Y7744D01*
X15855Y7745D01*
X15857Y7746D01*
X15859Y7747D01*
Y7635D01*
D02*
G37*
G36*
X15679Y7747D02*
X15683Y7746D01*
X15688Y7745D01*
X15695Y7744D01*
X15715Y7742D01*
X15779Y7741D01*
Y7641D01*
X15760Y7641D01*
X15679Y7636D01*
X15678Y7635D01*
Y7748D01*
X15679Y7747D01*
D02*
G37*
G36*
X15511Y6255D02*
X15502Y6252D01*
X15495Y6247D01*
X15488Y6240D01*
X15483Y6231D01*
X15478Y6220D01*
X15475Y6207D01*
X15472Y6192D01*
X15471Y6174D01*
X15470Y6155D01*
X15370D01*
X15370Y6174D01*
X15368Y6192D01*
X15366Y6207D01*
X15362Y6220D01*
X15358Y6231D01*
X15352Y6240D01*
X15346Y6247D01*
X15338Y6252D01*
X15330Y6255D01*
X15320Y6256D01*
X15520D01*
X15511Y6255D01*
D02*
G37*
G36*
X15470Y1900D02*
X15472Y1878D01*
X15477Y1854D01*
X15485Y1830D01*
X15497Y1804D01*
X15513Y1777D01*
X15531Y1749D01*
X15554Y1720D01*
X15608Y1658D01*
X15641Y1625D01*
X15200Y1625D01*
X15232Y1658D01*
X15287Y1720D01*
X15309Y1749D01*
X15327Y1777D01*
X15343Y1804D01*
X15355Y1830D01*
X15363Y1854D01*
X15368Y1878D01*
X15370Y1900D01*
X15470Y1900D01*
D02*
G37*
%LPC*%
G36*
X7753Y12663D02*
X7556D01*
X7471Y12646D01*
X7400Y12598D01*
X7352Y12526D01*
X7335Y12442D01*
Y12048D01*
X7352Y11964D01*
X7400Y11892D01*
X7462Y11851D01*
X7452Y11802D01*
X7467Y11725D01*
X7511Y11659D01*
X7577Y11616D01*
X7654Y11600D01*
X7731Y11616D01*
X7797Y11659D01*
X7841Y11725D01*
X7856Y11802D01*
X7846Y11851D01*
X7909Y11892D01*
X7956Y11964D01*
X7973Y12048D01*
Y12442D01*
X7956Y12526D01*
X7909Y12598D01*
X7837Y12646D01*
X7753Y12663D01*
D02*
G37*
%LPD*%
G36*
X7787Y11963D02*
X7775Y11958D01*
X7764Y11950D01*
X7755Y11939D01*
X7747Y11924D01*
X7740Y11906D01*
X7736Y11885D01*
X7732Y11861D01*
X7730Y11833D01*
X7729Y11802D01*
X7579D01*
X7578Y11833D01*
X7576Y11861D01*
X7573Y11885D01*
X7568Y11906D01*
X7561Y11924D01*
X7553Y11939D01*
X7544Y11950D01*
X7533Y11958D01*
X7521Y11963D01*
X7508Y11965D01*
X7800D01*
X7787Y11963D01*
D02*
G37*
%LPC*%
G36*
X1738Y8738D02*
X833D01*
X771Y8726D01*
X719Y8691D01*
X684Y8639D01*
X672Y8577D01*
Y7868D01*
X684Y7807D01*
X719Y7755D01*
X771Y7720D01*
X833Y7708D01*
X1738D01*
X1800Y7720D01*
X1852Y7755D01*
X1887Y7807D01*
X1899Y7868D01*
Y8577D01*
X1887Y8639D01*
X1852Y8691D01*
X1800Y8726D01*
X1738Y8738D01*
D02*
G37*
G36*
X2468Y5922D02*
X2386Y5912D01*
X2310Y5880D01*
X2244Y5829D01*
X2193Y5764D01*
X2162Y5687D01*
X2151Y5605D01*
X2162Y5523D01*
X2193Y5446D01*
X2244Y5380D01*
X2310Y5330D01*
X2386Y5298D01*
X2468Y5287D01*
X2551Y5298D01*
X2627Y5330D01*
X2693Y5380D01*
X2744Y5446D01*
X2775Y5523D01*
X2786Y5605D01*
X2775Y5687D01*
X2744Y5764D01*
X2693Y5829D01*
X2627Y5880D01*
X2551Y5912D01*
X2468Y5922D01*
D02*
G37*
G36*
X3884Y5234D02*
X2978D01*
X2917Y5222D01*
X2865Y5187D01*
X2830Y5135D01*
X2818Y5073D01*
Y4365D01*
X2830Y4303D01*
X2865Y4251D01*
X2917Y4216D01*
X2978Y4204D01*
X3884D01*
X3945Y4216D01*
X3997Y4251D01*
X4032Y4303D01*
X4044Y4365D01*
Y5073D01*
X4032Y5135D01*
X3997Y5187D01*
X3945Y5222D01*
X3884Y5234D01*
D02*
G37*
G36*
X1738D02*
X833D01*
X771Y5222D01*
X719Y5187D01*
X684Y5135D01*
X672Y5073D01*
Y4365D01*
X684Y4303D01*
X719Y4251D01*
X771Y4216D01*
X833Y4204D01*
X1738D01*
X1800Y4216D01*
X1852Y4251D01*
X1887Y4303D01*
X1899Y4365D01*
Y5073D01*
X1887Y5135D01*
X1852Y5187D01*
X1800Y5222D01*
X1738Y5234D01*
D02*
G37*
G36*
X5984Y2580D02*
X5931Y2570D01*
X5885Y2539D01*
X5855Y2494D01*
X5844Y2440D01*
X5855Y2386D01*
X5885Y2341D01*
X5891Y2335D01*
X5937Y2304D01*
X5991Y2293D01*
X6044Y2304D01*
X6090Y2335D01*
X6120Y2380D01*
X6131Y2434D01*
X6120Y2488D01*
X6090Y2533D01*
X6084Y2539D01*
X6038Y2570D01*
X5984Y2580D01*
D02*
G37*
%LPD*%
D11*
Y2440D02*
X5991Y2434D01*
X7480Y6480D02*
X8001Y5959D01*
X8751D01*
X13180Y12460D02*
X13184Y12456D01*
Y11983D02*
Y12456D01*
Y11983D02*
X13189Y11979D01*
X19219Y5577D02*
X19253Y5610D01*
X17324Y5577D02*
X19219D01*
D12*
X13189Y11979D02*
D03*
X13563Y11077D02*
D03*
X13937Y11979D02*
D03*
D13*
X17961Y7584D02*
D03*
X18531D02*
D03*
D14*
X18650Y8312D02*
D03*
X17961D02*
D03*
X13937Y13201D02*
D03*
X13248D02*
D03*
X5991Y2434D02*
D03*
X6680D02*
D03*
X5996Y3399D02*
D03*
X6685D02*
D03*
D15*
X9882Y10331D02*
D03*
Y12772D02*
D03*
X3563Y12643D02*
D03*
Y10202D02*
D03*
D16*
X14617Y9109D02*
D03*
X14420D02*
D03*
X14223D02*
D03*
X14026D02*
D03*
X13830D02*
D03*
X13633D02*
D03*
X13436D02*
D03*
X13239D02*
D03*
X13042D02*
D03*
X12845D02*
D03*
X12648D02*
D03*
X14814D02*
D03*
Y5683D02*
D03*
X14617D02*
D03*
X14420D02*
D03*
X14223D02*
D03*
X14026D02*
D03*
X13830D02*
D03*
X13633D02*
D03*
X13436D02*
D03*
X13239D02*
D03*
X13042D02*
D03*
X12845D02*
D03*
X12648D02*
D03*
D17*
X12019Y6313D02*
D03*
Y6510D02*
D03*
Y6707D02*
D03*
Y6904D02*
D03*
Y7101D02*
D03*
Y7298D02*
D03*
Y7494D02*
D03*
Y7691D02*
D03*
Y7888D02*
D03*
Y8085D02*
D03*
Y8282D02*
D03*
Y8479D02*
D03*
X15444Y6313D02*
D03*
Y6510D02*
D03*
Y6707D02*
D03*
Y6904D02*
D03*
Y7101D02*
D03*
Y7298D02*
D03*
Y7494D02*
D03*
Y7691D02*
D03*
Y7888D02*
D03*
Y8085D02*
D03*
Y8282D02*
D03*
Y8479D02*
D03*
D18*
X19253Y3661D02*
D03*
Y2972D02*
D03*
Y5610D02*
D03*
Y6299D02*
D03*
D19*
X6051Y4680D02*
D03*
Y4935D02*
D03*
Y5191D02*
D03*
Y5447D02*
D03*
Y5703D02*
D03*
Y5959D02*
D03*
Y6215D02*
D03*
Y6471D02*
D03*
Y6727D02*
D03*
Y6983D02*
D03*
Y7239D02*
D03*
Y7494D02*
D03*
Y7750D02*
D03*
Y8006D02*
D03*
X8751D02*
D03*
Y7750D02*
D03*
Y7494D02*
D03*
Y7239D02*
D03*
Y6983D02*
D03*
Y6727D02*
D03*
Y6471D02*
D03*
Y6215D02*
D03*
Y5959D02*
D03*
Y5703D02*
D03*
Y5447D02*
D03*
Y5191D02*
D03*
Y4935D02*
D03*
Y4680D02*
D03*
D20*
X1347Y11290D02*
D03*
Y11861D02*
D03*
X11977Y11182D02*
D03*
Y11753D02*
D03*
D21*
X3480Y5841D02*
D03*
Y6156D02*
D03*
Y7101D02*
D03*
Y6786D02*
D03*
Y6471D02*
D03*
D22*
X3431Y4719D02*
D03*
X1285D02*
D03*
X3431Y8223D02*
D03*
X1285D02*
D03*
D23*
X8357Y2416D02*
D03*
X7609D02*
D03*
X7615Y3399D02*
D03*
X8363D02*
D03*
D24*
X6749Y9765D02*
D03*
D25*
X5843Y12245D02*
D03*
X6749D02*
D03*
X7654D02*
D03*
D26*
X14046Y14345D02*
D03*
D47*
X9882Y9209D02*
D03*
D48*
X12018Y6313D02*
X12019Y6313D01*
X11509Y6313D02*
X12018D01*
X11509Y1741D02*
Y6313D01*
X11850Y1400D02*
X13420D01*
X11509Y1741D02*
X11850Y1400D01*
X13867Y8282D02*
X15444D01*
X13420Y7835D02*
X13867Y8282D01*
X12950Y6510D02*
X13420Y6980D01*
X12019Y6510D02*
X12950D01*
X18650Y8312D02*
X19128D01*
X18561D02*
X18650D01*
X13248Y13142D02*
Y14178D01*
X12660Y10860D02*
Y12555D01*
X13248Y13142D01*
X14613Y9112D02*
X14617Y9109D01*
X14613Y9112D02*
Y9857D01*
X14610Y9860D02*
X14613Y9857D01*
X13436Y9109D02*
Y9924D01*
X13563Y11077D02*
X17767D01*
X17770Y11080D01*
X14816Y9481D02*
X14818Y9483D01*
X14816Y9111D02*
Y9481D01*
X14814Y9109D02*
X14816Y9111D01*
X13237D02*
Y9481D01*
X14814Y5125D02*
Y5683D01*
X14814Y5683D01*
X14622Y5688D02*
Y6242D01*
X14617Y5683D02*
X14622Y5688D01*
Y6242D02*
X14627Y6247D01*
X15444Y8479D02*
X15975D01*
X13248Y14178D02*
X13415Y14345D01*
X14046D01*
X13937Y11979D02*
Y13201D01*
X3929Y6711D02*
X4434D01*
X3854Y6786D02*
X3929Y6711D01*
X4434D02*
X4516Y6793D01*
X4649D02*
X4656Y6786D01*
X4516Y6793D02*
X4649D01*
X3480Y6786D02*
X3854D01*
X4509Y6471D02*
X4656D01*
X4434Y6546D02*
X4509Y6471D01*
X3929Y6546D02*
X4434D01*
X3480Y6471D02*
X3854D01*
X3929Y6546D01*
X4656Y6786D02*
X4666D01*
X4899Y6711D02*
X5050Y6560D01*
X4741Y6711D02*
X4899D01*
X4741Y6546D02*
X4831D01*
X4885Y4828D02*
Y6491D01*
X4656Y6471D02*
X4666D01*
X4741Y6546D01*
X4831D02*
X4885Y6491D01*
X4666Y6786D02*
X4741Y6711D01*
X5050Y4896D02*
X5739Y4207D01*
X4885Y4828D02*
X5671Y4042D01*
X5050Y4896D02*
Y6560D01*
X5671Y4042D02*
X7306D01*
X5739Y4207D02*
X7238D01*
X8705Y4725D02*
X8751Y4680D01*
X7989Y4725D02*
X8705D01*
X7306Y4042D02*
X7989Y4725D01*
X8705Y4890D02*
X8751Y4935D01*
X7921Y4890D02*
X8705D01*
X7238Y4207D02*
X7921Y4890D01*
D49*
X15420Y1400D02*
Y6304D01*
X15429Y6313D02*
X15444D01*
X15420Y6304D02*
X15429Y6313D01*
X14420Y1400D02*
Y5683D01*
X7501Y8261D02*
X9882D01*
X7220Y7980D02*
X7501Y8261D01*
X9882Y8768D02*
X11578D01*
X11919Y9109D02*
X12648D01*
X11578Y8768D02*
X11919Y9109D01*
X7139Y8479D02*
X12019D01*
X6666Y8006D02*
X7139Y8479D01*
X16644Y4335D02*
Y9926D01*
X14026Y9846D02*
X14420Y10240D01*
X14026Y9109D02*
Y9846D01*
X14420Y10240D02*
X16330D01*
X16644Y9926D01*
X17324Y5577D02*
Y9906D01*
X16750Y10480D02*
X17324Y9906D01*
X14200Y10480D02*
X16750D01*
X13830Y10110D02*
X14200Y10480D01*
X13830Y9109D02*
Y10110D01*
X17961Y7584D02*
Y8312D01*
X11497Y7101D02*
X12009D01*
X15444Y7691D02*
X15916D01*
X7220Y7170D02*
Y7980D01*
X6051Y6983D02*
X7033D01*
X7220Y7170D01*
X6051Y8006D02*
X6666D01*
X8363Y3399D02*
X9576D01*
X9971Y3794D02*
Y6176D01*
X9576Y3399D02*
X9971Y3794D01*
X9873Y2416D02*
X10306Y2849D01*
Y6313D01*
X8357Y2416D02*
X9873D01*
X16644Y4335D02*
X17324Y3656D01*
X19247D02*
X19253Y3661D01*
X17324Y3656D02*
X19247D01*
X9893Y6727D02*
X10306Y6313D01*
X8751Y6471D02*
X9676D01*
X9971Y6176D01*
X8751Y6727D02*
X9893D01*
X6698Y2416D02*
X7609D01*
X6680Y2434D02*
X6698Y2416D01*
X6709Y3399D02*
X7615D01*
X8751Y5191D02*
X9381D01*
D50*
X17961Y8312D02*
Y9809D01*
X17060Y10710D02*
X17961Y9809D01*
X14000Y10710D02*
X17060D01*
X13633Y9109D02*
Y10343D01*
X14000Y10710D01*
D51*
X9882Y9209D02*
Y10331D01*
D52*
X8751Y6215D02*
X9444D01*
X7654Y11802D02*
Y12245D01*
X9444Y7239D02*
X9444Y7239D01*
X8751Y7239D02*
X9444D01*
Y7494D02*
X9444Y7494D01*
X8751Y7494D02*
X9444D01*
X11977Y10769D02*
Y11211D01*
X6320Y6471D02*
X6802D01*
X8751Y5447D02*
X9444D01*
D53*
X17324Y3656D02*
D03*
Y5577D02*
D03*
D54*
X17770Y11080D02*
D03*
X16420Y1400D02*
D03*
X15420D02*
D03*
X14420D02*
D03*
X13420D02*
D03*
D55*
X22638Y984D02*
D03*
X984Y984D02*
D03*
X22638Y14764D02*
D03*
X984D02*
D03*
D56*
X2468Y5605D02*
D03*
Y7337D02*
D03*
D57*
X17770Y14080D02*
D03*
D58*
X11509Y6313D02*
D03*
X13420Y7835D02*
D03*
X2520Y10700D02*
D03*
X2320D02*
D03*
X2120D02*
D03*
X13420Y6980D02*
D03*
X3520Y7580D02*
D03*
X3320D02*
D03*
X3120D02*
D03*
X3220Y7380D02*
D03*
X3420D02*
D03*
X3620D02*
D03*
X11284Y9549D02*
D03*
X10884D02*
D03*
X10784Y9749D02*
D03*
X10984D02*
D03*
X11184D02*
D03*
X11084Y9549D02*
D03*
X9882Y8261D02*
D03*
X12660Y10860D02*
D03*
X14610Y9860D02*
D03*
X13425Y9935D02*
D03*
X14818Y9483D02*
D03*
X13235D02*
D03*
X11497Y7101D02*
D03*
X14814Y5125D02*
D03*
X14627Y6247D02*
D03*
X15916Y7691D02*
D03*
X15975Y8479D02*
D03*
X9882Y8768D02*
D03*
X4996Y3405D02*
D03*
X19128Y8316D02*
D03*
X4990Y2440D02*
D03*
X7480Y6480D02*
D03*
X5390Y12930D02*
D03*
X13180Y12460D02*
D03*
X9444Y6215D02*
D03*
Y5447D02*
D03*
X7654Y11802D02*
D03*
X11977Y10769D02*
D03*
X9381Y5191D02*
D03*
X6802Y6471D02*
D03*
X9444Y7239D02*
D03*
Y7494D02*
D03*
X4656Y6786D02*
D03*
Y6471D02*
D03*
M02*
