G04*
G04 #@! TF.GenerationSoftware,Altium Limited,Altium Designer,21.0.8 (223)*
G04*
G04 Layer_Color=16711935*
%FSLAX24Y24*%
%MOIN*%
G70*
G04*
G04 #@! TF.SameCoordinates,F91D3ADF-50DC-415E-B976-C9826125F88D*
G04*
G04*
G04 #@! TF.FilePolarity,Negative*
G04*
G01*
G75*
G04:AMPARAMS|DCode=28|XSize=41.3mil|YSize=41.3mil|CornerRadius=3.8mil|HoleSize=0mil|Usage=FLASHONLY|Rotation=180.000|XOffset=0mil|YOffset=0mil|HoleType=Round|Shape=RoundedRectangle|*
%AMROUNDEDRECTD28*
21,1,0.0413,0.0337,0,0,180.0*
21,1,0.0337,0.0413,0,0,180.0*
1,1,0.0077,-0.0168,0.0168*
1,1,0.0077,0.0168,0.0168*
1,1,0.0077,0.0168,-0.0168*
1,1,0.0077,-0.0168,-0.0168*
%
%ADD28ROUNDEDRECTD28*%
G04:AMPARAMS|DCode=29|XSize=47.2mil|YSize=59.1mil|CornerRadius=4.1mil|HoleSize=0mil|Usage=FLASHONLY|Rotation=0.000|XOffset=0mil|YOffset=0mil|HoleType=Round|Shape=RoundedRectangle|*
%AMROUNDEDRECTD29*
21,1,0.0472,0.0508,0,0,0.0*
21,1,0.0390,0.0591,0,0,0.0*
1,1,0.0083,0.0195,-0.0254*
1,1,0.0083,-0.0195,-0.0254*
1,1,0.0083,-0.0195,0.0254*
1,1,0.0083,0.0195,0.0254*
%
%ADD29ROUNDEDRECTD29*%
G04:AMPARAMS|DCode=35|XSize=41.3mil|YSize=41.3mil|CornerRadius=3.8mil|HoleSize=0mil|Usage=FLASHONLY|Rotation=90.000|XOffset=0mil|YOffset=0mil|HoleType=Round|Shape=RoundedRectangle|*
%AMROUNDEDRECTD35*
21,1,0.0413,0.0337,0,0,90.0*
21,1,0.0337,0.0413,0,0,90.0*
1,1,0.0077,0.0168,0.0168*
1,1,0.0077,0.0168,-0.0168*
1,1,0.0077,-0.0168,-0.0168*
1,1,0.0077,-0.0168,0.0168*
%
%ADD35ROUNDEDRECTD35*%
%ADD42C,0.0591*%
%ADD43C,0.0669*%
%ADD44C,0.1220*%
%ADD45C,0.0433*%
%ADD46R,0.0669X0.0669*%
%ADD47C,0.0240*%
%ADD60R,0.0217X0.0157*%
G36*
X5900Y6845D02*
X5904Y6843D01*
X5907Y6842D01*
X5910Y6839D01*
X5913Y6836D01*
X5915Y6833D01*
X5916Y6829D01*
X5916Y6825D01*
Y6431D01*
X5916Y6428D01*
X5915Y6424D01*
X5913Y6421D01*
X5910Y6418D01*
X5907Y6415D01*
X5904Y6413D01*
X5900Y6412D01*
X5896Y6412D01*
X5621D01*
X5617Y6412D01*
X5613Y6413D01*
X5610Y6415D01*
X5607Y6418D01*
X5604Y6421D01*
X5603Y6424D01*
X5601Y6428D01*
X5601Y6431D01*
Y6550D01*
X5562D01*
X5558Y6550D01*
X5554Y6551D01*
X5551Y6553D01*
X5548Y6555D01*
X5545Y6558D01*
X5544Y6562D01*
X5542Y6565D01*
X5542Y6569D01*
Y6687D01*
X5542Y6691D01*
X5544Y6695D01*
X5545Y6698D01*
X5548Y6701D01*
X5551Y6704D01*
X5554Y6706D01*
X5558Y6707D01*
X5562Y6707D01*
X5601D01*
Y6825D01*
X5601Y6829D01*
X5603Y6833D01*
X5604Y6836D01*
X5607Y6839D01*
X5610Y6842D01*
X5613Y6843D01*
X5617Y6845D01*
X5621Y6845D01*
X5896D01*
X5900Y6845D01*
D02*
G37*
D28*
X12589Y6313D02*
D03*
X12019D02*
D03*
X8698Y5191D02*
D03*
X8128D02*
D03*
D29*
X12048Y7121D02*
D03*
X12737D02*
D03*
X14492Y7711D02*
D03*
X15181D02*
D03*
D35*
X15975Y6419D02*
D03*
Y5848D02*
D03*
X13235Y9027D02*
D03*
Y8456D02*
D03*
X14814Y8466D02*
D03*
Y9037D02*
D03*
X15975Y9730D02*
D03*
Y9159D02*
D03*
D42*
X17324Y3656D02*
D03*
Y5577D02*
D03*
D43*
X17770Y11080D02*
D03*
X16420Y1400D02*
D03*
X15420D02*
D03*
X14420D02*
D03*
X13420D02*
D03*
D44*
X22638Y984D02*
D03*
X984Y984D02*
D03*
X22638Y14764D02*
D03*
X984D02*
D03*
D45*
X2468Y5605D02*
D03*
Y7337D02*
D03*
D46*
X17770Y14080D02*
D03*
D47*
X13420Y7835D02*
D03*
Y6980D02*
D03*
X12660Y10860D02*
D03*
X14610Y9860D02*
D03*
D60*
X5483Y6628D02*
D03*
X6054Y6825D02*
D03*
Y6628D02*
D03*
Y6431D02*
D03*
X5483Y6825D02*
D03*
Y6431D02*
D03*
M02*
