G04*
G04 #@! TF.GenerationSoftware,Altium Limited,Altium Designer,21.0.8 (223)*
G04*
G04 Layer_Color=65535*
%FSLAX24Y24*%
%MOIN*%
G70*
G04*
G04 #@! TF.SameCoordinates,F91D3ADF-50DC-415E-B976-C9826125F88D*
G04*
G04*
G04 #@! TF.FilePolarity,Positive*
G04*
G01*
G75*
%ADD10C,0.0070*%
%ADD11C,0.0118*%
G36*
X17724Y4501D02*
X16934D01*
Y4731D01*
X17724D01*
Y4501D01*
D02*
G37*
G36*
X21217Y11695D02*
X21217Y11695D01*
X21218Y11694D01*
X21218Y11694D01*
X21219Y11692D01*
X21220Y11689D01*
X21221Y11686D01*
X21223Y11683D01*
X21226Y11679D01*
X21229Y11675D01*
X21229Y11675D01*
X21229Y11674D01*
X21230Y11674D01*
X21230Y11673D01*
X21232Y11671D01*
X21234Y11669D01*
X21237Y11666D01*
X21241Y11664D01*
X21245Y11661D01*
X21249Y11660D01*
Y11640D01*
X21122D01*
Y11664D01*
X21214D01*
X21213Y11664D01*
X21213Y11665D01*
X21212Y11665D01*
X21212Y11667D01*
X21210Y11668D01*
X21209Y11669D01*
X21208Y11671D01*
X21207Y11673D01*
X21205Y11675D01*
X21204Y11678D01*
X21202Y11680D01*
X21201Y11683D01*
X21198Y11689D01*
X21195Y11695D01*
X21217D01*
Y11695D01*
D02*
G37*
G36*
X21162Y11604D02*
X21164Y11604D01*
X21167Y11603D01*
X21171Y11602D01*
X21174Y11601D01*
X21177Y11599D01*
X21177D01*
X21178Y11599D01*
X21179Y11598D01*
X21180Y11597D01*
X21182Y11595D01*
X21184Y11593D01*
X21186Y11590D01*
X21188Y11587D01*
X21190Y11583D01*
Y11583D01*
X21191Y11584D01*
X21191Y11585D01*
X21192Y11586D01*
X21193Y11588D01*
X21195Y11591D01*
X21197Y11593D01*
X21199Y11595D01*
X21201Y11597D01*
X21202Y11597D01*
X21202Y11598D01*
X21204Y11598D01*
X21206Y11599D01*
X21208Y11600D01*
X21211Y11600D01*
X21213Y11601D01*
X21216Y11601D01*
X21217D01*
X21217D01*
X21218D01*
X21219Y11601D01*
X21220Y11601D01*
X21221Y11601D01*
X21225Y11600D01*
X21228Y11599D01*
X21232Y11597D01*
X21234Y11596D01*
X21236Y11595D01*
X21238Y11593D01*
X21240Y11591D01*
X21240Y11591D01*
X21240Y11591D01*
X21241Y11590D01*
X21241Y11589D01*
X21242Y11588D01*
X21243Y11587D01*
X21244Y11586D01*
X21244Y11584D01*
X21245Y11582D01*
X21246Y11580D01*
X21247Y11578D01*
X21248Y11575D01*
X21248Y11572D01*
X21249Y11570D01*
X21249Y11566D01*
X21249Y11563D01*
Y11561D01*
X21249Y11560D01*
X21249Y11559D01*
X21248Y11557D01*
X21248Y11555D01*
X21248Y11553D01*
X21247Y11548D01*
X21245Y11544D01*
X21244Y11542D01*
X21243Y11539D01*
X21241Y11537D01*
X21240Y11535D01*
X21240Y11535D01*
X21239Y11535D01*
X21239Y11534D01*
X21238Y11534D01*
X21237Y11533D01*
X21236Y11532D01*
X21233Y11530D01*
X21230Y11528D01*
X21226Y11527D01*
X21222Y11526D01*
X21219Y11525D01*
X21216Y11525D01*
X21216D01*
X21216D01*
X21215D01*
X21213Y11525D01*
X21211Y11526D01*
X21209Y11526D01*
X21206Y11527D01*
X21204Y11528D01*
X21201Y11530D01*
X21200Y11530D01*
X21200Y11531D01*
X21198Y11532D01*
X21197Y11533D01*
X21195Y11535D01*
X21194Y11537D01*
X21192Y11540D01*
X21190Y11543D01*
Y11542D01*
X21190Y11542D01*
X21190Y11542D01*
X21190Y11541D01*
X21189Y11539D01*
X21187Y11537D01*
X21186Y11534D01*
X21183Y11531D01*
X21181Y11529D01*
X21178Y11527D01*
X21178Y11526D01*
X21176Y11526D01*
X21175Y11525D01*
X21173Y11524D01*
X21170Y11523D01*
X21167Y11522D01*
X21163Y11521D01*
X21159Y11521D01*
X21159D01*
X21159D01*
X21158D01*
X21156Y11521D01*
X21155Y11522D01*
X21153Y11522D01*
X21151Y11522D01*
X21149Y11523D01*
X21145Y11524D01*
X21142Y11525D01*
X21140Y11526D01*
X21138Y11527D01*
X21135Y11529D01*
X21133Y11530D01*
X21131Y11532D01*
X21131Y11533D01*
X21130Y11533D01*
X21130Y11534D01*
X21129Y11534D01*
X21128Y11536D01*
X21127Y11537D01*
X21127Y11538D01*
X21125Y11540D01*
X21124Y11542D01*
X21123Y11545D01*
X21123Y11547D01*
X21122Y11550D01*
X21121Y11552D01*
X21121Y11556D01*
X21120Y11559D01*
X21120Y11562D01*
Y11564D01*
X21120Y11565D01*
X21120Y11566D01*
X21121Y11568D01*
X21121Y11570D01*
X21121Y11572D01*
X21122Y11577D01*
X21124Y11581D01*
X21125Y11584D01*
X21126Y11586D01*
X21127Y11589D01*
X21129Y11591D01*
X21129Y11591D01*
X21129Y11591D01*
X21130Y11592D01*
X21131Y11593D01*
X21132Y11594D01*
X21133Y11595D01*
X21135Y11596D01*
X21137Y11597D01*
X21139Y11599D01*
X21141Y11600D01*
X21143Y11601D01*
X21146Y11602D01*
X21149Y11603D01*
X21152Y11604D01*
X21155Y11604D01*
X21158Y11604D01*
X21158D01*
X21159D01*
X21159D01*
X21160D01*
X21162Y11604D01*
D02*
G37*
G36*
X21158Y11483D02*
X21158D01*
X21158D01*
X21157Y11483D01*
X21155Y11483D01*
X21153Y11482D01*
X21151Y11481D01*
X21149Y11481D01*
X21147Y11479D01*
X21145Y11477D01*
X21144Y11477D01*
X21144Y11477D01*
X21143Y11475D01*
X21142Y11474D01*
X21141Y11472D01*
X21141Y11470D01*
X21140Y11468D01*
X21140Y11466D01*
Y11465D01*
X21140Y11464D01*
X21140Y11463D01*
X21141Y11461D01*
X21141Y11459D01*
X21142Y11457D01*
X21144Y11455D01*
X21146Y11453D01*
X21146Y11453D01*
X21147Y11452D01*
X21148Y11451D01*
X21150Y11450D01*
X21152Y11449D01*
X21155Y11449D01*
X21158Y11448D01*
X21161Y11448D01*
X21161D01*
X21161D01*
X21163D01*
X21164Y11448D01*
X21166Y11448D01*
X21169Y11449D01*
X21171Y11450D01*
X21174Y11451D01*
X21176Y11453D01*
X21176Y11453D01*
X21177Y11454D01*
X21178Y11455D01*
X21178Y11456D01*
X21180Y11458D01*
X21180Y11460D01*
X21181Y11462D01*
X21181Y11465D01*
Y11467D01*
X21181Y11468D01*
X21181Y11469D01*
X21180Y11471D01*
X21180Y11473D01*
X21179Y11476D01*
X21199Y11473D01*
Y11472D01*
X21199Y11470D01*
X21199Y11468D01*
X21200Y11465D01*
X21200Y11463D01*
X21202Y11460D01*
X21203Y11458D01*
X21203Y11458D01*
X21204Y11457D01*
X21205Y11457D01*
X21206Y11455D01*
X21208Y11455D01*
X21210Y11454D01*
X21212Y11453D01*
X21215Y11453D01*
X21215D01*
X21216D01*
X21217Y11453D01*
X21219Y11453D01*
X21220Y11454D01*
X21222Y11455D01*
X21224Y11455D01*
X21225Y11457D01*
X21225Y11457D01*
X21226Y11457D01*
X21226Y11458D01*
X21227Y11459D01*
X21228Y11461D01*
X21228Y11463D01*
X21229Y11465D01*
X21229Y11467D01*
Y11468D01*
X21229Y11469D01*
X21228Y11471D01*
X21228Y11472D01*
X21227Y11474D01*
X21226Y11476D01*
X21225Y11477D01*
X21224Y11478D01*
X21224Y11478D01*
X21223Y11479D01*
X21221Y11480D01*
X21220Y11481D01*
X21218Y11481D01*
X21215Y11482D01*
X21212Y11483D01*
X21216Y11505D01*
X21216D01*
X21216Y11505D01*
X21217D01*
X21218Y11505D01*
X21220Y11504D01*
X21222Y11503D01*
X21225Y11502D01*
X21228Y11501D01*
X21231Y11500D01*
X21234Y11498D01*
X21234Y11498D01*
X21235Y11497D01*
X21236Y11496D01*
X21238Y11495D01*
X21240Y11493D01*
X21242Y11491D01*
X21243Y11488D01*
X21245Y11485D01*
Y11485D01*
X21245Y11485D01*
X21246Y11483D01*
X21246Y11482D01*
X21247Y11479D01*
X21248Y11477D01*
X21248Y11473D01*
X21249Y11470D01*
X21249Y11466D01*
Y11465D01*
X21249Y11463D01*
X21249Y11462D01*
X21248Y11460D01*
X21248Y11458D01*
X21248Y11456D01*
X21246Y11451D01*
X21245Y11449D01*
X21244Y11447D01*
X21243Y11444D01*
X21241Y11442D01*
X21240Y11440D01*
X21238Y11438D01*
X21237Y11437D01*
X21237Y11437D01*
X21237Y11437D01*
X21236Y11436D01*
X21234Y11435D01*
X21232Y11433D01*
X21228Y11431D01*
X21225Y11430D01*
X21221Y11429D01*
X21219Y11429D01*
X21217Y11429D01*
X21216D01*
X21216D01*
X21215Y11429D01*
X21214Y11429D01*
X21212Y11429D01*
X21211Y11430D01*
X21209Y11430D01*
X21207Y11431D01*
X21205Y11432D01*
X21203Y11433D01*
X21201Y11435D01*
X21198Y11436D01*
X21196Y11439D01*
X21194Y11441D01*
X21192Y11444D01*
X21190Y11447D01*
Y11447D01*
X21190Y11446D01*
Y11446D01*
X21190Y11445D01*
X21189Y11443D01*
X21188Y11441D01*
X21186Y11438D01*
X21185Y11435D01*
X21182Y11432D01*
X21180Y11430D01*
X21179Y11429D01*
X21178Y11429D01*
X21176Y11428D01*
X21174Y11426D01*
X21171Y11425D01*
X21168Y11424D01*
X21164Y11423D01*
X21160Y11423D01*
X21160D01*
X21159D01*
X21158D01*
X21157Y11423D01*
X21156Y11423D01*
X21154Y11424D01*
X21152Y11424D01*
X21150Y11425D01*
X21146Y11426D01*
X21143Y11427D01*
X21141Y11428D01*
X21139Y11430D01*
X21136Y11431D01*
X21134Y11433D01*
X21132Y11435D01*
X21131Y11435D01*
X21131Y11436D01*
X21131Y11437D01*
X21130Y11437D01*
X21129Y11439D01*
X21128Y11440D01*
X21127Y11442D01*
X21126Y11444D01*
X21125Y11446D01*
X21124Y11448D01*
X21123Y11451D01*
X21122Y11453D01*
X21121Y11456D01*
X21121Y11459D01*
X21120Y11462D01*
X21120Y11465D01*
Y11467D01*
X21120Y11468D01*
X21120Y11470D01*
X21121Y11471D01*
X21121Y11473D01*
X21121Y11475D01*
X21122Y11480D01*
X21124Y11485D01*
X21125Y11487D01*
X21127Y11489D01*
X21128Y11492D01*
X21130Y11494D01*
X21130Y11494D01*
X21130Y11494D01*
X21131Y11495D01*
X21132Y11496D01*
X21133Y11497D01*
X21134Y11498D01*
X21135Y11499D01*
X21137Y11500D01*
X21139Y11501D01*
X21140Y11502D01*
X21145Y11504D01*
X21150Y11506D01*
X21153Y11506D01*
X21155Y11507D01*
X21158Y11483D01*
D02*
G37*
G36*
X21190Y11408D02*
X21193Y11408D01*
X21197Y11407D01*
X21200Y11407D01*
X21204Y11407D01*
X21209Y11406D01*
X21213Y11405D01*
X21217Y11404D01*
X21221Y11403D01*
X21225Y11401D01*
X21229Y11400D01*
X21233Y11398D01*
X21236Y11396D01*
X21236Y11396D01*
X21236Y11395D01*
X21237Y11395D01*
X21238Y11394D01*
X21239Y11393D01*
X21240Y11392D01*
X21241Y11390D01*
X21242Y11388D01*
X21244Y11386D01*
X21245Y11384D01*
X21246Y11382D01*
X21247Y11379D01*
X21248Y11377D01*
X21248Y11374D01*
X21249Y11370D01*
X21249Y11367D01*
Y11365D01*
X21249Y11364D01*
X21249Y11363D01*
X21248Y11361D01*
X21248Y11359D01*
X21247Y11357D01*
X21247Y11354D01*
X21246Y11352D01*
X21245Y11350D01*
X21244Y11348D01*
X21242Y11345D01*
X21240Y11343D01*
X21238Y11341D01*
X21236Y11339D01*
X21236Y11338D01*
X21235Y11338D01*
X21234Y11338D01*
X21233Y11337D01*
X21231Y11336D01*
X21229Y11335D01*
X21227Y11334D01*
X21224Y11332D01*
X21220Y11331D01*
X21216Y11330D01*
X21212Y11329D01*
X21208Y11328D01*
X21202Y11327D01*
X21197Y11327D01*
X21191Y11326D01*
X21184Y11326D01*
X21184D01*
X21184D01*
X21184D01*
X21183D01*
X21181D01*
X21179Y11326D01*
X21176Y11327D01*
X21172Y11327D01*
X21169Y11327D01*
X21165Y11328D01*
X21160Y11328D01*
X21156Y11329D01*
X21152Y11330D01*
X21148Y11332D01*
X21143Y11333D01*
X21140Y11335D01*
X21136Y11336D01*
X21133Y11339D01*
X21133Y11339D01*
X21132Y11339D01*
X21132Y11340D01*
X21131Y11340D01*
X21130Y11342D01*
X21129Y11343D01*
X21128Y11344D01*
X21127Y11346D01*
X21125Y11348D01*
X21124Y11350D01*
X21123Y11352D01*
X21122Y11355D01*
X21121Y11358D01*
X21121Y11361D01*
X21120Y11364D01*
X21120Y11367D01*
Y11368D01*
X21120Y11369D01*
Y11370D01*
X21120Y11372D01*
X21121Y11374D01*
X21121Y11376D01*
X21122Y11378D01*
X21123Y11380D01*
X21123Y11382D01*
X21125Y11385D01*
X21126Y11387D01*
X21127Y11390D01*
X21129Y11392D01*
X21131Y11395D01*
X21134Y11397D01*
X21134Y11397D01*
X21135Y11397D01*
X21136Y11398D01*
X21137Y11399D01*
X21138Y11399D01*
X21140Y11400D01*
X21143Y11401D01*
X21146Y11402D01*
X21149Y11403D01*
X21153Y11405D01*
X21157Y11405D01*
X21161Y11406D01*
X21166Y11407D01*
X21172Y11407D01*
X21178Y11408D01*
X21185Y11408D01*
X21185D01*
X21185D01*
X21186D01*
X21186D01*
X21188D01*
X21190Y11408D01*
D02*
G37*
G36*
X11115Y1825D02*
X11178D01*
X11188Y1823D01*
X11198D01*
X11205Y1822D01*
X11219Y1819D01*
X11226Y1815D01*
X11232Y1810D01*
X11233Y1807D01*
X11235Y1806D01*
Y1804D01*
Y1801D01*
X11232Y1796D01*
X11227Y1782D01*
X11224Y1775D01*
X11221Y1769D01*
X11220Y1765D01*
X11219Y1764D01*
X11207Y1736D01*
X11201Y1721D01*
X11195Y1710D01*
X11191Y1698D01*
X11186Y1689D01*
X11185Y1683D01*
X11184Y1682D01*
X11176Y1663D01*
X11166Y1643D01*
X11157Y1621D01*
X11149Y1599D01*
X11140Y1580D01*
X11133Y1564D01*
X11131Y1558D01*
X11128Y1554D01*
X11127Y1551D01*
Y1549D01*
X11112Y1517D01*
X11099Y1488D01*
X11087Y1460D01*
X11077Y1435D01*
X11068Y1415D01*
X11061Y1399D01*
X11058Y1393D01*
X11057Y1389D01*
X11055Y1387D01*
Y1386D01*
X11030Y1329D01*
X11017Y1301D01*
X11007Y1277D01*
X10997Y1255D01*
X10994Y1246D01*
X10990Y1237D01*
X10988Y1231D01*
X10985Y1227D01*
X10984Y1224D01*
Y1223D01*
X10971Y1192D01*
X10959Y1166D01*
X10950Y1144D01*
X10941Y1125D01*
X10936Y1110D01*
X10931Y1100D01*
X10928Y1093D01*
X10927Y1091D01*
X10912Y1056D01*
X10905Y1040D01*
X10899Y1024D01*
X10893Y1011D01*
X10889Y1001D01*
X10886Y995D01*
X10885Y992D01*
X10876Y973D01*
X10869Y957D01*
X10863Y943D01*
X10858Y930D01*
X10854Y919D01*
X10851Y912D01*
X10848Y908D01*
Y906D01*
X10807Y813D01*
X10672D01*
X10650Y814D01*
X10632D01*
X10618Y816D01*
X10608D01*
X10602Y817D01*
X10596D01*
X10589Y819D01*
X10583Y823D01*
X10580Y827D01*
X10578Y832D01*
X10577Y841D01*
Y844D01*
Y845D01*
X10578Y848D01*
X10580Y851D01*
X10586Y855D01*
X10590Y860D01*
X10593Y861D01*
X10606Y868D01*
X10616Y876D01*
X10624Y880D01*
X10627Y881D01*
X10647Y893D01*
X10664Y905D01*
X10672Y911D01*
X10678Y915D01*
X10682Y918D01*
X10683Y919D01*
X10694Y928D01*
X10704Y937D01*
X10711Y944D01*
X10717Y950D01*
X10724Y959D01*
X10727Y960D01*
Y962D01*
X10743Y985D01*
X10755Y1007D01*
X10759Y1016D01*
X10764Y1023D01*
X10765Y1027D01*
X10767Y1029D01*
X10774Y1043D01*
X10780Y1056D01*
X10784Y1067D01*
X10788Y1077D01*
X10791Y1086D01*
X10794Y1091D01*
X10796Y1094D01*
Y1096D01*
X10797Y1107D01*
Y1118D01*
Y1126D01*
Y1128D01*
Y1129D01*
Y1145D01*
Y1160D01*
Y1166D01*
Y1170D01*
Y1173D01*
Y1174D01*
X10796Y1192D01*
Y1208D01*
X10794Y1221D01*
X10793Y1233D01*
X10791Y1242D01*
X10790Y1247D01*
X10788Y1252D01*
Y1253D01*
X10781Y1275D01*
X10774Y1294D01*
X10769Y1301D01*
X10767Y1307D01*
X10765Y1312D01*
X10764Y1313D01*
X10746Y1341D01*
X10736Y1352D01*
X10729Y1363D01*
X10721Y1371D01*
X10716Y1379D01*
X10711Y1383D01*
X10710Y1384D01*
X10702Y1392D01*
X10694Y1400D01*
X10685Y1411D01*
X10673Y1422D01*
X10648Y1447D01*
X10622Y1472D01*
X10597Y1497D01*
X10586Y1507D01*
X10576Y1516D01*
X10568Y1523D01*
X10562Y1530D01*
X10558Y1533D01*
X10557Y1535D01*
X10530Y1559D01*
X10507Y1583D01*
X10487Y1603D01*
X10469Y1621D01*
X10455Y1634D01*
X10444Y1644D01*
X10438Y1651D01*
X10436Y1653D01*
X10420Y1670D01*
X10406Y1683D01*
X10398Y1694D01*
X10390Y1702D01*
X10386Y1708D01*
X10383Y1711D01*
X10382Y1714D01*
X10379Y1723D01*
X10376Y1729D01*
X10374Y1733D01*
Y1734D01*
Y1742D01*
X10376Y1750D01*
X10377Y1756D01*
Y1759D01*
X10382Y1775D01*
X10387Y1787D01*
X10392Y1794D01*
X10393Y1797D01*
X10398Y1801D01*
X10403Y1804D01*
X10411Y1807D01*
X10417D01*
X10420Y1806D01*
X10440Y1813D01*
X10441Y1815D01*
X10444Y1817D01*
X10447Y1819D01*
X10453Y1820D01*
X10468Y1822D01*
X10484Y1823D01*
X10498Y1825D01*
X10587D01*
X10611Y1826D01*
X11098D01*
X11115Y1825D01*
D02*
G37*
G36*
X12055Y2172D02*
X12009Y2062D01*
X10399Y2058D01*
X10363Y2046D01*
X10347Y2041D01*
X10334Y2033D01*
X10320Y2027D01*
X10310Y2023D01*
X10303Y2019D01*
X10296Y2016D01*
X10293Y2014D01*
X10291Y2013D01*
X10281Y2006D01*
X10271Y1998D01*
X10252Y1982D01*
X10245Y1976D01*
X10239Y1971D01*
X10234Y1966D01*
X10233Y1965D01*
X10211Y1941D01*
X10204Y1931D01*
X10196Y1922D01*
X10191Y1915D01*
X10186Y1909D01*
X10185Y1906D01*
X10183Y1905D01*
X10172Y1883D01*
X10161Y1861D01*
X10159Y1852D01*
X10156Y1845D01*
X10153Y1839D01*
Y1838D01*
X10148Y1825D01*
X10147Y1813D01*
X10144Y1806D01*
Y1804D01*
Y1803D01*
X10143Y1790D01*
Y1775D01*
Y1769D01*
Y1765D01*
Y1762D01*
Y1761D01*
Y1745D01*
Y1731D01*
Y1721D01*
Y1712D01*
Y1707D01*
Y1704D01*
Y1701D01*
X10144Y1691D01*
X10147Y1679D01*
X10148Y1669D01*
X10150Y1666D01*
Y1664D01*
X10157Y1643D01*
X10160Y1634D01*
X10163Y1626D01*
X10166Y1621D01*
X10167Y1616D01*
X10169Y1613D01*
Y1612D01*
X10178Y1597D01*
X10185Y1583D01*
X10188Y1578D01*
X10191Y1574D01*
X10194Y1571D01*
Y1570D01*
X10211Y1548D01*
X10229Y1529D01*
X10236Y1520D01*
X10242Y1514D01*
X10245Y1511D01*
X10246Y1510D01*
X10253Y1504D01*
X10261Y1495D01*
X10271Y1485D01*
X10282Y1473D01*
X10307Y1447D01*
X10335Y1419D01*
X10360Y1393D01*
X10370Y1382D01*
X10380Y1371D01*
X10389Y1363D01*
X10395Y1357D01*
X10399Y1352D01*
X10401Y1351D01*
X10421Y1333D01*
X10438Y1319D01*
X10455Y1304D01*
X10469Y1291D01*
X10482Y1279D01*
X10494Y1269D01*
X10504Y1261D01*
X10511Y1253D01*
X10525Y1240D01*
X10533Y1231D01*
X10538Y1227D01*
X10539Y1226D01*
X10548Y1214D01*
X10555Y1202D01*
X10560Y1192D01*
X10564Y1183D01*
X10565Y1174D01*
X10567Y1169D01*
Y1164D01*
Y1163D01*
X10565Y1145D01*
X10561Y1132D01*
X10558Y1126D01*
X10555Y1122D01*
X10554Y1121D01*
Y1119D01*
X10543Y1107D01*
X10530Y1097D01*
X10525Y1094D01*
X10520Y1091D01*
X10517Y1088D01*
X10516D01*
X10510Y1086D01*
X10500Y1084D01*
X10487Y1083D01*
X10475Y1081D01*
X10462D01*
X10452Y1080D01*
X9766D01*
X9758Y1081D01*
X9742Y1084D01*
X9731Y1088D01*
X9724Y1094D01*
X9720Y1099D01*
X9718Y1103D01*
X9717Y1106D01*
Y1107D01*
X9718Y1112D01*
X9723Y1119D01*
X9727Y1131D01*
X9733Y1142D01*
X9737Y1154D01*
X9742Y1163D01*
X9744Y1170D01*
X9746Y1173D01*
X9756Y1196D01*
X9766Y1221D01*
X9778Y1246D01*
X9787Y1269D01*
X9796Y1288D01*
X9803Y1304D01*
X9806Y1310D01*
X9807Y1314D01*
X9809Y1317D01*
Y1319D01*
X9822Y1349D01*
X9835Y1380D01*
X9847Y1408D01*
X9857Y1433D01*
X9865Y1454D01*
X9870Y1463D01*
X9873Y1470D01*
X9876Y1476D01*
X9877Y1481D01*
X9879Y1484D01*
Y1485D01*
X9892Y1514D01*
X9902Y1538D01*
X9911Y1556D01*
X9917Y1571D01*
X9922Y1583D01*
X9925Y1590D01*
X9928Y1594D01*
Y1596D01*
X9934Y1610D01*
X9943Y1628D01*
X9950Y1647D01*
X9959Y1667D01*
X9966Y1685D01*
X9972Y1699D01*
X9975Y1705D01*
X9976Y1710D01*
X9978Y1712D01*
Y1714D01*
X9991Y1746D01*
X10004Y1777D01*
X10017Y1804D01*
X10027Y1831D01*
X10036Y1851D01*
X10040Y1860D01*
X10043Y1867D01*
X10046Y1873D01*
X10048Y1879D01*
X10049Y1880D01*
Y1882D01*
X10067Y1921D01*
X10083Y1959D01*
X10097Y1992D01*
X10110Y2023D01*
X10124Y2052D01*
X10134Y2077D01*
X10144Y2099D01*
X10153Y2119D01*
X10160Y2137D01*
X10166Y2151D01*
X10172Y2163D01*
X10176Y2173D01*
X10179Y2181D01*
X10182Y2186D01*
X10183Y2189D01*
Y2191D01*
X10191Y2207D01*
X10196Y2220D01*
X10201Y2233D01*
X10205Y2243D01*
X10210Y2252D01*
X10213Y2259D01*
X10218Y2271D01*
X10221Y2278D01*
X10223Y2283D01*
X10224Y2284D01*
X10240Y2287D01*
X10231Y2307D01*
X12106D01*
X12055Y2172D01*
D02*
G37*
G36*
X11888Y991D02*
X11894Y989D01*
X11898D01*
X11901Y988D01*
X11902D01*
X11910Y985D01*
X11918Y981D01*
X11933Y969D01*
X11939Y963D01*
X11943Y959D01*
X11946Y956D01*
X11948Y954D01*
X11956Y944D01*
X11964Y935D01*
X11969Y927D01*
X11974Y919D01*
X11977Y913D01*
X11978Y909D01*
X11980Y906D01*
Y905D01*
X11983Y892D01*
X11984Y879D01*
Y867D01*
X11983Y857D01*
Y848D01*
X11981Y842D01*
X11980Y838D01*
Y836D01*
X11975Y825D01*
X11971Y813D01*
X11958Y794D01*
X11952Y785D01*
X11946Y779D01*
X11943Y775D01*
X11942Y774D01*
X11924Y760D01*
X11907Y750D01*
X11888Y744D01*
X11870Y741D01*
X11856Y740D01*
X11832D01*
X11809Y746D01*
X11790Y753D01*
X11774Y765D01*
X11761Y775D01*
X11751Y787D01*
X11745Y795D01*
X11740Y801D01*
X11739Y804D01*
X11733Y817D01*
X11729Y830D01*
X11726Y842D01*
X11724Y854D01*
X11723Y864D01*
Y871D01*
Y876D01*
Y877D01*
X11724Y890D01*
X11729Y903D01*
X11732Y915D01*
X11736Y924D01*
X11740Y932D01*
X11745Y938D01*
X11746Y941D01*
X11748Y943D01*
X11759Y956D01*
X11768Y966D01*
X11775Y972D01*
X11778Y973D01*
X11784Y976D01*
X11789Y979D01*
X11797D01*
X11803Y976D01*
X11805Y975D01*
X11827Y982D01*
X11835Y989D01*
X11845Y992D01*
X11873D01*
X11888Y991D01*
D02*
G37*
G36*
X11824Y1825D02*
X11845D01*
X11863Y1823D01*
X11876Y1822D01*
X11885Y1819D01*
X11891Y1815D01*
X11894Y1810D01*
X11896Y1807D01*
Y1806D01*
Y1804D01*
Y1803D01*
X11895Y1800D01*
X11891Y1790D01*
X11886Y1781D01*
X11885Y1778D01*
Y1777D01*
X11878Y1758D01*
X11869Y1739D01*
X11866Y1731D01*
X11864Y1726D01*
X11861Y1721D01*
Y1720D01*
X11856Y1707D01*
X11848Y1692D01*
X11832Y1659D01*
X11827Y1644D01*
X11821Y1632D01*
X11818Y1624D01*
X11816Y1622D01*
Y1621D01*
X11806Y1596D01*
X11796Y1573D01*
X11787Y1551D01*
X11778Y1530D01*
X11771Y1514D01*
X11765Y1501D01*
X11762Y1494D01*
X11761Y1492D01*
Y1491D01*
X11751Y1468D01*
X11742Y1446D01*
X11732Y1424D01*
X11724Y1405D01*
X11717Y1390D01*
X11711Y1377D01*
X11708Y1370D01*
X11707Y1367D01*
X11698Y1347D01*
X11691Y1329D01*
X11684Y1314D01*
X11679Y1303D01*
X11675Y1294D01*
X11672Y1287D01*
X11671Y1284D01*
Y1282D01*
X11666Y1272D01*
X11660Y1261D01*
X11649Y1233D01*
X11644Y1221D01*
X11640Y1211D01*
X11637Y1204D01*
X11636Y1201D01*
X11617Y1158D01*
X11608Y1138D01*
X11601Y1119D01*
X11593Y1103D01*
X11587Y1091D01*
X11584Y1083D01*
X11583Y1081D01*
Y1080D01*
X11566Y1039D01*
X11557Y1021D01*
X11549Y1005D01*
X11544Y991D01*
X11539Y981D01*
X11536Y975D01*
X11535Y972D01*
X11526Y953D01*
X11520Y937D01*
X11513Y922D01*
X11509Y912D01*
X11504Y902D01*
X11503Y896D01*
X11500Y892D01*
Y890D01*
X11466Y813D01*
X11188D01*
X11167Y814D01*
X11114D01*
X11105Y816D01*
X11089Y817D01*
X11079Y820D01*
X11070Y823D01*
X11065Y826D01*
X11064Y827D01*
X11063Y830D01*
X11064Y833D01*
X11065Y841D01*
X11068Y848D01*
X11073Y857D01*
X11076Y865D01*
X11079Y873D01*
X11080Y879D01*
X11081Y880D01*
X11086Y890D01*
X11090Y900D01*
X11102Y927D01*
X11115Y956D01*
X11127Y986D01*
X11140Y1014D01*
X11144Y1026D01*
X11150Y1036D01*
X11153Y1045D01*
X11156Y1052D01*
X11159Y1056D01*
Y1058D01*
X11173Y1091D01*
X11181Y1107D01*
X11186Y1122D01*
X11192Y1135D01*
X11197Y1145D01*
X11200Y1151D01*
X11201Y1154D01*
X11210Y1174D01*
X11217Y1192D01*
X11223Y1207D01*
X11229Y1220D01*
X11233Y1230D01*
X11236Y1237D01*
X11239Y1242D01*
Y1243D01*
X11245Y1258D01*
X11251Y1272D01*
X11258Y1287D01*
X11264Y1301D01*
X11270Y1313D01*
X11274Y1323D01*
X11277Y1329D01*
X11278Y1332D01*
X11287Y1352D01*
X11296Y1371D01*
X11303Y1387D01*
X11309Y1403D01*
X11313Y1417D01*
X11318Y1425D01*
X11319Y1433D01*
X11321Y1434D01*
X11338Y1475D01*
X11347Y1494D01*
X11356Y1511D01*
X11361Y1527D01*
X11367Y1539D01*
X11370Y1546D01*
X11372Y1549D01*
X11382Y1573D01*
X11391Y1593D01*
X11399Y1612D01*
X11407Y1628D01*
X11412Y1641D01*
X11417Y1651D01*
X11418Y1657D01*
X11420Y1659D01*
X11431Y1688D01*
X11437Y1702D01*
X11443Y1714D01*
X11447Y1724D01*
X11450Y1731D01*
X11452Y1737D01*
X11453Y1739D01*
X11459Y1753D01*
X11465Y1765D01*
X11469Y1774D01*
X11472Y1781D01*
X11474Y1787D01*
X11475Y1790D01*
X11477Y1793D01*
X11494Y1826D01*
X11808D01*
X11824Y1825D01*
D02*
G37*
G36*
X22299Y9653D02*
X21925Y9424D01*
X22299D01*
Y9321D01*
X21744D01*
Y9433D01*
X22110Y9658D01*
X21744D01*
Y9762D01*
X22299D01*
Y9653D01*
D02*
G37*
G36*
X22037Y9222D02*
X22046D01*
X22054Y9221D01*
X22064Y9219D01*
X22075Y9218D01*
X22098Y9214D01*
X22125Y9207D01*
X22151Y9199D01*
X22164Y9193D01*
X22177Y9186D01*
X22178Y9186D01*
X22180Y9185D01*
X22183Y9182D01*
X22188Y9180D01*
X22194Y9176D01*
X22200Y9171D01*
X22207Y9166D01*
X22215Y9160D01*
X22223Y9153D01*
X22232Y9145D01*
X22241Y9136D01*
X22250Y9126D01*
X22258Y9116D01*
X22267Y9106D01*
X22281Y9081D01*
Y9080D01*
X22283Y9078D01*
X22283Y9075D01*
X22286Y9071D01*
X22287Y9066D01*
X22290Y9060D01*
X22292Y9052D01*
X22295Y9044D01*
X22298Y9035D01*
X22300Y9025D01*
X22303Y9013D01*
X22305Y9002D01*
X22308Y8977D01*
X22309Y8948D01*
Y8938D01*
X22308Y8931D01*
X22307Y8922D01*
X22307Y8912D01*
X22306Y8901D01*
X22303Y8889D01*
X22299Y8863D01*
X22291Y8836D01*
X22286Y8823D01*
X22280Y8810D01*
X22274Y8798D01*
X22266Y8787D01*
X22265Y8786D01*
X22264Y8784D01*
X22261Y8781D01*
X22258Y8777D01*
X22254Y8772D01*
X22248Y8768D01*
X22242Y8762D01*
X22235Y8756D01*
X22227Y8749D01*
X22218Y8743D01*
X22208Y8736D01*
X22197Y8731D01*
X22186Y8724D01*
X22174Y8720D01*
X22160Y8715D01*
X22146Y8712D01*
X22126Y8823D01*
X22126D01*
X22127Y8824D01*
X22132Y8825D01*
X22139Y8828D01*
X22149Y8833D01*
X22159Y8839D01*
X22170Y8847D01*
X22180Y8856D01*
X22190Y8868D01*
X22190Y8869D01*
X22194Y8873D01*
X22198Y8881D01*
X22202Y8889D01*
X22207Y8901D01*
X22210Y8915D01*
X22213Y8930D01*
X22214Y8948D01*
Y8955D01*
X22213Y8960D01*
X22212Y8966D01*
X22211Y8973D01*
X22210Y8981D01*
X22208Y8990D01*
X22202Y9009D01*
X22199Y9018D01*
X22194Y9028D01*
X22188Y9038D01*
X22182Y9047D01*
X22174Y9056D01*
X22166Y9065D01*
X22166Y9066D01*
X22164Y9066D01*
X22162Y9069D01*
X22158Y9071D01*
X22153Y9074D01*
X22147Y9078D01*
X22140Y9082D01*
X22132Y9086D01*
X22122Y9090D01*
X22112Y9094D01*
X22101Y9098D01*
X22089Y9101D01*
X22075Y9103D01*
X22060Y9106D01*
X22045Y9106D01*
X22028Y9107D01*
X22027D01*
X22024D01*
X22018D01*
X22012Y9106D01*
X22003Y9106D01*
X21994Y9105D01*
X21983Y9103D01*
X21972Y9102D01*
X21948Y9097D01*
X21923Y9089D01*
X21911Y9084D01*
X21900Y9078D01*
X21889Y9071D01*
X21879Y9064D01*
X21878Y9063D01*
X21876Y9062D01*
X21874Y9059D01*
X21871Y9056D01*
X21868Y9051D01*
X21863Y9046D01*
X21859Y9040D01*
X21854Y9033D01*
X21849Y9025D01*
X21845Y9017D01*
X21837Y8997D01*
X21834Y8985D01*
X21832Y8974D01*
X21830Y8961D01*
X21829Y8949D01*
Y8942D01*
X21830Y8936D01*
X21831Y8926D01*
X21832Y8916D01*
X21835Y8904D01*
X21838Y8891D01*
X21843Y8878D01*
Y8877D01*
X21844Y8877D01*
X21845Y8873D01*
X21848Y8865D01*
X21852Y8857D01*
X21857Y8848D01*
X21863Y8837D01*
X21869Y8827D01*
X21876Y8817D01*
X21948D01*
Y8945D01*
X22041D01*
Y8704D01*
X21819D01*
X21817Y8706D01*
X21816Y8708D01*
X21813Y8711D01*
X21810Y8715D01*
X21807Y8719D01*
X21799Y8730D01*
X21790Y8745D01*
X21780Y8763D01*
X21769Y8783D01*
X21760Y8807D01*
Y8808D01*
X21759Y8810D01*
X21757Y8813D01*
X21756Y8818D01*
X21754Y8824D01*
X21752Y8832D01*
X21749Y8840D01*
X21747Y8848D01*
X21742Y8868D01*
X21738Y8892D01*
X21735Y8916D01*
X21734Y8941D01*
Y8950D01*
X21735Y8956D01*
Y8964D01*
X21736Y8973D01*
X21737Y8982D01*
X21739Y8993D01*
X21743Y9017D01*
X21749Y9042D01*
X21758Y9069D01*
X21764Y9081D01*
X21770Y9094D01*
X21771Y9094D01*
X21772Y9096D01*
X21774Y9100D01*
X21777Y9104D01*
X21780Y9110D01*
X21785Y9115D01*
X21791Y9122D01*
X21797Y9130D01*
X21812Y9146D01*
X21830Y9162D01*
X21851Y9177D01*
X21875Y9190D01*
X21876D01*
X21878Y9192D01*
X21882Y9194D01*
X21887Y9195D01*
X21893Y9198D01*
X21901Y9201D01*
X21909Y9203D01*
X21919Y9207D01*
X21929Y9210D01*
X21941Y9212D01*
X21966Y9218D01*
X21993Y9221D01*
X22023Y9223D01*
X22024D01*
X22027D01*
X22032D01*
X22037Y9222D01*
D02*
G37*
G36*
X20955Y8344D02*
X20400D01*
Y8456D01*
X20955D01*
Y8344D01*
D02*
G37*
G36*
X22032Y8623D02*
X22039D01*
X22047Y8622D01*
X22057Y8621D01*
X22067Y8620D01*
X22090Y8617D01*
X22114Y8613D01*
X22138Y8607D01*
X22160Y8599D01*
X22161D01*
X22162Y8598D01*
X22164Y8596D01*
X22167Y8595D01*
X22175Y8591D01*
X22186Y8585D01*
X22198Y8578D01*
X22210Y8569D01*
X22223Y8559D01*
X22236Y8547D01*
X22237Y8547D01*
X22238Y8546D01*
X22242Y8542D01*
X22248Y8534D01*
X22255Y8526D01*
X22263Y8515D01*
X22272Y8503D01*
X22280Y8490D01*
X22287Y8475D01*
Y8474D01*
X22287Y8473D01*
X22289Y8470D01*
X22290Y8466D01*
X22292Y8461D01*
X22294Y8455D01*
X22295Y8448D01*
X22298Y8441D01*
X22302Y8423D01*
X22306Y8403D01*
X22308Y8380D01*
X22309Y8356D01*
Y8350D01*
X22308Y8344D01*
Y8336D01*
X22307Y8325D01*
X22305Y8313D01*
X22303Y8300D01*
X22299Y8285D01*
X22295Y8270D01*
X22291Y8254D01*
X22284Y8238D01*
X22277Y8221D01*
X22268Y8205D01*
X22258Y8189D01*
X22246Y8174D01*
X22232Y8160D01*
X22231Y8159D01*
X22229Y8156D01*
X22224Y8152D01*
X22219Y8148D01*
X22211Y8143D01*
X22201Y8136D01*
X22190Y8130D01*
X22177Y8123D01*
X22163Y8116D01*
X22147Y8109D01*
X22130Y8103D01*
X22111Y8097D01*
X22090Y8092D01*
X22069Y8089D01*
X22046Y8087D01*
X22021Y8086D01*
X22019D01*
X22015D01*
X22008Y8087D01*
X21998D01*
X21987Y8088D01*
X21974Y8090D01*
X21959Y8092D01*
X21944Y8095D01*
X21927Y8099D01*
X21909Y8104D01*
X21892Y8110D01*
X21874Y8117D01*
X21857Y8125D01*
X21840Y8136D01*
X21824Y8147D01*
X21809Y8160D01*
X21808Y8160D01*
X21806Y8163D01*
X21802Y8167D01*
X21797Y8173D01*
X21792Y8180D01*
X21785Y8189D01*
X21779Y8200D01*
X21772Y8211D01*
X21764Y8224D01*
X21758Y8239D01*
X21752Y8255D01*
X21746Y8273D01*
X21741Y8291D01*
X21737Y8311D01*
X21735Y8332D01*
X21734Y8354D01*
Y8360D01*
X21735Y8366D01*
X21736Y8374D01*
X21736Y8385D01*
X21738Y8397D01*
X21740Y8410D01*
X21744Y8425D01*
X21748Y8441D01*
X21752Y8456D01*
X21759Y8473D01*
X21766Y8489D01*
X21774Y8506D01*
X21784Y8521D01*
X21796Y8536D01*
X21809Y8551D01*
X21810Y8551D01*
X21812Y8554D01*
X21817Y8557D01*
X21823Y8562D01*
X21831Y8567D01*
X21840Y8574D01*
X21851Y8580D01*
X21864Y8587D01*
X21877Y8594D01*
X21893Y8600D01*
X21910Y8607D01*
X21929Y8612D01*
X21949Y8617D01*
X21970Y8620D01*
X21993Y8623D01*
X22017Y8623D01*
X22018D01*
X22021D01*
X22025D01*
X22032Y8623D01*
D02*
G37*
G36*
X20955Y8126D02*
X20654D01*
X20653D01*
X20650D01*
X20647D01*
X20642D01*
X20636D01*
X20629D01*
X20615Y8126D01*
X20599D01*
X20584Y8125D01*
X20577Y8124D01*
X20570D01*
X20565Y8123D01*
X20561Y8122D01*
X20559D01*
X20555Y8121D01*
X20549Y8118D01*
X20541Y8115D01*
X20532Y8111D01*
X20523Y8105D01*
X20513Y8098D01*
X20505Y8089D01*
X20505Y8087D01*
X20502Y8084D01*
X20499Y8078D01*
X20496Y8069D01*
X20492Y8058D01*
X20489Y8045D01*
X20486Y8031D01*
X20485Y8014D01*
Y8006D01*
X20486Y7998D01*
X20488Y7988D01*
X20490Y7976D01*
X20493Y7965D01*
X20498Y7953D01*
X20505Y7943D01*
X20505Y7942D01*
X20508Y7939D01*
X20512Y7935D01*
X20517Y7930D01*
X20525Y7925D01*
X20533Y7921D01*
X20541Y7917D01*
X20552Y7914D01*
X20553D01*
X20557Y7913D01*
X20565Y7912D01*
X20574Y7911D01*
X20581D01*
X20588Y7910D01*
X20596D01*
X20604Y7909D01*
X20613D01*
X20624Y7908D01*
X20635D01*
X20647D01*
X20955D01*
Y7796D01*
X20662D01*
X20662D01*
X20658D01*
X20653D01*
X20646D01*
X20638D01*
X20629Y7797D01*
X20618D01*
X20608D01*
X20585Y7799D01*
X20561Y7800D01*
X20550Y7801D01*
X20540Y7803D01*
X20530Y7804D01*
X20521Y7806D01*
X20521D01*
X20520Y7807D01*
X20517D01*
X20515Y7808D01*
X20507Y7810D01*
X20497Y7813D01*
X20486Y7818D01*
X20475Y7824D01*
X20463Y7831D01*
X20452Y7840D01*
X20450Y7840D01*
X20447Y7844D01*
X20442Y7849D01*
X20436Y7856D01*
X20428Y7866D01*
X20421Y7877D01*
X20413Y7890D01*
X20407Y7904D01*
Y7905D01*
X20406Y7906D01*
X20405Y7908D01*
X20404Y7912D01*
X20403Y7916D01*
X20401Y7921D01*
X20400Y7927D01*
X20399Y7933D01*
X20396Y7949D01*
X20392Y7967D01*
X20391Y7988D01*
X20390Y8011D01*
Y8024D01*
X20391Y8031D01*
Y8038D01*
X20392Y8047D01*
X20392Y8056D01*
X20394Y8075D01*
X20397Y8095D01*
X20402Y8115D01*
X20404Y8124D01*
X20408Y8132D01*
Y8133D01*
X20408Y8134D01*
X20411Y8138D01*
X20415Y8146D01*
X20420Y8155D01*
X20428Y8166D01*
X20436Y8177D01*
X20445Y8187D01*
X20456Y8197D01*
X20457Y8198D01*
X20460Y8201D01*
X20467Y8205D01*
X20475Y8210D01*
X20484Y8214D01*
X20494Y8220D01*
X20505Y8224D01*
X20517Y8228D01*
X20518D01*
X20520Y8229D01*
X20522D01*
X20526Y8230D01*
X20531Y8231D01*
X20537Y8231D01*
X20545Y8232D01*
X20553Y8233D01*
X20562Y8235D01*
X20573Y8235D01*
X20584Y8236D01*
X20597Y8237D01*
X20610Y8238D01*
X20625D01*
X20642Y8239D01*
X20658D01*
X20955D01*
Y8126D01*
D02*
G37*
G36*
X22299Y7718D02*
X21889Y7577D01*
X22299Y7442D01*
Y7323D01*
X21744Y7520D01*
Y7641D01*
X22299Y7839D01*
Y7718D01*
D02*
G37*
G36*
X20957Y7480D02*
Y7390D01*
X20605D01*
Y7321D01*
X20512D01*
Y7390D01*
X20400D01*
Y7493D01*
X20512D01*
Y7720D01*
X20604D01*
X20957Y7480D01*
D02*
G37*
G36*
X20655Y6836D02*
X20549D01*
Y7045D01*
X20655D01*
Y6836D01*
D02*
G37*
G36*
X22299Y7108D02*
Y6989D01*
X21744Y6767D01*
Y6888D01*
X21870Y6936D01*
Y7158D01*
X21744Y7204D01*
Y7323D01*
X22299Y7108D01*
D02*
G37*
G36*
Y6598D02*
X21925Y6369D01*
X22299D01*
Y6266D01*
X21744D01*
Y6378D01*
X22110Y6603D01*
X21744D01*
Y6707D01*
X22299D01*
Y6598D01*
D02*
G37*
G36*
X20406Y6595D02*
X20410Y6594D01*
X20415Y6593D01*
X20420Y6592D01*
X20435Y6589D01*
X20451Y6584D01*
X20468Y6578D01*
X20488Y6570D01*
X20506Y6560D01*
X20507D01*
X20509Y6558D01*
X20512Y6556D01*
X20515Y6553D01*
X20521Y6550D01*
X20526Y6545D01*
X20533Y6540D01*
X20541Y6533D01*
X20551Y6526D01*
X20561Y6517D01*
X20572Y6508D01*
X20584Y6496D01*
X20596Y6484D01*
X20609Y6471D01*
X20624Y6456D01*
X20639Y6440D01*
X20640Y6439D01*
X20642Y6437D01*
X20646Y6434D01*
X20650Y6429D01*
X20655Y6423D01*
X20662Y6416D01*
X20676Y6402D01*
X20691Y6387D01*
X20706Y6373D01*
X20713Y6367D01*
X20720Y6360D01*
X20726Y6355D01*
X20730Y6352D01*
X20732Y6351D01*
X20736Y6349D01*
X20742Y6345D01*
X20751Y6341D01*
X20761Y6337D01*
X20772Y6333D01*
X20783Y6331D01*
X20795Y6330D01*
X20796D01*
X20797D01*
X20801D01*
X20808Y6331D01*
X20816Y6332D01*
X20825Y6335D01*
X20834Y6338D01*
X20843Y6343D01*
X20851Y6349D01*
X20851Y6350D01*
X20854Y6352D01*
X20857Y6357D01*
X20860Y6363D01*
X20863Y6371D01*
X20867Y6379D01*
X20869Y6390D01*
X20870Y6402D01*
Y6407D01*
X20869Y6414D01*
X20867Y6421D01*
X20865Y6430D01*
X20861Y6439D01*
X20856Y6447D01*
X20850Y6455D01*
X20849Y6456D01*
X20846Y6459D01*
X20841Y6462D01*
X20834Y6465D01*
X20825Y6469D01*
X20813Y6472D01*
X20799Y6476D01*
X20783Y6477D01*
X20794Y6583D01*
X20794D01*
X20798Y6582D01*
X20802D01*
X20808Y6580D01*
X20815Y6580D01*
X20823Y6577D01*
X20832Y6575D01*
X20843Y6572D01*
X20863Y6564D01*
X20883Y6555D01*
X20894Y6548D01*
X20903Y6541D01*
X20911Y6533D01*
X20919Y6524D01*
X20920Y6524D01*
X20921Y6522D01*
X20923Y6520D01*
X20926Y6516D01*
X20928Y6511D01*
X20931Y6504D01*
X20935Y6498D01*
X20939Y6490D01*
X20943Y6481D01*
X20946Y6471D01*
X20952Y6451D01*
X20956Y6426D01*
X20957Y6413D01*
X20958Y6399D01*
Y6391D01*
X20957Y6386D01*
X20956Y6379D01*
X20956Y6371D01*
X20954Y6362D01*
X20952Y6352D01*
X20947Y6331D01*
X20939Y6310D01*
X20934Y6299D01*
X20928Y6290D01*
X20921Y6279D01*
X20913Y6270D01*
X20912Y6270D01*
X20911Y6268D01*
X20908Y6266D01*
X20905Y6263D01*
X20901Y6259D01*
X20895Y6255D01*
X20890Y6251D01*
X20883Y6246D01*
X20867Y6238D01*
X20848Y6230D01*
X20838Y6227D01*
X20827Y6226D01*
X20815Y6224D01*
X20803Y6223D01*
X20801D01*
X20796D01*
X20789Y6224D01*
X20780Y6225D01*
X20769Y6226D01*
X20757Y6229D01*
X20744Y6232D01*
X20731Y6237D01*
X20730Y6238D01*
X20726Y6239D01*
X20718Y6242D01*
X20710Y6247D01*
X20699Y6253D01*
X20687Y6260D01*
X20674Y6269D01*
X20661Y6279D01*
X20660Y6280D01*
X20656Y6283D01*
X20650Y6288D01*
X20642Y6295D01*
X20633Y6305D01*
X20620Y6317D01*
X20606Y6331D01*
X20589Y6349D01*
X20589Y6350D01*
X20588Y6351D01*
X20585Y6354D01*
X20582Y6357D01*
X20574Y6366D01*
X20565Y6376D01*
X20554Y6387D01*
X20544Y6397D01*
X20535Y6407D01*
X20531Y6410D01*
X20528Y6413D01*
X20527Y6414D01*
X20525Y6415D01*
X20522Y6418D01*
X20518Y6421D01*
X20509Y6428D01*
X20499Y6435D01*
Y6223D01*
X20400D01*
Y6596D01*
X20401D01*
X20403D01*
X20406Y6595D01*
D02*
G37*
G36*
X20700Y6150D02*
X20713Y6150D01*
X20728Y6148D01*
X20744Y6146D01*
X20762Y6145D01*
X20780Y6141D01*
X20799Y6138D01*
X20818Y6133D01*
X20836Y6129D01*
X20854Y6122D01*
X20871Y6115D01*
X20887Y6107D01*
X20900Y6097D01*
X20901Y6097D01*
X20903Y6095D01*
X20906Y6093D01*
X20909Y6089D01*
X20914Y6085D01*
X20919Y6079D01*
X20923Y6072D01*
X20929Y6065D01*
X20935Y6056D01*
X20939Y6047D01*
X20944Y6037D01*
X20949Y6025D01*
X20952Y6013D01*
X20956Y6000D01*
X20957Y5986D01*
X20958Y5972D01*
Y5964D01*
X20957Y5958D01*
X20956Y5952D01*
X20955Y5944D01*
X20953Y5936D01*
X20951Y5926D01*
X20947Y5916D01*
X20943Y5906D01*
X20939Y5896D01*
X20934Y5885D01*
X20927Y5875D01*
X20919Y5864D01*
X20911Y5855D01*
X20900Y5846D01*
X20899Y5845D01*
X20897Y5844D01*
X20893Y5841D01*
X20887Y5837D01*
X20879Y5833D01*
X20870Y5828D01*
X20859Y5824D01*
X20846Y5819D01*
X20831Y5814D01*
X20815Y5808D01*
X20796Y5804D01*
X20775Y5800D01*
X20753Y5796D01*
X20729Y5794D01*
X20702Y5792D01*
X20674Y5791D01*
X20673D01*
X20672D01*
X20670D01*
X20666D01*
X20658D01*
X20648Y5792D01*
X20635Y5793D01*
X20620Y5795D01*
X20604Y5796D01*
X20586Y5798D01*
X20568Y5801D01*
X20549Y5805D01*
X20530Y5809D01*
X20512Y5815D01*
X20493Y5820D01*
X20477Y5828D01*
X20460Y5836D01*
X20447Y5846D01*
X20446Y5847D01*
X20444Y5848D01*
X20441Y5851D01*
X20438Y5854D01*
X20434Y5859D01*
X20429Y5864D01*
X20424Y5872D01*
X20419Y5879D01*
X20413Y5888D01*
X20408Y5896D01*
X20403Y5907D01*
X20399Y5918D01*
X20396Y5930D01*
X20392Y5944D01*
X20391Y5957D01*
X20390Y5972D01*
Y5975D01*
X20391Y5980D01*
Y5985D01*
X20392Y5992D01*
X20393Y6000D01*
X20395Y6009D01*
X20398Y6018D01*
X20401Y6029D01*
X20405Y6039D01*
X20410Y6050D01*
X20416Y6061D01*
X20423Y6072D01*
X20432Y6082D01*
X20440Y6093D01*
X20452Y6102D01*
X20452Y6103D01*
X20455Y6105D01*
X20459Y6107D01*
X20464Y6109D01*
X20471Y6113D01*
X20480Y6117D01*
X20491Y6122D01*
X20503Y6126D01*
X20517Y6131D01*
X20533Y6136D01*
X20552Y6140D01*
X20572Y6143D01*
X20594Y6146D01*
X20619Y6149D01*
X20646Y6150D01*
X20674Y6151D01*
X20675D01*
X20676D01*
X20678D01*
X20682D01*
X20690D01*
X20700Y6150D01*
D02*
G37*
G36*
X22299Y5820D02*
X22052D01*
X22299Y5592D01*
Y5442D01*
X22082Y5652D01*
X21744Y5431D01*
Y5576D01*
X22005Y5729D01*
X21912Y5820D01*
X21744D01*
Y5932D01*
X22299D01*
Y5820D01*
D02*
G37*
G36*
X20406Y5733D02*
X20410Y5732D01*
X20415Y5731D01*
X20420Y5731D01*
X20435Y5727D01*
X20451Y5723D01*
X20468Y5716D01*
X20488Y5708D01*
X20506Y5698D01*
X20507D01*
X20509Y5696D01*
X20512Y5695D01*
X20515Y5691D01*
X20521Y5688D01*
X20526Y5683D01*
X20533Y5678D01*
X20541Y5671D01*
X20551Y5664D01*
X20561Y5655D01*
X20572Y5646D01*
X20584Y5634D01*
X20596Y5622D01*
X20609Y5609D01*
X20624Y5594D01*
X20639Y5578D01*
X20640Y5578D01*
X20642Y5575D01*
X20646Y5572D01*
X20650Y5567D01*
X20655Y5561D01*
X20662Y5554D01*
X20676Y5540D01*
X20691Y5526D01*
X20706Y5511D01*
X20713Y5505D01*
X20720Y5498D01*
X20726Y5493D01*
X20730Y5490D01*
X20732Y5489D01*
X20736Y5487D01*
X20742Y5483D01*
X20751Y5479D01*
X20761Y5475D01*
X20772Y5471D01*
X20783Y5469D01*
X20795Y5468D01*
X20796D01*
X20797D01*
X20801D01*
X20808Y5469D01*
X20816Y5470D01*
X20825Y5473D01*
X20834Y5476D01*
X20843Y5481D01*
X20851Y5487D01*
X20851Y5488D01*
X20854Y5490D01*
X20857Y5495D01*
X20860Y5501D01*
X20863Y5509D01*
X20867Y5518D01*
X20869Y5528D01*
X20870Y5540D01*
Y5546D01*
X20869Y5552D01*
X20867Y5559D01*
X20865Y5568D01*
X20861Y5577D01*
X20856Y5586D01*
X20850Y5594D01*
X20849Y5594D01*
X20846Y5597D01*
X20841Y5600D01*
X20834Y5603D01*
X20825Y5607D01*
X20813Y5610D01*
X20799Y5614D01*
X20783Y5615D01*
X20794Y5721D01*
X20794D01*
X20798Y5720D01*
X20802D01*
X20808Y5719D01*
X20815Y5718D01*
X20823Y5715D01*
X20832Y5713D01*
X20843Y5711D01*
X20863Y5703D01*
X20883Y5693D01*
X20894Y5687D01*
X20903Y5679D01*
X20911Y5671D01*
X20919Y5663D01*
X20920Y5662D01*
X20921Y5660D01*
X20923Y5658D01*
X20926Y5654D01*
X20928Y5649D01*
X20931Y5642D01*
X20935Y5636D01*
X20939Y5628D01*
X20943Y5619D01*
X20946Y5610D01*
X20952Y5589D01*
X20956Y5564D01*
X20957Y5551D01*
X20958Y5538D01*
Y5530D01*
X20957Y5524D01*
X20956Y5517D01*
X20956Y5509D01*
X20954Y5500D01*
X20952Y5490D01*
X20947Y5469D01*
X20939Y5449D01*
X20934Y5437D01*
X20928Y5428D01*
X20921Y5417D01*
X20913Y5409D01*
X20912Y5408D01*
X20911Y5406D01*
X20908Y5405D01*
X20905Y5401D01*
X20901Y5397D01*
X20895Y5393D01*
X20890Y5389D01*
X20883Y5385D01*
X20867Y5377D01*
X20848Y5369D01*
X20838Y5365D01*
X20827Y5364D01*
X20815Y5362D01*
X20803Y5361D01*
X20801D01*
X20796D01*
X20789Y5362D01*
X20780Y5363D01*
X20769Y5365D01*
X20757Y5367D01*
X20744Y5370D01*
X20731Y5375D01*
X20730Y5376D01*
X20726Y5377D01*
X20718Y5381D01*
X20710Y5385D01*
X20699Y5391D01*
X20687Y5398D01*
X20674Y5407D01*
X20661Y5417D01*
X20660Y5418D01*
X20656Y5421D01*
X20650Y5426D01*
X20642Y5433D01*
X20633Y5443D01*
X20620Y5455D01*
X20606Y5469D01*
X20589Y5487D01*
X20589Y5488D01*
X20588Y5489D01*
X20585Y5492D01*
X20582Y5495D01*
X20574Y5504D01*
X20565Y5514D01*
X20554Y5525D01*
X20544Y5535D01*
X20535Y5545D01*
X20531Y5548D01*
X20528Y5551D01*
X20527Y5552D01*
X20525Y5554D01*
X20522Y5556D01*
X20518Y5559D01*
X20509Y5566D01*
X20499Y5573D01*
Y5361D01*
X20400D01*
Y5734D01*
X20401D01*
X20403D01*
X20406Y5733D01*
D02*
G37*
G36*
X20818Y5260D02*
X20819Y5260D01*
X20819Y5257D01*
X20820Y5254D01*
X20824Y5246D01*
X20829Y5235D01*
X20835Y5221D01*
X20844Y5206D01*
X20855Y5189D01*
X20868Y5171D01*
X20869Y5171D01*
X20870Y5169D01*
X20872Y5167D01*
X20875Y5163D01*
X20883Y5155D01*
X20894Y5145D01*
X20907Y5134D01*
X20923Y5123D01*
X20939Y5112D01*
X20958Y5104D01*
Y5018D01*
X20400D01*
Y5124D01*
X20802D01*
X20801Y5125D01*
X20799Y5127D01*
X20797Y5130D01*
X20793Y5135D01*
X20788Y5140D01*
X20783Y5147D01*
X20778Y5155D01*
X20771Y5163D01*
X20765Y5173D01*
X20758Y5184D01*
X20751Y5195D01*
X20745Y5207D01*
X20733Y5232D01*
X20722Y5261D01*
X20818D01*
Y5260D01*
D02*
G37*
G36*
X22299Y5261D02*
X22081D01*
Y5042D01*
X22299D01*
Y4930D01*
X21744D01*
Y5042D01*
X21987D01*
Y5261D01*
X21744D01*
Y5373D01*
X22299D01*
Y5261D01*
D02*
G37*
G36*
X22032Y4836D02*
X22039D01*
X22047Y4835D01*
X22057Y4835D01*
X22067Y4834D01*
X22090Y4831D01*
X22114Y4827D01*
X22138Y4820D01*
X22160Y4812D01*
X22161D01*
X22162Y4811D01*
X22164Y4810D01*
X22167Y4809D01*
X22175Y4804D01*
X22186Y4799D01*
X22198Y4791D01*
X22210Y4783D01*
X22223Y4772D01*
X22236Y4761D01*
X22237Y4760D01*
X22238Y4759D01*
X22242Y4755D01*
X22248Y4748D01*
X22255Y4739D01*
X22263Y4729D01*
X22272Y4717D01*
X22280Y4703D01*
X22287Y4689D01*
Y4688D01*
X22287Y4686D01*
X22289Y4683D01*
X22290Y4679D01*
X22292Y4674D01*
X22294Y4669D01*
X22295Y4662D01*
X22298Y4654D01*
X22302Y4637D01*
X22306Y4617D01*
X22308Y4594D01*
X22309Y4570D01*
Y4564D01*
X22308Y4558D01*
Y4550D01*
X22307Y4539D01*
X22305Y4527D01*
X22303Y4513D01*
X22299Y4499D01*
X22295Y4484D01*
X22291Y4468D01*
X22284Y4452D01*
X22277Y4435D01*
X22268Y4419D01*
X22258Y4403D01*
X22246Y4388D01*
X22232Y4373D01*
X22231Y4372D01*
X22229Y4370D01*
X22224Y4366D01*
X22219Y4362D01*
X22211Y4356D01*
X22201Y4350D01*
X22190Y4344D01*
X22177Y4336D01*
X22163Y4329D01*
X22147Y4323D01*
X22130Y4316D01*
X22111Y4311D01*
X22090Y4306D01*
X22069Y4303D01*
X22046Y4300D01*
X22021Y4300D01*
X22019D01*
X22015D01*
X22008Y4300D01*
X21998D01*
X21987Y4302D01*
X21974Y4304D01*
X21959Y4306D01*
X21944Y4308D01*
X21927Y4312D01*
X21909Y4317D01*
X21892Y4324D01*
X21874Y4331D01*
X21857Y4339D01*
X21840Y4349D01*
X21824Y4360D01*
X21809Y4373D01*
X21808Y4374D01*
X21806Y4376D01*
X21802Y4381D01*
X21797Y4387D01*
X21792Y4394D01*
X21785Y4403D01*
X21779Y4413D01*
X21772Y4425D01*
X21764Y4438D01*
X21758Y4453D01*
X21752Y4469D01*
X21746Y4486D01*
X21741Y4505D01*
X21737Y4525D01*
X21735Y4545D01*
X21734Y4568D01*
Y4574D01*
X21735Y4580D01*
X21736Y4588D01*
X21736Y4598D01*
X21738Y4610D01*
X21740Y4624D01*
X21744Y4638D01*
X21748Y4654D01*
X21752Y4670D01*
X21759Y4686D01*
X21766Y4703D01*
X21774Y4719D01*
X21784Y4735D01*
X21796Y4750D01*
X21809Y4764D01*
X21810Y4765D01*
X21812Y4767D01*
X21817Y4771D01*
X21823Y4775D01*
X21831Y4781D01*
X21840Y4787D01*
X21851Y4794D01*
X21864Y4800D01*
X21877Y4807D01*
X21893Y4814D01*
X21910Y4820D01*
X21929Y4826D01*
X21949Y4831D01*
X21970Y4834D01*
X21993Y4836D01*
X22017Y4837D01*
X22018D01*
X22021D01*
X22025D01*
X22032Y4836D01*
D02*
G37*
G36*
X22299Y4054D02*
Y3935D01*
X21744Y3712D01*
Y3833D01*
X21870Y3881D01*
Y4104D01*
X21744Y4150D01*
Y4268D01*
X22299Y4054D01*
D02*
G37*
G36*
X15263Y15016D02*
X15269Y15015D01*
X15275Y15013D01*
X15282Y15010D01*
X15288Y15006D01*
X15294Y15000D01*
X15295Y15000D01*
X15296Y14999D01*
X15299Y14996D01*
X15302Y14993D01*
X15309Y14984D01*
X15319Y14972D01*
X15329Y14958D01*
X15340Y14941D01*
X15351Y14922D01*
X15360Y14902D01*
Y14901D01*
X15361Y14899D01*
X15362Y14897D01*
X15364Y14893D01*
X15364Y14887D01*
X15366Y14882D01*
X15371Y14867D01*
X15374Y14851D01*
X15377Y14832D01*
X15380Y14812D01*
X15381Y14791D01*
Y14790D01*
Y14788D01*
Y14785D01*
Y14782D01*
X15380Y14776D01*
Y14771D01*
X15378Y14756D01*
X15375Y14740D01*
X15372Y14721D01*
X15367Y14701D01*
X15360Y14681D01*
Y14680D01*
X15359Y14678D01*
X15357Y14675D01*
X15355Y14672D01*
X15351Y14661D01*
X15343Y14648D01*
X15333Y14632D01*
X15323Y14616D01*
X15310Y14599D01*
X15294Y14582D01*
X15292Y14581D01*
X15289Y14578D01*
X15283Y14573D01*
X15276Y14570D01*
X15274Y14569D01*
X15270Y14568D01*
X15263Y14567D01*
X15255Y14566D01*
X15253D01*
X15249Y14567D01*
X15242Y14568D01*
X15234Y14570D01*
X15232Y14570D01*
X15228Y14573D01*
X15222Y14577D01*
X15216Y14582D01*
X15215Y14583D01*
X15213Y14585D01*
X15211Y14589D01*
X15209Y14593D01*
X15205Y14599D01*
X15203Y14605D01*
X15201Y14612D01*
X15200Y14621D01*
Y14621D01*
Y14624D01*
X15201Y14629D01*
X15202Y14634D01*
X15204Y14641D01*
X15207Y14647D01*
X15210Y14653D01*
X15216Y14660D01*
X15217Y14661D01*
X15221Y14664D01*
X15225Y14670D01*
X15231Y14678D01*
X15238Y14687D01*
X15245Y14699D01*
X15252Y14712D01*
X15259Y14725D01*
X15260Y14727D01*
X15261Y14731D01*
X15262Y14737D01*
X15265Y14744D01*
X15267Y14754D01*
X15269Y14765D01*
X15270Y14778D01*
X15271Y14791D01*
Y14793D01*
Y14797D01*
X15270Y14804D01*
X15269Y14813D01*
X15268Y14823D01*
X15266Y14835D01*
X15262Y14846D01*
X15259Y14857D01*
X15258Y14859D01*
X15256Y14864D01*
X15252Y14871D01*
X15248Y14880D01*
X15241Y14890D01*
X15234Y14901D01*
X15226Y14912D01*
X15216Y14923D01*
X15215Y14924D01*
X15213Y14926D01*
X15211Y14929D01*
X15209Y14934D01*
X15205Y14939D01*
X15203Y14947D01*
X15201Y14954D01*
X15200Y14962D01*
Y14963D01*
Y14966D01*
X15201Y14970D01*
X15202Y14976D01*
X15204Y14981D01*
X15207Y14988D01*
X15210Y14994D01*
X15216Y15000D01*
X15217Y15001D01*
X15219Y15003D01*
X15222Y15006D01*
X15227Y15009D01*
X15232Y15011D01*
X15240Y15014D01*
X15247Y15016D01*
X15255Y15017D01*
X15259D01*
X15263Y15016D01*
D02*
G37*
G36*
X15424Y15102D02*
X15429Y15101D01*
X15435Y15099D01*
X15442Y15095D01*
X15448Y15092D01*
X15454Y15086D01*
X15456Y15085D01*
X15459Y15081D01*
X15465Y15075D01*
X15472Y15067D01*
X15480Y15058D01*
X15489Y15047D01*
X15498Y15036D01*
X15507Y15023D01*
X15508Y15021D01*
X15511Y15017D01*
X15516Y15010D01*
X15521Y15000D01*
X15527Y14990D01*
X15533Y14977D01*
X15545Y14950D01*
X15546Y14949D01*
X15548Y14944D01*
X15550Y14937D01*
X15554Y14928D01*
X15558Y14916D01*
X15561Y14904D01*
X15565Y14890D01*
X15568Y14876D01*
Y14875D01*
Y14874D01*
X15570Y14868D01*
X15571Y14860D01*
X15573Y14849D01*
X15575Y14836D01*
X15576Y14822D01*
X15578Y14792D01*
Y14790D01*
Y14785D01*
Y14776D01*
X15577Y14766D01*
X15576Y14754D01*
X15574Y14739D01*
X15571Y14723D01*
X15568Y14707D01*
Y14705D01*
X15567Y14701D01*
X15565Y14693D01*
X15562Y14683D01*
X15559Y14672D01*
X15555Y14659D01*
X15545Y14631D01*
X15544Y14630D01*
X15542Y14625D01*
X15539Y14618D01*
X15535Y14609D01*
X15529Y14598D01*
X15523Y14585D01*
X15515Y14572D01*
X15507Y14559D01*
X15506Y14557D01*
X15503Y14553D01*
X15498Y14547D01*
X15492Y14539D01*
X15485Y14529D01*
X15476Y14519D01*
X15466Y14508D01*
X15456Y14498D01*
X15454Y14497D01*
X15450Y14493D01*
X15445Y14488D01*
X15437Y14484D01*
X15435Y14483D01*
X15432Y14482D01*
X15428Y14481D01*
X15426Y14480D01*
X15422Y14485D01*
X15421D01*
X15419Y14484D01*
X15415D01*
X15412Y14483D01*
X15403D01*
X15395Y14484D01*
X15393Y14485D01*
X15389Y14488D01*
X15383Y14491D01*
X15377Y14498D01*
X15376Y14498D01*
X15374Y14500D01*
X15372Y14504D01*
X15369Y14508D01*
X15366Y14514D01*
X15364Y14520D01*
X15362Y14527D01*
X15361Y14535D01*
Y14536D01*
Y14539D01*
X15362Y14543D01*
X15364Y14549D01*
X15366Y14555D01*
X15371Y14562D01*
X15376Y14570D01*
X15384Y14578D01*
X15384Y14579D01*
X15385Y14580D01*
X15390Y14585D01*
X15397Y14594D01*
X15405Y14605D01*
X15415Y14620D01*
X15425Y14636D01*
X15435Y14655D01*
X15444Y14675D01*
Y14676D01*
X15445Y14678D01*
X15446Y14681D01*
X15447Y14685D01*
X15449Y14690D01*
X15451Y14696D01*
X15456Y14711D01*
X15459Y14728D01*
X15463Y14748D01*
X15466Y14769D01*
X15466Y14791D01*
Y14792D01*
Y14794D01*
Y14796D01*
Y14801D01*
X15466Y14806D01*
Y14813D01*
X15464Y14827D01*
X15461Y14845D01*
X15457Y14864D01*
X15452Y14884D01*
X15445Y14904D01*
Y14905D01*
X15444Y14907D01*
X15442Y14909D01*
X15440Y14914D01*
X15438Y14919D01*
X15435Y14925D01*
X15428Y14938D01*
X15420Y14955D01*
X15410Y14972D01*
X15398Y14990D01*
X15384Y15006D01*
X15384Y15007D01*
X15381Y15010D01*
X15377Y15013D01*
X15373Y15019D01*
X15368Y15024D01*
X15364Y15031D01*
X15362Y15039D01*
X15361Y15047D01*
Y15048D01*
Y15051D01*
X15362Y15055D01*
X15364Y15061D01*
X15365Y15067D01*
X15368Y15073D01*
X15373Y15081D01*
X15379Y15087D01*
X15380Y15088D01*
X15382Y15090D01*
X15384Y15092D01*
X15389Y15095D01*
X15394Y15098D01*
X15400Y15100D01*
X15407Y15102D01*
X15415Y15102D01*
X15419D01*
X15424Y15102D01*
D02*
G37*
G36*
X15584Y15186D02*
X15589Y15185D01*
X15596Y15184D01*
X15603Y15180D01*
X15609Y15176D01*
X15616Y15171D01*
X15618Y15169D01*
X15622Y15164D01*
X15630Y15156D01*
X15639Y15146D01*
X15650Y15134D01*
X15661Y15121D01*
X15672Y15105D01*
X15683Y15090D01*
Y15089D01*
X15684Y15088D01*
X15686Y15085D01*
X15688Y15082D01*
X15693Y15073D01*
X15701Y15061D01*
X15708Y15048D01*
X15716Y15031D01*
X15724Y15015D01*
X15732Y14997D01*
Y14996D01*
X15732Y14995D01*
X15733Y14992D01*
X15735Y14989D01*
X15739Y14979D01*
X15743Y14967D01*
X15748Y14951D01*
X15753Y14935D01*
X15758Y14916D01*
X15763Y14897D01*
Y14896D01*
X15763Y14894D01*
Y14891D01*
X15764Y14887D01*
X15765Y14883D01*
X15766Y14877D01*
X15768Y14864D01*
X15770Y14848D01*
X15772Y14830D01*
X15773Y14812D01*
Y14792D01*
Y14791D01*
Y14789D01*
Y14786D01*
Y14783D01*
Y14778D01*
X15773Y14772D01*
Y14758D01*
X15771Y14743D01*
X15769Y14724D01*
X15766Y14705D01*
X15763Y14686D01*
Y14685D01*
X15762Y14683D01*
Y14681D01*
X15761Y14677D01*
X15758Y14667D01*
X15754Y14653D01*
X15750Y14638D01*
X15745Y14621D01*
X15739Y14603D01*
X15732Y14585D01*
Y14584D01*
X15731Y14583D01*
X15730Y14580D01*
X15728Y14577D01*
X15724Y14568D01*
X15719Y14556D01*
X15712Y14542D01*
X15703Y14526D01*
X15693Y14509D01*
X15683Y14493D01*
Y14492D01*
X15682Y14491D01*
X15678Y14486D01*
X15672Y14478D01*
X15664Y14467D01*
X15654Y14454D01*
X15642Y14440D01*
X15630Y14426D01*
X15616Y14411D01*
X15614Y14410D01*
X15610Y14406D01*
X15604Y14403D01*
X15597Y14399D01*
X15595Y14398D01*
X15592Y14397D01*
X15589Y14396D01*
X15588Y14396D01*
X15587D01*
X15581Y14400D01*
X15580D01*
X15579Y14399D01*
X15576D01*
X15572Y14398D01*
X15564D01*
X15556Y14399D01*
X15554Y14400D01*
X15549Y14403D01*
X15544Y14406D01*
X15538Y14411D01*
X15537Y14412D01*
X15535Y14414D01*
X15532Y14417D01*
X15529Y14422D01*
X15527Y14427D01*
X15524Y14435D01*
X15522Y14442D01*
X15521Y14450D01*
Y14451D01*
Y14454D01*
X15522Y14458D01*
X15523Y14464D01*
X15525Y14470D01*
X15528Y14477D01*
X15532Y14483D01*
X15538Y14489D01*
X15538Y14491D01*
X15543Y14495D01*
X15548Y14500D01*
X15556Y14508D01*
X15563Y14518D01*
X15572Y14529D01*
X15589Y14552D01*
X15590Y14554D01*
X15594Y14559D01*
X15598Y14566D01*
X15604Y14575D01*
X15610Y14587D01*
X15617Y14600D01*
X15623Y14612D01*
X15630Y14627D01*
Y14628D01*
X15630Y14629D01*
X15632Y14633D01*
X15635Y14641D01*
X15639Y14652D01*
X15643Y14664D01*
X15647Y14678D01*
X15650Y14693D01*
X15654Y14708D01*
Y14709D01*
Y14710D01*
X15655Y14715D01*
X15657Y14723D01*
X15659Y14734D01*
X15660Y14746D01*
X15661Y14761D01*
X15662Y14776D01*
Y14792D01*
Y14793D01*
Y14794D01*
Y14799D01*
Y14807D01*
X15661Y14818D01*
X15661Y14831D01*
X15659Y14845D01*
X15657Y14860D01*
X15654Y14876D01*
Y14877D01*
Y14877D01*
X15652Y14883D01*
X15650Y14890D01*
X15648Y14901D01*
X15645Y14913D01*
X15640Y14927D01*
X15630Y14955D01*
X15630Y14957D01*
X15628Y14961D01*
X15624Y14969D01*
X15620Y14979D01*
X15614Y14990D01*
X15607Y15002D01*
X15599Y15016D01*
X15589Y15030D01*
X15589Y15031D01*
X15586Y15035D01*
X15581Y15041D01*
X15575Y15051D01*
X15568Y15060D01*
X15558Y15071D01*
X15548Y15082D01*
X15538Y15093D01*
X15537Y15094D01*
X15535Y15096D01*
X15532Y15100D01*
X15529Y15104D01*
X15527Y15110D01*
X15524Y15117D01*
X15522Y15124D01*
X15521Y15133D01*
Y15133D01*
Y15136D01*
X15522Y15141D01*
X15523Y15146D01*
X15525Y15152D01*
X15528Y15158D01*
X15532Y15164D01*
X15538Y15171D01*
X15538Y15172D01*
X15540Y15174D01*
X15544Y15176D01*
X15548Y15179D01*
X15554Y15182D01*
X15560Y15184D01*
X15568Y15186D01*
X15576Y15187D01*
X15579D01*
X15584Y15186D01*
D02*
G37*
G36*
X15137Y15222D02*
X15146Y15220D01*
X15147D01*
X15148Y15219D01*
X15152Y15216D01*
X15158Y15212D01*
X15163Y15205D01*
X15164Y15204D01*
X15167Y15199D01*
X15169Y15192D01*
X15170Y15184D01*
Y14400D01*
Y14399D01*
Y14398D01*
X15169Y14393D01*
X15168Y14386D01*
X15163Y14377D01*
X15162Y14375D01*
X15159Y14372D01*
X15153Y14366D01*
X15146Y14362D01*
X15145D01*
X15143Y14361D01*
X15140D01*
X15138Y14360D01*
X15126D01*
X15120Y14361D01*
X15115Y14363D01*
X15114Y14364D01*
X15110Y14365D01*
X15106Y14368D01*
X15100Y14372D01*
X14872Y14600D01*
X14766D01*
X14762Y14601D01*
X14759Y14602D01*
X14750Y14606D01*
X14744Y14609D01*
X14739Y14612D01*
Y14613D01*
X14738Y14614D01*
X14736Y14617D01*
X14734Y14621D01*
X14730Y14630D01*
X14729Y14635D01*
X14729Y14641D01*
Y14942D01*
Y14943D01*
Y14945D01*
X14729Y14948D01*
X14730Y14952D01*
X14733Y14960D01*
X14736Y14965D01*
X14739Y14969D01*
X14740Y14970D01*
X14741Y14971D01*
X14744Y14973D01*
X14748Y14976D01*
X14757Y14979D01*
X14762Y14980D01*
X14769Y14981D01*
X14872D01*
X15100Y15211D01*
X15101D01*
X15102Y15212D01*
X15107Y15215D01*
X15113Y15219D01*
X15121Y15222D01*
X15123D01*
X15128Y15223D01*
X15137Y15222D01*
D02*
G37*
G36*
X21877Y12640D02*
X21868Y12631D01*
X21859Y12622D01*
X21853Y12613D01*
X21848Y12611D01*
X21838Y12600D01*
X21833Y12594D01*
X21829Y12589D01*
X21820Y12578D01*
X21851Y12552D01*
X21866Y12537D01*
X21879Y12524D01*
X21888Y12515D01*
X21890Y12513D01*
X21901Y12502D01*
X21908Y12495D01*
X21910Y12491D01*
X21916Y12465D01*
X21923Y12469D01*
X21927Y12471D01*
X21938D01*
X21943Y12467D01*
X21945Y12465D01*
X21949Y12452D01*
Y12430D01*
X21947Y12425D01*
X21938Y12421D01*
X21925Y12417D01*
X21897Y12410D01*
X21881D01*
X21868Y12408D01*
X21859D01*
X21857D01*
X21805D01*
X21783Y12410D01*
X21763Y12412D01*
X21746D01*
X21733Y12414D01*
X21724Y12417D01*
X21722D01*
X21691Y12421D01*
X21660Y12428D01*
X21634Y12432D01*
X21612Y12436D01*
X21595Y12439D01*
X21579Y12443D01*
X21571Y12445D01*
X21569D01*
X21547Y12452D01*
X21531Y12458D01*
X21520Y12465D01*
X21514Y12473D01*
X21510Y12478D01*
X21505Y12484D01*
Y12489D01*
X21507Y12498D01*
X21512Y12508D01*
X21523Y12530D01*
X21529Y12541D01*
X21536Y12550D01*
X21538Y12557D01*
X21540Y12559D01*
X21566Y12592D01*
X21577Y12603D01*
X21586Y12613D01*
X21595Y12622D01*
X21601Y12629D01*
X21604Y12631D01*
X21606Y12633D01*
X21617Y12644D01*
X21630Y12655D01*
X21641Y12664D01*
X21645Y12666D01*
X21665Y12677D01*
X21678Y12686D01*
X21687Y12690D01*
X21689Y12692D01*
X21717Y12705D01*
X21739Y12712D01*
X21752Y12716D01*
X21757Y12718D01*
X21768Y12721D01*
X21781Y12723D01*
X21807Y12725D01*
X21818D01*
X21827Y12727D01*
X21833D01*
X21835D01*
X21940Y12729D01*
X21877Y12640D01*
D02*
G37*
G36*
X22393Y12563D02*
X22424Y12561D01*
X22452Y12557D01*
X22478Y12550D01*
X22498Y12546D01*
X22516Y12541D01*
X22524Y12539D01*
X22529Y12537D01*
X22557Y12526D01*
X22583Y12513D01*
X22603Y12500D01*
X22620Y12489D01*
X22636Y12478D01*
X22645Y12469D01*
X22651Y12465D01*
X22653Y12463D01*
X22660Y12434D01*
X22675Y12436D01*
X22688Y12434D01*
X22697Y12430D01*
X22699Y12428D01*
X22708Y12417D01*
X22712Y12408D01*
X22715Y12401D01*
Y12399D01*
X22712Y12390D01*
X22710Y12384D01*
X22701Y12375D01*
X22690Y12373D01*
X22688D01*
X22686D01*
X22664D01*
X22642D01*
X22634D01*
X22625D01*
X22620D01*
X22618D01*
X22596Y12375D01*
X22579D01*
X22566Y12377D01*
X22557D01*
X22553Y12379D01*
X22551D01*
X22548D01*
X22551Y12377D01*
X22555Y12369D01*
X22561Y12362D01*
X22564Y12360D01*
X22577Y12336D01*
X22588Y12316D01*
X22596Y12299D01*
X22603Y12285D01*
X22607Y12274D01*
X22612Y12266D01*
X22614Y12261D01*
Y12259D01*
X22618Y12246D01*
X22620Y12237D01*
Y12222D01*
X22616Y12213D01*
X22614Y12211D01*
X22607Y12209D01*
X22596D01*
X22583Y12211D01*
X22570Y12213D01*
X22559Y12218D01*
X22548Y12222D01*
X22542Y12224D01*
X22540Y12226D01*
X22500Y12248D01*
X22483Y12259D01*
X22467Y12270D01*
X22456Y12279D01*
X22448Y12285D01*
X22441Y12290D01*
X22439Y12292D01*
X22413Y12316D01*
X22391Y12340D01*
X22380Y12351D01*
X22373Y12358D01*
X22369Y12364D01*
X22367Y12366D01*
X22341Y12401D01*
X22317Y12434D01*
X22308Y12447D01*
X22301Y12458D01*
X22297Y12467D01*
X22295Y12469D01*
X22286Y12489D01*
X22279Y12504D01*
X22275Y12517D01*
Y12541D01*
X22277Y12546D01*
X22284Y12552D01*
X22297Y12557D01*
X22310Y12561D01*
X22325Y12563D01*
X22338D01*
X22352Y12565D01*
X22360D01*
X22362D01*
X22393Y12563D01*
D02*
G37*
G36*
X22157Y12686D02*
X22185Y12681D01*
X22198D01*
X22207Y12679D01*
X22214Y12677D01*
X22216D01*
X22233Y12673D01*
X22249Y12668D01*
X22262Y12666D01*
X22273Y12662D01*
X22279Y12659D01*
X22284Y12657D01*
X22288Y12655D01*
X22292Y12629D01*
X22297Y12635D01*
X22301Y12640D01*
X22310Y12642D01*
X22317D01*
X22319D01*
X22327Y12635D01*
X22330Y12627D01*
X22332Y12620D01*
Y12611D01*
X22327Y12607D01*
X22321Y12598D01*
X22312Y12594D01*
X22310Y12592D01*
X22308D01*
X22290Y12581D01*
X22275Y12572D01*
X22262Y12565D01*
X22260Y12563D01*
X22257D01*
X22240Y12554D01*
X22227Y12548D01*
X22218Y12543D01*
X22216Y12541D01*
X22208Y12537D01*
X22209Y12537D01*
X22214Y12533D01*
X22216Y12530D01*
X22229Y12515D01*
X22242Y12500D01*
X22253Y12489D01*
X22255Y12487D01*
X22257Y12484D01*
X22330Y12379D01*
X22273Y12373D01*
X22253D01*
X22231Y12375D01*
X22212Y12379D01*
X22192Y12386D01*
X22174Y12390D01*
X22161Y12395D01*
X22152Y12397D01*
X22148Y12399D01*
X22096Y12421D01*
X22072Y12434D01*
X22050Y12445D01*
X22032Y12456D01*
X22017Y12463D01*
X22008Y12469D01*
X22006Y12471D01*
X21973Y12491D01*
X21945Y12513D01*
X21932Y12522D01*
X21923Y12528D01*
X21916Y12533D01*
X21914Y12535D01*
X21897Y12548D01*
X21886Y12561D01*
X21877Y12570D01*
X21870Y12578D01*
X21866Y12583D01*
X21864Y12587D01*
Y12592D01*
X21866Y12600D01*
X21873Y12609D01*
X21883Y12618D01*
X21894Y12624D01*
X21903Y12631D01*
X21914Y12635D01*
X21921Y12638D01*
X21923Y12640D01*
X21967Y12655D01*
X21984Y12662D01*
X21999Y12666D01*
X22013Y12670D01*
X22021Y12673D01*
X22028Y12675D01*
X22030D01*
X22048Y12679D01*
X22063Y12683D01*
X22074Y12686D01*
X22076D01*
X22078D01*
X22098Y12688D01*
X22113D01*
X22122D01*
X22126D01*
X22157Y12686D01*
D02*
G37*
G36*
X21505Y12633D02*
X21507D01*
X21514Y12629D01*
X21516Y12620D01*
Y12589D01*
X21514Y12583D01*
X21512Y12576D01*
Y12574D01*
X21499Y12543D01*
X21490Y12513D01*
X21485Y12502D01*
X21481Y12493D01*
X21479Y12487D01*
Y12484D01*
X21475Y12467D01*
X21470Y12454D01*
X21468Y12443D01*
X21466Y12434D01*
X21464Y12430D01*
X21468D01*
X21475Y12428D01*
X21485D01*
X21496D01*
X21507D01*
X21518D01*
X21525D01*
X21527D01*
X21555D01*
X21577Y12423D01*
X21595Y12421D01*
X21608Y12417D01*
X21617Y12412D01*
X21621Y12410D01*
X21625Y12406D01*
X21628Y12397D01*
X21625Y12384D01*
X21619Y12371D01*
X21612Y12360D01*
X21604Y12347D01*
X21595Y12338D01*
X21588Y12331D01*
X21586Y12329D01*
X21566Y12314D01*
X21544Y12299D01*
X21536Y12294D01*
X21529Y12290D01*
X21525Y12285D01*
X21523D01*
X21492Y12268D01*
X21464Y12255D01*
X21453Y12250D01*
X21444Y12246D01*
X21437Y12244D01*
X21435D01*
X21402Y12231D01*
X21372Y12220D01*
X21361Y12215D01*
X21352Y12213D01*
X21345Y12211D01*
X21343D01*
X21304Y12200D01*
X21289Y12198D01*
X21273Y12194D01*
X21262Y12191D01*
X21254D01*
X21247Y12189D01*
X21245D01*
X21179Y12183D01*
X21184Y12237D01*
X21188Y12261D01*
X21195Y12283D01*
X21201Y12303D01*
X21206Y12318D01*
X21212Y12331D01*
X21214Y12342D01*
X21219Y12349D01*
Y12351D01*
X21230Y12375D01*
X21238Y12397D01*
X21249Y12419D01*
X21260Y12436D01*
X21267Y12449D01*
X21273Y12460D01*
X21278Y12467D01*
X21280Y12469D01*
X21293Y12487D01*
X21310Y12504D01*
X21326Y12522D01*
X21341Y12535D01*
X21354Y12548D01*
X21365Y12557D01*
X21372Y12563D01*
X21374Y12565D01*
X21385Y12578D01*
X21398Y12589D01*
X21426Y12609D01*
X21437Y12616D01*
X21448Y12622D01*
X21455Y12624D01*
X21457Y12627D01*
X21468Y12631D01*
X21479Y12633D01*
X21494Y12635D01*
X21505Y12633D01*
D02*
G37*
G36*
X22706Y12342D02*
X22732Y12329D01*
X22743Y12323D01*
X22752Y12318D01*
X22756Y12316D01*
X22758Y12314D01*
X22776Y12303D01*
X22789Y12294D01*
X22802Y12285D01*
X22813Y12279D01*
X22820Y12274D01*
X22826Y12270D01*
X22830Y12266D01*
X22855Y12244D01*
X22874Y12220D01*
X22883Y12209D01*
X22889Y12200D01*
X22892Y12196D01*
X22894Y12194D01*
X22905Y12178D01*
X22911Y12163D01*
X22918Y12152D01*
X22920Y12141D01*
X22922Y12135D01*
Y12124D01*
X22931Y12091D01*
X22944Y12080D01*
X22953Y12067D01*
X22957Y12056D01*
Y12043D01*
X22955Y12034D01*
X22946Y12027D01*
X22935Y12023D01*
X22933D01*
X22931D01*
X22922Y12025D01*
X22911Y12030D01*
X22900Y12034D01*
X22898Y12036D01*
X22896D01*
X22879Y12045D01*
X22861Y12054D01*
X22848Y12062D01*
X22846Y12065D01*
X22844D01*
X22828Y12073D01*
X22817Y12080D01*
X22811Y12086D01*
X22806Y12089D01*
X22800Y12093D01*
Y12089D01*
X22802Y12082D01*
Y12069D01*
X22804Y12058D01*
Y12045D01*
X22806Y12034D01*
Y11957D01*
X22804Y11940D01*
X22802Y11927D01*
X22798Y11920D01*
X22795Y11918D01*
X22785Y11916D01*
X22771Y11918D01*
X22760Y11925D01*
X22750Y11931D01*
X22741Y11940D01*
X22734Y11946D01*
X22730Y11951D01*
X22728Y11953D01*
X22706Y11984D01*
X22690Y12012D01*
X22684Y12023D01*
X22680Y12032D01*
X22677Y12036D01*
Y12038D01*
X22671Y12056D01*
X22664Y12075D01*
X22655Y12113D01*
X22651Y12128D01*
X22649Y12141D01*
X22647Y12152D01*
Y12154D01*
X22642Y12180D01*
X22640Y12202D01*
X22638Y12224D01*
Y12242D01*
X22636Y12257D01*
Y12294D01*
X22638Y12307D01*
Y12318D01*
X22640Y12325D01*
X22642Y12336D01*
Y12340D01*
X22651Y12349D01*
X22664Y12351D01*
X22675D01*
X22677D01*
X22680D01*
X22706Y12342D01*
D02*
G37*
G36*
X22312Y12185D02*
X22319Y12183D01*
X22323Y12176D01*
X22327Y12170D01*
X22330Y12167D01*
X22336Y12154D01*
X22338Y12145D01*
X22341Y12139D01*
Y12130D01*
X22336Y12126D01*
X22327Y12115D01*
X22319Y12110D01*
X22317Y12108D01*
X22314D01*
X22297Y12100D01*
X22279Y12093D01*
X22268Y12089D01*
X22266Y12086D01*
X22264D01*
X22240Y12078D01*
X22222Y12072D01*
X22225Y12071D01*
X22253Y12062D01*
X22264Y12060D01*
X22273Y12056D01*
X22279Y12054D01*
X22282D01*
X22314Y12045D01*
X22338Y12038D01*
X22349Y12036D01*
X22356Y12034D01*
X22360Y12032D01*
X22362D01*
X22373Y12027D01*
X22384Y12025D01*
X22391Y12021D01*
X22395Y12019D01*
X22400Y12016D01*
X22402Y12014D01*
X22406Y12010D01*
X22411Y12003D01*
X22415Y11999D01*
Y11997D01*
X22417Y11990D01*
X22413Y11988D01*
X22408D01*
X22406D01*
X22415Y11955D01*
X22421Y11940D01*
X22426Y11929D01*
Y11911D01*
X22419Y11905D01*
X22417Y11903D01*
X22415D01*
X22408Y11901D01*
X22402Y11898D01*
X22382Y11896D01*
X22358Y11894D01*
X22332D01*
X22308Y11892D01*
X22286D01*
X22277D01*
X22273D01*
X22268D01*
X22266D01*
X22227D01*
X22209D01*
X22194D01*
X22179Y11894D01*
X22168D01*
X22161D01*
X22159D01*
X22142Y11896D01*
X22126D01*
X22113Y11901D01*
X22104Y11903D01*
X22098Y11905D01*
X22093Y11907D01*
X22091Y11909D01*
X22087Y11922D01*
X22085Y11927D01*
Y11929D01*
X22083Y11935D01*
Y11940D01*
X22080Y11944D01*
X22074Y11997D01*
X22155D01*
X22148Y11999D01*
X22124Y12005D01*
X22107Y12012D01*
X22089Y12019D01*
X22078Y12025D01*
X22069Y12027D01*
X22065Y12032D01*
X22063D01*
X22052Y12038D01*
X22043Y12047D01*
X22037Y12056D01*
X22032Y12062D01*
X22026Y12075D01*
Y12082D01*
X22028Y12089D01*
X22030Y12095D01*
X22043Y12108D01*
X22054Y12117D01*
X22056Y12119D01*
X22058D01*
X22085Y12130D01*
X22100Y12136D01*
X21993Y12137D01*
X21969Y12174D01*
X21962Y12183D01*
X21956Y12191D01*
X21953Y12198D01*
X21951Y12200D01*
X21947Y12207D01*
X21945Y12213D01*
Y12220D01*
X21947Y12229D01*
X21953Y12235D01*
X21962Y12239D01*
X21973Y12244D01*
X21982Y12246D01*
X21991Y12248D01*
X21997D01*
X21999D01*
X22041Y12250D01*
X22061D01*
X22078D01*
X22093D01*
X22104D01*
X22113D01*
X22115D01*
X22271D01*
X22312Y12185D01*
D02*
G37*
G36*
X22865Y12036D02*
X22874Y12032D01*
X22894Y12021D01*
X22903Y12014D01*
X22911Y12008D01*
X22916Y12005D01*
X22918Y12003D01*
X22949Y11977D01*
X22970Y11957D01*
X22979Y11951D01*
X22986Y11944D01*
X22988Y11942D01*
X22990Y11940D01*
X23008Y11918D01*
X23021Y11896D01*
X23025Y11887D01*
X23029Y11881D01*
X23032Y11876D01*
Y11874D01*
X23038Y11861D01*
X23040Y11848D01*
Y11828D01*
X23038Y11815D01*
X23036Y11811D01*
X23047Y11776D01*
X23056Y11761D01*
X23060Y11745D01*
Y11717D01*
X23056Y11710D01*
X23047Y11701D01*
X23038Y11697D01*
X23036D01*
X23034D01*
X23025Y11699D01*
X23014Y11701D01*
X22990Y11712D01*
X22979Y11719D01*
X22970Y11723D01*
X22964Y11726D01*
X22962Y11728D01*
X22944Y11739D01*
X22931Y11747D01*
X22920Y11754D01*
X22911Y11761D01*
X22905Y11765D01*
X22900Y11769D01*
X22898Y11771D01*
X22887Y11782D01*
X22879Y11793D01*
X22872Y11800D01*
X22870Y11804D01*
X22863Y11817D01*
X22859Y11828D01*
X22855Y11835D01*
Y11837D01*
X22850Y11850D01*
X22846Y11868D01*
X22839Y11905D01*
X22837Y11925D01*
X22835Y11940D01*
X22833Y11949D01*
Y11981D01*
X22835Y12003D01*
X22839Y12016D01*
X22844Y12027D01*
X22848Y12034D01*
X22855Y12036D01*
X22857Y12038D01*
X22859D01*
X22865Y12036D01*
D02*
G37*
G36*
X22450Y11791D02*
X22461Y11758D01*
X22470Y11732D01*
X22474Y11712D01*
X22478Y11695D01*
X22481Y11682D01*
X22483Y11671D01*
Y11660D01*
X22481Y11651D01*
X22474Y11645D01*
X22459Y11636D01*
X22443Y11634D01*
X22439D01*
X22437D01*
X22391D01*
X22376Y11710D01*
X22367Y11752D01*
X22266Y11754D01*
X22242D01*
X22222D01*
X22205Y11756D01*
X22190D01*
X22177D01*
X22168Y11758D01*
X22163D01*
X22161D01*
X22148Y11761D01*
X22139Y11763D01*
X22133Y11767D01*
X22126Y11771D01*
X22122Y11778D01*
X22120Y11782D01*
Y11791D01*
X22117Y11796D01*
Y11798D01*
X22115Y11809D01*
X22113Y11813D01*
Y11815D01*
X22107Y11868D01*
X22459D01*
X22450Y11791D01*
D02*
G37*
G36*
X21149Y12395D02*
X21160Y12406D01*
X21171Y12412D01*
X21177Y12414D01*
X21184Y12417D01*
X21188Y12414D01*
X21190Y12412D01*
X21192Y12406D01*
Y12397D01*
X21188Y12377D01*
X21184Y12369D01*
X21181Y12362D01*
X21179Y12358D01*
Y12355D01*
X21171Y12323D01*
X21164Y12290D01*
X21162Y12277D01*
X21160Y12266D01*
X21157Y12257D01*
Y12255D01*
X21155Y12229D01*
X21153Y12200D01*
X21151Y12172D01*
X21149Y12143D01*
Y12117D01*
X21146Y12097D01*
Y12078D01*
X21144Y12043D01*
Y12012D01*
X21142Y11988D01*
X21140Y11968D01*
Y11953D01*
X21138Y11944D01*
Y11935D01*
X21133Y11905D01*
X21127Y11881D01*
X21122Y11870D01*
X21120Y11863D01*
X21118Y11859D01*
Y11857D01*
X21103Y11813D01*
X21094Y11791D01*
X21085Y11771D01*
X21079Y11754D01*
X21072Y11741D01*
X21068Y11732D01*
X21066Y11730D01*
X21041Y11680D01*
X21028Y11656D01*
X21017Y11636D01*
X21009Y11618D01*
X21000Y11605D01*
X20996Y11597D01*
X20993Y11594D01*
X20978Y11568D01*
X20965Y11548D01*
X20958Y11537D01*
X20956Y11533D01*
X20952Y11524D01*
X20950Y11520D01*
X20945Y11511D01*
X20943Y11509D01*
X20945Y11507D01*
X20950Y11500D01*
X20954Y11492D01*
X20956Y11487D01*
X20967Y11467D01*
X20978Y11448D01*
X20987Y11435D01*
X20989Y11432D01*
Y11430D01*
X21020Y11378D01*
X21033Y11354D01*
X21044Y11334D01*
X21052Y11317D01*
X21059Y11301D01*
X21063Y11293D01*
X21066Y11290D01*
X21087Y11242D01*
X21098Y11220D01*
X21105Y11201D01*
X21111Y11183D01*
X21116Y11172D01*
X21120Y11163D01*
Y11161D01*
X21129Y11135D01*
X21133Y11111D01*
X21136Y11102D01*
X21138Y11093D01*
Y11087D01*
X21140Y11069D01*
X21142Y11048D01*
X21144Y10999D01*
Y10980D01*
X21146Y10960D01*
Y10945D01*
X21149Y10903D01*
X21151Y10868D01*
Y10838D01*
X21153Y10811D01*
X21155Y10792D01*
X21157Y10779D01*
Y10768D01*
X21162Y10746D01*
X21164Y10726D01*
X21168Y10709D01*
X21173Y10695D01*
X21175Y10685D01*
X21177Y10676D01*
X21179Y10671D01*
Y10669D01*
X21186Y10654D01*
X21188Y10641D01*
X21190Y10632D01*
Y10615D01*
X21188Y10606D01*
X21186Y10601D01*
X21184Y10599D01*
X21177Y10597D01*
X21166Y10601D01*
X21155Y10606D01*
X21142Y10612D01*
X21131Y10619D01*
X21122Y10625D01*
X21116Y10630D01*
X21114Y10632D01*
X21079Y10660D01*
X21063Y10674D01*
X21052Y10685D01*
X21041Y10695D01*
X21035Y10702D01*
X21031Y10706D01*
X21028Y10709D01*
X21004Y10737D01*
X20985Y10765D01*
X20978Y10779D01*
X20972Y10790D01*
X20969Y10796D01*
X20967Y10798D01*
X20950Y10835D01*
X20943Y10853D01*
X20937Y10868D01*
X20932Y10881D01*
X20930Y10890D01*
X20928Y10897D01*
Y10899D01*
X20926Y10910D01*
X20921Y10921D01*
X20917Y10947D01*
X20915Y10958D01*
Y10967D01*
X20912Y10973D01*
Y10975D01*
X20910Y11015D01*
X20908Y11034D01*
X20906Y11050D01*
Y11065D01*
X20904Y11076D01*
Y11087D01*
X20902Y11126D01*
Y11144D01*
X20899Y11161D01*
Y11174D01*
X20897Y11188D01*
Y11216D01*
X20895Y11233D01*
Y11258D01*
X20893Y11264D01*
Y11275D01*
X20888Y11308D01*
X20882Y11338D01*
X20880Y11349D01*
X20877Y11360D01*
X20875Y11367D01*
Y11369D01*
X20871Y11387D01*
X20869Y11400D01*
X20868Y11401D01*
X20867Y11395D01*
X20862Y11384D01*
X20853Y11365D01*
X20849Y11356D01*
X20845Y11349D01*
X20842Y11345D01*
X20840Y11343D01*
X20829Y11325D01*
X20816Y11308D01*
X20807Y11295D01*
X20805Y11293D01*
X20803Y11290D01*
X20794Y11282D01*
X20786Y11275D01*
X20777Y11273D01*
X20770D01*
X20759D01*
X20757Y11275D01*
X20755D01*
X20753Y11282D01*
X20751Y11288D01*
X20748Y11295D01*
Y11297D01*
X20744Y11308D01*
X20740Y11317D01*
X20738Y11325D01*
X20735Y11328D01*
X20720Y11380D01*
X20762Y11428D01*
X20768Y11437D01*
X20777Y11448D01*
X20783Y11454D01*
X20786Y11459D01*
X20797Y11472D01*
X20803Y11481D01*
X20807Y11489D01*
X20810Y11492D01*
X20829Y11509D01*
X20810Y11531D01*
X20803Y11542D01*
X20794Y11553D01*
X20788Y11559D01*
X20786Y11564D01*
X20777Y11575D01*
X20768Y11583D01*
X20766Y11588D01*
X20764Y11590D01*
X20720Y11640D01*
X20738Y11704D01*
X20742Y11712D01*
X20746Y11721D01*
X20751Y11730D01*
X20753Y11734D01*
X20762Y11745D01*
X20770Y11752D01*
X20777Y11754D01*
X20779D01*
X20786Y11752D01*
X20790Y11750D01*
X20801Y11741D01*
X20810Y11732D01*
X20812Y11728D01*
X20825Y11708D01*
X20834Y11693D01*
X20840Y11684D01*
X20842Y11680D01*
X20849Y11664D01*
X20856Y11653D01*
X20860Y11642D01*
X20864Y11636D01*
X20871Y11625D01*
X20873Y11623D01*
Y11627D01*
X20875Y11636D01*
Y11645D01*
X20877Y11649D01*
Y11651D01*
X20884Y11684D01*
X20888Y11715D01*
X20891Y11726D01*
X20893Y11734D01*
Y11754D01*
X20895Y11765D01*
Y11793D01*
X20897Y11804D01*
Y11824D01*
X20899Y11866D01*
X20902Y11885D01*
Y11901D01*
X20904Y11916D01*
Y11935D01*
X20908Y11992D01*
X20915Y12040D01*
X20921Y12082D01*
X20928Y12117D01*
X20934Y12143D01*
X20941Y12163D01*
X20943Y12174D01*
X20945Y12178D01*
X20958Y12209D01*
X20976Y12237D01*
X20993Y12266D01*
X21013Y12290D01*
X21031Y12312D01*
X21044Y12327D01*
X21052Y12338D01*
X21057Y12342D01*
X21074Y12358D01*
X21090Y12371D01*
X21101Y12382D01*
X21103Y12384D01*
X21105Y12386D01*
X21125Y12401D01*
X21140Y12412D01*
X21151Y12417D01*
X21155Y12419D01*
X21149Y12395D01*
D02*
G37*
G36*
X21652Y12264D02*
X21687D01*
X21700D01*
X21713D01*
X21724D01*
X21733D01*
X21737D01*
X21739D01*
X21752D01*
X21763Y12261D01*
X21770D01*
X21774D01*
X21776Y12259D01*
X21783Y12233D01*
X21792Y12235D01*
X21796Y12233D01*
X21800Y12231D01*
Y12222D01*
X21794Y12207D01*
X21783Y12191D01*
X21776Y12178D01*
X21772Y12176D01*
Y12174D01*
X21757Y12154D01*
X21744Y12132D01*
X21730Y12113D01*
X21719Y12091D01*
X21711Y12073D01*
X21704Y12060D01*
X21700Y12051D01*
X21698Y12047D01*
X21687Y12016D01*
X21674Y11984D01*
X21665Y11953D01*
X21654Y11922D01*
X21647Y11898D01*
X21641Y11876D01*
X21639Y11863D01*
X21636Y11861D01*
Y11859D01*
X21632Y11835D01*
X21625Y11806D01*
X21621Y11780D01*
X21617Y11756D01*
X21614Y11732D01*
X21612Y11715D01*
X21610Y11704D01*
Y11699D01*
X21606Y11662D01*
X21604Y11627D01*
X21601Y11594D01*
Y11564D01*
X21599Y11540D01*
Y11519D01*
X21586Y11509D01*
X21599Y11498D01*
X21601Y11465D01*
Y11428D01*
X21604Y11395D01*
X21606Y11367D01*
X21608Y11341D01*
X21610Y11323D01*
X21612Y11310D01*
Y11306D01*
X21617Y11268D01*
X21621Y11236D01*
X21628Y11207D01*
X21632Y11181D01*
X21639Y11161D01*
X21641Y11146D01*
X21645Y11135D01*
Y11133D01*
X21654Y11102D01*
X21663Y11072D01*
X21671Y11043D01*
X21680Y11019D01*
X21689Y10999D01*
X21695Y10984D01*
X21698Y10975D01*
X21700Y10971D01*
X21713Y10943D01*
X21726Y10919D01*
X21737Y10899D01*
X21748Y10879D01*
X21754Y10866D01*
X21761Y10855D01*
X21765Y10849D01*
X21768Y10846D01*
X21776Y10835D01*
X21781Y10825D01*
X21785Y10818D01*
X21787Y10816D01*
X21792Y10805D01*
X21796Y10794D01*
Y10787D01*
X21794Y10779D01*
X21787Y10772D01*
X21776Y10765D01*
X21768Y10761D01*
X21757Y10759D01*
X21746Y10757D01*
X21739D01*
X21737D01*
X21706Y10755D01*
X21678D01*
X21667D01*
X21658D01*
X21652D01*
X21649D01*
X21614D01*
X21599D01*
X21586D01*
X21575Y10757D01*
X21566D01*
X21562D01*
X21560D01*
X21542Y10759D01*
X21529Y10761D01*
X21518D01*
X21510Y10763D01*
X21505Y10765D01*
X21501D01*
X21499Y10768D01*
X21492Y10774D01*
X21485Y10787D01*
X21477Y10800D01*
X21470Y10816D01*
X21461Y10829D01*
X21457Y10842D01*
X21453Y10851D01*
X21450Y10853D01*
X21440Y10877D01*
X21431Y10897D01*
X21426Y10910D01*
X21422Y10921D01*
X21420Y10929D01*
X21418Y10934D01*
Y10938D01*
X21422Y10951D01*
X21429Y10960D01*
X21435Y10964D01*
X21440D01*
X21455D01*
X21468D01*
X21477D01*
X21479D01*
X21485D01*
Y10967D01*
X21481Y10982D01*
X21477Y10999D01*
X21472Y11015D01*
X21470Y11019D01*
Y11021D01*
X21453Y11080D01*
X21431D01*
X21420D01*
X21407D01*
X21396Y11083D01*
X21394D01*
X21391D01*
X21383Y11085D01*
X21378Y11087D01*
X21370Y11096D01*
X21367Y11102D01*
Y11111D01*
X21365Y11118D01*
X21363Y11124D01*
Y11128D01*
X21361Y11144D01*
X21359Y11155D01*
X21356Y11163D01*
Y11168D01*
X21352Y11194D01*
X21348Y11216D01*
X21345Y11233D01*
Y11268D01*
X21350Y11275D01*
X21359Y11282D01*
X21378Y11288D01*
X21387D01*
X21396Y11290D01*
X21402D01*
X21405D01*
X21420D01*
X21413Y11332D01*
X21411Y11354D01*
Y11371D01*
X21409Y11384D01*
Y11393D01*
X21407Y11400D01*
Y11404D01*
X21402Y11406D01*
X21396D01*
X21389D01*
X21387D01*
X21328D01*
Y11616D01*
X21387D01*
X21394D01*
X21398D01*
X21402D01*
X21407Y11614D01*
Y11631D01*
X21409Y11649D01*
X21411Y11664D01*
X21413Y11677D01*
Y11684D01*
X21420Y11730D01*
X21405D01*
X21389D01*
X21376Y11732D01*
X21367Y11734D01*
X21363Y11736D01*
X21356Y11741D01*
X21352Y11745D01*
X21348Y11758D01*
Y11776D01*
X21350Y11780D01*
X21352Y11789D01*
X21354Y11798D01*
Y11802D01*
X21359Y11820D01*
X21361Y11835D01*
X21365Y11846D01*
Y11850D01*
X21385Y11940D01*
X21461D01*
X21479Y11995D01*
X21485Y12016D01*
X21492Y12032D01*
X21494Y12043D01*
X21496Y12047D01*
X21497Y12050D01*
X21496Y12049D01*
X21490D01*
X21488D01*
X21470Y12051D01*
X21457Y12054D01*
X21448Y12058D01*
X21446Y12060D01*
X21442Y12065D01*
X21440Y12071D01*
X21435Y12084D01*
Y12102D01*
X21442Y12121D01*
X21450Y12143D01*
X21453Y12152D01*
X21457Y12161D01*
X21459Y12165D01*
Y12167D01*
X21472Y12196D01*
X21485Y12215D01*
X21494Y12229D01*
X21496Y12231D01*
Y12233D01*
X21520Y12266D01*
X21652Y12264D01*
D02*
G37*
G36*
X23040Y11321D02*
X23047Y11319D01*
X23054Y11308D01*
X23058Y11293D01*
X23060Y11273D01*
X23058Y11255D01*
X23056Y11240D01*
X23054Y11229D01*
Y11225D01*
X23045Y11190D01*
X23036Y11161D01*
X23027Y11137D01*
X23021Y11120D01*
X23014Y11107D01*
X23008Y11098D01*
X23005Y11093D01*
X23003Y11091D01*
X22994Y11083D01*
X22984Y11074D01*
X22959Y11052D01*
X22949Y11043D01*
X22938Y11034D01*
X22931Y11030D01*
X22929Y11028D01*
X22911Y11013D01*
X22896Y11002D01*
X22883Y10993D01*
X22874Y10989D01*
X22868Y10984D01*
X22863Y10982D01*
X22861D01*
X22850Y10986D01*
X22841Y10995D01*
X22837Y11010D01*
X22835Y11026D01*
X22833Y11041D01*
Y11069D01*
X22835Y11098D01*
X22839Y11124D01*
X22844Y11144D01*
X22846Y11159D01*
X22850Y11170D01*
X22852Y11177D01*
X22855Y11181D01*
Y11183D01*
X22859Y11194D01*
X22863Y11207D01*
X22868Y11214D01*
X22870Y11218D01*
X22879Y11229D01*
X22885Y11238D01*
X22889Y11242D01*
X22892Y11244D01*
X22900Y11253D01*
X22911Y11260D01*
X22933Y11277D01*
X22944Y11284D01*
X22953Y11290D01*
X22959Y11293D01*
X22962Y11295D01*
X22979Y11303D01*
X22994Y11310D01*
X23008Y11317D01*
X23019Y11319D01*
X23025Y11321D01*
X23029Y11323D01*
X23034D01*
X23040Y11321D01*
D02*
G37*
G36*
X22448Y11363D02*
X22452D01*
X22454D01*
X22459Y11360D01*
X22467Y11330D01*
X22472Y11332D01*
X22476Y11330D01*
X22478Y11323D01*
Y11310D01*
X22476Y11286D01*
X22472Y11262D01*
X22470Y11251D01*
X22467Y11242D01*
X22465Y11236D01*
Y11233D01*
X22461Y11209D01*
X22454Y11185D01*
X22452Y11177D01*
Y11168D01*
X22450Y11163D01*
Y11161D01*
X22448Y11146D01*
X22443Y11135D01*
X22441Y11126D01*
Y11118D01*
X22437Y11109D01*
Y11107D01*
X22435Y11091D01*
X22432Y11080D01*
X22428Y11072D01*
X22426Y11063D01*
X22421Y11054D01*
X22419Y11052D01*
X22411Y11045D01*
X22415D01*
X22404Y10993D01*
X22397Y10978D01*
X22391Y10964D01*
X22384Y10956D01*
X22380Y10949D01*
X22371Y10940D01*
X22369Y10938D01*
X22362Y10934D01*
X22352Y10932D01*
X22330D01*
X22321D01*
X22312D01*
X22306D01*
X22303D01*
X22290D01*
X22279D01*
X22271D01*
X22266D01*
X22260D01*
X22257D01*
X22251Y10923D01*
X22249Y10921D01*
Y10919D01*
X22247Y10908D01*
Y10901D01*
X22249Y10899D01*
Y10897D01*
X22255Y10892D01*
X22266Y10890D01*
X22273Y10888D01*
X22277D01*
X22286Y10886D01*
X22295D01*
X22301Y10884D01*
X22303D01*
X22312Y10879D01*
X22321Y10875D01*
X22327Y10870D01*
X22330Y10868D01*
X22327Y10855D01*
X22325Y10846D01*
X22323Y10840D01*
X22321Y10838D01*
X22317Y10827D01*
X22310Y10818D01*
X22308Y10811D01*
X22306Y10809D01*
X22277Y10772D01*
X21969D01*
Y10822D01*
X21971Y10835D01*
X21973Y10851D01*
X21982Y10884D01*
X21986Y10899D01*
X21988Y10912D01*
X21993Y10921D01*
Y10923D01*
X22002Y10947D01*
X22010Y10969D01*
X22017Y10986D01*
X22023Y10999D01*
X22030Y11013D01*
X22032Y11019D01*
X22037Y11024D01*
Y11026D01*
X22045Y11039D01*
X22054Y11050D01*
X22061Y11054D01*
X22063Y11056D01*
X22076Y11061D01*
X22091Y11063D01*
X22102D01*
X22104D01*
X22107D01*
X22161D01*
X22117Y10951D01*
X22111Y10936D01*
X22104Y10923D01*
X22100Y10912D01*
X22096Y10905D01*
X22093Y10901D01*
Y10899D01*
X22091Y10897D01*
X22089Y10892D01*
X22087Y10890D01*
X22085D01*
X22100Y10886D01*
X22107D01*
X22109D01*
X22117Y10884D01*
X22126D01*
X22133D01*
X22135D01*
X22142D01*
X22137Y10888D01*
X22135Y10912D01*
X22137Y10934D01*
X22139Y10943D01*
X22142Y10949D01*
X22144Y10954D01*
Y10956D01*
X22155Y10980D01*
X22168Y10997D01*
X22179Y11010D01*
X22183Y11013D01*
Y11015D01*
X22203Y11030D01*
X22216Y11039D01*
X22227Y11041D01*
X22229Y11043D01*
X22238D01*
X22249Y11045D01*
X22277D01*
X22288D01*
X22299D01*
X22308D01*
X22310D01*
X22326D01*
X22332Y11098D01*
X22334Y11109D01*
Y11118D01*
X22336Y11124D01*
Y11126D01*
X22338Y11135D01*
Y11142D01*
X22249Y11144D01*
X22216D01*
X22187D01*
X22177Y11146D01*
X22168D01*
X22163D01*
X22161D01*
X22148Y11148D01*
X22135Y11150D01*
X22126Y11155D01*
X22120Y11157D01*
X22111Y11166D01*
X22109Y11168D01*
Y11181D01*
X22111Y11192D01*
Y11201D01*
X22113Y11207D01*
Y11209D01*
X22122Y11255D01*
X22264Y11260D01*
X22367Y11262D01*
X22376Y11299D01*
X22380Y11321D01*
X22386Y11336D01*
X22389Y11347D01*
X22391Y11349D01*
X22402Y11358D01*
X22415Y11363D01*
X22426Y11365D01*
X22428D01*
X22430D01*
X22439D01*
X22448Y11363D01*
D02*
G37*
G36*
X21881Y12248D02*
X21892Y12242D01*
X21899Y12237D01*
X21901Y12235D01*
X21903Y12226D01*
X21908Y12218D01*
X21912Y12194D01*
X21914Y12183D01*
X21916Y12174D01*
Y12165D01*
X21925Y12110D01*
X21932Y12086D01*
X21936Y12065D01*
X21940Y12045D01*
X21945Y12030D01*
X21947Y12021D01*
Y12016D01*
X21958Y11979D01*
X21962Y11962D01*
X21969Y11946D01*
X21973Y11933D01*
X21978Y11922D01*
X21980Y11916D01*
Y11914D01*
X21997Y11876D01*
X22004Y11861D01*
X22013Y11846D01*
X22019Y11835D01*
X22023Y11826D01*
X22026Y11822D01*
X22028Y11820D01*
X22045Y11791D01*
X22063Y11767D01*
X22072Y11758D01*
X22078Y11752D01*
X22080Y11747D01*
X22083Y11745D01*
X22109Y11723D01*
X22135Y11706D01*
X22146Y11699D01*
X22155Y11693D01*
X22161Y11691D01*
X22163Y11688D01*
X22207Y11667D01*
X22229Y11660D01*
X22249Y11651D01*
X22266Y11647D01*
X22279Y11642D01*
X22290Y11638D01*
X22292D01*
X22321Y11631D01*
X22349Y11625D01*
X22378Y11618D01*
X22404Y11614D01*
X22426Y11610D01*
X22446Y11607D01*
X22456Y11605D01*
X22461D01*
X22498Y11601D01*
X22533Y11597D01*
X22570Y11594D01*
X22603Y11592D01*
X22631Y11590D01*
X22653Y11588D01*
X22662D01*
X22669D01*
X22671D01*
X22673D01*
X22708Y11586D01*
X22741D01*
X22754Y11583D01*
X22765D01*
X22771D01*
X22774D01*
X22793Y11581D01*
X22811D01*
X22824Y11579D01*
X22837D01*
X22846Y11577D01*
X22852D01*
X22855D01*
X22857D01*
X22859Y11553D01*
X22953Y11572D01*
X22944Y11443D01*
X22721Y11432D01*
X22693Y11430D01*
X22666Y11428D01*
X22642D01*
X22620Y11426D01*
X22603D01*
X22590Y11424D01*
X22581D01*
X22579D01*
X22535Y11419D01*
X22516D01*
X22498Y11417D01*
X22483Y11415D01*
X22472Y11413D01*
X22465D01*
X22463D01*
X22426Y11408D01*
X22408Y11406D01*
X22395Y11404D01*
X22384Y11402D01*
X22376Y11400D01*
X22371D01*
X22369D01*
X22341Y11393D01*
X22319Y11387D01*
X22310Y11384D01*
X22303D01*
X22299Y11382D01*
X22297D01*
X22266Y11373D01*
X22236Y11363D01*
X22209Y11352D01*
X22187Y11341D01*
X22170Y11332D01*
X22155Y11323D01*
X22146Y11319D01*
X22144Y11317D01*
X22104Y11288D01*
X22089Y11275D01*
X22074Y11260D01*
X22063Y11249D01*
X22054Y11238D01*
X22048Y11231D01*
X22045Y11229D01*
X22030Y11207D01*
X22017Y11183D01*
X22006Y11161D01*
X21995Y11139D01*
X21986Y11120D01*
X21980Y11104D01*
X21978Y11096D01*
X21975Y11091D01*
X21964Y11059D01*
X21956Y11026D01*
X21947Y10993D01*
X21938Y10964D01*
X21934Y10938D01*
X21929Y10916D01*
X21925Y10903D01*
Y10899D01*
X21921Y10873D01*
X21916Y10853D01*
Y10844D01*
X21914Y10838D01*
Y10833D01*
X21912Y10822D01*
Y10816D01*
X21910Y10807D01*
Y10803D01*
X21908Y10790D01*
X21901Y10783D01*
X21894Y10779D01*
X21892D01*
X21881Y10774D01*
X21873Y10772D01*
X21866D01*
X21864D01*
X21818D01*
X21811Y10995D01*
X21809Y11056D01*
Y11109D01*
X21807Y11131D01*
Y11332D01*
X21805Y11338D01*
Y11343D01*
X21800Y11352D01*
X21798Y11354D01*
X21796D01*
X21785Y11363D01*
X21770Y11371D01*
X21759Y11378D01*
X21757Y11382D01*
X21754D01*
X21733Y11397D01*
X21709Y11411D01*
X21700Y11417D01*
X21691Y11424D01*
X21687Y11426D01*
X21684Y11428D01*
X21599Y11498D01*
X21599Y11502D01*
Y11519D01*
X21711Y11605D01*
X21805Y11671D01*
X21811Y11942D01*
X21818Y12250D01*
X21864D01*
X21881Y12248D01*
D02*
G37*
G36*
X22798Y11100D02*
X22802Y11096D01*
X22804Y11083D01*
X22806Y11069D01*
Y10978D01*
X22804Y10960D01*
Y10938D01*
X22802Y10934D01*
Y10929D01*
X22804D01*
X22809Y10934D01*
X22815Y10938D01*
X22822Y10943D01*
X22837Y10954D01*
X22841Y10956D01*
X22844Y10958D01*
X22863Y10969D01*
X22881Y10978D01*
X22892Y10984D01*
X22896Y10986D01*
X22914Y10993D01*
X22924Y10995D01*
X22931Y10997D01*
X22933D01*
X22942Y10995D01*
X22949Y10991D01*
X22953Y10984D01*
X22955Y10975D01*
Y10962D01*
X22953Y10958D01*
Y10956D01*
X22944Y10925D01*
X22935Y10897D01*
X22929Y10886D01*
X22927Y10877D01*
X22922Y10873D01*
Y10870D01*
X22909Y10849D01*
X22894Y10827D01*
X22879Y10807D01*
X22861Y10790D01*
X22846Y10774D01*
X22833Y10763D01*
X22824Y10755D01*
X22822Y10752D01*
X22795Y10730D01*
X22769Y10713D01*
X22745Y10700D01*
X22725Y10687D01*
X22706Y10680D01*
X22693Y10674D01*
X22684Y10669D01*
X22680D01*
X22662D01*
X22651Y10674D01*
X22645Y10680D01*
X22642Y10682D01*
X22640Y10691D01*
X22638Y10700D01*
X22636Y10722D01*
Y10770D01*
X22638Y10792D01*
X22640Y10814D01*
X22645Y10835D01*
X22647Y10853D01*
X22649Y10868D01*
X22651Y10877D01*
Y10881D01*
X22658Y10910D01*
X22664Y10934D01*
X22671Y10956D01*
X22677Y10975D01*
X22682Y10991D01*
X22686Y11002D01*
X22690Y11008D01*
Y11010D01*
X22695Y11019D01*
X22701Y11030D01*
X22717Y11052D01*
X22723Y11061D01*
X22728Y11067D01*
X22732Y11072D01*
X22734Y11074D01*
X22747Y11087D01*
X22758Y11096D01*
X22769Y11100D01*
X22778Y11104D01*
X22789D01*
X22793D01*
X22798Y11100D01*
D02*
G37*
G36*
X22614Y10811D02*
X22618Y10805D01*
X22620Y10798D01*
Y10781D01*
X22616Y10768D01*
X22614Y10765D01*
Y10763D01*
X22601Y10735D01*
X22588Y10704D01*
X22581Y10691D01*
X22575Y10680D01*
X22572Y10674D01*
X22570Y10671D01*
X22561Y10660D01*
X22557Y10654D01*
X22553Y10650D01*
X22551Y10645D01*
X22548Y10643D01*
X22553D01*
X22561D01*
X22572D01*
X22586D01*
X22601Y10645D01*
X22612D01*
X22620D01*
X22623D01*
Y10621D01*
X22719Y10650D01*
X22669Y10566D01*
X22638Y10540D01*
X22610Y10523D01*
X22596Y10514D01*
X22588Y10510D01*
X22581Y10505D01*
X22579D01*
X22542Y10488D01*
X22524Y10481D01*
X22509Y10477D01*
X22496Y10472D01*
X22485Y10470D01*
X22478Y10468D01*
X22476D01*
X22435Y10461D01*
X22413Y10459D01*
X22395Y10457D01*
X22378D01*
X22365Y10455D01*
X22354D01*
X22352D01*
X22327D01*
X22310Y10457D01*
X22295Y10459D01*
X22286Y10464D01*
X22277Y10466D01*
X22273Y10470D01*
X22271Y10472D01*
X22268Y10481D01*
Y10492D01*
X22273Y10512D01*
X22275Y10521D01*
X22279Y10527D01*
X22282Y10531D01*
Y10534D01*
X22297Y10558D01*
X22312Y10580D01*
X22317Y10590D01*
X22323Y10597D01*
X22325Y10601D01*
X22327Y10604D01*
X22349Y10630D01*
X22367Y10650D01*
X22380Y10663D01*
X22382Y10665D01*
X22384Y10667D01*
X22397Y10685D01*
X22411Y10698D01*
X22421Y10711D01*
X22430Y10722D01*
X22439Y10728D01*
X22446Y10735D01*
X22448Y10737D01*
X22450Y10739D01*
X22478Y10761D01*
X22509Y10779D01*
X22522Y10785D01*
X22533Y10792D01*
X22540Y10794D01*
X22542Y10796D01*
X22561Y10805D01*
X22577Y10809D01*
X22590Y10811D01*
X22599Y10814D01*
X22605D01*
X22612D01*
X22614Y10811D01*
D02*
G37*
G36*
X21247Y10833D02*
X21280Y10827D01*
X21313Y10818D01*
X21326Y10816D01*
X21337Y10811D01*
X21343Y10809D01*
X21345D01*
X21378Y10798D01*
X21407Y10790D01*
X21420Y10785D01*
X21429Y10781D01*
X21433Y10779D01*
X21435D01*
X21468Y10763D01*
X21496Y10750D01*
X21507Y10744D01*
X21516Y10739D01*
X21520Y10735D01*
X21523D01*
X21536Y10726D01*
X21547Y10720D01*
X21564Y10706D01*
X21573Y10698D01*
X21575Y10695D01*
X21582Y10669D01*
X21601Y10658D01*
X21614Y10647D01*
X21621Y10636D01*
X21625Y10630D01*
X21628Y10623D01*
Y10619D01*
X21625Y10615D01*
X21617Y10608D01*
X21604Y10601D01*
X21588Y10597D01*
X21571Y10595D01*
X21553Y10593D01*
X21540D01*
X21531D01*
X21527D01*
X21505D01*
X21490D01*
X21479D01*
X21472D01*
X21468D01*
X21464D01*
Y10590D01*
X21466Y10584D01*
X21472Y10564D01*
X21475Y10553D01*
X21477Y10545D01*
X21479Y10540D01*
Y10538D01*
X21490Y10503D01*
X21494Y10490D01*
X21499Y10479D01*
X21503Y10470D01*
X21505Y10464D01*
X21507Y10459D01*
Y10457D01*
X21514Y10437D01*
X21516Y10420D01*
Y10409D01*
X21514Y10400D01*
X21512Y10394D01*
X21510Y10391D01*
X21507Y10389D01*
X21492Y10387D01*
X21477D01*
X21464Y10391D01*
X21461Y10394D01*
X21459D01*
X21440Y10405D01*
X21422Y10416D01*
X21407Y10426D01*
X21396Y10435D01*
X21387Y10444D01*
X21378Y10448D01*
X21376Y10453D01*
X21374Y10455D01*
X21352Y10472D01*
X21335Y10490D01*
X21319Y10507D01*
X21304Y10523D01*
X21295Y10536D01*
X21286Y10545D01*
X21282Y10551D01*
X21280Y10553D01*
X21256Y10590D01*
X21247Y10608D01*
X21238Y10625D01*
X21232Y10639D01*
X21225Y10650D01*
X21223Y10658D01*
X21221Y10660D01*
X21206Y10704D01*
X21199Y10724D01*
X21195Y10741D01*
X21190Y10757D01*
X21188Y10768D01*
X21186Y10776D01*
Y10779D01*
X21179Y10838D01*
X21247Y10833D01*
D02*
G37*
G36*
X22330Y10641D02*
X22257Y10538D01*
X22240Y10518D01*
X22227Y10503D01*
X22218Y10494D01*
X22216Y10492D01*
X22212Y10488D01*
X22209Y10483D01*
X22216Y10481D01*
X22218Y10479D01*
X22231Y10470D01*
X22242Y10466D01*
X22249Y10461D01*
X22251Y10459D01*
X22255Y10433D01*
X22338Y10405D01*
X22299Y10370D01*
X22288Y10365D01*
X22277Y10361D01*
X22249Y10352D01*
X22238Y10350D01*
X22227Y10348D01*
X22220Y10346D01*
X22218D01*
X22181Y10337D01*
X22166Y10335D01*
X22152D01*
X22142Y10332D01*
X22133D01*
X22128D01*
X22126D01*
X22113D01*
X22098Y10335D01*
X22085Y10337D01*
X22083D01*
X22080D01*
X22061Y10339D01*
X22045Y10343D01*
X22034Y10346D01*
X22030D01*
X21995Y10356D01*
X21960Y10367D01*
X21945Y10372D01*
X21934Y10376D01*
X21925Y10378D01*
X21923Y10381D01*
X21903Y10389D01*
X21888Y10398D01*
X21879Y10407D01*
X21870Y10413D01*
X21866Y10420D01*
X21864Y10424D01*
Y10429D01*
X21866Y10435D01*
X21873Y10444D01*
X21879Y10455D01*
X21890Y10464D01*
X21899Y10472D01*
X21905Y10479D01*
X21912Y10483D01*
X21914Y10486D01*
X21949Y10512D01*
X21964Y10523D01*
X21980Y10534D01*
X21991Y10540D01*
X21999Y10547D01*
X22004Y10549D01*
X22006Y10551D01*
X22058Y10582D01*
X22083Y10593D01*
X22104Y10604D01*
X22122Y10612D01*
X22135Y10619D01*
X22146Y10621D01*
X22148Y10623D01*
X22174Y10632D01*
X22198Y10639D01*
X22220Y10643D01*
X22240Y10645D01*
X22255Y10647D01*
X22266D01*
X22273D01*
X22275D01*
X22330Y10641D01*
D02*
G37*
G36*
X21886Y10610D02*
X21899D01*
X21908Y10608D01*
X21912D01*
X21918Y10606D01*
X21925D01*
X21929Y10604D01*
X21936Y10577D01*
X21943D01*
X21945D01*
Y10571D01*
X21943Y10562D01*
X21940Y10560D01*
X21932Y10545D01*
X21923Y10536D01*
X21916Y10529D01*
X21914Y10527D01*
X21899Y10516D01*
X21888Y10505D01*
X21879Y10499D01*
X21875Y10496D01*
X21862Y10483D01*
X21853Y10472D01*
X21846Y10464D01*
X21844Y10461D01*
X21833Y10451D01*
X21827Y10446D01*
X21824Y10444D01*
Y10442D01*
X21827Y10437D01*
X21829Y10435D01*
Y10433D01*
X21833Y10426D01*
X21840Y10420D01*
X21846Y10411D01*
X21848Y10409D01*
X21862Y10396D01*
X21870Y10387D01*
X21875Y10383D01*
X21877Y10381D01*
X21940Y10291D01*
X21838Y10293D01*
X21813Y10295D01*
X21792Y10297D01*
X21772Y10302D01*
X21757Y10304D01*
X21744Y10308D01*
X21735Y10311D01*
X21728Y10313D01*
X21726D01*
X21695Y10326D01*
X21667Y10341D01*
X21656Y10348D01*
X21647Y10354D01*
X21641Y10356D01*
X21639Y10359D01*
X21623Y10370D01*
X21610Y10383D01*
X21582Y10411D01*
X21571Y10424D01*
X21562Y10435D01*
X21555Y10444D01*
X21553Y10446D01*
X21538Y10468D01*
X21525Y10486D01*
X21516Y10501D01*
X21512Y10512D01*
X21507Y10521D01*
X21505Y10527D01*
Y10531D01*
X21507Y10540D01*
X21516Y10549D01*
X21527Y10558D01*
X21538Y10562D01*
X21551Y10569D01*
X21560Y10573D01*
X21569Y10575D01*
X21571D01*
X21599Y10582D01*
X21628Y10588D01*
X21641Y10590D01*
X21649Y10593D01*
X21656Y10595D01*
X21658D01*
X21700Y10601D01*
X21719Y10604D01*
X21737Y10606D01*
X21752Y10608D01*
X21763D01*
X21772Y10610D01*
X21774D01*
X21796Y10612D01*
X21813D01*
X21831D01*
X21844D01*
X21855D01*
X21864D01*
X21868D01*
X21870D01*
X21886Y10610D01*
D02*
G37*
%LPC*%
G36*
X21215Y11578D02*
X21214D01*
X21213D01*
X21212Y11578D01*
X21210Y11578D01*
X21209Y11577D01*
X21207Y11576D01*
X21205Y11575D01*
X21203Y11574D01*
X21203Y11574D01*
X21203Y11573D01*
X21202Y11572D01*
X21201Y11571D01*
X21201Y11570D01*
X21200Y11568D01*
X21200Y11566D01*
X21199Y11563D01*
Y11562D01*
X21200Y11561D01*
X21200Y11559D01*
X21200Y11557D01*
X21201Y11556D01*
X21202Y11554D01*
X21203Y11552D01*
X21204Y11552D01*
X21204Y11551D01*
X21205Y11551D01*
X21206Y11550D01*
X21208Y11549D01*
X21210Y11549D01*
X21212Y11548D01*
X21215Y11548D01*
X21215D01*
X21216D01*
X21217Y11548D01*
X21219Y11548D01*
X21220Y11549D01*
X21222Y11550D01*
X21224Y11551D01*
X21226Y11552D01*
X21226Y11552D01*
X21226Y11553D01*
X21227Y11554D01*
X21228Y11555D01*
X21229Y11557D01*
X21229Y11558D01*
X21230Y11561D01*
X21230Y11563D01*
Y11564D01*
X21230Y11565D01*
X21229Y11567D01*
X21229Y11569D01*
X21228Y11571D01*
X21227Y11572D01*
X21226Y11574D01*
X21226Y11574D01*
X21225Y11575D01*
X21224Y11575D01*
X21223Y11576D01*
X21221Y11577D01*
X21219Y11578D01*
X21217Y11578D01*
X21215Y11578D01*
D02*
G37*
G36*
X21161Y11580D02*
X21161D01*
X21160D01*
X21160D01*
X21159D01*
X21157Y11580D01*
X21155Y11580D01*
X21152Y11579D01*
X21150Y11578D01*
X21147Y11577D01*
X21145Y11575D01*
X21145Y11575D01*
X21144Y11574D01*
X21143Y11573D01*
X21142Y11572D01*
X21141Y11570D01*
X21140Y11568D01*
X21140Y11565D01*
X21139Y11562D01*
Y11561D01*
X21140Y11560D01*
X21140Y11558D01*
X21141Y11556D01*
X21142Y11554D01*
X21143Y11552D01*
X21145Y11550D01*
X21145Y11550D01*
X21146Y11549D01*
X21147Y11548D01*
X21149Y11548D01*
X21151Y11547D01*
X21154Y11546D01*
X21157Y11545D01*
X21160Y11545D01*
X21161D01*
X21161D01*
X21162D01*
X21163Y11545D01*
X21165Y11546D01*
X21168Y11546D01*
X21170Y11547D01*
X21173Y11548D01*
X21175Y11550D01*
X21175Y11550D01*
X21176Y11551D01*
X21177Y11552D01*
X21178Y11554D01*
X21179Y11555D01*
X21179Y11558D01*
X21180Y11560D01*
X21180Y11563D01*
Y11564D01*
X21180Y11566D01*
X21180Y11568D01*
X21179Y11570D01*
X21178Y11572D01*
X21176Y11574D01*
X21174Y11576D01*
X21174Y11576D01*
X21173Y11577D01*
X21172Y11577D01*
X21170Y11578D01*
X21168Y11579D01*
X21166Y11580D01*
X21163Y11580D01*
X21161Y11580D01*
D02*
G37*
G36*
X21188Y11382D02*
X21184D01*
X21184D01*
X21184D01*
X21182D01*
X21181D01*
X21179D01*
X21177Y11382D01*
X21175D01*
X21172Y11382D01*
X21167Y11382D01*
X21162Y11382D01*
X21160Y11381D01*
X21157Y11381D01*
X21155Y11381D01*
X21154Y11380D01*
X21153Y11380D01*
X21152Y11380D01*
X21151Y11379D01*
X21149Y11379D01*
X21147Y11378D01*
X21146Y11377D01*
X21144Y11376D01*
X21143Y11375D01*
X21143Y11375D01*
X21142Y11374D01*
X21142Y11374D01*
X21141Y11373D01*
X21141Y11372D01*
X21140Y11370D01*
X21140Y11369D01*
X21140Y11367D01*
Y11366D01*
X21140Y11366D01*
X21140Y11365D01*
X21141Y11363D01*
X21141Y11362D01*
X21142Y11361D01*
X21143Y11360D01*
X21143Y11359D01*
X21143Y11359D01*
X21144Y11358D01*
X21145Y11358D01*
X21146Y11357D01*
X21148Y11356D01*
X21150Y11355D01*
X21153Y11354D01*
X21153D01*
X21153Y11354D01*
X21154D01*
X21155Y11354D01*
X21156Y11354D01*
X21157Y11354D01*
X21158Y11353D01*
X21160Y11353D01*
X21162Y11353D01*
X21165Y11352D01*
X21167Y11352D01*
X21170Y11352D01*
X21173Y11352D01*
X21177D01*
X21180Y11352D01*
X21184D01*
X21185D01*
X21185D01*
X21187D01*
X21188D01*
X21190D01*
X21192Y11352D01*
X21194D01*
X21197Y11352D01*
X21202Y11352D01*
X21207Y11353D01*
X21209Y11353D01*
X21211Y11353D01*
X21213Y11354D01*
X21215Y11354D01*
X21215D01*
X21215Y11354D01*
X21216Y11354D01*
X21218Y11355D01*
X21220Y11356D01*
X21221Y11356D01*
X21223Y11357D01*
X21225Y11358D01*
X21226Y11360D01*
X21226Y11360D01*
X21227Y11360D01*
X21227Y11361D01*
X21228Y11362D01*
X21228Y11363D01*
X21229Y11364D01*
X21229Y11366D01*
X21229Y11367D01*
Y11368D01*
X21229Y11369D01*
X21229Y11370D01*
X21228Y11371D01*
X21228Y11372D01*
X21227Y11374D01*
X21226Y11375D01*
X21226Y11375D01*
X21226Y11376D01*
X21225Y11376D01*
X21224Y11377D01*
X21222Y11378D01*
X21221Y11378D01*
X21219Y11379D01*
X21216Y11380D01*
X21216D01*
X21216Y11380D01*
X21215D01*
X21214Y11380D01*
X21213Y11381D01*
X21212Y11381D01*
X21210Y11381D01*
X21209Y11381D01*
X21206Y11382D01*
X21204Y11382D01*
X21202Y11382D01*
X21199Y11382D01*
X21196Y11382D01*
X21192D01*
X21188Y11382D01*
D02*
G37*
G36*
X11880Y949D02*
X11875Y948D01*
X11861Y947D01*
X11856Y946D01*
X11848D01*
X11837Y944D01*
X11859D01*
X11872Y941D01*
X11883Y940D01*
X11892Y937D01*
X11883Y946D01*
X11880Y949D01*
D02*
G37*
G36*
X11845Y903D02*
X11844Y902D01*
X11845Y900D01*
Y899D01*
X11847D01*
X11845Y900D01*
Y903D01*
D02*
G37*
G36*
X11892Y937D02*
X11894Y935D01*
X11904Y925D01*
X11907Y924D01*
X11911Y918D01*
X11918Y909D01*
X11926Y897D01*
Y900D01*
X11924Y909D01*
X11921Y916D01*
X11917Y924D01*
X11910Y930D01*
X11908D01*
X11905Y932D01*
X11899Y934D01*
X11892Y937D01*
D02*
G37*
G36*
X11871Y899D02*
X11851D01*
X11856Y897D01*
X11866D01*
X11871Y898D01*
X11871Y899D01*
D02*
G37*
G36*
X11867Y909D02*
X11869Y908D01*
X11870Y902D01*
X11871Y899D01*
X11876D01*
X11871Y898D01*
X11872Y897D01*
X11873Y895D01*
X11875D01*
Y896D01*
Y897D01*
X11876Y899D01*
X11888Y902D01*
X11867Y909D01*
D02*
G37*
G36*
X11926Y896D02*
Y895D01*
Y889D01*
X11924Y884D01*
Y883D01*
X11920Y876D01*
X11913Y867D01*
X11908Y862D01*
X11905Y860D01*
X11895Y852D01*
X11896Y851D01*
X11901Y846D01*
X11902Y845D01*
Y844D01*
X11908Y838D01*
X11911Y832D01*
X11914Y827D01*
X11915Y826D01*
X11918Y823D01*
X11920Y826D01*
X11927Y839D01*
X11929Y845D01*
X11930Y848D01*
X11931Y851D01*
Y852D01*
X11933Y861D01*
Y868D01*
X11931Y883D01*
X11929Y889D01*
X11927Y893D01*
X11926Y896D01*
D02*
G37*
G36*
X11837Y944D02*
X11796D01*
Y921D01*
X11793Y918D01*
X11787Y911D01*
X11783Y903D01*
X11780Y897D01*
X11777Y895D01*
Y893D01*
X11774Y881D01*
Y870D01*
X11775Y849D01*
X11777Y841D01*
X11780Y833D01*
X11781Y829D01*
Y827D01*
X11783Y826D01*
X11786Y823D01*
X11789Y820D01*
X11790Y819D01*
X11796Y813D01*
X11797Y812D01*
Y817D01*
X11796Y826D01*
Y846D01*
Y855D01*
Y862D01*
Y868D01*
Y870D01*
Y921D01*
X11800Y925D01*
X11809Y932D01*
X11819Y940D01*
X11821Y941D01*
X11828Y943D01*
X11837Y944D01*
D02*
G37*
G36*
X11918Y823D02*
X11908Y811D01*
X11905Y809D01*
X11898Y804D01*
X11889Y798D01*
X11885Y796D01*
X11886Y795D01*
X11895Y794D01*
X11899D01*
X11904Y795D01*
X11911Y797D01*
X11913D01*
X11917Y800D01*
X11921Y806D01*
X11923Y810D01*
Y816D01*
X11921Y817D01*
X11920Y820D01*
X11918Y823D01*
D02*
G37*
G36*
X11797Y812D02*
Y810D01*
Y807D01*
X11800Y803D01*
X11808Y797D01*
X11812Y795D01*
X11819Y794D01*
X11822D01*
X11824Y795D01*
X11822Y795D01*
X11815Y798D01*
X11806Y804D01*
X11805Y806D01*
X11802Y809D01*
X11797Y812D01*
D02*
G37*
G36*
X11844Y841D02*
Y839D01*
Y832D01*
Y830D01*
Y829D01*
X11843Y819D01*
X11841Y810D01*
X11840Y806D01*
X11838Y804D01*
X11834Y798D01*
X11827Y795D01*
X11824Y795D01*
X11825Y794D01*
X11827D01*
X11834Y792D01*
X11841Y791D01*
X11847Y790D01*
X11850D01*
X11863Y791D01*
X11873Y792D01*
X11879Y794D01*
X11880D01*
X11885Y796D01*
X11879Y798D01*
X11875Y801D01*
X11873Y803D01*
X11866Y810D01*
X11860Y819D01*
X11854Y827D01*
X11853Y829D01*
Y830D01*
X11847Y838D01*
X11844Y841D01*
D02*
G37*
G36*
X22021Y8508D02*
X22021D01*
X22017D01*
X22013D01*
X22006Y8507D01*
X21998Y8506D01*
X21989Y8506D01*
X21979Y8504D01*
X21968Y8502D01*
X21945Y8498D01*
X21921Y8490D01*
X21909Y8485D01*
X21898Y8479D01*
X21888Y8472D01*
X21878Y8465D01*
X21877Y8464D01*
X21876Y8462D01*
X21873Y8460D01*
X21871Y8457D01*
X21867Y8453D01*
X21863Y8447D01*
X21858Y8442D01*
X21854Y8434D01*
X21844Y8419D01*
X21837Y8400D01*
X21834Y8389D01*
X21832Y8378D01*
X21830Y8366D01*
X21829Y8354D01*
Y8348D01*
X21830Y8343D01*
X21831Y8337D01*
X21832Y8331D01*
X21836Y8316D01*
X21841Y8298D01*
X21845Y8289D01*
X21849Y8280D01*
X21855Y8271D01*
X21861Y8261D01*
X21868Y8253D01*
X21877Y8245D01*
X21878Y8244D01*
X21880Y8243D01*
X21882Y8241D01*
X21886Y8238D01*
X21892Y8234D01*
X21898Y8231D01*
X21905Y8227D01*
X21914Y8223D01*
X21924Y8219D01*
X21934Y8215D01*
X21946Y8211D01*
X21960Y8208D01*
X21973Y8205D01*
X21989Y8203D01*
X22005Y8202D01*
X22023Y8201D01*
X22024D01*
X22027D01*
X22032D01*
X22039Y8202D01*
X22047Y8203D01*
X22056Y8204D01*
X22066Y8204D01*
X22077Y8207D01*
X22100Y8212D01*
X22124Y8219D01*
X22136Y8224D01*
X22146Y8229D01*
X22157Y8237D01*
X22166Y8244D01*
X22167Y8245D01*
X22169Y8245D01*
X22170Y8248D01*
X22174Y8251D01*
X22178Y8256D01*
X22182Y8261D01*
X22186Y8266D01*
X22190Y8273D01*
X22194Y8281D01*
X22199Y8289D01*
X22207Y8308D01*
X22210Y8318D01*
X22211Y8329D01*
X22213Y8341D01*
X22214Y8354D01*
Y8361D01*
X22213Y8365D01*
X22212Y8372D01*
X22211Y8378D01*
X22208Y8394D01*
X22202Y8412D01*
X22199Y8422D01*
X22194Y8431D01*
X22188Y8440D01*
X22182Y8450D01*
X22174Y8458D01*
X22166Y8466D01*
X22165Y8467D01*
X22163Y8468D01*
X22161Y8470D01*
X22157Y8473D01*
X22151Y8476D01*
X22146Y8479D01*
X22138Y8483D01*
X22130Y8487D01*
X22120Y8491D01*
X22110Y8495D01*
X22098Y8498D01*
X22085Y8502D01*
X22070Y8504D01*
X22055Y8506D01*
X22039Y8507D01*
X22021Y8508D01*
D02*
G37*
G36*
X20605Y7622D02*
Y7493D01*
X20795D01*
X20605Y7622D01*
D02*
G37*
G36*
X21964Y7125D02*
Y6972D01*
X22170Y7049D01*
X21964Y7125D01*
D02*
G37*
G36*
X20691Y6039D02*
X20674D01*
X20673D01*
X20670D01*
X20664D01*
X20658D01*
X20650D01*
X20641Y6038D01*
X20630D01*
X20620Y6037D01*
X20597Y6037D01*
X20575Y6035D01*
X20565Y6034D01*
X20555Y6033D01*
X20546Y6031D01*
X20538Y6029D01*
X20537Y6029D01*
X20533Y6028D01*
X20526Y6025D01*
X20519Y6023D01*
X20511Y6019D01*
X20503Y6015D01*
X20496Y6010D01*
X20490Y6005D01*
X20489Y6005D01*
X20489Y6003D01*
X20486Y6000D01*
X20485Y5996D01*
X20482Y5991D01*
X20480Y5985D01*
X20479Y5979D01*
X20478Y5972D01*
Y5968D01*
X20479Y5964D01*
X20480Y5960D01*
X20481Y5955D01*
X20483Y5949D01*
X20486Y5944D01*
X20490Y5938D01*
X20491Y5937D01*
X20493Y5936D01*
X20496Y5932D01*
X20501Y5929D01*
X20506Y5926D01*
X20514Y5922D01*
X20523Y5918D01*
X20534Y5915D01*
X20535D01*
X20536Y5914D01*
X20539D01*
X20542Y5913D01*
X20547Y5912D01*
X20553Y5912D01*
X20559Y5910D01*
X20567Y5909D01*
X20576Y5908D01*
X20586Y5907D01*
X20597Y5906D01*
X20610Y5905D01*
X20624Y5904D01*
X20639D01*
X20656Y5904D01*
X20674D01*
X20674D01*
X20678D01*
X20683D01*
X20690D01*
X20698D01*
X20706Y5904D01*
X20717D01*
X20727Y5905D01*
X20750Y5906D01*
X20771Y5908D01*
X20782Y5909D01*
X20792Y5911D01*
X20801Y5912D01*
X20808Y5914D01*
X20809D01*
X20810Y5915D01*
X20814Y5916D01*
X20820Y5918D01*
X20828Y5920D01*
X20836Y5924D01*
X20844Y5928D01*
X20851Y5933D01*
X20857Y5938D01*
X20858Y5939D01*
X20859Y5940D01*
X20861Y5944D01*
X20863Y5948D01*
X20866Y5952D01*
X20868Y5958D01*
X20869Y5964D01*
X20870Y5972D01*
Y5975D01*
X20869Y5979D01*
X20868Y5983D01*
X20867Y5989D01*
X20864Y5994D01*
X20861Y6001D01*
X20857Y6006D01*
X20856Y6007D01*
X20855Y6009D01*
X20851Y6011D01*
X20847Y6014D01*
X20841Y6018D01*
X20834Y6021D01*
X20824Y6025D01*
X20813Y6029D01*
X20812D01*
X20811Y6029D01*
X20808D01*
X20805Y6030D01*
X20800Y6031D01*
X20794Y6032D01*
X20788Y6033D01*
X20780Y6033D01*
X20770Y6035D01*
X20761Y6036D01*
X20749Y6037D01*
X20737Y6037D01*
X20722Y6038D01*
X20708D01*
X20691Y6039D01*
D02*
G37*
G36*
X22021Y4722D02*
X22021D01*
X22017D01*
X22013D01*
X22006Y4721D01*
X21998Y4720D01*
X21989Y4719D01*
X21979Y4718D01*
X21968Y4716D01*
X21945Y4711D01*
X21921Y4703D01*
X21909Y4698D01*
X21898Y4693D01*
X21888Y4686D01*
X21878Y4678D01*
X21877Y4678D01*
X21876Y4676D01*
X21873Y4674D01*
X21871Y4670D01*
X21867Y4666D01*
X21863Y4661D01*
X21858Y4655D01*
X21854Y4648D01*
X21844Y4633D01*
X21837Y4614D01*
X21834Y4603D01*
X21832Y4592D01*
X21830Y4580D01*
X21829Y4568D01*
Y4562D01*
X21830Y4557D01*
X21831Y4551D01*
X21832Y4545D01*
X21836Y4529D01*
X21841Y4512D01*
X21845Y4503D01*
X21849Y4493D01*
X21855Y4485D01*
X21861Y4475D01*
X21868Y4466D01*
X21877Y4458D01*
X21878Y4457D01*
X21880Y4457D01*
X21882Y4454D01*
X21886Y4452D01*
X21892Y4448D01*
X21898Y4445D01*
X21905Y4441D01*
X21914Y4437D01*
X21924Y4433D01*
X21934Y4429D01*
X21946Y4425D01*
X21960Y4421D01*
X21973Y4419D01*
X21989Y4417D01*
X22005Y4416D01*
X22023Y4415D01*
X22024D01*
X22027D01*
X22032D01*
X22039Y4416D01*
X22047Y4417D01*
X22056Y4417D01*
X22066Y4418D01*
X22077Y4421D01*
X22100Y4425D01*
X22124Y4433D01*
X22136Y4437D01*
X22146Y4443D01*
X22157Y4450D01*
X22166Y4457D01*
X22167Y4458D01*
X22169Y4459D01*
X22170Y4461D01*
X22174Y4465D01*
X22178Y4469D01*
X22182Y4474D01*
X22186Y4480D01*
X22190Y4487D01*
X22194Y4494D01*
X22199Y4503D01*
X22207Y4521D01*
X22210Y4532D01*
X22211Y4543D01*
X22213Y4555D01*
X22214Y4568D01*
Y4574D01*
X22213Y4579D01*
X22212Y4586D01*
X22211Y4592D01*
X22208Y4608D01*
X22202Y4626D01*
X22199Y4635D01*
X22194Y4645D01*
X22188Y4654D01*
X22182Y4663D01*
X22174Y4672D01*
X22166Y4680D01*
X22165Y4681D01*
X22163Y4682D01*
X22161Y4684D01*
X22157Y4686D01*
X22151Y4690D01*
X22146Y4693D01*
X22138Y4697D01*
X22130Y4701D01*
X22120Y4705D01*
X22110Y4709D01*
X22098Y4712D01*
X22085Y4715D01*
X22070Y4718D01*
X22055Y4720D01*
X22039Y4721D01*
X22021Y4722D01*
D02*
G37*
G36*
X21964Y4071D02*
Y3918D01*
X22170Y3995D01*
X21964Y4071D01*
D02*
G37*
G36*
X20873Y11623D02*
Y11612D01*
X20875Y11607D01*
X20880Y11605D01*
Y11612D01*
X20873Y11623D01*
D02*
G37*
G36*
X21490Y10964D02*
X21488D01*
X21485D01*
X21488Y10956D01*
X21490Y10949D01*
Y10964D01*
D02*
G37*
G36*
X22411Y11045D02*
X22326D01*
X22325Y11039D01*
X22378D01*
X22380D01*
X22382D01*
X22395Y11041D01*
X22408Y11043D01*
X22411Y11045D01*
D02*
G37*
G36*
X22205Y10486D02*
X22203D01*
Y10483D01*
X22205Y10481D01*
X22209Y10483D01*
X22205Y10486D01*
D02*
G37*
%LPD*%
D10*
X18074Y5706D02*
G03*
X16574Y5699I-750J-5D01*
G01*
Y3569D02*
G03*
X18074Y3576I750J5D01*
G01*
X16574Y3586D02*
Y5686D01*
X18074Y3576D02*
Y5676D01*
X16954Y4416D02*
X17704D01*
X17314Y4116D02*
Y4416D01*
X16964Y4826D02*
X17704D01*
X17314D02*
Y5136D01*
D11*
X16400Y3146D02*
G03*
X18248Y3146I924J220D01*
G01*
Y6086D02*
G03*
X16400Y6086I-924J-220D01*
G01*
X16810Y896D02*
G03*
X16920Y1006I0J110D01*
G01*
X16920Y1794D02*
G03*
X16810Y1904I-110J0D01*
G01*
X12920Y1006D02*
G03*
X13014Y896I102J-8D01*
G01*
Y1904D02*
G03*
X12920Y1794I8J-102D01*
G01*
X10296Y10094D02*
G03*
X10296Y13010I-414J1458D01*
G01*
X9468Y13010D02*
G03*
X9468Y10094I414J-1458D01*
G01*
X11546Y8085D02*
G03*
X11546Y8085I-39J0D01*
G01*
X15995Y7888D02*
G03*
X15995Y7888I-39J0D01*
G01*
Y6904D02*
G03*
X15995Y6904I-39J0D01*
G01*
X14656Y5172D02*
G03*
X14656Y5172I-39J0D01*
G01*
X13672D02*
G03*
X13672Y5172I-39J0D01*
G01*
X12688D02*
G03*
X12688Y5172I-39J0D01*
G01*
X11546Y7101D02*
G03*
X11546Y7101I-39J0D01*
G01*
X13081Y9620D02*
G03*
X13081Y9620I-39J0D01*
G01*
X14066D02*
G03*
X14066Y9620I-39J0D01*
G01*
X9459Y7239D02*
G03*
X9459Y7239I-39J0D01*
G01*
Y5959D02*
G03*
X9459Y5959I-39J0D01*
G01*
Y4680D02*
G03*
X9459Y4680I-39J0D01*
G01*
X5421Y5703D02*
G03*
X5421Y5703I-39J0D01*
G01*
X7252Y8252D02*
G03*
X7724Y8252I236J0D01*
G01*
X5421Y6983D02*
G03*
X5421Y6983I-39J0D01*
G01*
X18164Y12580D02*
G03*
X18164Y12580I-394J0D01*
G01*
X20172D02*
G03*
X20172Y12580I-2402J0D01*
G01*
X18990Y11005D02*
G03*
X18990Y11005I-394J0D01*
G01*
X7747Y11546D02*
G03*
X7747Y11546I-98J0D01*
G01*
X21819Y438D02*
G03*
X23457Y438I819J546D01*
G01*
X21819D02*
G03*
X23457Y438I819J546D01*
G01*
X21852Y460D02*
G03*
X23424Y460I786J524D01*
G01*
X21884Y482D02*
G03*
X23391Y482I753J502D01*
G01*
X21884D02*
G03*
X23391Y482I753J502D01*
G01*
X21917Y504D02*
G03*
X23358Y504I721J480D01*
G01*
X21950Y526D02*
G03*
X23326Y526I688J459D01*
G01*
X21983Y547D02*
G03*
X23293Y547I655J437D01*
G01*
X22015Y569D02*
G03*
X23260Y569I622J415D01*
G01*
Y1399D02*
G03*
X22015Y1399I-622J-415D01*
G01*
X23293Y1421D02*
G03*
X21983Y1421I-655J-437D01*
G01*
X23326Y1443D02*
G03*
X21950Y1443I-688J-459D01*
G01*
X23358Y1465D02*
G03*
X21917Y1465I-721J-480D01*
G01*
X23391Y1487D02*
G03*
X21884Y1487I-753J-502D01*
G01*
X23391D02*
G03*
X21884Y1487I-753J-502D01*
G01*
X23424Y1508D02*
G03*
X21852Y1508I-786J-524D01*
G01*
X23457Y1530D02*
G03*
X21819Y1530I-819J-546D01*
G01*
X23457D02*
G03*
X21819Y1530I-819J-546D01*
G01*
X23622Y984D02*
G03*
X23622Y984I-984J0D01*
G01*
X165Y438D02*
G03*
X1803Y438I819J546D01*
G01*
X165D02*
G03*
X1803Y438I819J546D01*
G01*
X198Y460D02*
G03*
X1770Y460I786J524D01*
G01*
X231Y482D02*
G03*
X1738Y482I753J502D01*
G01*
X231D02*
G03*
X1738Y482I753J502D01*
G01*
X264Y504D02*
G03*
X1705Y504I721J480D01*
G01*
X296Y526D02*
G03*
X1672Y526I688J459D01*
G01*
X329Y547D02*
G03*
X1639Y547I655J437D01*
G01*
X362Y569D02*
G03*
X1607Y569I622J415D01*
G01*
Y1399D02*
G03*
X362Y1399I-622J-415D01*
G01*
X1639Y1421D02*
G03*
X329Y1421I-655J-437D01*
G01*
X1672Y1443D02*
G03*
X296Y1443I-688J-459D01*
G01*
X1705Y1465D02*
G03*
X264Y1465I-721J-480D01*
G01*
X1738Y1487D02*
G03*
X231Y1487I-753J-502D01*
G01*
X1738D02*
G03*
X231Y1487I-753J-502D01*
G01*
X1770Y1508D02*
G03*
X198Y1508I-786J-524D01*
G01*
X1803Y1530D02*
G03*
X165Y1530I-819J-546D01*
G01*
X1803D02*
G03*
X165Y1530I-819J-546D01*
G01*
X1969Y984D02*
G03*
X1969Y984I-984J0D01*
G01*
X3149Y12881D02*
G03*
X3148Y9964I414J-1458D01*
G01*
X3977Y9964D02*
G03*
X3977Y12880I-414J1458D01*
G01*
X23622Y14764D02*
G03*
X23622Y14764I-984J0D01*
G01*
X23457Y15310D02*
G03*
X21819Y15310I-819J-546D01*
G01*
X23457D02*
G03*
X21819Y15310I-819J-546D01*
G01*
X23424Y15288D02*
G03*
X21852Y15288I-786J-524D01*
G01*
X23391Y15266D02*
G03*
X21884Y15266I-753J-502D01*
G01*
X23391D02*
G03*
X21884Y15266I-753J-502D01*
G01*
X23358Y15244D02*
G03*
X21917Y15244I-721J-480D01*
G01*
X23326Y15222D02*
G03*
X21950Y15222I-688J-459D01*
G01*
X23293Y15201D02*
G03*
X21983Y15201I-655J-437D01*
G01*
X23260Y15179D02*
G03*
X22015Y15179I-622J-415D01*
G01*
Y14349D02*
G03*
X23260Y14349I622J415D01*
G01*
X21983Y14327D02*
G03*
X23293Y14327I655J437D01*
G01*
X21950Y14305D02*
G03*
X23326Y14305I688J459D01*
G01*
X21917Y14283D02*
G03*
X23358Y14283I721J480D01*
G01*
X21884Y14261D02*
G03*
X23391Y14261I753J502D01*
G01*
X21884D02*
G03*
X23391Y14261I753J502D01*
G01*
X21852Y14240D02*
G03*
X23424Y14240I786J524D01*
G01*
X21819Y14218D02*
G03*
X23457Y14218I819J546D01*
G01*
X21819D02*
G03*
X23457Y14218I819J546D01*
G01*
X1969Y14764D02*
G03*
X1969Y14764I-984J0D01*
G01*
X1803Y15310D02*
G03*
X165Y15310I-819J-546D01*
G01*
X1803D02*
G03*
X165Y15310I-819J-546D01*
G01*
X1770Y15288D02*
G03*
X198Y15288I-786J-524D01*
G01*
X1738Y15266D02*
G03*
X231Y15266I-753J-502D01*
G01*
X1738D02*
G03*
X231Y15266I-753J-502D01*
G01*
X1705Y15244D02*
G03*
X264Y15244I-721J-480D01*
G01*
X1672Y15222D02*
G03*
X296Y15222I-688J-459D01*
G01*
X1639Y15201D02*
G03*
X329Y15201I-655J-437D01*
G01*
X1607Y15179D02*
G03*
X362Y15179I-622J-415D01*
G01*
Y14349D02*
G03*
X1607Y14349I622J415D01*
G01*
X329Y14327D02*
G03*
X1639Y14327I655J437D01*
G01*
X296Y14305D02*
G03*
X1672Y14305I688J459D01*
G01*
X264Y14283D02*
G03*
X1705Y14283I721J480D01*
G01*
X231Y14261D02*
G03*
X1738Y14261I753J502D01*
G01*
X231D02*
G03*
X1738Y14261I753J502D01*
G01*
X198Y14240D02*
G03*
X1770Y14240I786J524D01*
G01*
X165Y14218D02*
G03*
X1803Y14218I819J546D01*
G01*
X165D02*
G03*
X1803Y14218I819J546D01*
G01*
X16399Y3146D02*
Y6086D01*
X18249Y3146D02*
Y6086D01*
X13920Y996D02*
Y1800D01*
X15920D02*
X16020Y1900D01*
X15920Y996D02*
X16020Y896D01*
Y1904D02*
X16820D01*
X16020Y896D02*
X16820D01*
X16920Y1006D02*
Y1794D01*
X12920Y1006D02*
Y1794D01*
X13820Y1900D02*
X13920Y1800D01*
X14020Y1900D01*
X13820Y896D02*
Y900D01*
X13920Y1000D01*
Y996D02*
Y1000D01*
Y996D02*
X14020Y896D01*
X13014Y1904D02*
X13820D01*
X14820Y1900D02*
X14920Y1800D01*
X15020Y1900D01*
X14020Y1904D02*
X14820D01*
Y1900D02*
Y1904D01*
X13014Y896D02*
X13816D01*
X13820Y900D01*
X14020Y896D02*
X14820D01*
Y900D01*
X14920Y1000D01*
X15020Y900D01*
X15014Y1904D02*
X15820D01*
Y1900D02*
X15920Y1800D01*
X16820Y1900D02*
Y1904D01*
X15816Y896D02*
X15820Y900D01*
X15014Y896D02*
X15816D01*
X15920Y996D02*
Y1000D01*
X15820Y900D02*
X15920Y1000D01*
X15820Y896D02*
Y900D01*
X16820Y896D02*
Y900D01*
X12941Y10829D02*
Y12227D01*
X12941Y12227D02*
X14185D01*
X14185Y10829D02*
Y12227D01*
X12941Y10829D02*
X14185D01*
X18817Y7298D02*
Y7869D01*
X17681Y7298D02*
X18811D01*
X17675D02*
Y7869D01*
X17681D02*
X18817D01*
X18246Y7298D02*
Y7869D01*
X17640Y7930D02*
Y8690D01*
Y7930D02*
X18964D01*
X17640Y8690D02*
X18964Y8690D01*
Y7930D02*
Y8690D01*
X10295Y13010D02*
Y13186D01*
Y9918D02*
Y10093D01*
X9468Y13010D02*
X9469Y13010D01*
Y13186D01*
X9468Y10094D02*
X9469Y10093D01*
Y9918D02*
Y10093D01*
X10295Y13186D02*
X10906D01*
X11516Y12575D01*
X10295Y9918D02*
X11516D01*
Y12575D01*
X8858Y13186D02*
X9469D01*
X8248Y9918D02*
Y12575D01*
Y9918D02*
X9469D01*
X8248Y12575D02*
X8858Y13186D01*
X14786Y9585D02*
X14979D01*
Y8640D02*
Y9585D01*
X14956Y8617D02*
X14979Y8640D01*
X14952Y8617D02*
X14956D01*
X14952Y6176D02*
Y8617D01*
X12511D02*
X14952D01*
X12511Y6176D02*
Y8617D01*
Y6176D02*
X14952D01*
X12927Y12820D02*
Y13579D01*
Y12820D02*
X14252D01*
X12927Y13579D02*
X14252Y13579D01*
Y12820D02*
Y13579D01*
X18879Y3317D02*
X19627D01*
X18879Y3976D02*
X19627D01*
X18879Y2657D02*
Y3976D01*
X19627Y2657D02*
Y3976D01*
X18879Y2657D02*
X19627D01*
X18879Y5955D02*
X19627D01*
X18879Y5295D02*
X19627D01*
X19627Y5295D02*
Y6614D01*
X18879Y5295D02*
Y6614D01*
X19627D01*
X5480Y8016D02*
Y8252D01*
X6641D01*
X7724Y8252D02*
X8157D01*
X6661D02*
X7252D01*
X6661Y4394D02*
Y8252D01*
Y4394D02*
X8157D01*
Y8252D01*
X1062Y11576D02*
X1633D01*
Y11005D02*
Y12141D01*
X1062Y12146D02*
X1633D01*
X1062Y11011D02*
Y12141D01*
Y11005D02*
X1633D01*
X11692Y11467D02*
X12263D01*
Y10896D02*
Y12032D01*
X11692Y12038D02*
X12263D01*
X11692Y10902D02*
Y12032D01*
Y10896D02*
X12263D01*
X1880Y4955D02*
X2820D01*
X3734Y5241D02*
Y5631D01*
X1880Y7987D02*
X2830D01*
X3734Y7311D02*
Y7721D01*
X112Y4955D02*
X680D01*
X112Y7987D02*
X680D01*
X7233Y2016D02*
Y2816D01*
Y2016D02*
X9033D01*
X8883D02*
Y2816D01*
X9033Y2016D02*
Y2816D01*
X7233D02*
X9033D01*
X8733Y2016D02*
Y2816D01*
X7000Y2056D02*
Y2816D01*
X5676D02*
X7000D01*
X5676Y2056D02*
X7000Y2056D01*
X5676Y2056D02*
Y2816D01*
X18597Y10611D02*
Y11399D01*
X18203Y11005D02*
X18990Y11005D01*
X5428Y11805D02*
X8069D01*
X5428Y10205D02*
X8069D01*
Y11805D01*
X5428Y10205D02*
Y11805D01*
X1929Y12446D02*
X2539Y13056D01*
X1929Y9789D02*
X3149D01*
X1929D02*
Y12446D01*
X2539Y13056D02*
X3149D01*
X5197Y9789D02*
Y12446D01*
X3976Y9789D02*
X5197D01*
X4586Y13056D02*
X5197Y12446D01*
X3976Y13056D02*
X4586D01*
X3149Y9789D02*
Y9963D01*
X3148Y9964D02*
X3149Y9963D01*
Y12881D02*
Y13056D01*
X3149Y12881D02*
X3149Y12881D01*
X3976Y9789D02*
Y9963D01*
Y12881D02*
Y13056D01*
X7000Y3017D02*
Y3776D01*
X5676Y3776D02*
X7000Y3776D01*
X5676Y3017D02*
X7000D01*
X5676D02*
Y3776D01*
X8739Y2998D02*
Y3799D01*
X7239D02*
X9039D01*
Y2998D02*
Y3799D01*
X8889Y2998D02*
Y3799D01*
X7239Y2998D02*
X9039D01*
X7239D02*
Y3799D01*
X15369Y2922D02*
Y3322D01*
X15469D01*
X15869Y2922D01*
X15969D01*
Y3322D01*
X15869Y3922D02*
X15469D01*
X15369Y3822D01*
Y3622D01*
X15469Y3522D01*
X15869D01*
X15969Y3622D01*
Y3822D01*
X15769Y3722D02*
X15969Y3922D01*
Y3822D02*
X15869Y3922D01*
X15969Y4122D02*
Y4322D01*
Y4222D01*
X15369D01*
X15469Y4122D01*
X14700Y8330D02*
X14100D01*
Y8030D01*
X14200Y7930D01*
X14600D01*
X14700Y8030D01*
Y8330D01*
Y7730D02*
X14100D01*
Y7430D01*
X14200Y7330D01*
X14600D01*
X14700Y7430D01*
Y7730D01*
X14100Y6731D02*
Y7130D01*
X14500Y6731D01*
X14600D01*
X14700Y6830D01*
Y7030D01*
X14600Y7130D01*
X1360Y6960D02*
X760Y6560D01*
X1360D02*
X760Y6960D01*
Y6360D02*
Y6160D01*
Y6260D01*
X1360D01*
X1260Y6360D01*
X12020Y15300D02*
X12420D01*
X12220D01*
Y14700D01*
X12620D02*
Y15300D01*
X12920D01*
X13020Y15200D01*
Y15000D01*
X12920Y14900D01*
X12620D01*
X13220Y14700D02*
X13420D01*
X13320D01*
Y15300D01*
X13220Y15200D01*
X6040Y13710D02*
Y13110D01*
X6340D01*
X6440Y13210D01*
Y13610D01*
X6340Y13710D01*
X6040D01*
X6640Y13110D02*
Y13510D01*
X6840Y13710D01*
X7040Y13510D01*
Y13110D01*
Y13410D01*
X6640D01*
X7240Y13110D02*
X7440D01*
X7340D01*
Y13710D01*
X7240Y13610D01*
X17230Y1570D02*
X17630Y970D01*
Y1570D02*
X17230Y970D01*
X18230D02*
X17830D01*
X18230Y1370D01*
Y1470D01*
X18130Y1570D01*
X17930D01*
X17830Y1470D01*
X13400Y10500D02*
Y10100D01*
X13600Y9900D01*
X13800Y10100D01*
Y10500D01*
X14000D02*
X14400D01*
X14200D01*
Y9900D01*
X14600D02*
X14800D01*
X14700D01*
Y10500D01*
X14600Y10400D01*
X9420Y4090D02*
Y3690D01*
X9620Y3490D01*
X9820Y3690D01*
Y4090D01*
X10020D02*
Y3490D01*
X10320D01*
X10420Y3590D01*
Y3990D01*
X10320Y4090D01*
X10020D01*
X11019Y3490D02*
X10620D01*
X11019Y3890D01*
Y3990D01*
X10920Y4090D01*
X10720D01*
X10620Y3990D01*
X7460Y1650D02*
Y1250D01*
X7660Y1050D01*
X7860Y1250D01*
Y1650D01*
X8060D02*
Y1050D01*
X8360D01*
X8460Y1150D01*
Y1550D01*
X8360Y1650D01*
X8060D01*
X8660Y1050D02*
X8860D01*
X8760D01*
Y1650D01*
X8660Y1550D01*
X11680Y12920D02*
Y13520D01*
X11980D01*
X12080Y13420D01*
Y13220D01*
X11980Y13120D01*
X11680D01*
X11880D02*
X12080Y12920D01*
X12680Y13520D02*
X12480Y13420D01*
X12280Y13220D01*
Y13020D01*
X12380Y12920D01*
X12580D01*
X12680Y13020D01*
Y13120D01*
X12580Y13220D01*
X12280D01*
X17640Y9000D02*
Y9600D01*
X17940D01*
X18040Y9500D01*
Y9300D01*
X17940Y9200D01*
X17640D01*
X17840D02*
X18040Y9000D01*
X18640Y9600D02*
X18240D01*
Y9300D01*
X18440Y9400D01*
X18540D01*
X18640Y9300D01*
Y9100D01*
X18540Y9000D01*
X18340D01*
X18240Y9100D01*
X4420Y3170D02*
Y3770D01*
X4720D01*
X4820Y3670D01*
Y3470D01*
X4720Y3370D01*
X4420D01*
X4620D02*
X4820Y3170D01*
X5420D02*
X5020D01*
X5420Y3570D01*
Y3670D01*
X5320Y3770D01*
X5120D01*
X5020Y3670D01*
X4420Y2150D02*
Y2750D01*
X4720D01*
X4820Y2650D01*
Y2450D01*
X4720Y2350D01*
X4420D01*
X4620D02*
X4820Y2150D01*
X5020D02*
X5220D01*
X5120D01*
Y2750D01*
X5020Y2650D01*
X2440Y15070D02*
Y14470D01*
Y14770D01*
X2840D01*
Y15070D01*
Y14470D01*
X3340D02*
Y15070D01*
X3040Y14770D01*
X3440D01*
X20370Y15080D02*
Y14480D01*
Y14780D01*
X20770D01*
Y15080D01*
Y14480D01*
X20970Y14980D02*
X21070Y15080D01*
X21270D01*
X21370Y14980D01*
Y14880D01*
X21270Y14780D01*
X21170D01*
X21270D01*
X21370Y14680D01*
Y14580D01*
X21270Y14480D01*
X21070D01*
X20970Y14580D01*
X20280Y1290D02*
Y690D01*
Y990D01*
X20680D01*
Y1290D01*
Y690D01*
X21280D02*
X20880D01*
X21280Y1090D01*
Y1190D01*
X21180Y1290D01*
X20980D01*
X20880Y1190D01*
X2410Y1280D02*
Y680D01*
Y980D01*
X2810D01*
Y1280D01*
Y680D01*
X3010D02*
X3210D01*
X3110D01*
Y1280D01*
X3010Y1180D01*
X5413Y9131D02*
Y8531D01*
X5712D01*
X5812Y8631D01*
Y9031D01*
X5712Y9131D01*
X5413D01*
X6012D02*
Y8531D01*
X6312D01*
X6412Y8631D01*
Y9031D01*
X6312Y9131D01*
X6012D01*
X6612Y8531D02*
X6812D01*
X6712D01*
Y9131D01*
X6612Y9031D01*
X16770Y7750D02*
X16670Y7850D01*
X16470D01*
X16370Y7750D01*
Y7350D01*
X16470Y7250D01*
X16670D01*
X16770Y7350D01*
X16970Y7750D02*
X17070Y7850D01*
X17270D01*
X17370Y7750D01*
Y7650D01*
X17270Y7550D01*
X17370Y7450D01*
Y7350D01*
X17270Y7250D01*
X17070D01*
X16970Y7350D01*
Y7450D01*
X17070Y7550D01*
X16970Y7650D01*
Y7750D01*
X17070Y7550D02*
X17270D01*
X19270Y4910D02*
X19170Y5010D01*
X18970D01*
X18870Y4910D01*
Y4510D01*
X18970Y4410D01*
X19170D01*
X19270Y4510D01*
X19470Y5010D02*
X19870D01*
Y4910D01*
X19470Y4510D01*
Y4410D01*
X19298Y2242D02*
X19198Y2342D01*
X18999D01*
X18899Y2242D01*
Y1842D01*
X18999Y1742D01*
X19198D01*
X19298Y1842D01*
X19898Y2342D02*
X19698Y2242D01*
X19498Y2042D01*
Y1842D01*
X19598Y1742D01*
X19798D01*
X19898Y1842D01*
Y1942D01*
X19798Y2042D01*
X19498D01*
X9740Y14330D02*
X9640Y14430D01*
X9440D01*
X9340Y14330D01*
Y13930D01*
X9440Y13830D01*
X9640D01*
X9740Y13930D01*
X10240Y13830D02*
Y14430D01*
X9940Y14130D01*
X10340D01*
X12200Y10450D02*
X12100Y10550D01*
X11900D01*
X11800Y10450D01*
Y10050D01*
X11900Y9950D01*
X12100D01*
X12200Y10050D01*
X12400Y10450D02*
X12500Y10550D01*
X12700D01*
X12800Y10450D01*
Y10350D01*
X12700Y10250D01*
X12600D01*
X12700D01*
X12800Y10150D01*
Y10050D01*
X12700Y9950D01*
X12500D01*
X12400Y10050D01*
X4410Y14270D02*
X4310Y14370D01*
X4110D01*
X4010Y14270D01*
Y13870D01*
X4110Y13770D01*
X4310D01*
X4410Y13870D01*
X5010Y13770D02*
X4610D01*
X5010Y14170D01*
Y14270D01*
X4910Y14370D01*
X4710D01*
X4610Y14270D01*
X950Y10450D02*
X850Y10550D01*
X650D01*
X550Y10450D01*
Y10050D01*
X650Y9950D01*
X850D01*
X950Y10050D01*
X1150Y9950D02*
X1350D01*
X1250D01*
Y10550D01*
X1150Y10450D01*
X15720Y12870D02*
Y12270D01*
X16020D01*
X16120Y12370D01*
Y12470D01*
X16020Y12570D01*
X15720D01*
X16020D01*
X16120Y12670D01*
Y12770D01*
X16020Y12870D01*
X15720D01*
X16320Y12270D02*
Y12670D01*
X16520Y12870D01*
X16720Y12670D01*
Y12270D01*
Y12570D01*
X16320D01*
X16920Y12270D02*
X17120D01*
X17020D01*
Y12870D01*
X16920Y12770D01*
M02*
