M48
;Layer_Color=9474304
;FILE_FORMAT=2:4
INCH,LZ
;TYPE=PLATED
T1F00S00C0.0100
T2F00S00C0.0120
T3F00S00C0.0315
T4F00S00C0.0394
T5F00S00C0.1181
%
T01
X014814Y005125
X014627Y006247
X011509Y006313
X009444Y006215
Y005447
X009381Y005191
X00748Y00648
X006802Y006471
X004996Y003405
X00499Y00244
X00362Y00738
X00342
X00322
X00332Y00758
X00352
X00312
X00252Y0107
X00232
X00212
X007654Y011802
X010784Y009749
X010984
X011184
X011284Y009549
X011084
X010884
X009882Y008768
Y008261
X009444Y007494
Y007239
X011497Y007101
X01342Y00698
Y007835
X013235Y009483
X013425Y009935
X01266Y01086
X011977Y010769
X01461Y00986
X014818Y009483
X015975Y008479
X015916Y007691
X019128Y008316
T02
X009882Y009209
T03
X017324Y003656
Y005577
T04
X01442Y0014
X01542
X01642
X01342
X002468Y005605
Y007337
X01777Y01108
Y01408
T05
X022638Y000984
X000984Y000984
Y014764
X022638
M30
