G04*
G04 #@! TF.GenerationSoftware,Altium Limited,Altium Designer,21.0.8 (223)*
G04*
G04 Layer_Color=8388736*
%FSLAX24Y24*%
%MOIN*%
G70*
G04*
G04 #@! TF.SameCoordinates,8C0F5777-7222-4B99-86F0-090FC40BF16C*
G04*
G04*
G04 #@! TF.FilePolarity,Negative*
G04*
G01*
G75*
G04:AMPARAMS|DCode=26|XSize=41.3mil|YSize=41.3mil|CornerRadius=3.8mil|HoleSize=0mil|Usage=FLASHONLY|Rotation=180.000|XOffset=0mil|YOffset=0mil|HoleType=Round|Shape=RoundedRectangle|*
%AMROUNDEDRECTD26*
21,1,0.0413,0.0337,0,0,180.0*
21,1,0.0337,0.0413,0,0,180.0*
1,1,0.0077,-0.0168,0.0168*
1,1,0.0077,0.0168,0.0168*
1,1,0.0077,0.0168,-0.0168*
1,1,0.0077,-0.0168,-0.0168*
%
%ADD26ROUNDEDRECTD26*%
G04:AMPARAMS|DCode=27|XSize=47.2mil|YSize=59.1mil|CornerRadius=4.1mil|HoleSize=0mil|Usage=FLASHONLY|Rotation=0.000|XOffset=0mil|YOffset=0mil|HoleType=Round|Shape=RoundedRectangle|*
%AMROUNDEDRECTD27*
21,1,0.0472,0.0508,0,0,0.0*
21,1,0.0390,0.0591,0,0,0.0*
1,1,0.0083,0.0195,-0.0254*
1,1,0.0083,-0.0195,-0.0254*
1,1,0.0083,-0.0195,0.0254*
1,1,0.0083,0.0195,0.0254*
%
%ADD27ROUNDEDRECTD27*%
G04:AMPARAMS|DCode=28|XSize=161.4mil|YSize=66.9mil|CornerRadius=5.1mil|HoleSize=0mil|Usage=FLASHONLY|Rotation=90.000|XOffset=0mil|YOffset=0mil|HoleType=Round|Shape=RoundedRectangle|*
%AMROUNDEDRECTD28*
21,1,0.1614,0.0567,0,0,90.0*
21,1,0.1512,0.0669,0,0,90.0*
1,1,0.0102,0.0283,0.0756*
1,1,0.0102,0.0283,-0.0756*
1,1,0.0102,-0.0283,-0.0756*
1,1,0.0102,-0.0283,0.0756*
%
%ADD28ROUNDEDRECTD28*%
G04:AMPARAMS|DCode=29|XSize=15.7mil|YSize=51.2mil|CornerRadius=2.6mil|HoleSize=0mil|Usage=FLASHONLY|Rotation=180.000|XOffset=0mil|YOffset=0mil|HoleType=Round|Shape=RoundedRectangle|*
%AMROUNDEDRECTD29*
21,1,0.0157,0.0461,0,0,180.0*
21,1,0.0106,0.0512,0,0,180.0*
1,1,0.0051,-0.0053,0.0230*
1,1,0.0051,0.0053,0.0230*
1,1,0.0051,0.0053,-0.0230*
1,1,0.0051,-0.0053,-0.0230*
%
%ADD29ROUNDEDRECTD29*%
G04:AMPARAMS|DCode=30|XSize=15.7mil|YSize=51.2mil|CornerRadius=2.6mil|HoleSize=0mil|Usage=FLASHONLY|Rotation=90.000|XOffset=0mil|YOffset=0mil|HoleType=Round|Shape=RoundedRectangle|*
%AMROUNDEDRECTD30*
21,1,0.0157,0.0461,0,0,90.0*
21,1,0.0106,0.0512,0,0,90.0*
1,1,0.0051,0.0230,0.0053*
1,1,0.0051,0.0230,-0.0053*
1,1,0.0051,-0.0230,-0.0053*
1,1,0.0051,-0.0230,0.0053*
%
%ADD30ROUNDEDRECTD30*%
G04:AMPARAMS|DCode=31|XSize=47.2mil|YSize=59.1mil|CornerRadius=4.1mil|HoleSize=0mil|Usage=FLASHONLY|Rotation=90.000|XOffset=0mil|YOffset=0mil|HoleType=Round|Shape=RoundedRectangle|*
%AMROUNDEDRECTD31*
21,1,0.0472,0.0508,0,0,90.0*
21,1,0.0390,0.0591,0,0,90.0*
1,1,0.0083,0.0254,0.0195*
1,1,0.0083,0.0254,-0.0195*
1,1,0.0083,-0.0254,-0.0195*
1,1,0.0083,-0.0254,0.0195*
%
%ADD31ROUNDEDRECTD31*%
G04:AMPARAMS|DCode=32|XSize=17.7mil|YSize=68.9mil|CornerRadius=2.7mil|HoleSize=0mil|Usage=FLASHONLY|Rotation=270.000|XOffset=0mil|YOffset=0mil|HoleType=Round|Shape=RoundedRectangle|*
%AMROUNDEDRECTD32*
21,1,0.0177,0.0636,0,0,270.0*
21,1,0.0124,0.0689,0,0,270.0*
1,1,0.0053,-0.0318,-0.0062*
1,1,0.0053,-0.0318,0.0062*
1,1,0.0053,0.0318,0.0062*
1,1,0.0053,0.0318,-0.0062*
%
%ADD32ROUNDEDRECTD32*%
G04:AMPARAMS|DCode=33|XSize=41.3mil|YSize=41.3mil|CornerRadius=3.8mil|HoleSize=0mil|Usage=FLASHONLY|Rotation=90.000|XOffset=0mil|YOffset=0mil|HoleType=Round|Shape=RoundedRectangle|*
%AMROUNDEDRECTD33*
21,1,0.0413,0.0337,0,0,90.0*
21,1,0.0337,0.0413,0,0,90.0*
1,1,0.0077,0.0168,0.0168*
1,1,0.0077,0.0168,-0.0168*
1,1,0.0077,-0.0168,-0.0168*
1,1,0.0077,-0.0168,0.0168*
%
%ADD33ROUNDEDRECTD33*%
%ADD34O,0.0966X0.0277*%
G04:AMPARAMS|DCode=35|XSize=106.4mil|YSize=86.7mil|CornerRadius=7.9mil|HoleSize=0mil|Usage=FLASHONLY|Rotation=180.000|XOffset=0mil|YOffset=0mil|HoleType=Round|Shape=RoundedRectangle|*
%AMROUNDEDRECTD35*
21,1,0.1064,0.0709,0,0,180.0*
21,1,0.0906,0.0867,0,0,180.0*
1,1,0.0159,-0.0453,0.0354*
1,1,0.0159,0.0453,0.0354*
1,1,0.0159,0.0453,-0.0354*
1,1,0.0159,-0.0453,-0.0354*
%
%ADD35ROUNDEDRECTD35*%
G04:AMPARAMS|DCode=36|XSize=67.1mil|YSize=59.2mil|CornerRadius=16.8mil|HoleSize=0mil|Usage=FLASHONLY|Rotation=90.000|XOffset=0mil|YOffset=0mil|HoleType=Round|Shape=RoundedRectangle|*
%AMROUNDEDRECTD36*
21,1,0.0671,0.0256,0,0,90.0*
21,1,0.0335,0.0592,0,0,90.0*
1,1,0.0336,0.0128,0.0167*
1,1,0.0336,0.0128,-0.0167*
1,1,0.0336,-0.0128,-0.0167*
1,1,0.0336,-0.0128,0.0167*
%
%ADD36ROUNDEDRECTD36*%
G04:AMPARAMS|DCode=37|XSize=137.1mil|YSize=67.1mil|CornerRadius=18.8mil|HoleSize=0mil|Usage=FLASHONLY|Rotation=0.000|XOffset=0mil|YOffset=0mil|HoleType=Round|Shape=RoundedRectangle|*
%AMROUNDEDRECTD37*
21,1,0.1371,0.0295,0,0,0.0*
21,1,0.0996,0.0671,0,0,0.0*
1,1,0.0375,0.0498,-0.0148*
1,1,0.0375,-0.0498,-0.0148*
1,1,0.0375,-0.0498,0.0148*
1,1,0.0375,0.0498,0.0148*
%
%ADD37ROUNDEDRECTD37*%
G04:AMPARAMS|DCode=38|XSize=47.4mil|YSize=67.1mil|CornerRadius=13.8mil|HoleSize=0mil|Usage=FLASHONLY|Rotation=0.000|XOffset=0mil|YOffset=0mil|HoleType=Round|Shape=RoundedRectangle|*
%AMROUNDEDRECTD38*
21,1,0.0474,0.0394,0,0,0.0*
21,1,0.0197,0.0671,0,0,0.0*
1,1,0.0277,0.0098,-0.0197*
1,1,0.0277,-0.0098,-0.0197*
1,1,0.0277,-0.0098,0.0197*
1,1,0.0277,0.0098,0.0197*
%
%ADD38ROUNDEDRECTD38*%
%ADD39C,0.0789*%
%ADD40C,0.0591*%
%ADD41C,0.0669*%
%ADD42C,0.1220*%
%ADD43C,0.0433*%
%ADD44R,0.0669X0.0669*%
%ADD45C,0.0240*%
D26*
X17961Y7584D02*
D03*
X18531D02*
D03*
D27*
X18650Y8312D02*
D03*
X17961D02*
D03*
X5991Y2434D02*
D03*
X6680D02*
D03*
X5996Y3399D02*
D03*
X6685D02*
D03*
D28*
X9882Y10331D02*
D03*
Y12772D02*
D03*
X3563Y12643D02*
D03*
Y10202D02*
D03*
D29*
X14617Y9109D02*
D03*
X14420D02*
D03*
X14223D02*
D03*
X14026D02*
D03*
X13830D02*
D03*
X13633D02*
D03*
X13436D02*
D03*
X13239D02*
D03*
X13042D02*
D03*
X12845D02*
D03*
X12648D02*
D03*
X14814D02*
D03*
Y5683D02*
D03*
X14617D02*
D03*
X14420D02*
D03*
X14223D02*
D03*
X14026D02*
D03*
X13830D02*
D03*
X13633D02*
D03*
X13436D02*
D03*
X13239D02*
D03*
X13042D02*
D03*
X12845D02*
D03*
X12648D02*
D03*
D30*
X12019Y6313D02*
D03*
Y6510D02*
D03*
Y6707D02*
D03*
Y6904D02*
D03*
Y7101D02*
D03*
Y7298D02*
D03*
Y7494D02*
D03*
Y7691D02*
D03*
Y7888D02*
D03*
Y8085D02*
D03*
Y8282D02*
D03*
Y8479D02*
D03*
X15444Y6313D02*
D03*
Y6510D02*
D03*
Y6707D02*
D03*
Y6904D02*
D03*
Y7101D02*
D03*
Y7298D02*
D03*
Y7494D02*
D03*
Y7691D02*
D03*
Y7888D02*
D03*
Y8085D02*
D03*
Y8282D02*
D03*
Y8479D02*
D03*
D31*
X19253Y3661D02*
D03*
Y2972D02*
D03*
Y5610D02*
D03*
Y6299D02*
D03*
D32*
X6051Y4680D02*
D03*
Y4935D02*
D03*
Y5191D02*
D03*
Y5447D02*
D03*
Y5703D02*
D03*
Y5959D02*
D03*
Y6215D02*
D03*
Y6471D02*
D03*
Y6727D02*
D03*
Y6983D02*
D03*
Y7239D02*
D03*
Y7494D02*
D03*
Y7750D02*
D03*
Y8006D02*
D03*
X8751D02*
D03*
Y7750D02*
D03*
Y7494D02*
D03*
Y7239D02*
D03*
Y6983D02*
D03*
Y6727D02*
D03*
Y6471D02*
D03*
Y6215D02*
D03*
Y5959D02*
D03*
Y5703D02*
D03*
Y5447D02*
D03*
Y5191D02*
D03*
Y4935D02*
D03*
Y4680D02*
D03*
D33*
X1347Y11290D02*
D03*
Y11861D02*
D03*
X11977Y11182D02*
D03*
Y11753D02*
D03*
D34*
X3480Y5841D02*
D03*
Y6156D02*
D03*
Y7101D02*
D03*
Y6786D02*
D03*
Y6471D02*
D03*
D35*
X3431Y4719D02*
D03*
X1285D02*
D03*
X3431Y8223D02*
D03*
X1285D02*
D03*
D36*
X8357Y2416D02*
D03*
X7609D02*
D03*
X7615Y3399D02*
D03*
X8363D02*
D03*
D37*
X6749Y9765D02*
D03*
D38*
X5843Y12245D02*
D03*
X6749D02*
D03*
X7654D02*
D03*
D39*
X14046Y14345D02*
D03*
D40*
X17324Y3656D02*
D03*
Y5577D02*
D03*
D41*
X17770Y11080D02*
D03*
X16420Y1400D02*
D03*
X15420D02*
D03*
X14420D02*
D03*
X13420D02*
D03*
D42*
X22638Y984D02*
D03*
X984Y984D02*
D03*
X22638Y14764D02*
D03*
X984D02*
D03*
D43*
X2468Y5605D02*
D03*
Y7337D02*
D03*
D44*
X17770Y14080D02*
D03*
D45*
X13420Y7835D02*
D03*
Y6980D02*
D03*
X12660Y10860D02*
D03*
X14610Y9860D02*
D03*
M02*
