G04*
G04 #@! TF.GenerationSoftware,Altium Limited,Altium Designer,21.0.8 (223)*
G04*
G04 Layer_Color=1930808*
%FSLAX24Y24*%
%MOIN*%
G70*
G04*
G04 #@! TF.SameCoordinates,8C0F5777-7222-4B99-86F0-090FC40BF16C*
G04*
G04*
G04 #@! TF.FilePolarity,Positive*
G04*
G01*
G75*
%ADD11C,0.0118*%
%ADD57C,0.0020*%
D11*
X16416Y1636D02*
Y1164D01*
X16652Y1400D01*
X16337D01*
X13503Y1636D02*
X13345D01*
X13424D01*
Y1164D01*
X13503Y1243D01*
X13049Y6372D02*
X13259D01*
X13049Y6163D01*
Y6110D01*
X13101Y6058D01*
X13206D01*
X13259Y6110D01*
X12734Y6058D02*
X12944D01*
Y6215D01*
X12839Y6163D01*
X12786D01*
X12734Y6215D01*
Y6320D01*
X12786Y6372D01*
X12891D01*
X12944Y6320D01*
X12393Y6596D02*
Y6806D01*
X12602Y6596D01*
X12655D01*
X12707Y6648D01*
Y6753D01*
X12655Y6806D01*
X12393Y6333D02*
X12707D01*
X12550Y6491D01*
Y6281D01*
X12393Y8538D02*
Y8433D01*
Y8485D01*
X12707D01*
X12655Y8538D01*
Y8275D02*
X12707Y8223D01*
Y8118D01*
X12655Y8066D01*
X12602D01*
X12550Y8118D01*
Y8170D01*
Y8118D01*
X12497Y8066D01*
X12445D01*
X12393Y8118D01*
Y8223D01*
X12445Y8275D01*
X13219Y8735D02*
X13114D01*
X13167D01*
Y8420D01*
X13219Y8472D01*
X12747Y8735D02*
X12957D01*
X12747Y8525D01*
Y8472D01*
X12799Y8420D01*
X12904D01*
X12957Y8472D01*
X14873Y6110D02*
X14820Y6058D01*
X14715D01*
X14663Y6110D01*
Y6163D01*
X14715Y6215D01*
X14768D01*
X14715D01*
X14663Y6267D01*
Y6320D01*
X14715Y6372D01*
X14820D01*
X14873Y6320D01*
X14348Y6058D02*
X14453Y6110D01*
X14558Y6215D01*
Y6320D01*
X14505Y6372D01*
X14401D01*
X14348Y6320D01*
Y6267D01*
X14401Y6215D01*
X14558D01*
X15017Y6806D02*
X15070Y6753D01*
Y6648D01*
X15017Y6596D01*
X14965D01*
X14912Y6648D01*
Y6701D01*
Y6648D01*
X14860Y6596D01*
X14807D01*
X14755Y6648D01*
Y6753D01*
X14807Y6806D01*
X15070Y6491D02*
Y6281D01*
X15017D01*
X14807Y6491D01*
X14755D01*
X14794Y8223D02*
X15109D01*
X14952Y8380D01*
Y8170D01*
X15056Y8065D02*
X15109Y8013D01*
Y7908D01*
X15056Y7856D01*
X15004D01*
X14952Y7908D01*
X14899Y7856D01*
X14847D01*
X14794Y7908D01*
Y8013D01*
X14847Y8065D01*
X14899D01*
X14952Y8013D01*
X15004Y8065D01*
X15056D01*
X14952Y8013D02*
Y7908D01*
X6563Y5034D02*
Y4929D01*
Y4981D01*
X6877D01*
X6825Y5034D01*
X6563Y4614D02*
X6877D01*
X6720Y4771D01*
Y4562D01*
X7901Y5034D02*
Y4929D01*
Y4981D01*
X8216D01*
X8164Y5034D01*
X8216Y4562D02*
Y4771D01*
X8059D01*
X8111Y4667D01*
Y4614D01*
X8059Y4562D01*
X7954D01*
X7901Y4614D01*
Y4719D01*
X7954Y4771D01*
X7901Y7875D02*
Y8085D01*
X8111Y7875D01*
X8164D01*
X8216Y7928D01*
Y8033D01*
X8164Y8085D01*
Y7770D02*
X8216Y7718D01*
Y7613D01*
X8164Y7560D01*
X8111D01*
X8059Y7613D01*
X8006Y7560D01*
X7954D01*
X7901Y7613D01*
Y7718D01*
X7954Y7770D01*
X8006D01*
X8059Y7718D01*
X8111Y7770D01*
X8164D01*
X8059Y7718D02*
Y7613D01*
X18006Y14277D02*
Y13962D01*
X17691Y14277D01*
X17613D01*
X17534Y14198D01*
Y14041D01*
X17613Y13962D01*
X17967Y11001D02*
Y11159D01*
Y11080D01*
X17495D01*
X17573Y11001D01*
X6004Y11231D02*
X5926Y11153D01*
X5768D01*
X5690Y11231D01*
Y11310D01*
X5768Y11389D01*
X5847D01*
X5768D01*
X5690Y11468D01*
Y11546D01*
X5768Y11625D01*
X5926D01*
X6004Y11546D01*
X6558Y11625D02*
X6873D01*
X6558Y11310D01*
Y11231D01*
X6636Y11153D01*
X6794D01*
X6873Y11231D01*
X7741Y11625D02*
X7583D01*
X7662D01*
Y11153D01*
X7741Y11231D01*
X2480Y7171D02*
Y7013D01*
Y7092D01*
X2953D01*
X2874Y7171D01*
X2953Y5656D02*
Y5971D01*
X2716D01*
X2795Y5813D01*
Y5735D01*
X2716Y5656D01*
X2559D01*
X2480Y5735D01*
Y5892D01*
X2559Y5971D01*
D57*
X17580Y3656D02*
G03*
X17580Y3656I-256J0D01*
G01*
Y5577D02*
G03*
X17580Y5577I-256J0D01*
G01*
X18248Y6086D02*
G03*
X16400Y6086I-924J-220D01*
G01*
Y3146D02*
G03*
X18248Y3146I924J220D01*
G01*
X14735Y1400D02*
G03*
X14735Y1400I-315J0D01*
G01*
X16735D02*
G03*
X16735Y1400I-315J0D01*
G01*
X15735D02*
G03*
X15735Y1400I-315J0D01*
G01*
X13735D02*
G03*
X13735Y1400I-315J0D01*
G01*
D02*
G03*
X13735Y1400I-315J0D01*
G01*
X16920Y1794D02*
G03*
X16810Y1904I-110J0D01*
G01*
Y896D02*
G03*
X16920Y1006I0J110D01*
G01*
X13014Y1904D02*
G03*
X12920Y1794I8J-102D01*
G01*
X12920Y1006D02*
G03*
X13014Y896I102J-8D01*
G01*
X11516Y11552D02*
G03*
X11516Y11552I-1634J0D01*
G01*
X14873Y8459D02*
G03*
X14873Y8459I-236J0D01*
G01*
X6980Y7967D02*
G03*
X6980Y7967I-201J0D01*
G01*
X7252Y8262D02*
G03*
X7724Y8262I236J0D01*
G01*
X20172Y12580D02*
G03*
X20172Y12580I-2402J0D01*
G01*
X18085Y14080D02*
G03*
X18085Y14080I-315J0D01*
G01*
X18990Y11005D02*
G03*
X18990Y11005I-394J0D01*
G01*
X18164Y12580D02*
G03*
X18164Y12580I-394J0D01*
G01*
X18085Y11080D02*
G03*
X18085Y11080I-315J0D01*
G01*
X6103Y9548D02*
G03*
X6182Y9470I79J0D01*
G01*
X7316D02*
G03*
X7394Y9548I0J79D01*
G01*
X7851Y12462D02*
G03*
X7772Y12540I-79J0D01*
G01*
X7536Y12540D02*
G03*
X7457Y12462I0J-79D01*
G01*
X6630Y12540D02*
G03*
X6552Y12462I0J-79D01*
G01*
X6945Y12462D02*
G03*
X6867Y12540I-79J0D01*
G01*
X5725Y12540D02*
G03*
X5646Y12462I0J-79D01*
G01*
X6040Y12462D02*
G03*
X5961Y12540I-79J0D01*
G01*
X5197Y11422D02*
G03*
X5197Y11422I-1634J0D01*
G01*
X16399Y3146D02*
Y6086D01*
X18249Y3146D02*
Y6086D01*
X14020Y1904D02*
X14820D01*
X14020Y896D02*
X14820D01*
X16020Y1904D02*
X16820D01*
X15014D02*
X15820D01*
X14920Y1800D02*
X15020Y1900D01*
X14820D02*
X14920Y1800D01*
X16020Y896D02*
X16820D01*
X15014D02*
X15816D01*
X14920Y1000D02*
X15020Y900D01*
X14820D02*
X14920Y1000D01*
X13014Y1904D02*
X13820D01*
X13014Y896D02*
X13816D01*
X16920Y1006D02*
Y1794D01*
X13920Y1000D02*
Y1800D01*
X12920Y1006D02*
Y1794D01*
X16820Y1900D02*
Y1904D01*
Y896D02*
Y900D01*
X15920Y1800D02*
X16020Y1900D01*
X15820D02*
X15920Y1800D01*
Y996D02*
X16020Y896D01*
X15820D02*
Y900D01*
X15920Y1000D01*
X15816Y896D02*
X15820Y900D01*
X14820Y1900D02*
Y1904D01*
Y896D02*
Y900D01*
X13920Y1800D02*
X14020Y1900D01*
X13820D02*
X13920Y1800D01*
X13816Y896D02*
X13820Y900D01*
X13920Y996D02*
X14020Y896D01*
X13920Y996D02*
Y1000D01*
X13820Y900D02*
X13920Y1000D01*
X13820Y896D02*
Y900D01*
X18561Y7426D02*
Y7741D01*
X17931Y7426D02*
Y7741D01*
X18561D01*
X17931Y7426D02*
X18561D01*
X18207Y7544D02*
X18285Y7623D01*
X18207D02*
X18285Y7544D01*
X17911Y8558D02*
X18699D01*
X17911Y8066D02*
X18699D01*
Y8558D01*
X17911Y8066D02*
Y8558D01*
X18173Y8565D02*
X18175D01*
X18173D02*
Y8582D01*
X17747D02*
X18173D01*
X17747Y8040D02*
Y8582D01*
Y8040D02*
X17749D01*
X18176D01*
X18177D02*
Y8063D01*
X18433Y8561D02*
Y8584D01*
X18434D02*
X18861D01*
X18863Y8041D02*
Y8584D01*
X18437Y8041D02*
X18863D01*
X18437D02*
Y8059D01*
X12265Y6274D02*
X12343Y6353D01*
X12265D02*
X12343Y6274D01*
X11989Y6471D02*
X12619D01*
X11989Y6156D02*
X12619D01*
X11989D02*
Y6471D01*
X12619Y6156D02*
Y6471D01*
X11999Y7367D02*
X12786D01*
X11999Y6874D02*
X12786D01*
X11999D02*
Y7367D01*
X12786Y6874D02*
Y7367D01*
X12523Y7373D02*
X12524D01*
Y7391D01*
X12950D01*
Y6849D02*
Y7391D01*
X12949Y6849D02*
X12950D01*
X12521D02*
X12949D01*
X12520D02*
Y6872D01*
X12265Y7369D02*
Y7392D01*
X11836D02*
X12264D01*
X11835Y6850D02*
Y7392D01*
Y6850D02*
X12261D01*
Y6868D01*
X10197Y9544D02*
Y9918D01*
X9567Y9544D02*
Y9918D01*
X10197Y13186D02*
Y13560D01*
X9567Y13186D02*
Y13560D01*
Y9544D02*
X10197D01*
X9567Y13560D02*
X10197D01*
X9410Y9997D02*
X10354D01*
X9292Y10036D02*
X10473D01*
X9193Y10075D02*
X10571D01*
X9114Y10115D02*
X10650D01*
X9055Y10154D02*
X10709D01*
X8977Y10193D02*
X10788D01*
X8917Y10233D02*
X10847D01*
X8878Y10272D02*
X10886D01*
X8819Y10312D02*
X10945D01*
X8780Y10351D02*
X10984D01*
X8740Y10390D02*
X11024D01*
X8701Y10430D02*
X11063D01*
X8858Y13186D02*
X10906D01*
X8248Y9918D02*
X11516D01*
X8662Y10469D02*
X11103D01*
X8642Y10508D02*
X11122D01*
X8603Y10548D02*
X11162D01*
X8563Y10587D02*
X11201D01*
X8543Y10627D02*
X11221D01*
X9547Y9957D02*
X10217D01*
X10906Y13186D02*
X11516Y12575D01*
X8248D02*
X8858Y13186D01*
X9843Y11591D02*
X9921Y11512D01*
X9843D02*
X9921Y11591D01*
X11516Y9918D02*
Y12575D01*
X8248Y9918D02*
Y12575D01*
X15818Y7829D02*
Y7947D01*
Y8420D02*
Y8538D01*
Y8026D02*
Y8144D01*
Y8223D02*
Y8341D01*
Y7632D02*
Y7750D01*
Y7435D02*
Y7554D01*
X15148Y8538D02*
X15818D01*
X15148Y7435D02*
X15818D01*
X15148Y7750D02*
X15818D01*
X15148Y7947D02*
X15818D01*
X15148Y8026D02*
X15818D01*
X15148Y8144D02*
X15818D01*
X15148Y8223D02*
X15818D01*
X15148Y8341D02*
X15818D01*
X15148Y8420D02*
X15818D01*
X15148Y7829D02*
X15818D01*
X14755Y9483D02*
X14873D01*
X14558D02*
X14676D01*
X14361D02*
X14479D01*
X14164D02*
X14282D01*
X13967D02*
X14085D01*
X14873Y8813D02*
Y9483D01*
X14755Y8813D02*
Y9483D01*
X14676Y8813D02*
Y9483D01*
X13967Y8813D02*
Y9483D01*
X14361Y8813D02*
Y9483D01*
X14282Y8813D02*
Y9483D01*
X14164Y8813D02*
Y9483D01*
X14085Y8813D02*
Y9483D01*
X13889Y8813D02*
Y9483D01*
X14479Y8813D02*
Y9483D01*
X14558Y8813D02*
Y9483D01*
X14755Y8813D02*
X14873D01*
X14558D02*
X14676D01*
X14361D02*
X14479D01*
X14164D02*
X14282D01*
X13967D02*
X14085D01*
X14912D02*
X15148Y8577D01*
Y8420D02*
Y8538D01*
Y8223D02*
Y8341D01*
Y8026D02*
Y8144D01*
Y7829D02*
Y7947D01*
Y7632D02*
Y7750D01*
Y7632D02*
X15818D01*
X15148Y7554D02*
X15818D01*
X15148Y7435D02*
Y7554D01*
X15818Y7042D02*
Y7160D01*
Y7239D02*
Y7357D01*
Y6845D02*
Y6963D01*
Y6648D02*
Y6766D01*
Y6451D02*
Y6569D01*
Y6254D02*
Y6372D01*
X15148Y7239D02*
X15818D01*
X15148Y7160D02*
X15818D01*
X15148Y7357D02*
X15818D01*
X15148Y7042D02*
X15818D01*
X15148Y6963D02*
X15818D01*
X15148Y6845D02*
X15818D01*
X15148Y6766D02*
X15818D01*
X15148Y6648D02*
X15818D01*
X15148Y6569D02*
X15818D01*
X15148Y6254D02*
X15818D01*
X15148Y6097D02*
Y8577D01*
Y7239D02*
Y7357D01*
Y7042D02*
Y7160D01*
Y6845D02*
Y6963D01*
Y6648D02*
Y6766D01*
Y6451D02*
Y6569D01*
Y6451D02*
X15818D01*
X15148Y6372D02*
X15818D01*
X15148Y6254D02*
Y6372D01*
X15030Y5979D02*
X15148Y6097D01*
X14755Y5979D02*
X14873D01*
X14361D02*
X14479D01*
X14558D02*
X14676D01*
X14164D02*
X14282D01*
X13967D02*
X14085D01*
X14873Y5309D02*
Y5979D01*
X14755Y5309D02*
Y5979D01*
X14282Y5309D02*
Y5979D01*
X14676Y5309D02*
Y5979D01*
X14164Y5309D02*
Y5979D01*
X14085Y5309D02*
Y5979D01*
X14361Y5309D02*
Y5979D01*
X14479Y5309D02*
Y5979D01*
X13967Y5309D02*
Y5979D01*
X14558Y5309D02*
Y5979D01*
X14755Y5309D02*
X14873D01*
X14558D02*
X14676D01*
X14164D02*
X14282D01*
X13967D02*
X14085D01*
X14361D02*
X14479D01*
X13770Y9483D02*
X13889D01*
X13770Y8813D02*
X13889D01*
X13770D02*
Y9483D01*
X13692Y8813D02*
Y9483D01*
X12432Y8813D02*
X14912D01*
X13574Y9483D02*
X13692D01*
X13574Y8813D02*
X13692D01*
X13574D02*
Y9483D01*
X13495Y8813D02*
Y9483D01*
X13377D02*
X13495D01*
X13377Y8813D02*
X13495D01*
X13377D02*
Y9483D01*
X13298Y8813D02*
Y9483D01*
X13180D02*
X13298D01*
X13180Y8813D02*
X13298D01*
X13180D02*
Y9483D01*
X12983D02*
X13101D01*
X12786D02*
X12904D01*
X12589D02*
X12707D01*
X13101Y8813D02*
Y9483D01*
X12983Y8813D02*
Y9483D01*
X12904Y8813D02*
Y9483D01*
X12786Y8813D02*
Y9483D01*
X12707Y8813D02*
Y9483D01*
X12589Y8813D02*
Y9483D01*
X12983Y8813D02*
X13101D01*
X12786D02*
X12904D01*
X12589D02*
X12707D01*
X12314Y8695D02*
X12432Y8813D01*
X11644Y8538D02*
X12314D01*
Y8420D02*
Y8538D01*
X11644Y8420D02*
Y8538D01*
Y8420D02*
X12314D01*
X11644Y8341D02*
X12314D01*
Y8223D02*
Y8341D01*
X11644Y8223D02*
Y8341D01*
Y8223D02*
X12314D01*
X11644Y8144D02*
X12314D01*
Y8026D02*
Y8144D01*
X11644Y8026D02*
Y8144D01*
Y8026D02*
X12314D01*
X11644Y7947D02*
X12314D01*
X11644Y7829D02*
Y7947D01*
X12314Y7829D02*
Y7947D01*
X11644Y7829D02*
X12314D01*
X11644Y7750D02*
X12314D01*
Y6097D02*
X12432Y5979D01*
X15030D01*
X13377D02*
X13495D01*
X13180D02*
X13298D01*
X13574D02*
X13692D01*
X13770D02*
X13889D01*
X12983D02*
X13101D01*
X12786D02*
X12904D01*
X12589D02*
X12707D01*
X13692Y5309D02*
Y5979D01*
X13770Y5309D02*
Y5979D01*
X13298Y5309D02*
Y5979D01*
X13889Y5309D02*
Y5979D01*
X13574Y5309D02*
Y5979D01*
X13101Y5309D02*
Y5979D01*
X13495Y5309D02*
Y5979D01*
X13180Y5309D02*
Y5979D01*
X13377Y5309D02*
Y5979D01*
X12904Y5309D02*
Y5979D01*
X12983Y5309D02*
Y5979D01*
X12786Y5309D02*
Y5979D01*
X12707Y5309D02*
Y5979D01*
X12589Y5309D02*
Y5979D01*
X13574Y5309D02*
X13692D01*
X13180D02*
X13298D01*
X13377D02*
X13495D01*
X13770D02*
X13889D01*
X12983D02*
X13101D01*
X12786D02*
X12904D01*
X12589D02*
X12707D01*
X12314Y7632D02*
Y7750D01*
X11644Y7632D02*
Y7750D01*
Y7632D02*
X12314D01*
X11644Y7554D02*
X12314D01*
Y7435D02*
Y7554D01*
X11644Y7435D02*
Y7554D01*
Y7435D02*
X12314D01*
Y6097D02*
Y8695D01*
X11644Y7357D02*
X12314D01*
Y7239D02*
Y7357D01*
X11644Y7239D02*
Y7357D01*
Y7239D02*
X12314D01*
X11644Y7160D02*
X12314D01*
Y7042D02*
Y7160D01*
X11644Y7042D02*
Y7160D01*
Y7042D02*
X12314D01*
X11644Y6963D02*
X12314D01*
Y6845D02*
Y6963D01*
X11644Y6845D02*
Y6963D01*
Y6845D02*
X12314D01*
X11644Y6766D02*
X12314D01*
Y6648D02*
Y6766D01*
X11644Y6648D02*
Y6766D01*
Y6648D02*
X12314D01*
X11644Y6569D02*
X12314D01*
Y6451D02*
Y6569D01*
X11644Y6451D02*
Y6569D01*
Y6451D02*
X12314D01*
X11644Y6372D02*
X12314D01*
Y6254D02*
Y6372D01*
X11644Y6254D02*
Y6372D01*
Y6254D02*
X12314D01*
X19007Y2923D02*
X19499D01*
X19007Y3711D02*
X19499D01*
X19214Y3278D02*
X19292Y3356D01*
X19214D02*
X19292Y3278D01*
X19499Y2923D02*
Y3711D01*
X19007Y2923D02*
Y3711D01*
Y6348D02*
X19499D01*
X19007Y5561D02*
X19499D01*
X19214Y5915D02*
X19292Y5994D01*
X19214D02*
X19292Y5915D01*
X19007Y5561D02*
Y6348D01*
X19499Y5561D02*
Y6348D01*
X15936Y6173D02*
X16015Y6094D01*
X15936D02*
X16015Y6173D01*
X15818Y5819D02*
Y6449D01*
X16133Y5819D02*
Y6449D01*
X15818Y5819D02*
X16133D01*
X15818Y6449D02*
X16133D01*
X13078Y8426D02*
X13393D01*
X13078Y9056D02*
X13393D01*
X13078Y8426D02*
Y9056D01*
X13393Y8426D02*
Y9056D01*
X13196Y8702D02*
X13275Y8781D01*
X13196D02*
X13275Y8702D01*
X14774Y8791D02*
X14853Y8712D01*
X14774D02*
X14853Y8791D01*
X14971Y8436D02*
Y9066D01*
X14656Y8436D02*
Y9066D01*
X14971D01*
X14656Y8436D02*
X14971D01*
X15936Y9484D02*
X16015Y9405D01*
X15936D02*
X16015Y9484D01*
X15818Y9130D02*
Y9760D01*
X16133Y9130D02*
Y9760D01*
X15818Y9130D02*
X16133D01*
X15818Y9760D02*
X16133D01*
X14968Y7963D02*
Y7981D01*
X15394D01*
Y7439D02*
Y7981D01*
X14965Y7439D02*
X15393D01*
X14964D02*
Y7462D01*
X14709Y7959D02*
Y7982D01*
X14280D02*
X14707D01*
X14279D02*
X14280D01*
X14279Y7440D02*
Y7982D01*
Y7440D02*
X14705D01*
Y7458D01*
X14706D01*
X14443Y7464D02*
Y7957D01*
X15230Y7464D02*
Y7957D01*
X14443D02*
X15230D01*
X14443Y7464D02*
X15230D01*
X8413Y4414D02*
Y8272D01*
Y7947D02*
Y8065D01*
X9220D01*
X5598Y4620D02*
X6405D01*
Y4739D01*
X5598Y4620D02*
Y4739D01*
X6405D01*
X5598Y4876D02*
X6405D01*
Y4994D01*
X5598Y4876D02*
Y4994D01*
X6405D01*
X5598Y5132D02*
X6405D01*
Y5250D01*
X5598Y5132D02*
Y5250D01*
X6405D01*
X5598Y5388D02*
X6405D01*
Y5506D01*
X5598Y5388D02*
Y5506D01*
X6405D01*
X5598Y5644D02*
X6405D01*
Y5762D01*
X5598Y5644D02*
Y5762D01*
X6405D01*
X5598Y5900D02*
X6405D01*
Y6018D01*
X5598Y5900D02*
Y6018D01*
X6405D01*
X5598Y6156D02*
X6405D01*
Y6274D01*
X5598Y6156D02*
Y6274D01*
X6405D01*
X5598Y6412D02*
X6405D01*
Y6530D01*
X5598Y6412D02*
Y6530D01*
X6405D01*
X5598Y6668D02*
X6405D01*
Y6786D01*
X5598Y6668D02*
Y6786D01*
X6405D01*
X5598Y6924D02*
X6405D01*
Y7042D01*
X5598Y6924D02*
Y7042D01*
X6405D01*
X5598Y7180D02*
X6405D01*
Y7298D01*
X5598Y7180D02*
Y7298D01*
X6405D01*
X5598Y7435D02*
X6405D01*
Y7554D01*
X5598Y7435D02*
Y7554D01*
X6405D01*
X5598Y7691D02*
X6405D01*
Y7809D01*
X5598D02*
X6405D01*
X5598Y7947D02*
X6405D01*
Y8065D01*
X5598Y7947D02*
Y8065D01*
X6405D01*
Y4414D02*
X8413D01*
X6405Y8272D02*
X8413D01*
X6405Y4414D02*
Y8272D01*
X5598Y7691D02*
Y7809D01*
X8413Y7947D02*
Y8065D01*
X9220Y7947D02*
Y8065D01*
X8413Y7947D02*
X9220D01*
X8413Y7809D02*
X9220D01*
X8413Y7691D02*
Y7809D01*
X9220Y7691D02*
Y7809D01*
X8413Y7691D02*
X9220D01*
X8413Y7554D02*
X9220D01*
X8413Y7435D02*
Y7554D01*
X9220Y7435D02*
Y7554D01*
X8413Y7435D02*
X9220D01*
X8413Y7298D02*
X9220D01*
X8413Y7180D02*
Y7298D01*
X9220Y7180D02*
Y7298D01*
X8413Y7180D02*
X9220D01*
X8413Y7042D02*
X9220D01*
X8413Y6924D02*
Y7042D01*
X9220Y6924D02*
Y7042D01*
X8413Y6924D02*
X9220D01*
X8413Y6786D02*
X9220D01*
X8413Y6668D02*
Y6786D01*
X9220Y6668D02*
Y6786D01*
X8413Y6668D02*
X9220D01*
X8413Y6530D02*
X9220D01*
X8413Y6412D02*
Y6530D01*
X9220Y6412D02*
Y6530D01*
X8413Y6412D02*
X9220D01*
X8413Y6274D02*
X9220D01*
X8413Y6156D02*
Y6274D01*
X9220Y6156D02*
Y6274D01*
X8413Y6156D02*
X9220D01*
X8413Y6018D02*
X9220D01*
X8413Y5900D02*
Y6018D01*
X9220Y5900D02*
Y6018D01*
X8413Y5900D02*
X9220D01*
X8413Y5762D02*
X9220D01*
X8413Y5644D02*
Y5762D01*
X9220Y5644D02*
Y5762D01*
X8413Y5644D02*
X9220D01*
X8413Y5506D02*
X9220D01*
X8413Y5388D02*
Y5506D01*
X9220Y5388D02*
Y5506D01*
X8413Y5388D02*
X9220D01*
X8413Y5250D02*
X9220D01*
X8413Y5132D02*
Y5250D01*
X9220Y5132D02*
Y5250D01*
X8413Y5132D02*
X9220D01*
X8413Y4994D02*
X9220D01*
X8413Y4876D02*
Y4994D01*
Y4876D02*
X9220D01*
X8413Y4739D02*
X9220D01*
X8413Y4620D02*
Y4739D01*
X9220Y4620D02*
Y4739D01*
X8413Y4620D02*
X9220D01*
Y4876D02*
Y4994D01*
X8098Y5034D02*
Y5349D01*
X8728Y5034D02*
Y5349D01*
X8098D02*
X8728D01*
X8098Y5034D02*
X8728D01*
X8374Y5231D02*
X8452Y5152D01*
X8374D02*
X8452Y5231D01*
X1308Y11536D02*
X1387Y11615D01*
X1308D02*
X1387Y11536D01*
X1190Y11261D02*
Y11891D01*
X1505Y11261D02*
Y11891D01*
X1190D02*
X1505D01*
X1190Y11261D02*
X1505D01*
X11938Y11428D02*
X12017Y11507D01*
X11938D02*
X12017Y11428D01*
X11820Y11152D02*
Y11782D01*
X12135Y11152D02*
Y11782D01*
X11820D02*
X12135D01*
X11820Y11152D02*
X12135D01*
X2949Y8617D02*
X3913D01*
X803Y8611D02*
X1768D01*
X2949Y7987D02*
Y8617D01*
X803Y7987D02*
Y8611D01*
X1768Y7987D02*
Y8611D01*
X3913Y7833D02*
Y8617D01*
X112Y7987D02*
X3734D01*
Y7833D02*
X3913D01*
X3734Y7199D02*
X3925D01*
Y7002D02*
Y7199D01*
X3734Y7002D02*
X3925D01*
X3734Y6884D02*
X3925D01*
Y6687D02*
Y6884D01*
X3734Y6687D02*
X3925D01*
X3734Y6569D02*
X3925D01*
X112Y4955D02*
Y7987D01*
X803Y4319D02*
Y4955D01*
Y4319D02*
X1768D01*
Y4955D01*
X112D02*
X3734D01*
X2949Y4319D02*
Y4955D01*
Y4319D02*
X3913D01*
X3734Y4955D02*
Y7987D01*
Y5103D02*
X3913D01*
X3734Y6372D02*
X3925D01*
X3734Y5939D02*
X3925D01*
X3734Y5743D02*
X3925D01*
X3740Y6254D02*
X3931D01*
X3740Y6057D02*
X3931D01*
X3913Y4319D02*
Y5103D01*
X3925Y6372D02*
Y6569D01*
Y5743D02*
Y5939D01*
X3931Y6057D02*
Y6254D01*
X8733Y2022D02*
Y2822D01*
X8574Y2022D02*
Y2822D01*
X8357Y2494D02*
X8515Y2652D01*
X8298Y2613D02*
X8456Y2770D01*
X8357Y2494D02*
Y2573D01*
X8278Y2494D02*
X8357Y2573D01*
X8298Y2613D02*
Y2691D01*
X8180Y2416D02*
X8377D01*
X8219Y2613D02*
X8298Y2691D01*
X8180Y2219D02*
Y2613D01*
X7983Y2219D02*
X8180Y2416D01*
X7983Y2613D02*
X8180Y2416D01*
X7233Y2822D02*
X8733D01*
X7233Y2022D02*
X8733D01*
X7983Y2219D02*
Y2613D01*
X7786Y2416D02*
X7983D01*
X7393Y2022D02*
Y2822D01*
X7233Y2022D02*
Y2822D01*
X5941Y2188D02*
X6729D01*
X5941Y2680D02*
X6729D01*
X5941Y2188D02*
Y2680D01*
X6729Y2188D02*
Y2680D01*
X6465Y2181D02*
X6467D01*
Y2163D02*
Y2181D01*
Y2163D02*
X6893D01*
Y2706D01*
X6891D02*
X6893D01*
X6464D02*
X6891D01*
X6463Y2683D02*
Y2706D01*
X6207Y2162D02*
Y2185D01*
X5779Y2162D02*
X6206D01*
X5777D02*
Y2704D01*
X6204D01*
Y2687D02*
Y2704D01*
X18597Y10611D02*
Y11399D01*
X18203Y11005D02*
X18990Y11005D01*
X6182Y9470D02*
X7316D01*
X6103Y9548D02*
Y10275D01*
X7394Y9548D02*
Y10275D01*
X5428D02*
X8069D01*
X5428D02*
Y11735D01*
X8069Y10275D02*
Y11735D01*
X5428D02*
X8069D01*
X6945D02*
Y12462D01*
X6040Y11735D02*
Y12462D01*
X6552Y11735D02*
Y12462D01*
X5646Y11735D02*
Y12462D01*
X7851Y11749D02*
Y12462D01*
X7457Y11749D02*
Y12462D01*
X7536Y12540D02*
X7772D01*
X6630D02*
X6867D01*
X5725D02*
X5961D01*
X1929Y9789D02*
Y12446D01*
X5197Y9789D02*
Y12446D01*
X3523Y11383D02*
X3602Y11462D01*
X3523D02*
X3602Y11383D01*
X1929Y12446D02*
X2539Y13056D01*
X4586D02*
X5197Y12446D01*
X3228Y9828D02*
X3897D01*
X2224Y10497D02*
X4901D01*
X2244Y10458D02*
X4882D01*
X2283Y10418D02*
X4842D01*
X2323Y10379D02*
X4803D01*
X2342Y10340D02*
X4783D01*
X1929Y9789D02*
X5197D01*
X2539Y13056D02*
X4586D01*
X2382Y10300D02*
X4744D01*
X2421Y10261D02*
X4704D01*
X2460Y10222D02*
X4665D01*
X2500Y10182D02*
X4626D01*
X2559Y10143D02*
X4567D01*
X2598Y10104D02*
X4527D01*
X2657Y10064D02*
X4468D01*
X2736Y10025D02*
X4390D01*
X2795Y9985D02*
X4330D01*
X2874Y9946D02*
X4252D01*
X2972Y9907D02*
X4153D01*
X3090Y9867D02*
X4035D01*
X3248Y13430D02*
X3878D01*
X3248Y9415D02*
X3878D01*
X3248Y13056D02*
Y13430D01*
X3878Y13056D02*
Y13430D01*
X3248Y9415D02*
Y9789D01*
X3878Y9415D02*
Y9789D01*
X6472Y3128D02*
Y3146D01*
Y3128D02*
X6899D01*
Y3670D01*
X6470D02*
X6897D01*
X6469Y3647D02*
Y3670D01*
X6213Y3127D02*
Y3150D01*
X5785Y3127D02*
X6212D01*
X5783D02*
X5785D01*
X5783D02*
Y3669D01*
X6209D01*
Y3651D02*
Y3669D01*
Y3651D02*
X6211D01*
X5947Y3152D02*
Y3645D01*
X6735Y3152D02*
Y3645D01*
X5947Y3152D02*
X6735D01*
X5947Y3645D02*
X6735D01*
X7239Y3805D02*
X8739D01*
X7239Y3005D02*
X8739D01*
X7792Y3399D02*
X7989D01*
Y3595D02*
X8185Y3399D01*
X7989Y3202D02*
X8185Y3399D01*
X7989Y3202D02*
Y3595D01*
X8579Y3005D02*
Y3805D01*
X8739Y3005D02*
Y3805D01*
X7398Y3005D02*
Y3805D01*
X7239Y3005D02*
Y3805D01*
X8185Y3399D02*
X8382D01*
X8185Y3202D02*
Y3595D01*
X8284Y3477D02*
X8363Y3556D01*
Y3477D02*
Y3556D01*
Y3477D02*
X8520Y3635D01*
X8225Y3595D02*
X8304Y3674D01*
Y3595D02*
Y3674D01*
Y3595D02*
X8461Y3753D01*
M02*
