G04*
G04 #@! TF.GenerationSoftware,Altium Limited,Altium Designer,21.0.8 (223)*
G04*
G04 Layer_Color=32768*
%FSLAX24Y24*%
%MOIN*%
G70*
G04*
G04 #@! TF.SameCoordinates,8C0F5777-7222-4B99-86F0-090FC40BF16C*
G04*
G04*
G04 #@! TF.FilePolarity,Positive*
G04*
G01*
G75*
%ADD57C,0.0020*%
D57*
X17911Y8558D02*
X18699D01*
X17911Y8066D02*
X18699D01*
X18266Y8273D02*
X18344Y8351D01*
X18266D02*
X18344Y8273D01*
X18699Y8066D02*
Y8558D01*
X17911Y8066D02*
Y8558D01*
X11999Y7367D02*
X12786D01*
X11999Y6874D02*
X12786D01*
X12353Y7160D02*
X12432Y7081D01*
X12353D02*
X12432Y7160D01*
X11999Y6874D02*
Y7367D01*
X12786Y6874D02*
Y7367D01*
X14443Y7464D02*
Y7957D01*
X15230Y7464D02*
Y7957D01*
X14797Y7671D02*
X14876Y7750D01*
X14797D02*
X14876Y7671D01*
X14443Y7957D02*
X15230D01*
X14443Y7464D02*
X15230D01*
X5941Y2188D02*
X6729D01*
X5941Y2680D02*
X6729D01*
X6296Y2394D02*
X6374Y2473D01*
X6296D02*
X6374Y2394D01*
X5941Y2188D02*
Y2680D01*
X6729Y2188D02*
Y2680D01*
X5947Y3152D02*
Y3645D01*
X6735Y3152D02*
Y3645D01*
X6302Y3438D02*
X6380Y3359D01*
X6302D02*
X6380Y3438D01*
X5947Y3152D02*
X6735D01*
X5947Y3645D02*
X6735D01*
M02*
