G04*
G04 #@! TF.GenerationSoftware,Altium Limited,Altium Designer,21.0.8 (223)*
G04*
G04 Layer_Color=16777215*
%FSLAX24Y24*%
%MOIN*%
G70*
G04*
G04 #@! TF.SameCoordinates,8C0F5777-7222-4B99-86F0-090FC40BF16C*
G04*
G04*
G04 #@! TF.FilePolarity,Positive*
G04*
G01*
G75*
%ADD47C,0.0100*%
%ADD50C,0.0150*%
%ADD58C,0.0060*%
D47*
X-1654Y14764D02*
X-1454Y14164D01*
X-1854D02*
X-1654Y14764D01*
X-1854Y1584D02*
X-1654Y984D01*
X-1454Y1584D01*
X-1654Y8924D02*
Y14764D01*
Y984D02*
Y6504D01*
X-1754Y14764D02*
X274D01*
X-1754Y984D02*
X274D01*
X984Y17323D02*
X1584Y17523D01*
X984Y17323D02*
X1584Y17123D01*
X22038D02*
X22638Y17323D01*
X22038Y17523D02*
X22638Y17323D01*
X984D02*
X10441D01*
X12861D02*
X22638D01*
X984Y15474D02*
Y17423D01*
X22638Y15474D02*
Y17423D01*
Y13006D02*
Y16522D01*
X20880Y14764D02*
X24396D01*
X22638Y-420D02*
Y2388D01*
X21234Y984D02*
X24042D01*
X984Y-595D02*
Y2563D01*
X-595Y984D02*
X2563D01*
X984Y13354D02*
Y16174D01*
X-426Y14764D02*
X2394D01*
D50*
X26534Y20477D02*
X26401Y20610D01*
X26134D01*
X26001Y20477D01*
Y20343D01*
X26134Y20210D01*
X26401D01*
X26534Y20077D01*
Y19943D01*
X26401Y19810D01*
X26134D01*
X26001Y19943D01*
X27334Y20343D02*
X26934D01*
X26801Y20210D01*
Y19943D01*
X26934Y19810D01*
X27334D01*
X27734Y20343D02*
X28000D01*
X28134Y20210D01*
Y19810D01*
X27734D01*
X27601Y19943D01*
X27734Y20077D01*
X28134D01*
X28400Y19810D02*
X28667D01*
X28534D01*
Y20610D01*
X28400D01*
X29467Y19810D02*
X29200D01*
X29067Y19943D01*
Y20210D01*
X29200Y20343D01*
X29467D01*
X29600Y20210D01*
Y20077D01*
X29067D01*
X29866Y20343D02*
X30000D01*
Y20210D01*
X29866D01*
Y20343D01*
Y19943D02*
X30000D01*
Y19810D01*
X29866D01*
Y19943D01*
X31333Y19810D02*
X31599D01*
X31466D01*
Y20610D01*
X31333Y20477D01*
X31999Y20343D02*
X32132D01*
Y20210D01*
X31999D01*
Y20343D01*
Y19943D02*
X32132D01*
Y19810D01*
X31999D01*
Y19943D01*
X32666Y19810D02*
X32932D01*
X32799D01*
Y20610D01*
X32666Y20477D01*
X26001Y22539D02*
Y21873D01*
X26134Y21739D01*
X26401D01*
X26534Y21873D01*
Y22539D01*
X26801Y21739D02*
Y22272D01*
X27201D01*
X27334Y22139D01*
Y21739D01*
X27601D02*
X27867D01*
X27734D01*
Y22272D01*
X27601D01*
X28400Y22406D02*
Y22272D01*
X28267D01*
X28534D01*
X28400D01*
Y21873D01*
X28534Y21739D01*
X28933D02*
X29333D01*
X29467Y21873D01*
X29333Y22006D01*
X29067D01*
X28933Y22139D01*
X29067Y22272D01*
X29467D01*
X29733D02*
X29866D01*
Y22139D01*
X29733D01*
Y22272D01*
Y21873D02*
X29866D01*
Y21739D01*
X29733D01*
Y21873D01*
X31199Y21739D02*
Y22272D01*
X31333D01*
X31466Y22139D01*
Y21739D01*
Y22139D01*
X31599Y22272D01*
X31732Y22139D01*
Y21739D01*
X31999D02*
X32266D01*
X32132D01*
Y22272D01*
X31999D01*
X32666Y21739D02*
X32932D01*
X32799D01*
Y22539D01*
X32666D01*
X33332Y21739D02*
X33599D01*
X33465D01*
Y22539D01*
X33332D01*
X33998Y21739D02*
X34265D01*
X34132D01*
Y22272D01*
X33998D01*
X34665Y21739D02*
Y22272D01*
X34798D01*
X34931Y22139D01*
Y21739D01*
Y22139D01*
X35065Y22272D01*
X35198Y22139D01*
Y21739D01*
X35865D02*
X35598D01*
X35465Y21873D01*
Y22139D01*
X35598Y22272D01*
X35865D01*
X35998Y22139D01*
Y22006D01*
X35465D01*
X36398Y22406D02*
Y22272D01*
X36264D01*
X36531D01*
X36398D01*
Y21873D01*
X36531Y21739D01*
X37331D02*
X37064D01*
X36931Y21873D01*
Y22139D01*
X37064Y22272D01*
X37331D01*
X37464Y22139D01*
Y22006D01*
X36931D01*
X37731Y22272D02*
Y21739D01*
Y22006D01*
X37864Y22139D01*
X37997Y22272D01*
X38130D01*
X38530Y21739D02*
X38930D01*
X39063Y21873D01*
X38930Y22006D01*
X38664D01*
X38530Y22139D01*
X38664Y22272D01*
X39063D01*
D58*
X-1793Y6664D02*
X-1893Y6764D01*
Y6964D01*
X-1793Y7064D01*
X-1694D01*
X-1594Y6964D01*
Y6864D01*
Y6964D01*
X-1494Y7064D01*
X-1394D01*
X-1294Y6964D01*
Y6764D01*
X-1394Y6664D01*
X-1893Y7664D02*
Y7264D01*
X-1594D01*
X-1694Y7464D01*
Y7564D01*
X-1594Y7664D01*
X-1394D01*
X-1294Y7564D01*
Y7364D01*
X-1394Y7264D01*
X-1294Y7864D02*
X-1394D01*
Y7964D01*
X-1294D01*
Y7864D01*
X-1793Y8364D02*
X-1893Y8464D01*
Y8664D01*
X-1793Y8764D01*
X-1394D01*
X-1294Y8664D01*
Y8464D01*
X-1394Y8364D01*
X-1793D01*
X11001Y17563D02*
X10601D01*
Y17263D01*
X10801Y17363D01*
X10901D01*
X11001Y17263D01*
Y17063D01*
X10901Y16963D01*
X10701D01*
X10601Y17063D01*
X11601Y17563D02*
X11201D01*
Y17263D01*
X11401Y17363D01*
X11501D01*
X11601Y17263D01*
Y17063D01*
X11501Y16963D01*
X11301D01*
X11201Y17063D01*
X11801Y16963D02*
Y17063D01*
X11901D01*
Y16963D01*
X11801D01*
X12301Y17463D02*
X12401Y17563D01*
X12601D01*
X12701Y17463D01*
Y17063D01*
X12601Y16963D01*
X12401D01*
X12301Y17063D01*
Y17463D01*
M02*
