  0
SECTION
  2
HEADER
  9
$ACADVER
  1
AC1027
  9
$ACADMAINTVER
 70
   105
  9
$DWGCODEPAGE
  3
ANSI_1252
  9
$REQUIREDVERSIONS
160
                 0
  9
$INSBASE
 10
0.0
 20
0.0
 30
0.0
  9
$EXTMIN
 10
1.000000000000000E+20
 20
1.000000000000000E+20
 30
1.000000000000000E+20
  9
$EXTMAX
 10
-1.000000000000000E+20
 20
-1.000000000000000E+20
 30
-1.000000000000000E+20
  9
$LIMMIN
 10
0.0
 20
0.0
  9
$LIMMAX
 10
12.0
 20
9.0
  9
$ORTHOMODE
 70
     0
  9
$REGENMODE
 70
     1
  9
$FILLMODE
 70
     1
  9
$QTEXTMODE
 70
     0
  9
$MIRRTEXT
 70
     1
  9
$LTSCALE
 40
1.0
  9
$ATTMODE
 70
     1
  9
$TEXTSIZE
 40
0.2
  9
$TRACEWID
 40
0.05
  9
$TEXTSTYLE
  7
Standard
  9
$CLAYER
  8
0
  9
$CELTYPE
  6
ByLayer
  9
$CECOLOR
 62
   256
  9
$CELTSCALE
 40
1.0
  9
$DISPSILH
 70
     0
  9
$DIMSCALE
 40
1.0
  9
$DIMASZ
 40
0.18
  9
$DIMEXO
 40
0.0625
  9
$DIMDLI
 40
0.38
  9
$DIMRND
 40
0.0
  9
$DIMDLE
 40
0.0
  9
$DIMEXE
 40
0.18
  9
$DIMTP
 40
0.0
  9
$DIMTM
 40
0.0
  9
$DIMTXT
 40
0.18
  9
$DIMCEN
 40
0.09
  9
$DIMTSZ
 40
0.0
  9
$DIMTOL
 70
     0
  9
$DIMLIM
 70
     0
  9
$DIMTIH
 70
     1
  9
$DIMTOH
 70
     1
  9
$DIMSE1
 70
     0
  9
$DIMSE2
 70
     0
  9
$DIMTAD
 70
     0
  9
$DIMZIN
 70
     0
  9
$DIMBLK
  1

  9
$DIMASO
 70
     1
  9
$DIMSHO
 70
     1
  9
$DIMPOST
  1

  9
$DIMAPOST
  1

  9
$DIMALT
 70
     0
  9
$DIMALTD
 70
     2
  9
$DIMALTF
 40
25.4
  9
$DIMLFAC
 40
1.0
  9
$DIMTOFL
 70
     0
  9
$DIMTVP
 40
0.0
  9
$DIMTIX
 70
     0
  9
$DIMSOXD
 70
     0
  9
$DIMSAH
 70
     0
  9
$DIMBLK1
  1

  9
$DIMBLK2
  1

  9
$DIMSTYLE
  2
Standard
  9
$DIMCLRD
 70
     0
  9
$DIMCLRE
 70
     0
  9
$DIMCLRT
 70
     0
  9
$DIMTFAC
 40
1.0
  9
$DIMGAP
 40
0.09
  9
$DIMJUST
 70
     0
  9
$DIMSD1
 70
     0
  9
$DIMSD2
 70
     0
  9
$DIMTOLJ
 70
     1
  9
$DIMTZIN
 70
     0
  9
$DIMALTZ
 70
     0
  9
$DIMALTTZ
 70
     0
  9
$DIMUPT
 70
     0
  9
$DIMDEC
 70
     4
  9
$DIMTDEC
 70
     4
  9
$DIMALTU
 70
     2
  9
$DIMALTTD
 70
     2
  9
$DIMTXSTY
  7
Standard
  9
$DIMAUNIT
 70
     0
  9
$DIMADEC
 70
     0
  9
$DIMALTRND
 40
0.0
  9
$DIMAZIN
 70
     0
  9
$DIMDSEP
 70
    46
  9
$DIMATFIT
 70
     3
  9
$DIMFRAC
 70
     0
  9
$DIMLDRBLK
  1

  9
$DIMLUNIT
 70
     2
  9
$DIMLWD
 70
    -2
  9
$DIMLWE
 70
    -2
  9
$DIMTMOVE
 70
     0
  9
$DIMFXL
 40
1.0
  9
$DIMFXLON
 70
     0
  9
$DIMJOGANG
 40
0.7853981633974483
  9
$DIMTFILL
 70
     0
  9
$DIMTFILLCLR
 70
     0
  9
$DIMARCSYM
 70
     0
  9
$DIMLTYPE
  6

  9
$DIMLTEX1
  6

  9
$DIMLTEX2
  6

  9
$DIMTXTDIRECTION
 70
     0
  9
$LUNITS
 70
     2
  9
$LUPREC
 70
     4
  9
$SKETCHINC
 40
0.1
  9
$FILLETRAD
 40
0.5
  9
$AUNITS
 70
     0
  9
$AUPREC
 70
     0
  9
$MENU
  1
.
  9
$ELEVATION
 40
0.0
  9
$PELEVATION
 40
0.0
  9
$THICKNESS
 40
0.0
  9
$LIMCHECK
 70
     0
  9
$CHAMFERA
 40
0.0
  9
$CHAMFERB
 40
0.0
  9
$CHAMFERC
 40
0.0
  9
$CHAMFERD
 40
0.0
  9
$SKPOLY
 70
     0
  9
$TDCREATE
 40
2459314.144109942
  9
$TDUCREATE
 40
2459314.019109942
  9
$TDUPDATE
 40
2459314.144110695
  9
$TDUUPDATE
 40
2459314.019110695
  9
$TDINDWG
 40
0.0000000116
  9
$TDUSRTIMER
 40
0.0000000116
  9
$USRTIMER
 70
     1
  9
$ANGBASE
 50
0.0
  9
$ANGDIR
 70
     0
  9
$PDMODE
 70
     0
  9
$PDSIZE
 40
0.0
  9
$PLINEWID
 40
0.0
  9
$SPLFRAME
 70
     0
  9
$SPLINETYPE
 70
     6
  9
$SPLINESEGS
 70
     8
  9
$HANDSEED
  5
300
  9
$SURFTAB1
 70
     6
  9
$SURFTAB2
 70
     6
  9
$SURFTYPE
 70
     6
  9
$SURFU
 70
     6
  9
$SURFV
 70
     6
  9
$UCSBASE
  2

  9
$UCSNAME
  2

  9
$UCSORG
 10
0.0
 20
0.0
 30
0.0
  9
$UCSXDIR
 10
1.0
 20
0.0
 30
0.0
  9
$UCSYDIR
 10
0.0
 20
1.0
 30
0.0
  9
$UCSORTHOREF
  2

  9
$UCSORTHOVIEW
 70
     0
  9
$UCSORGTOP
 10
0.0
 20
0.0
 30
0.0
  9
$UCSORGBOTTOM
 10
0.0
 20
0.0
 30
0.0
  9
$UCSORGLEFT
 10
0.0
 20
0.0
 30
0.0
  9
$UCSORGRIGHT
 10
0.0
 20
0.0
 30
0.0
  9
$UCSORGFRONT
 10
0.0
 20
0.0
 30
0.0
  9
$UCSORGBACK
 10
0.0
 20
0.0
 30
0.0
  9
$PUCSBASE
  2

  9
$PUCSNAME
  2

  9
$PUCSORG
 10
0.0
 20
0.0
 30
0.0
  9
$PUCSXDIR
 10
1.0
 20
0.0
 30
0.0
  9
$PUCSYDIR
 10
0.0
 20
1.0
 30
0.0
  9
$PUCSORTHOREF
  2

  9
$PUCSORTHOVIEW
 70
     0
  9
$PUCSORGTOP
 10
0.0
 20
0.0
 30
0.0
  9
$PUCSORGBOTTOM
 10
0.0
 20
0.0
 30
0.0
  9
$PUCSORGLEFT
 10
0.0
 20
0.0
 30
0.0
  9
$PUCSORGRIGHT
 10
0.0
 20
0.0
 30
0.0
  9
$PUCSORGFRONT
 10
0.0
 20
0.0
 30
0.0
  9
$PUCSORGBACK
 10
0.0
 20
0.0
 30
0.0
  9
$USERI1
 70
     0
  9
$USERI2
 70
     0
  9
$USERI3
 70
     0
  9
$USERI4
 70
     0
  9
$USERI5
 70
     0
  9
$USERR1
 40
0.0
  9
$USERR2
 40
0.0
  9
$USERR3
 40
0.0
  9
$USERR4
 40
0.0
  9
$USERR5
 40
0.0
  9
$WORLDVIEW
 70
     1
  9
$SHADEDGE
 70
     3
  9
$SHADEDIF
 70
    70
  9
$TILEMODE
 70
     1
  9
$MAXACTVP
 70
    64
  9
$PINSBASE
 10
0.0
 20
0.0
 30
0.0
  9
$PLIMCHECK
 70
     0
  9
$PEXTMIN
 10
1.000000000000000E+20
 20
1.000000000000000E+20
 30
1.000000000000000E+20
  9
$PEXTMAX
 10
-1.000000000000000E+20
 20
-1.000000000000000E+20
 30
-1.000000000000000E+20
  9
$PLIMMIN
 10
0.0
 20
0.0
  9
$PLIMMAX
 10
12.0
 20
9.0
  9
$UNITMODE
 70
     0
  9
$VISRETAIN
 70
     1
  9
$PLINEGEN
 70
     0
  9
$PSLTSCALE
 70
     1
  9
$TREEDEPTH
 70
  3020
  9
$CMLSTYLE
  2
Standard
  9
$CMLJUST
 70
     0
  9
$CMLSCALE
 40
1.0
  9
$PROXYGRAPHICS
 70
     1
  9
$MEASUREMENT
 70
     0
  9
$CELWEIGHT
370
    -1
  9
$ENDCAPS
280
     0
  9
$JOINSTYLE
280
     0
  9
$LWDISPLAY
290
     0
  9
$INSUNITS
 70
     1
  9
$HYPERLINKBASE
  1

  9
$STYLESHEET
  1

  9
$XEDIT
290
     1
  9
$CEPSNTYPE
380
     0
  9
$PSTYLEMODE
290
     1
  9
$FINGERPRINTGUID
  2
{2FE4ACDF-E88E-409E-98AA-42E5DA48A68B}
  9
$VERSIONGUID
  2
{FAEB1C32-E019-11D5-929B-00C0DF256EC4}
  9
$EXTNAMES
290
     1
  9
$PSVPSCALE
 40
0.0
  9
$OLESTARTUP
290
     0
  9
$SORTENTS
280
   127
  9
$INDEXCTL
280
     0
  9
$HIDETEXT
280
     1
  9
$XCLIPFRAME
280
     2
  9
$HALOGAP
280
     0
  9
$OBSCOLOR
 70
   257
  9
$OBSLTYPE
280
     0
  9
$INTERSECTIONDISPLAY
280
     0
  9
$INTERSECTIONCOLOR
 70
   257
  9
$DIMASSOC
280
     2
  9
$PROJECTNAME
  1

  9
$CAMERADISPLAY
290
     0
  9
$LENSLENGTH
 40
50.0
  9
$CAMERAHEIGHT
 40
0.0
  9
$STEPSPERSEC
 40
2.0
  9
$STEPSIZE
 40
6.0
  9
$3DDWFPREC
 40
2.0
  9
$PSOLWIDTH
 40
0.25
  9
$PSOLHEIGHT
 40
4.0
  9
$LOFTANG1
 40
1.570796326794897
  9
$LOFTANG2
 40
1.570796326794897
  9
$LOFTMAG1
 40
0.0
  9
$LOFTMAG2
 40
0.0
  9
$LOFTPARAM
 70
     7
  9
$LOFTNORMALS
280
     1
  9
$LATITUDE
 40
37.795
  9
$LONGITUDE
 40
-122.394
  9
$NORTHDIRECTION
 40
0.0
  9
$TIMEZONE
 70
 -8000
  9
$LIGHTGLYPHDISPLAY
280
     1
  9
$TILEMODELIGHTSYNCH
280
     1
  9
$CMATERIAL
347
44
  9
$SOLIDHIST
280
     0
  9
$SHOWHIST
280
     1
  9
$DWFFRAME
280
     2
  9
$DGNFRAME
280
     2
  9
$REALWORLDSCALE
290
     1
  9
$INTERFERECOLOR
 62
   256
  9
$CSHADOW
280
     0
  9
$SHADOWPLANELOCATION
 40
0.0
  0
ENDSEC
  0
SECTION
  2
CLASSES
  0
CLASS
  1
ACDBDICTIONARYWDFLT
  2
AcDbDictionaryWithDefault
  3
ObjectDBX Classes
 90
        0
 91
        4
280
     0
281
     0
  0
CLASS
  1
VISUALSTYLE
  2
AcDbVisualStyle
  3
ObjectDBX Classes
 90
     4095
 91
        4
280
     0
281
     0
  0
CLASS
  1
MATERIAL
  2
AcDbMaterial
  3
ObjectDBX Classes
 90
     1153
 91
        4
280
     0
281
     0
  0
CLASS
  1
SCALE
  2
AcDbScale
  3
ObjectDBX Classes
 90
     1153
 91
        4
280
     0
281
     0
  0
CLASS
  1
TABLESTYLE
  2
AcDbTableStyle
  3
ObjectDBX Classes
 90
     4095
 91
        4
280
     0
281
     0
  0
CLASS
  1
MLEADERSTYLE
  2
AcDbMLeaderStyle
  3
ACDB_MLEADERSTYLE_CLASS
 90
     4095
 91
        4
280
     0
281
     0
  0
CLASS
  1
SUN
  2
AcDbSun
  3
SCENEOE
 90
     1153
 91
        4
280
     0
281
     0
  0
CLASS
  1
DICTIONARYVAR
  2
AcDbDictionaryVar
  3
ObjectDBX Classes
 90
        0
 91
        4
280
     0
281
     0
  0
CLASS
  1
CELLSTYLEMAP
  2
AcDbCellStyleMap
  3
ObjectDBX Classes
 90
     1152
 91
        4
280
     0
281
     0
  0
ENDSEC
  0
SECTION
  2
TABLES
  0
TABLE
  2
VPORT
  5
8
330
0
100
AcDbSymbolTable
 70
     1
  0
VPORT
  5
29
330
8
100
AcDbSymbolTableRecord
100
AcDbViewportTableRecord
  2
*Active
 70
     0
 10
0.0
 20
0.0
 11
1.0
 21
1.0
 12
10.42990654205607
 22
4.5
 13
0.0
 23
0.0
 14
0.5
 24
0.5
 15
0.5
 25
0.5
 16
0.0
 26
0.0
 36
1.0
 17
0.0
 27
0.0
 37
0.0
 40
9.0
 41
1.972972972850329
 42
50.0
 43
0.0
 44
0.0
 50
0.0
 51
0.0
 71
     0
 72
   100
 73
     1
 74
     3
 75
     0
 76
     0
 77
     0
 78
     0
281
     0
 65
     1
110
0.0
120
0.0
130
0.0
111
1.0
121
0.0
131
0.0
112
0.0
122
1.0
132
0.0
 79
     0
146
0.0
348
2F
 60
     3
 61
     5
292
     1
282
     1
141
0.0
142
0.0
 63
   250
361
6D
  0
ENDTAB
  0
TABLE
  2
LTYPE
  5
5
330
0
100
AcDbSymbolTable
 70
     1
  0
LTYPE
  5
14
330
5
100
AcDbSymbolTableRecord
100
AcDbLinetypeTableRecord
  2
ByBlock
 70
     0
  3

 72
    65
 73
     0
 40
0.0
  0
LTYPE
  5
15
330
5
100
AcDbSymbolTableRecord
100
AcDbLinetypeTableRecord
  2
ByLayer
 70
     0
  3

 72
    65
 73
     0
 40
0.0
  0
LTYPE
  5
16
330
5
100
AcDbSymbolTableRecord
100
AcDbLinetypeTableRecord
  2
Continuous
 70
     0
  3
Solid line
 72
    65
 73
     0
 40
0.0
  0
ENDTAB
  0
TABLE
  2
LAYER
  5
2
330
0
100
AcDbSymbolTable
 70
     1
  0
LAYER
  5
10
330
2
100
AcDbSymbolTableRecord
100
AcDbLayerTableRecord
  2
0
 70
     0
 62
     7
  6
Continuous
370
    -3
390
F
347
46
348
0
  0
ENDTAB
  0
TABLE
  2
STYLE
  5
3
330
0
100
AcDbSymbolTable
 70
     2
  0
STYLE
  5
11
330
3
100
AcDbSymbolTableRecord
100
AcDbTextStyleTableRecord
  2
Standard
 70
     0
 40
0.0
 41
1.0
 50
0.0
 71
     0
 42
0.2
  3
txt
  4

  0
STYLE
  5
74
330
3
100
AcDbSymbolTableRecord
100
AcDbTextStyleTableRecord
  2
Arial0
 70
     0
 40
2.265494791666666
 41
1.0
 50
0.0
 71
     0
 42
0.2
  3
arial.ttf
  4

1001
ACAD
1000
Arial
1071
        0
  0
ENDTAB
  0
TABLE
  2
VIEW
  5
6
330
0
100
AcDbSymbolTable
 70
     0
  0
ENDTAB
  0
TABLE
  2
UCS
  5
7
330
0
100
AcDbSymbolTable
 70
     0
  0
ENDTAB
  0
TABLE
  2
APPID
  5
9
330
0
100
AcDbSymbolTable
 70
     1
  0
APPID
  5
12
330
9
100
AcDbSymbolTableRecord
100
AcDbRegAppTableRecord
  2
ACAD
 70
     0
  0
ENDTAB
  0
TABLE
  2
DIMSTYLE
  5
A
330
0
100
AcDbSymbolTable
 70
     1
100
AcDbDimStyleTable
  0
DIMSTYLE
105
27
330
A
100
AcDbSymbolTableRecord
100
AcDbDimStyleTableRecord
  2
Standard
 70
     0
178
     0
340
11
  0
ENDTAB
  0
TABLE
  2
BLOCK_RECORD
  5
1
330
0
100
AcDbSymbolTable
 70
     1
  0
BLOCK_RECORD
  5
1F
330
1
100
AcDbSymbolTableRecord
100
AcDbBlockTableRecord
  2
*Model_Space
340
22
 70
     0
280
     1
281
     0
  0
BLOCK_RECORD
  5
1B
330
1
100
AcDbSymbolTableRecord
100
AcDbBlockTableRecord
  2
*Paper_Space
340
1E
 70
     0
280
     1
281
     0
  0
BLOCK_RECORD
  5
23
330
1
100
AcDbSymbolTableRecord
100
AcDbBlockTableRecord
  2
*Paper_Space0
340
26
 70
     0
280
     1
281
     0
  0
ENDTAB
  0
ENDSEC
  0
SECTION
  2
BLOCKS
  0
BLOCK
  5
20
330
1F
100
AcDbEntity
  8
0
100
AcDbBlockBegin
  2
*Model_Space
 70
     0
 10
0.0
 20
0.0
 30
0.0
  3
*Model_Space
  1

  0
ENDBLK
  5
21
330
1F
100
AcDbEntity
  8
0
100
AcDbBlockEnd
  0
BLOCK
  5
1C
330
1B
100
AcDbEntity
 67
     1
  8
0
100
AcDbBlockBegin
  2
*Paper_Space
 70
     0
 10
0.0
 20
0.0
 30
0.0
  3
*Paper_Space
  1

  0
ENDBLK
  5
1D
330
1B
100
AcDbEntity
 67
     1
  8
0
100
AcDbBlockEnd
  0
BLOCK
  5
24
330
23
100
AcDbEntity
  8
0
100
AcDbBlockBegin
  2
*Paper_Space0
 70
     0
 10
0.0
 20
0.0
 30
0.0
  3
*Paper_Space0
  1

  0
ENDBLK
  5
25
330
23
100
AcDbEntity
  8
0
100
AcDbBlockEnd
  0
ENDSEC
  0
SECTION
  2
ENTITIES
  0
LINE
  5
6E
330
1F
100
AcDbEntity
  8
0
 62
    18
420
        0
100
AcDbLine
 39
0.15875
 10
2.645833333333333
 20
-2.645833333333333
 30
0.0
 11
591.3541666666666
 21
-2.645833333333333
 31
0.0
  0
LINE
  5
6F
330
1F
100
AcDbEntity
  8
0
 62
    18
420
        0
100
AcDbLine
 39
0.15875
 10
591.3541666666666
 20
-2.645833333333333
 30
0.0
 11
591.3541666666666
 21
-417.3541666666666
 31
0.0
  0
LINE
  5
70
330
1F
100
AcDbEntity
  8
0
 62
    18
420
        0
100
AcDbLine
 39
0.15875
 10
591.3541666666666
 20
-417.3541666666666
 30
0.0
 11
2.645833333333333
 21
-417.3541666666666
 31
0.0
  0
LINE
  5
71
330
1F
100
AcDbEntity
  8
0
 62
    18
420
        0
100
AcDbLine
 39
0.15875
 10
2.645833333333333
 20
-417.3541666666666
 30
0.0
 11
2.645833333333333
 21
-2.645833333333333
 31
0.0
  0
LINE
  5
72
330
1F
100
AcDbEntity
  8
0
 62
    18
420
        0
100
AcDbLine
 39
0.15875
 10
120.3875
 20
0.0
 30
0.0
 11
120.3875
 21
-2.645833333333333
 31
0.0
  0
LINE
  5
73
330
1F
100
AcDbEntity
  8
0
 62
    18
420
        0
100
AcDbLine
 39
0.15875
 10
120.3875
 20
-419.9999999999999
 30
0.0
 11
120.3875
 21
-417.3541666666666
 31
0.0
  0
TEXT
  5
75
330
1F
100
AcDbEntity
  8
0
 62
    18
420
        0
100
AcDbText
 10
60.74099652777777
 20
-2.320175347222222
 30
0.0
 40
1.452570305670891
  1
A
  7
Arial0
100
AcDbText
  0
TEXT
  5
76
330
1F
100
AcDbEntity
  8
0
 62
    18
420
        0
100
AcDbText
 10
60.74099652777777
 20
-419.6743420138889
 30
0.0
 40
1.452570305670891
  1
A
  7
Arial0
100
AcDbText
  0
LINE
  5
77
330
1F
100
AcDbEntity
  8
0
 62
    18
420
        0
100
AcDbLine
 39
0.15875
 10
238.1291666666667
 20
0.0
 30
0.0
 11
238.1291666666667
 21
-2.645833333333333
 31
0.0
  0
LINE
  5
78
330
1F
100
AcDbEntity
  8
0
 62
    18
420
        0
100
AcDbLine
 39
0.15875
 10
238.1291666666667
 20
-419.9999999999999
 30
0.0
 11
238.1291666666667
 21
-417.3541666666666
 31
0.0
  0
TEXT
  5
79
330
1F
100
AcDbEntity
  8
0
 62
    18
420
        0
100
AcDbText
 10
178.4826631944444
 20
-2.320175347222222
 30
0.0
 40
1.452570305670891
  1
B
  7
Arial0
100
AcDbText
  0
TEXT
  5
7A
330
1F
100
AcDbEntity
  8
0
 62
    18
420
        0
100
AcDbText
 10
178.4826631944444
 20
-419.6743420138889
 30
0.0
 40
1.452570305670891
  1
B
  7
Arial0
100
AcDbText
  0
LINE
  5
7B
330
1F
100
AcDbEntity
  8
0
 62
    18
420
        0
100
AcDbLine
 39
0.15875
 10
355.8708333333333
 20
0.0
 30
0.0
 11
355.8708333333333
 21
-2.645833333333333
 31
0.0
  0
LINE
  5
7C
330
1F
100
AcDbEntity
  8
0
 62
    18
420
        0
100
AcDbLine
 39
0.15875
 10
355.8708333333333
 20
-419.9999999999999
 30
0.0
 11
355.8708333333333
 21
-417.3541666666666
 31
0.0
  0
TEXT
  5
7D
330
1F
100
AcDbEntity
  8
0
 62
    18
420
        0
100
AcDbText
 10
296.1603888888889
 20
-2.320175347222222
 30
0.0
 40
1.452570305670891
  1
C
  7
Arial0
100
AcDbText
  0
TEXT
  5
7E
330
1F
100
AcDbEntity
  8
0
 62
    18
420
        0
100
AcDbText
 10
296.1603888888889
 20
-419.6743420138889
 30
0.0
 40
1.452570305670891
  1
C
  7
Arial0
100
AcDbText
  0
LINE
  5
7F
330
1F
100
AcDbEntity
  8
0
 62
    18
420
        0
100
AcDbLine
 39
0.15875
 10
473.6125
 20
0.0
 30
0.0
 11
473.6125
 21
-2.645833333333333
 31
0.0
  0
LINE
  5
80
330
1F
100
AcDbEntity
  8
0
 62
    18
420
        0
100
AcDbLine
 39
0.15875
 10
473.6125
 20
-419.9999999999999
 30
0.0
 11
473.6125
 21
-417.3541666666666
 31
0.0
  0
TEXT
  5
81
330
1F
100
AcDbEntity
  8
0
 62
    18
420
        0
100
AcDbText
 10
413.9020555555555
 20
-2.320175347222222
 30
0.0
 40
1.452570305670891
  1
D
  7
Arial0
100
AcDbText
  0
TEXT
  5
82
330
1F
100
AcDbEntity
  8
0
 62
    18
420
        0
100
AcDbText
 10
413.9020555555555
 20
-419.6743420138889
 30
0.0
 40
1.452570305670891
  1
D
  7
Arial0
100
AcDbText
  0
TEXT
  5
83
330
1F
100
AcDbEntity
  8
0
 62
    18
420
        0
100
AcDbText
 10
531.7076631944444
 20
-2.320175347222222
 30
0.0
 40
1.452570305670891
  1
E
  7
Arial0
100
AcDbText
  0
TEXT
  5
84
330
1F
100
AcDbEntity
  8
0
 62
    18
420
        0
100
AcDbText
 10
531.7076631944444
 20
-419.6743420138889
 30
0.0
 40
1.452570305670891
  1
E
  7
Arial0
100
AcDbText
  0
LINE
  5
85
330
1F
100
AcDbEntity
  8
0
 62
    18
420
        0
100
AcDbLine
 39
0.15875
 10
0.0
 20
-106.3229166666667
 30
0.0
 11
2.645833333333333
 21
-106.3229166666667
 31
0.0
  0
LINE
  5
86
330
1F
100
AcDbEntity
  8
0
 62
    18
420
        0
100
AcDbLine
 39
0.15875
 10
593.9999999999999
 20
-106.3229166666667
 30
0.0
 11
591.3541666666666
 21
-106.3229166666667
 31
0.0
  0
TEXT
  5
87
330
1F
100
AcDbEntity
  8
0
 62
    18
420
        0
100
AcDbText
 10
0.3095624999999999
 20
-56.03352805555556
 30
0.0
 40
2.336564303430944
  1
1
  7
Arial0
100
AcDbText
  0
TEXT
  5
88
330
1F
100
AcDbEntity
  8
0
 62
    18
420
        0
100
AcDbText
 10
591.6637291666666
 20
-56.03352805555556
 30
0.0
 40
2.336564303430944
  1
1
  7
Arial0
100
AcDbText
  0
LINE
  5
89
330
1F
100
AcDbEntity
  8
0
 62
    18
420
        0
100
AcDbLine
 39
0.15875
 10
0.0
 20
-210.0
 30
0.0
 11
2.645833333333333
 21
-210.0
 31
0.0
  0
LINE
  5
8A
330
1F
100
AcDbEntity
  8
0
 62
    18
420
        0
100
AcDbLine
 39
0.15875
 10
593.9999999999999
 20
-210.0
 30
0.0
 11
591.3541666666666
 21
-210.0
 31
0.0
  0
TEXT
  5
8B
330
1F
100
AcDbEntity
  8
0
 62
    18
420
        0
100
AcDbText
 10
0.3095624999999999
 20
-159.7106113888889
 30
0.0
 40
2.336564303430944
  1
2
  7
Arial0
100
AcDbText
  0
TEXT
  5
8C
330
1F
100
AcDbEntity
  8
0
 62
    18
420
        0
100
AcDbText
 10
591.6637291666666
 20
-159.7106113888889
 30
0.0
 40
2.336564303430944
  1
2
  7
Arial0
100
AcDbText
  0
LINE
  5
8D
330
1F
100
AcDbEntity
  8
0
 62
    18
420
        0
100
AcDbLine
 39
0.15875
 10
0.0
 20
-313.6770833333333
 30
0.0
 11
2.645833333333333
 21
-313.6770833333333
 31
0.0
  0
LINE
  5
8E
330
1F
100
AcDbEntity
  8
0
 62
    18
420
        0
100
AcDbLine
 39
0.15875
 10
593.9999999999999
 20
-313.6770833333333
 30
0.0
 11
591.3541666666666
 21
-313.6770833333333
 31
0.0
  0
TEXT
  5
8F
330
1F
100
AcDbEntity
  8
0
 62
    18
420
        0
100
AcDbText
 10
0.3095624999999999
 20
-263.3876947222222
 30
0.0
 40
2.336564303430944
  1
3
  7
Arial0
100
AcDbText
  0
TEXT
  5
90
330
1F
100
AcDbEntity
  8
0
 62
    18
420
        0
100
AcDbText
 10
591.6637291666666
 20
-263.3876947222222
 30
0.0
 40
2.336564303430944
  1
3
  7
Arial0
100
AcDbText
  0
TEXT
  5
91
330
1F
100
AcDbEntity
  8
0
 62
    18
420
        0
100
AcDbText
 10
0.3095624999999999
 20
-367.0647780555556
 30
0.0
 40
2.336564303430944
  1
4
  7
Arial0
100
AcDbText
  0
TEXT
  5
92
330
1F
100
AcDbEntity
  8
0
 62
    18
420
        0
100
AcDbText
 10
591.6637291666666
 20
-367.0647780555556
 30
0.0
 40
2.336564303430944
  1
4
  7
Arial0
100
AcDbText
  0
LINE
  5
93
330
1F
100
AcDbEntity
  8
0
 62
    18
420
        0
100
AcDbLine
 39
0.2000000000000028
 10
125.6602025774571
 20
-79.9632572026351
 30
0.0
 11
125.6602025774571
 21
-109.8324238693018
 31
0.0
  0
LINE
  5
94
330
1F
100
AcDbEntity
  8
0
 62
    18
420
        0
100
AcDbLine
 39
0.2000000000000028
 10
138.5637303552348
 20
-79.9632572026351
 30
0.0
 11
138.5637303552348
 21
-109.8324238693018
 31
0.0
  0
LINE
  5
95
330
1F
100
AcDbEntity
  8
0
 62
    18
420
        0
100
AcDbLine
 39
0.2000000000000028
 10
152.3518484107904
 20
-79.9632572026351
 30
0.0
 11
152.3518484107904
 21
-109.8324238693018
 31
0.0
  0
LINE
  5
96
330
1F
100
AcDbEntity
  8
0
 62
    18
420
        0
100
AcDbLine
 39
0.2000000000000028
 10
168.2566331330126
 20
-79.9632572026351
 30
0.0
 11
168.2566331330126
 21
-109.8324238693018
 31
0.0
  0
LINE
  5
97
330
1F
100
AcDbEntity
  8
0
 62
    18
420
        0
100
AcDbLine
 39
0.2000000000000028
 10
179.5753067441237
 20
-79.9632572026351
 30
0.0
 11
179.5753067441237
 21
-109.8324238693018
 31
0.0
  0
LINE
  5
98
330
1F
100
AcDbEntity
  8
0
 62
    18
420
        0
100
AcDbLine
 39
0.2000000000000028
 10
203.4220011885682
 20
-79.9632572026351
 30
0.0
 11
203.4220011885682
 21
-109.8324238693018
 31
0.0
  0
LINE
  5
99
330
1F
100
AcDbEntity
  8
0
 62
    18
420
        0
100
AcDbLine
 39
0.2000000000000028
 10
125.6602025774571
 20
-79.9632572026351
 30
0.0
 11
203.4220011885681
 21
-79.9632572026351
 31
0.0
  0
LINE
  5
9A
330
1F
100
AcDbEntity
  8
0
 62
    18
420
        0
100
AcDbLine
 39
0.2000000000000028
 10
125.6602025774571
 20
-83.8145072026351
 30
0.0
 11
203.4220011885681
 21
-83.8145072026351
 31
0.0
  0
LINE
  5
9B
330
1F
100
AcDbEntity
  8
0
 62
    18
420
        0
100
AcDbLine
 39
0.2000000000000028
 10
125.6602025774571
 20
-88.24784053596844
 30
0.0
 11
203.4220011885681
 21
-88.24784053596844
 31
0.0
  0
LINE
  5
9C
330
1F
100
AcDbEntity
  8
0
 62
    18
420
        0
100
AcDbLine
 39
0.2000000000000028
 10
125.6602025774571
 20
-92.68117386930177
 30
0.0
 11
203.4220011885681
 21
-92.68117386930177
 31
0.0
  0
LINE
  5
9D
330
1F
100
AcDbEntity
  8
0
 62
    18
420
        0
100
AcDbLine
 39
0.2000000000000028
 10
125.6602025774571
 20
-97.11450720263511
 30
0.0
 11
203.4220011885681
 21
-97.11450720263511
 31
0.0
  0
LINE
  5
9E
330
1F
100
AcDbEntity
  8
0
 62
    18
420
        0
100
AcDbLine
 39
0.2000000000000028
 10
125.6602025774571
 20
-101.5478405359684
 30
0.0
 11
203.4220011885681
 21
-101.5478405359684
 31
0.0
  0
LINE
  5
9F
330
1F
100
AcDbEntity
  8
0
 62
    18
420
        0
100
AcDbLine
 39
0.2000000000000028
 10
125.6602025774571
 20
-105.9811738693018
 30
0.0
 11
203.4220011885681
 21
-105.9811738693018
 31
0.0
  0
LINE
  5
A0
330
1F
100
AcDbEntity
  8
0
 62
    18
420
        0
100
AcDbLine
 39
0.2000000000000028
 10
125.6602025774571
 20
-109.8324238693018
 30
0.0
 11
203.4220011885681
 21
-109.8324238693018
 31
0.0
  0
LINE
  5
A1
330
1F
100
AcDbEntity
  8
0
 62
     7
420
 16777215
100
AcDbLine
 10
125.7602025774571
 20
-80.0632572026351
 30
0.0
 11
138.4637303552348
 21
-80.0632572026351
 31
0.0
  0
LINE
  5
A2
330
1F
100
AcDbEntity
  8
0
 62
     7
420
 16777215
100
AcDbLine
 10
138.4637303552348
 20
-80.0632572026351
 30
0.0
 11
138.4637303552348
 21
-83.7145072026351
 31
0.0
  0
LINE
  5
A3
330
1F
100
AcDbEntity
  8
0
 62
     7
420
 16777215
100
AcDbLine
 10
138.4637303552348
 20
-83.7145072026351
 30
0.0
 11
125.7602025774571
 21
-83.7145072026351
 31
0.0
  0
LINE
  5
A4
330
1F
100
AcDbEntity
  8
0
 62
     7
420
 16777215
100
AcDbLine
 10
125.7602025774571
 20
-83.7145072026351
 30
0.0
 11
125.7602025774571
 21
-80.0632572026351
 31
0.0
  0
SOLID
  5
A5
330
1F
100
AcDbEntity
  8
0
 62
     9
420
 12632256
100
AcDbTrace
 10
125.7602025774571
 20
-80.0632572026351
 30
0.0
 11
138.4637303552348
 21
-80.0632572026351
 31
0.0
 12
125.7602025774571
 22
-83.7145072026351
 32
0.0
 13
138.4637303552348
 23
-83.7145072026351
 33
0.0
  0
TEXT
  5
A6
330
1F
100
AcDbEntity
  8
0
 62
    18
420
        0
100
AcDbText
 10
126.8185359107904
 20
-83.23825720263511
 30
0.0
 40
2.035718968531469
  1
Symbol
  7
Arial0
100
AcDbText
  0
LINE
  5
A7
330
1F
100
AcDbEntity
  8
0
 62
     7
420
 16777215
100
AcDbLine
 10
125.7602025774571
 20
-83.91450720263511
 30
0.0
 11
138.4637303552348
 21
-83.91450720263511
 31
0.0
  0
LINE
  5
A8
330
1F
100
AcDbEntity
  8
0
 62
     7
420
 16777215
100
AcDbLine
 10
138.4637303552348
 20
-83.91450720263511
 30
0.0
 11
138.4637303552348
 21
-88.14784053596844
 31
0.0
  0
LINE
  5
A9
330
1F
100
AcDbEntity
  8
0
 62
     7
420
 16777215
100
AcDbLine
 10
138.4637303552348
 20
-88.14784053596844
 30
0.0
 11
125.7602025774571
 21
-88.14784053596844
 31
0.0
  0
LINE
  5
AA
330
1F
100
AcDbEntity
  8
0
 62
     7
420
 16777215
100
AcDbLine
 10
125.7602025774571
 20
-88.14784053596844
 30
0.0
 11
125.7602025774571
 21
-83.91450720263511
 31
0.0
  0
SOLID
  5
AB
330
1F
100
AcDbEntity
  8
0
 62
   254
420
 13882323
100
AcDbTrace
 10
125.7602025774571
 20
-83.91450720263511
 30
0.0
 11
138.4637303552348
 21
-83.91450720263511
 31
0.0
 12
125.7602025774571
 22
-88.14784053596844
 32
0.0
 13
138.4637303552348
 23
-88.14784053596844
 33
0.0
  0
ARC
  5
AC
330
1F
100
AcDbEntity
  8
0
 62
    18
420
        0
100
AcDbCircle
 39
0.1058333333333366
 10
128.9352025774571
 20
-86.03117386930177
 30
0.0
 40
0.7937500000000028
100
AcDbArc
 50
0.0
 51
270.0
  0
ARC
  5
AD
330
1F
100
AcDbEntity
  8
0
 62
    18
420
        0
100
AcDbCircle
 39
0.1058333333333366
 10
128.9352025774571
 20
-86.03117386930177
 30
0.0
 40
0.7937500000000028
100
AcDbArc
 50
270.0
 51
180.0
  0
ARC
  5
AE
330
1F
100
AcDbEntity
  8
0
 62
    18
420
        0
100
AcDbCircle
 39
0.1058333333333366
 10
128.9352025774571
 20
-86.03117386930177
 30
0.0
 40
0.7937500000000028
100
AcDbArc
 50
180.0
 51
90.0
  0
ARC
  5
AF
330
1F
100
AcDbEntity
  8
0
 62
    18
420
        0
100
AcDbCircle
 39
0.1058333333333366
 10
128.9352025774571
 20
-86.03117386930177
 30
0.0
 40
0.7937500000000028
100
AcDbArc
 50
90.0
 51
0.0
  0
LINE
  5
B0
330
1F
100
AcDbEntity
  8
0
 62
    18
420
        0
100
AcDbLine
 39
0.1058333333333366
 10
129.9935359107904
 20
-86.03117386930177
 30
0.0
 11
127.8768692441237
 21
-86.03117386930177
 31
0.0
  0
LINE
  5
B1
330
1F
100
AcDbEntity
  8
0
 62
    18
420
        0
100
AcDbLine
 39
0.1058333333333366
 10
128.9352025774571
 20
-87.0895072026351
 30
0.0
 11
128.9352025774571
 21
-84.97284053596844
 31
0.0
  0
LINE
  5
B2
330
1F
100
AcDbEntity
  8
0
 62
     7
420
 16777215
100
AcDbLine
 10
125.7602025774571
 20
-88.34784053596843
 30
0.0
 11
138.4637303552348
 21
-88.34784053596843
 31
0.0
  0
LINE
  5
B3
330
1F
100
AcDbEntity
  8
0
 62
     7
420
 16777215
100
AcDbLine
 10
138.4637303552348
 20
-88.34784053596843
 30
0.0
 11
138.4637303552348
 21
-92.58117386930176
 31
0.0
  0
LINE
  5
B4
330
1F
100
AcDbEntity
  8
0
 62
     7
420
 16777215
100
AcDbLine
 10
138.4637303552348
 20
-92.58117386930176
 30
0.0
 11
125.7602025774571
 21
-92.58117386930176
 31
0.0
  0
LINE
  5
B5
330
1F
100
AcDbEntity
  8
0
 62
     7
420
 16777215
100
AcDbLine
 10
125.7602025774571
 20
-92.58117386930176
 30
0.0
 11
125.7602025774571
 21
-88.34784053596843
 31
0.0
  0
SOLID
  5
B6
330
1F
100
AcDbEntity
  8
0
 62
     9
420
 12632256
100
AcDbTrace
 10
125.7602025774571
 20
-88.34784053596843
 30
0.0
 11
138.4637303552348
 21
-88.34784053596843
 31
0.0
 12
125.7602025774571
 22
-92.58117386930176
 32
0.0
 13
138.4637303552348
 23
-92.58117386930176
 33
0.0
  0
ARC
  5
B7
330
1F
100
AcDbEntity
  8
0
 62
    18
420
        0
100
AcDbCircle
 39
0.1058333333333366
 10
128.9352025774571
 20
-90.4645072026351
 30
0.0
 40
0.7937500000000028
100
AcDbArc
 50
0.0
 51
270.0
  0
ARC
  5
B8
330
1F
100
AcDbEntity
  8
0
 62
    18
420
        0
100
AcDbCircle
 39
0.1058333333333366
 10
128.9352025774571
 20
-90.4645072026351
 30
0.0
 40
0.7937500000000028
100
AcDbArc
 50
270.0
 51
180.0
  0
ARC
  5
B9
330
1F
100
AcDbEntity
  8
0
 62
    18
420
        0
100
AcDbCircle
 39
0.1058333333333366
 10
128.9352025774571
 20
-90.4645072026351
 30
0.0
 40
0.7937500000000028
100
AcDbArc
 50
180.0
 51
90.0
  0
ARC
  5
BA
330
1F
100
AcDbEntity
  8
0
 62
    18
420
        0
100
AcDbCircle
 39
0.1058333333333366
 10
128.9352025774571
 20
-90.4645072026351
 30
0.0
 40
0.7937500000000028
100
AcDbArc
 50
90.0
 51
0.0
  0
LINE
  5
BB
330
1F
100
AcDbEntity
  8
0
 62
    18
420
        0
100
AcDbLine
 39
0.1058333333333366
 10
129.9935359107904
 20
-90.4645072026351
 30
0.0
 11
127.8768692441237
 21
-90.4645072026351
 31
0.0
  0
LINE
  5
BC
330
1F
100
AcDbEntity
  8
0
 62
    18
420
        0
100
AcDbLine
 39
0.1058333333333366
 10
128.9352025774571
 20
-91.52284053596844
 30
0.0
 11
128.9352025774571
 21
-89.40617386930177
 31
0.0
  0
LINE
  5
BD
330
1F
100
AcDbEntity
  8
0
 62
     7
420
 16777215
100
AcDbLine
 10
125.7602025774571
 20
-92.78117386930177
 30
0.0
 11
138.4637303552348
 21
-92.78117386930177
 31
0.0
  0
LINE
  5
BE
330
1F
100
AcDbEntity
  8
0
 62
     7
420
 16777215
100
AcDbLine
 10
138.4637303552348
 20
-92.78117386930177
 30
0.0
 11
138.4637303552348
 21
-97.0145072026351
 31
0.0
  0
LINE
  5
BF
330
1F
100
AcDbEntity
  8
0
 62
     7
420
 16777215
100
AcDbLine
 10
138.4637303552348
 20
-97.0145072026351
 30
0.0
 11
125.7602025774571
 21
-97.0145072026351
 31
0.0
  0
LINE
  5
C0
330
1F
100
AcDbEntity
  8
0
 62
     7
420
 16777215
100
AcDbLine
 10
125.7602025774571
 20
-97.0145072026351
 30
0.0
 11
125.7602025774571
 21
-92.78117386930177
 31
0.0
  0
SOLID
  5
C1
330
1F
100
AcDbEntity
  8
0
 62
   254
420
 13882323
100
AcDbTrace
 10
125.7602025774571
 20
-92.78117386930177
 30
0.0
 11
138.4637303552348
 21
-92.78117386930177
 31
0.0
 12
125.7602025774571
 22
-97.0145072026351
 32
0.0
 13
138.4637303552348
 23
-97.0145072026351
 33
0.0
  0
ARC
  5
C2
330
1F
100
AcDbEntity
  8
0
 62
    18
420
        0
100
AcDbCircle
 39
0.1058333333333366
 10
128.9352025774571
 20
-94.89784053596844
 30
0.0
 40
0.7937500000000028
100
AcDbArc
 50
0.0
 51
270.0
  0
ARC
  5
C3
330
1F
100
AcDbEntity
  8
0
 62
    18
420
        0
100
AcDbCircle
 39
0.1058333333333366
 10
128.9352025774571
 20
-94.89784053596844
 30
0.0
 40
0.7937500000000028
100
AcDbArc
 50
270.0
 51
180.0
  0
ARC
  5
C4
330
1F
100
AcDbEntity
  8
0
 62
    18
420
        0
100
AcDbCircle
 39
0.1058333333333366
 10
128.9352025774571
 20
-94.89784053596844
 30
0.0
 40
0.7937500000000028
100
AcDbArc
 50
180.0
 51
90.0
  0
ARC
  5
C5
330
1F
100
AcDbEntity
  8
0
 62
    18
420
        0
100
AcDbCircle
 39
0.1058333333333366
 10
128.9352025774571
 20
-94.89784053596844
 30
0.0
 40
0.7937500000000028
100
AcDbArc
 50
90.0
 51
0.0
  0
LINE
  5
C6
330
1F
100
AcDbEntity
  8
0
 62
    18
420
        0
100
AcDbLine
 39
0.1058333333333366
 10
129.9935359107904
 20
-94.89784053596844
 30
0.0
 11
127.8768692441237
 21
-94.89784053596844
 31
0.0
  0
LINE
  5
C7
330
1F
100
AcDbEntity
  8
0
 62
    18
420
        0
100
AcDbLine
 39
0.1058333333333366
 10
128.9352025774571
 20
-95.95617386930176
 30
0.0
 11
128.9352025774571
 21
-93.8395072026351
 31
0.0
  0
LINE
  5
C8
330
1F
100
AcDbEntity
  8
0
 62
     7
420
 16777215
100
AcDbLine
 10
125.7602025774571
 20
-97.2145072026351
 30
0.0
 11
138.4637303552348
 21
-97.2145072026351
 31
0.0
  0
LINE
  5
C9
330
1F
100
AcDbEntity
  8
0
 62
     7
420
 16777215
100
AcDbLine
 10
138.4637303552348
 20
-97.2145072026351
 30
0.0
 11
138.4637303552348
 21
-101.4478405359684
 31
0.0
  0
LINE
  5
CA
330
1F
100
AcDbEntity
  8
0
 62
     7
420
 16777215
100
AcDbLine
 10
138.4637303552348
 20
-101.4478405359684
 30
0.0
 11
125.7602025774571
 21
-101.4478405359684
 31
0.0
  0
LINE
  5
CB
330
1F
100
AcDbEntity
  8
0
 62
     7
420
 16777215
100
AcDbLine
 10
125.7602025774571
 20
-101.4478405359684
 30
0.0
 11
125.7602025774571
 21
-97.2145072026351
 31
0.0
  0
SOLID
  5
CC
330
1F
100
AcDbEntity
  8
0
 62
     9
420
 12632256
100
AcDbTrace
 10
125.7602025774571
 20
-97.2145072026351
 30
0.0
 11
138.4637303552348
 21
-97.2145072026351
 31
0.0
 12
125.7602025774571
 22
-101.4478405359684
 32
0.0
 13
138.4637303552348
 23
-101.4478405359684
 33
0.0
  0
ARC
  5
CD
330
1F
100
AcDbEntity
  8
0
 62
    18
420
        0
100
AcDbCircle
 39
0.1058333333333366
 10
128.9352025774571
 20
-99.33117386930178
 30
0.0
 40
0.7937500000000028
100
AcDbArc
 50
0.0
 51
270.0
  0
ARC
  5
CE
330
1F
100
AcDbEntity
  8
0
 62
    18
420
        0
100
AcDbCircle
 39
0.1058333333333366
 10
128.9352025774571
 20
-99.33117386930178
 30
0.0
 40
0.7937500000000028
100
AcDbArc
 50
270.0
 51
180.0
  0
ARC
  5
CF
330
1F
100
AcDbEntity
  8
0
 62
    18
420
        0
100
AcDbCircle
 39
0.1058333333333366
 10
128.9352025774571
 20
-99.33117386930178
 30
0.0
 40
0.7937500000000028
100
AcDbArc
 50
180.0
 51
90.0
  0
ARC
  5
D0
330
1F
100
AcDbEntity
  8
0
 62
    18
420
        0
100
AcDbCircle
 39
0.1058333333333366
 10
128.9352025774571
 20
-99.33117386930178
 30
0.0
 40
0.7937500000000028
100
AcDbArc
 50
90.0
 51
0.0
  0
LINE
  5
D1
330
1F
100
AcDbEntity
  8
0
 62
    18
420
        0
100
AcDbLine
 39
0.1058333333333366
 10
129.9935359107904
 20
-99.33117386930178
 30
0.0
 11
127.8768692441237
 21
-99.33117386930178
 31
0.0
  0
LINE
  5
D2
330
1F
100
AcDbEntity
  8
0
 62
    18
420
        0
100
AcDbLine
 39
0.1058333333333366
 10
128.9352025774571
 20
-100.3895072026351
 30
0.0
 11
128.9352025774571
 21
-98.27284053596844
 31
0.0
  0
LINE
  5
D3
330
1F
100
AcDbEntity
  8
0
 62
     7
420
 16777215
100
AcDbLine
 10
125.7602025774571
 20
-101.6478405359684
 30
0.0
 11
138.4637303552348
 21
-101.6478405359684
 31
0.0
  0
LINE
  5
D4
330
1F
100
AcDbEntity
  8
0
 62
     7
420
 16777215
100
AcDbLine
 10
138.4637303552348
 20
-101.6478405359684
 30
0.0
 11
138.4637303552348
 21
-105.8811738693018
 31
0.0
  0
LINE
  5
D5
330
1F
100
AcDbEntity
  8
0
 62
     7
420
 16777215
100
AcDbLine
 10
138.4637303552348
 20
-105.8811738693018
 30
0.0
 11
125.7602025774571
 21
-105.8811738693018
 31
0.0
  0
LINE
  5
D6
330
1F
100
AcDbEntity
  8
0
 62
     7
420
 16777215
100
AcDbLine
 10
125.7602025774571
 20
-105.8811738693018
 30
0.0
 11
125.7602025774571
 21
-101.6478405359684
 31
0.0
  0
SOLID
  5
D7
330
1F
100
AcDbEntity
  8
0
 62
   254
420
 13882323
100
AcDbTrace
 10
125.7602025774571
 20
-101.6478405359684
 30
0.0
 11
138.4637303552348
 21
-101.6478405359684
 31
0.0
 12
125.7602025774571
 22
-105.8811738693018
 32
0.0
 13
138.4637303552348
 23
-105.8811738693018
 33
0.0
  0
ARC
  5
D8
330
1F
100
AcDbEntity
  8
0
 62
    18
420
        0
100
AcDbCircle
 39
0.1058333333333366
 10
128.9352025774571
 20
-103.7645072026351
 30
0.0
 40
0.7937500000000028
100
AcDbArc
 50
0.0
 51
270.0
  0
ARC
  5
D9
330
1F
100
AcDbEntity
  8
0
 62
    18
420
        0
100
AcDbCircle
 39
0.1058333333333366
 10
128.9352025774571
 20
-103.7645072026351
 30
0.0
 40
0.7937500000000028
100
AcDbArc
 50
270.0
 51
180.0
  0
ARC
  5
DA
330
1F
100
AcDbEntity
  8
0
 62
    18
420
        0
100
AcDbCircle
 39
0.1058333333333366
 10
128.9352025774571
 20
-103.7645072026351
 30
0.0
 40
0.7937500000000028
100
AcDbArc
 50
180.0
 51
90.0
  0
ARC
  5
DB
330
1F
100
AcDbEntity
  8
0
 62
    18
420
        0
100
AcDbCircle
 39
0.1058333333333366
 10
128.9352025774571
 20
-103.7645072026351
 30
0.0
 40
0.7937500000000028
100
AcDbArc
 50
90.0
 51
0.0
  0
LINE
  5
DC
330
1F
100
AcDbEntity
  8
0
 62
    18
420
        0
100
AcDbLine
 39
0.1058333333333366
 10
129.9935359107904
 20
-103.7645072026351
 30
0.0
 11
127.8768692441237
 21
-103.7645072026351
 31
0.0
  0
LINE
  5
DD
330
1F
100
AcDbEntity
  8
0
 62
    18
420
        0
100
AcDbLine
 39
0.1058333333333366
 10
128.9352025774571
 20
-104.8228405359684
 30
0.0
 11
128.9352025774571
 21
-102.7061738693018
 31
0.0
  0
LINE
  5
DE
330
1F
100
AcDbEntity
  8
0
 62
     7
420
 16777215
100
AcDbLine
 10
125.7602025774571
 20
-106.0811738693018
 30
0.0
 11
138.4637303552348
 21
-106.0811738693018
 31
0.0
  0
LINE
  5
DF
330
1F
100
AcDbEntity
  8
0
 62
     7
420
 16777215
100
AcDbLine
 10
138.4637303552348
 20
-106.0811738693018
 30
0.0
 11
138.4637303552348
 21
-109.7324238693018
 31
0.0
  0
LINE
  5
E0
330
1F
100
AcDbEntity
  8
0
 62
     7
420
 16777215
100
AcDbLine
 10
138.4637303552348
 20
-109.7324238693018
 30
0.0
 11
125.7602025774571
 21
-109.7324238693018
 31
0.0
  0
LINE
  5
E1
330
1F
100
AcDbEntity
  8
0
 62
     7
420
 16777215
100
AcDbLine
 10
125.7602025774571
 20
-109.7324238693018
 30
0.0
 11
125.7602025774571
 21
-106.0811738693018
 31
0.0
  0
SOLID
  5
E2
330
1F
100
AcDbEntity
  8
0
 62
     9
420
 12632256
100
AcDbTrace
 10
125.7602025774571
 20
-106.0811738693018
 30
0.0
 11
138.4637303552348
 21
-106.0811738693018
 31
0.0
 12
125.7602025774571
 22
-109.7324238693018
 32
0.0
 13
138.4637303552348
 23
-109.7324238693018
 33
0.0
  0
LINE
  5
E3
330
1F
100
AcDbEntity
  8
0
 62
     7
420
 16777215
100
AcDbLine
 10
138.6637303552348
 20
-80.0632572026351
 30
0.0
 11
152.2518484107904
 21
-80.0632572026351
 31
0.0
  0
LINE
  5
E4
330
1F
100
AcDbEntity
  8
0
 62
     7
420
 16777215
100
AcDbLine
 10
152.2518484107904
 20
-80.0632572026351
 30
0.0
 11
152.2518484107904
 21
-83.7145072026351
 31
0.0
  0
LINE
  5
E5
330
1F
100
AcDbEntity
  8
0
 62
     7
420
 16777215
100
AcDbLine
 10
152.2518484107904
 20
-83.7145072026351
 30
0.0
 11
138.6637303552348
 21
-83.7145072026351
 31
0.0
  0
LINE
  5
E6
330
1F
100
AcDbEntity
  8
0
 62
     7
420
 16777215
100
AcDbLine
 10
138.6637303552348
 20
-83.7145072026351
 30
0.0
 11
138.6637303552348
 21
-80.0632572026351
 31
0.0
  0
SOLID
  5
E7
330
1F
100
AcDbEntity
  8
0
 62
     9
420
 12632256
100
AcDbTrace
 10
138.6637303552348
 20
-80.0632572026351
 30
0.0
 11
152.2518484107904
 21
-80.0632572026351
 31
0.0
 12
138.6637303552348
 22
-83.7145072026351
 32
0.0
 13
152.2518484107904
 23
-83.7145072026351
 33
0.0
  0
TEXT
  5
E8
330
1F
100
AcDbEntity
  8
0
 62
    18
420
        0
100
AcDbText
 10
139.7220636885682
 20
-83.23825720263511
 30
0.0
 40
2.035718968531469
  1
Count
  7
Arial0
100
AcDbText
  0
LINE
  5
E9
330
1F
100
AcDbEntity
  8
0
 62
     7
420
 16777215
100
AcDbLine
 10
138.6637303552348
 20
-83.91450720263511
 30
0.0
 11
152.2518484107904
 21
-83.91450720263511
 31
0.0
  0
LINE
  5
EA
330
1F
100
AcDbEntity
  8
0
 62
     7
420
 16777215
100
AcDbLine
 10
152.2518484107904
 20
-83.91450720263511
 30
0.0
 11
152.2518484107904
 21
-88.14784053596844
 31
0.0
  0
LINE
  5
EB
330
1F
100
AcDbEntity
  8
0
 62
     7
420
 16777215
100
AcDbLine
 10
152.2518484107904
 20
-88.14784053596844
 30
0.0
 11
138.6637303552348
 21
-88.14784053596844
 31
0.0
  0
LINE
  5
EC
330
1F
100
AcDbEntity
  8
0
 62
     7
420
 16777215
100
AcDbLine
 10
138.6637303552348
 20
-88.14784053596844
 30
0.0
 11
138.6637303552348
 21
-83.91450720263511
 31
0.0
  0
SOLID
  5
ED
330
1F
100
AcDbEntity
  8
0
 62
   254
420
 13882323
100
AcDbTrace
 10
138.6637303552348
 20
-83.91450720263511
 30
0.0
 11
152.2518484107904
 21
-83.91450720263511
 31
0.0
 12
138.6637303552348
 22
-88.14784053596844
 32
0.0
 13
152.2518484107904
 23
-88.14784053596844
 33
0.0
  0
TEXT
  5
EE
330
1F
100
AcDbEntity
  8
0
 62
    18
420
        0
100
AcDbText
 10
139.7220636885682
 20
-87.38054886930178
 30
0.0
 40
2.035718968531469
  1
46
  7
Arial0
100
AcDbText
  0
LINE
  5
EF
330
1F
100
AcDbEntity
  8
0
 62
     7
420
 16777215
100
AcDbLine
 10
138.6637303552348
 20
-88.34784053596843
 30
0.0
 11
152.2518484107904
 21
-88.34784053596843
 31
0.0
  0
LINE
  5
F0
330
1F
100
AcDbEntity
  8
0
 62
     7
420
 16777215
100
AcDbLine
 10
152.2518484107904
 20
-88.34784053596843
 30
0.0
 11
152.2518484107904
 21
-92.58117386930176
 31
0.0
  0
LINE
  5
F1
330
1F
100
AcDbEntity
  8
0
 62
     7
420
 16777215
100
AcDbLine
 10
152.2518484107904
 20
-92.58117386930176
 30
0.0
 11
138.6637303552348
 21
-92.58117386930176
 31
0.0
  0
LINE
  5
F2
330
1F
100
AcDbEntity
  8
0
 62
     7
420
 16777215
100
AcDbLine
 10
138.6637303552348
 20
-92.58117386930176
 30
0.0
 11
138.6637303552348
 21
-88.34784053596843
 31
0.0
  0
SOLID
  5
F3
330
1F
100
AcDbEntity
  8
0
 62
     9
420
 12632256
100
AcDbTrace
 10
138.6637303552348
 20
-88.34784053596843
 30
0.0
 11
152.2518484107904
 21
-88.34784053596843
 31
0.0
 12
138.6637303552348
 22
-92.58117386930176
 32
0.0
 13
152.2518484107904
 23
-92.58117386930176
 33
0.0
  0
TEXT
  5
F4
330
1F
100
AcDbEntity
  8
0
 62
    18
420
        0
100
AcDbText
 10
139.7220636885682
 20
-91.8138822026351
 30
0.0
 40
2.035718968531469
  1
1
  7
Arial0
100
AcDbText
  0
LINE
  5
F5
330
1F
100
AcDbEntity
  8
0
 62
     7
420
 16777215
100
AcDbLine
 10
138.6637303552348
 20
-92.78117386930177
 30
0.0
 11
152.2518484107904
 21
-92.78117386930177
 31
0.0
  0
LINE
  5
F6
330
1F
100
AcDbEntity
  8
0
 62
     7
420
 16777215
100
AcDbLine
 10
152.2518484107904
 20
-92.78117386930177
 30
0.0
 11
152.2518484107904
 21
-97.0145072026351
 31
0.0
  0
LINE
  5
F7
330
1F
100
AcDbEntity
  8
0
 62
     7
420
 16777215
100
AcDbLine
 10
152.2518484107904
 20
-97.0145072026351
 30
0.0
 11
138.6637303552348
 21
-97.0145072026351
 31
0.0
  0
LINE
  5
F8
330
1F
100
AcDbEntity
  8
0
 62
     7
420
 16777215
100
AcDbLine
 10
138.6637303552348
 20
-97.0145072026351
 30
0.0
 11
138.6637303552348
 21
-92.78117386930177
 31
0.0
  0
SOLID
  5
F9
330
1F
100
AcDbEntity
  8
0
 62
   254
420
 13882323
100
AcDbTrace
 10
138.6637303552348
 20
-92.78117386930177
 30
0.0
 11
152.2518484107904
 21
-92.78117386930177
 31
0.0
 12
138.6637303552348
 22
-97.0145072026351
 32
0.0
 13
152.2518484107904
 23
-97.0145072026351
 33
0.0
  0
TEXT
  5
FA
330
1F
100
AcDbEntity
  8
0
 62
    18
420
        0
100
AcDbText
 10
139.7220636885682
 20
-96.24721553596844
 30
0.0
 40
2.035718968531469
  1
2
  7
Arial0
100
AcDbText
  0
LINE
  5
FB
330
1F
100
AcDbEntity
  8
0
 62
     7
420
 16777215
100
AcDbLine
 10
138.6637303552348
 20
-97.2145072026351
 30
0.0
 11
152.2518484107904
 21
-97.2145072026351
 31
0.0
  0
LINE
  5
FC
330
1F
100
AcDbEntity
  8
0
 62
     7
420
 16777215
100
AcDbLine
 10
152.2518484107904
 20
-97.2145072026351
 30
0.0
 11
152.2518484107904
 21
-101.4478405359684
 31
0.0
  0
LINE
  5
FD
330
1F
100
AcDbEntity
  8
0
 62
     7
420
 16777215
100
AcDbLine
 10
152.2518484107904
 20
-101.4478405359684
 30
0.0
 11
138.6637303552348
 21
-101.4478405359684
 31
0.0
  0
LINE
  5
FE
330
1F
100
AcDbEntity
  8
0
 62
     7
420
 16777215
100
AcDbLine
 10
138.6637303552348
 20
-101.4478405359684
 30
0.0
 11
138.6637303552348
 21
-97.2145072026351
 31
0.0
  0
SOLID
  5
FF
330
1F
100
AcDbEntity
  8
0
 62
     9
420
 12632256
100
AcDbTrace
 10
138.6637303552348
 20
-97.2145072026351
 30
0.0
 11
152.2518484107904
 21
-97.2145072026351
 31
0.0
 12
138.6637303552348
 22
-101.4478405359684
 32
0.0
 13
152.2518484107904
 23
-101.4478405359684
 33
0.0
  0
TEXT
  5
100
330
1F
100
AcDbEntity
  8
0
 62
    18
420
        0
100
AcDbText
 10
139.7220636885682
 20
-100.6805488693018
 30
0.0
 40
2.035718968531469
  1
8
  7
Arial0
100
AcDbText
  0
LINE
  5
101
330
1F
100
AcDbEntity
  8
0
 62
     7
420
 16777215
100
AcDbLine
 10
138.6637303552348
 20
-101.6478405359684
 30
0.0
 11
152.2518484107904
 21
-101.6478405359684
 31
0.0
  0
LINE
  5
102
330
1F
100
AcDbEntity
  8
0
 62
     7
420
 16777215
100
AcDbLine
 10
152.2518484107904
 20
-101.6478405359684
 30
0.0
 11
152.2518484107904
 21
-105.8811738693018
 31
0.0
  0
LINE
  5
103
330
1F
100
AcDbEntity
  8
0
 62
     7
420
 16777215
100
AcDbLine
 10
152.2518484107904
 20
-105.8811738693018
 30
0.0
 11
138.6637303552348
 21
-105.8811738693018
 31
0.0
  0
LINE
  5
104
330
1F
100
AcDbEntity
  8
0
 62
     7
420
 16777215
100
AcDbLine
 10
138.6637303552348
 20
-105.8811738693018
 30
0.0
 11
138.6637303552348
 21
-101.6478405359684
 31
0.0
  0
SOLID
  5
105
330
1F
100
AcDbEntity
  8
0
 62
   254
420
 13882323
100
AcDbTrace
 10
138.6637303552348
 20
-101.6478405359684
 30
0.0
 11
152.2518484107904
 21
-101.6478405359684
 31
0.0
 12
138.6637303552348
 22
-105.8811738693018
 32
0.0
 13
152.2518484107904
 23
-105.8811738693018
 33
0.0
  0
TEXT
  5
106
330
1F
100
AcDbEntity
  8
0
 62
    18
420
        0
100
AcDbText
 10
139.7220636885682
 20
-105.1138822026351
 30
0.0
 40
2.035718968531469
  1
4
  7
Arial0
100
AcDbText
  0
LINE
  5
107
330
1F
100
AcDbEntity
  8
0
 62
     7
420
 16777215
100
AcDbLine
 10
138.6637303552348
 20
-106.0811738693018
 30
0.0
 11
152.2518484107904
 21
-106.0811738693018
 31
0.0
  0
LINE
  5
108
330
1F
100
AcDbEntity
  8
0
 62
     7
420
 16777215
100
AcDbLine
 10
152.2518484107904
 20
-106.0811738693018
 30
0.0
 11
152.2518484107904
 21
-109.7324238693018
 31
0.0
  0
LINE
  5
109
330
1F
100
AcDbEntity
  8
0
 62
     7
420
 16777215
100
AcDbLine
 10
152.2518484107904
 20
-109.7324238693018
 30
0.0
 11
138.6637303552348
 21
-109.7324238693018
 31
0.0
  0
LINE
  5
10A
330
1F
100
AcDbEntity
  8
0
 62
     7
420
 16777215
100
AcDbLine
 10
138.6637303552348
 20
-109.7324238693018
 30
0.0
 11
138.6637303552348
 21
-106.0811738693018
 31
0.0
  0
SOLID
  5
10B
330
1F
100
AcDbEntity
  8
0
 62
     9
420
 12632256
100
AcDbTrace
 10
138.6637303552348
 20
-106.0811738693018
 30
0.0
 11
152.2518484107904
 21
-106.0811738693018
 31
0.0
 12
138.6637303552348
 22
-109.7324238693018
 32
0.0
 13
152.2518484107904
 23
-109.7324238693018
 33
0.0
  0
TEXT
  5
10C
330
1F
100
AcDbEntity
  8
0
 62
    18
420
        0
100
AcDbText
 10
139.7220636885682
 20
-109.2561738693018
 30
0.0
 40
2.035718968531469
  1
61 Total
  7
Arial0
100
AcDbText
  0
LINE
  5
10D
330
1F
100
AcDbEntity
  8
0
 62
     7
420
 16777215
100
AcDbLine
 10
152.4518484107904
 20
-80.0632572026351
 30
0.0
 11
168.1566331330126
 21
-80.0632572026351
 31
0.0
  0
LINE
  5
10E
330
1F
100
AcDbEntity
  8
0
 62
     7
420
 16777215
100
AcDbLine
 10
168.1566331330126
 20
-80.0632572026351
 30
0.0
 11
168.1566331330126
 21
-83.7145072026351
 31
0.0
  0
LINE
  5
10F
330
1F
100
AcDbEntity
  8
0
 62
     7
420
 16777215
100
AcDbLine
 10
168.1566331330126
 20
-83.7145072026351
 30
0.0
 11
152.4518484107904
 21
-83.7145072026351
 31
0.0
  0
LINE
  5
110
330
1F
100
AcDbEntity
  8
0
 62
     7
420
 16777215
100
AcDbLine
 10
152.4518484107904
 20
-83.7145072026351
 30
0.0
 11
152.4518484107904
 21
-80.0632572026351
 31
0.0
  0
SOLID
  5
111
330
1F
100
AcDbEntity
  8
0
 62
     9
420
 12632256
100
AcDbTrace
 10
152.4518484107904
 20
-80.0632572026351
 30
0.0
 11
168.1566331330126
 21
-80.0632572026351
 31
0.0
 12
152.4518484107904
 22
-83.7145072026351
 32
0.0
 13
168.1566331330126
 23
-83.7145072026351
 33
0.0
  0
TEXT
  5
112
330
1F
100
AcDbEntity
  8
0
 62
    18
420
        0
100
AcDbText
 10
153.5101817441237
 20
-83.23825720263511
 30
0.0
 40
2.035718968531469
  1
Hole Size
  7
Arial0
100
AcDbText
  0
LINE
  5
113
330
1F
100
AcDbEntity
  8
0
 62
     7
420
 16777215
100
AcDbLine
 10
152.4518484107904
 20
-83.91450720263511
 30
0.0
 11
168.1566331330126
 21
-83.91450720263511
 31
0.0
  0
LINE
  5
114
330
1F
100
AcDbEntity
  8
0
 62
     7
420
 16777215
100
AcDbLine
 10
168.1566331330126
 20
-83.91450720263511
 30
0.0
 11
168.1566331330126
 21
-88.14784053596844
 31
0.0
  0
LINE
  5
115
330
1F
100
AcDbEntity
  8
0
 62
     7
420
 16777215
100
AcDbLine
 10
168.1566331330126
 20
-88.14784053596844
 30
0.0
 11
152.4518484107904
 21
-88.14784053596844
 31
0.0
  0
LINE
  5
116
330
1F
100
AcDbEntity
  8
0
 62
     7
420
 16777215
100
AcDbLine
 10
152.4518484107904
 20
-88.14784053596844
 30
0.0
 11
152.4518484107904
 21
-83.91450720263511
 31
0.0
  0
SOLID
  5
117
330
1F
100
AcDbEntity
  8
0
 62
   254
420
 13882323
100
AcDbTrace
 10
152.4518484107904
 20
-83.91450720263511
 30
0.0
 11
168.1566331330126
 21
-83.91450720263511
 31
0.0
 12
152.4518484107904
 22
-88.14784053596844
 32
0.0
 13
168.1566331330126
 23
-88.14784053596844
 33
0.0
  0
TEXT
  5
118
330
1F
100
AcDbEntity
  8
0
 62
    18
420
        0
100
AcDbText
 10
153.5101817441237
 20
-87.38054886930178
 30
0.0
 40
2.035718968531469
  1
0.25mm
  7
Arial0
100
AcDbText
  0
LINE
  5
119
330
1F
100
AcDbEntity
  8
0
 62
     7
420
 16777215
100
AcDbLine
 10
152.4518484107904
 20
-88.34784053596843
 30
0.0
 11
168.1566331330126
 21
-88.34784053596843
 31
0.0
  0
LINE
  5
11A
330
1F
100
AcDbEntity
  8
0
 62
     7
420
 16777215
100
AcDbLine
 10
168.1566331330126
 20
-88.34784053596843
 30
0.0
 11
168.1566331330126
 21
-92.58117386930176
 31
0.0
  0
LINE
  5
11B
330
1F
100
AcDbEntity
  8
0
 62
     7
420
 16777215
100
AcDbLine
 10
168.1566331330126
 20
-92.58117386930176
 30
0.0
 11
152.4518484107904
 21
-92.58117386930176
 31
0.0
  0
LINE
  5
11C
330
1F
100
AcDbEntity
  8
0
 62
     7
420
 16777215
100
AcDbLine
 10
152.4518484107904
 20
-92.58117386930176
 30
0.0
 11
152.4518484107904
 21
-88.34784053596843
 31
0.0
  0
SOLID
  5
11D
330
1F
100
AcDbEntity
  8
0
 62
     9
420
 12632256
100
AcDbTrace
 10
152.4518484107904
 20
-88.34784053596843
 30
0.0
 11
168.1566331330126
 21
-88.34784053596843
 31
0.0
 12
152.4518484107904
 22
-92.58117386930176
 32
0.0
 13
168.1566331330126
 23
-92.58117386930176
 33
0.0
  0
TEXT
  5
11E
330
1F
100
AcDbEntity
  8
0
 62
    18
420
        0
100
AcDbText
 10
153.5101817441237
 20
-91.8138822026351
 30
0.0
 40
2.035718968531469
  1
0.30mm
  7
Arial0
100
AcDbText
  0
LINE
  5
11F
330
1F
100
AcDbEntity
  8
0
 62
     7
420
 16777215
100
AcDbLine
 10
152.4518484107904
 20
-92.78117386930177
 30
0.0
 11
168.1566331330126
 21
-92.78117386930177
 31
0.0
  0
LINE
  5
120
330
1F
100
AcDbEntity
  8
0
 62
     7
420
 16777215
100
AcDbLine
 10
168.1566331330126
 20
-92.78117386930177
 30
0.0
 11
168.1566331330126
 21
-97.0145072026351
 31
0.0
  0
LINE
  5
121
330
1F
100
AcDbEntity
  8
0
 62
     7
420
 16777215
100
AcDbLine
 10
168.1566331330126
 20
-97.0145072026351
 30
0.0
 11
152.4518484107904
 21
-97.0145072026351
 31
0.0
  0
LINE
  5
122
330
1F
100
AcDbEntity
  8
0
 62
     7
420
 16777215
100
AcDbLine
 10
152.4518484107904
 20
-97.0145072026351
 30
0.0
 11
152.4518484107904
 21
-92.78117386930177
 31
0.0
  0
SOLID
  5
123
330
1F
100
AcDbEntity
  8
0
 62
   254
420
 13882323
100
AcDbTrace
 10
152.4518484107904
 20
-92.78117386930177
 30
0.0
 11
168.1566331330126
 21
-92.78117386930177
 31
0.0
 12
152.4518484107904
 22
-97.0145072026351
 32
0.0
 13
168.1566331330126
 23
-97.0145072026351
 33
0.0
  0
TEXT
  5
124
330
1F
100
AcDbEntity
  8
0
 62
    18
420
        0
100
AcDbText
 10
153.5101817441237
 20
-96.24721553596844
 30
0.0
 40
2.035718968531469
  1
0.80mm
  7
Arial0
100
AcDbText
  0
LINE
  5
125
330
1F
100
AcDbEntity
  8
0
 62
     7
420
 16777215
100
AcDbLine
 10
152.4518484107904
 20
-97.2145072026351
 30
0.0
 11
168.1566331330126
 21
-97.2145072026351
 31
0.0
  0
LINE
  5
126
330
1F
100
AcDbEntity
  8
0
 62
     7
420
 16777215
100
AcDbLine
 10
168.1566331330126
 20
-97.2145072026351
 30
0.0
 11
168.1566331330126
 21
-101.4478405359684
 31
0.0
  0
LINE
  5
127
330
1F
100
AcDbEntity
  8
0
 62
     7
420
 16777215
100
AcDbLine
 10
168.1566331330126
 20
-101.4478405359684
 30
0.0
 11
152.4518484107904
 21
-101.4478405359684
 31
0.0
  0
LINE
  5
128
330
1F
100
AcDbEntity
  8
0
 62
     7
420
 16777215
100
AcDbLine
 10
152.4518484107904
 20
-101.4478405359684
 30
0.0
 11
152.4518484107904
 21
-97.2145072026351
 31
0.0
  0
SOLID
  5
129
330
1F
100
AcDbEntity
  8
0
 62
     9
420
 12632256
100
AcDbTrace
 10
152.4518484107904
 20
-97.2145072026351
 30
0.0
 11
168.1566331330126
 21
-97.2145072026351
 31
0.0
 12
152.4518484107904
 22
-101.4478405359684
 32
0.0
 13
168.1566331330126
 23
-101.4478405359684
 33
0.0
  0
TEXT
  5
12A
330
1F
100
AcDbEntity
  8
0
 62
    18
420
        0
100
AcDbText
 10
153.5101817441237
 20
-100.6805488693018
 30
0.0
 40
2.035718968531469
  1
1.00mm
  7
Arial0
100
AcDbText
  0
LINE
  5
12B
330
1F
100
AcDbEntity
  8
0
 62
     7
420
 16777215
100
AcDbLine
 10
152.4518484107904
 20
-101.6478405359684
 30
0.0
 11
168.1566331330126
 21
-101.6478405359684
 31
0.0
  0
LINE
  5
12C
330
1F
100
AcDbEntity
  8
0
 62
     7
420
 16777215
100
AcDbLine
 10
168.1566331330126
 20
-101.6478405359684
 30
0.0
 11
168.1566331330126
 21
-105.8811738693018
 31
0.0
  0
LINE
  5
12D
330
1F
100
AcDbEntity
  8
0
 62
     7
420
 16777215
100
AcDbLine
 10
168.1566331330126
 20
-105.8811738693018
 30
0.0
 11
152.4518484107904
 21
-105.8811738693018
 31
0.0
  0
LINE
  5
12E
330
1F
100
AcDbEntity
  8
0
 62
     7
420
 16777215
100
AcDbLine
 10
152.4518484107904
 20
-105.8811738693018
 30
0.0
 11
152.4518484107904
 21
-101.6478405359684
 31
0.0
  0
SOLID
  5
12F
330
1F
100
AcDbEntity
  8
0
 62
   254
420
 13882323
100
AcDbTrace
 10
152.4518484107904
 20
-101.6478405359684
 30
0.0
 11
168.1566331330126
 21
-101.6478405359684
 31
0.0
 12
152.4518484107904
 22
-105.8811738693018
 32
0.0
 13
168.1566331330126
 23
-105.8811738693018
 33
0.0
  0
TEXT
  5
130
330
1F
100
AcDbEntity
  8
0
 62
    18
420
        0
100
AcDbText
 10
153.5101817441237
 20
-105.1138822026351
 30
0.0
 40
2.035718968531469
  1
3.00mm
  7
Arial0
100
AcDbText
  0
LINE
  5
131
330
1F
100
AcDbEntity
  8
0
 62
     7
420
 16777215
100
AcDbLine
 10
152.4518484107904
 20
-106.0811738693018
 30
0.0
 11
168.1566331330126
 21
-106.0811738693018
 31
0.0
  0
LINE
  5
132
330
1F
100
AcDbEntity
  8
0
 62
     7
420
 16777215
100
AcDbLine
 10
168.1566331330126
 20
-106.0811738693018
 30
0.0
 11
168.1566331330126
 21
-109.7324238693018
 31
0.0
  0
LINE
  5
133
330
1F
100
AcDbEntity
  8
0
 62
     7
420
 16777215
100
AcDbLine
 10
168.1566331330126
 20
-109.7324238693018
 30
0.0
 11
152.4518484107904
 21
-109.7324238693018
 31
0.0
  0
LINE
  5
134
330
1F
100
AcDbEntity
  8
0
 62
     7
420
 16777215
100
AcDbLine
 10
152.4518484107904
 20
-109.7324238693018
 30
0.0
 11
152.4518484107904
 21
-106.0811738693018
 31
0.0
  0
SOLID
  5
135
330
1F
100
AcDbEntity
  8
0
 62
     9
420
 12632256
100
AcDbTrace
 10
152.4518484107904
 20
-106.0811738693018
 30
0.0
 11
168.1566331330126
 21
-106.0811738693018
 31
0.0
 12
152.4518484107904
 22
-109.7324238693018
 32
0.0
 13
168.1566331330126
 23
-109.7324238693018
 33
0.0
  0
LINE
  5
136
330
1F
100
AcDbEntity
  8
0
 62
     7
420
 16777215
100
AcDbLine
 10
168.3566331330126
 20
-80.0632572026351
 30
0.0
 11
179.4753067441237
 21
-80.0632572026351
 31
0.0
  0
LINE
  5
137
330
1F
100
AcDbEntity
  8
0
 62
     7
420
 16777215
100
AcDbLine
 10
179.4753067441237
 20
-80.0632572026351
 30
0.0
 11
179.4753067441237
 21
-83.7145072026351
 31
0.0
  0
LINE
  5
138
330
1F
100
AcDbEntity
  8
0
 62
     7
420
 16777215
100
AcDbLine
 10
179.4753067441237
 20
-83.7145072026351
 30
0.0
 11
168.3566331330126
 21
-83.7145072026351
 31
0.0
  0
LINE
  5
139
330
1F
100
AcDbEntity
  8
0
 62
     7
420
 16777215
100
AcDbLine
 10
168.3566331330126
 20
-83.7145072026351
 30
0.0
 11
168.3566331330126
 21
-80.0632572026351
 31
0.0
  0
SOLID
  5
13A
330
1F
100
AcDbEntity
  8
0
 62
     9
420
 12632256
100
AcDbTrace
 10
168.3566331330126
 20
-80.0632572026351
 30
0.0
 11
179.4753067441237
 21
-80.0632572026351
 31
0.0
 12
168.3566331330126
 22
-83.7145072026351
 32
0.0
 13
179.4753067441237
 23
-83.7145072026351
 33
0.0
  0
TEXT
  5
13B
330
1F
100
AcDbEntity
  8
0
 62
    18
420
        0
100
AcDbText
 10
169.4149664663459
 20
-83.23825720263511
 30
0.0
 40
2.035718968531469
  1
Plated
  7
Arial0
100
AcDbText
  0
LINE
  5
13C
330
1F
100
AcDbEntity
  8
0
 62
     7
420
 16777215
100
AcDbLine
 10
168.3566331330126
 20
-83.91450720263511
 30
0.0
 11
179.4753067441237
 21
-83.91450720263511
 31
0.0
  0
LINE
  5
13D
330
1F
100
AcDbEntity
  8
0
 62
     7
420
 16777215
100
AcDbLine
 10
179.4753067441237
 20
-83.91450720263511
 30
0.0
 11
179.4753067441237
 21
-88.14784053596844
 31
0.0
  0
LINE
  5
13E
330
1F
100
AcDbEntity
  8
0
 62
     7
420
 16777215
100
AcDbLine
 10
179.4753067441237
 20
-88.14784053596844
 30
0.0
 11
168.3566331330126
 21
-88.14784053596844
 31
0.0
  0
LINE
  5
13F
330
1F
100
AcDbEntity
  8
0
 62
     7
420
 16777215
100
AcDbLine
 10
168.3566331330126
 20
-88.14784053596844
 30
0.0
 11
168.3566331330126
 21
-83.91450720263511
 31
0.0
  0
SOLID
  5
140
330
1F
100
AcDbEntity
  8
0
 62
   254
420
 13882323
100
AcDbTrace
 10
168.3566331330126
 20
-83.91450720263511
 30
0.0
 11
179.4753067441237
 21
-83.91450720263511
 31
0.0
 12
168.3566331330126
 22
-88.14784053596844
 32
0.0
 13
179.4753067441237
 23
-88.14784053596844
 33
0.0
  0
TEXT
  5
141
330
1F
100
AcDbEntity
  8
0
 62
    18
420
        0
100
AcDbText
 10
169.4149664663459
 20
-87.38054886930178
 30
0.0
 40
2.035718968531469
  1
Plated
  7
Arial0
100
AcDbText
  0
LINE
  5
142
330
1F
100
AcDbEntity
  8
0
 62
     7
420
 16777215
100
AcDbLine
 10
168.3566331330126
 20
-88.34784053596843
 30
0.0
 11
179.4753067441237
 21
-88.34784053596843
 31
0.0
  0
LINE
  5
143
330
1F
100
AcDbEntity
  8
0
 62
     7
420
 16777215
100
AcDbLine
 10
179.4753067441237
 20
-88.34784053596843
 30
0.0
 11
179.4753067441237
 21
-92.58117386930176
 31
0.0
  0
LINE
  5
144
330
1F
100
AcDbEntity
  8
0
 62
     7
420
 16777215
100
AcDbLine
 10
179.4753067441237
 20
-92.58117386930176
 30
0.0
 11
168.3566331330126
 21
-92.58117386930176
 31
0.0
  0
LINE
  5
145
330
1F
100
AcDbEntity
  8
0
 62
     7
420
 16777215
100
AcDbLine
 10
168.3566331330126
 20
-92.58117386930176
 30
0.0
 11
168.3566331330126
 21
-88.34784053596843
 31
0.0
  0
SOLID
  5
146
330
1F
100
AcDbEntity
  8
0
 62
     9
420
 12632256
100
AcDbTrace
 10
168.3566331330126
 20
-88.34784053596843
 30
0.0
 11
179.4753067441237
 21
-88.34784053596843
 31
0.0
 12
168.3566331330126
 22
-92.58117386930176
 32
0.0
 13
179.4753067441237
 23
-92.58117386930176
 33
0.0
  0
TEXT
  5
147
330
1F
100
AcDbEntity
  8
0
 62
    18
420
        0
100
AcDbText
 10
169.4149664663459
 20
-91.8138822026351
 30
0.0
 40
2.035718968531469
  1
Plated
  7
Arial0
100
AcDbText
  0
LINE
  5
148
330
1F
100
AcDbEntity
  8
0
 62
     7
420
 16777215
100
AcDbLine
 10
168.3566331330126
 20
-92.78117386930177
 30
0.0
 11
179.4753067441237
 21
-92.78117386930177
 31
0.0
  0
LINE
  5
149
330
1F
100
AcDbEntity
  8
0
 62
     7
420
 16777215
100
AcDbLine
 10
179.4753067441237
 20
-92.78117386930177
 30
0.0
 11
179.4753067441237
 21
-97.0145072026351
 31
0.0
  0
LINE
  5
14A
330
1F
100
AcDbEntity
  8
0
 62
     7
420
 16777215
100
AcDbLine
 10
179.4753067441237
 20
-97.0145072026351
 30
0.0
 11
168.3566331330126
 21
-97.0145072026351
 31
0.0
  0
LINE
  5
14B
330
1F
100
AcDbEntity
  8
0
 62
     7
420
 16777215
100
AcDbLine
 10
168.3566331330126
 20
-97.0145072026351
 30
0.0
 11
168.3566331330126
 21
-92.78117386930177
 31
0.0
  0
SOLID
  5
14C
330
1F
100
AcDbEntity
  8
0
 62
   254
420
 13882323
100
AcDbTrace
 10
168.3566331330126
 20
-92.78117386930177
 30
0.0
 11
179.4753067441237
 21
-92.78117386930177
 31
0.0
 12
168.3566331330126
 22
-97.0145072026351
 32
0.0
 13
179.4753067441237
 23
-97.0145072026351
 33
0.0
  0
TEXT
  5
14D
330
1F
100
AcDbEntity
  8
0
 62
    18
420
        0
100
AcDbText
 10
169.4149664663459
 20
-96.24721553596844
 30
0.0
 40
2.035718968531469
  1
Plated
  7
Arial0
100
AcDbText
  0
LINE
  5
14E
330
1F
100
AcDbEntity
  8
0
 62
     7
420
 16777215
100
AcDbLine
 10
168.3566331330126
 20
-97.2145072026351
 30
0.0
 11
179.4753067441237
 21
-97.2145072026351
 31
0.0
  0
LINE
  5
14F
330
1F
100
AcDbEntity
  8
0
 62
     7
420
 16777215
100
AcDbLine
 10
179.4753067441237
 20
-97.2145072026351
 30
0.0
 11
179.4753067441237
 21
-101.4478405359684
 31
0.0
  0
LINE
  5
150
330
1F
100
AcDbEntity
  8
0
 62
     7
420
 16777215
100
AcDbLine
 10
179.4753067441237
 20
-101.4478405359684
 30
0.0
 11
168.3566331330126
 21
-101.4478405359684
 31
0.0
  0
LINE
  5
151
330
1F
100
AcDbEntity
  8
0
 62
     7
420
 16777215
100
AcDbLine
 10
168.3566331330126
 20
-101.4478405359684
 30
0.0
 11
168.3566331330126
 21
-97.2145072026351
 31
0.0
  0
SOLID
  5
152
330
1F
100
AcDbEntity
  8
0
 62
     9
420
 12632256
100
AcDbTrace
 10
168.3566331330126
 20
-97.2145072026351
 30
0.0
 11
179.4753067441237
 21
-97.2145072026351
 31
0.0
 12
168.3566331330126
 22
-101.4478405359684
 32
0.0
 13
179.4753067441237
 23
-101.4478405359684
 33
0.0
  0
TEXT
  5
153
330
1F
100
AcDbEntity
  8
0
 62
    18
420
        0
100
AcDbText
 10
169.4149664663459
 20
-100.6805488693018
 30
0.0
 40
2.035718968531469
  1
Plated
  7
Arial0
100
AcDbText
  0
LINE
  5
154
330
1F
100
AcDbEntity
  8
0
 62
     7
420
 16777215
100
AcDbLine
 10
168.3566331330126
 20
-101.6478405359684
 30
0.0
 11
179.4753067441237
 21
-101.6478405359684
 31
0.0
  0
LINE
  5
155
330
1F
100
AcDbEntity
  8
0
 62
     7
420
 16777215
100
AcDbLine
 10
179.4753067441237
 20
-101.6478405359684
 30
0.0
 11
179.4753067441237
 21
-105.8811738693018
 31
0.0
  0
LINE
  5
156
330
1F
100
AcDbEntity
  8
0
 62
     7
420
 16777215
100
AcDbLine
 10
179.4753067441237
 20
-105.8811738693018
 30
0.0
 11
168.3566331330126
 21
-105.8811738693018
 31
0.0
  0
LINE
  5
157
330
1F
100
AcDbEntity
  8
0
 62
     7
420
 16777215
100
AcDbLine
 10
168.3566331330126
 20
-105.8811738693018
 30
0.0
 11
168.3566331330126
 21
-101.6478405359684
 31
0.0
  0
SOLID
  5
158
330
1F
100
AcDbEntity
  8
0
 62
   254
420
 13882323
100
AcDbTrace
 10
168.3566331330126
 20
-101.6478405359684
 30
0.0
 11
179.4753067441237
 21
-101.6478405359684
 31
0.0
 12
168.3566331330126
 22
-105.8811738693018
 32
0.0
 13
179.4753067441237
 23
-105.8811738693018
 33
0.0
  0
TEXT
  5
159
330
1F
100
AcDbEntity
  8
0
 62
    18
420
        0
100
AcDbText
 10
169.4149664663459
 20
-105.1138822026351
 30
0.0
 40
2.035718968531469
  1
Plated
  7
Arial0
100
AcDbText
  0
LINE
  5
15A
330
1F
100
AcDbEntity
  8
0
 62
     7
420
 16777215
100
AcDbLine
 10
168.3566331330126
 20
-106.0811738693018
 30
0.0
 11
179.4753067441237
 21
-106.0811738693018
 31
0.0
  0
LINE
  5
15B
330
1F
100
AcDbEntity
  8
0
 62
     7
420
 16777215
100
AcDbLine
 10
179.4753067441237
 20
-106.0811738693018
 30
0.0
 11
179.4753067441237
 21
-109.7324238693018
 31
0.0
  0
LINE
  5
15C
330
1F
100
AcDbEntity
  8
0
 62
     7
420
 16777215
100
AcDbLine
 10
179.4753067441237
 20
-109.7324238693018
 30
0.0
 11
168.3566331330126
 21
-109.7324238693018
 31
0.0
  0
LINE
  5
15D
330
1F
100
AcDbEntity
  8
0
 62
     7
420
 16777215
100
AcDbLine
 10
168.3566331330126
 20
-109.7324238693018
 30
0.0
 11
168.3566331330126
 21
-106.0811738693018
 31
0.0
  0
SOLID
  5
15E
330
1F
100
AcDbEntity
  8
0
 62
     9
420
 12632256
100
AcDbTrace
 10
168.3566331330126
 20
-106.0811738693018
 30
0.0
 11
179.4753067441237
 21
-106.0811738693018
 31
0.0
 12
168.3566331330126
 22
-109.7324238693018
 32
0.0
 13
179.4753067441237
 23
-109.7324238693018
 33
0.0
  0
LINE
  5
15F
330
1F
100
AcDbEntity
  8
0
 62
     7
420
 16777215
100
AcDbLine
 10
179.6753067441237
 20
-80.0632572026351
 30
0.0
 11
203.3220011885682
 21
-80.0632572026351
 31
0.0
  0
LINE
  5
160
330
1F
100
AcDbEntity
  8
0
 62
     7
420
 16777215
100
AcDbLine
 10
203.3220011885682
 20
-80.0632572026351
 30
0.0
 11
203.3220011885682
 21
-83.7145072026351
 31
0.0
  0
LINE
  5
161
330
1F
100
AcDbEntity
  8
0
 62
     7
420
 16777215
100
AcDbLine
 10
203.3220011885682
 20
-83.7145072026351
 30
0.0
 11
179.6753067441237
 21
-83.7145072026351
 31
0.0
  0
LINE
  5
162
330
1F
100
AcDbEntity
  8
0
 62
     7
420
 16777215
100
AcDbLine
 10
179.6753067441237
 20
-83.7145072026351
 30
0.0
 11
179.6753067441237
 21
-80.0632572026351
 31
0.0
  0
SOLID
  5
163
330
1F
100
AcDbEntity
  8
0
 62
     9
420
 12632256
100
AcDbTrace
 10
179.6753067441237
 20
-80.0632572026351
 30
0.0
 11
203.3220011885682
 21
-80.0632572026351
 31
0.0
 12
179.6753067441237
 22
-83.7145072026351
 32
0.0
 13
203.3220011885682
 23
-83.7145072026351
 33
0.0
  0
TEXT
  5
164
330
1F
100
AcDbEntity
  8
0
 62
    18
420
        0
100
AcDbText
 10
180.733640077457
 20
-83.23825720263511
 30
0.0
 40
2.035718968531469
  1
Hole Tolerance
  7
Arial0
100
AcDbText
  0
LINE
  5
165
330
1F
100
AcDbEntity
  8
0
 62
     7
420
 16777215
100
AcDbLine
 10
179.6753067441237
 20
-83.91450720263511
 30
0.0
 11
203.3220011885682
 21
-83.91450720263511
 31
0.0
  0
LINE
  5
166
330
1F
100
AcDbEntity
  8
0
 62
     7
420
 16777215
100
AcDbLine
 10
203.3220011885682
 20
-83.91450720263511
 30
0.0
 11
203.3220011885682
 21
-88.14784053596844
 31
0.0
  0
LINE
  5
167
330
1F
100
AcDbEntity
  8
0
 62
     7
420
 16777215
100
AcDbLine
 10
203.3220011885682
 20
-88.14784053596844
 30
0.0
 11
179.6753067441237
 21
-88.14784053596844
 31
0.0
  0
LINE
  5
168
330
1F
100
AcDbEntity
  8
0
 62
     7
420
 16777215
100
AcDbLine
 10
179.6753067441237
 20
-88.14784053596844
 30
0.0
 11
179.6753067441237
 21
-83.91450720263511
 31
0.0
  0
SOLID
  5
169
330
1F
100
AcDbEntity
  8
0
 62
   254
420
 13882323
100
AcDbTrace
 10
179.6753067441237
 20
-83.91450720263511
 30
0.0
 11
203.3220011885682
 21
-83.91450720263511
 31
0.0
 12
179.6753067441237
 22
-88.14784053596844
 32
0.0
 13
203.3220011885682
 23
-88.14784053596844
 33
0.0
  0
LINE
  5
16A
330
1F
100
AcDbEntity
  8
0
 62
     7
420
 16777215
100
AcDbLine
 10
179.6753067441237
 20
-88.34784053596843
 30
0.0
 11
203.3220011885682
 21
-88.34784053596843
 31
0.0
  0
LINE
  5
16B
330
1F
100
AcDbEntity
  8
0
 62
     7
420
 16777215
100
AcDbLine
 10
203.3220011885682
 20
-88.34784053596843
 30
0.0
 11
203.3220011885682
 21
-92.58117386930176
 31
0.0
  0
LINE
  5
16C
330
1F
100
AcDbEntity
  8
0
 62
     7
420
 16777215
100
AcDbLine
 10
203.3220011885682
 20
-92.58117386930176
 30
0.0
 11
179.6753067441237
 21
-92.58117386930176
 31
0.0
  0
LINE
  5
16D
330
1F
100
AcDbEntity
  8
0
 62
     7
420
 16777215
100
AcDbLine
 10
179.6753067441237
 20
-92.58117386930176
 30
0.0
 11
179.6753067441237
 21
-88.34784053596843
 31
0.0
  0
SOLID
  5
16E
330
1F
100
AcDbEntity
  8
0
 62
     9
420
 12632256
100
AcDbTrace
 10
179.6753067441237
 20
-88.34784053596843
 30
0.0
 11
203.3220011885682
 21
-88.34784053596843
 31
0.0
 12
179.6753067441237
 22
-92.58117386930176
 32
0.0
 13
203.3220011885682
 23
-92.58117386930176
 33
0.0
  0
LINE
  5
16F
330
1F
100
AcDbEntity
  8
0
 62
     7
420
 16777215
100
AcDbLine
 10
179.6753067441237
 20
-92.78117386930177
 30
0.0
 11
203.3220011885682
 21
-92.78117386930177
 31
0.0
  0
LINE
  5
170
330
1F
100
AcDbEntity
  8
0
 62
     7
420
 16777215
100
AcDbLine
 10
203.3220011885682
 20
-92.78117386930177
 30
0.0
 11
203.3220011885682
 21
-97.0145072026351
 31
0.0
  0
LINE
  5
171
330
1F
100
AcDbEntity
  8
0
 62
     7
420
 16777215
100
AcDbLine
 10
203.3220011885682
 20
-97.0145072026351
 30
0.0
 11
179.6753067441237
 21
-97.0145072026351
 31
0.0
  0
LINE
  5
172
330
1F
100
AcDbEntity
  8
0
 62
     7
420
 16777215
100
AcDbLine
 10
179.6753067441237
 20
-97.0145072026351
 30
0.0
 11
179.6753067441237
 21
-92.78117386930177
 31
0.0
  0
SOLID
  5
173
330
1F
100
AcDbEntity
  8
0
 62
   254
420
 13882323
100
AcDbTrace
 10
179.6753067441237
 20
-92.78117386930177
 30
0.0
 11
203.3220011885682
 21
-92.78117386930177
 31
0.0
 12
179.6753067441237
 22
-97.0145072026351
 32
0.0
 13
203.3220011885682
 23
-97.0145072026351
 33
0.0
  0
LINE
  5
174
330
1F
100
AcDbEntity
  8
0
 62
     7
420
 16777215
100
AcDbLine
 10
179.6753067441237
 20
-97.2145072026351
 30
0.0
 11
203.3220011885682
 21
-97.2145072026351
 31
0.0
  0
LINE
  5
175
330
1F
100
AcDbEntity
  8
0
 62
     7
420
 16777215
100
AcDbLine
 10
203.3220011885682
 20
-97.2145072026351
 30
0.0
 11
203.3220011885682
 21
-101.4478405359684
 31
0.0
  0
LINE
  5
176
330
1F
100
AcDbEntity
  8
0
 62
     7
420
 16777215
100
AcDbLine
 10
203.3220011885682
 20
-101.4478405359684
 30
0.0
 11
179.6753067441237
 21
-101.4478405359684
 31
0.0
  0
LINE
  5
177
330
1F
100
AcDbEntity
  8
0
 62
     7
420
 16777215
100
AcDbLine
 10
179.6753067441237
 20
-101.4478405359684
 30
0.0
 11
179.6753067441237
 21
-97.2145072026351
 31
0.0
  0
SOLID
  5
178
330
1F
100
AcDbEntity
  8
0
 62
     9
420
 12632256
100
AcDbTrace
 10
179.6753067441237
 20
-97.2145072026351
 30
0.0
 11
203.3220011885682
 21
-97.2145072026351
 31
0.0
 12
179.6753067441237
 22
-101.4478405359684
 32
0.0
 13
203.3220011885682
 23
-101.4478405359684
 33
0.0
  0
LINE
  5
179
330
1F
100
AcDbEntity
  8
0
 62
     7
420
 16777215
100
AcDbLine
 10
179.6753067441237
 20
-101.6478405359684
 30
0.0
 11
203.3220011885682
 21
-101.6478405359684
 31
0.0
  0
LINE
  5
17A
330
1F
100
AcDbEntity
  8
0
 62
     7
420
 16777215
100
AcDbLine
 10
203.3220011885682
 20
-101.6478405359684
 30
0.0
 11
203.3220011885682
 21
-105.8811738693018
 31
0.0
  0
LINE
  5
17B
330
1F
100
AcDbEntity
  8
0
 62
     7
420
 16777215
100
AcDbLine
 10
203.3220011885682
 20
-105.8811738693018
 30
0.0
 11
179.6753067441237
 21
-105.8811738693018
 31
0.0
  0
LINE
  5
17C
330
1F
100
AcDbEntity
  8
0
 62
     7
420
 16777215
100
AcDbLine
 10
179.6753067441237
 20
-105.8811738693018
 30
0.0
 11
179.6753067441237
 21
-101.6478405359684
 31
0.0
  0
SOLID
  5
17D
330
1F
100
AcDbEntity
  8
0
 62
   254
420
 13882323
100
AcDbTrace
 10
179.6753067441237
 20
-101.6478405359684
 30
0.0
 11
203.3220011885682
 21
-101.6478405359684
 31
0.0
 12
179.6753067441237
 22
-105.8811738693018
 32
0.0
 13
203.3220011885682
 23
-105.8811738693018
 33
0.0
  0
LINE
  5
17E
330
1F
100
AcDbEntity
  8
0
 62
     7
420
 16777215
100
AcDbLine
 10
179.6753067441237
 20
-106.0811738693018
 30
0.0
 11
203.3220011885682
 21
-106.0811738693018
 31
0.0
  0
LINE
  5
17F
330
1F
100
AcDbEntity
  8
0
 62
     7
420
 16777215
100
AcDbLine
 10
203.3220011885682
 20
-106.0811738693018
 30
0.0
 11
203.3220011885682
 21
-109.7324238693018
 31
0.0
  0
LINE
  5
180
330
1F
100
AcDbEntity
  8
0
 62
     7
420
 16777215
100
AcDbLine
 10
203.3220011885682
 20
-109.7324238693018
 30
0.0
 11
179.6753067441237
 21
-109.7324238693018
 31
0.0
  0
LINE
  5
181
330
1F
100
AcDbEntity
  8
0
 62
     7
420
 16777215
100
AcDbLine
 10
179.6753067441237
 20
-109.7324238693018
 30
0.0
 11
179.6753067441237
 21
-106.0811738693018
 31
0.0
  0
SOLID
  5
182
330
1F
100
AcDbEntity
  8
0
 62
     9
420
 12632256
100
AcDbTrace
 10
179.6753067441237
 20
-106.0811738693018
 30
0.0
 11
203.3220011885682
 21
-106.0811738693018
 31
0.0
 12
179.6753067441237
 22
-109.7324238693018
 32
0.0
 13
203.3220011885682
 23
-109.7324238693018
 33
0.0
  0
TEXT
  5
183
330
1F
100
AcDbEntity
  8
0
 62
    18
420
        0
100
AcDbText
 10
125.6602025774571
 20
-79.4076322026351
 30
0.0
 40
2.375005463286712
  1
Drill Table
  7
Arial0
100
AcDbText
  0
LINE
  5
184
330
1F
100
AcDbEntity
  8
0
 62
    18
420
        0
100
AcDbLine
 39
0.5
 10
146.076468524627
 20
-210.9495130099458
 30
0.0
 11
266.076467284627
 21
-210.9495130099458
 31
0.0
  0
LINE
  5
185
330
1F
100
AcDbEntity
  8
0
 62
    18
420
        0
100
AcDbLine
 39
0.5
 10
266.076467284627
 20
-210.9495130099458
 30
0.0
 11
266.076467284627
 21
-130.9495155299458
 31
0.0
  0
LINE
  5
186
330
1F
100
AcDbEntity
  8
0
 62
    18
420
        0
100
AcDbLine
 39
0.5
 10
266.076467284627
 20
-130.9495155299458
 30
0.0
 11
146.076468524627
 21
-130.9495155299458
 31
0.0
  0
LINE
  5
187
330
1F
100
AcDbEntity
  8
0
 62
    18
420
        0
100
AcDbLine
 39
0.5
 10
146.076468524627
 20
-130.9495155299458
 30
0.0
 11
146.076468524627
 21
-210.9495130099458
 31
0.0
  0
ARC
  5
188
330
1F
100
AcDbEntity
  8
0
 62
    18
420
        0
100
AcDbCircle
 39
0.105833333333333
 10
236.348099004627
 20
-154.6631079299457
 30
0.0
 40
0.7937499999999993
100
AcDbArc
 50
0.0
 51
270.0
  0
ARC
  5
189
330
1F
100
AcDbEntity
  8
0
 62
    18
420
        0
100
AcDbCircle
 39
0.105833333333333
 10
236.348099004627
 20
-154.6631079299457
 30
0.0
 40
0.7937499999999993
100
AcDbArc
 50
270.0
 51
180.0
  0
ARC
  5
18A
330
1F
100
AcDbEntity
  8
0
 62
    18
420
        0
100
AcDbCircle
 39
0.105833333333333
 10
236.348099004627
 20
-154.6631079299457
 30
0.0
 40
0.7937499999999993
100
AcDbArc
 50
180.0
 51
90.0
  0
ARC
  5
18B
330
1F
100
AcDbEntity
  8
0
 62
    18
420
        0
100
AcDbCircle
 39
0.105833333333333
 10
236.348099004627
 20
-154.6631079299457
 30
0.0
 40
0.7937499999999993
100
AcDbArc
 50
90.0
 51
0.0
  0
LINE
  5
18C
330
1F
100
AcDbEntity
  8
0
 62
    18
420
        0
100
AcDbLine
 39
0.105833333333333
 10
237.4064323379603
 20
-154.6631079299457
 30
0.0
 11
235.2897656712937
 21
-154.6631079299457
 31
0.0
  0
LINE
  5
18D
330
1F
100
AcDbEntity
  8
0
 62
    18
420
        0
100
AcDbLine
 39
0.105833333333333
 10
236.348099004627
 20
-155.7214412632791
 30
0.0
 11
236.348099004627
 21
-153.6047745966124
 31
0.0
  0
ARC
  5
18E
330
1F
100
AcDbEntity
  8
0
 62
    18
420
        0
100
AcDbCircle
 39
0.1058333333333366
 10
229.490068524627
 20
-203.8375130099458
 30
0.0
 40
0.7937500000000028
100
AcDbArc
 50
0.0
 51
270.0
  0
ARC
  5
18F
330
1F
100
AcDbEntity
  8
0
 62
    18
420
        0
100
AcDbCircle
 39
0.1058333333333366
 10
229.490068524627
 20
-203.8375130099458
 30
0.0
 40
0.7937500000000028
100
AcDbArc
 50
270.0
 51
180.0
  0
ARC
  5
190
330
1F
100
AcDbEntity
  8
0
 62
    18
420
        0
100
AcDbCircle
 39
0.1058333333333366
 10
229.490068524627
 20
-203.8375130099458
 30
0.0
 40
0.7937500000000028
100
AcDbArc
 50
180.0
 51
90.0
  0
ARC
  5
191
330
1F
100
AcDbEntity
  8
0
 62
    18
420
        0
100
AcDbCircle
 39
0.1058333333333366
 10
229.490068524627
 20
-203.8375130099458
 30
0.0
 40
0.7937500000000028
100
AcDbArc
 50
90.0
 51
0.0
  0
LINE
  5
192
330
1F
100
AcDbEntity
  8
0
 62
    18
420
        0
100
AcDbLine
 39
0.1058333333333366
 10
230.5484018579603
 20
-203.8375130099458
 30
0.0
 11
228.4317351912936
 21
-203.8375130099458
 31
0.0
  0
LINE
  5
193
330
1F
100
AcDbEntity
  8
0
 62
    18
420
        0
100
AcDbLine
 39
0.1058333333333366
 10
229.490068524627
 20
-204.8958463432791
 30
0.0
 11
229.490068524627
 21
-202.7791796766124
 31
0.0
  0
ARC
  5
194
330
1F
100
AcDbEntity
  8
0
 62
    18
420
        0
100
AcDbCircle
 39
0.1058333333333366
 10
224.410068524627
 20
-203.8375130099458
 30
0.0
 40
0.7937500000000028
100
AcDbArc
 50
0.0
 51
270.0
  0
ARC
  5
195
330
1F
100
AcDbEntity
  8
0
 62
    18
420
        0
100
AcDbCircle
 39
0.1058333333333366
 10
224.410068524627
 20
-203.8375130099458
 30
0.0
 40
0.7937500000000028
100
AcDbArc
 50
270.0
 51
180.0
  0
ARC
  5
196
330
1F
100
AcDbEntity
  8
0
 62
    18
420
        0
100
AcDbCircle
 39
0.1058333333333366
 10
224.410068524627
 20
-203.8375130099458
 30
0.0
 40
0.7937500000000028
100
AcDbArc
 50
180.0
 51
90.0
  0
ARC
  5
197
330
1F
100
AcDbEntity
  8
0
 62
    18
420
        0
100
AcDbCircle
 39
0.1058333333333366
 10
224.410068524627
 20
-203.8375130099458
 30
0.0
 40
0.7937500000000028
100
AcDbArc
 50
90.0
 51
0.0
  0
LINE
  5
198
330
1F
100
AcDbEntity
  8
0
 62
    18
420
        0
100
AcDbLine
 39
0.1058333333333366
 10
225.4684018579604
 20
-203.8375130099458
 30
0.0
 11
223.3517351912937
 21
-203.8375130099458
 31
0.0
  0
LINE
  5
199
330
1F
100
AcDbEntity
  8
0
 62
    18
420
        0
100
AcDbLine
 39
0.1058333333333366
 10
224.410068524627
 20
-204.8958463432791
 30
0.0
 11
224.410068524627
 21
-202.7791796766124
 31
0.0
  0
ARC
  5
19A
330
1F
100
AcDbEntity
  8
0
 62
    18
420
        0
100
AcDbCircle
 39
0.1058333333333366
 10
219.330068524627
 20
-203.8375130099458
 30
0.0
 40
0.7937500000000028
100
AcDbArc
 50
0.0
 51
270.0
  0
ARC
  5
19B
330
1F
100
AcDbEntity
  8
0
 62
    18
420
        0
100
AcDbCircle
 39
0.1058333333333366
 10
219.330068524627
 20
-203.8375130099458
 30
0.0
 40
0.7937500000000028
100
AcDbArc
 50
270.0
 51
180.0
  0
ARC
  5
19C
330
1F
100
AcDbEntity
  8
0
 62
    18
420
        0
100
AcDbCircle
 39
0.1058333333333366
 10
219.330068524627
 20
-203.8375130099458
 30
0.0
 40
0.7937500000000028
100
AcDbArc
 50
180.0
 51
90.0
  0
ARC
  5
19D
330
1F
100
AcDbEntity
  8
0
 62
    18
420
        0
100
AcDbCircle
 39
0.1058333333333366
 10
219.330068524627
 20
-203.8375130099458
 30
0.0
 40
0.7937500000000028
100
AcDbArc
 50
90.0
 51
0.0
  0
LINE
  5
19E
330
1F
100
AcDbEntity
  8
0
 62
    18
420
        0
100
AcDbLine
 39
0.1058333333333366
 10
220.3884018579603
 20
-203.8375130099458
 30
0.0
 11
218.2717351912937
 21
-203.8375130099458
 31
0.0
  0
LINE
  5
19F
330
1F
100
AcDbEntity
  8
0
 62
    18
420
        0
100
AcDbLine
 39
0.1058333333333366
 10
219.330068524627
 20
-204.8958463432791
 30
0.0
 11
219.330068524627
 21
-202.7791796766124
 31
0.0
  0
ARC
  5
1A0
330
1F
100
AcDbEntity
  8
0
 62
    18
420
        0
100
AcDbCircle
 39
0.1058333333333366
 10
214.250068524627
 20
-203.8375130099458
 30
0.0
 40
0.7937500000000028
100
AcDbArc
 50
0.0
 51
270.0
  0
ARC
  5
1A1
330
1F
100
AcDbEntity
  8
0
 62
    18
420
        0
100
AcDbCircle
 39
0.1058333333333366
 10
214.250068524627
 20
-203.8375130099458
 30
0.0
 40
0.7937500000000028
100
AcDbArc
 50
270.0
 51
180.0
  0
ARC
  5
1A2
330
1F
100
AcDbEntity
  8
0
 62
    18
420
        0
100
AcDbCircle
 39
0.1058333333333366
 10
214.250068524627
 20
-203.8375130099458
 30
0.0
 40
0.7937500000000028
100
AcDbArc
 50
180.0
 51
90.0
  0
ARC
  5
1A3
330
1F
100
AcDbEntity
  8
0
 62
    18
420
        0
100
AcDbCircle
 39
0.1058333333333366
 10
214.250068524627
 20
-203.8375130099458
 30
0.0
 40
0.7937500000000028
100
AcDbArc
 50
90.0
 51
0.0
  0
LINE
  5
1A4
330
1F
100
AcDbEntity
  8
0
 62
    18
420
        0
100
AcDbLine
 39
0.1058333333333366
 10
215.3084018579603
 20
-203.8375130099458
 30
0.0
 11
213.1917351912937
 21
-203.8375130099458
 31
0.0
  0
LINE
  5
1A5
330
1F
100
AcDbEntity
  8
0
 62
    18
420
        0
100
AcDbLine
 39
0.1058333333333366
 10
214.250068524627
 20
-204.8958463432791
 30
0.0
 11
214.250068524627
 21
-202.7791796766124
 31
0.0
  0
ARC
  5
1A6
330
1F
100
AcDbEntity
  8
0
 62
    18
420
        0
100
AcDbCircle
 39
0.105833333333333
 10
158.616468844627
 20
-182.4775201699458
 30
0.0
 40
0.7937499999999993
100
AcDbArc
 50
0.0
 51
270.0
  0
ARC
  5
1A7
330
1F
100
AcDbEntity
  8
0
 62
    18
420
        0
100
AcDbCircle
 39
0.105833333333333
 10
158.616468844627
 20
-182.4775201699458
 30
0.0
 40
0.7937499999999993
100
AcDbArc
 50
270.0
 51
180.0
  0
ARC
  5
1A8
330
1F
100
AcDbEntity
  8
0
 62
    18
420
        0
100
AcDbCircle
 39
0.105833333333333
 10
158.616468844627
 20
-182.4775201699458
 30
0.0
 40
0.7937499999999993
100
AcDbArc
 50
180.0
 51
90.0
  0
ARC
  5
1A9
330
1F
100
AcDbEntity
  8
0
 62
    18
420
        0
100
AcDbCircle
 39
0.105833333333333
 10
158.616468844627
 20
-182.4775201699458
 30
0.0
 40
0.7937499999999993
100
AcDbArc
 50
90.0
 51
0.0
  0
LINE
  5
1AA
330
1F
100
AcDbEntity
  8
0
 62
    18
420
        0
100
AcDbLine
 39
0.105833333333333
 10
159.6748021779603
 20
-182.4775201699458
 30
0.0
 11
157.5581355112936
 21
-182.4775201699458
 31
0.0
  0
LINE
  5
1AB
330
1F
100
AcDbEntity
  8
0
 62
    18
420
        0
100
AcDbLine
 39
0.105833333333333
 10
158.616468844627
 20
-183.5358535032791
 30
0.0
 11
158.616468844627
 21
-181.4191868366124
 31
0.0
  0
ARC
  5
1AC
330
1F
100
AcDbEntity
  8
0
 62
    18
420
        0
100
AcDbCircle
 39
0.105833333333333
 10
158.616468844627
 20
-173.6775174499458
 30
0.0
 40
0.7937499999999993
100
AcDbArc
 50
0.0
 51
270.0
  0
ARC
  5
1AD
330
1F
100
AcDbEntity
  8
0
 62
    18
420
        0
100
AcDbCircle
 39
0.105833333333333
 10
158.616468844627
 20
-173.6775174499458
 30
0.0
 40
0.7937499999999993
100
AcDbArc
 50
270.0
 51
180.0
  0
ARC
  5
1AE
330
1F
100
AcDbEntity
  8
0
 62
    18
420
        0
100
AcDbCircle
 39
0.105833333333333
 10
158.616468844627
 20
-173.6775174499458
 30
0.0
 40
0.7937499999999993
100
AcDbArc
 50
180.0
 51
90.0
  0
ARC
  5
1AF
330
1F
100
AcDbEntity
  8
0
 62
    18
420
        0
100
AcDbCircle
 39
0.105833333333333
 10
158.616468844627
 20
-173.6775174499458
 30
0.0
 40
0.7937499999999993
100
AcDbArc
 50
90.0
 51
0.0
  0
LINE
  5
1B0
330
1F
100
AcDbEntity
  8
0
 62
    18
420
        0
100
AcDbLine
 39
0.105833333333333
 10
159.6748021779603
 20
-173.6775174499458
 30
0.0
 11
157.5581355112937
 21
-173.6775174499458
 31
0.0
  0
LINE
  5
1B1
330
1F
100
AcDbEntity
  8
0
 62
    18
420
        0
100
AcDbLine
 39
0.105833333333333
 10
158.616468844627
 20
-174.7358507832791
 30
0.0
 11
158.616468844627
 21
-172.6191841166125
 31
0.0
  0
ARC
  5
1B2
330
1F
100
AcDbEntity
  8
0
 62
    18
420
        0
100
AcDbCircle
 39
0.1058333333333366
 10
236.348099004627
 20
-139.4231079299458
 30
0.0
 40
0.7937500000000028
100
AcDbArc
 50
0.0
 51
270.0
  0
ARC
  5
1B3
330
1F
100
AcDbEntity
  8
0
 62
    18
420
        0
100
AcDbCircle
 39
0.1058333333333366
 10
236.348099004627
 20
-139.4231079299458
 30
0.0
 40
0.7937500000000028
100
AcDbArc
 50
270.0
 51
180.0
  0
ARC
  5
1B4
330
1F
100
AcDbEntity
  8
0
 62
    18
420
        0
100
AcDbCircle
 39
0.1058333333333366
 10
236.348099004627
 20
-139.4231079299458
 30
0.0
 40
0.7937500000000028
100
AcDbArc
 50
180.0
 51
90.0
  0
ARC
  5
1B5
330
1F
100
AcDbEntity
  8
0
 62
    18
420
        0
100
AcDbCircle
 39
0.1058333333333366
 10
236.348099004627
 20
-139.4231079299458
 30
0.0
 40
0.7937500000000028
100
AcDbArc
 50
90.0
 51
0.0
  0
LINE
  5
1B6
330
1F
100
AcDbEntity
  8
0
 62
    18
420
        0
100
AcDbLine
 39
0.1058333333333366
 10
237.4064323379603
 20
-139.4231079299458
 30
0.0
 11
235.2897656712937
 21
-139.4231079299458
 31
0.0
  0
LINE
  5
1B7
330
1F
100
AcDbEntity
  8
0
 62
    18
420
        0
100
AcDbLine
 39
0.1058333333333366
 10
236.348099004627
 20
-140.4814412632792
 30
0.0
 11
236.348099004627
 21
-138.3647745966125
 31
0.0
  0
ARC
  5
1B8
330
1F
100
AcDbEntity
  8
0
 62
    18
420
        0
100
AcDbCircle
 39
0.1058333333333366
 10
261.076467124627
 20
-205.9495179299458
 30
0.0
 40
0.7937500000000028
100
AcDbArc
 50
0.0
 51
270.0
  0
ARC
  5
1B9
330
1F
100
AcDbEntity
  8
0
 62
    18
420
        0
100
AcDbCircle
 39
0.1058333333333366
 10
261.076467124627
 20
-205.9495179299458
 30
0.0
 40
0.7937500000000028
100
AcDbArc
 50
270.0
 51
180.0
  0
ARC
  5
1BA
330
1F
100
AcDbEntity
  8
0
 62
    18
420
        0
100
AcDbCircle
 39
0.1058333333333366
 10
261.076467124627
 20
-205.9495179299458
 30
0.0
 40
0.7937500000000028
100
AcDbArc
 50
180.0
 51
90.0
  0
ARC
  5
1BB
330
1F
100
AcDbEntity
  8
0
 62
    18
420
        0
100
AcDbCircle
 39
0.1058333333333366
 10
261.076467124627
 20
-205.9495179299458
 30
0.0
 40
0.7937500000000028
100
AcDbArc
 50
90.0
 51
0.0
  0
LINE
  5
1BC
330
1F
100
AcDbEntity
  8
0
 62
    18
420
        0
100
AcDbLine
 39
0.1058333333333366
 10
262.1348004579603
 20
-205.9495179299458
 30
0.0
 11
260.0181337912936
 21
-205.9495179299458
 31
0.0
  0
LINE
  5
1BD
330
1F
100
AcDbEntity
  8
0
 62
    18
420
        0
100
AcDbLine
 39
0.1058333333333366
 10
261.076467124627
 20
-207.0078512632791
 30
0.0
 11
261.076467124627
 21
-204.8911845966124
 31
0.0
  0
ARC
  5
1BE
330
1F
100
AcDbEntity
  8
0
 62
    18
420
        0
100
AcDbCircle
 39
0.1058333333333366
 10
151.076468684627
 20
-205.9495128499458
 30
0.0
 40
0.7937500000000028
100
AcDbArc
 50
0.0
 51
270.0
  0
ARC
  5
1BF
330
1F
100
AcDbEntity
  8
0
 62
    18
420
        0
100
AcDbCircle
 39
0.1058333333333366
 10
151.076468684627
 20
-205.9495128499458
 30
0.0
 40
0.7937500000000028
100
AcDbArc
 50
270.0
 51
180.0
  0
ARC
  5
1C0
330
1F
100
AcDbEntity
  8
0
 62
    18
420
        0
100
AcDbCircle
 39
0.1058333333333366
 10
151.076468684627
 20
-205.9495128499458
 30
0.0
 40
0.7937500000000028
100
AcDbArc
 50
180.0
 51
90.0
  0
ARC
  5
1C1
330
1F
100
AcDbEntity
  8
0
 62
    18
420
        0
100
AcDbCircle
 39
0.1058333333333366
 10
151.076468684627
 20
-205.9495128499458
 30
0.0
 40
0.7937500000000028
100
AcDbArc
 50
90.0
 51
0.0
  0
LINE
  5
1C2
330
1F
100
AcDbEntity
  8
0
 62
    18
420
        0
100
AcDbLine
 39
0.1058333333333366
 10
152.1348020179603
 20
-205.9495128499458
 30
0.0
 11
150.0181353512937
 21
-205.9495128499458
 31
0.0
  0
LINE
  5
1C3
330
1F
100
AcDbEntity
  8
0
 62
    18
420
        0
100
AcDbLine
 39
0.1058333333333366
 10
151.076468684627
 20
-207.0078461832791
 30
0.0
 11
151.076468684627
 21
-204.8911795166125
 31
0.0
  0
ARC
  5
1C4
330
1F
100
AcDbEntity
  8
0
 62
    18
420
        0
100
AcDbCircle
 39
0.1058333333333366
 10
261.076467124627
 20
-135.9495156899458
 30
0.0
 40
0.7937500000000028
100
AcDbArc
 50
0.0
 51
270.0
  0
ARC
  5
1C5
330
1F
100
AcDbEntity
  8
0
 62
    18
420
        0
100
AcDbCircle
 39
0.1058333333333366
 10
261.076467124627
 20
-135.9495156899458
 30
0.0
 40
0.7937500000000028
100
AcDbArc
 50
270.0
 51
180.0
  0
ARC
  5
1C6
330
1F
100
AcDbEntity
  8
0
 62
    18
420
        0
100
AcDbCircle
 39
0.1058333333333366
 10
261.076467124627
 20
-135.9495156899458
 30
0.0
 40
0.7937500000000028
100
AcDbArc
 50
180.0
 51
90.0
  0
ARC
  5
1C7
330
1F
100
AcDbEntity
  8
0
 62
    18
420
        0
100
AcDbCircle
 39
0.1058333333333366
 10
261.076467124627
 20
-135.9495156899458
 30
0.0
 40
0.7937500000000028
100
AcDbArc
 50
90.0
 51
0.0
  0
LINE
  5
1C8
330
1F
100
AcDbEntity
  8
0
 62
    18
420
        0
100
AcDbLine
 39
0.1058333333333366
 10
262.1348004579603
 20
-135.9495156899458
 30
0.0
 11
260.0181337912936
 21
-135.9495156899458
 31
0.0
  0
LINE
  5
1C9
330
1F
100
AcDbEntity
  8
0
 62
    18
420
        0
100
AcDbLine
 39
0.1058333333333366
 10
261.076467124627
 20
-137.0078490232791
 30
0.0
 11
261.076467124627
 21
-134.8911823566124
 31
0.0
  0
ARC
  5
1CA
330
1F
100
AcDbEntity
  8
0
 62
    18
420
        0
100
AcDbCircle
 39
0.1058333333333366
 10
151.076468684627
 20
-135.9495156899458
 30
0.0
 40
0.7937500000000028
100
AcDbArc
 50
0.0
 51
270.0
  0
ARC
  5
1CB
330
1F
100
AcDbEntity
  8
0
 62
    18
420
        0
100
AcDbCircle
 39
0.1058333333333366
 10
151.076468684627
 20
-135.9495156899458
 30
0.0
 40
0.7937500000000028
100
AcDbArc
 50
270.0
 51
180.0
  0
ARC
  5
1CC
330
1F
100
AcDbEntity
  8
0
 62
    18
420
        0
100
AcDbCircle
 39
0.1058333333333366
 10
151.076468684627
 20
-135.9495156899458
 30
0.0
 40
0.7937500000000028
100
AcDbArc
 50
180.0
 51
90.0
  0
ARC
  5
1CD
330
1F
100
AcDbEntity
  8
0
 62
    18
420
        0
100
AcDbCircle
 39
0.1058333333333366
 10
151.076468684627
 20
-135.9495156899458
 30
0.0
 40
0.7937500000000028
100
AcDbArc
 50
90.0
 51
0.0
  0
LINE
  5
1CE
330
1F
100
AcDbEntity
  8
0
 62
    18
420
        0
100
AcDbLine
 39
0.1058333333333366
 10
152.1348020179604
 20
-135.9495156899458
 30
0.0
 11
150.0181353512937
 21
-135.9495156899458
 31
0.0
  0
LINE
  5
1CF
330
1F
100
AcDbEntity
  8
0
 62
    18
420
        0
100
AcDbLine
 39
0.1058333333333366
 10
151.076468684627
 20
-137.0078490232791
 30
0.0
 11
151.076468684627
 21
-134.8911823566124
 31
0.0
  0
ARC
  5
1D0
330
1F
100
AcDbEntity
  8
0
 62
    18
420
        0
100
AcDbCircle
 39
0.105833333333333
 10
234.081260764627
 20
-182.6195112499457
 30
0.0
 40
0.7937499999999993
100
AcDbArc
 50
0.0
 51
270.0
  0
ARC
  5
1D1
330
1F
100
AcDbEntity
  8
0
 62
    18
420
        0
100
AcDbCircle
 39
0.105833333333333
 10
234.081260764627
 20
-182.6195112499457
 30
0.0
 40
0.7937499999999993
100
AcDbArc
 50
270.0
 51
180.0
  0
ARC
  5
1D2
330
1F
100
AcDbEntity
  8
0
 62
    18
420
        0
100
AcDbCircle
 39
0.105833333333333
 10
234.081260764627
 20
-182.6195112499457
 30
0.0
 40
0.7937499999999993
100
AcDbArc
 50
180.0
 51
90.0
  0
ARC
  5
1D3
330
1F
100
AcDbEntity
  8
0
 62
    18
420
        0
100
AcDbCircle
 39
0.105833333333333
 10
234.081260764627
 20
-182.6195112499457
 30
0.0
 40
0.7937499999999993
100
AcDbArc
 50
90.0
 51
0.0
  0
LINE
  5
1D4
330
1F
100
AcDbEntity
  8
0
 62
    18
420
        0
100
AcDbLine
 39
0.105833333333333
 10
235.1395940979603
 20
-182.6195112499457
 30
0.0
 11
233.0229274312936
 21
-182.6195112499457
 31
0.0
  0
LINE
  5
1D5
330
1F
100
AcDbEntity
  8
0
 62
    18
420
        0
100
AcDbLine
 39
0.105833333333333
 10
234.081260764627
 20
-183.6778445832791
 30
0.0
 11
234.081260764627
 21
-181.5611779166124
 31
0.0
  0
ARC
  5
1D6
330
1F
100
AcDbEntity
  8
0
 62
    18
420
        0
100
AcDbCircle
 39
0.1058333333333366
 10
234.081260764627
 20
-192.3795120499458
 30
0.0
 40
0.7937500000000028
100
AcDbArc
 50
0.0
 51
270.0
  0
ARC
  5
1D7
330
1F
100
AcDbEntity
  8
0
 62
    18
420
        0
100
AcDbCircle
 39
0.1058333333333366
 10
234.081260764627
 20
-192.3795120499458
 30
0.0
 40
0.7937500000000028
100
AcDbArc
 50
270.0
 51
180.0
  0
ARC
  5
1D8
330
1F
100
AcDbEntity
  8
0
 62
    18
420
        0
100
AcDbCircle
 39
0.1058333333333366
 10
234.081260764627
 20
-192.3795120499458
 30
0.0
 40
0.7937500000000028
100
AcDbArc
 50
180.0
 51
90.0
  0
ARC
  5
1D9
330
1F
100
AcDbEntity
  8
0
 62
    18
420
        0
100
AcDbCircle
 39
0.1058333333333366
 10
234.081260764627
 20
-192.3795120499458
 30
0.0
 40
0.7937500000000028
100
AcDbArc
 50
90.0
 51
0.0
  0
LINE
  5
1DA
330
1F
100
AcDbEntity
  8
0
 62
    18
420
        0
100
AcDbLine
 39
0.1058333333333366
 10
235.1395940979603
 20
-192.3795120499458
 30
0.0
 11
233.0229274312936
 21
-192.3795120499458
 31
0.0
  0
LINE
  5
1DB
330
1F
100
AcDbEntity
  8
0
 62
    18
420
        0
100
AcDbLine
 39
0.1058333333333366
 10
234.081260764627
 20
-193.4378453832791
 30
0.0
 11
234.081260764627
 21
-191.3211787166125
 31
0.0
  0
ARC
  5
1DC
330
1F
100
AcDbEntity
  8
0
 62
    18
420
        0
100
AcDbCircle
 39
0.105833333333333
 10
158.878068524627
 20
-156.5935130099458
 30
0.0
 40
0.7937499999999993
100
AcDbArc
 50
0.0
 51
270.0
  0
ARC
  5
1DD
330
1F
100
AcDbEntity
  8
0
 62
    18
420
        0
100
AcDbCircle
 39
0.105833333333333
 10
158.878068524627
 20
-156.5935130099458
 30
0.0
 40
0.7937499999999993
100
AcDbArc
 50
270.0
 51
180.0
  0
ARC
  5
1DE
330
1F
100
AcDbEntity
  8
0
 62
    18
420
        0
100
AcDbCircle
 39
0.105833333333333
 10
158.878068524627
 20
-156.5935130099458
 30
0.0
 40
0.7937499999999993
100
AcDbArc
 50
180.0
 51
90.0
  0
ARC
  5
1DF
330
1F
100
AcDbEntity
  8
0
 62
    18
420
        0
100
AcDbCircle
 39
0.105833333333333
 10
158.878068524627
 20
-156.5935130099458
 30
0.0
 40
0.7937499999999993
100
AcDbArc
 50
90.0
 51
0.0
  0
LINE
  5
1E0
330
1F
100
AcDbEntity
  8
0
 62
    18
420
        0
100
AcDbLine
 39
0.105833333333333
 10
159.9364018579603
 20
-156.5935130099458
 30
0.0
 11
157.8197351912937
 21
-156.5935130099458
 31
0.0
  0
LINE
  5
1E1
330
1F
100
AcDbEntity
  8
0
 62
    18
420
        0
100
AcDbLine
 39
0.105833333333333
 10
158.878068524627
 20
-157.6518463432791
 30
0.0
 11
158.878068524627
 21
-155.5351796766125
 31
0.0
  0
ARC
  5
1E2
330
1F
100
AcDbEntity
  8
0
 62
    18
420
        0
100
AcDbCircle
 39
0.105833333333333
 10
157.862068524627
 20
-156.5935130099458
 30
0.0
 40
0.7937499999999993
100
AcDbArc
 50
0.0
 51
270.0
  0
ARC
  5
1E3
330
1F
100
AcDbEntity
  8
0
 62
    18
420
        0
100
AcDbCircle
 39
0.105833333333333
 10
157.862068524627
 20
-156.5935130099458
 30
0.0
 40
0.7937499999999993
100
AcDbArc
 50
270.0
 51
180.0
  0
ARC
  5
1E4
330
1F
100
AcDbEntity
  8
0
 62
    18
420
        0
100
AcDbCircle
 39
0.105833333333333
 10
157.862068524627
 20
-156.5935130099458
 30
0.0
 40
0.7937499999999993
100
AcDbArc
 50
180.0
 51
90.0
  0
ARC
  5
1E5
330
1F
100
AcDbEntity
  8
0
 62
    18
420
        0
100
AcDbCircle
 39
0.105833333333333
 10
157.862068524627
 20
-156.5935130099458
 30
0.0
 40
0.7937499999999993
100
AcDbArc
 50
90.0
 51
0.0
  0
LINE
  5
1E6
330
1F
100
AcDbEntity
  8
0
 62
    18
420
        0
100
AcDbLine
 39
0.105833333333333
 10
158.9204018579603
 20
-156.5935130099458
 30
0.0
 11
156.8037351912937
 21
-156.5935130099458
 31
0.0
  0
LINE
  5
1E7
330
1F
100
AcDbEntity
  8
0
 62
    18
420
        0
100
AcDbLine
 39
0.105833333333333
 10
157.862068524627
 20
-157.6518463432791
 30
0.0
 11
157.862068524627
 21
-155.5351796766125
 31
0.0
  0
ARC
  5
1E8
330
1F
100
AcDbEntity
  8
0
 62
    18
420
        0
100
AcDbCircle
 39
0.105833333333333
 10
156.846068524627
 20
-156.5935130099458
 30
0.0
 40
0.7937499999999993
100
AcDbArc
 50
0.0
 51
270.0
  0
ARC
  5
1E9
330
1F
100
AcDbEntity
  8
0
 62
    18
420
        0
100
AcDbCircle
 39
0.105833333333333
 10
156.846068524627
 20
-156.5935130099458
 30
0.0
 40
0.7937499999999993
100
AcDbArc
 50
270.0
 51
180.0
  0
ARC
  5
1EA
330
1F
100
AcDbEntity
  8
0
 62
    18
420
        0
100
AcDbCircle
 39
0.105833333333333
 10
156.846068524627
 20
-156.5935130099458
 30
0.0
 40
0.7937499999999993
100
AcDbArc
 50
180.0
 51
90.0
  0
ARC
  5
1EB
330
1F
100
AcDbEntity
  8
0
 62
    18
420
        0
100
AcDbCircle
 39
0.105833333333333
 10
156.846068524627
 20
-156.5935130099458
 30
0.0
 40
0.7937499999999993
100
AcDbArc
 50
90.0
 51
0.0
  0
LINE
  5
1EC
330
1F
100
AcDbEntity
  8
0
 62
    18
420
        0
100
AcDbLine
 39
0.105833333333333
 10
157.9044018579604
 20
-156.5935130099458
 30
0.0
 11
155.7877351912937
 21
-156.5935130099458
 31
0.0
  0
LINE
  5
1ED
330
1F
100
AcDbEntity
  8
0
 62
    18
420
        0
100
AcDbLine
 39
0.105833333333333
 10
156.846068524627
 20
-157.6518463432791
 30
0.0
 11
156.846068524627
 21
-155.5351796766125
 31
0.0
  0
ARC
  5
1EE
330
1F
100
AcDbEntity
  8
0
 62
    18
420
        0
100
AcDbCircle
 39
0.105833333333333
 10
214.249941524627
 20
-175.4911130099458
 30
0.0
 40
0.7937499999999993
100
AcDbArc
 50
0.0
 51
270.0
  0
ARC
  5
1EF
330
1F
100
AcDbEntity
  8
0
 62
    18
420
        0
100
AcDbCircle
 39
0.105833333333333
 10
214.249941524627
 20
-175.4911130099458
 30
0.0
 40
0.7937499999999993
100
AcDbArc
 50
270.0
 51
180.0
  0
ARC
  5
1F0
330
1F
100
AcDbEntity
  8
0
 62
    18
420
        0
100
AcDbCircle
 39
0.105833333333333
 10
214.249941524627
 20
-175.4911130099458
 30
0.0
 40
0.7937499999999993
100
AcDbArc
 50
180.0
 51
90.0
  0
ARC
  5
1F1
330
1F
100
AcDbEntity
  8
0
 62
    18
420
        0
100
AcDbCircle
 39
0.105833333333333
 10
214.249941524627
 20
-175.4911130099458
 30
0.0
 40
0.7937499999999993
100
AcDbArc
 50
90.0
 51
0.0
  0
LINE
  5
1F2
330
1F
100
AcDbEntity
  8
0
 62
    18
420
        0
100
AcDbLine
 39
0.105833333333333
 10
215.3082748579603
 20
-175.4911130099458
 30
0.0
 11
213.1916081912937
 21
-175.4911130099458
 31
0.0
  0
LINE
  5
1F3
330
1F
100
AcDbEntity
  8
0
 62
    18
420
        0
100
AcDbLine
 39
0.105833333333333
 10
214.249941524627
 20
-176.5494463432791
 30
0.0
 11
214.249941524627
 21
-174.4327796766124
 31
0.0
  0
ARC
  5
1F4
330
1F
100
AcDbEntity
  8
0
 62
    18
420
        0
100
AcDbCircle
 39
0.1058333333333334
 10
220.904868524627
 20
-168.9379130099457
 30
0.0
 40
0.7937499999999997
100
AcDbArc
 50
0.0
 51
270.0
  0
ARC
  5
1F5
330
1F
100
AcDbEntity
  8
0
 62
    18
420
        0
100
AcDbCircle
 39
0.1058333333333334
 10
220.904868524627
 20
-168.9379130099457
 30
0.0
 40
0.7937499999999997
100
AcDbArc
 50
270.0
 51
180.0
  0
ARC
  5
1F6
330
1F
100
AcDbEntity
  8
0
 62
    18
420
        0
100
AcDbCircle
 39
0.1058333333333334
 10
220.904868524627
 20
-168.9379130099457
 30
0.0
 40
0.7937499999999997
100
AcDbArc
 50
180.0
 51
90.0
  0
ARC
  5
1F7
330
1F
100
AcDbEntity
  8
0
 62
    18
420
        0
100
AcDbCircle
 39
0.1058333333333334
 10
220.904868524627
 20
-168.9379130099457
 30
0.0
 40
0.7937499999999997
100
AcDbArc
 50
90.0
 51
0.0
  0
LINE
  5
1F8
330
1F
100
AcDbEntity
  8
0
 62
    18
420
        0
100
AcDbLine
 39
0.1058333333333334
 10
221.9632018579603
 20
-168.9379130099457
 30
0.0
 11
219.8465351912937
 21
-168.9379130099457
 31
0.0
  0
LINE
  5
1F9
330
1F
100
AcDbEntity
  8
0
 62
    18
420
        0
100
AcDbLine
 39
0.1058333333333334
 10
220.904868524627
 20
-169.9962463432791
 30
0.0
 11
220.904868524627
 21
-167.8795796766124
 31
0.0
  0
ARC
  5
1FA
330
1F
100
AcDbEntity
  8
0
 62
    18
420
        0
100
AcDbCircle
 39
0.105833333333333
 10
163.958068524627
 20
-172.4431130099458
 30
0.0
 40
0.7937499999999993
100
AcDbArc
 50
0.0
 51
270.0
  0
ARC
  5
1FB
330
1F
100
AcDbEntity
  8
0
 62
    18
420
        0
100
AcDbCircle
 39
0.105833333333333
 10
163.958068524627
 20
-172.4431130099458
 30
0.0
 40
0.7937499999999993
100
AcDbArc
 50
270.0
 51
180.0
  0
ARC
  5
1FC
330
1F
100
AcDbEntity
  8
0
 62
    18
420
        0
100
AcDbCircle
 39
0.105833333333333
 10
163.958068524627
 20
-172.4431130099458
 30
0.0
 40
0.7937499999999993
100
AcDbArc
 50
180.0
 51
90.0
  0
ARC
  5
1FD
330
1F
100
AcDbEntity
  8
0
 62
    18
420
        0
100
AcDbCircle
 39
0.105833333333333
 10
163.958068524627
 20
-172.4431130099458
 30
0.0
 40
0.7937499999999993
100
AcDbArc
 50
90.0
 51
0.0
  0
LINE
  5
1FE
330
1F
100
AcDbEntity
  8
0
 62
    18
420
        0
100
AcDbLine
 39
0.105833333333333
 10
165.0164018579603
 20
-172.4431130099458
 30
0.0
 11
162.8997351912937
 21
-172.4431130099458
 31
0.0
  0
LINE
  5
1FF
330
1F
100
AcDbEntity
  8
0
 62
    18
420
        0
100
AcDbLine
 39
0.105833333333333
 10
163.958068524627
 20
-173.5014463432791
 30
0.0
 11
163.958068524627
 21
-171.3847796766124
 31
0.0
  0
ARC
  5
200
330
1F
100
AcDbEntity
  8
0
 62
    18
420
        0
100
AcDbCircle
 39
0.105833333333333
 10
162.942068524627
 20
-172.4431130099458
 30
0.0
 40
0.7937499999999993
100
AcDbArc
 50
0.0
 51
270.0
  0
ARC
  5
201
330
1F
100
AcDbEntity
  8
0
 62
    18
420
        0
100
AcDbCircle
 39
0.105833333333333
 10
162.942068524627
 20
-172.4431130099458
 30
0.0
 40
0.7937499999999993
100
AcDbArc
 50
270.0
 51
180.0
  0
ARC
  5
202
330
1F
100
AcDbEntity
  8
0
 62
    18
420
        0
100
AcDbCircle
 39
0.105833333333333
 10
162.942068524627
 20
-172.4431130099458
 30
0.0
 40
0.7937499999999993
100
AcDbArc
 50
180.0
 51
90.0
  0
ARC
  5
203
330
1F
100
AcDbEntity
  8
0
 62
    18
420
        0
100
AcDbCircle
 39
0.105833333333333
 10
162.942068524627
 20
-172.4431130099458
 30
0.0
 40
0.7937499999999993
100
AcDbArc
 50
90.0
 51
0.0
  0
LINE
  5
204
330
1F
100
AcDbEntity
  8
0
 62
    18
420
        0
100
AcDbLine
 39
0.105833333333333
 10
164.0004018579603
 20
-172.4431130099458
 30
0.0
 11
161.8837351912937
 21
-172.4431130099458
 31
0.0
  0
LINE
  5
205
330
1F
100
AcDbEntity
  8
0
 62
    18
420
        0
100
AcDbLine
 39
0.105833333333333
 10
162.942068524627
 20
-173.5014463432791
 30
0.0
 11
162.942068524627
 21
-171.3847796766124
 31
0.0
  0
ARC
  5
206
330
1F
100
AcDbEntity
  8
0
 62
    18
420
        0
100
AcDbCircle
 39
0.105833333333333
 10
161.926068524627
 20
-172.4431130099458
 30
0.0
 40
0.7937499999999993
100
AcDbArc
 50
0.0
 51
270.0
  0
ARC
  5
207
330
1F
100
AcDbEntity
  8
0
 62
    18
420
        0
100
AcDbCircle
 39
0.105833333333333
 10
161.926068524627
 20
-172.4431130099458
 30
0.0
 40
0.7937499999999993
100
AcDbArc
 50
270.0
 51
180.0
  0
ARC
  5
208
330
1F
100
AcDbEntity
  8
0
 62
    18
420
        0
100
AcDbCircle
 39
0.105833333333333
 10
161.926068524627
 20
-172.4431130099458
 30
0.0
 40
0.7937499999999993
100
AcDbArc
 50
180.0
 51
90.0
  0
ARC
  5
209
330
1F
100
AcDbEntity
  8
0
 62
    18
420
        0
100
AcDbCircle
 39
0.105833333333333
 10
161.926068524627
 20
-172.4431130099458
 30
0.0
 40
0.7937499999999993
100
AcDbArc
 50
90.0
 51
0.0
  0
LINE
  5
20A
330
1F
100
AcDbEntity
  8
0
 62
    18
420
        0
100
AcDbLine
 39
0.105833333333333
 10
162.9844018579604
 20
-172.4431130099458
 30
0.0
 11
160.8677351912937
 21
-172.4431130099458
 31
0.0
  0
LINE
  5
20B
330
1F
100
AcDbEntity
  8
0
 62
    18
420
        0
100
AcDbLine
 39
0.105833333333333
 10
161.926068524627
 20
-173.5014463432791
 30
0.0
 11
161.926068524627
 21
-171.3847796766124
 31
0.0
  0
ARC
  5
20C
330
1F
100
AcDbEntity
  8
0
 62
    18
420
        0
100
AcDbCircle
 39
0.105833333333333
 10
162.434068524627
 20
-173.4591130099457
 30
0.0
 40
0.7937499999999993
100
AcDbArc
 50
0.0
 51
270.0
  0
ARC
  5
20D
330
1F
100
AcDbEntity
  8
0
 62
    18
420
        0
100
AcDbCircle
 39
0.105833333333333
 10
162.434068524627
 20
-173.4591130099457
 30
0.0
 40
0.7937499999999993
100
AcDbArc
 50
270.0
 51
180.0
  0
ARC
  5
20E
330
1F
100
AcDbEntity
  8
0
 62
    18
420
        0
100
AcDbCircle
 39
0.105833333333333
 10
162.434068524627
 20
-173.4591130099457
 30
0.0
 40
0.7937499999999993
100
AcDbArc
 50
180.0
 51
90.0
  0
ARC
  5
20F
330
1F
100
AcDbEntity
  8
0
 62
    18
420
        0
100
AcDbCircle
 39
0.105833333333333
 10
162.434068524627
 20
-173.4591130099457
 30
0.0
 40
0.7937499999999993
100
AcDbArc
 50
90.0
 51
0.0
  0
LINE
  5
210
330
1F
100
AcDbEntity
  8
0
 62
    18
420
        0
100
AcDbLine
 39
0.105833333333333
 10
163.4924018579603
 20
-173.4591130099457
 30
0.0
 11
161.3757351912937
 21
-173.4591130099457
 31
0.0
  0
LINE
  5
211
330
1F
100
AcDbEntity
  8
0
 62
    18
420
        0
100
AcDbLine
 39
0.105833333333333
 10
162.434068524627
 20
-174.5174463432791
 30
0.0
 11
162.434068524627
 21
-172.4007796766124
 31
0.0
  0
ARC
  5
212
330
1F
100
AcDbEntity
  8
0
 62
    18
420
        0
100
AcDbCircle
 39
0.105833333333333
 10
163.450068524627
 20
-173.4591130099457
 30
0.0
 40
0.7937499999999993
100
AcDbArc
 50
0.0
 51
270.0
  0
ARC
  5
213
330
1F
100
AcDbEntity
  8
0
 62
    18
420
        0
100
AcDbCircle
 39
0.105833333333333
 10
163.450068524627
 20
-173.4591130099457
 30
0.0
 40
0.7937499999999993
100
AcDbArc
 50
270.0
 51
180.0
  0
ARC
  5
214
330
1F
100
AcDbEntity
  8
0
 62
    18
420
        0
100
AcDbCircle
 39
0.105833333333333
 10
163.450068524627
 20
-173.4591130099457
 30
0.0
 40
0.7937499999999993
100
AcDbArc
 50
180.0
 51
90.0
  0
ARC
  5
215
330
1F
100
AcDbEntity
  8
0
 62
    18
420
        0
100
AcDbCircle
 39
0.105833333333333
 10
163.450068524627
 20
-173.4591130099457
 30
0.0
 40
0.7937499999999993
100
AcDbArc
 50
90.0
 51
0.0
  0
LINE
  5
216
330
1F
100
AcDbEntity
  8
0
 62
    18
420
        0
100
AcDbLine
 39
0.105833333333333
 10
164.5084018579604
 20
-173.4591130099457
 30
0.0
 11
162.3917351912937
 21
-173.4591130099457
 31
0.0
  0
LINE
  5
217
330
1F
100
AcDbEntity
  8
0
 62
    18
420
        0
100
AcDbLine
 39
0.105833333333333
 10
163.450068524627
 20
-174.5174463432791
 30
0.0
 11
163.450068524627
 21
-172.4007796766124
 31
0.0
  0
ARC
  5
218
330
1F
100
AcDbEntity
  8
0
 62
    18
420
        0
100
AcDbCircle
 39
0.105833333333333
 10
164.466068524627
 20
-173.4591130099457
 30
0.0
 40
0.7937499999999993
100
AcDbArc
 50
0.0
 51
270.0
  0
ARC
  5
219
330
1F
100
AcDbEntity
  8
0
 62
    18
420
        0
100
AcDbCircle
 39
0.105833333333333
 10
164.466068524627
 20
-173.4591130099457
 30
0.0
 40
0.7937499999999993
100
AcDbArc
 50
270.0
 51
180.0
  0
ARC
  5
21A
330
1F
100
AcDbEntity
  8
0
 62
    18
420
        0
100
AcDbCircle
 39
0.105833333333333
 10
164.466068524627
 20
-173.4591130099457
 30
0.0
 40
0.7937499999999993
100
AcDbArc
 50
180.0
 51
90.0
  0
ARC
  5
21B
330
1F
100
AcDbEntity
  8
0
 62
    18
420
        0
100
AcDbCircle
 39
0.105833333333333
 10
164.466068524627
 20
-173.4591130099457
 30
0.0
 40
0.7937499999999993
100
AcDbArc
 50
90.0
 51
0.0
  0
LINE
  5
21C
330
1F
100
AcDbEntity
  8
0
 62
    18
420
        0
100
AcDbLine
 39
0.105833333333333
 10
165.5244018579604
 20
-173.4591130099457
 30
0.0
 11
163.4077351912937
 21
-173.4591130099457
 31
0.0
  0
LINE
  5
21D
330
1F
100
AcDbEntity
  8
0
 62
    18
420
        0
100
AcDbLine
 39
0.105833333333333
 10
164.466068524627
 20
-174.5174463432791
 30
0.0
 11
164.466068524627
 21
-172.4007796766124
 31
0.0
  0
ARC
  5
21E
330
1F
100
AcDbEntity
  8
0
 62
    18
420
        0
100
AcDbCircle
 39
0.105833333333333
 10
203.399264724627
 20
-162.4383120899457
 30
0.0
 40
0.7937499999999993
100
AcDbArc
 50
0.0
 51
270.0
  0
ARC
  5
21F
330
1F
100
AcDbEntity
  8
0
 62
    18
420
        0
100
AcDbCircle
 39
0.105833333333333
 10
203.399264724627
 20
-162.4383120899457
 30
0.0
 40
0.7937499999999993
100
AcDbArc
 50
270.0
 51
180.0
  0
ARC
  5
220
330
1F
100
AcDbEntity
  8
0
 62
    18
420
        0
100
AcDbCircle
 39
0.105833333333333
 10
203.399264724627
 20
-162.4383120899457
 30
0.0
 40
0.7937499999999993
100
AcDbArc
 50
180.0
 51
90.0
  0
ARC
  5
221
330
1F
100
AcDbEntity
  8
0
 62
    18
420
        0
100
AcDbCircle
 39
0.105833333333333
 10
203.399264724627
 20
-162.4383120899457
 30
0.0
 40
0.7937499999999993
100
AcDbArc
 50
90.0
 51
0.0
  0
LINE
  5
222
330
1F
100
AcDbEntity
  8
0
 62
    18
420
        0
100
AcDbLine
 39
0.105833333333333
 10
204.4575980579604
 20
-162.4383120899457
 30
0.0
 11
202.3409313912937
 21
-162.4383120899457
 31
0.0
  0
LINE
  5
223
330
1F
100
AcDbEntity
  8
0
 62
    18
420
        0
100
AcDbLine
 39
0.105833333333333
 10
203.399264724627
 20
-163.4966454232791
 30
0.0
 11
203.399264724627
 21
-161.3799787566124
 31
0.0
  0
ARC
  5
224
330
1F
100
AcDbEntity
  8
0
 62
    18
420
        0
100
AcDbCircle
 39
0.105833333333333
 10
201.367264724627
 20
-162.4383120899457
 30
0.0
 40
0.7937499999999993
100
AcDbArc
 50
0.0
 51
270.0
  0
ARC
  5
225
330
1F
100
AcDbEntity
  8
0
 62
    18
420
        0
100
AcDbCircle
 39
0.105833333333333
 10
201.367264724627
 20
-162.4383120899457
 30
0.0
 40
0.7937499999999993
100
AcDbArc
 50
270.0
 51
180.0
  0
ARC
  5
226
330
1F
100
AcDbEntity
  8
0
 62
    18
420
        0
100
AcDbCircle
 39
0.105833333333333
 10
201.367264724627
 20
-162.4383120899457
 30
0.0
 40
0.7937499999999993
100
AcDbArc
 50
180.0
 51
90.0
  0
ARC
  5
227
330
1F
100
AcDbEntity
  8
0
 62
    18
420
        0
100
AcDbCircle
 39
0.105833333333333
 10
201.367264724627
 20
-162.4383120899457
 30
0.0
 40
0.7937499999999993
100
AcDbArc
 50
90.0
 51
0.0
  0
LINE
  5
228
330
1F
100
AcDbEntity
  8
0
 62
    18
420
        0
100
AcDbLine
 39
0.105833333333333
 10
202.4255980579603
 20
-162.4383120899457
 30
0.0
 11
200.3089313912937
 21
-162.4383120899457
 31
0.0
  0
LINE
  5
229
330
1F
100
AcDbEntity
  8
0
 62
    18
420
        0
100
AcDbLine
 39
0.105833333333333
 10
201.367264724627
 20
-163.4966454232791
 30
0.0
 11
201.367264724627
 21
-161.3799787566124
 31
0.0
  0
ARC
  5
22A
330
1F
100
AcDbEntity
  8
0
 62
    18
420
        0
100
AcDbCircle
 39
0.105833333333333
 10
200.859264724627
 20
-161.4223120899457
 30
0.0
 40
0.7937499999999993
100
AcDbArc
 50
0.0
 51
270.0
  0
ARC
  5
22B
330
1F
100
AcDbEntity
  8
0
 62
    18
420
        0
100
AcDbCircle
 39
0.105833333333333
 10
200.859264724627
 20
-161.4223120899457
 30
0.0
 40
0.7937499999999993
100
AcDbArc
 50
270.0
 51
180.0
  0
ARC
  5
22C
330
1F
100
AcDbEntity
  8
0
 62
    18
420
        0
100
AcDbCircle
 39
0.105833333333333
 10
200.859264724627
 20
-161.4223120899457
 30
0.0
 40
0.7937499999999993
100
AcDbArc
 50
180.0
 51
90.0
  0
ARC
  5
22D
330
1F
100
AcDbEntity
  8
0
 62
    18
420
        0
100
AcDbCircle
 39
0.105833333333333
 10
200.859264724627
 20
-161.4223120899457
 30
0.0
 40
0.7937499999999993
100
AcDbArc
 50
90.0
 51
0.0
  0
LINE
  5
22E
330
1F
100
AcDbEntity
  8
0
 62
    18
420
        0
100
AcDbLine
 39
0.105833333333333
 10
201.9175980579603
 20
-161.4223120899457
 30
0.0
 11
199.8009313912937
 21
-161.4223120899457
 31
0.0
  0
LINE
  5
22F
330
1F
100
AcDbEntity
  8
0
 62
    18
420
        0
100
AcDbLine
 39
0.105833333333333
 10
200.859264724627
 20
-162.4806454232791
 30
0.0
 11
200.859264724627
 21
-160.3639787566124
 31
0.0
  0
ARC
  5
230
330
1F
100
AcDbEntity
  8
0
 62
    18
420
        0
100
AcDbCircle
 39
0.105833333333333
 10
201.875264724627
 20
-161.4223120899457
 30
0.0
 40
0.7937499999999993
100
AcDbArc
 50
0.0
 51
270.0
  0
ARC
  5
231
330
1F
100
AcDbEntity
  8
0
 62
    18
420
        0
100
AcDbCircle
 39
0.105833333333333
 10
201.875264724627
 20
-161.4223120899457
 30
0.0
 40
0.7937499999999993
100
AcDbArc
 50
270.0
 51
180.0
  0
ARC
  5
232
330
1F
100
AcDbEntity
  8
0
 62
    18
420
        0
100
AcDbCircle
 39
0.105833333333333
 10
201.875264724627
 20
-161.4223120899457
 30
0.0
 40
0.7937499999999993
100
AcDbArc
 50
180.0
 51
90.0
  0
ARC
  5
233
330
1F
100
AcDbEntity
  8
0
 62
    18
420
        0
100
AcDbCircle
 39
0.105833333333333
 10
201.875264724627
 20
-161.4223120899457
 30
0.0
 40
0.7937499999999993
100
AcDbArc
 50
90.0
 51
0.0
  0
LINE
  5
234
330
1F
100
AcDbEntity
  8
0
 62
    18
420
        0
100
AcDbLine
 39
0.105833333333333
 10
202.9335980579604
 20
-161.4223120899457
 30
0.0
 11
200.8169313912937
 21
-161.4223120899457
 31
0.0
  0
LINE
  5
235
330
1F
100
AcDbEntity
  8
0
 62
    18
420
        0
100
AcDbLine
 39
0.105833333333333
 10
201.875264724627
 20
-162.4806454232791
 30
0.0
 11
201.875264724627
 21
-160.3639787566124
 31
0.0
  0
ARC
  5
236
330
1F
100
AcDbEntity
  8
0
 62
    18
420
        0
100
AcDbCircle
 39
0.105833333333333
 10
202.891264724627
 20
-161.4223120899457
 30
0.0
 40
0.7937499999999993
100
AcDbArc
 50
0.0
 51
270.0
  0
ARC
  5
237
330
1F
100
AcDbEntity
  8
0
 62
    18
420
        0
100
AcDbCircle
 39
0.105833333333333
 10
202.891264724627
 20
-161.4223120899457
 30
0.0
 40
0.7937499999999993
100
AcDbArc
 50
270.0
 51
180.0
  0
ARC
  5
238
330
1F
100
AcDbEntity
  8
0
 62
    18
420
        0
100
AcDbCircle
 39
0.105833333333333
 10
202.891264724627
 20
-161.4223120899457
 30
0.0
 40
0.7937499999999993
100
AcDbArc
 50
180.0
 51
90.0
  0
ARC
  5
239
330
1F
100
AcDbEntity
  8
0
 62
    18
420
        0
100
AcDbCircle
 39
0.105833333333333
 10
202.891264724627
 20
-161.4223120899457
 30
0.0
 40
0.7937499999999993
100
AcDbArc
 50
90.0
 51
0.0
  0
LINE
  5
23A
330
1F
100
AcDbEntity
  8
0
 62
    18
420
        0
100
AcDbLine
 39
0.105833333333333
 10
203.9495980579603
 20
-161.4223120899457
 30
0.0
 11
201.8329313912937
 21
-161.4223120899457
 31
0.0
  0
LINE
  5
23B
330
1F
100
AcDbEntity
  8
0
 62
    18
420
        0
100
AcDbLine
 39
0.105833333333333
 10
202.891264724627
 20
-162.4806454232791
 30
0.0
 11
202.891264724627
 21
-160.3639787566124
 31
0.0
  0
ARC
  5
23C
330
1F
100
AcDbEntity
  8
0
 62
    18
420
        0
100
AcDbCircle
 39
0.105833333333333
 10
202.383264724627
 20
-162.4383120899457
 30
0.0
 40
0.7937499999999993
100
AcDbArc
 50
0.0
 51
270.0
  0
ARC
  5
23D
330
1F
100
AcDbEntity
  8
0
 62
    18
420
        0
100
AcDbCircle
 39
0.105833333333333
 10
202.383264724627
 20
-162.4383120899457
 30
0.0
 40
0.7937499999999993
100
AcDbArc
 50
270.0
 51
180.0
  0
ARC
  5
23E
330
1F
100
AcDbEntity
  8
0
 62
    18
420
        0
100
AcDbCircle
 39
0.105833333333333
 10
202.383264724627
 20
-162.4383120899457
 30
0.0
 40
0.7937499999999993
100
AcDbArc
 50
180.0
 51
90.0
  0
ARC
  5
23F
330
1F
100
AcDbEntity
  8
0
 62
    18
420
        0
100
AcDbCircle
 39
0.105833333333333
 10
202.383264724627
 20
-162.4383120899457
 30
0.0
 40
0.7937499999999993
100
AcDbArc
 50
90.0
 51
0.0
  0
LINE
  5
240
330
1F
100
AcDbEntity
  8
0
 62
    18
420
        0
100
AcDbLine
 39
0.105833333333333
 10
203.4415980579603
 20
-162.4383120899457
 30
0.0
 11
201.3249313912937
 21
-162.4383120899457
 31
0.0
  0
LINE
  5
241
330
1F
100
AcDbEntity
  8
0
 62
    18
420
        0
100
AcDbLine
 39
0.105833333333333
 10
202.383264724627
 20
-163.4966454232791
 30
0.0
 11
202.383264724627
 21
-161.3799787566124
 31
0.0
  0
ARC
  5
242
330
1F
100
AcDbEntity
  8
0
 62
    18
420
        0
100
AcDbCircle
 39
0.1058333333333334
 10
196.277333324627
 20
-168.9855126099458
 30
0.0
 40
0.7937499999999997
100
AcDbArc
 50
0.0
 51
270.0
  0
ARC
  5
243
330
1F
100
AcDbEntity
  8
0
 62
    18
420
        0
100
AcDbCircle
 39
0.1058333333333334
 10
196.277333324627
 20
-168.9855126099458
 30
0.0
 40
0.7937499999999997
100
AcDbArc
 50
270.0
 51
180.0
  0
ARC
  5
244
330
1F
100
AcDbEntity
  8
0
 62
    18
420
        0
100
AcDbCircle
 39
0.1058333333333334
 10
196.277333324627
 20
-168.9855126099458
 30
0.0
 40
0.7937499999999997
100
AcDbArc
 50
180.0
 51
90.0
  0
ARC
  5
245
330
1F
100
AcDbEntity
  8
0
 62
    18
420
        0
100
AcDbCircle
 39
0.1058333333333334
 10
196.277333324627
 20
-168.9855126099458
 30
0.0
 40
0.7937499999999997
100
AcDbArc
 50
90.0
 51
0.0
  0
LINE
  5
246
330
1F
100
AcDbEntity
  8
0
 62
    18
420
        0
100
AcDbLine
 39
0.1058333333333334
 10
197.3356666579603
 20
-168.9855126099458
 30
0.0
 11
195.2189999912937
 21
-168.9855126099458
 31
0.0
  0
LINE
  5
247
330
1F
100
AcDbEntity
  8
0
 62
    18
420
        0
100
AcDbLine
 39
0.1058333333333334
 10
196.277333324627
 20
-170.0438459432791
 30
0.0
 11
196.277333324627
 21
-167.9271792766125
 31
0.0
  0
ARC
  5
248
330
1F
100
AcDbEntity
  8
0
 62
    18
420
        0
100
AcDbCircle
 39
0.105833333333333
 10
210.389268524627
 20
-155.7807130099457
 30
0.0
 40
0.7937499999999993
100
AcDbArc
 50
0.0
 51
270.0
  0
ARC
  5
249
330
1F
100
AcDbEntity
  8
0
 62
    18
420
        0
100
AcDbCircle
 39
0.105833333333333
 10
210.389268524627
 20
-155.7807130099457
 30
0.0
 40
0.7937499999999993
100
AcDbArc
 50
270.0
 51
180.0
  0
ARC
  5
24A
330
1F
100
AcDbEntity
  8
0
 62
    18
420
        0
100
AcDbCircle
 39
0.105833333333333
 10
210.389268524627
 20
-155.7807130099457
 30
0.0
 40
0.7937499999999993
100
AcDbArc
 50
180.0
 51
90.0
  0
ARC
  5
24B
330
1F
100
AcDbEntity
  8
0
 62
    18
420
        0
100
AcDbCircle
 39
0.105833333333333
 10
210.389268524627
 20
-155.7807130099457
 30
0.0
 40
0.7937499999999993
100
AcDbArc
 50
90.0
 51
0.0
  0
LINE
  5
24C
330
1F
100
AcDbEntity
  8
0
 62
    18
420
        0
100
AcDbLine
 39
0.105833333333333
 10
211.4476018579603
 20
-155.7807130099457
 30
0.0
 11
209.3309351912937
 21
-155.7807130099457
 31
0.0
  0
LINE
  5
24D
330
1F
100
AcDbEntity
  8
0
 62
    18
420
        0
100
AcDbLine
 39
0.105833333333333
 10
210.389268524627
 20
-156.8390463432791
 30
0.0
 11
210.389268524627
 21
-154.7223796766124
 31
0.0
  0
ARC
  5
24E
330
1F
100
AcDbEntity
  8
0
 62
    18
420
        0
100
AcDbCircle
 39
0.105833333333333
 10
220.295268524627
 20
-160.8607130099457
 30
0.0
 40
0.7937499999999993
100
AcDbArc
 50
0.0
 51
270.0
  0
ARC
  5
24F
330
1F
100
AcDbEntity
  8
0
 62
    18
420
        0
100
AcDbCircle
 39
0.105833333333333
 10
220.295268524627
 20
-160.8607130099457
 30
0.0
 40
0.7937499999999993
100
AcDbArc
 50
270.0
 51
180.0
  0
ARC
  5
250
330
1F
100
AcDbEntity
  8
0
 62
    18
420
        0
100
AcDbCircle
 39
0.105833333333333
 10
220.295268524627
 20
-160.8607130099457
 30
0.0
 40
0.7937499999999993
100
AcDbArc
 50
180.0
 51
90.0
  0
ARC
  5
251
330
1F
100
AcDbEntity
  8
0
 62
    18
420
        0
100
AcDbCircle
 39
0.105833333333333
 10
220.295268524627
 20
-160.8607130099457
 30
0.0
 40
0.7937499999999993
100
AcDbArc
 50
90.0
 51
0.0
  0
LINE
  5
252
330
1F
100
AcDbEntity
  8
0
 62
    18
420
        0
100
AcDbLine
 39
0.105833333333333
 10
221.3536018579603
 20
-160.8607130099457
 30
0.0
 11
219.2369351912937
 21
-160.8607130099457
 31
0.0
  0
LINE
  5
253
330
1F
100
AcDbEntity
  8
0
 62
    18
420
        0
100
AcDbLine
 39
0.105833333333333
 10
220.295268524627
 20
-161.9190463432791
 30
0.0
 11
220.295268524627
 21
-159.8023796766124
 31
0.0
  0
ARC
  5
254
330
1F
100
AcDbEntity
  8
0
 62
    18
420
        0
100
AcDbCircle
 39
0.105833333333333
 10
214.276464204627
 20
-160.4799060499458
 30
0.0
 40
0.7937499999999993
100
AcDbArc
 50
0.0
 51
270.0
  0
ARC
  5
255
330
1F
100
AcDbEntity
  8
0
 62
    18
420
        0
100
AcDbCircle
 39
0.105833333333333
 10
214.276464204627
 20
-160.4799060499458
 30
0.0
 40
0.7937499999999993
100
AcDbArc
 50
270.0
 51
180.0
  0
ARC
  5
256
330
1F
100
AcDbEntity
  8
0
 62
    18
420
        0
100
AcDbCircle
 39
0.105833333333333
 10
214.276464204627
 20
-160.4799060499458
 30
0.0
 40
0.7937499999999993
100
AcDbArc
 50
180.0
 51
90.0
  0
ARC
  5
257
330
1F
100
AcDbEntity
  8
0
 62
    18
420
        0
100
AcDbCircle
 39
0.105833333333333
 10
214.276464204627
 20
-160.4799060499458
 30
0.0
 40
0.7937499999999993
100
AcDbArc
 50
90.0
 51
0.0
  0
LINE
  5
258
330
1F
100
AcDbEntity
  8
0
 62
    18
420
        0
100
AcDbLine
 39
0.105833333333333
 10
215.3347975379603
 20
-160.4799060499458
 30
0.0
 11
213.2181308712937
 21
-160.4799060499458
 31
0.0
  0
LINE
  5
259
330
1F
100
AcDbEntity
  8
0
 62
    18
420
        0
100
AcDbLine
 39
0.105833333333333
 10
214.276464204627
 20
-161.5382393832791
 30
0.0
 11
214.276464204627
 21
-159.4215727166124
 31
0.0
  0
ARC
  5
25A
330
1F
100
AcDbEntity
  8
0
 62
    18
420
        0
100
AcDbCircle
 39
0.105833333333333
 10
221.349561564627
 20
-162.7775138499458
 30
0.0
 40
0.7937499999999993
100
AcDbArc
 50
0.0
 51
270.0
  0
ARC
  5
25B
330
1F
100
AcDbEntity
  8
0
 62
    18
420
        0
100
AcDbCircle
 39
0.105833333333333
 10
221.349561564627
 20
-162.7775138499458
 30
0.0
 40
0.7937499999999993
100
AcDbArc
 50
270.0
 51
180.0
  0
ARC
  5
25C
330
1F
100
AcDbEntity
  8
0
 62
    18
420
        0
100
AcDbCircle
 39
0.105833333333333
 10
221.349561564627
 20
-162.7775138499458
 30
0.0
 40
0.7937499999999993
100
AcDbArc
 50
180.0
 51
90.0
  0
ARC
  5
25D
330
1F
100
AcDbEntity
  8
0
 62
    18
420
        0
100
AcDbCircle
 39
0.105833333333333
 10
221.349561564627
 20
-162.7775138499458
 30
0.0
 40
0.7937499999999993
100
AcDbArc
 50
90.0
 51
0.0
  0
LINE
  5
25E
330
1F
100
AcDbEntity
  8
0
 62
    18
420
        0
100
AcDbLine
 39
0.105833333333333
 10
222.4078948979603
 20
-162.7775138499458
 30
0.0
 11
220.2912282312937
 21
-162.7775138499458
 31
0.0
  0
LINE
  5
25F
330
1F
100
AcDbEntity
  8
0
 62
    18
420
        0
100
AcDbLine
 39
0.105833333333333
 10
221.349561564627
 20
-163.8358471832791
 30
0.0
 11
221.349561564627
 21
-161.7191805166125
 31
0.0
  0
ARC
  5
260
330
1F
100
AcDbEntity
  8
0
 62
    18
420
        0
100
AcDbCircle
 39
0.105833333333333
 10
213.311360724627
 20
-162.7775138499458
 30
0.0
 40
0.7937499999999993
100
AcDbArc
 50
0.0
 51
270.0
  0
ARC
  5
261
330
1F
100
AcDbEntity
  8
0
 62
    18
420
        0
100
AcDbCircle
 39
0.105833333333333
 10
213.311360724627
 20
-162.7775138499458
 30
0.0
 40
0.7937499999999993
100
AcDbArc
 50
270.0
 51
180.0
  0
ARC
  5
262
330
1F
100
AcDbEntity
  8
0
 62
    18
420
        0
100
AcDbCircle
 39
0.105833333333333
 10
213.311360724627
 20
-162.7775138499458
 30
0.0
 40
0.7937499999999993
100
AcDbArc
 50
180.0
 51
90.0
  0
ARC
  5
263
330
1F
100
AcDbEntity
  8
0
 62
    18
420
        0
100
AcDbCircle
 39
0.105833333333333
 10
213.311360724627
 20
-162.7775138499458
 30
0.0
 40
0.7937499999999993
100
AcDbArc
 50
90.0
 51
0.0
  0
LINE
  5
264
330
1F
100
AcDbEntity
  8
0
 62
    18
420
        0
100
AcDbLine
 39
0.105833333333333
 10
214.3696940579603
 20
-162.7775138499458
 30
0.0
 11
212.2530273912936
 21
-162.7775138499458
 31
0.0
  0
LINE
  5
265
330
1F
100
AcDbEntity
  8
0
 62
    18
420
        0
100
AcDbLine
 39
0.105833333333333
 10
213.311360724627
 20
-163.8358471832791
 30
0.0
 11
213.311360724627
 21
-161.7191805166125
 31
0.0
  0
ARC
  5
266
330
1F
100
AcDbEntity
  8
0
 62
    18
420
        0
100
AcDbCircle
 39
0.105833333333333
 10
204.480456364627
 20
-174.8775150499457
 30
0.0
 40
0.7937499999999993
100
AcDbArc
 50
0.0
 51
270.0
  0
ARC
  5
267
330
1F
100
AcDbEntity
  8
0
 62
    18
420
        0
100
AcDbCircle
 39
0.105833333333333
 10
204.480456364627
 20
-174.8775150499457
 30
0.0
 40
0.7937499999999993
100
AcDbArc
 50
270.0
 51
180.0
  0
ARC
  5
268
330
1F
100
AcDbEntity
  8
0
 62
    18
420
        0
100
AcDbCircle
 39
0.105833333333333
 10
204.480456364627
 20
-174.8775150499457
 30
0.0
 40
0.7937499999999993
100
AcDbArc
 50
180.0
 51
90.0
  0
ARC
  5
269
330
1F
100
AcDbEntity
  8
0
 62
    18
420
        0
100
AcDbCircle
 39
0.105833333333333
 10
204.480456364627
 20
-174.8775150499457
 30
0.0
 40
0.7937499999999993
100
AcDbArc
 50
90.0
 51
0.0
  0
LINE
  5
26A
330
1F
100
AcDbEntity
  8
0
 62
    18
420
        0
100
AcDbLine
 39
0.105833333333333
 10
205.5387896979603
 20
-174.8775150499457
 30
0.0
 11
203.4221230312936
 21
-174.8775150499457
 31
0.0
  0
LINE
  5
26B
330
1F
100
AcDbEntity
  8
0
 62
    18
420
        0
100
AcDbLine
 39
0.105833333333333
 10
204.480456364627
 20
-175.9358483832791
 30
0.0
 11
204.4804563646269
 21
-173.8191817166124
 31
0.0
  0
ARC
  5
26C
330
1F
100
AcDbEntity
  8
0
 62
    18
420
        0
100
AcDbCircle
 39
0.105833333333333
 10
204.541314764627
 20
-178.8771666899457
 30
0.0
 40
0.7937499999999993
100
AcDbArc
 50
0.0
 51
270.0
  0
ARC
  5
26D
330
1F
100
AcDbEntity
  8
0
 62
    18
420
        0
100
AcDbCircle
 39
0.105833333333333
 10
204.541314764627
 20
-178.8771666899457
 30
0.0
 40
0.7937499999999993
100
AcDbArc
 50
270.0
 51
180.0
  0
ARC
  5
26E
330
1F
100
AcDbEntity
  8
0
 62
    18
420
        0
100
AcDbCircle
 39
0.105833333333333
 10
204.541314764627
 20
-178.8771666899457
 30
0.0
 40
0.7937499999999993
100
AcDbArc
 50
180.0
 51
90.0
  0
ARC
  5
26F
330
1F
100
AcDbEntity
  8
0
 62
    18
420
        0
100
AcDbCircle
 39
0.105833333333333
 10
204.541314764627
 20
-178.8771666899457
 30
0.0
 40
0.7937499999999993
100
AcDbArc
 50
90.0
 51
0.0
  0
LINE
  5
270
330
1F
100
AcDbEntity
  8
0
 62
    18
420
        0
100
AcDbLine
 39
0.105833333333333
 10
205.5996480979604
 20
-178.8771666899457
 30
0.0
 11
203.4829814312937
 21
-178.8771666899457
 31
0.0
  0
LINE
  5
271
330
1F
100
AcDbEntity
  8
0
 62
    18
420
        0
100
AcDbLine
 39
0.105833333333333
 10
204.541314764627
 20
-179.9355000232791
 30
0.0
 11
204.541314764627
 21
-177.8188333566124
 31
0.0
  0
ARC
  5
272
330
1F
100
AcDbEntity
  8
0
 62
    18
420
        0
100
AcDbCircle
 39
0.1058333333333366
 10
221.330455684627
 20
-184.9167075699458
 30
0.0
 40
0.7937500000000028
100
AcDbArc
 50
0.0
 51
270.0
  0
ARC
  5
273
330
1F
100
AcDbEntity
  8
0
 62
    18
420
        0
100
AcDbCircle
 39
0.1058333333333366
 10
221.330455684627
 20
-184.9167075699458
 30
0.0
 40
0.7937500000000028
100
AcDbArc
 50
270.0
 51
180.0
  0
ARC
  5
274
330
1F
100
AcDbEntity
  8
0
 62
    18
420
        0
100
AcDbCircle
 39
0.1058333333333366
 10
221.330455684627
 20
-184.9167075699458
 30
0.0
 40
0.7937500000000028
100
AcDbArc
 50
180.0
 51
90.0
  0
ARC
  5
275
330
1F
100
AcDbEntity
  8
0
 62
    18
420
        0
100
AcDbCircle
 39
0.1058333333333366
 10
221.330455684627
 20
-184.9167075699458
 30
0.0
 40
0.7937500000000028
100
AcDbArc
 50
90.0
 51
0.0
  0
LINE
  5
276
330
1F
100
AcDbEntity
  8
0
 62
    18
420
        0
100
AcDbLine
 39
0.1058333333333366
 10
222.3887890179603
 20
-184.9167075699458
 30
0.0
 11
220.2721223512937
 21
-184.9167075699458
 31
0.0
  0
LINE
  5
277
330
1F
100
AcDbEntity
  8
0
 62
    18
420
        0
100
AcDbLine
 39
0.1058333333333366
 10
221.330455684627
 20
-185.9750409032791
 30
0.0
 11
221.330455684627
 21
-183.8583742366125
 31
0.0
  0
ARC
  5
278
330
1F
100
AcDbEntity
  8
0
 62
    18
420
        0
100
AcDbCircle
 39
0.105833333333333
 10
220.380267084627
 20
-179.2161144499458
 30
0.0
 40
0.7937499999999993
100
AcDbArc
 50
0.0
 51
270.0
  0
ARC
  5
279
330
1F
100
AcDbEntity
  8
0
 62
    18
420
        0
100
AcDbCircle
 39
0.105833333333333
 10
220.380267084627
 20
-179.2161144499458
 30
0.0
 40
0.7937499999999993
100
AcDbArc
 50
270.0
 51
180.0
  0
ARC
  5
27A
330
1F
100
AcDbEntity
  8
0
 62
    18
420
        0
100
AcDbCircle
 39
0.105833333333333
 10
220.380267084627
 20
-179.2161144499458
 30
0.0
 40
0.7937499999999993
100
AcDbArc
 50
180.0
 51
90.0
  0
ARC
  5
27B
330
1F
100
AcDbEntity
  8
0
 62
    18
420
        0
100
AcDbCircle
 39
0.105833333333333
 10
220.380267084627
 20
-179.2161144499458
 30
0.0
 40
0.7937499999999993
100
AcDbArc
 50
90.0
 51
0.0
  0
LINE
  5
27C
330
1F
100
AcDbEntity
  8
0
 62
    18
420
        0
100
AcDbLine
 39
0.105833333333333
 10
221.4386004179603
 20
-179.2161144499458
 30
0.0
 11
219.3219337512937
 21
-179.2161144499458
 31
0.0
  0
LINE
  5
27D
330
1F
100
AcDbEntity
  8
0
 62
    18
420
        0
100
AcDbLine
 39
0.105833333333333
 10
220.380267084627
 20
-180.2744477832791
 30
0.0
 11
220.380267084627
 21
-178.1577811166125
 31
0.0
  0
ARC
  5
27E
330
1F
100
AcDbEntity
  8
0
 62
    18
420
        0
100
AcDbCircle
 39
0.105833333333333
 10
226.930459724627
 20
-171.8775108899458
 30
0.0
 40
0.7937499999999993
100
AcDbArc
 50
0.0
 51
270.0
  0
ARC
  5
27F
330
1F
100
AcDbEntity
  8
0
 62
    18
420
        0
100
AcDbCircle
 39
0.105833333333333
 10
226.930459724627
 20
-171.8775108899458
 30
0.0
 40
0.7937499999999993
100
AcDbArc
 50
270.0
 51
180.0
  0
ARC
  5
280
330
1F
100
AcDbEntity
  8
0
 62
    18
420
        0
100
AcDbCircle
 39
0.105833333333333
 10
226.930459724627
 20
-171.8775108899458
 30
0.0
 40
0.7937499999999993
100
AcDbArc
 50
180.0
 51
90.0
  0
ARC
  5
281
330
1F
100
AcDbEntity
  8
0
 62
    18
420
        0
100
AcDbCircle
 39
0.105833333333333
 10
226.930459724627
 20
-171.8775108899458
 30
0.0
 40
0.7937499999999993
100
AcDbArc
 50
90.0
 51
0.0
  0
LINE
  5
282
330
1F
100
AcDbEntity
  8
0
 62
    18
420
        0
100
AcDbLine
 39
0.105833333333333
 10
227.9887930579604
 20
-171.8775108899458
 30
0.0
 11
225.8721263912937
 21
-171.8775108899458
 31
0.0
  0
LINE
  5
283
330
1F
100
AcDbEntity
  8
0
 62
    18
420
        0
100
AcDbLine
 39
0.105833333333333
 10
226.930459724627
 20
-172.9358442232791
 30
0.0
 11
226.930459724627
 21
-170.8191775566125
 31
0.0
  0
ARC
  5
284
330
1F
100
AcDbEntity
  8
0
 62
    18
420
        0
100
AcDbCircle
 39
0.1058333333333333
 10
227.230459124627
 20
-167.8775138099458
 30
0.0
 40
0.7937499999999998
100
AcDbArc
 50
0.000000000000012
 51
270.0
  0
ARC
  5
285
330
1F
100
AcDbEntity
  8
0
 62
    18
420
        0
100
AcDbCircle
 39
0.1058333333333333
 10
227.230459124627
 20
-167.8775138099458
 30
0.0
 40
0.7937499999999998
100
AcDbArc
 50
270.0
 51
180.0
  0
ARC
  5
286
330
1F
100
AcDbEntity
  8
0
 62
    18
420
        0
100
AcDbCircle
 39
0.1058333333333333
 10
227.230459124627
 20
-167.8775138099458
 30
0.0
 40
0.7937499999999998
100
AcDbArc
 50
180.0
 51
90.0
  0
ARC
  5
287
330
1F
100
AcDbEntity
  8
0
 62
    18
420
        0
100
AcDbCircle
 39
0.1058333333333333
 10
227.230459124627
 20
-167.8775138099458
 30
0.0
 40
0.7937499999999998
100
AcDbArc
 50
90.0
 51
0.000000000000024
  0
LINE
  5
288
330
1F
100
AcDbEntity
  8
0
 62
    18
420
        0
100
AcDbLine
 39
0.1058333333333333
 10
228.2887924579603
 20
-167.8775138099458
 30
0.0
 11
226.1721257912937
 21
-167.8775138099458
 31
0.0
  0
LINE
  5
289
330
1F
100
AcDbEntity
  8
0
 62
    18
420
        0
100
AcDbLine
 39
0.1058333333333333
 10
227.230459124627
 20
-168.9358471432791
 30
0.0
 11
227.230459124627
 21
-166.8191804766124
 31
0.0
  0
ARC
  5
28A
330
1F
100
AcDbEntity
  8
0
 62
    18
420
        0
100
AcDbCircle
 39
0.1058333333333334
 10
196.277333324627
 20
-166.4075142099458
 30
0.0
 40
0.7937499999999997
100
AcDbArc
 50
0.0
 51
270.0
  0
ARC
  5
28B
330
1F
100
AcDbEntity
  8
0
 62
    18
420
        0
100
AcDbCircle
 39
0.1058333333333334
 10
196.277333324627
 20
-166.4075142099458
 30
0.0
 40
0.7937499999999997
100
AcDbArc
 50
270.0
 51
180.0
  0
ARC
  5
28C
330
1F
100
AcDbEntity
  8
0
 62
    18
420
        0
100
AcDbCircle
 39
0.1058333333333334
 10
196.277333324627
 20
-166.4075142099458
 30
0.0
 40
0.7937499999999997
100
AcDbArc
 50
180.0
 51
90.0
  0
ARC
  5
28D
330
1F
100
AcDbEntity
  8
0
 62
    18
420
        0
100
AcDbCircle
 39
0.1058333333333334
 10
196.277333324627
 20
-166.4075142099458
 30
0.0
 40
0.7937499999999997
100
AcDbArc
 50
90.0
 51
0.0
  0
LINE
  5
28E
330
1F
100
AcDbEntity
  8
0
 62
    18
420
        0
100
AcDbLine
 39
0.1058333333333334
 10
197.3356666579603
 20
-166.4075142099458
 30
0.0
 11
195.2189999912937
 21
-166.4075142099458
 31
0.0
  0
LINE
  5
28F
330
1F
100
AcDbEntity
  8
0
 62
    18
420
        0
100
AcDbLine
 39
0.1058333333333334
 10
196.277333324627
 20
-167.4658475432792
 30
0.0
 11
196.277333324627
 21
-165.3491808766125
 31
0.0
  0
ARC
  5
290
330
1F
100
AcDbEntity
  8
0
 62
    18
420
        0
100
AcDbCircle
 39
0.1058333333333366
 10
171.455681164627
 20
-193.6538910099458
 30
0.0
 40
0.7937500000000028
100
AcDbArc
 50
0.0
 51
270.0
  0
ARC
  5
291
330
1F
100
AcDbEntity
  8
0
 62
    18
420
        0
100
AcDbCircle
 39
0.1058333333333366
 10
171.455681164627
 20
-193.6538910099458
 30
0.0
 40
0.7937500000000028
100
AcDbArc
 50
270.0
 51
180.0
  0
ARC
  5
292
330
1F
100
AcDbEntity
  8
0
 62
    18
420
        0
100
AcDbCircle
 39
0.1058333333333366
 10
171.455681164627
 20
-193.6538910099458
 30
0.0
 40
0.7937500000000028
100
AcDbArc
 50
180.0
 51
90.0
  0
ARC
  5
293
330
1F
100
AcDbEntity
  8
0
 62
    18
420
        0
100
AcDbCircle
 39
0.1058333333333366
 10
171.455681164627
 20
-193.6538910099458
 30
0.0
 40
0.7937500000000028
100
AcDbArc
 50
90.0
 51
0.0
  0
LINE
  5
294
330
1F
100
AcDbEntity
  8
0
 62
    18
420
        0
100
AcDbLine
 39
0.1058333333333366
 10
172.5140144979603
 20
-193.6538910099458
 30
0.0
 11
170.3973478312937
 21
-193.6538910099458
 31
0.0
  0
LINE
  5
295
330
1F
100
AcDbEntity
  8
0
 62
    18
420
        0
100
AcDbLine
 39
0.1058333333333366
 10
171.455681164627
 20
-194.7122243432791
 30
0.0
 11
171.455681164627
 21
-192.5955576766124
 31
0.0
  0
ARC
  5
296
330
1F
100
AcDbEntity
  8
0
 62
    18
420
        0
100
AcDbCircle
 39
0.1058333333333334
 10
243.245250564627
 20
-168.7060110099457
 30
0.0
 40
0.7937499999999997
100
AcDbArc
 50
0.0
 51
270.0
  0
ARC
  5
297
330
1F
100
AcDbEntity
  8
0
 62
    18
420
        0
100
AcDbCircle
 39
0.1058333333333334
 10
243.245250564627
 20
-168.7060110099457
 30
0.0
 40
0.7937499999999997
100
AcDbArc
 50
270.0
 51
180.0
  0
ARC
  5
298
330
1F
100
AcDbEntity
  8
0
 62
    18
420
        0
100
AcDbCircle
 39
0.1058333333333334
 10
243.245250564627
 20
-168.7060110099457
 30
0.0
 40
0.7937499999999997
100
AcDbArc
 50
180.0
 51
90.0
  0
ARC
  5
299
330
1F
100
AcDbEntity
  8
0
 62
    18
420
        0
100
AcDbCircle
 39
0.1058333333333334
 10
243.245250564627
 20
-168.7060110099457
 30
0.0
 40
0.7937499999999997
100
AcDbArc
 50
90.0
 51
0.0
  0
LINE
  5
29A
330
1F
100
AcDbEntity
  8
0
 62
    18
420
        0
100
AcDbLine
 39
0.1058333333333334
 10
244.3035838979603
 20
-168.7060110099457
 30
0.0
 11
242.1869172312936
 21
-168.7060110099457
 31
0.0
  0
LINE
  5
29B
330
1F
100
AcDbEntity
  8
0
 62
    18
420
        0
100
AcDbLine
 39
0.1058333333333334
 10
243.245250564627
 20
-169.764344343279
 30
0.0
 11
243.245250564627
 21
-167.6476776766124
 31
0.0
  0
ARC
  5
29C
330
1F
100
AcDbEntity
  8
0
 62
    18
420
        0
100
AcDbCircle
 39
0.1058333333333366
 10
171.425668524627
 20
-198.5543130099457
 30
0.0
 40
0.7937500000000028
100
AcDbArc
 50
0.0
 51
270.0
  0
ARC
  5
29D
330
1F
100
AcDbEntity
  8
0
 62
    18
420
        0
100
AcDbCircle
 39
0.1058333333333366
 10
171.425668524627
 20
-198.5543130099457
 30
0.0
 40
0.7937500000000028
100
AcDbArc
 50
270.0
 51
180.0
  0
ARC
  5
29E
330
1F
100
AcDbEntity
  8
0
 62
    18
420
        0
100
AcDbCircle
 39
0.1058333333333366
 10
171.425668524627
 20
-198.5543130099457
 30
0.0
 40
0.7937500000000028
100
AcDbArc
 50
180.0
 51
90.0
  0
ARC
  5
29F
330
1F
100
AcDbEntity
  8
0
 62
    18
420
        0
100
AcDbCircle
 39
0.1058333333333366
 10
171.425668524627
 20
-198.5543130099457
 30
0.0
 40
0.7937500000000028
100
AcDbArc
 50
90.0
 51
0.0
  0
LINE
  5
2A0
330
1F
100
AcDbEntity
  8
0
 62
    18
420
        0
100
AcDbLine
 39
0.1058333333333366
 10
172.4840018579603
 20
-198.5543130099457
 30
0.0
 11
170.3673351912936
 21
-198.5543130099457
 31
0.0
  0
LINE
  5
2A1
330
1F
100
AcDbEntity
  8
0
 62
    18
420
        0
100
AcDbLine
 39
0.1058333333333366
 10
171.425668524627
 20
-199.6126463432791
 30
0.0
 11
171.425668524627
 21
-197.4959796766124
 31
0.0
  0
ARC
  5
2A2
330
1F
100
AcDbEntity
  8
0
 62
    18
420
        0
100
AcDbCircle
 39
0.105833333333333
 10
184.074868524627
 20
-178.0311130099458
 30
0.0
 40
0.7937499999999993
100
AcDbArc
 50
0.0
 51
270.0
  0
ARC
  5
2A3
330
1F
100
AcDbEntity
  8
0
 62
    18
420
        0
100
AcDbCircle
 39
0.105833333333333
 10
184.074868524627
 20
-178.0311130099458
 30
0.0
 40
0.7937499999999993
100
AcDbArc
 50
270.0
 51
180.0
  0
ARC
  5
2A4
330
1F
100
AcDbEntity
  8
0
 62
    18
420
        0
100
AcDbCircle
 39
0.105833333333333
 10
184.074868524627
 20
-178.0311130099458
 30
0.0
 40
0.7937499999999993
100
AcDbArc
 50
180.0
 51
90.0
  0
ARC
  5
2A5
330
1F
100
AcDbEntity
  8
0
 62
    18
420
        0
100
AcDbCircle
 39
0.105833333333333
 10
184.074868524627
 20
-178.0311130099458
 30
0.0
 40
0.7937499999999993
100
AcDbArc
 50
90.0
 51
0.0
  0
LINE
  5
2A6
330
1F
100
AcDbEntity
  8
0
 62
    18
420
        0
100
AcDbLine
 39
0.105833333333333
 10
185.1332018579603
 20
-178.0311130099458
 30
0.0
 11
183.0165351912937
 21
-178.0311130099458
 31
0.0
  0
LINE
  5
2A7
330
1F
100
AcDbEntity
  8
0
 62
    18
420
        0
100
AcDbLine
 39
0.105833333333333
 10
184.074868524627
 20
-179.0894463432791
 30
0.0
 11
184.074868524627
 21
-176.9727796766124
 31
0.0
  0
ARC
  5
2A8
330
1F
100
AcDbEntity
  8
0
 62
    18
420
        0
100
AcDbCircle
 39
0.1058333333333366
 10
173.457668524627
 20
-145.2651130099458
 30
0.0
 40
0.7937500000000028
100
AcDbArc
 50
0.0
 51
270.0
  0
ARC
  5
2A9
330
1F
100
AcDbEntity
  8
0
 62
    18
420
        0
100
AcDbCircle
 39
0.1058333333333366
 10
173.457668524627
 20
-145.2651130099458
 30
0.0
 40
0.7937500000000028
100
AcDbArc
 50
270.0
 51
180.0
  0
ARC
  5
2AA
330
1F
100
AcDbEntity
  8
0
 62
    18
420
        0
100
AcDbCircle
 39
0.1058333333333366
 10
173.457668524627
 20
-145.2651130099458
 30
0.0
 40
0.7937500000000028
100
AcDbArc
 50
180.0
 51
90.0
  0
ARC
  5
2AB
330
1F
100
AcDbEntity
  8
0
 62
    18
420
        0
100
AcDbCircle
 39
0.1058333333333366
 10
173.457668524627
 20
-145.2651130099458
 30
0.0
 40
0.7937500000000028
100
AcDbArc
 50
90.0
 51
0.0
  0
LINE
  5
2AC
330
1F
100
AcDbEntity
  8
0
 62
    18
420
        0
100
AcDbLine
 39
0.1058333333333366
 10
174.5160018579603
 20
-145.2651130099458
 30
0.0
 11
172.3993351912937
 21
-145.2651130099458
 31
0.0
  0
LINE
  5
2AD
330
1F
100
AcDbEntity
  8
0
 62
    18
420
        0
100
AcDbLine
 39
0.1058333333333366
 10
173.457668524627
 20
-146.3234463432791
 30
0.0
 11
173.457668524627
 21
-144.2067796766124
 31
0.0
  0
ARC
  5
2AE
330
1F
100
AcDbEntity
  8
0
 62
    18
420
        0
100
AcDbCircle
 39
0.1058333333333366
 10
213.030868524627
 20
-147.6527130099458
 30
0.0
 40
0.7937500000000028
100
AcDbArc
 50
0.0
 51
270.0
  0
ARC
  5
2AF
330
1F
100
AcDbEntity
  8
0
 62
    18
420
        0
100
AcDbCircle
 39
0.1058333333333366
 10
213.030868524627
 20
-147.6527130099458
 30
0.0
 40
0.7937500000000028
100
AcDbArc
 50
270.0
 51
180.0
  0
ARC
  5
2B0
330
1F
100
AcDbEntity
  8
0
 62
    18
420
        0
100
AcDbCircle
 39
0.1058333333333366
 10
213.030868524627
 20
-147.6527130099458
 30
0.0
 40
0.7937500000000028
100
AcDbArc
 50
180.0
 51
90.0
  0
ARC
  5
2B1
330
1F
100
AcDbEntity
  8
0
 62
    18
420
        0
100
AcDbCircle
 39
0.1058333333333366
 10
213.030868524627
 20
-147.6527130099458
 30
0.0
 40
0.7937500000000028
100
AcDbArc
 50
90.0
 51
0.0
  0
LINE
  5
2B2
330
1F
100
AcDbEntity
  8
0
 62
    18
420
        0
100
AcDbLine
 39
0.1058333333333366
 10
214.0892018579603
 20
-147.6527130099458
 30
0.0
 11
211.9725351912937
 21
-147.6527130099458
 31
0.0
  0
LINE
  5
2B3
330
1F
100
AcDbEntity
  8
0
 62
    18
420
        0
100
AcDbLine
 39
0.1058333333333366
 10
213.030868524627
 20
-148.7110463432792
 30
0.0
 11
213.030868524627
 21
-146.5943796766125
 31
0.0
  0
ARC
  5
2B4
330
1F
100
AcDbEntity
  8
0
 62
    18
420
        0
100
AcDbCircle
 39
0.105833333333333
 10
194.049788884627
 20
-179.3775111299458
 30
0.0
 40
0.7937499999999993
100
AcDbArc
 50
0.0
 51
270.0
  0
ARC
  5
2B5
330
1F
100
AcDbEntity
  8
0
 62
    18
420
        0
100
AcDbCircle
 39
0.105833333333333
 10
194.049788884627
 20
-179.3775111299458
 30
0.0
 40
0.7937499999999993
100
AcDbArc
 50
270.0
 51
180.0
  0
ARC
  5
2B6
330
1F
100
AcDbEntity
  8
0
 62
    18
420
        0
100
AcDbCircle
 39
0.105833333333333
 10
194.049788884627
 20
-179.3775111299458
 30
0.0
 40
0.7937499999999993
100
AcDbArc
 50
180.0
 51
90.0
  0
ARC
  5
2B7
330
1F
100
AcDbEntity
  8
0
 62
    18
420
        0
100
AcDbCircle
 39
0.105833333333333
 10
194.049788884627
 20
-179.3775111299458
 30
0.0
 40
0.7937499999999993
100
AcDbArc
 50
90.0
 51
0.0
  0
LINE
  5
2B8
330
1F
100
AcDbEntity
  8
0
 62
    18
420
        0
100
AcDbLine
 39
0.105833333333333
 10
195.1081222179603
 20
-179.3775111299458
 30
0.0
 11
192.9914555512937
 21
-179.3775111299458
 31
0.0
  0
LINE
  5
2B9
330
1F
100
AcDbEntity
  8
0
 62
    18
420
        0
100
AcDbLine
 39
0.105833333333333
 10
194.049788884627
 20
-180.4358444632791
 30
0.0
 11
194.049788884627
 21
-178.3191777966125
 31
0.0
  0
ARC
  5
2BA
330
1F
100
AcDbEntity
  8
0
 62
    18
420
        0
100
AcDbCircle
 39
0.105833333333333
 10
194.049788884627
 20
-183.2775134899457
 30
0.0
 40
0.7937499999999993
100
AcDbArc
 50
0.0
 51
270.0
  0
ARC
  5
2BB
330
1F
100
AcDbEntity
  8
0
 62
    18
420
        0
100
AcDbCircle
 39
0.105833333333333
 10
194.049788884627
 20
-183.2775134899457
 30
0.0
 40
0.7937499999999993
100
AcDbArc
 50
270.0
 51
180.0
  0
ARC
  5
2BC
330
1F
100
AcDbEntity
  8
0
 62
    18
420
        0
100
AcDbCircle
 39
0.105833333333333
 10
194.049788884627
 20
-183.2775134899457
 30
0.0
 40
0.7937499999999993
100
AcDbArc
 50
180.0
 51
90.0
  0
ARC
  5
2BD
330
1F
100
AcDbEntity
  8
0
 62
    18
420
        0
100
AcDbCircle
 39
0.105833333333333
 10
194.049788884627
 20
-183.2775134899457
 30
0.0
 40
0.7937499999999993
100
AcDbArc
 50
90.0
 51
0.0
  0
LINE
  5
2BE
330
1F
100
AcDbEntity
  8
0
 62
    18
420
        0
100
AcDbLine
 39
0.105833333333333
 10
195.1081222179603
 20
-183.2775134899457
 30
0.0
 11
192.9914555512937
 21
-183.2775134899457
 31
0.0
  0
LINE
  5
2BF
330
1F
100
AcDbEntity
  8
0
 62
    18
420
        0
100
AcDbLine
 39
0.105833333333333
 10
194.049788884627
 20
-184.3358468232791
 30
0.0
 11
194.049788884627
 21
-182.2191801566124
 31
0.0
  0
ARC
  5
2C0
330
1F
100
AcDbEntity
  8
0
 62
    18
420
        0
100
AcDbCircle
 39
0.1058333333333366
 10
184.959271124627
 20
-150.9941541299458
 30
0.0
 40
0.7937500000000028
100
AcDbArc
 50
0.0
 51
270.0
  0
ARC
  5
2C1
330
1F
100
AcDbEntity
  8
0
 62
    18
420
        0
100
AcDbCircle
 39
0.1058333333333366
 10
184.959271124627
 20
-150.9941541299458
 30
0.0
 40
0.7937500000000028
100
AcDbArc
 50
270.0
 51
180.0
  0
ARC
  5
2C2
330
1F
100
AcDbEntity
  8
0
 62
    18
420
        0
100
AcDbCircle
 39
0.1058333333333366
 10
184.959271124627
 20
-150.9941541299458
 30
0.0
 40
0.7937500000000028
100
AcDbArc
 50
180.0
 51
90.0
  0
ARC
  5
2C3
330
1F
100
AcDbEntity
  8
0
 62
    18
420
        0
100
AcDbCircle
 39
0.1058333333333366
 10
184.959271124627
 20
-150.9941541299458
 30
0.0
 40
0.7937500000000028
100
AcDbArc
 50
90.0
 51
0.0
  0
LINE
  5
2C4
330
1F
100
AcDbEntity
  8
0
 62
    18
420
        0
100
AcDbLine
 39
0.1058333333333366
 10
186.0176044579603
 20
-150.9941541299458
 30
0.0
 11
183.9009377912937
 21
-150.9941541299458
 31
0.0
  0
LINE
  5
2C5
330
1F
100
AcDbEntity
  8
0
 62
    18
420
        0
100
AcDbLine
 39
0.1058333333333366
 10
184.959271124627
 20
-152.0524874632791
 30
0.0
 11
184.959271124627
 21
-149.9358207966125
 31
0.0
  0
ARC
  5
2C6
330
1F
100
AcDbEntity
  8
0
 62
    18
420
        0
100
AcDbCircle
 39
0.105833333333333
 10
206.921264284627
 20
-156.2455584099458
 30
0.0
 40
0.7937499999999993
100
AcDbArc
 50
0.0
 51
270.0
  0
ARC
  5
2C7
330
1F
100
AcDbEntity
  8
0
 62
    18
420
        0
100
AcDbCircle
 39
0.105833333333333
 10
206.921264284627
 20
-156.2455584099458
 30
0.0
 40
0.7937499999999993
100
AcDbArc
 50
270.0
 51
180.0
  0
ARC
  5
2C8
330
1F
100
AcDbEntity
  8
0
 62
    18
420
        0
100
AcDbCircle
 39
0.105833333333333
 10
206.921264284627
 20
-156.2455584099458
 30
0.0
 40
0.7937499999999993
100
AcDbArc
 50
180.0
 51
90.0
  0
ARC
  5
2C9
330
1F
100
AcDbEntity
  8
0
 62
    18
420
        0
100
AcDbCircle
 39
0.105833333333333
 10
206.921264284627
 20
-156.2455584099458
 30
0.0
 40
0.7937499999999993
100
AcDbArc
 50
90.0
 51
0.0
  0
LINE
  5
2CA
330
1F
100
AcDbEntity
  8
0
 62
    18
420
        0
100
AcDbLine
 39
0.105833333333333
 10
207.9795976179603
 20
-156.2455584099458
 30
0.0
 11
205.8629309512937
 21
-156.2455584099458
 31
0.0
  0
LINE
  5
2CB
330
1F
100
AcDbEntity
  8
0
 62
    18
420
        0
100
AcDbLine
 39
0.105833333333333
 10
206.921264284627
 20
-157.3038917432791
 30
0.0
 11
206.921264284627
 21
-155.1872250766125
 31
0.0
  0
ARC
  5
2CC
330
1F
100
AcDbEntity
  8
0
 62
    18
420
        0
100
AcDbCircle
 39
0.1058333333333366
 10
193.730470244627
 20
-184.5775108899458
 30
0.0
 40
0.7937500000000028
100
AcDbArc
 50
0.0
 51
270.0
  0
ARC
  5
2CD
330
1F
100
AcDbEntity
  8
0
 62
    18
420
        0
100
AcDbCircle
 39
0.1058333333333366
 10
193.730470244627
 20
-184.5775108899458
 30
0.0
 40
0.7937500000000028
100
AcDbArc
 50
270.0
 51
180.0
  0
ARC
  5
2CE
330
1F
100
AcDbEntity
  8
0
 62
    18
420
        0
100
AcDbCircle
 39
0.1058333333333366
 10
193.730470244627
 20
-184.5775108899458
 30
0.0
 40
0.7937500000000028
100
AcDbArc
 50
180.0
 51
90.0
  0
ARC
  5
2CF
330
1F
100
AcDbEntity
  8
0
 62
    18
420
        0
100
AcDbCircle
 39
0.1058333333333366
 10
193.730470244627
 20
-184.5775108899458
 30
0.0
 40
0.7937500000000028
100
AcDbArc
 50
90.0
 51
0.0
  0
LINE
  5
2D0
330
1F
100
AcDbEntity
  8
0
 62
    18
420
        0
100
AcDbLine
 39
0.1058333333333366
 10
194.7888035779603
 20
-184.5775108899458
 30
0.0
 11
192.6721369112936
 21
-184.5775108899458
 31
0.0
  0
LINE
  5
2D1
330
1F
100
AcDbEntity
  8
0
 62
    18
420
        0
100
AcDbLine
 39
0.1058333333333366
 10
193.730470244627
 20
-185.6358442232792
 30
0.0
 11
193.730470244627
 21
-183.5191775566125
 31
0.0
  0
ARC
  5
2D2
330
1F
100
AcDbEntity
  8
0
 62
    18
420
        0
100
AcDbCircle
 39
0.105833333333333
 10
180.630476124627
 20
-178.0775086499458
 30
0.0
 40
0.7937499999999993
100
AcDbArc
 50
0.0
 51
270.0
  0
ARC
  5
2D3
330
1F
100
AcDbEntity
  8
0
 62
    18
420
        0
100
AcDbCircle
 39
0.105833333333333
 10
180.630476124627
 20
-178.0775086499458
 30
0.0
 40
0.7937499999999993
100
AcDbArc
 50
270.0
 51
180.0
  0
ARC
  5
2D4
330
1F
100
AcDbEntity
  8
0
 62
    18
420
        0
100
AcDbCircle
 39
0.105833333333333
 10
180.630476124627
 20
-178.0775086499458
 30
0.0
 40
0.7937499999999993
100
AcDbArc
 50
180.0
 51
90.0
  0
ARC
  5
2D5
330
1F
100
AcDbEntity
  8
0
 62
    18
420
        0
100
AcDbCircle
 39
0.105833333333333
 10
180.630476124627
 20
-178.0775086499458
 30
0.0
 40
0.7937499999999993
100
AcDbArc
 50
90.0
 51
0.0
  0
LINE
  5
2D6
330
1F
100
AcDbEntity
  8
0
 62
    18
420
        0
100
AcDbLine
 39
0.105833333333333
 10
181.6888094579603
 20
-178.0775086499458
 30
0.0
 11
179.5721427912937
 21
-178.0775086499458
 31
0.0
  0
LINE
  5
2D7
330
1F
100
AcDbEntity
  8
0
 62
    18
420
        0
100
AcDbLine
 39
0.105833333333333
 10
180.630476124627
 20
-179.1358419832791
 30
0.0
 11
180.630476124627
 21
-177.0191753166124
 31
0.0
  0
ARC
  5
2D8
330
1F
100
AcDbEntity
  8
0
 62
    18
420
        0
100
AcDbCircle
 39
0.105833333333333
 10
194.049788884627
 20
-174.1775164499458
 30
0.0
 40
0.7937499999999993
100
AcDbArc
 50
0.0
 51
270.0
  0
ARC
  5
2D9
330
1F
100
AcDbEntity
  8
0
 62
    18
420
        0
100
AcDbCircle
 39
0.105833333333333
 10
194.049788884627
 20
-174.1775164499458
 30
0.0
 40
0.7937499999999993
100
AcDbArc
 50
270.0
 51
180.0
  0
ARC
  5
2DA
330
1F
100
AcDbEntity
  8
0
 62
    18
420
        0
100
AcDbCircle
 39
0.105833333333333
 10
194.049788884627
 20
-174.1775164499458
 30
0.0
 40
0.7937499999999993
100
AcDbArc
 50
180.0
 51
90.0
  0
ARC
  5
2DB
330
1F
100
AcDbEntity
  8
0
 62
    18
420
        0
100
AcDbCircle
 39
0.105833333333333
 10
194.049788884627
 20
-174.1775164499458
 30
0.0
 40
0.7937499999999993
100
AcDbArc
 50
90.0
 51
0.0
  0
LINE
  5
2DC
330
1F
100
AcDbEntity
  8
0
 62
    18
420
        0
100
AcDbLine
 39
0.105833333333333
 10
195.1081222179603
 20
-174.1775164499458
 30
0.0
 11
192.9914555512937
 21
-174.1775164499458
 31
0.0
  0
LINE
  5
2DD
330
1F
100
AcDbEntity
  8
0
 62
    18
420
        0
100
AcDbLine
 39
0.105833333333333
 10
194.049788884627
 20
-175.2358497832791
 30
0.0
 11
194.049788884627
 21
-173.1191831166125
 31
0.0
  0
ARC
  5
2DE
330
1F
100
AcDbEntity
  8
0
 62
    18
420
        0
100
AcDbCircle
 39
0.105833333333333
 10
194.049788884627
 20
-172.8775139699457
 30
0.0
 40
0.7937499999999993
100
AcDbArc
 50
0.0
 51
270.0
  0
ARC
  5
2DF
330
1F
100
AcDbEntity
  8
0
 62
    18
420
        0
100
AcDbCircle
 39
0.105833333333333
 10
194.049788884627
 20
-172.8775139699457
 30
0.0
 40
0.7937499999999993
100
AcDbArc
 50
270.0
 51
180.0
  0
ARC
  5
2E0
330
1F
100
AcDbEntity
  8
0
 62
    18
420
        0
100
AcDbCircle
 39
0.105833333333333
 10
194.049788884627
 20
-172.8775139699457
 30
0.0
 40
0.7937499999999993
100
AcDbArc
 50
180.0
 51
90.0
  0
ARC
  5
2E1
330
1F
100
AcDbEntity
  8
0
 62
    18
420
        0
100
AcDbCircle
 39
0.105833333333333
 10
194.049788884627
 20
-172.8775139699457
 30
0.0
 40
0.7937499999999993
100
AcDbArc
 50
90.0
 51
0.0
  0
LINE
  5
2E2
330
1F
100
AcDbEntity
  8
0
 62
    18
420
        0
100
AcDbLine
 39
0.105833333333333
 10
195.1081222179603
 20
-172.8775139699457
 30
0.0
 11
192.9914555512937
 21
-172.8775139699457
 31
0.0
  0
LINE
  5
2E3
330
1F
100
AcDbEntity
  8
0
 62
    18
420
        0
100
AcDbLine
 39
0.105833333333333
 10
194.049788884627
 20
-173.9358473032791
 30
0.0
 11
194.049788884627
 21
-171.8191806366124
 31
0.0
  0
ARC
  5
2E4
330
1F
100
AcDbEntity
  8
0
 62
    18
420
        0
100
AcDbCircle
 39
0.105833333333333
 10
169.730467444627
 20
-176.4775118499457
 30
0.0
 40
0.7937499999999993
100
AcDbArc
 50
0.0
 51
270.0
  0
ARC
  5
2E5
330
1F
100
AcDbEntity
  8
0
 62
    18
420
        0
100
AcDbCircle
 39
0.105833333333333
 10
169.730467444627
 20
-176.4775118499457
 30
0.0
 40
0.7937499999999993
100
AcDbArc
 50
270.0
 51
180.0
  0
ARC
  5
2E6
330
1F
100
AcDbEntity
  8
0
 62
    18
420
        0
100
AcDbCircle
 39
0.105833333333333
 10
169.730467444627
 20
-176.4775118499457
 30
0.0
 40
0.7937499999999993
100
AcDbArc
 50
180.0
 51
90.0
  0
ARC
  5
2E7
330
1F
100
AcDbEntity
  8
0
 62
    18
420
        0
100
AcDbCircle
 39
0.105833333333333
 10
169.730467444627
 20
-176.4775118499457
 30
0.0
 40
0.7937499999999993
100
AcDbArc
 50
90.0
 51
0.0
  0
LINE
  5
2E8
330
1F
100
AcDbEntity
  8
0
 62
    18
420
        0
100
AcDbLine
 39
0.105833333333333
 10
170.7888007779603
 20
-176.4775118499457
 30
0.0
 11
168.6721341112936
 21
-176.4775118499457
 31
0.0
  0
LINE
  5
2E9
330
1F
100
AcDbEntity
  8
0
 62
    18
420
        0
100
AcDbLine
 39
0.105833333333333
 10
169.730467444627
 20
-177.5358451832791
 30
0.0
 11
169.730467444627
 21
-175.4191785166124
 31
0.0
  0
ARC
  5
2EA
330
1F
100
AcDbEntity
  8
0
 62
    18
420
        0
100
AcDbCircle
 39
0.105833333333333
 10
169.730467444627
 20
-178.0775137299458
 30
0.0
 40
0.7937499999999993
100
AcDbArc
 50
0.0
 51
270.0
  0
ARC
  5
2EB
330
1F
100
AcDbEntity
  8
0
 62
    18
420
        0
100
AcDbCircle
 39
0.105833333333333
 10
169.730467444627
 20
-178.0775137299458
 30
0.0
 40
0.7937499999999993
100
AcDbArc
 50
270.0
 51
180.0
  0
ARC
  5
2EC
330
1F
100
AcDbEntity
  8
0
 62
    18
420
        0
100
AcDbCircle
 39
0.105833333333333
 10
169.730467444627
 20
-178.0775137299458
 30
0.0
 40
0.7937499999999993
100
AcDbArc
 50
180.0
 51
90.0
  0
ARC
  5
2ED
330
1F
100
AcDbEntity
  8
0
 62
    18
420
        0
100
AcDbCircle
 39
0.105833333333333
 10
169.730467444627
 20
-178.0775137299458
 30
0.0
 40
0.7937499999999993
100
AcDbArc
 50
90.0
 51
0.0
  0
LINE
  5
2EE
330
1F
100
AcDbEntity
  8
0
 62
    18
420
        0
100
AcDbLine
 39
0.105833333333333
 10
170.7888007779603
 20
-178.0775137299458
 30
0.0
 11
168.6721341112936
 21
-178.0775137299458
 31
0.0
  0
LINE
  5
2EF
330
1F
100
AcDbEntity
  8
0
 62
    18
420
        0
100
AcDbLine
 39
0.105833333333333
 10
169.730467444627
 20
-179.1358470632791
 30
0.0
 11
169.730467444627
 21
-177.0191803966125
 31
0.0
  0
ARC
  5
2F0
330
1F
100
AcDbEntity
  8
0
 62
    18
420
        0
100
AcDbCircle
 39
0.105833333333333
 10
196.277333324627
 20
-164.1668582899458
 30
0.0
 40
0.7937500000000002
100
AcDbArc
 50
0.0
 51
270.0
  0
ARC
  5
2F1
330
1F
100
AcDbEntity
  8
0
 62
    18
420
        0
100
AcDbCircle
 39
0.105833333333333
 10
196.277333324627
 20
-164.1668582899458
 30
0.0
 40
0.7937500000000002
100
AcDbArc
 50
270.0
 51
180.0
  0
ARC
  5
2F2
330
1F
100
AcDbEntity
  8
0
 62
    18
420
        0
100
AcDbCircle
 39
0.105833333333333
 10
196.277333324627
 20
-164.1668582899458
 30
0.0
 40
0.7937500000000002
100
AcDbArc
 50
180.0
 51
90.0
  0
ARC
  5
2F3
330
1F
100
AcDbEntity
  8
0
 62
    18
420
        0
100
AcDbCircle
 39
0.105833333333333
 10
196.277333324627
 20
-164.1668582899458
 30
0.0
 40
0.7937500000000002
100
AcDbArc
 50
90.0
 51
0.0
  0
LINE
  5
2F4
330
1F
100
AcDbEntity
  8
0
 62
    18
420
        0
100
AcDbLine
 39
0.105833333333333
 10
197.3356666579603
 20
-164.1668582899458
 30
0.0
 11
195.2189999912937
 21
-164.1668582899458
 31
0.0
  0
LINE
  5
2F5
330
1F
100
AcDbEntity
  8
0
 62
    18
420
        0
100
AcDbLine
 39
0.105833333333333
 10
196.277333324627
 20
-165.2251916232791
 30
0.0
 11
196.277333324627
 21
-163.1085249566125
 31
0.0
  0
TEXT
  5
2F6
330
1F
100
AcDbEntity
  8
0
 62
    18
420
        0
100
AcDbText
 10
146.076468524627
 20
-130.3938905299458
 30
0.0
 40
2.375005463286726
  1
Drill Drawing View (Scale 2:1)
  7
Arial0
100
AcDbText
  0
ENDSEC
  0
SECTION
  2
OBJECTS
  0
DICTIONARY
  5
C
330
0
100
AcDbDictionary
281
     1
  3
ACAD_DETAILVIEWSTYLE
350
2FE
  3
ACAD_GROUP
350
D
  3
ACAD_LAYOUT
350
1A
  3
ACAD_MATERIAL
350
43
  3
ACAD_MLEADERSTYLE
350
6B
  3
ACAD_MLINESTYLE
350
17
  3
ACAD_PLOTSETTINGS
350
19
  3
ACAD_PLOTSTYLENAME
350
E
  3
ACAD_SCALELIST
350
47
  3
ACAD_SECTIONVIEWSTYLE
350
2FF
  3
ACAD_TABLESTYLE
350
69
  3
ACAD_VISUALSTYLE
350
2A
  3
ACDB_RECOMPOSE_DATA
350
2FB
  3
AcDbVariableDictionary
350
2F7
  0
SUN
  5
6D
330
29
100
AcDbSun
 90
        1
290
     0
 63
     7
421
 16777215
 40
1.0
291
     1
 91
  2455826
 92
 54000000
292
     0
 70
     2
 71
   256
280
     1
  0
DICTIONARY
  5
2FE
102
{ACAD_REACTORS
330
C
102
}
330
C
100
AcDbDictionary
281
     1
  0
DICTIONARY
  5
D
102
{ACAD_REACTORS
330
C
102
}
330
C
100
AcDbDictionary
281
     1
  0
DICTIONARY
  5
1A
102
{ACAD_REACTORS
330
C
102
}
330
C
100
AcDbDictionary
281
     1
  3
Layout1
350
1E
  3
Layout2
350
26
  3
Model
350
22
  0
DICTIONARY
  5
43
102
{ACAD_REACTORS
330
C
102
}
330
C
100
AcDbDictionary
281
     1
  3
ByBlock
350
45
  3
ByLayer
350
44
  3
Global
350
46
  0
DICTIONARY
  5
6B
102
{ACAD_REACTORS
330
C
102
}
330
C
100
AcDbDictionary
281
     1
  3
Standard
350
6C
  0
DICTIONARY
  5
17
102
{ACAD_REACTORS
330
C
102
}
330
C
100
AcDbDictionary
281
     1
  3
Standard
350
18
  0
DICTIONARY
  5
19
102
{ACAD_REACTORS
330
C
102
}
330
C
100
AcDbDictionary
281
     1
  0
ACDBDICTIONARYWDFLT
  5
E
102
{ACAD_REACTORS
330
C
102
}
330
C
100
AcDbDictionary
281
     1
  3
Normal
350
F
100
AcDbDictionaryWithDefault
340
F
  0
DICTIONARY
  5
47
102
{ACAD_REACTORS
330
C
102
}
330
C
100
AcDbDictionary
281
     1
  3
A0
350
48
  3
A1
350
49
  3
A2
350
4A
  3
A3
350
4B
  3
A4
350
4C
  3
A5
350
4D
  3
A6
350
4E
  3
A7
350
4F
  3
A8
350
50
  3
A9
350
51
  3
B0
350
52
  3
B1
350
53
  3
B2
350
54
  3
B3
350
55
  3
B4
350
56
  3
B5
350
57
  3
B6
350
58
  3
B7
350
59
  3
B8
350
5A
  3
B9
350
5B
  3
C0
350
5C
  3
C1
350
5D
  3
C2
350
5E
  3
C3
350
5F
  3
C4
350
60
  3
C5
350
61
  3
C6
350
62
  3
C7
350
63
  3
C8
350
64
  3
C9
350
65
  3
D0
350
66
  3
D1
350
67
  3
D2
350
68
  0
DICTIONARY
  5
2FF
102
{ACAD_REACTORS
330
C
102
}
330
C
100
AcDbDictionary
281
     1
  0
DICTIONARY
  5
69
102
{ACAD_REACTORS
330
C
102
}
330
C
100
AcDbDictionary
281
     1
  3
Standard
350
6A
  0
DICTIONARY
  5
2A
102
{ACAD_REACTORS
330
C
102
}
330
C
100
AcDbDictionary
281
     1
  3
2dWireframe
350
2F
  3
Basic
350
32
  3
Brighten
350
36
  3
ColorChange
350
3A
  3
Conceptual
350
34
  3
Dim
350
35
  3
EdgeColorOff
350
3D
  3
Facepattern
350
39
  3
Flat
350
2B
  3
FlatWithEdges
350
2C
  3
Gouraud
350
2D
  3
GouraudWithEdges
350
2E
  3
Hidden
350
31
  3
JitterOff
350
3B
  3
Linepattern
350
38
  3
OverhangOff
350
3C
  3
Realistic
350
33
  3
Shaded
350
42
  3
Shaded with edges
350
41
  3
Shades of Gray
350
3E
  3
Sketchy
350
3F
  3
Thicken
350
37
  3
Wireframe
350
30
  3
X-Ray
350
40
  0
XRECORD
  5
2FB
102
{ACAD_REACTORS
330
C
102
}
330
C
100
AcDbXrecord
280
     1
 90
        1
330
6A
  0
DICTIONARY
  5
2F7
102
{ACAD_REACTORS
330
C
102
}
330
C
100
AcDbDictionary
281
     1
  3
CANNOSCALE
350
2F8
  3
CMLEADERSTYLE
350
2FD
  3
CTABLESTYLE
350
2FC
  0
LAYOUT
  5
1E
102
{ACAD_REACTORS
330
1A
102
}
330
1A
100
AcDbPlotSettings
  1

  2
none_device
  4

  6

 40
0.0
 41
0.0
 42
0.0
 43
0.0
 44
0.0
 45
0.0
 46
0.0
 47
0.0
 48
0.0
 49
0.0
140
0.0
141
0.0
142
1.0
143
1.0
 70
   688
 72
     0
 73
     0
 74
     5
  7

 75
    16
 76
     0
 77
     2
 78
   300
147
1.0
148
0.0
149
0.0
100
AcDbLayout
  1
Layout1
 70
     1
 71
     1
 10
0.0
 20
0.0
 11
12.0
 21
9.0
 12
0.0
 22
0.0
 32
0.0
 14
1.000000000000000E+20
 24
1.000000000000000E+20
 34
1.000000000000000E+20
 15
-1.000000000000000E+20
 25
-1.000000000000000E+20
 35
-1.000000000000000E+20
146
0.0
 13
0.0
 23
0.0
 33
0.0
 16
1.0
 26
0.0
 36
0.0
 17
0.0
 27
1.0
 37
0.0
 76
     0
330
1B
  0
LAYOUT
  5
26
102
{ACAD_REACTORS
330
1A
102
}
330
1A
100
AcDbPlotSettings
  1

  2
none_device
  4

  6

 40
0.0
 41
0.0
 42
0.0
 43
0.0
 44
0.0
 45
0.0
 46
0.0
 47
0.0
 48
0.0
 49
0.0
140
0.0
141
0.0
142
1.0
143
1.0
 70
   688
 72
     0
 73
     0
 74
     5
  7

 75
    16
 76
     0
 77
     2
 78
   300
147
1.0
148
0.0
149
0.0
100
AcDbLayout
  1
Layout2
 70
     1
 71
     2
 10
0.0
 20
0.0
 11
0.0
 21
0.0
 12
0.0
 22
0.0
 32
0.0
 14
0.0
 24
0.0
 34
0.0
 15
0.0
 25
0.0
 35
0.0
146
0.0
 13
0.0
 23
0.0
 33
0.0
 16
1.0
 26
0.0
 36
0.0
 17
0.0
 27
1.0
 37
0.0
 76
     0
330
23
  0
LAYOUT
  5
22
102
{ACAD_REACTORS
330
1A
102
}
330
1A
100
AcDbPlotSettings
  1

  2
none_device
  4
Letter_(8.50_x_11.00_Inches)
  6

 40
6.35
 41
6.35
 42
6.35000508
 43
6.35000508
 44
215.9
 45
279.4
 46
0.0
 47
0.0
 48
0.0
 49
0.0
140
0.0
141
0.0
142
1.0
143
1.0
 70
  1712
 72
     0
 73
     0
 74
     0
  7

 75
     0
 76
     0
 77
     2
 78
   300
147
1.0
148
0.0
149
0.0
100
AcDbLayout
  1
Model
 70
     1
 71
     0
 10
0.0
 20
0.0
 11
12.0
 21
9.0
 12
0.0
 22
0.0
 32
0.0
 14
1.000000000000000E+20
 24
1.000000000000000E+20
 34
1.000000000000000E+20
 15
-1.000000000000000E+20
 25
-1.000000000000000E+20
 35
-1.000000000000000E+20
146
0.0
 13
0.0
 23
0.0
 33
0.0
 16
1.0
 26
0.0
 36
0.0
 17
0.0
 27
1.0
 37
0.0
 76
     0
330
1F
331
29
  0
MATERIAL
  5
45
102
{ACAD_REACTORS
330
43
102
}
330
43
100
AcDbMaterial
  1
ByBlock
 72
     1
 94
      127
  0
MATERIAL
  5
44
102
{ACAD_REACTORS
330
43
102
}
330
43
100
AcDbMaterial
  1
ByLayer
 72
     1
 94
      127
  0
MATERIAL
  5
46
102
{ACAD_REACTORS
330
43
102
}
330
43
100
AcDbMaterial
  1
Global
 72
     1
 94
      127
  0
MLEADERSTYLE
  5
6C
102
{ACAD_REACTORS
330
6B
102
}
330
6B
100
AcDbMLeaderStyle
179
     2
170
     2
171
     1
172
     0
 90
        2
 40
0.0
 41
0.0
173
     1
 91
-1056964608
340
14
 92
       -2
290
     1
 42
0.09
291
     1
 43
0.36
  3
Standard
341
0
 44
0.18
300

342
11
174
     1
178
     6
175
     1
176
     0
 93
-1056964608
 45
0.18
292
     0
297
     0
 46
0.18
343
0
 94
-1056964608
 47
1.0
 49
1.0
140
1.0
293
     1
141
0.0
294
     1
177
     0
142
1.0
295
     0
296
     0
143
0.125
271
     0
272
     9
273
     9
298
     0
  0
MLINESTYLE
  5
18
102
{ACAD_REACTORS
330
17
102
}
330
17
100
AcDbMlineStyle
  2
Standard
 70
     0
  3

 62
   256
 51
90.0
 52
90.0
 71
     2
 49
0.5
 62
   256
  6
BYLAYER
 49
-0.5
 62
   256
  6
BYLAYER
  0
ACDBPLACEHOLDER
  5
F
102
{ACAD_REACTORS
330
E
102
}
330
E
  0
SCALE
  5
48
102
{ACAD_REACTORS
330
47
102
}
330
47
100
AcDbScale
 70
     0
300
1:1
140
1.0
141
1.0
290
     1
  0
SCALE
  5
49
102
{ACAD_REACTORS
330
47
102
}
330
47
100
AcDbScale
 70
     0
300
1:2
140
1.0
141
2.0
290
     0
  0
SCALE
  5
4A
102
{ACAD_REACTORS
330
47
102
}
330
47
100
AcDbScale
 70
     0
300
1:4
140
1.0
141
4.0
290
     0
  0
SCALE
  5
4B
102
{ACAD_REACTORS
330
47
102
}
330
47
100
AcDbScale
 70
     0
300
1:5
140
1.0
141
5.0
290
     0
  0
SCALE
  5
4C
102
{ACAD_REACTORS
330
47
102
}
330
47
100
AcDbScale
 70
     0
300
1:8
140
1.0
141
8.0
290
     0
  0
SCALE
  5
4D
102
{ACAD_REACTORS
330
47
102
}
330
47
100
AcDbScale
 70
     0
300
1:10
140
1.0
141
10.0
290
     0
  0
SCALE
  5
4E
102
{ACAD_REACTORS
330
47
102
}
330
47
100
AcDbScale
 70
     0
300
1:16
140
1.0
141
16.0
290
     0
  0
SCALE
  5
4F
102
{ACAD_REACTORS
330
47
102
}
330
47
100
AcDbScale
 70
     0
300
1:20
140
1.0
141
20.0
290
     0
  0
SCALE
  5
50
102
{ACAD_REACTORS
330
47
102
}
330
47
100
AcDbScale
 70
     0
300
1:30
140
1.0
141
30.0
290
     0
  0
SCALE
  5
51
102
{ACAD_REACTORS
330
47
102
}
330
47
100
AcDbScale
 70
     0
300
1:40
140
1.0
141
40.0
290
     0
  0
SCALE
  5
52
102
{ACAD_REACTORS
330
47
102
}
330
47
100
AcDbScale
 70
     0
300
1:50
140
1.0
141
50.0
290
     0
  0
SCALE
  5
53
102
{ACAD_REACTORS
330
47
102
}
330
47
100
AcDbScale
 70
     0
300
1:100
140
1.0
141
100.0
290
     0
  0
SCALE
  5
54
102
{ACAD_REACTORS
330
47
102
}
330
47
100
AcDbScale
 70
     0
300
2:1
140
2.0
141
1.0
290
     0
  0
SCALE
  5
55
102
{ACAD_REACTORS
330
47
102
}
330
47
100
AcDbScale
 70
     0
300
4:1
140
4.0
141
1.0
290
     0
  0
SCALE
  5
56
102
{ACAD_REACTORS
330
47
102
}
330
47
100
AcDbScale
 70
     0
300
8:1
140
8.0
141
1.0
290
     0
  0
SCALE
  5
57
102
{ACAD_REACTORS
330
47
102
}
330
47
100
AcDbScale
 70
     0
300
10:1
140
10.0
141
1.0
290
     0
  0
SCALE
  5
58
102
{ACAD_REACTORS
330
47
102
}
330
47
100
AcDbScale
 70
     0
300
100:1
140
100.0
141
1.0
290
     0
  0
SCALE
  5
59
102
{ACAD_REACTORS
330
47
102
}
330
47
100
AcDbScale
 70
     0
300
1/128" = 1'-0"
140
0.0078125
141
12.0
290
     0
  0
SCALE
  5
5A
102
{ACAD_REACTORS
330
47
102
}
330
47
100
AcDbScale
 70
     0
300
1/64" = 1'-0"
140
0.015625
141
12.0
290
     0
  0
SCALE
  5
5B
102
{ACAD_REACTORS
330
47
102
}
330
47
100
AcDbScale
 70
     0
300
1/32" = 1'-0"
140
0.03125
141
12.0
290
     0
  0
SCALE
  5
5C
102
{ACAD_REACTORS
330
47
102
}
330
47
100
AcDbScale
 70
     0
300
1/16" = 1'-0"
140
0.0625
141
12.0
290
     0
  0
SCALE
  5
5D
102
{ACAD_REACTORS
330
47
102
}
330
47
100
AcDbScale
 70
     0
300
3/32" = 1'-0"
140
0.09375
141
12.0
290
     0
  0
SCALE
  5
5E
102
{ACAD_REACTORS
330
47
102
}
330
47
100
AcDbScale
 70
     0
300
1/8" = 1'-0"
140
0.125
141
12.0
290
     0
  0
SCALE
  5
5F
102
{ACAD_REACTORS
330
47
102
}
330
47
100
AcDbScale
 70
     0
300
3/16" = 1'-0"
140
0.1875
141
12.0
290
     0
  0
SCALE
  5
60
102
{ACAD_REACTORS
330
47
102
}
330
47
100
AcDbScale
 70
     0
300
1/4" = 1'-0"
140
0.25
141
12.0
290
     0
  0
SCALE
  5
61
102
{ACAD_REACTORS
330
47
102
}
330
47
100
AcDbScale
 70
     0
300
3/8" = 1'-0"
140
0.375
141
12.0
290
     0
  0
SCALE
  5
62
102
{ACAD_REACTORS
330
47
102
}
330
47
100
AcDbScale
 70
     0
300
1/2" = 1'-0"
140
0.5
141
12.0
290
     0
  0
SCALE
  5
63
102
{ACAD_REACTORS
330
47
102
}
330
47
100
AcDbScale
 70
     0
300
3/4" = 1'-0"
140
0.75
141
12.0
290
     0
  0
SCALE
  5
64
102
{ACAD_REACTORS
330
47
102
}
330
47
100
AcDbScale
 70
     0
300
1" = 1'-0"
140
1.0
141
12.0
290
     0
  0
SCALE
  5
65
102
{ACAD_REACTORS
330
47
102
}
330
47
100
AcDbScale
 70
     0
300
1-1/2" = 1'-0"
140
1.5
141
12.0
290
     0
  0
SCALE
  5
66
102
{ACAD_REACTORS
330
47
102
}
330
47
100
AcDbScale
 70
     0
300
3" = 1'-0"
140
3.0
141
12.0
290
     0
  0
SCALE
  5
67
102
{ACAD_REACTORS
330
47
102
}
330
47
100
AcDbScale
 70
     0
300
6" = 1'-0"
140
6.0
141
12.0
290
     0
  0
SCALE
  5
68
102
{ACAD_REACTORS
330
47
102
}
330
47
100
AcDbScale
 70
     0
300
1'-0" = 1'-0"
140
12.0
141
12.0
290
     0
  0
TABLESTYLE
  5
6A
102
{ACAD_REACTORS
330
69
102
}
102
{ACAD_XDICTIONARY
360
2F9
102
}
330
69
100
AcDbTableStyle
  3
Standard
 70
     0
 71
     0
 40
0.06
 41
0.06
280
     0
281
     0
  7
Standard
140
0.18
170
     2
 62
     0
 63
   257
283
     0
 90
        4
 91
        0
  1

274
    -2
284
     1
 64
     0
275
    -2
285
     1
 65
     0
276
    -2
286
     1
 66
     0
277
    -2
287
     1
 67
     0
278
    -2
288
     1
 68
     0
279
    -2
289
     1
 69
     0
  7
Standard
140
0.25
170
     5
 62
     0
 63
   257
283
     0
 90
        4
 91
        0
  1

274
    -2
284
     1
 64
     0
275
    -2
285
     1
 65
     0
276
    -2
286
     1
 66
     0
277
    -2
287
     1
 67
     0
278
    -2
288
     1
 68
     0
279
    -2
289
     1
 69
     0
  7
Standard
140
0.18
170
     5
 62
     0
 63
   257
283
     0
 90
        4
 91
        0
  1

274
    -2
284
     1
 64
     0
275
    -2
285
     1
 65
     0
276
    -2
286
     1
 66
     0
277
    -2
287
     1
 67
     0
278
    -2
288
     1
 68
     0
279
    -2
289
     1
 69
     0
  0
VISUALSTYLE
  5
2F
102
{ACAD_REACTORS
330
2A
102
}
330
2A
100
AcDbVisualStyle
  2
2dWireframe
 70
     4
177
     3
291
     0
 70
    58
 90
        0
176
     1
 90
        2
176
     1
 90
        0
176
     1
 90
        0
176
     1
 40
0.6
176
     1
 40
30.0
176
     1
 62
     7
420
 16777215
176
     1
 90
        1
176
     1
 90
        4
176
     1
 62
     7
176
     1
 62
   257
176
     1
 90
        1
176
     1
 90
        1
176
     1
 40
1.0
176
     1
 90
        0
176
     1
 62
   257
176
     1
 40
1.0
176
     1
 90
        1
176
     1
 90
        6
176
     1
 90
        2
176
     1
 62
     7
176
     1
 90
        5
176
     1
 90
        0
176
     1
 90
        0
176
     1
290
     0
176
     1
 90
        1
176
     1
 40
0.0
176
     1
 90
        0
176
     1
290
     1
176
     1
290
     1
176
     1
290
     0
176
     1
290
     0
176
     1
290
     0
176
     1
290
     0
176
     1
290
     0
176
     1
290
     0
176
     1
290
     0
176
     1
 90
       50
176
     1
 40
0.0
176
     1
 40
1.0
176
     1
 90
        0
176
     1
 62
    18
420
        0
176
     1
 90
       50
176
     1
 90
        3
176
     1
 62
     5
420
      255
176
     1
290
     0
176
     1
 90
       50
176
     1
 90
       50
176
     1
 90
       50
176
     1
290
     0
176
     1
 90
       50
176
     1
 62
   256
176
     0
 40
1.0
176
     0
 90
        2
176
     1
  1
strokes_ogs.tif
176
     1
290
     0
176
     1
 40
1.0
176
     1
 40
1.0
176
     1
  0
VISUALSTYLE
  5
32
102
{ACAD_REACTORS
330
2A
102
}
330
2A
100
AcDbVisualStyle
  2
Basic
 70
     7
177
     3
291
     1
 70
    58
 90
        1
176
     1
 90
        0
176
     1
 90
        1
176
     1
 90
        0
176
     1
 40
0.6
176
     1
 40
30.0
176
     1
 62
     7
420
 16777215
176
     1
 90
        0
176
     1
 90
        4
176
     1
 62
     7
176
     1
 62
   257
176
     1
 90
        1
176
     1
 90
        1
176
     1
 40
1.0
176
     1
 90
        8
176
     1
 62
     7
176
     1
 40
1.0
176
     1
 90
        1
176
     1
 90
        6
176
     1
 90
        2
176
     1
 62
     7
176
     1
 90
        5
176
     1
 90
        0
176
     1
 90
        0
176
     1
290
     0
176
     1
 90
        1
176
     1
 40
0.0
176
     1
 90
        0
176
     1
290
     0
176
     1
290
     1
176
     1
290
     1
176
     1
290
     0
176
     1
290
     0
176
     1
290
     0
176
     1
290
     0
176
     1
290
     0
176
     1
290
     0
176
     1
 90
       50
176
     1
 40
0.0
176
     1
 40
1.0
176
     1
 90
        0
176
     1
 62
    18
420
        0
176
     1
 90
       50
176
     1
 90
        3
176
     1
 62
     5
420
      255
176
     1
290
     0
176
     1
 90
       50
176
     1
 90
       50
176
     1
 90
       50
176
     1
290
     0
176
     1
 90
       50
176
     1
 62
   256
176
     0
 40
1.0
176
     0
 90
        2
176
     1
  1
strokes_ogs.tif
176
     1
290
     0
176
     1
 40
1.0
176
     1
 40
1.0
176
     1
  0
VISUALSTYLE
  5
36
102
{ACAD_REACTORS
330
2A
102
}
330
2A
100
AcDbVisualStyle
  2
Brighten
 70
    12
177
     3
291
     1
 70
    58
 90
        2
176
     1
 90
        2
176
     1
 90
        0
176
     1
 90
        0
176
     1
 40
0.6
176
     1
 40
30.0
176
     1
 62
     7
420
 16777215
176
     1
 90
        1
176
     1
 90
        4
176
     1
 62
     7
176
     1
 62
   257
176
     1
 90
        1
176
     1
 90
        1
176
     1
 40
1.0
176
     1
 90
        8
176
     1
 62
     7
176
     1
 40
1.0
176
     1
 90
        1
176
     1
 90
        6
176
     1
 90
        2
176
     1
 62
     7
176
     1
 90
        5
176
     1
 90
        0
176
     1
 90
        0
176
     1
290
     0
176
     1
 90
        1
176
     1
 40
50.0
176
     1
 90
        0
176
     1
290
     0
176
     1
290
     1
176
     1
290
     1
176
     1
290
     0
176
     1
290
     0
176
     1
290
     0
176
     1
290
     0
176
     1
290
     0
176
     1
290
     0
176
     1
 90
       50
176
     1
 40
0.0
176
     1
 40
1.0
176
     1
 90
        0
176
     1
 62
    18
420
        0
176
     1
 90
       50
176
     1
 90
        3
176
     1
 62
     5
420
      255
176
     1
290
     0
176
     1
 90
       50
176
     1
 90
       50
176
     1
 90
       50
176
     1
290
     0
176
     1
 90
       50
176
     1
 62
   256
176
     0
 40
1.0
176
     0
 90
        2
176
     1
  1
strokes_ogs.tif
176
     1
290
     0
176
     1
 40
1.0
176
     1
 40
1.0
176
     1
  0
VISUALSTYLE
  5
3A
102
{ACAD_REACTORS
330
2A
102
}
330
2A
100
AcDbVisualStyle
  2
ColorChange
 70
    16
177
     3
291
     1
 70
    58
 90
        2
176
     1
 90
        2
176
     1
 90
        3
176
     1
 90
        0
176
     1
 40
0.6
176
     1
 40
30.0
176
     1
 62
     8
420
  8421504
176
     1
 90
        1
176
     1
 90
        4
176
     1
 62
     7
176
     1
 62
   257
176
     1
 90
        1
176
     1
 90
        1
176
     1
 40
1.0
176
     1
 90
        8
176
     1
 62
     8
420
  8421504
176
     1
 40
1.0
176
     1
 90
        1
176
     1
 90
        6
176
     1
 90
        2
176
     1
 62
     7
176
     1
 90
        5
176
     1
 90
        0
176
     1
 90
        0
176
     1
290
     0
176
     1
 90
        1
176
     1
 40
0.0
176
     1
 90
        0
176
     1
290
     0
176
     1
290
     1
176
     1
290
     1
176
     1
290
     0
176
     1
290
     0
176
     1
290
     0
176
     1
290
     0
176
     1
290
     0
176
     1
290
     0
176
     1
 90
       50
176
     1
 40
0.0
176
     1
 40
1.0
176
     1
 90
        0
176
     1
 62
    18
420
        0
176
     1
 90
       50
176
     1
 90
        3
176
     1
 62
     5
420
      255
176
     1
290
     0
176
     1
 90
       50
176
     1
 90
       50
176
     1
 90
       50
176
     1
290
     0
176
     1
 90
       50
176
     1
 62
   256
176
     0
 40
1.0
176
     0
 90
        2
176
     1
  1
strokes_ogs.tif
176
     1
290
     0
176
     1
 40
1.0
176
     1
 40
1.0
176
     1
  0
VISUALSTYLE
  5
34
102
{ACAD_REACTORS
330
2A
102
}
330
2A
100
AcDbVisualStyle
  2
Conceptual
 70
     9
177
     3
291
     0
 70
    58
 90
        3
176
     1
 90
        2
176
     1
 90
        0
176
     1
 90
        0
176
     1
 40
0.6
176
     1
 40
30.0
176
     1
 62
     7
420
 16777215
176
     1
 90
        2
176
     1
 90
        2
176
     1
 62
     7
176
     1
 62
   257
176
     1
 90
        1
176
     1
 90
        1
176
     1
 40
179.0
176
     1
 90
        8
176
     1
 62
     7
176
     1
 40
1.0
176
     1
 90
        1
176
     1
 90
        6
176
     1
 90
        2
176
     1
 62
     7
176
     1
 90
        3
176
     1
 90
        0
176
     1
 90
        0
176
     1
290
     0
176
     1
 90
        1
176
     1
 40
0.0
176
     1
 90
        0
176
     1
290
     0
176
     1
290
     1
176
     1
290
     1
176
     1
290
     0
176
     1
290
     0
176
     1
290
     0
176
     1
290
     0
176
     1
290
     0
176
     1
290
     0
176
     1
 90
       50
176
     1
 40
0.0
176
     1
 40
1.0
176
     1
 90
        0
176
     1
 62
    18
420
        0
176
     1
 90
       50
176
     1
 90
        3
176
     1
 62
     5
420
      255
176
     1
290
     0
176
     1
 90
       50
176
     1
 90
       50
176
     1
 90
       50
176
     1
290
     0
176
     1
 90
       50
176
     1
 62
   256
176
     0
 40
1.0
176
     0
 90
        2
176
     1
  1
strokes_ogs.tif
176
     1
290
     0
176
     1
 40
1.0
176
     1
 40
1.0
176
     1
  0
VISUALSTYLE
  5
35
102
{ACAD_REACTORS
330
2A
102
}
330
2A
100
AcDbVisualStyle
  2
Dim
 70
    11
177
     3
291
     1
 70
    58
 90
        2
176
     1
 90
        2
176
     1
 90
        0
176
     1
 90
        0
176
     1
 40
0.6
176
     1
 40
30.0
176
     1
 62
     7
420
 16777215
176
     1
 90
        1
176
     1
 90
        4
176
     1
 62
     7
176
     1
 62
   257
176
     1
 90
        1
176
     1
 90
        1
176
     1
 40
1.0
176
     1
 90
        8
176
     1
 62
     7
176
     1
 40
1.0
176
     1
 90
        1
176
     1
 90
        6
176
     1
 90
        2
176
     1
 62
     7
176
     1
 90
        5
176
     1
 90
        0
176
     1
 90
        0
176
     1
290
     0
176
     1
 90
        1
176
     1
 40
-50.0
176
     1
 90
        0
176
     1
290
     0
176
     1
290
     1
176
     1
290
     1
176
     1
290
     0
176
     1
290
     0
176
     1
290
     0
176
     1
290
     0
176
     1
290
     0
176
     1
290
     0
176
     1
 90
       50
176
     1
 40
0.0
176
     1
 40
1.0
176
     1
 90
        0
176
     1
 62
    18
420
        0
176
     1
 90
       50
176
     1
 90
        3
176
     1
 62
     5
420
      255
176
     1
290
     0
176
     1
 90
       50
176
     1
 90
       50
176
     1
 90
       50
176
     1
290
     0
176
     1
 90
       50
176
     1
 62
   256
176
     0
 40
1.0
176
     0
 90
        2
176
     1
  1
strokes_ogs.tif
176
     1
290
     0
176
     1
 40
1.0
176
     1
 40
1.0
176
     1
  0
VISUALSTYLE
  5
3D
102
{ACAD_REACTORS
330
2A
102
}
330
2A
100
AcDbVisualStyle
  2
EdgeColorOff
 70
    22
177
     3
291
     1
 70
    58
 90
        2
176
     0
 90
        2
176
     0
 90
        0
176
     0
 90
        0
176
     0
 40
0.6
176
     0
 40
30.0
176
     0
 62
     7
420
 16777215
176
     0
 90
        1
176
     0
 90
        4
176
     0
 62
     7
176
     0
 62
   257
176
     0
 90
        1
176
     0
 90
        1
176
     0
 40
1.0
176
     0
 90
        8
176
     2
 62
     7
176
     0
 40
1.0
176
     0
 90
        1
176
     0
 90
        6
176
     0
 90
        2
176
     0
 62
     7
176
     0
 90
        5
176
     0
 90
        0
176
     0
 90
        0
176
     0
290
     0
176
     0
 90
        1
176
     0
 40
0.0
176
     0
 90
        0
176
     0
290
     0
176
     0
290
     1
176
     0
290
     1
176
     0
290
     0
176
     0
290
     0
176
     0
290
     0
176
     0
290
     0
176
     0
290
     0
176
     0
290
     0
176
     0
 90
       50
176
     0
 40
0.0
176
     0
 40
1.0
176
     0
 90
        0
176
     0
 62
    18
420
        0
176
     0
 90
       50
176
     0
 90
        3
176
     0
 62
     5
420
      255
176
     0
290
     0
176
     0
 90
       50
176
     0
 90
       50
176
     0
 90
       50
176
     0
290
     0
176
     0
 90
       50
176
     0
 62
   256
176
     0
 40
1.0
176
     0
 90
        2
176
     0
  1
strokes_ogs.tif
176
     0
290
     0
176
     0
 40
1.0
176
     0
 40
1.0
176
     0
  0
VISUALSTYLE
  5
39
102
{ACAD_REACTORS
330
2A
102
}
330
2A
100
AcDbVisualStyle
  2
Facepattern
 70
    15
177
     3
291
     1
 70
    58
 90
        2
176
     1
 90
        2
176
     1
 90
        0
176
     1
 90
        0
176
     1
 40
0.6
176
     1
 40
30.0
176
     1
 62
     7
420
 16777215
176
     1
 90
        1
176
     1
 90
        4
176
     1
 62
     7
176
     1
 62
   257
176
     1
 90
        1
176
     1
 90
        1
176
     1
 40
1.0
176
     1
 90
        8
176
     1
 62
     7
176
     1
 40
1.0
176
     1
 90
        1
176
     1
 90
        6
176
     1
 90
        2
176
     1
 62
     7
176
     1
 90
        5
176
     1
 90
        0
176
     1
 90
        0
176
     1
290
     0
176
     1
 90
        1
176
     1
 40
0.0
176
     1
 90
        0
176
     1
290
     0
176
     1
290
     1
176
     1
290
     1
176
     1
290
     0
176
     1
290
     0
176
     1
290
     0
176
     1
290
     0
176
     1
290
     0
176
     1
290
     0
176
     1
 90
       50
176
     1
 40
0.0
176
     1
 40
1.0
176
     1
 90
        0
176
     1
 62
    18
420
        0
176
     1
 90
       50
176
     1
 90
        3
176
     1
 62
     5
420
      255
176
     1
290
     0
176
     1
 90
       50
176
     1
 90
       50
176
     1
 90
       50
176
     1
290
     0
176
     1
 90
       50
176
     1
 62
   256
176
     0
 40
1.0
176
     0
 90
        2
176
     1
  1
strokes_ogs.tif
176
     1
290
     0
176
     1
 40
1.0
176
     1
 40
1.0
176
     1
  0
VISUALSTYLE
  5
2B
102
{ACAD_REACTORS
330
2A
102
}
330
2A
100
AcDbVisualStyle
  2
Flat
 70
     0
177
     3
291
     1
 70
    58
 90
        2
176
     1
 90
        1
176
     1
 90
        1
176
     1
 90
        2
176
     1
 40
0.6
176
     1
 40
30.0
176
     1
 62
     7
420
 16777215
176
     1
 90
        0
176
     1
 90
        0
176
     1
 62
     7
176
     1
 62
   257
176
     1
 90
        1
176
     1
 90
        1
176
     1
 40
1.0
176
     1
 90
        8
176
     1
 62
     7
176
     1
 40
1.0
176
     1
 90
        1
176
     1
 90
        6
176
     1
 90
        2
176
     1
 62
     7
176
     1
 90
        5
176
     1
 90
        0
176
     1
 90
        0
176
     1
290
     0
176
     1
 90
       13
176
     1
 40
0.0
176
     1
 90
        0
176
     1
290
     0
176
     1
290
     1
176
     1
290
     1
176
     1
290
     0
176
     1
290
     0
176
     1
290
     0
176
     1
290
     0
176
     1
290
     0
176
     1
290
     0
176
     1
 90
       50
176
     1
 40
0.0
176
     1
 40
1.0
176
     1
 90
        0
176
     1
 62
    18
420
        0
176
     1
 90
       50
176
     1
 90
        3
176
     1
 62
     5
420
      255
176
     1
290
     0
176
     1
 90
       50
176
     1
 90
       50
176
     1
 90
       50
176
     1
290
     0
176
     1
 90
       50
176
     1
 62
   256
176
     0
 40
1.0
176
     0
 90
        2
176
     1
  1
strokes_ogs.tif
176
     1
290
     0
176
     1
 40
1.0
176
     1
 40
1.0
176
     1
  0
VISUALSTYLE
  5
2C
102
{ACAD_REACTORS
330
2A
102
}
330
2A
100
AcDbVisualStyle
  2
FlatWithEdges
 70
     1
177
     3
291
     1
 70
    58
 90
        2
176
     1
 90
        1
176
     1
 90
        1
176
     1
 90
        2
176
     1
 40
0.6
176
     1
 40
30.0
176
     1
 62
     7
420
 16777215
176
     1
 90
        1
176
     1
 90
        0
176
     1
 62
     7
176
     1
 62
   257
176
     1
 90
        1
176
     1
 90
        1
176
     1
 40
1.0
176
     1
 90
        0
176
     1
 62
   257
176
     1
 40
1.0
176
     1
 90
        1
176
     1
 90
        6
176
     1
 90
        2
176
     1
 62
     7
176
     1
 90
        5
176
     1
 90
        0
176
     1
 90
        0
176
     1
290
     0
176
     1
 90
       13
176
     1
 40
0.0
176
     1
 90
        0
176
     1
290
     0
176
     1
290
     1
176
     1
290
     1
176
     1
290
     0
176
     1
290
     0
176
     1
290
     0
176
     1
290
     0
176
     1
290
     0
176
     1
290
     0
176
     1
 90
       50
176
     1
 40
0.0
176
     1
 40
1.0
176
     1
 90
        0
176
     1
 62
    18
420
        0
176
     1
 90
       50
176
     1
 90
        3
176
     1
 62
     5
420
      255
176
     1
290
     0
176
     1
 90
       50
176
     1
 90
       50
176
     1
 90
       50
176
     1
290
     0
176
     1
 90
       50
176
     1
 62
   256
176
     0
 40
1.0
176
     0
 90
        2
176
     1
  1
strokes_ogs.tif
176
     1
290
     0
176
     1
 40
1.0
176
     1
 40
1.0
176
     1
  0
VISUALSTYLE
  5
2D
102
{ACAD_REACTORS
330
2A
102
}
330
2A
100
AcDbVisualStyle
  2
Gouraud
 70
     2
177
     3
291
     1
 70
    58
 90
        2
176
     1
 90
        2
176
     1
 90
        1
176
     1
 90
        2
176
     1
 40
0.6
176
     1
 40
30.0
176
     1
 62
     7
420
 16777215
176
     1
 90
        0
176
     1
 90
        0
176
     1
 62
     7
176
     1
 62
   257
176
     1
 90
        1
176
     1
 90
        1
176
     1
 40
1.0
176
     1
 90
        0
176
     1
 62
     7
176
     1
 40
1.0
176
     1
 90
        1
176
     1
 90
        6
176
     1
 90
        2
176
     1
 62
     7
176
     1
 90
        5
176
     1
 90
        0
176
     1
 90
        0
176
     1
290
     0
176
     1
 90
       13
176
     1
 40
0.0
176
     1
 90
        0
176
     1
290
     0
176
     1
290
     1
176
     1
290
     1
176
     1
290
     0
176
     1
290
     0
176
     1
290
     0
176
     1
290
     0
176
     1
290
     0
176
     1
290
     0
176
     1
 90
       50
176
     1
 40
0.0
176
     1
 40
1.0
176
     1
 90
        0
176
     1
 62
    18
420
        0
176
     1
 90
       50
176
     1
 90
        3
176
     1
 62
     5
420
      255
176
     1
290
     0
176
     1
 90
       50
176
     1
 90
       50
176
     1
 90
       50
176
     1
290
     0
176
     1
 90
       50
176
     1
 62
   256
176
     0
 40
1.0
176
     0
 90
        2
176
     1
  1
strokes_ogs.tif
176
     1
290
     0
176
     1
 40
1.0
176
     1
 40
1.0
176
     1
  0
VISUALSTYLE
  5
2E
102
{ACAD_REACTORS
330
2A
102
}
330
2A
100
AcDbVisualStyle
  2
GouraudWithEdges
 70
     3
177
     3
291
     1
 70
    58
 90
        2
176
     1
 90
        2
176
     1
 90
        1
176
     1
 90
        2
176
     1
 40
0.6
176
     1
 40
30.0
176
     1
 62
     7
420
 16777215
176
     1
 90
        1
176
     1
 90
        0
176
     1
 62
     7
176
     1
 62
   257
176
     1
 90
        1
176
     1
 90
        1
176
     1
 40
1.0
176
     1
 90
        0
176
     1
 62
   257
176
     1
 40
1.0
176
     1
 90
        1
176
     1
 90
        6
176
     1
 90
        2
176
     1
 62
     7
176
     1
 90
        5
176
     1
 90
        0
176
     1
 90
        0
176
     1
290
     0
176
     1
 90
       13
176
     1
 40
0.0
176
     1
 90
        0
176
     1
290
     0
176
     1
290
     1
176
     1
290
     1
176
     1
290
     0
176
     1
290
     0
176
     1
290
     0
176
     1
290
     0
176
     1
290
     0
176
     1
290
     0
176
     1
 90
       50
176
     1
 40
0.0
176
     1
 40
1.0
176
     1
 90
        0
176
     1
 62
    18
420
        0
176
     1
 90
       50
176
     1
 90
        3
176
     1
 62
     5
420
      255
176
     1
290
     0
176
     1
 90
       50
176
     1
 90
       50
176
     1
 90
       50
176
     1
290
     0
176
     1
 90
       50
176
     1
 62
   256
176
     0
 40
1.0
176
     0
 90
        2
176
     1
  1
strokes_ogs.tif
176
     1
290
     0
176
     1
 40
1.0
176
     1
 40
1.0
176
     1
  0
VISUALSTYLE
  5
31
102
{ACAD_REACTORS
330
2A
102
}
330
2A
100
AcDbVisualStyle
  2
Hidden
 70
     6
177
     3
291
     0
 70
    58
 90
        1
176
     1
 90
        2
176
     1
 90
        2
176
     1
 90
        0
176
     1
 40
0.6
176
     1
 40
30.0
176
     1
 62
     7
420
 16777215
176
     1
 90
        2
176
     1
 90
        2
176
     1
 62
     7
176
     1
 62
   257
176
     1
 90
        2
176
     1
 90
        1
176
     1
 40
40.0
176
     1
 90
        0
176
     1
 62
   257
176
     1
 40
1.0
176
     1
 90
        1
176
     1
 90
        6
176
     1
 90
        2
176
     1
 62
     7
176
     1
 90
        3
176
     1
 90
        0
176
     1
 90
        0
176
     1
290
     0
176
     1
 90
        1
176
     1
 40
0.0
176
     1
 90
        0
176
     1
290
     0
176
     1
290
     1
176
     1
290
     1
176
     1
290
     0
176
     1
290
     0
176
     1
290
     0
176
     1
290
     0
176
     1
290
     0
176
     1
290
     0
176
     1
 90
       50
176
     1
 40
0.0
176
     1
 40
1.0
176
     1
 90
        0
176
     1
 62
    18
420
        0
176
     1
 90
       50
176
     1
 90
        3
176
     1
 62
     5
420
      255
176
     1
290
     0
176
     1
 90
       50
176
     1
 90
       50
176
     1
 90
       50
176
     1
290
     0
176
     1
 90
       50
176
     1
 62
   256
176
     0
 40
1.0
176
     0
 90
        2
176
     1
  1
strokes_ogs.tif
176
     1
290
     0
176
     1
 40
1.0
176
     1
 40
1.0
176
     1
  0
VISUALSTYLE
  5
3B
102
{ACAD_REACTORS
330
2A
102
}
330
2A
100
AcDbVisualStyle
  2
JitterOff
 70
    20
177
     3
291
     1
 70
    58
 90
        2
176
     0
 90
        2
176
     0
 90
        0
176
     0
 90
        0
176
     0
 40
0.6
176
     0
 40
30.0
176
     0
 62
     7
420
 16777215
176
     0
 90
        1
176
     0
 90
        4
176
     0
 62
     7
176
     0
 62
   257
176
     0
 90
        1
176
     0
 90
        1
176
     0
 40
1.0
176
     0
 90
       10
176
     2
 62
     7
176
     0
 40
1.0
176
     0
 90
        1
176
     0
 90
        6
176
     0
 90
        2
176
     0
 62
     7
176
     0
 90
        5
176
     0
 90
        0
176
     0
 90
        0
176
     0
290
     0
176
     0
 90
        1
176
     0
 40
0.0
176
     0
 90
        0
176
     0
290
     0
176
     0
290
     1
176
     0
290
     1
176
     0
290
     0
176
     0
290
     0
176
     0
290
     0
176
     0
290
     0
176
     0
290
     0
176
     0
290
     0
176
     0
 90
       50
176
     0
 40
0.0
176
     0
 40
1.0
176
     0
 90
        0
176
     0
 62
    18
420
        0
176
     0
 90
       50
176
     0
 90
        3
176
     0
 62
     5
420
      255
176
     0
290
     0
176
     0
 90
       50
176
     0
 90
       50
176
     0
 90
       50
176
     0
290
     0
176
     0
 90
       50
176
     0
 62
   256
176
     0
 40
1.0
176
     0
 90
        2
176
     0
  1
strokes_ogs.tif
176
     0
290
     0
176
     0
 40
1.0
176
     0
 40
1.0
176
     0
  0
VISUALSTYLE
  5
38
102
{ACAD_REACTORS
330
2A
102
}
330
2A
100
AcDbVisualStyle
  2
Linepattern
 70
    14
177
     3
291
     1
 70
    58
 90
        2
176
     1
 90
        2
176
     1
 90
        0
176
     1
 90
        0
176
     1
 40
0.6
176
     1
 40
30.0
176
     1
 62
     7
420
 16777215
176
     1
 90
        1
176
     1
 90
        4
176
     1
 62
     7
176
     1
 62
   257
176
     1
 90
        7
176
     1
 90
        7
176
     1
 40
1.0
176
     1
 90
        8
176
     1
 62
     7
176
     1
 40
1.0
176
     1
 90
        1
176
     1
 90
        6
176
     1
 90
        2
176
     1
 62
     7
176
     1
 90
        5
176
     1
 90
        0
176
     1
 90
        0
176
     1
290
     0
176
     1
 90
        1
176
     1
 40
0.0
176
     1
 90
        0
176
     1
290
     0
176
     1
290
     1
176
     1
290
     1
176
     1
290
     0
176
     1
290
     0
176
     1
290
     0
176
     1
290
     0
176
     1
290
     0
176
     1
290
     0
176
     1
 90
       50
176
     1
 40
0.0
176
     1
 40
1.0
176
     1
 90
        0
176
     1
 62
    18
420
        0
176
     1
 90
       50
176
     1
 90
        3
176
     1
 62
     5
420
      255
176
     1
290
     0
176
     1
 90
       50
176
     1
 90
       50
176
     1
 90
       50
176
     1
290
     0
176
     1
 90
       50
176
     1
 62
   256
176
     0
 40
1.0
176
     0
 90
        2
176
     1
  1
strokes_ogs.tif
176
     1
290
     0
176
     1
 40
1.0
176
     1
 40
1.0
176
     1
  0
VISUALSTYLE
  5
3C
102
{ACAD_REACTORS
330
2A
102
}
330
2A
100
AcDbVisualStyle
  2
OverhangOff
 70
    21
177
     3
291
     1
 70
    58
 90
        2
176
     0
 90
        2
176
     0
 90
        0
176
     0
 90
        0
176
     0
 40
0.6
176
     0
 40
30.0
176
     0
 62
     7
420
 16777215
176
     0
 90
        1
176
     0
 90
        4
176
     0
 62
     7
176
     0
 62
   257
176
     0
 90
        1
176
     0
 90
        1
176
     0
 40
1.0
176
     0
 90
        9
176
     2
 62
     7
176
     0
 40
1.0
176
     0
 90
        1
176
     0
 90
        6
176
     0
 90
        2
176
     0
 62
     7
176
     0
 90
        5
176
     0
 90
        0
176
     0
 90
        0
176
     0
290
     0
176
     0
 90
        1
176
     0
 40
0.0
176
     0
 90
        0
176
     0
290
     0
176
     0
290
     1
176
     0
290
     1
176
     0
290
     0
176
     0
290
     0
176
     0
290
     0
176
     0
290
     0
176
     0
290
     0
176
     0
290
     0
176
     0
 90
       50
176
     0
 40
0.0
176
     0
 40
1.0
176
     0
 90
        0
176
     0
 62
    18
420
        0
176
     0
 90
       50
176
     0
 90
        3
176
     0
 62
     5
420
      255
176
     0
290
     0
176
     0
 90
       50
176
     0
 90
       50
176
     0
 90
       50
176
     0
290
     0
176
     0
 90
       50
176
     0
 62
   256
176
     0
 40
1.0
176
     0
 90
        2
176
     0
  1
strokes_ogs.tif
176
     0
290
     0
176
     0
 40
1.0
176
     0
 40
1.0
176
     0
  0
VISUALSTYLE
  5
33
102
{ACAD_REACTORS
330
2A
102
}
330
2A
100
AcDbVisualStyle
  2
Realistic
 70
     8
177
     3
291
     0
 70
    58
 90
        2
176
     1
 90
        3
176
     1
 90
        0
176
     1
 90
        2
176
     1
 40
0.6
176
     1
 40
30.0
176
     1
 62
     7
420
 16777215
176
     1
 90
        0
176
     1
 90
        0
176
     1
 62
     7
176
     1
 62
   257
176
     1
 90
        1
176
     1
 90
        1
176
     1
 40
1.0
176
     1
 90
        8
176
     1
 62
   257
176
     1
 40
1.0
176
     1
 90
        1
176
     1
 90
        6
176
     1
 90
        2
176
     1
 62
     7
176
     1
 90
        3
176
     1
 90
        0
176
     1
 90
        0
176
     1
290
     0
176
     1
 90
       13
176
     1
 40
0.0
176
     1
 90
        0
176
     1
290
     0
176
     1
290
     1
176
     1
290
     1
176
     1
290
     0
176
     1
290
     0
176
     1
290
     0
176
     1
290
     0
176
     1
290
     0
176
     1
290
     0
176
     1
 90
       50
176
     1
 40
0.0
176
     1
 40
1.0
176
     1
 90
        0
176
     1
 62
    18
420
        0
176
     1
 90
       50
176
     1
 90
        3
176
     1
 62
     5
420
      255
176
     1
290
     0
176
     1
 90
       50
176
     1
 90
       50
176
     1
 90
       50
176
     1
290
     0
176
     1
 90
       50
176
     1
 62
   256
176
     0
 40
1.0
176
     0
 90
        2
176
     1
  1
strokes_ogs.tif
176
     1
290
     0
176
     1
 40
1.0
176
     1
 40
1.0
176
     1
  0
VISUALSTYLE
  5
42
102
{ACAD_REACTORS
330
2A
102
}
330
2A
100
AcDbVisualStyle
  2
Shaded
 70
    27
177
     3
291
     0
 70
    58
 90
        2
176
     1
 90
        2
176
     1
 90
        1
176
     1
 90
        2
176
     1
 40
0.6
176
     1
 40
30.0
176
     1
 62
     7
420
 16777215
176
     1
 90
        0
176
     1
 90
        4
176
     1
 62
     7
176
     1
 62
   257
176
     1
 90
        1
176
     1
 90
        1
176
     1
 40
1.0
176
     1
 90
        8
176
     1
 62
   257
176
     1
 40
1.0
176
     1
 90
        1
176
     1
 90
        6
176
     1
 90
        2
176
     1
 62
     8
420
  7895160
176
     1
 90
        3
176
     1
 90
        0
176
     1
 90
        0
176
     1
290
     0
176
     1
 90
        5
176
     1
 40
0.0
176
     1
 90
        0
176
     1
290
     0
176
     1
290
     1
176
     1
290
     1
176
     1
290
     0
176
     1
290
     0
176
     1
290
     0
176
     1
290
     0
176
     1
290
     0
176
     1
290
     0
176
     1
 90
       50
176
     1
 40
0.0
176
     1
 40
1.0
176
     1
 90
        0
176
     1
 62
    18
420
        0
176
     1
 90
       50
176
     1
 90
        3
176
     1
 62
     5
420
      255
176
     1
290
     0
176
     1
 90
       50
176
     1
 90
       50
176
     1
 90
       50
176
     1
290
     0
176
     1
 90
       50
176
     1
 62
   256
176
     0
 40
1.0
176
     0
 90
        2
176
     1
  1
strokes_ogs.tif
176
     1
290
     0
176
     1
 40
1.0
176
     1
 40
1.0
176
     1
  0
VISUALSTYLE
  5
41
102
{ACAD_REACTORS
330
2A
102
}
330
2A
100
AcDbVisualStyle
  2
Shaded with edges
 70
    26
177
     3
291
     0
 70
    58
 90
        2
176
     1
 90
        2
176
     1
 90
        1
176
     1
 90
        2
176
     1
 40
0.6
176
     1
 40
30.0
176
     1
 62
     7
420
 16777215
176
     1
 90
        1
176
     1
 90
       10
176
     1
 62
     7
176
     1
 62
   257
176
     1
 90
        2
176
     1
 90
        1
176
     1
 40
1.0
176
     1
 90
        8
176
     1
 62
   257
176
     1
 40
1.0
176
     1
 90
        1
176
     1
 90
        6
176
     1
 90
        2
176
     1
 62
     7
176
     1
 90
        3
176
     1
 90
        0
176
     1
 90
        0
176
     1
290
     0
176
     1
 90
        5
176
     1
 40
0.0
176
     1
 90
        0
176
     1
290
     0
176
     1
290
     1
176
     1
290
     1
176
     1
290
     0
176
     1
290
     0
176
     1
290
     0
176
     1
290
     0
176
     1
290
     0
176
     1
290
     0
176
     1
 90
       50
176
     1
 40
0.0
176
     1
 40
1.0
176
     1
 90
        0
176
     1
 62
    18
420
        0
176
     1
 90
       50
176
     1
 90
        3
176
     1
 62
     5
420
      255
176
     1
290
     0
176
     1
 90
       50
176
     1
 90
       50
176
     1
 90
       50
176
     1
290
     0
176
     1
 90
       50
176
     1
 62
   256
176
     0
 40
1.0
176
     0
 90
        2
176
     1
  1
strokes_ogs.tif
176
     1
290
     0
176
     1
 40
1.0
176
     1
 40
1.0
176
     1
  0
VISUALSTYLE
  5
3E
102
{ACAD_REACTORS
330
2A
102
}
330
2A
100
AcDbVisualStyle
  2
Shades of Gray
 70
    23
177
     3
291
     0
 70
    58
 90
        2
176
     1
 90
        2
176
     1
 90
        3
176
     1
 90
        0
176
     1
 40
0.6
176
     1
 40
30.0
176
     1
 62
     7
420
 16777215
176
     1
 90
        2
176
     1
 90
        2
176
     1
 62
     7
176
     1
 62
     7
176
     1
 90
        1
176
     1
 90
        1
176
     1
 40
40.0
176
     1
 90
        8
176
     1
 62
     7
176
     1
 40
1.0
176
     1
 90
        1
176
     1
 90
        6
176
     1
 90
        2
176
     1
 62
     7
176
     1
 90
        3
176
     1
 90
        0
176
     1
 90
        0
176
     1
290
     0
176
     1
 90
        1
176
     1
 40
0.0
176
     1
 90
        0
176
     1
290
     0
176
     1
290
     1
176
     1
290
     1
176
     1
290
     0
176
     1
290
     0
176
     1
290
     0
176
     1
290
     0
176
     1
290
     0
176
     1
290
     0
176
     1
 90
       50
176
     1
 40
0.0
176
     1
 40
1.0
176
     1
 90
        0
176
     1
 62
    18
420
        0
176
     1
 90
       50
176
     1
 90
        3
176
     1
 62
     5
420
      255
176
     1
290
     0
176
     1
 90
       50
176
     1
 90
       50
176
     1
 90
       50
176
     1
290
     0
176
     1
 90
       50
176
     1
 62
   256
176
     0
 40
1.0
176
     0
 90
        2
176
     1
  1
strokes_ogs.tif
176
     1
290
     0
176
     1
 40
1.0
176
     1
 40
1.0
176
     1
  0
VISUALSTYLE
  5
3F
102
{ACAD_REACTORS
330
2A
102
}
330
2A
100
AcDbVisualStyle
  2
Sketchy
 70
    24
177
     3
291
     0
 70
    58
 90
        1
176
     1
 90
        2
176
     1
 90
        2
176
     1
 90
        0
176
     1
 40
0.6
176
     1
 40
30.0
176
     1
 62
     7
420
 16777215
176
     1
 90
        2
176
     1
 90
        2
176
     1
 62
     7
176
     1
 62
     7
176
     1
 90
        1
176
     1
 90
        1
176
     1
 40
40.0
176
     1
 90
       11
176
     1
 62
     7
176
     1
 40
1.0
176
     1
 90
        1
176
     1
 90
        6
176
     1
 90
        2
176
     1
 62
     7
176
     1
 90
        6
176
     1
 90
        0
176
     1
 90
        0
176
     1
290
     0
176
     1
 90
        1
176
     1
 40
0.0
176
     1
 90
        0
176
     1
290
     0
176
     1
290
     1
176
     1
290
     1
176
     1
290
     0
176
     1
290
     0
176
     1
290
     0
176
     1
290
     0
176
     1
290
     0
176
     1
290
     0
176
     1
 90
       50
176
     1
 40
0.0
176
     1
 40
1.0
176
     1
 90
        0
176
     1
 62
    18
420
        0
176
     1
 90
       50
176
     1
 90
        3
176
     1
 62
     5
420
      255
176
     1
290
     0
176
     1
 90
       50
176
     1
 90
       50
176
     1
 90
       50
176
     1
290
     0
176
     1
 90
       50
176
     1
 62
   256
176
     0
 40
1.0
176
     0
 90
        2
176
     1
  1
strokes_ogs.tif
176
     1
290
     0
176
     1
 40
1.0
176
     1
 40
1.0
176
     1
  0
VISUALSTYLE
  5
37
102
{ACAD_REACTORS
330
2A
102
}
330
2A
100
AcDbVisualStyle
  2
Thicken
 70
    13
177
     3
291
     1
 70
    58
 90
        2
176
     1
 90
        2
176
     1
 90
        0
176
     1
 90
        0
176
     1
 40
0.6
176
     1
 40
30.0
176
     1
 62
     7
420
 16777215
176
     1
 90
        1
176
     1
 90
        4
176
     1
 62
     7
176
     1
 62
   257
176
     1
 90
        1
176
     1
 90
        1
176
     1
 40
1.0
176
     1
 90
       12
176
     1
 62
     7
176
     1
 40
1.0
176
     1
 90
        1
176
     1
 90
        6
176
     1
 90
        2
176
     1
 62
     7
176
     1
 90
        5
176
     1
 90
        0
176
     1
 90
        0
176
     1
290
     0
176
     1
 90
        1
176
     1
 40
0.0
176
     1
 90
        0
176
     1
290
     0
176
     1
290
     1
176
     1
290
     1
176
     1
290
     0
176
     1
290
     0
176
     1
290
     0
176
     1
290
     0
176
     1
290
     0
176
     1
290
     0
176
     1
 90
       50
176
     1
 40
0.0
176
     1
 40
1.0
176
     1
 90
        0
176
     1
 62
    18
420
        0
176
     1
 90
       50
176
     1
 90
        3
176
     1
 62
     5
420
      255
176
     1
290
     0
176
     1
 90
       50
176
     1
 90
       50
176
     1
 90
       50
176
     1
290
     0
176
     1
 90
       50
176
     1
 62
   256
176
     0
 40
1.0
176
     0
 90
        2
176
     1
  1
strokes_ogs.tif
176
     1
290
     0
176
     1
 40
1.0
176
     1
 40
1.0
176
     1
  0
VISUALSTYLE
  5
30
102
{ACAD_REACTORS
330
2A
102
}
330
2A
100
AcDbVisualStyle
  2
Wireframe
 70
     5
177
     3
291
     0
 70
    58
 90
        0
176
     1
 90
        2
176
     1
 90
        0
176
     1
 90
        0
176
     1
 40
0.6
176
     1
 40
30.0
176
     1
 62
     7
420
 16777215
176
     1
 90
        1
176
     1
 90
        4
176
     1
 62
     7
176
     1
 62
   257
176
     1
 90
        1
176
     1
 90
        1
176
     1
 40
1.0
176
     1
 90
        0
176
     1
 62
   257
176
     1
 40
1.0
176
     1
 90
        1
176
     1
 90
        6
176
     1
 90
        2
176
     1
 62
     7
176
     1
 90
        3
176
     1
 90
        0
176
     1
 90
        0
176
     1
290
     0
176
     1
 90
        1
176
     1
 40
0.0
176
     1
 90
        0
176
     1
290
     0
176
     1
290
     1
176
     1
290
     1
176
     1
290
     0
176
     1
290
     0
176
     1
290
     0
176
     1
290
     0
176
     1
290
     0
176
     1
290
     0
176
     1
 90
       50
176
     1
 40
0.0
176
     1
 40
1.0
176
     1
 90
        0
176
     1
 62
    18
420
        0
176
     1
 90
       50
176
     1
 90
        3
176
     1
 62
     5
420
      255
176
     1
290
     0
176
     1
 90
       50
176
     1
 90
       50
176
     1
 90
       50
176
     1
290
     0
176
     1
 90
       50
176
     1
 62
   256
176
     0
 40
1.0
176
     0
 90
        2
176
     1
  1
strokes_ogs.tif
176
     1
290
     0
176
     1
 40
1.0
176
     1
 40
1.0
176
     1
  0
VISUALSTYLE
  5
40
102
{ACAD_REACTORS
330
2A
102
}
330
2A
100
AcDbVisualStyle
  2
X-Ray
 70
    25
177
     3
291
     0
 70
    58
 90
        2
176
     1
 90
        2
176
     1
 90
        1
176
     1
 90
        1
176
     1
 40
0.5
176
     1
 40
30.0
176
     1
 62
     7
420
 16777215
176
     1
 90
        1
176
     1
 90
        0
176
     1
 62
     7
176
     1
 62
   257
176
     1
 90
        1
176
     1
 90
        1
176
     1
 40
1.0
176
     1
 90
        8
176
     1
 62
     7
176
     1
 40
1.0
176
     1
 90
        1
176
     1
 90
        6
176
     1
 90
        2
176
     1
 62
     7
176
     1
 90
        3
176
     1
 90
        0
176
     1
 90
        0
176
     1
290
     0
176
     1
 90
       13
176
     1
 40
0.0
176
     1
 90
        0
176
     1
290
     0
176
     1
290
     1
176
     1
290
     1
176
     1
290
     0
176
     1
290
     0
176
     1
290
     0
176
     1
290
     0
176
     1
290
     0
176
     1
290
     0
176
     1
 90
       50
176
     1
 40
0.0
176
     1
 40
1.0
176
     1
 90
        0
176
     1
 62
    18
420
        0
176
     1
 90
       50
176
     1
 90
        3
176
     1
 62
     5
420
      255
176
     1
290
     0
176
     1
 90
       50
176
     1
 90
       50
176
     1
 90
       50
176
     1
290
     0
176
     1
 90
       50
176
     1
 62
   256
176
     0
 40
1.0
176
     0
 90
        2
176
     1
  1
strokes_ogs.tif
176
     1
290
     0
176
     1
 40
1.0
176
     1
 40
1.0
176
     1
  0
DICTIONARYVAR
  5
2F8
102
{ACAD_REACTORS
330
2F7
102
}
330
2F7
100
DictionaryVariables
280
     0
  1
1:1
  0
DICTIONARYVAR
  5
2FD
102
{ACAD_REACTORS
330
2F7
102
}
330
2F7
100
DictionaryVariables
280
     0
  1
Standard
  0
DICTIONARYVAR
  5
2FC
102
{ACAD_REACTORS
330
2F7
102
}
330
2F7
100
DictionaryVariables
280
     0
  1
Standard
  0
DICTIONARY
  5
2F9
330
6A
100
AcDbDictionary
280
     1
281
     1
  3
ACAD_ROUNDTRIP_2008_TABLESTYLE_CELLSTYLEMAP
360
2FA
  0
CELLSTYLEMAP
  5
2FA
102
{ACAD_REACTORS
330
2F9
102
}
330
2F9
100
AcDbCellStyleMap
 90
        3
300
CELLSTYLE
  1
TABLEFORMAT_BEGIN
 90
        5
170
     1
 91
        0
 92
    32768
 62
   257
 93
        1
300
CONTENTFORMAT
  1
CONTENTFORMAT_BEGIN
 90
        0
 91
        0
 92
        4
 93
        0
300

 40
0.0
140
1.0
 94
        5
 62
     0
340
11
144
0.25
309
CONTENTFORMAT_END
171
     1
301
MARGIN
  1
CELLMARGIN_BEGIN
 40
0.06
 40
0.06
 40
0.06
 40
0.06
 40
0.06
 40
0.06
309
CELLMARGIN_END
 94
        6
 95
        1
302
GRIDFORMAT
  1
GRIDFORMAT_BEGIN
 90
        0
 91
        1
 62
     0
 92
       -2
340
14
 93
        0
 40
0.045
309
GRIDFORMAT_END
 95
        2
302
GRIDFORMAT
  1
GRIDFORMAT_BEGIN
 90
        0
 91
        1
 62
     0
 92
       -2
340
14
 93
        0
 40
0.045
309
GRIDFORMAT_END
 95
        4
302
GRIDFORMAT
  1
GRIDFORMAT_BEGIN
 90
        0
 91
        1
 62
     0
 92
       -2
340
14
 93
        0
 40
0.045
309
GRIDFORMAT_END
 95
        8
302
GRIDFORMAT
  1
GRIDFORMAT_BEGIN
 90
        0
 91
        1
 62
     0
 92
       -2
340
14
 93
        0
 40
0.045
309
GRIDFORMAT_END
 95
       16
302
GRIDFORMAT
  1
GRIDFORMAT_BEGIN
 90
        0
 91
        1
 62
     0
 92
       -2
340
14
 93
        0
 40
0.045
309
GRIDFORMAT_END
 95
       32
302
GRIDFORMAT
  1
GRIDFORMAT_BEGIN
 90
        0
 91
        1
 62
     0
 92
       -2
340
14
 93
        0
 40
0.045
309
GRIDFORMAT_END
309
TABLEFORMAT_END
  1
CELLSTYLE_BEGIN
 90
        1
 91
        1
300
_TITLE
309
CELLSTYLE_END
300
CELLSTYLE
  1
TABLEFORMAT_BEGIN
 90
        5
170
     1
 91
        0
 92
        0
 62
   257
 93
        1
300
CONTENTFORMAT
  1
CONTENTFORMAT_BEGIN
 90
        0
 91
        0
 92
        4
 93
        0
300

 40
0.0
140
1.0
 94
        5
 62
     0
340
11
144
0.18
309
CONTENTFORMAT_END
171
     1
301
MARGIN
  1
CELLMARGIN_BEGIN
 40
0.06
 40
0.06
 40
0.06
 40
0.06
 40
0.06
 40
0.06
309
CELLMARGIN_END
 94
        6
 95
        1
302
GRIDFORMAT
  1
GRIDFORMAT_BEGIN
 90
        0
 91
        1
 62
     0
 92
       -2
340
14
 93
        0
 40
0.045
309
GRIDFORMAT_END
 95
        2
302
GRIDFORMAT
  1
GRIDFORMAT_BEGIN
 90
        0
 91
        1
 62
     0
 92
       -2
340
14
 93
        0
 40
0.045
309
GRIDFORMAT_END
 95
        4
302
GRIDFORMAT
  1
GRIDFORMAT_BEGIN
 90
        0
 91
        1
 62
     0
 92
       -2
340
14
 93
        0
 40
0.045
309
GRIDFORMAT_END
 95
        8
302
GRIDFORMAT
  1
GRIDFORMAT_BEGIN
 90
        0
 91
        1
 62
     0
 92
       -2
340
14
 93
        0
 40
0.045
309
GRIDFORMAT_END
 95
       16
302
GRIDFORMAT
  1
GRIDFORMAT_BEGIN
 90
        0
 91
        1
 62
     0
 92
       -2
340
14
 93
        0
 40
0.045
309
GRIDFORMAT_END
 95
       32
302
GRIDFORMAT
  1
GRIDFORMAT_BEGIN
 90
        0
 91
        1
 62
     0
 92
       -2
340
14
 93
        0
 40
0.045
309
GRIDFORMAT_END
309
TABLEFORMAT_END
  1
CELLSTYLE_BEGIN
 90
        2
 91
        1
300
_HEADER
309
CELLSTYLE_END
300
CELLSTYLE
  1
TABLEFORMAT_BEGIN
 90
        5
170
     1
 91
        0
 92
        0
 62
   257
 93
        1
300
CONTENTFORMAT
  1
CONTENTFORMAT_BEGIN
 90
        0
 91
        0
 92
        4
 93
        0
300

 40
0.0
140
1.0
 94
        2
 62
     0
340
11
144
0.18
309
CONTENTFORMAT_END
171
     1
301
MARGIN
  1
CELLMARGIN_BEGIN
 40
0.06
 40
0.06
 40
0.06
 40
0.06
 40
0.06
 40
0.06
309
CELLMARGIN_END
 94
        6
 95
        1
302
GRIDFORMAT
  1
GRIDFORMAT_BEGIN
 90
        0
 91
        1
 62
     0
 92
       -2
340
14
 93
        0
 40
0.045
309
GRIDFORMAT_END
 95
        2
302
GRIDFORMAT
  1
GRIDFORMAT_BEGIN
 90
        0
 91
        1
 62
     0
 92
       -2
340
14
 93
        0
 40
0.045
309
GRIDFORMAT_END
 95
        4
302
GRIDFORMAT
  1
GRIDFORMAT_BEGIN
 90
        0
 91
        1
 62
     0
 92
       -2
340
14
 93
        0
 40
0.045
309
GRIDFORMAT_END
 95
        8
302
GRIDFORMAT
  1
GRIDFORMAT_BEGIN
 90
        0
 91
        1
 62
     0
 92
       -2
340
14
 93
        0
 40
0.045
309
GRIDFORMAT_END
 95
       16
302
GRIDFORMAT
  1
GRIDFORMAT_BEGIN
 90
        0
 91
        1
 62
     0
 92
       -2
340
14
 93
        0
 40
0.045
309
GRIDFORMAT_END
 95
       32
302
GRIDFORMAT
  1
GRIDFORMAT_BEGIN
 90
        0
 91
        1
 62
     0
 92
       -2
340
14
 93
        0
 40
0.045
309
GRIDFORMAT_END
309
TABLEFORMAT_END
  1
CELLSTYLE_BEGIN
 90
        3
 91
        2
300
_DATA
309
CELLSTYLE_END
  0
ENDSEC
  0
EOF
