  0
SECTION
  2
HEADER
  9
$ACADVER
  1
AC1018
  9
$INSBASE
 10
0.0
 20
0.0
 30
0.0
  9
$EXTMIN
 10
-0.1923
 20
-0.0645
 30
0.0
  9
$EXTMAX
 10
3.9138
 20
2.2614
 30
0.0
  9
$LIMMIN
 10
-0.1923
 20
-0.0645
  9
$LIMMAX
 10
3.9138
 20
2.2614
  9
$INSUNITS
 70
     4
  9
$HANDSEED
  5
   980
  0
ENDSEC
  0
SECTION
  2
CLASSES
  0
ENDSEC
  0
SECTION
  2
TABLES
  0
TABLE
  2
VPORT
  5
1
330
0
100
AcDbSymbolTable
 70
     0
  0
ENDTAB
  0
TABLE
  2
LTYPE
  5
2
330
0
100
AcDbSymbolTable
 70
     3
  0
LTYPE
  5
3
330
2
100
AcDbSymbolTableRecord
100
AcDbLinetypeTableRecord
  2
BYLAYER
 70
     0
  3
Continuous
 72
    65
 73
     0
 40
0.0
  0
LTYPE
  5
4
330
2
100
AcDbSymbolTableRecord
100
AcDbLinetypeTableRecord
  2
BYBLOCK
 70
     0
  3
Continuous
 72
    65
 73
     0
 40
0.0
  0
LTYPE
  5
5
330
2
100
AcDbSymbolTableRecord
100
AcDbLinetypeTableRecord
  2
CONTINUOUS
 70
     0
  3
Continuous
 72
    65
 73
     0
 40
0.0
  0
ENDTAB
  0
TABLE
  2
LAYER
  5
6
330
0
100
AcDbSymbolTable
 70
     5
  0
LAYER
  5
7
330
6
100
AcDbSymbolTableRecord
100
AcDbLayerTableRecord
  2
0
 70
     0
 62
     7
  6
CONTINUOUS
370
     0
390
     0
  0
LAYER
  5
8
330
6
100
AcDbSymbolTableRecord
100
AcDbLayerTableRecord
  2
PCB_KUR_GKO
 70
     0
 62
   130
  6
CONTINUOUS
370
     0
390
     0
  0
LAYER
  5
9
330
6
100
AcDbSymbolTableRecord
100
AcDbLayerTableRecord
  2
PCB_KUR_GTP
 70
     0
 62
   254
  6
CONTINUOUS
370
     0
390
     0
  0
LAYER
  5
A
330
6
100
AcDbSymbolTableRecord
100
AcDbLayerTableRecord
  2
PCB_KUR_GTS
 70
     0
 62
   254
  6
CONTINUOUS
370
     0
390
     0
  0
LAYER
  5
B
330
6
100
AcDbSymbolTableRecord
100
AcDbLayerTableRecord
  2
PCB_KUR_TXT
 70
     0
 62
   254
  6
CONTINUOUS
370
     0
390
     0
  0
ENDTAB
  0
TABLE
  2
STYLE
  5
C
330
0
100
AcDbSymbolTable
 70
     0
  0
ENDTAB
  0
TABLE
  2
VIEW
  5
D
330
0
100
AcDbSymbolTable
 70
     0
  0
ENDTAB
  0
TABLE
  2
UCS
  5
E
330
0
100
AcDbSymbolTable
 70
     0
  0
ENDTAB
  0
TABLE
  2
APPID
  5
F
330
0
100
AcDbSymbolTable
 70
     1
  0
APPID
  5
10
330
F
100
AcDbSymbolTableRecord
100
AcDbRegAppTableRecord
  2
ACAD
 70
     0
  0
ENDTAB
  0
TABLE
  2
DIMSTYLE
  5
11
330
0
100
AcDbSymbolTable
 70
     0
100
AcDbDimStyleTable
 71
     0
  0
ENDTAB
  0
TABLE
  2
BLOCK_RECORD
  5
12
330
0
100
AcDbSymbolTable
 70
    55
  0
BLOCK_RECORD
  5
13
330
12
100
AcDbSymbolTableRecord
100
AcDbBlockTableRecord
  2
*Model_Space
340
4D
  0
BLOCK_RECORD
  5
14
330
12
100
AcDbSymbolTableRecord
100
AcDbBlockTableRecord
  2
*Paper_Space
340
4E
  0
BLOCK_RECORD
  5
15
330
12
100
AcDbSymbolTableRecord
100
AcDbBlockTableRecord
  2
OBLONG_1
340
0
  0
BLOCK_RECORD
  5
16
330
12
100
AcDbSymbolTableRecord
100
AcDbBlockTableRecord
  2
ROUND_3
340
0
  0
BLOCK_RECORD
  5
17
330
12
100
AcDbSymbolTableRecord
100
AcDbBlockTableRecord
  2
CUSTOM_4
340
0
  0
BLOCK_RECORD
  5
18
330
12
100
AcDbSymbolTableRecord
100
AcDbBlockTableRecord
  2
CUSTOM_5
340
0
  0
BLOCK_RECORD
  5
19
330
12
100
AcDbSymbolTableRecord
100
AcDbBlockTableRecord
  2
ROUND_6
340
0
  0
BLOCK_RECORD
  5
1A
330
12
100
AcDbSymbolTableRecord
100
AcDbBlockTableRecord
  2
ROUND_7
340
0
  0
BLOCK_RECORD
  5
1B
330
12
100
AcDbSymbolTableRecord
100
AcDbBlockTableRecord
  2
ROUND_8
340
0
  0
BLOCK_RECORD
  5
1C
330
12
100
AcDbSymbolTableRecord
100
AcDbBlockTableRecord
  2
ROUND_9
340
0
  0
BLOCK_RECORD
  5
1D
330
12
100
AcDbSymbolTableRecord
100
AcDbBlockTableRecord
  2
CUSTOM_10
340
0
  0
BLOCK_RECORD
  5
1E
330
12
100
AcDbSymbolTableRecord
100
AcDbBlockTableRecord
  2
ROUND_11
340
0
  0
BLOCK_RECORD
  5
1F
330
12
100
AcDbSymbolTableRecord
100
AcDbBlockTableRecord
  2
ROUND_12
340
0
  0
BLOCK_RECORD
  5
20
330
12
100
AcDbSymbolTableRecord
100
AcDbBlockTableRecord
  2
ROUND_14
340
0
  0
BLOCK_RECORD
  5
21
330
12
100
AcDbSymbolTableRecord
100
AcDbBlockTableRecord
  2
SQUARE_15
340
0
  0
BLOCK_RECORD
  5
22
330
12
100
AcDbSymbolTableRecord
100
AcDbBlockTableRecord
  2
ROUND_16
340
0
  0
BLOCK_RECORD
  5
23
330
12
100
AcDbSymbolTableRecord
100
AcDbBlockTableRecord
  2
ROUND_17
340
0
  0
BLOCK_RECORD
  5
24
330
12
100
AcDbSymbolTableRecord
100
AcDbBlockTableRecord
  2
CUSTOM_19
340
0
  0
BLOCK_RECORD
  5
25
330
12
100
AcDbSymbolTableRecord
100
AcDbBlockTableRecord
  2
CUSTOM_20
340
0
  0
BLOCK_RECORD
  5
26
330
12
100
AcDbSymbolTableRecord
100
AcDbBlockTableRecord
  2
ROUND_21
340
0
  0
BLOCK_RECORD
  5
27
330
12
100
AcDbSymbolTableRecord
100
AcDbBlockTableRecord
  2
ROUND_22
340
0
  0
BLOCK_RECORD
  5
28
330
12
100
AcDbSymbolTableRecord
100
AcDbBlockTableRecord
  2
ROUND_23
340
0
  0
BLOCK_RECORD
  5
29
330
12
100
AcDbSymbolTableRecord
100
AcDbBlockTableRecord
  2
SQUARE_24
340
0
  0
BLOCK_RECORD
  5
2A
330
12
100
AcDbSymbolTableRecord
100
AcDbBlockTableRecord
  2
ROUND_25
340
0
  0
BLOCK_RECORD
  5
2B
330
12
100
AcDbSymbolTableRecord
100
AcDbBlockTableRecord
  2
ROUND_26
340
0
  0
BLOCK_RECORD
  5
2C
330
12
100
AcDbSymbolTableRecord
100
AcDbBlockTableRecord
  2
ROUND_27
340
0
  0
BLOCK_RECORD
  5
2D
330
12
100
AcDbSymbolTableRecord
100
AcDbBlockTableRecord
  2
CUSTOM_28
340
0
  0
BLOCK_RECORD
  5
2E
330
12
100
AcDbSymbolTableRecord
100
AcDbBlockTableRecord
  2
ROUND_30
340
0
  0
BLOCK_RECORD
  5
2F
330
12
100
AcDbSymbolTableRecord
100
AcDbBlockTableRecord
  2
CUSTOM_31
340
0
  0
BLOCK_RECORD
  5
30
330
12
100
AcDbSymbolTableRecord
100
AcDbBlockTableRecord
  2
CUSTOM_32
340
0
  0
BLOCK_RECORD
  5
31
330
12
100
AcDbSymbolTableRecord
100
AcDbBlockTableRecord
  2
CUSTOM_33
340
0
  0
BLOCK_RECORD
  5
32
330
12
100
AcDbSymbolTableRecord
100
AcDbBlockTableRecord
  2
CUSTOM_56
340
0
  0
BLOCK_RECORD
  5
33
330
12
100
AcDbSymbolTableRecord
100
AcDbBlockTableRecord
  2
CUSTOM_57
340
0
  0
BLOCK_RECORD
  5
34
330
12
100
AcDbSymbolTableRecord
100
AcDbBlockTableRecord
  2
OBLONG_58
340
0
  0
BLOCK_RECORD
  5
35
330
12
100
AcDbSymbolTableRecord
100
AcDbBlockTableRecord
  2
CUSTOM_59
340
0
  0
BLOCK_RECORD
  5
36
330
12
100
AcDbSymbolTableRecord
100
AcDbBlockTableRecord
  2
CUSTOM_60
340
0
  0
BLOCK_RECORD
  5
37
330
12
100
AcDbSymbolTableRecord
100
AcDbBlockTableRecord
  2
CUSTOM_61
340
0
  0
BLOCK_RECORD
  5
38
330
12
100
AcDbSymbolTableRecord
100
AcDbBlockTableRecord
  2
CUSTOM_62
340
0
  0
BLOCK_RECORD
  5
39
330
12
100
AcDbSymbolTableRecord
100
AcDbBlockTableRecord
  2
ROUND_63
340
0
  0
BLOCK_RECORD
  5
3A
330
12
100
AcDbSymbolTableRecord
100
AcDbBlockTableRecord
  2
ROUND_64
340
0
  0
BLOCK_RECORD
  5
3B
330
12
100
AcDbSymbolTableRecord
100
AcDbBlockTableRecord
  2
ROUND_65
340
0
  0
BLOCK_RECORD
  5
3C
330
12
100
AcDbSymbolTableRecord
100
AcDbBlockTableRecord
  2
ROUND_66
340
0
  0
BLOCK_RECORD
  5
3D
330
12
100
AcDbSymbolTableRecord
100
AcDbBlockTableRecord
  2
CUSTOM_67
340
0
  0
BLOCK_RECORD
  5
3E
330
12
100
AcDbSymbolTableRecord
100
AcDbBlockTableRecord
  2
CUSTOM_68
340
0
  0
BLOCK_RECORD
  5
3F
330
12
100
AcDbSymbolTableRecord
100
AcDbBlockTableRecord
  2
CUSTOM_69
340
0
  0
BLOCK_RECORD
  5
40
330
12
100
AcDbSymbolTableRecord
100
AcDbBlockTableRecord
  2
CUSTOM_70
340
0
  0
BLOCK_RECORD
  5
41
330
12
100
AcDbSymbolTableRecord
100
AcDbBlockTableRecord
  2
CUSTOM_71
340
0
  0
BLOCK_RECORD
  5
42
330
12
100
AcDbSymbolTableRecord
100
AcDbBlockTableRecord
  2
OBLONG_72
340
0
  0
BLOCK_RECORD
  5
43
330
12
100
AcDbSymbolTableRecord
100
AcDbBlockTableRecord
  2
CUSTOM_73
340
0
  0
BLOCK_RECORD
  5
44
330
12
100
AcDbSymbolTableRecord
100
AcDbBlockTableRecord
  2
CUSTOM_74
340
0
  0
BLOCK_RECORD
  5
45
330
12
100
AcDbSymbolTableRecord
100
AcDbBlockTableRecord
  2
CUSTOM_75
340
0
  0
BLOCK_RECORD
  5
46
330
12
100
AcDbSymbolTableRecord
100
AcDbBlockTableRecord
  2
CUSTOM_76
340
0
  0
BLOCK_RECORD
  5
47
330
12
100
AcDbSymbolTableRecord
100
AcDbBlockTableRecord
  2
ROUND_77
340
0
  0
BLOCK_RECORD
  5
48
330
12
100
AcDbSymbolTableRecord
100
AcDbBlockTableRecord
  2
ROUND_78
340
0
  0
BLOCK_RECORD
  5
49
330
12
100
AcDbSymbolTableRecord
100
AcDbBlockTableRecord
  2
ROUND_79
340
0
  0
ENDTAB
  0
ENDSEC
  0
SECTION
  2
BLOCKS
  0
BLOCK
  5
50
330
13
100
AcDbEntity
  8
0
100
AcDbBlockBegin
  2
*Model_Space
 70
     0
 10
0.0
 20
0.0
 30
0.0
  3
*Model_Space
  1

  0
ENDBLK
  5
51
330
13
100
AcDbEntity
  8
0
100
AcDbBlockEnd
  0
BLOCK
  5
52
330
14
100
AcDbEntity
  8
0
100
AcDbBlockBegin
  2
*Paper_Space
 70
     0
 10
0.0
 20
0.0
 30
0.0
  3
*Paper_Space
  1

  0
ENDBLK
  5
53
330
14
100
AcDbEntity
  8
0
100
AcDbBlockEnd
  0
BLOCK
  5
54
330
15
100
AcDbEntity
  8
0
100
AcDbBlockBegin
  2
OBLONG_1
 70
     0
 10
0.0
 20
0.0
 30
0.0
  3
OBLONG_1
  1

  0
LWPOLYLINE
  5
56
330
15
100
AcDbEntity
  8
0
  6
BYLAYER
370
   211
 62
   256
100
AcDbPolyline
 90
     2
 70
     0
 43
0.007
 10
-2.77555756156E-017
 20
-1.38777878078E-017
 10
-2.77555756156E-017
 20
-1.38777878078E-017
  0
LWPOLYLINE
  5
57
330
15
100
AcDbEntity
  8
0
  6
BYLAYER
370
   211
 62
   256
100
AcDbPolyline
 90
     4
 70
     0
 43
0.0035
 10
-0.00174997375328
 20
-1.38777878078E-017
 42
0.0
 10
-0.00174997375328
 20
-1.38777878078E-017
 42
1
 10
0.00174997375328
 20
-1.38777878078E-017
 42
1
 10
-0.00174997375328
 20
-1.38777878078E-017
 42
0.0
  0
LWPOLYLINE
  5
58
330
15
100
AcDbEntity
  8
0
  6
BYLAYER
370
   211
 62
   256
100
AcDbPolyline
 90
     4
 70
     0
 43
0.0035
 10
-0.00174997375328
 20
-1.38777878078E-017
 42
0.0
 10
-0.00174997375328
 20
-1.38777878078E-017
 42
1
 10
0.00174997375328
 20
-1.38777878078E-017
 42
1
 10
-0.00174997375328
 20
-1.38777878078E-017
 42
0.0
  0
ENDBLK
  5
55
330
15
100
AcDbEntity
  8
0
100
AcDbBlockEnd
  0
BLOCK
  5
59
330
16
100
AcDbEntity
  8
0
100
AcDbBlockBegin
  2
ROUND_3
 70
     0
 10
0.0
 20
0.0
 30
0.0
  3
ROUND_3
  1

  0
HATCH
  5
5B
330
16
100
AcDbEntity
  8
0
100
AcDbHatch
 10
0.0
 20
0.0
 30
0.0
210
0.0
220
0.0
230
1.0
  2
SOLID
 70
     1
 71
     0
 91
     1
 92
     0
 93
     1
 72
     2
 10
-2.77555756156E-017
 20
-1.38777878078E-017
 40
0.0059
 50
0.0
 51
360.0
 73
     1
 97
     0
 75
     0
 76
     1
 98
     1
 10
0.0
 20
0.0
  0
ENDBLK
  5
5A
330
16
100
AcDbEntity
  8
0
100
AcDbBlockEnd
  0
BLOCK
  5
5C
330
17
100
AcDbEntity
  8
0
100
AcDbBlockBegin
  2
CUSTOM_4
 70
     0
 10
0.0
 20
0.0
 30
0.0
  3
CUSTOM_4
  1

  0
SOLID
  5
5E
330
17
100
AcDbEntity
  8
0
  6
BYLAYER
 62
   256
100
AcDbTrace
 10
-0.0168499737533
 20
-0.0187
 30
0.0
 11
-0.0168499737533
 21
-0.0186480839895
 31
0.0
 12
0.0168499737533
 22
-0.0187
 32
0.0
 13
0.0168499737533
 23
-0.0186480839895
 33
0.0
  0
SOLID
  5
5F
330
17
100
AcDbEntity
  8
0
  6
BYLAYER
 62
   256
100
AcDbTrace
 10
-0.0168499737533
 20
-0.0186480839895
 30
0.0
 11
-0.0172070866142
 21
-0.0186033070866
 31
0.0
 12
0.0168499737533
 22
-0.0186480839895
 32
0.0
 13
0.0169699212598
 23
-0.0186033070866
 33
0.0
  0
SOLID
  5
60
330
17
100
AcDbEntity
  8
0
  6
BYLAYER
 62
   256
100
AcDbTrace
 10
-0.0172070866142
 20
-0.0186033070866
 30
0.0
 11
-0.0178157480315
 21
-0.0182282414698
 31
0.0
 12
0.0169699212598
 22
-0.0186033070866
 32
0.0
 13
0.0179741732283
 23
-0.0182282414698
 33
0.0
  0
SOLID
  5
61
330
17
100
AcDbEntity
  8
0
  6
BYLAYER
 62
   256
100
AcDbTrace
 10
-0.0178157480315
 20
-0.0182282414698
 30
0.0
 11
-0.0182287139108
 21
-0.0179738582677
 31
0.0
 12
0.0179741732283
 22
-0.0182282414698
 32
0.0
 13
0.0181310761155
 23
-0.0179738582677
 33
0.0
  0
SOLID
  5
62
330
17
100
AcDbEntity
  8
0
  6
BYLAYER
 62
   256
100
AcDbTrace
 10
-0.0182287139108
 20
-0.0179738582677
 30
0.0
 11
-0.0185156430446
 21
-0.0172069816273
 31
0.0
 12
0.0181310761155
 22
-0.0179738582677
 32
0.0
 13
0.0186044094488
 23
-0.0172069816273
 33
0.0
  0
SOLID
  5
63
330
17
100
AcDbEntity
  8
0
  6
BYLAYER
 62
   256
100
AcDbTrace
 10
-0.0185156430446
 20
-0.0172069816273
 30
0.0
 11
-0.0186492913386
 21
-0.0168499737533
 31
0.0
 12
0.0186044094488
 22
-0.0172069816273
 32
0.0
 13
0.0186492913386
 23
-0.0168499737533
 33
0.0
  0
SOLID
  5
64
330
17
100
AcDbEntity
  8
0
  6
BYLAYER
 62
   256
100
AcDbTrace
 10
-0.0187
 20
-0.0168499737533
 30
0.0
 11
-0.0187
 21
0.0168499737533
 31
0.0
 12
0.0187
 22
-0.0168499737533
 32
0.0
 13
0.0187
 23
0.0168499737533
 33
0.0
  0
SOLID
  5
65
330
17
100
AcDbEntity
  8
0
  6
BYLAYER
 62
   256
100
AcDbTrace
 10
-0.0186492913386
 20
0.0168499737533
 30
0.0
 11
-0.0186043044619
 21
0.0172070866142
 31
0.0
 12
0.0186492913386
 22
0.0168499737533
 32
0.0
 13
0.0185156430446
 23
0.0172070866142
 33
0.0
  0
SOLID
  5
66
330
17
100
AcDbEntity
  8
0
  6
BYLAYER
 62
   256
100
AcDbTrace
 10
-0.0186043044619
 20
0.0172070866142
 30
0.0
 11
-0.0181312335958
 21
0.0179738582677
 31
0.0
 12
0.0185156430446
 22
0.0172070866142
 32
0.0
 13
0.0182287139108
 23
0.0179738582677
 33
0.0
  0
SOLID
  5
67
330
17
100
AcDbEntity
  8
0
  6
BYLAYER
 62
   256
100
AcDbTrace
 10
-0.0181312335958
 20
0.0179738582677
 30
0.0
 11
-0.0179741732283
 21
0.0182283464567
 31
0.0
 12
0.0182287139108
 22
0.0179738582677
 32
0.0
 13
0.0178157480315
 23
0.0182283464567
 33
0.0
  0
SOLID
  5
68
330
17
100
AcDbEntity
  8
0
  6
BYLAYER
 62
   256
100
AcDbTrace
 10
-0.0179741732283
 20
0.0182283464567
 30
0.0
 11
-0.0169699737533
 21
0.0186033070866
 31
0.0
 12
0.0178157480315
 22
0.0182283464567
 32
0.0
 13
0.0172070866142
 23
0.0186033070866
 33
0.0
  0
SOLID
  5
69
330
17
100
AcDbEntity
  8
0
  6
BYLAYER
 62
   256
100
AcDbTrace
 10
-0.0169699737533
 20
0.0186033070866
 30
0.0
 11
-0.0168499737533
 21
0.0186480839895
 31
0.0
 12
0.0172070866142
 22
0.0186033070866
 32
0.0
 13
0.0168499737533
 23
0.0186480839895
 33
0.0
  0
SOLID
  5
6A
330
17
100
AcDbEntity
  8
0
  6
BYLAYER
 62
   256
100
AcDbTrace
 10
-0.0168499737533
 20
0.0186480839895
 30
0.0
 11
-0.0168499737533
 21
0.0187
 31
0.0
 12
0.0168499737533
 22
0.0186480839895
 32
0.0
 13
0.0168499737533
 23
0.0187
 33
0.0
  0
ENDBLK
  5
5D
330
17
100
AcDbEntity
  8
0
100
AcDbBlockEnd
  0
BLOCK
  5
6B
330
18
100
AcDbEntity
  8
0
100
AcDbBlockBegin
  2
CUSTOM_5
 70
     0
 10
0.0
 20
0.0
 30
0.0
  3
CUSTOM_5
  1

  0
SOLID
  5
6D
330
18
100
AcDbEntity
  8
0
  6
BYLAYER
 62
   256
100
AcDbTrace
 10
-0.0195
 20
-0.0275499737533
 30
0.0
 11
-0.0202290288714
 21
-0.027422519685
 31
0.0
 12
0.0195
 22
-0.0275499737533
 32
0.0
 13
0.0199030446194
 23
-0.027422519685
 33
0.0
  0
SOLID
  5
6E
330
18
100
AcDbEntity
  8
0
  6
BYLAYER
 62
   256
100
AcDbTrace
 10
-0.0202290288714
 20
-0.027422519685
 30
0.0
 11
-0.0205737532808
 21
-0.0271592125984
 31
0.0
 12
0.0199030446194
 22
-0.027422519685
 32
0.0
 13
0.0207358005249
 23
-0.0271592125984
 33
0.0
  0
SOLID
  5
6F
330
18
100
AcDbEntity
  8
0
  6
BYLAYER
 62
   256
100
AcDbTrace
 10
-0.0205737532808
 20
-0.0271592125984
 30
0.0
 11
-0.0212592125984
 21
-0.0266358005249
 31
0.0
 12
0.0207358005249
 22
-0.0271592125984
 32
0.0
 13
0.0211354855643
 23
-0.0266358005249
 33
0.0
  0
SOLID
  5
70
330
18
100
AcDbEntity
  8
0
  6
BYLAYER
 62
   256
100
AcDbTrace
 10
-0.0212592125984
 20
-0.0266358005249
 30
0.0
 11
-0.0214194225722
 21
-0.0261290288714
 31
0.0
 12
0.0211354855643
 22
-0.0266358005249
 32
0.0
 13
0.021522519685
 23
-0.0261290288714
 33
0.0
  0
SOLID
  5
71
330
18
100
AcDbEntity
  8
0
  6
BYLAYER
 62
   256
100
AcDbTrace
 10
-0.0214194225722
 20
-0.0261290288714
 30
0.0
 11
-0.0216499737533
 21
-0.0254
 31
0.0
 12
0.021522519685
 22
-0.0261290288714
 32
0.0
 13
0.0216499737533
 23
-0.0254
 33
0.0
  0
SOLID
  5
72
330
18
100
AcDbEntity
  8
0
  6
BYLAYER
 62
   256
100
AcDbTrace
 10
-0.0216499737533
 20
-0.0254
 30
0.0
 11
-0.0216499737533
 21
0.0254
 31
0.0
 12
0.0216499737533
 22
-0.0254
 32
0.0
 13
0.0216499737533
 23
0.0254
 33
0.0
  0
SOLID
  5
73
330
18
100
AcDbEntity
  8
0
  6
BYLAYER
 62
   256
100
AcDbTrace
 10
-0.0216499737533
 20
0.0254
 30
0.0
 11
-0.021522519685
 21
0.0261290288714
 31
0.0
 12
0.0216499737533
 22
0.0254
 32
0.0
 13
0.0214195275591
 23
0.0261290288714
 33
0.0
  0
SOLID
  5
74
330
18
100
AcDbEntity
  8
0
  6
BYLAYER
 62
   256
100
AcDbTrace
 10
-0.021522519685
 20
0.0261290288714
 30
0.0
 11
-0.0211355905512
 21
0.0266358005249
 31
0.0
 12
0.0214195275591
 22
0.0261290288714
 32
0.0
 13
0.0212592125984
 23
0.0266358005249
 33
0.0
  0
SOLID
  5
75
330
18
100
AcDbEntity
  8
0
  6
BYLAYER
 62
   256
100
AcDbTrace
 10
-0.0211355905512
 20
0.0266358005249
 30
0.0
 11
-0.0207358005249
 21
0.0271592125984
 31
0.0
 12
0.0212592125984
 22
0.0266358005249
 32
0.0
 13
0.0205738582677
 23
0.0271592125984
 33
0.0
  0
SOLID
  5
76
330
18
100
AcDbEntity
  8
0
  6
BYLAYER
 62
   256
100
AcDbTrace
 10
-0.0207358005249
 20
0.0271592125984
 30
0.0
 11
-0.0199031496063
 21
0.027422519685
 31
0.0
 12
0.0205738582677
 22
0.0271592125984
 32
0.0
 13
0.0202290288714
 23
0.027422519685
 33
0.0
  0
SOLID
  5
77
330
18
100
AcDbEntity
  8
0
  6
BYLAYER
 62
   256
100
AcDbTrace
 10
-0.0199031496063
 20
0.027422519685
 30
0.0
 11
-0.0195
 21
0.0275499737533
 31
0.0
 12
0.0202290288714
 22
0.027422519685
 32
0.0
 13
0.0195
 23
0.0275499737533
 33
0.0
  0
ENDBLK
  5
6C
330
18
100
AcDbEntity
  8
0
100
AcDbBlockEnd
  0
BLOCK
  5
78
330
19
100
AcDbEntity
  8
0
100
AcDbBlockBegin
  2
ROUND_6
 70
     0
 10
0.0
 20
0.0
 30
0.0
  3
ROUND_6
  1

  0
HATCH
  5
7A
330
19
100
AcDbEntity
  8
0
100
AcDbHatch
 10
0.0
 20
0.0
 30
0.0
210
0.0
220
0.0
230
1.0
  2
SOLID
 70
     1
 71
     0
 91
     1
 92
     0
 93
     1
 72
     2
 10
-2.77555756156E-017
 20
-1.38777878078E-017
 40
0.012
 50
0.0
 51
360.0
 73
     1
 97
     0
 75
     0
 76
     1
 98
     1
 10
0.0
 20
0.0
  0
ENDBLK
  5
79
330
19
100
AcDbEntity
  8
0
100
AcDbBlockEnd
  0
BLOCK
  5
7B
330
1A
100
AcDbEntity
  8
0
100
AcDbBlockBegin
  2
ROUND_7
 70
     0
 10
0.0
 20
0.0
 30
0.0
  3
ROUND_7
  1

  0
HATCH
  5
7D
330
1A
100
AcDbEntity
  8
0
100
AcDbHatch
 10
0.0
 20
0.0
 30
0.0
210
0.0
220
0.0
230
1.0
  2
SOLID
 70
     1
 71
     0
 91
     1
 92
     0
 93
     1
 72
     2
 10
-2.77555756156E-017
 20
-1.38777878078E-017
 40
0.00324997375328
 50
0.0
 51
360.0
 73
     1
 97
     0
 75
     0
 76
     1
 98
     1
 10
0.0
 20
0.0
  0
ENDBLK
  5
7C
330
1A
100
AcDbEntity
  8
0
100
AcDbBlockEnd
  0
BLOCK
  5
7E
330
1B
100
AcDbEntity
  8
0
100
AcDbBlockBegin
  2
ROUND_8
 70
     0
 10
0.0
 20
0.0
 30
0.0
  3
ROUND_8
  1

  0
HATCH
  5
80
330
1B
100
AcDbEntity
  8
0
100
AcDbHatch
 10
0.0
 20
0.0
 30
0.0
210
0.0
220
0.0
230
1.0
  2
SOLID
 70
     1
 71
     0
 91
     1
 92
     0
 93
     1
 72
     2
 10
-2.77555756156E-017
 20
-1.38777878078E-017
 40
0.005
 50
0.0
 51
360.0
 73
     1
 97
     0
 75
     0
 76
     1
 98
     1
 10
0.0
 20
0.0
  0
ENDBLK
  5
7F
330
1B
100
AcDbEntity
  8
0
100
AcDbBlockEnd
  0
BLOCK
  5
81
330
1C
100
AcDbEntity
  8
0
100
AcDbBlockBegin
  2
ROUND_9
 70
     0
 10
0.0
 20
0.0
 30
0.0
  3
ROUND_9
  1

  0
HATCH
  5
83
330
1C
100
AcDbEntity
  8
0
100
AcDbHatch
 10
0.0
 20
0.0
 30
0.0
210
0.0
220
0.0
230
1.0
  2
SOLID
 70
     1
 71
     0
 91
     1
 92
     0
 93
     1
 72
     2
 10
-2.77555756156E-017
 20
-1.38777878078E-017
 40
0.0256
 50
0.0
 51
360.0
 73
     1
 97
     0
 75
     0
 76
     1
 98
     1
 10
0.0
 20
0.0
  0
ENDBLK
  5
82
330
1C
100
AcDbEntity
  8
0
100
AcDbBlockEnd
  0
BLOCK
  5
84
330
1D
100
AcDbEntity
  8
0
100
AcDbBlockBegin
  2
CUSTOM_10
 70
     0
 10
0.0
 20
0.0
 30
0.0
  3
CUSTOM_10
  1

  0
SOLID
  5
86
330
1D
100
AcDbEntity
  8
0
  6
BYLAYER
 62
   256
100
AcDbTrace
 10
-0.0168499737533
 20
-0.0187
 30
0.0
 11
-0.0168499737533
 21
-0.0186480839895
 31
0.0
 12
0.0168499737533
 22
-0.0187
 32
0.0
 13
0.0168499737533
 23
-0.0186480839895
 33
0.0
  0
SOLID
  5
87
330
1D
100
AcDbEntity
  8
0
  6
BYLAYER
 62
   256
100
AcDbTrace
 10
-0.0168499737533
 20
-0.0186480839895
 30
0.0
 11
-0.0172070866142
 21
-0.0186033070866
 31
0.0
 12
0.0168499737533
 22
-0.0186480839895
 32
0.0
 13
0.0169699212598
 23
-0.0186033070866
 33
0.0
  0
SOLID
  5
88
330
1D
100
AcDbEntity
  8
0
  6
BYLAYER
 62
   256
100
AcDbTrace
 10
-0.0172070866142
 20
-0.0186033070866
 30
0.0
 11
-0.0178157480315
 21
-0.0182282414698
 31
0.0
 12
0.0169699212598
 22
-0.0186033070866
 32
0.0
 13
0.0179741732283
 23
-0.0182282414698
 33
0.0
  0
SOLID
  5
89
330
1D
100
AcDbEntity
  8
0
  6
BYLAYER
 62
   256
100
AcDbTrace
 10
-0.0178157480315
 20
-0.0182282414698
 30
0.0
 11
-0.0182287139108
 21
-0.0179738582677
 31
0.0
 12
0.0179741732283
 22
-0.0182282414698
 32
0.0
 13
0.0181310761155
 23
-0.0179738582677
 33
0.0
  0
SOLID
  5
8A
330
1D
100
AcDbEntity
  8
0
  6
BYLAYER
 62
   256
100
AcDbTrace
 10
-0.0182287139108
 20
-0.0179738582677
 30
0.0
 11
-0.0185156430446
 21
-0.0172069816273
 31
0.0
 12
0.0181310761155
 22
-0.0179738582677
 32
0.0
 13
0.0186044094488
 23
-0.0172069816273
 33
0.0
  0
SOLID
  5
8B
330
1D
100
AcDbEntity
  8
0
  6
BYLAYER
 62
   256
100
AcDbTrace
 10
-0.0185156430446
 20
-0.0172069816273
 30
0.0
 11
-0.0186492913386
 21
-0.0168499737533
 31
0.0
 12
0.0186044094488
 22
-0.0172069816273
 32
0.0
 13
0.0186492913386
 23
-0.0168499737533
 33
0.0
  0
SOLID
  5
8C
330
1D
100
AcDbEntity
  8
0
  6
BYLAYER
 62
   256
100
AcDbTrace
 10
-0.0187
 20
-0.0168499737533
 30
0.0
 11
-0.0187
 21
0.0168499737533
 31
0.0
 12
0.0187
 22
-0.0168499737533
 32
0.0
 13
0.0187
 23
0.0168499737533
 33
0.0
  0
SOLID
  5
8D
330
1D
100
AcDbEntity
  8
0
  6
BYLAYER
 62
   256
100
AcDbTrace
 10
-0.0186492913386
 20
0.0168499737533
 30
0.0
 11
-0.0186043044619
 21
0.0172070866142
 31
0.0
 12
0.0186492913386
 22
0.0168499737533
 32
0.0
 13
0.0185156430446
 23
0.0172070866142
 33
0.0
  0
SOLID
  5
8E
330
1D
100
AcDbEntity
  8
0
  6
BYLAYER
 62
   256
100
AcDbTrace
 10
-0.0186043044619
 20
0.0172070866142
 30
0.0
 11
-0.0181312335958
 21
0.0179738582677
 31
0.0
 12
0.0185156430446
 22
0.0172070866142
 32
0.0
 13
0.0182287139108
 23
0.0179738582677
 33
0.0
  0
SOLID
  5
8F
330
1D
100
AcDbEntity
  8
0
  6
BYLAYER
 62
   256
100
AcDbTrace
 10
-0.0181312335958
 20
0.0179738582677
 30
0.0
 11
-0.0179741732283
 21
0.0182283464567
 31
0.0
 12
0.0182287139108
 22
0.0179738582677
 32
0.0
 13
0.0178157480315
 23
0.0182283464567
 33
0.0
  0
SOLID
  5
90
330
1D
100
AcDbEntity
  8
0
  6
BYLAYER
 62
   256
100
AcDbTrace
 10
-0.0179741732283
 20
0.0182283464567
 30
0.0
 11
-0.0169699737533
 21
0.0186033070866
 31
0.0
 12
0.0178157480315
 22
0.0182283464567
 32
0.0
 13
0.0172070866142
 23
0.0186033070866
 33
0.0
  0
SOLID
  5
91
330
1D
100
AcDbEntity
  8
0
  6
BYLAYER
 62
   256
100
AcDbTrace
 10
-0.0169699737533
 20
0.0186033070866
 30
0.0
 11
-0.0168499737533
 21
0.0186480839895
 31
0.0
 12
0.0172070866142
 22
0.0186033070866
 32
0.0
 13
0.0168499737533
 23
0.0186480839895
 33
0.0
  0
SOLID
  5
92
330
1D
100
AcDbEntity
  8
0
  6
BYLAYER
 62
   256
100
AcDbTrace
 10
-0.0168499737533
 20
0.0186480839895
 30
0.0
 11
-0.0168499737533
 21
0.0187
 31
0.0
 12
0.0168499737533
 22
0.0186480839895
 32
0.0
 13
0.0168499737533
 23
0.0187
 33
0.0
  0
ENDBLK
  5
85
330
1D
100
AcDbEntity
  8
0
100
AcDbBlockEnd
  0
BLOCK
  5
93
330
1E
100
AcDbEntity
  8
0
100
AcDbBlockBegin
  2
ROUND_11
 70
     0
 10
0.0
 20
0.0
 30
0.0
  3
ROUND_11
  1

  0
HATCH
  5
95
330
1E
100
AcDbEntity
  8
0
100
AcDbHatch
 10
0.0
 20
0.0
 30
0.0
210
0.0
220
0.0
230
1.0
  2
SOLID
 70
     1
 71
     0
 91
     1
 92
     0
 93
     1
 72
     2
 10
-2.77555756156E-017
 20
-1.38777878078E-017
 40
0.0315
 50
0.0
 51
360.0
 73
     1
 97
     0
 75
     0
 76
     1
 98
     1
 10
0.0
 20
0.0
  0
ENDBLK
  5
94
330
1E
100
AcDbEntity
  8
0
100
AcDbBlockEnd
  0
BLOCK
  5
96
330
1F
100
AcDbEntity
  8
0
100
AcDbBlockBegin
  2
ROUND_12
 70
     0
 10
0.0
 20
0.0
 30
0.0
  3
ROUND_12
  1

  0
HATCH
  5
98
330
1F
100
AcDbEntity
  8
0
100
AcDbHatch
 10
0.0
 20
0.0
 30
0.0
210
0.0
220
0.0
230
1.0
  2
SOLID
 70
     1
 71
     0
 91
     1
 92
     0
 93
     1
 72
     2
 10
-2.77555756156E-017
 20
-1.38777878078E-017
 40
0.0590499737533
 50
0.0
 51
360.0
 73
     1
 97
     0
 75
     0
 76
     1
 98
     1
 10
0.0
 20
0.0
  0
ENDBLK
  5
97
330
1F
100
AcDbEntity
  8
0
100
AcDbBlockEnd
  0
BLOCK
  5
99
330
20
100
AcDbEntity
  8
0
100
AcDbBlockBegin
  2
ROUND_14
 70
     0
 10
0.0
 20
0.0
 30
0.0
  3
ROUND_14
  1

  0
HATCH
  5
9B
330
20
100
AcDbEntity
  8
0
100
AcDbHatch
 10
0.0
 20
0.0
 30
0.0
210
0.0
220
0.0
230
1.0
  2
SOLID
 70
     1
 71
     0
 91
     1
 92
     0
 93
     1
 72
     2
 10
-2.77555756156E-017
 20
-1.38777878078E-017
 40
0.0197
 50
0.0
 51
360.0
 73
     1
 97
     0
 75
     0
 76
     1
 98
     1
 10
0.0
 20
0.0
  0
ENDBLK
  5
9A
330
20
100
AcDbEntity
  8
0
100
AcDbBlockEnd
  0
BLOCK
  5
9C
330
21
100
AcDbEntity
  8
0
100
AcDbBlockBegin
  2
SQUARE_15
 70
     0
 10
0.0
 20
0.0
 30
0.0
  3
SQUARE_15
  1

  0
SOLID
  5
9E
330
21
100
AcDbEntity
  8
0
  6
BYLAYER
 62
   256
100
AcDbTrace
 10
0.0315
 20
0.0315
 30
0.0
 11
0.0315
 21
-0.0315
 31
0.0
 12
-0.0315
 22
0.0315
 32
0.0
 13
-0.0315
 23
-0.0315
 33
0.0
  0
ENDBLK
  5
9D
330
21
100
AcDbEntity
  8
0
100
AcDbBlockEnd
  0
BLOCK
  5
9F
330
22
100
AcDbEntity
  8
0
100
AcDbBlockBegin
  2
ROUND_16
 70
     0
 10
0.0
 20
0.0
 30
0.0
  3
ROUND_16
  1

  0
HATCH
  5
A1
330
22
100
AcDbEntity
  8
0
100
AcDbHatch
 10
0.0
 20
0.0
 30
0.0
210
0.0
220
0.0
230
1.0
  2
SOLID
 70
     1
 71
     0
 91
     1
 92
     0
 93
     1
 72
     2
 10
-2.77555756156E-017
 20
-1.38777878078E-017
 40
0.008
 50
0.0
 51
360.0
 73
     1
 97
     0
 75
     0
 76
     1
 98
     1
 10
0.0
 20
0.0
  0
ENDBLK
  5
A0
330
22
100
AcDbEntity
  8
0
100
AcDbBlockEnd
  0
BLOCK
  5
A2
330
23
100
AcDbEntity
  8
0
100
AcDbBlockBegin
  2
ROUND_17
 70
     0
 10
0.0
 20
0.0
 30
0.0
  3
ROUND_17
  1

  0
HATCH
  5
A4
330
23
100
AcDbEntity
  8
0
100
AcDbHatch
 10
0.0
 20
0.0
 30
0.0
210
0.0
220
0.0
230
1.0
  2
SOLID
 70
     1
 71
     0
 91
     1
 92
     0
 93
     1
 72
     2
 10
-2.77555756156E-017
 20
-1.38777878078E-017
 40
0.0295499737533
 50
0.0
 51
360.0
 73
     1
 97
     0
 75
     0
 76
     1
 98
     1
 10
0.0
 20
0.0
  0
ENDBLK
  5
A3
330
23
100
AcDbEntity
  8
0
100
AcDbBlockEnd
  0
BLOCK
  5
A5
330
24
100
AcDbEntity
  8
0
100
AcDbBlockBegin
  2
CUSTOM_19
 70
     0
 10
0.0
 20
0.0
 30
0.0
  3
CUSTOM_19
  1

  0
SOLID
  5
A7
330
24
100
AcDbEntity
  8
0
  6
BYLAYER
 62
   256
100
AcDbTrace
 10
-0.0168499737533
 20
-0.0206499737533
 30
0.0
 11
-0.0168499737533
 21
-0.0206395800525
 31
0.0
 12
0.0168499737533
 22
-0.0206499737533
 32
0.0
 13
0.0168499737533
 23
-0.0206395800525
 33
0.0
  0
SOLID
  5
A8
330
24
100
AcDbEntity
  8
0
  6
BYLAYER
 62
   256
100
AcDbTrace
 10
-0.0168499737533
 20
-0.0206395800525
 30
0.0
 11
-0.0175071391076
 21
-0.0205743832021
 31
0.0
 12
0.0168499737533
 22
-0.0206395800525
 32
0.0
 13
0.0171148031496
 23
-0.0205743832021
 33
0.0
  0
SOLID
  5
A9
330
24
100
AcDbEntity
  8
0
  6
BYLAYER
 62
   256
100
AcDbTrace
 10
-0.0175071391076
 20
-0.0205743832021
 30
0.0
 11
-0.0183092913386
 21
-0.0202228346457
 31
0.0
 12
0.0171148031496
 22
-0.0205743832021
 32
0.0
 13
0.0185430446194
 23
-0.0202228346457
 33
0.0
  0
SOLID
  5
AA
330
24
100
AcDbEntity
  8
0
  6
BYLAYER
 62
   256
100
AcDbTrace
 10
-0.0183092913386
 20
-0.0202228346457
 30
0.0
 11
-0.0191041469816
 21
-0.019874488189
 31
0.0
 12
0.0185430446194
 22
-0.0202228346457
 32
0.0
 13
0.0189581102362
 23
-0.019874488189
 33
0.0
  0
SOLID
  5
AB
330
24
100
AcDbEntity
  8
0
  6
BYLAYER
 62
   256
100
AcDbTrace
 10
-0.0191041469816
 20
-0.019874488189
 30
0.0
 11
-0.0197559580052
 21
-0.0191019422572
 31
0.0
 12
0.0189581102362
 22
-0.019874488189
 32
0.0
 13
0.0198787401575
 23
-0.0191019422572
 33
0.0
  0
SOLID
  5
AC
330
24
100
AcDbEntity
  8
0
  6
BYLAYER
 62
   256
100
AcDbTrace
 10
-0.0197559580052
 20
-0.0191019422572
 30
0.0
 11
-0.0202285564304
 21
-0.0185418897638
 31
0.0
 12
0.0198787401575
 22
-0.0191019422572
 32
0.0
 13
0.020125984252
 23
-0.0185418897638
 33
0.0
  0
SOLID
  5
AD
330
24
100
AcDbEntity
  8
0
  6
BYLAYER
 62
   256
100
AcDbTrace
 10
-0.0202285564304
 20
-0.0185418897638
 30
0.0
 11
-0.0204862992126
 21
-0.0175069291339
 31
0.0
 12
0.020125984252
 22
-0.0185418897638
 32
0.0
 13
0.020582992126
 23
-0.0175069291339
 33
0.0
  0
SOLID
  5
AE
330
24
100
AcDbEntity
  8
0
  6
BYLAYER
 62
   256
100
AcDbTrace
 10
-0.0204862992126
 20
-0.0175069291339
 30
0.0
 11
-0.0206499737533
 21
-0.0168499737533
 31
0.0
 12
0.020582992126
 22
-0.0175069291339
 32
0.0
 13
0.0206499737533
 23
-0.0168499737533
 33
0.0
  0
SOLID
  5
AF
330
24
100
AcDbEntity
  8
0
  6
BYLAYER
 62
   256
100
AcDbTrace
 10
-0.0206499737533
 20
-0.0168499737533
 30
0.0
 11
-0.0206499737533
 21
-0.0168
 31
0.0
 12
0.0206499737533
 22
-0.0168499737533
 32
0.0
 13
0.0206499737533
 23
-0.0168
 33
0.0
  0
SOLID
  5
B0
330
24
100
AcDbEntity
  8
0
  6
BYLAYER
 62
   256
100
AcDbTrace
 10
-0.0206499737533
 20
-0.0168
 30
0.0
 11
-0.0206499737533
 21
0.0168
 31
0.0
 12
0.0206499737533
 22
-0.0168
 32
0.0
 13
0.0206499737533
 23
0.0168
 33
0.0
  0
SOLID
  5
B1
330
24
100
AcDbEntity
  8
0
  6
BYLAYER
 62
   256
100
AcDbTrace
 10
-0.0206499737533
 20
0.0168
 30
0.0
 11
-0.0206499737533
 21
0.0168499737533
 31
0.0
 12
0.0206499737533
 22
0.0168
 32
0.0
 13
0.0206499737533
 23
0.0168499737533
 33
0.0
  0
SOLID
  5
B2
330
24
100
AcDbEntity
  8
0
  6
BYLAYER
 62
   256
100
AcDbTrace
 10
-0.0206499737533
 20
0.0168499737533
 30
0.0
 11
-0.020582992126
 21
0.0175069816273
 31
0.0
 12
0.0206499737533
 22
0.0168499737533
 32
0.0
 13
0.020486351706
 23
0.0175069816273
 33
0.0
  0
SOLID
  5
B3
330
24
100
AcDbEntity
  8
0
  6
BYLAYER
 62
   256
100
AcDbTrace
 10
-0.020582992126
 20
0.0175069816273
 30
0.0
 11
-0.0201260367454
 21
0.0185419422572
 31
0.0
 12
0.020486351706
 22
0.0175069816273
 32
0.0
 13
0.0202285564304
 23
0.0185419422572
 33
0.0
  0
SOLID
  5
B4
330
24
100
AcDbEntity
  8
0
  6
BYLAYER
 62
   256
100
AcDbTrace
 10
-0.0201260367454
 20
0.0185419422572
 30
0.0
 11
-0.0198787401575
 21
0.0191020472441
 31
0.0
 12
0.0202285564304
 22
0.0185419422572
 32
0.0
 13
0.0197559580052
 23
0.0191020472441
 33
0.0
  0
SOLID
  5
B5
330
24
100
AcDbEntity
  8
0
  6
BYLAYER
 62
   256
100
AcDbTrace
 10
-0.0198787401575
 20
0.0191020472441
 30
0.0
 11
-0.0189581102362
 21
0.0198745406824
 31
0.0
 12
0.0197559580052
 22
0.0191020472441
 32
0.0
 13
0.0191040944882
 23
0.0198745406824
 33
0.0
  0
SOLID
  5
B6
330
24
100
AcDbEntity
  8
0
  6
BYLAYER
 62
   256
100
AcDbTrace
 10
-0.0189581102362
 20
0.0198745406824
 30
0.0
 11
-0.0185430446194
 21
0.0202228346457
 31
0.0
 12
0.0191040944882
 22
0.0198745406824
 32
0.0
 13
0.0183095013123
 23
0.0202228346457
 33
0.0
  0
SOLID
  5
B7
330
24
100
AcDbEntity
  8
0
  6
BYLAYER
 62
   256
100
AcDbTrace
 10
-0.0185430446194
 20
0.0202228346457
 30
0.0
 11
-0.0171145406824
 21
0.020574488189
 31
0.0
 12
0.0183095013123
 22
0.0202228346457
 32
0.0
 13
0.0175070866142
 23
0.020574488189
 33
0.0
  0
SOLID
  5
B8
330
24
100
AcDbEntity
  8
0
  6
BYLAYER
 62
   256
100
AcDbTrace
 10
-0.0171145406824
 20
0.020574488189
 30
0.0
 11
-0.0168499737533
 21
0.0206395800525
 31
0.0
 12
0.0175070866142
 22
0.020574488189
 32
0.0
 13
0.0168499737533
 23
0.0206395800525
 33
0.0
  0
SOLID
  5
B9
330
24
100
AcDbEntity
  8
0
  6
BYLAYER
 62
   256
100
AcDbTrace
 10
-0.0168499737533
 20
0.0206395800525
 30
0.0
 11
-0.0168499737533
 21
0.0206499737533
 31
0.0
 12
0.0168499737533
 22
0.0206395800525
 32
0.0
 13
0.0168499737533
 23
0.0206499737533
 33
0.0
  0
ENDBLK
  5
A6
330
24
100
AcDbEntity
  8
0
100
AcDbBlockEnd
  0
BLOCK
  5
BA
330
25
100
AcDbEntity
  8
0
100
AcDbBlockBegin
  2
CUSTOM_20
 70
     0
 10
0.0
 20
0.0
 30
0.0
  3
CUSTOM_20
  1

  0
SOLID
  5
BC
330
25
100
AcDbEntity
  8
0
  6
BYLAYER
 62
   256
100
AcDbTrace
 10
-0.0195
 20
-0.0295499737533
 30
0.0
 11
-0.0205304461942
 21
-0.0294198950131
 31
0.0
 12
0.0195
 22
-0.0295499737533
 32
0.0
 13
0.0200815748031
 23
-0.0294198950131
 33
0.0
  0
SOLID
  5
BD
330
25
100
AcDbEntity
  8
0
  6
BYLAYER
 62
   256
100
AcDbTrace
 10
-0.0205304461942
 20
-0.0294198950131
 30
0.0
 11
-0.0210513385827
 21
-0.0291546981627
 31
0.0
 12
0.0200815748031
 22
-0.0294198950131
 32
0.0
 13
0.0212674015748
 23
-0.0291546981627
 33
0.0
  0
SOLID
  5
BE
330
25
100
AcDbEntity
  8
0
  6
BYLAYER
 62
   256
100
AcDbTrace
 10
-0.0210513385827
 20
-0.0291546981627
 30
0.0
 11
-0.0221444094488
 21
-0.0285982677165
 31
0.0
 12
0.0212674015748
 22
-0.0291546981627
 32
0.0
 13
0.0219844619423
 23
-0.0285982677165
 33
0.0
  0
SOLID
  5
BF
330
25
100
AcDbEntity
  8
0
  6
BYLAYER
 62
   256
100
AcDbTrace
 10
-0.0221444094488
 20
-0.0285982677165
 30
0.0
 11
-0.0225741732283
 21
-0.0280444094488
 31
0.0
 12
0.0219844619423
 22
-0.0285982677165
 32
0.0
 13
0.0226982677165
 23
-0.0280444094488
 33
0.0
  0
SOLID
  5
C0
330
25
100
AcDbEntity
  8
0
  6
BYLAYER
 62
   256
100
AcDbTrace
 10
-0.0225741732283
 20
-0.0280444094488
 30
0.0
 11
-0.0232546981627
 21
-0.0271674015748
 31
0.0
 12
0.0226982677165
 22
-0.0280444094488
 32
0.0
 13
0.0231447244094
 23
-0.0271674015748
 33
0.0
  0
SOLID
  5
C1
330
25
100
AcDbEntity
  8
0
  6
BYLAYER
 62
   256
100
AcDbTrace
 10
-0.0232546981627
 20
-0.0271674015748
 30
0.0
 11
-0.0234195275591
 21
-0.0264304461942
 31
0.0
 12
0.0231447244094
 22
-0.0271674015748
 32
0.0
 13
0.0235198950131
 23
-0.0264304461942
 33
0.0
  0
SOLID
  5
C2
330
25
100
AcDbEntity
  8
0
  6
BYLAYER
 62
   256
100
AcDbTrace
 10
-0.0234195275591
 20
-0.0264304461942
 30
0.0
 11
-0.0236499737533
 21
-0.0254
 31
0.0
 12
0.0235198950131
 22
-0.0264304461942
 32
0.0
 13
0.0236499737533
 23
-0.0254
 33
0.0
  0
SOLID
  5
C3
330
25
100
AcDbEntity
  8
0
  6
BYLAYER
 62
   256
100
AcDbTrace
 10
-0.0236499737533
 20
-0.0254
 30
0.0
 11
-0.0236373753281
 21
-0.025077847769
 31
0.0
 12
0.0236499737533
 22
-0.0254
 32
0.0
 13
0.023637480315
 23
-0.025077847769
 33
0.0
  0
SOLID
  5
C4
330
25
100
AcDbEntity
  8
0
  6
BYLAYER
 62
   256
100
AcDbTrace
 10
-0.0236373753281
 20
-0.025077847769
 30
0.0
 11
-0.0236000524934
 21
-0.0247577952756
 31
0.0
 12
0.023637480315
 22
-0.025077847769
 32
0.0
 13
0.0236
 23
-0.0247577952756
 33
0.0
  0
SOLID
  5
C5
330
25
100
AcDbEntity
  8
0
  6
BYLAYER
 62
   256
100
AcDbTrace
 10
-0.0236000524934
 20
-0.0247577952756
 30
0.0
 11
-0.0236
 21
-0.0247576902887
 31
0.0
 12
0.0236
 22
-0.0247577952756
 32
0.0
 13
0.0236
 23
-0.0247576902887
 33
0.0
  0
SOLID
  5
C6
330
25
100
AcDbEntity
  8
0
  6
BYLAYER
 62
   256
100
AcDbTrace
 10
-0.0236
 20
-0.0247576902887
 30
0.0
 11
-0.0236
 21
0.0247576902887
 31
0.0
 12
0.0236
 22
-0.0247576902887
 32
0.0
 13
0.0236
 23
0.0247576902887
 33
0.0
  0
SOLID
  5
C7
330
25
100
AcDbEntity
  8
0
  6
BYLAYER
 62
   256
100
AcDbTrace
 10
-0.0236
 20
0.0247576902887
 30
0.0
 11
-0.0236
 21
0.0247577952756
 31
0.0
 12
0.0236
 22
0.0247576902887
 32
0.0
 13
0.0236
 23
0.0247577952756
 33
0.0
  0
SOLID
  5
C8
330
25
100
AcDbEntity
  8
0
  6
BYLAYER
 62
   256
100
AcDbTrace
 10
-0.0236
 20
0.0247577952756
 30
0.0
 11
-0.023637480315
 21
0.025077847769
 31
0.0
 12
0.0236
 22
0.0247577952756
 32
0.0
 13
0.0236373753281
 23
0.025077847769
 33
0.0
  0
SOLID
  5
C9
330
25
100
AcDbEntity
  8
0
  6
BYLAYER
 62
   256
100
AcDbTrace
 10
-0.023637480315
 20
0.025077847769
 30
0.0
 11
-0.0236499737533
 21
0.0254
 31
0.0
 12
0.0236373753281
 22
0.025077847769
 32
0.0
 13
0.0236499737533
 23
0.0254
 33
0.0
  0
SOLID
  5
CA
330
25
100
AcDbEntity
  8
0
  6
BYLAYER
 62
   256
100
AcDbTrace
 10
-0.0236499737533
 20
0.0254
 30
0.0
 11
-0.0235198950131
 21
0.0264304461942
 31
0.0
 12
0.0236499737533
 22
0.0254
 32
0.0
 13
0.0234195800525
 23
0.0264304461942
 33
0.0
  0
SOLID
  5
CB
330
25
100
AcDbEntity
  8
0
  6
BYLAYER
 62
   256
100
AcDbTrace
 10
-0.0235198950131
 20
0.0264304461942
 30
0.0
 11
-0.0231447769029
 21
0.0271674015748
 31
0.0
 12
0.0234195800525
 22
0.0264304461942
 32
0.0
 13
0.0232546981627
 23
0.0271674015748
 33
0.0
  0
SOLID
  5
CC
330
25
100
AcDbEntity
  8
0
  6
BYLAYER
 62
   256
100
AcDbTrace
 10
-0.0231447769029
 20
0.0271674015748
 30
0.0
 11
-0.0226982677165
 21
0.0280444094488
 31
0.0
 12
0.0232546981627
 22
0.0271674015748
 32
0.0
 13
0.0225742257218
 23
0.0280444094488
 33
0.0
  0
SOLID
  5
CD
330
25
100
AcDbEntity
  8
0
  6
BYLAYER
 62
   256
100
AcDbTrace
 10
-0.0226982677165
 20
0.0280444094488
 30
0.0
 11
-0.0219845669291
 21
0.0285982677165
 31
0.0
 12
0.0225742257218
 22
0.0280444094488
 32
0.0
 13
0.0221444094488
 23
0.0285982677165
 33
0.0
  0
SOLID
  5
CE
330
25
100
AcDbEntity
  8
0
  6
BYLAYER
 62
   256
100
AcDbTrace
 10
-0.0219845669291
 20
0.0285982677165
 30
0.0
 11
-0.0212674015748
 21
0.0291546981627
 31
0.0
 12
0.0221444094488
 22
0.0285982677165
 32
0.0
 13
0.0210513910761
 23
0.0291546981627
 33
0.0
  0
SOLID
  5
CF
330
25
100
AcDbEntity
  8
0
  6
BYLAYER
 62
   256
100
AcDbTrace
 10
-0.0212674015748
 20
0.0291546981627
 30
0.0
 11
-0.0200816272966
 21
0.0294198950131
 31
0.0
 12
0.0210513910761
 22
0.0291546981627
 32
0.0
 13
0.0205304461942
 23
0.0294198950131
 33
0.0
  0
SOLID
  5
D0
330
25
100
AcDbEntity
  8
0
  6
BYLAYER
 62
   256
100
AcDbTrace
 10
-0.0200816272966
 20
0.0294198950131
 30
0.0
 11
-0.0195
 21
0.0295499737533
 31
0.0
 12
0.0205304461942
 22
0.0294198950131
 32
0.0
 13
0.0195
 23
0.0295499737533
 33
0.0
  0
ENDBLK
  5
BB
330
25
100
AcDbEntity
  8
0
100
AcDbBlockEnd
  0
BLOCK
  5
D1
330
26
100
AcDbEntity
  8
0
100
AcDbBlockBegin
  2
ROUND_21
 70
     0
 10
0.0
 20
0.0
 30
0.0
  3
ROUND_21
  1

  0
HATCH
  5
D3
330
26
100
AcDbEntity
  8
0
100
AcDbHatch
 10
0.0
 20
0.0
 30
0.0
210
0.0
220
0.0
230
1.0
  2
SOLID
 70
     1
 71
     0
 91
     1
 92
     0
 93
     1
 72
     2
 10
-2.77555756156E-017
 20
-1.38777878078E-017
 40
0.0334499737533
 50
0.0
 51
360.0
 73
     1
 97
     0
 75
     0
 76
     1
 98
     1
 10
0.0
 20
0.0
  0
ENDBLK
  5
D2
330
26
100
AcDbEntity
  8
0
100
AcDbBlockEnd
  0
BLOCK
  5
D4
330
27
100
AcDbEntity
  8
0
100
AcDbBlockBegin
  2
ROUND_22
 70
     0
 10
0.0
 20
0.0
 30
0.0
  3
ROUND_22
  1

  0
HATCH
  5
D6
330
27
100
AcDbEntity
  8
0
100
AcDbHatch
 10
0.0
 20
0.0
 30
0.0
210
0.0
220
0.0
230
1.0
  2
SOLID
 70
     1
 71
     0
 91
     1
 92
     0
 93
     1
 72
     2
 10
-2.77555756156E-017
 20
-1.38777878078E-017
 40
0.061
 50
0.0
 51
360.0
 73
     1
 97
     0
 75
     0
 76
     1
 98
     1
 10
0.0
 20
0.0
  0
ENDBLK
  5
D5
330
27
100
AcDbEntity
  8
0
100
AcDbBlockEnd
  0
BLOCK
  5
D7
330
28
100
AcDbEntity
  8
0
100
AcDbBlockBegin
  2
ROUND_23
 70
     0
 10
0.0
 20
0.0
 30
0.0
  3
ROUND_23
  1

  0
HATCH
  5
D9
330
28
100
AcDbEntity
  8
0
100
AcDbHatch
 10
0.0
 20
0.0
 30
0.0
210
0.0
220
0.0
230
1.0
  2
SOLID
 70
     1
 71
     0
 91
     1
 92
     0
 93
     1
 72
     2
 10
-2.77555756156E-017
 20
-1.38777878078E-017
 40
0.0216499737533
 50
0.0
 51
360.0
 73
     1
 97
     0
 75
     0
 76
     1
 98
     1
 10
0.0
 20
0.0
  0
ENDBLK
  5
D8
330
28
100
AcDbEntity
  8
0
100
AcDbBlockEnd
  0
BLOCK
  5
DA
330
29
100
AcDbEntity
  8
0
100
AcDbBlockBegin
  2
SQUARE_24
 70
     0
 10
0.0
 20
0.0
 30
0.0
  3
SQUARE_24
  1

  0
SOLID
  5
DC
330
29
100
AcDbEntity
  8
0
  6
BYLAYER
 62
   256
100
AcDbTrace
 10
0.0334499737533
 20
0.0334499737533
 30
0.0
 11
0.0334499737533
 21
-0.0334499737533
 31
0.0
 12
-0.0334499737533
 22
0.0334499737533
 32
0.0
 13
-0.0334499737533
 23
-0.0334499737533
 33
0.0
  0
ENDBLK
  5
DB
330
29
100
AcDbEntity
  8
0
100
AcDbBlockEnd
  0
BLOCK
  5
DD
330
2A
100
AcDbEntity
  8
0
100
AcDbBlockBegin
  2
ROUND_25
 70
     0
 10
0.0
 20
0.0
 30
0.0
  3
ROUND_25
  1

  0
HATCH
  5
DF
330
2A
100
AcDbEntity
  8
0
100
AcDbHatch
 10
0.0
 20
0.0
 30
0.0
210
0.0
220
0.0
230
1.0
  2
SOLID
 70
     1
 71
     0
 91
     1
 92
     0
 93
     1
 72
     2
 10
-2.77555756156E-017
 20
-1.38777878078E-017
 40
0.001
 50
0.0
 51
360.0
 73
     1
 97
     0
 75
     0
 76
     1
 98
     1
 10
0.0
 20
0.0
  0
ENDBLK
  5
DE
330
2A
100
AcDbEntity
  8
0
100
AcDbBlockEnd
  0
BLOCK
  5
E0
330
2B
100
AcDbEntity
  8
0
100
AcDbBlockBegin
  2
ROUND_26
 70
     0
 10
0.0
 20
0.0
 30
0.0
  3
ROUND_26
  1

  0
HATCH
  5
E2
330
2B
100
AcDbEntity
  8
0
100
AcDbHatch
 10
0.0
 20
0.0
 30
0.0
210
0.0
220
0.0
230
1.0
  2
SOLID
 70
     1
 71
     0
 91
     1
 92
     0
 93
     1
 72
     2
 10
-2.77555756156E-017
 20
-1.38777878078E-017
 40
0.00134997375328
 50
0.0
 51
360.0
 73
     1
 97
     0
 75
     0
 76
     1
 98
     1
 10
0.0
 20
0.0
  0
ENDBLK
  5
E1
330
2B
100
AcDbEntity
  8
0
100
AcDbBlockEnd
  0
BLOCK
  5
E3
330
2C
100
AcDbEntity
  8
0
100
AcDbBlockBegin
  2
ROUND_27
 70
     0
 10
0.0
 20
0.0
 30
0.0
  3
ROUND_27
  1

  0
HATCH
  5
E5
330
2C
100
AcDbEntity
  8
0
100
AcDbHatch
 10
0.0
 20
0.0
 30
0.0
210
0.0
220
0.0
230
1.0
  2
SOLID
 70
     1
 71
     0
 91
     1
 92
     0
 93
     1
 72
     2
 10
-2.77555756156E-017
 20
-1.38777878078E-017
 40
0.0075
 50
0.0
 51
360.0
 73
     1
 97
     0
 75
     0
 76
     1
 98
     1
 10
0.0
 20
0.0
  0
ENDBLK
  5
E4
330
2C
100
AcDbEntity
  8
0
100
AcDbBlockEnd
  0
BLOCK
  5
E6
330
2D
100
AcDbEntity
  8
0
100
AcDbBlockBegin
  2
CUSTOM_28
 70
     0
 10
0.0
 20
0.0
 30
0.0
  3
CUSTOM_28
  1

  0
SOLID
  5
E8
330
2D
100
AcDbEntity
  8
0
  6
BYLAYER
 62
   256
100
AcDbTrace
 10
-0.0168499737533
 20
-0.0206499737533
 30
0.0
 11
-0.0168499737533
 21
-0.0206395800525
 31
0.0
 12
0.0168499737533
 22
-0.0206499737533
 32
0.0
 13
0.0168499737533
 23
-0.0206395800525
 33
0.0
  0
SOLID
  5
E9
330
2D
100
AcDbEntity
  8
0
  6
BYLAYER
 62
   256
100
AcDbTrace
 10
-0.0168499737533
 20
-0.0206395800525
 30
0.0
 11
-0.0175071391076
 21
-0.0205743832021
 31
0.0
 12
0.0168499737533
 22
-0.0206395800525
 32
0.0
 13
0.0171148031496
 23
-0.0205743832021
 33
0.0
  0
SOLID
  5
EA
330
2D
100
AcDbEntity
  8
0
  6
BYLAYER
 62
   256
100
AcDbTrace
 10
-0.0175071391076
 20
-0.0205743832021
 30
0.0
 11
-0.0183092913386
 21
-0.0202228346457
 31
0.0
 12
0.0171148031496
 22
-0.0205743832021
 32
0.0
 13
0.0185430446194
 23
-0.0202228346457
 33
0.0
  0
SOLID
  5
EB
330
2D
100
AcDbEntity
  8
0
  6
BYLAYER
 62
   256
100
AcDbTrace
 10
-0.0183092913386
 20
-0.0202228346457
 30
0.0
 11
-0.0191041469816
 21
-0.019874488189
 31
0.0
 12
0.0185430446194
 22
-0.0202228346457
 32
0.0
 13
0.0189581102362
 23
-0.019874488189
 33
0.0
  0
SOLID
  5
EC
330
2D
100
AcDbEntity
  8
0
  6
BYLAYER
 62
   256
100
AcDbTrace
 10
-0.0191041469816
 20
-0.019874488189
 30
0.0
 11
-0.0197559580052
 21
-0.0191019422572
 31
0.0
 12
0.0189581102362
 22
-0.019874488189
 32
0.0
 13
0.0198787401575
 23
-0.0191019422572
 33
0.0
  0
SOLID
  5
ED
330
2D
100
AcDbEntity
  8
0
  6
BYLAYER
 62
   256
100
AcDbTrace
 10
-0.0197559580052
 20
-0.0191019422572
 30
0.0
 11
-0.0202285564304
 21
-0.0185418897638
 31
0.0
 12
0.0198787401575
 22
-0.0191019422572
 32
0.0
 13
0.020125984252
 23
-0.0185418897638
 33
0.0
  0
SOLID
  5
EE
330
2D
100
AcDbEntity
  8
0
  6
BYLAYER
 62
   256
100
AcDbTrace
 10
-0.0202285564304
 20
-0.0185418897638
 30
0.0
 11
-0.0204862992126
 21
-0.0175069291339
 31
0.0
 12
0.020125984252
 22
-0.0185418897638
 32
0.0
 13
0.020582992126
 23
-0.0175069291339
 33
0.0
  0
SOLID
  5
EF
330
2D
100
AcDbEntity
  8
0
  6
BYLAYER
 62
   256
100
AcDbTrace
 10
-0.0204862992126
 20
-0.0175069291339
 30
0.0
 11
-0.0206499737533
 21
-0.0168499737533
 31
0.0
 12
0.020582992126
 22
-0.0175069291339
 32
0.0
 13
0.0206499737533
 23
-0.0168499737533
 33
0.0
  0
SOLID
  5
F0
330
2D
100
AcDbEntity
  8
0
  6
BYLAYER
 62
   256
100
AcDbTrace
 10
-0.0206499737533
 20
-0.0168499737533
 30
0.0
 11
-0.0206499737533
 21
-0.0168
 31
0.0
 12
0.0206499737533
 22
-0.0168499737533
 32
0.0
 13
0.0206499737533
 23
-0.0168
 33
0.0
  0
SOLID
  5
F1
330
2D
100
AcDbEntity
  8
0
  6
BYLAYER
 62
   256
100
AcDbTrace
 10
-0.0206499737533
 20
-0.0168
 30
0.0
 11
-0.0206499737533
 21
0.0168
 31
0.0
 12
0.0206499737533
 22
-0.0168
 32
0.0
 13
0.0206499737533
 23
0.0168
 33
0.0
  0
SOLID
  5
F2
330
2D
100
AcDbEntity
  8
0
  6
BYLAYER
 62
   256
100
AcDbTrace
 10
-0.0206499737533
 20
0.0168
 30
0.0
 11
-0.0206499737533
 21
0.0168499737533
 31
0.0
 12
0.0206499737533
 22
0.0168
 32
0.0
 13
0.0206499737533
 23
0.0168499737533
 33
0.0
  0
SOLID
  5
F3
330
2D
100
AcDbEntity
  8
0
  6
BYLAYER
 62
   256
100
AcDbTrace
 10
-0.0206499737533
 20
0.0168499737533
 30
0.0
 11
-0.020582992126
 21
0.0175069816273
 31
0.0
 12
0.0206499737533
 22
0.0168499737533
 32
0.0
 13
0.020486351706
 23
0.0175069816273
 33
0.0
  0
SOLID
  5
F4
330
2D
100
AcDbEntity
  8
0
  6
BYLAYER
 62
   256
100
AcDbTrace
 10
-0.020582992126
 20
0.0175069816273
 30
0.0
 11
-0.0201260367454
 21
0.0185419422572
 31
0.0
 12
0.020486351706
 22
0.0175069816273
 32
0.0
 13
0.0202285564304
 23
0.0185419422572
 33
0.0
  0
SOLID
  5
F5
330
2D
100
AcDbEntity
  8
0
  6
BYLAYER
 62
   256
100
AcDbTrace
 10
-0.0201260367454
 20
0.0185419422572
 30
0.0
 11
-0.0198787401575
 21
0.0191020472441
 31
0.0
 12
0.0202285564304
 22
0.0185419422572
 32
0.0
 13
0.0197559580052
 23
0.0191020472441
 33
0.0
  0
SOLID
  5
F6
330
2D
100
AcDbEntity
  8
0
  6
BYLAYER
 62
   256
100
AcDbTrace
 10
-0.0198787401575
 20
0.0191020472441
 30
0.0
 11
-0.0189581102362
 21
0.0198745406824
 31
0.0
 12
0.0197559580052
 22
0.0191020472441
 32
0.0
 13
0.0191040944882
 23
0.0198745406824
 33
0.0
  0
SOLID
  5
F7
330
2D
100
AcDbEntity
  8
0
  6
BYLAYER
 62
   256
100
AcDbTrace
 10
-0.0189581102362
 20
0.0198745406824
 30
0.0
 11
-0.0185430446194
 21
0.0202228346457
 31
0.0
 12
0.0191040944882
 22
0.0198745406824
 32
0.0
 13
0.0183095013123
 23
0.0202228346457
 33
0.0
  0
SOLID
  5
F8
330
2D
100
AcDbEntity
  8
0
  6
BYLAYER
 62
   256
100
AcDbTrace
 10
-0.0185430446194
 20
0.0202228346457
 30
0.0
 11
-0.0171145406824
 21
0.020574488189
 31
0.0
 12
0.0183095013123
 22
0.0202228346457
 32
0.0
 13
0.0175070866142
 23
0.020574488189
 33
0.0
  0
SOLID
  5
F9
330
2D
100
AcDbEntity
  8
0
  6
BYLAYER
 62
   256
100
AcDbTrace
 10
-0.0171145406824
 20
0.020574488189
 30
0.0
 11
-0.0168499737533
 21
0.0206395800525
 31
0.0
 12
0.0175070866142
 22
0.020574488189
 32
0.0
 13
0.0168499737533
 23
0.0206395800525
 33
0.0
  0
SOLID
  5
FA
330
2D
100
AcDbEntity
  8
0
  6
BYLAYER
 62
   256
100
AcDbTrace
 10
-0.0168499737533
 20
0.0206395800525
 30
0.0
 11
-0.0168499737533
 21
0.0206499737533
 31
0.0
 12
0.0168499737533
 22
0.0206395800525
 32
0.0
 13
0.0168499737533
 23
0.0206499737533
 33
0.0
  0
ENDBLK
  5
E7
330
2D
100
AcDbEntity
  8
0
100
AcDbBlockEnd
  0
BLOCK
  5
FB
330
2E
100
AcDbEntity
  8
0
100
AcDbBlockBegin
  2
ROUND_30
 70
     0
 10
0.0
 20
0.0
 30
0.0
  3
ROUND_30
  1

  0
HATCH
  5
FD
330
2E
100
AcDbEntity
  8
0
100
AcDbHatch
 10
0.0
 20
0.0
 30
0.0
210
0.0
220
0.0
230
1.0
  2
SOLID
 70
     1
 71
     0
 91
     1
 92
     0
 93
     1
 72
     2
 10
-2.77555756156E-017
 20
-1.38777878078E-017
 40
0.003
 50
0.0
 51
360.0
 73
     1
 97
     0
 75
     0
 76
     1
 98
     1
 10
0.0
 20
0.0
  0
ENDBLK
  5
FC
330
2E
100
AcDbEntity
  8
0
100
AcDbBlockEnd
  0
BLOCK
  5
FE
330
2F
100
AcDbEntity
  8
0
100
AcDbBlockBegin
  2
CUSTOM_31
 70
     0
 10
0.0
 20
0.0
 30
0.0
  3
CUSTOM_31
  1

  0
SOLID
  5
100
330
2F
100
AcDbEntity
  8
0
  6
BYLAYER
 62
   256
100
AcDbTrace
 10
-0.0283499737533
 20
-0.0787499737533
 30
0.0
 11
-0.0297605249344
 21
-0.0783318635171
 31
0.0
 12
0.0283499737533
 22
-0.0787499737533
 32
0.0
 13
0.0298683989501
 23
-0.0783318635171
 33
0.0
  0
SOLID
  5
101
330
2F
100
AcDbEntity
  8
0
  6
BYLAYER
 62
   256
100
AcDbTrace
 10
-0.0297605249344
 20
-0.0783318635171
 30
0.0
 11
-0.0299735958005
 21
-0.0782687139108
 31
0.0
 12
0.0298683989501
 22
-0.0783318635171
 32
0.0
 13
0.0299329658793
 23
-0.0782687139108
 33
0.0
  0
SOLID
  5
102
330
2F
100
AcDbEntity
  8
0
  6
BYLAYER
 62
   256
100
AcDbTrace
 10
-0.0299735958005
 20
-0.0782687139108
 30
0.0
 11
-0.0309556430446
 21
-0.0772311811024
 31
0.0
 12
0.0299329658793
 22
-0.0782687139108
 32
0.0
 13
0.0309946981627
 23
-0.0772311811024
 33
0.0
  0
SOLID
  5
103
330
2F
100
AcDbEntity
  8
0
  6
BYLAYER
 62
   256
100
AcDbTrace
 10
-0.0309556430446
 20
-0.0772311811024
 30
0.0
 11
-0.0310562729659
 21
-0.0771248818898
 31
0.0
 12
0.0309946981627
 22
-0.0772311811024
 32
0.0
 13
0.0310243044619
 23
-0.0771248818898
 33
0.0
  0
SOLID
  5
104
330
2F
100
AcDbEntity
  8
0
  6
BYLAYER
 62
   256
100
AcDbTrace
 10
-0.0310562729659
 20
-0.0771248818898
 30
0.0
 11
-0.0314499737533
 21
-0.0756
 31
0.0
 12
0.0310243044619
 22
-0.0771248818898
 32
0.0
 13
0.0314499737533
 23
-0.0756
 33
0.0
  0
SOLID
  5
105
330
2F
100
AcDbEntity
  8
0
  6
BYLAYER
 62
   256
100
AcDbTrace
 10
-0.0315
 20
-0.0756
 30
0.0
 11
-0.0315
 21
0.0756
 31
0.0
 12
0.0315
 22
-0.0756
 32
0.0
 13
0.0315
 23
0.0756
 33
0.0
  0
SOLID
  5
106
330
2F
100
AcDbEntity
  8
0
  6
BYLAYER
 62
   256
100
AcDbTrace
 10
-0.0314499737533
 20
0.0756
 30
0.0
 11
-0.0310244094488
 21
0.0771248818898
 31
0.0
 12
0.0314499737533
 22
0.0756
 32
0.0
 13
0.0310562729659
 23
0.0771248818898
 33
0.0
  0
SOLID
  5
107
330
2F
100
AcDbEntity
  8
0
  6
BYLAYER
 62
   256
100
AcDbTrace
 10
-0.0310244094488
 20
0.0771248818898
 30
0.0
 11
-0.0309946981627
 21
0.0772311811024
 31
0.0
 12
0.0310562729659
 22
0.0771248818898
 32
0.0
 13
0.0309557480315
 23
0.0772311811024
 33
0.0
  0
SOLID
  5
108
330
2F
100
AcDbEntity
  8
0
  6
BYLAYER
 62
   256
100
AcDbTrace
 10
-0.0309946981627
 20
0.0772311811024
 30
0.0
 11
-0.0299330708661
 21
0.0782687139108
 31
0.0
 12
0.0309557480315
 22
0.0772311811024
 32
0.0
 13
0.0299735958005
 23
0.0782687139108
 33
0.0
  0
SOLID
  5
109
330
2F
100
AcDbEntity
  8
0
  6
BYLAYER
 62
   256
100
AcDbTrace
 10
-0.0299330708661
 20
0.0782687139108
 30
0.0
 11
-0.0298683989501
 21
0.0783318635171
 31
0.0
 12
0.0299735958005
 22
0.0782687139108
 32
0.0
 13
0.0297606299213
 23
0.0783318635171
 33
0.0
  0
SOLID
  5
10A
330
2F
100
AcDbEntity
  8
0
  6
BYLAYER
 62
   256
100
AcDbTrace
 10
-0.0298683989501
 20
0.0783318635171
 30
0.0
 11
-0.0283499737533
 21
0.0787499737533
 31
0.0
 12
0.0297606299213
 22
0.0783318635171
 32
0.0
 13
0.0283499737533
 23
0.0787499737533
 33
0.0
  0
ENDBLK
  5
FF
330
2F
100
AcDbEntity
  8
0
100
AcDbBlockEnd
  0
BLOCK
  5
10B
330
30
100
AcDbEntity
  8
0
100
AcDbBlockBegin
  2
CUSTOM_32
 70
     0
 10
0.0
 20
0.0
 30
0.0
  3
CUSTOM_32
  1

  0
SOLID
  5
10D
330
30
100
AcDbEntity
  8
0
  6
BYLAYER
 62
   256
100
AcDbTrace
 10
-0.0053
 20
-0.0236
 30
0.0
 11
-0.00548619422572
 21
-0.0235702887139
 31
0.0
 12
0.0053
 22
-0.0236
 32
0.0
 13
0.00534461942257
 23
-0.0235702887139
 33
0.0
  0
SOLID
  5
10E
330
30
100
AcDbEntity
  8
0
  6
BYLAYER
 62
   256
100
AcDbTrace
 10
-0.00548619422572
 20
-0.0235702887139
 30
0.0
 11
-0.00575296587927
 21
-0.0232330708661
 31
0.0
 12
0.00534461942257
 22
-0.0235702887139
 32
0.0
 13
0.00585265091864
 23
-0.0232330708661
 33
0.0
  0
SOLID
  5
10F
330
30
100
AcDbEntity
  8
0
  6
BYLAYER
 62
   256
100
AcDbTrace
 10
-0.00575296587927
 20
-0.0232330708661
 30
0.0
 11
-0.00589784776903
 21
-0.0230499737533
 31
0.0
 12
0.00585265091864
 22
-0.0232330708661
 32
0.0
 13
0.00589784776903
 23
-0.0230499737533
 33
0.0
  0
SOLID
  5
110
330
30
100
AcDbEntity
  8
0
  6
BYLAYER
 62
   256
100
AcDbTrace
 10
-0.0059
 20
-0.0230499737533
 30
0.0
 11
-0.0059
 21
-0.0230184776903
 31
0.0
 12
0.0059
 22
-0.0230499737533
 32
0.0
 13
0.0059
 23
-0.0230184776903
 33
0.0
  0
SOLID
  5
111
330
30
100
AcDbEntity
  8
0
  6
BYLAYER
 62
   256
100
AcDbTrace
 10
-0.0059
 20
-0.0230184776903
 30
0.0
 11
-0.0059
 21
-0.023
 31
0.0
 12
0.00589921259843
 22
-0.0230184776903
 32
0.0
 13
0.0059
 23
-0.023
 33
0.0
  0
SOLID
  5
112
330
30
100
AcDbEntity
  8
0
  6
BYLAYER
 62
   256
100
AcDbTrace
 10
-0.0059
 20
-0.023
 30
0.0
 11
-0.0059
 21
0.023
 31
0.0
 12
0.0059
 22
-0.023
 32
0.0
 13
0.0059
 23
0.023
 33
0.0
  0
SOLID
  5
113
330
30
100
AcDbEntity
  8
0
  6
BYLAYER
 62
   256
100
AcDbTrace
 10
-0.0059
 20
0.023
 30
0.0
 11
-0.0059
 21
0.0230184776903
 31
0.0
 12
0.0059
 22
0.023
 32
0.0
 13
0.00589921259843
 23
0.0230184776903
 33
0.0
  0
SOLID
  5
114
330
30
100
AcDbEntity
  8
0
  6
BYLAYER
 62
   256
100
AcDbTrace
 10
-0.0059
 20
0.0230184776903
 30
0.0
 11
-0.0059
 21
0.0230499737533
 31
0.0
 12
0.0059
 22
0.0230184776903
 32
0.0
 13
0.0059
 23
0.0230499737533
 33
0.0
  0
SOLID
  5
115
330
30
100
AcDbEntity
  8
0
  6
BYLAYER
 62
   256
100
AcDbTrace
 10
-0.00589784776903
 20
0.0230499737533
 30
0.0
 11
-0.00585265091864
 21
0.0232330708661
 31
0.0
 12
0.00589784776903
 22
0.0230499737533
 32
0.0
 13
0.00575307086614
 23
0.0232330708661
 33
0.0
  0
SOLID
  5
116
330
30
100
AcDbEntity
  8
0
  6
BYLAYER
 62
   256
100
AcDbTrace
 10
-0.00585265091864
 20
0.0232330708661
 30
0.0
 11
-0.00534472440945
 21
0.0235702887139
 31
0.0
 12
0.00575307086614
 22
0.0232330708661
 32
0.0
 13
0.00548619422572
 23
0.0235702887139
 33
0.0
  0
SOLID
  5
117
330
30
100
AcDbEntity
  8
0
  6
BYLAYER
 62
   256
100
AcDbTrace
 10
-0.00534472440945
 20
0.0235702887139
 30
0.0
 11
-0.0053
 21
0.0236
 31
0.0
 12
0.00548619422572
 22
0.0235702887139
 32
0.0
 13
0.0053
 23
0.0236
 33
0.0
  0
ENDBLK
  5
10C
330
30
100
AcDbEntity
  8
0
100
AcDbBlockEnd
  0
BLOCK
  5
118
330
31
100
AcDbEntity
  8
0
100
AcDbBlockBegin
  2
CUSTOM_33
 70
     0
 10
0.0
 20
0.0
 30
0.0
  3
CUSTOM_33
  1

  0
SOLID
  5
11A
330
31
100
AcDbEntity
  8
0
  6
BYLAYER
 62
   256
100
AcDbTrace
 10
-0.0230499737533
 20
-0.0059
 30
0.0
 11
-0.0230499737533
 21
-0.00589784776903
 31
0.0
 12
0.0230499737533
 22
-0.0059
 32
0.0
 13
0.0230499737533
 23
-0.00589784776903
 33
0.0
  0
SOLID
  5
11B
330
31
100
AcDbEntity
  8
0
  6
BYLAYER
 62
   256
100
AcDbTrace
 10
-0.0230499737533
 20
-0.00589784776903
 30
0.0
 11
-0.0232332808399
 21
-0.00585275590551
 31
0.0
 12
0.0230499737533
 22
-0.00589784776903
 32
0.0
 13
0.0231069816273
 23
-0.00585275590551
 33
0.0
  0
SOLID
  5
11C
330
31
100
AcDbEntity
  8
0
  6
BYLAYER
 62
   256
100
AcDbTrace
 10
-0.0232332808399
 20
-0.00585275590551
 30
0.0
 11
-0.0234764304462
 21
-0.00548619422572
 31
0.0
 12
0.0231069816273
 22
-0.00585275590551
 32
0.0
 13
0.0235702887139
 23
-0.00548619422572
 33
0.0
  0
SOLID
  5
11D
330
31
100
AcDbEntity
  8
0
  6
BYLAYER
 62
   256
100
AcDbTrace
 10
-0.0234764304462
 20
-0.00548619422572
 30
0.0
 11
-0.0236
 21
-0.0053
 31
0.0
 12
0.0235702887139
 22
-0.00548619422572
 32
0.0
 13
0.0236
 23
-0.0053
 33
0.0
  0
SOLID
  5
11E
330
31
100
AcDbEntity
  8
0
  6
BYLAYER
 62
   256
100
AcDbTrace
 10
-0.0236
 20
-0.0053
 30
0.0
 11
-0.0236
 21
0.0053
 31
0.0
 12
0.0236
 22
-0.0053
 32
0.0
 13
0.0236
 23
0.0053
 33
0.0
  0
SOLID
  5
11F
330
31
100
AcDbEntity
  8
0
  6
BYLAYER
 62
   256
100
AcDbTrace
 10
-0.0236
 20
0.0053
 30
0.0
 11
-0.0235702362205
 21
0.00548635170604
 31
0.0
 12
0.0236
 22
0.0053
 32
0.0
 13
0.0234762729659
 23
0.00548635170604
 33
0.0
  0
SOLID
  5
120
330
31
100
AcDbEntity
  8
0
  6
BYLAYER
 62
   256
100
AcDbTrace
 10
-0.0235702362205
 20
0.00548635170604
 30
0.0
 11
-0.0231071391076
 21
0.00585265091864
 31
0.0
 12
0.0234762729659
 22
0.00548635170604
 32
0.0
 13
0.0232330708661
 23
0.00585265091864
 33
0.0
  0
SOLID
  5
121
330
31
100
AcDbEntity
  8
0
  6
BYLAYER
 62
   256
100
AcDbTrace
 10
-0.0231071391076
 20
0.00585265091864
 30
0.0
 11
-0.0230499737533
 21
0.00589784776903
 31
0.0
 12
0.0232330708661
 22
0.00585265091864
 32
0.0
 13
0.0230499737533
 23
0.00589784776903
 33
0.0
  0
SOLID
  5
122
330
31
100
AcDbEntity
  8
0
  6
BYLAYER
 62
   256
100
AcDbTrace
 10
-0.0230499737533
 20
0.00589784776903
 30
0.0
 11
-0.0230499737533
 21
0.0059
 31
0.0
 12
0.0230499737533
 22
0.00589784776903
 32
0.0
 13
0.0230499737533
 23
0.0059
 33
0.0
  0
ENDBLK
  5
119
330
31
100
AcDbEntity
  8
0
100
AcDbBlockEnd
  0
BLOCK
  5
123
330
32
100
AcDbEntity
  8
0
100
AcDbBlockBegin
  2
CUSTOM_56
 70
     0
 10
0.0
 20
0.0
 30
0.0
  3
CUSTOM_56
  1

  0
SOLID
  5
125
330
32
100
AcDbEntity
  8
0
  6
BYLAYER
 62
   256
100
AcDbTrace
 10
-0.0254
 20
-0.0216499737533
 30
0.0
 11
-0.0261290288714
 21
-0.021522519685
 31
0.0
 12
0.0254
 22
-0.0216499737533
 32
0.0
 13
0.0258030446194
 23
-0.021522519685
 33
0.0
  0
SOLID
  5
126
330
32
100
AcDbEntity
  8
0
  6
BYLAYER
 62
   256
100
AcDbTrace
 10
-0.0261290288714
 20
-0.021522519685
 30
0.0
 11
-0.0264737532808
 21
-0.0212592125984
 31
0.0
 12
0.0258030446194
 22
-0.021522519685
 32
0.0
 13
0.0266358005249
 23
-0.0212592125984
 33
0.0
  0
SOLID
  5
127
330
32
100
AcDbEntity
  8
0
  6
BYLAYER
 62
   256
100
AcDbTrace
 10
-0.0264737532808
 20
-0.0212592125984
 30
0.0
 11
-0.0271592125984
 21
-0.0207358005249
 31
0.0
 12
0.0266358005249
 22
-0.0212592125984
 32
0.0
 13
0.0270354855643
 23
-0.0207358005249
 33
0.0
  0
SOLID
  5
128
330
32
100
AcDbEntity
  8
0
  6
BYLAYER
 62
   256
100
AcDbTrace
 10
-0.0271592125984
 20
-0.0207358005249
 30
0.0
 11
-0.0273194225722
 21
-0.0202290288714
 31
0.0
 12
0.0270354855643
 22
-0.0207358005249
 32
0.0
 13
0.027422519685
 23
-0.0202290288714
 33
0.0
  0
SOLID
  5
129
330
32
100
AcDbEntity
  8
0
  6
BYLAYER
 62
   256
100
AcDbTrace
 10
-0.0273194225722
 20
-0.0202290288714
 30
0.0
 11
-0.0275499737533
 21
-0.0195
 31
0.0
 12
0.027422519685
 22
-0.0202290288714
 32
0.0
 13
0.0275499737533
 23
-0.0195
 33
0.0
  0
SOLID
  5
12A
330
32
100
AcDbEntity
  8
0
  6
BYLAYER
 62
   256
100
AcDbTrace
 10
-0.0275499737533
 20
-0.0195
 30
0.0
 11
-0.0275499737533
 21
0.0195
 31
0.0
 12
0.0275499737533
 22
-0.0195
 32
0.0
 13
0.0275499737533
 23
0.0195
 33
0.0
  0
SOLID
  5
12B
330
32
100
AcDbEntity
  8
0
  6
BYLAYER
 62
   256
100
AcDbTrace
 10
-0.0275499737533
 20
0.0195
 30
0.0
 11
-0.027422519685
 21
0.0202290288714
 31
0.0
 12
0.0275499737533
 22
0.0195
 32
0.0
 13
0.0273195275591
 23
0.0202290288714
 33
0.0
  0
SOLID
  5
12C
330
32
100
AcDbEntity
  8
0
  6
BYLAYER
 62
   256
100
AcDbTrace
 10
-0.027422519685
 20
0.0202290288714
 30
0.0
 11
-0.0270355905512
 21
0.0207358005249
 31
0.0
 12
0.0273195275591
 22
0.0202290288714
 32
0.0
 13
0.0271592125984
 23
0.0207358005249
 33
0.0
  0
SOLID
  5
12D
330
32
100
AcDbEntity
  8
0
  6
BYLAYER
 62
   256
100
AcDbTrace
 10
-0.0270355905512
 20
0.0207358005249
 30
0.0
 11
-0.0266358005249
 21
0.0212592125984
 31
0.0
 12
0.0271592125984
 22
0.0207358005249
 32
0.0
 13
0.0264738582677
 23
0.0212592125984
 33
0.0
  0
SOLID
  5
12E
330
32
100
AcDbEntity
  8
0
  6
BYLAYER
 62
   256
100
AcDbTrace
 10
-0.0266358005249
 20
0.0212592125984
 30
0.0
 11
-0.0258031496063
 21
0.021522519685
 31
0.0
 12
0.0264738582677
 22
0.0212592125984
 32
0.0
 13
0.0261290288714
 23
0.021522519685
 33
0.0
  0
SOLID
  5
12F
330
32
100
AcDbEntity
  8
0
  6
BYLAYER
 62
   256
100
AcDbTrace
 10
-0.0258031496063
 20
0.021522519685
 30
0.0
 11
-0.0254
 21
0.0216499737533
 31
0.0
 12
0.0261290288714
 22
0.021522519685
 32
0.0
 13
0.0254
 23
0.0216499737533
 33
0.0
  0
ENDBLK
  5
124
330
32
100
AcDbEntity
  8
0
100
AcDbBlockEnd
  0
BLOCK
  5
130
330
33
100
AcDbEntity
  8
0
100
AcDbBlockBegin
  2
CUSTOM_57
 70
     0
 10
0.0
 20
0.0
 30
0.0
  3
CUSTOM_57
  1

  0
SOLID
  5
132
330
33
100
AcDbEntity
  8
0
  6
BYLAYER
 62
   256
100
AcDbTrace
 10
-0.0318
 20
-0.0069
 30
0.0
 11
-0.0321283989501
 21
-0.00681800524934
 31
0.0
 12
0.0318
 22
-0.0069
 32
0.0
 13
0.0319362729659
 23
-0.00681800524934
 33
0.0
  0
SOLID
  5
133
330
33
100
AcDbEntity
  8
0
  6
BYLAYER
 62
   256
100
AcDbTrace
 10
-0.0321283989501
 20
-0.00681800524934
 30
0.0
 11
-0.032302519685
 21
-0.00652839895013
 31
0.0
 12
0.0319362729659
 22
-0.00681800524934
 32
0.0
 13
0.0324180052493
 23
-0.00652839895013
 33
0.0
  0
SOLID
  5
134
330
33
100
AcDbEntity
  8
0
  6
BYLAYER
 62
   256
100
AcDbTrace
 10
-0.032302519685
 20
-0.00652839895013
 30
0.0
 11
-0.0325
 21
-0.0062
 31
0.0
 12
0.0324180052493
 22
-0.00652839895013
 32
0.0
 13
0.0325
 23
-0.0062
 33
0.0
  0
SOLID
  5
135
330
33
100
AcDbEntity
  8
0
  6
BYLAYER
 62
   256
100
AcDbTrace
 10
-0.0325
 20
-0.0062
 30
0.0
 11
-0.0325
 21
0.0062
 31
0.0
 12
0.0325
 22
-0.0062
 32
0.0
 13
0.0325
 23
0.0062
 33
0.0
  0
SOLID
  5
136
330
33
100
AcDbEntity
  8
0
  6
BYLAYER
 62
   256
100
AcDbTrace
 10
-0.0325
 20
0.0062
 30
0.0
 11
-0.0324180052493
 21
0.00652839895013
 31
0.0
 12
0.0325
 22
0.0062
 32
0.0
 13
0.0323025721785
 23
0.00652839895013
 33
0.0
  0
SOLID
  5
137
330
33
100
AcDbEntity
  8
0
  6
BYLAYER
 62
   256
100
AcDbTrace
 10
-0.0324180052493
 20
0.00652839895013
 30
0.0
 11
-0.0319363779528
 21
0.00681800524934
 31
0.0
 12
0.0323025721785
 22
0.00652839895013
 32
0.0
 13
0.0321283989501
 23
0.00681800524934
 33
0.0
  0
SOLID
  5
138
330
33
100
AcDbEntity
  8
0
  6
BYLAYER
 62
   256
100
AcDbTrace
 10
-0.0319363779528
 20
0.00681800524934
 30
0.0
 11
-0.0318
 21
0.0069
 31
0.0
 12
0.0321283989501
 22
0.00681800524934
 32
0.0
 13
0.0318
 23
0.0069
 33
0.0
  0
ENDBLK
  5
131
330
33
100
AcDbEntity
  8
0
100
AcDbBlockEnd
  0
BLOCK
  5
139
330
34
100
AcDbEntity
  8
0
100
AcDbBlockBegin
  2
OBLONG_58
 70
     0
 10
0.0
 20
0.0
 30
0.0
  3
OBLONG_58
  1

  0
LWPOLYLINE
  5
13B
330
34
100
AcDbEntity
  8
0
  6
BYLAYER
370
   211
 62
   256
100
AcDbPolyline
 90
     2
 70
     0
 43
0.0197
 10
0.0344499737533
 20
-1.38777878078E-017
 10
-0.0344499737533
 20
-1.38777878078E-017
  0
LWPOLYLINE
  5
13C
330
34
100
AcDbEntity
  8
0
  6
BYLAYER
370
   211
 62
   256
100
AcDbPolyline
 90
     4
 70
     0
 43
0.00984997375328
 10
0.0295250393701
 20
-1.38777878078E-017
 42
0.0
 10
0.0295250393701
 20
-1.38777878078E-017
 42
1
 10
0.0393749081365
 20
-1.38777878078E-017
 42
1
 10
0.0295250393701
 20
-1.38777878078E-017
 42
0.0
  0
LWPOLYLINE
  5
13D
330
34
100
AcDbEntity
  8
0
  6
BYLAYER
370
   211
 62
   256
100
AcDbPolyline
 90
     4
 70
     0
 43
0.00984997375328
 10
-0.0393749081365
 20
-1.38777878078E-017
 42
0.0
 10
-0.0393749081365
 20
-1.38777878078E-017
 42
1
 10
-0.0295250393701
 20
-1.38777878078E-017
 42
1
 10
-0.0393749081365
 20
-1.38777878078E-017
 42
0.0
  0
ENDBLK
  5
13A
330
34
100
AcDbEntity
  8
0
100
AcDbBlockEnd
  0
BLOCK
  5
13E
330
35
100
AcDbEntity
  8
0
100
AcDbBlockBegin
  2
CUSTOM_59
 70
     0
 10
0.0
 20
0.0
 30
0.0
  3
CUSTOM_59
  1

  0
SOLID
  5
140
330
35
100
AcDbEntity
  8
0
  6
BYLAYER
 62
   256
100
AcDbTrace
 10
-0.0453
 20
-0.0393499737533
 30
0.0
 11
-0.0461534383202
 21
-0.0392565879265
 31
0.0
 12
0.0453
 22
-0.0393499737533
 32
0.0
 13
0.0457069291339
 23
-0.0392565879265
 33
0.0
  0
SOLID
  5
141
330
35
100
AcDbEntity
  8
0
  6
BYLAYER
 62
   256
100
AcDbTrace
 10
-0.0461534383202
 20
-0.0392565879265
 30
0.0
 11
-0.0467887139108
 21
-0.0389549606299
 31
0.0
 12
0.0457069291339
 22
-0.0392565879265
 32
0.0
 13
0.0470215748031
 23
-0.0389549606299
 33
0.0
  0
SOLID
  5
142
330
35
100
AcDbEntity
  8
0
  6
BYLAYER
 62
   256
100
AcDbTrace
 10
-0.0467887139108
 20
-0.0389549606299
 30
0.0
 11
-0.0477491338583
 21
-0.0384989501312
 31
0.0
 12
0.0470215748031
 22
-0.0389549606299
 32
0.0
 13
0.0475895013123
 23
-0.0384989501312
 33
0.0
  0
SOLID
  5
143
330
35
100
AcDbEntity
  8
0
  6
BYLAYER
 62
   256
100
AcDbTrace
 10
-0.0477491338583
 20
-0.0384989501312
 30
0.0
 11
-0.0482707611549
 21
-0.0378491338583
 31
0.0
 12
0.0475895013123
 22
-0.0384989501312
 32
0.0
 13
0.0483989501312
 23
-0.0378491338583
 33
0.0
  0
SOLID
  5
144
330
35
100
AcDbEntity
  8
0
  6
BYLAYER
 62
   256
100
AcDbTrace
 10
-0.0482707611549
 20
-0.0378491338583
 30
0.0
 11
-0.0488549606299
 21
-0.0371215748031
 31
0.0
 12
0.0483989501312
 22
-0.0378491338583
 32
0.0
 13
0.0487444094488
 23
-0.0371215748031
 33
0.0
  0
SOLID
  5
145
330
35
100
AcDbEntity
  8
0
  6
BYLAYER
 62
   256
100
AcDbTrace
 10
-0.0488549606299
 20
-0.0371215748031
 30
0.0
 11
-0.0490540682415
 21
-0.0362534383202
 31
0.0
 12
0.0487444094488
 22
-0.0371215748031
 32
0.0
 13
0.0491565879265
 23
-0.0362534383202
 33
0.0
  0
SOLID
  5
146
330
35
100
AcDbEntity
  8
0
  6
BYLAYER
 62
   256
100
AcDbTrace
 10
-0.0490540682415
 20
-0.0362534383202
 30
0.0
 11
-0.0492499737533
 21
-0.0354
 31
0.0
 12
0.0491565879265
 22
-0.0362534383202
 32
0.0
 13
0.0492499737533
 23
-0.0354
 33
0.0
  0
SOLID
  5
147
330
35
100
AcDbEntity
  8
0
  6
BYLAYER
 62
   256
100
AcDbTrace
 10
-0.0492499737533
 20
-0.0354
 30
0.0
 11
-0.049237480315
 21
-0.0350857217848
 31
0.0
 12
0.0492499737533
 22
-0.0354
 32
0.0
 13
0.049237480315
 23
-0.0350857217848
 33
0.0
  0
SOLID
  5
148
330
35
100
AcDbEntity
  8
0
  6
BYLAYER
 62
   256
100
AcDbTrace
 10
-0.049237480315
 20
-0.0350857217848
 30
0.0
 11
-0.0492373753281
 21
-0.0350856692913
 31
0.0
 12
0.049237480315
 22
-0.0350857217848
 32
0.0
 13
0.049237480315
 23
-0.0350856692913
 33
0.0
  0
SOLID
  5
149
330
35
100
AcDbEntity
  8
0
  6
BYLAYER
 62
   256
100
AcDbTrace
 10
-0.0492373753281
 20
-0.0350856692913
 30
0.0
 11
-0.0492000524934
 21
-0.0347735433071
 31
0.0
 12
0.049237480315
 22
-0.0350856692913
 32
0.0
 13
0.0492
 23
-0.0347735433071
 33
0.0
  0
SOLID
  5
14A
330
35
100
AcDbEntity
  8
0
  6
BYLAYER
 62
   256
100
AcDbTrace
 10
-0.0492000524934
 20
-0.0347735433071
 30
0.0
 11
-0.0492
 21
-0.0347734383202
 31
0.0
 12
0.0492
 22
-0.0347735433071
 32
0.0
 13
0.0492
 23
-0.0347734383202
 33
0.0
  0
SOLID
  5
14B
330
35
100
AcDbEntity
  8
0
  6
BYLAYER
 62
   256
100
AcDbTrace
 10
-0.0492
 20
-0.0347734383202
 30
0.0
 11
-0.0492
 21
0.0347734383202
 31
0.0
 12
0.0492
 22
-0.0347734383202
 32
0.0
 13
0.0492
 23
0.0347734383202
 33
0.0
  0
SOLID
  5
14C
330
35
100
AcDbEntity
  8
0
  6
BYLAYER
 62
   256
100
AcDbTrace
 10
-0.0492
 20
0.0347734383202
 30
0.0
 11
-0.0492
 21
0.0347735433071
 31
0.0
 12
0.0492
 22
0.0347734383202
 32
0.0
 13
0.0492
 23
0.0347735433071
 33
0.0
  0
SOLID
  5
14D
330
35
100
AcDbEntity
  8
0
  6
BYLAYER
 62
   256
100
AcDbTrace
 10
-0.0492
 20
0.0347735433071
 30
0.0
 11
-0.049237480315
 21
0.0350856692913
 31
0.0
 12
0.0492
 22
0.0347735433071
 32
0.0
 13
0.0492373228346
 23
0.0350856692913
 33
0.0
  0
SOLID
  5
14E
330
35
100
AcDbEntity
  8
0
  6
BYLAYER
 62
   256
100
AcDbTrace
 10
-0.049237480315
 20
0.0350856692913
 30
0.0
 11
-0.049237480315
 21
0.0350857217848
 31
0.0
 12
0.0492373228346
 22
0.0350856692913
 32
0.0
 13
0.0492373753281
 23
0.0350857217848
 33
0.0
  0
SOLID
  5
14F
330
35
100
AcDbEntity
  8
0
  6
BYLAYER
 62
   256
100
AcDbTrace
 10
-0.049237480315
 20
0.0350857217848
 30
0.0
 11
-0.0492499737533
 21
0.0354
 31
0.0
 12
0.0492373753281
 22
0.0350857217848
 32
0.0
 13
0.0492499737533
 23
0.0354
 33
0.0
  0
SOLID
  5
150
330
35
100
AcDbEntity
  8
0
  6
BYLAYER
 62
   256
100
AcDbTrace
 10
-0.0492499737533
 20
0.0354
 30
0.0
 11
-0.0491565879265
 21
0.0362534383202
 31
0.0
 12
0.0492499737533
 22
0.0354
 32
0.0
 13
0.0490541732283
 23
0.0362534383202
 33
0.0
  0
SOLID
  5
151
330
35
100
AcDbEntity
  8
0
  6
BYLAYER
 62
   256
100
AcDbTrace
 10
-0.0491565879265
 20
0.0362534383202
 30
0.0
 11
-0.0487444619423
 21
0.0371215748031
 31
0.0
 12
0.0490541732283
 22
0.0362534383202
 32
0.0
 13
0.0488549606299
 23
0.0371215748031
 33
0.0
  0
SOLID
  5
152
330
35
100
AcDbEntity
  8
0
  6
BYLAYER
 62
   256
100
AcDbTrace
 10
-0.0487444619423
 20
0.0371215748031
 30
0.0
 11
-0.0483989501312
 21
0.0378491338583
 31
0.0
 12
0.0488549606299
 22
0.0371215748031
 32
0.0
 13
0.0482708661417
 23
0.0378491338583
 33
0.0
  0
SOLID
  5
153
330
35
100
AcDbEntity
  8
0
  6
BYLAYER
 62
   256
100
AcDbTrace
 10
-0.0483989501312
 20
0.0378491338583
 30
0.0
 11
-0.0475896062992
 21
0.0384989501312
 31
0.0
 12
0.0482708661417
 22
0.0378491338583
 32
0.0
 13
0.0477491338583
 23
0.0384989501312
 33
0.0
  0
SOLID
  5
154
330
35
100
AcDbEntity
  8
0
  6
BYLAYER
 62
   256
100
AcDbTrace
 10
-0.0475896062992
 20
0.0384989501312
 30
0.0
 11
-0.0470215748031
 21
0.0389549606299
 31
0.0
 12
0.0477491338583
 22
0.0384989501312
 32
0.0
 13
0.0467888188976
 23
0.0389549606299
 33
0.0
  0
SOLID
  5
155
330
35
100
AcDbEntity
  8
0
  6
BYLAYER
 62
   256
100
AcDbTrace
 10
-0.0470215748031
 20
0.0389549606299
 30
0.0
 11
-0.0457069816273
 21
0.0392565879265
 31
0.0
 12
0.0467888188976
 22
0.0389549606299
 32
0.0
 13
0.0461534383202
 23
0.0392565879265
 33
0.0
  0
SOLID
  5
156
330
35
100
AcDbEntity
  8
0
  6
BYLAYER
 62
   256
100
AcDbTrace
 10
-0.0457069816273
 20
0.0392565879265
 30
0.0
 11
-0.0453
 21
0.0393499737533
 31
0.0
 12
0.0461534383202
 22
0.0392565879265
 32
0.0
 13
0.0453
 23
0.0393499737533
 33
0.0
  0
ENDBLK
  5
13F
330
35
100
AcDbEntity
  8
0
100
AcDbBlockEnd
  0
BLOCK
  5
157
330
36
100
AcDbEntity
  8
0
100
AcDbBlockBegin
  2
CUSTOM_60
 70
     0
 10
0.0
 20
0.0
 30
0.0
  3
CUSTOM_60
  1

  0
SOLID
  5
159
330
36
100
AcDbEntity
  8
0
  6
BYLAYER
 62
   256
100
AcDbTrace
 10
-0.0128
 20
-0.0295499737533
 30
0.0
 11
-0.0128
 21
-0.0295052493438
 31
0.0
 12
0.0128
 22
-0.0295499737533
 32
0.0
 13
0.0128
 23
-0.0295052493438
 33
0.0
  0
SOLID
  5
15A
330
36
100
AcDbEntity
  8
0
  6
BYLAYER
 62
   256
100
AcDbTrace
 10
-0.0128
 20
-0.0295052493438
 30
0.0
 11
-0.0128
 21
-0.0294866141732
 31
0.0
 12
0.0128
 22
-0.0295052493438
 32
0.0
 13
0.0129483464567
 23
-0.0294866141732
 33
0.0
  0
SOLID
  5
15B
330
36
100
AcDbEntity
  8
0
  6
BYLAYER
 62
   256
100
AcDbTrace
 10
-0.0128
 20
-0.0294866141732
 30
0.0
 11
-0.0136296587927
 21
-0.0294595800525
 31
0.0
 12
0.0129483464567
 22
-0.0294866141732
 32
0.0
 13
0.0131630446194
 23
-0.0294595800525
 33
0.0
  0
SOLID
  5
15C
330
36
100
AcDbEntity
  8
0
  6
BYLAYER
 62
   256
100
AcDbTrace
 10
-0.0136296587927
 20
-0.0294595800525
 30
0.0
 11
-0.0154647769029
 21
-0.0291067716535
 31
0.0
 12
0.0131630446194
 22
-0.0294595800525
 32
0.0
 13
0.0159687139108
 23
-0.0291067716535
 33
0.0
  0
SOLID
  5
15D
330
36
100
AcDbEntity
  8
0
  6
BYLAYER
 62
   256
100
AcDbTrace
 10
-0.0154647769029
 20
-0.0291067716535
 30
0.0
 11
-0.016765984252
 21
-0.0288565879265
 31
0.0
 12
0.0159687139108
 22
-0.0291067716535
 32
0.0
 13
0.0166037795276
 23
-0.0288565879265
 33
0.0
  0
SOLID
  5
15E
330
36
100
AcDbEntity
  8
0
  6
BYLAYER
 62
   256
100
AcDbTrace
 10
-0.016765984252
 20
-0.0288565879265
 30
0.0
 11
-0.0187204724409
 21
-0.0279362204724
 31
0.0
 12
0.0166037795276
 22
-0.0288565879265
 32
0.0
 13
0.0189403149606
 23
-0.0279362204724
 33
0.0
  0
SOLID
  5
15F
330
36
100
AcDbEntity
  8
0
  6
BYLAYER
 62
   256
100
AcDbTrace
 10
-0.0187204724409
 20
-0.0279362204724
 30
0.0
 11
-0.019655328084
 21
-0.0274959580052
 31
0.0
 12
0.0189403149606
 22
-0.0279362204724
 32
0.0
 13
0.0195499212598
 23
-0.0274959580052
 33
0.0
  0
SOLID
  5
160
330
36
100
AcDbEntity
  8
0
  6
BYLAYER
 62
   256
100
AcDbTrace
 10
-0.019655328084
 20
-0.0274959580052
 30
0.0
 11
-0.0213864566929
 21
-0.0260664566929
 31
0.0
 12
0.0195499212598
 22
-0.0274959580052
 32
0.0
 13
0.0215295013123
 23
-0.0260664566929
 33
0.0
  0
SOLID
  5
161
330
36
100
AcDbEntity
  8
0
  6
BYLAYER
 62
   256
100
AcDbTrace
 10
-0.0213864566929
 20
-0.0260664566929
 30
0.0
 11
-0.0221180052493
 21
-0.0254623622047
 31
0.0
 12
0.0215295013123
 22
-0.0260664566929
 32
0.0
 13
0.0220333858268
 23
-0.0254623622047
 33
0.0
  0
SOLID
  5
162
330
36
100
AcDbEntity
  8
0
  6
BYLAYER
 62
   256
100
AcDbTrace
 10
-0.0221180052493
 20
-0.0254623622047
 30
0.0
 11
-0.0234667716535
 21
-0.0236139107612
 31
0.0
 12
0.0220333858268
 22
-0.0254623622047
 32
0.0
 13
0.0235752755906
 23
-0.0236139107612
 33
0.0
  0
SOLID
  5
163
330
36
100
AcDbEntity
  8
0
  6
BYLAYER
 62
   256
100
AcDbTrace
 10
-0.0234667716535
 20
-0.0236139107612
 30
0.0
 11
-0.0240005249344
 21
-0.0228824146982
 31
0.0
 12
0.0235752755906
 22
-0.0236139107612
 32
0.0
 13
0.0239241469816
 23
-0.0228824146982
 33
0.0
  0
SOLID
  5
164
330
36
100
AcDbEntity
  8
0
  6
BYLAYER
 62
   256
100
AcDbTrace
 10
-0.0240005249344
 20
-0.0228824146982
 30
0.0
 11
-0.0248602099738
 21
-0.0207312335958
 31
0.0
 12
0.0239241469816
 22
-0.0228824146982
 32
0.0
 13
0.0249502362205
 23
-0.0207312335958
 33
0.0
  0
SOLID
  5
165
330
36
100
AcDbEntity
  8
0
  6
BYLAYER
 62
   256
100
AcDbTrace
 10
-0.0248602099738
 20
-0.0207312335958
 30
0.0
 11
-0.0251858267717
 21
-0.0199167454068
 31
0.0
 12
0.0249502362205
 22
-0.0207312335958
 32
0.0
 13
0.0251109186352
 23
-0.0199167454068
 33
0.0
  0
SOLID
  5
166
330
36
100
AcDbEntity
  8
0
  6
BYLAYER
 62
   256
100
AcDbTrace
 10
-0.0251858267717
 20
-0.0199167454068
 30
0.0
 11
-0.0254890288714
 21
-0.0175980052493
 31
0.0
 12
0.0251109186352
 22
-0.0199167454068
 32
0.0
 13
0.0255687139108
 23
-0.0175980052493
 33
0.0
  0
SOLID
  5
167
330
36
100
AcDbEntity
  8
0
  6
BYLAYER
 62
   256
100
AcDbTrace
 10
-0.0254890288714
 20
-0.0175980052493
 30
0.0
 11
-0.0256
 21
-0.0167499737533
 31
0.0
 12
0.0255687139108
 22
-0.0175980052493
 32
0.0
 13
0.0256
 23
-0.0167499737533
 33
0.0
  0
SOLID
  5
168
330
36
100
AcDbEntity
  8
0
  6
BYLAYER
 62
   256
100
AcDbTrace
 10
-0.0256
 20
-0.0167499737533
 30
0.0
 11
-0.0256
 21
-0.0167
 31
0.0
 12
0.0256
 22
-0.0167499737533
 32
0.0
 13
0.0256
 23
-0.0167
 33
0.0
  0
SOLID
  5
169
330
36
100
AcDbEntity
  8
0
  6
BYLAYER
 62
   256
100
AcDbTrace
 10
-0.0256
 20
-0.0167
 30
0.0
 11
-0.0256
 21
0.0167
 31
0.0
 12
0.0256
 22
-0.0167
 32
0.0
 13
0.0256
 23
0.0167
 33
0.0
  0
SOLID
  5
16A
330
36
100
AcDbEntity
  8
0
  6
BYLAYER
 62
   256
100
AcDbTrace
 10
-0.0256
 20
0.0167
 30
0.0
 11
-0.0256
 21
0.0167499737533
 31
0.0
 12
0.0256
 22
0.0167
 32
0.0
 13
0.0256
 23
0.0167499737533
 33
0.0
  0
SOLID
  5
16B
330
36
100
AcDbEntity
  8
0
  6
BYLAYER
 62
   256
100
AcDbTrace
 10
-0.0256
 20
0.0167499737533
 30
0.0
 11
-0.025568976378
 21
0.0175795275591
 31
0.0
 12
0.0256
 22
0.0167499737533
 32
0.0
 13
0.0254927559055
 23
0.0175795275591
 33
0.0
  0
SOLID
  5
16C
330
36
100
AcDbEntity
  8
0
  6
BYLAYER
 62
   256
100
AcDbTrace
 10
-0.025568976378
 20
0.0175795275591
 30
0.0
 11
-0.0251075590551
 21
0.0199173753281
 31
0.0
 12
0.0254927559055
 22
0.0175795275591
 32
0.0
 13
0.0251903937008
 23
0.0199173753281
 33
0.0
  0
SOLID
  5
16D
330
36
100
AcDbEntity
  8
0
  6
BYLAYER
 62
   256
100
AcDbTrace
 10
-0.0251075590551
 20
0.0199173753281
 30
0.0
 11
-0.0249504461942
 21
0.020712808399
 31
0.0
 12
0.0251903937008
 22
0.0199173753281
 32
0.0
 13
0.0248738582677
 23
0.020712808399
 33
0.0
  0
SOLID
  5
16E
330
36
100
AcDbEntity
  8
0
  6
BYLAYER
 62
   256
100
AcDbTrace
 10
-0.0249504461942
 20
0.020712808399
 30
0.0
 11
-0.023914488189
 21
0.0228847769029
 31
0.0
 12
0.0248738582677
 22
0.020712808399
 32
0.0
 13
0.0240094488189
 23
0.0228847769029
 33
0.0
  0
SOLID
  5
16F
330
36
100
AcDbEntity
  8
0
  6
BYLAYER
 62
   256
100
AcDbTrace
 10
-0.023914488189
 20
0.0228847769029
 30
0.0
 11
-0.0235754330709
 21
0.0235954330709
 31
0.0
 12
0.0240094488189
 22
0.0228847769029
 32
0.0
 13
0.0234925984252
 23
0.0235954330709
 33
0.0
  0
SOLID
  5
170
330
36
100
AcDbEntity
  8
0
  6
BYLAYER
 62
   256
100
AcDbTrace
 10
-0.0235754330709
 20
0.0235954330709
 30
0.0
 11
-0.0220137532808
 21
0.0254675590551
 31
0.0
 12
0.0234925984252
 22
0.0235954330709
 32
0.0
 13
0.0221307086614
 23
0.0254675590551
 33
0.0
  0
SOLID
  5
171
330
36
100
AcDbEntity
  8
0
  6
BYLAYER
 62
   256
100
AcDbTrace
 10
-0.0220137532808
 20
0.0254675590551
 30
0.0
 11
-0.0215296062992
 21
0.0260479265092
 31
0.0
 12
0.0221307086614
 22
0.0254675590551
 32
0.0
 13
0.0214299737533
 23
0.0260479265092
 33
0.0
  0
SOLID
  5
172
330
36
100
AcDbEntity
  8
0
  6
BYLAYER
 62
   256
100
AcDbTrace
 10
-0.0215296062992
 20
0.0260479265092
 30
0.0
 11
-0.0195121784777
 21
0.0275047244094
 31
0.0
 12
0.0214299737533
 22
0.0260479265092
 32
0.0
 13
0.019671023622
 23
0.0275047244094
 33
0.0
  0
SOLID
  5
173
330
36
100
AcDbEntity
  8
0
  6
BYLAYER
 62
   256
100
AcDbTrace
 10
-0.0195121784777
 20
0.0275047244094
 30
0.0
 11
-0.0189403149606
 21
0.0279176377953
 31
0.0
 12
0.019671023622
 22
0.0275047244094
 32
0.0
 13
0.0187975328084
 23
0.0279176377953
 33
0.0
  0
SOLID
  5
174
330
36
100
AcDbEntity
  8
0
  6
BYLAYER
 62
   256
100
AcDbTrace
 10
-0.0189403149606
 20
0.0279176377953
 30
0.0
 11
-0.0165236745407
 21
0.0288696062992
 31
0.0
 12
0.0187975328084
 22
0.0279176377953
 32
0.0
 13
0.0167835170604
 23
0.0288696062992
 33
0.0
  0
SOLID
  5
175
330
36
100
AcDbEntity
  8
0
  6
BYLAYER
 62
   256
100
AcDbTrace
 10
-0.0165236745407
 20
0.0288696062992
 30
0.0
 11
-0.0159688188976
 21
0.0290881889764
 31
0.0
 12
0.0167835170604
 22
0.0288696062992
 32
0.0
 13
0.0156554855643
 23
0.0290881889764
 33
0.0
  0
SOLID
  5
176
330
36
100
AcDbEntity
  8
0
  6
BYLAYER
 62
   256
100
AcDbTrace
 10
-0.0159688188976
 20
0.0290881889764
 30
0.0
 11
-0.0128751706037
 21
0.0294771653543
 31
0.0
 12
0.0156554855643
 22
0.0290881889764
 32
0.0
 13
0.0136480839895
 23
0.0294771653543
 33
0.0
  0
SOLID
  5
177
330
36
100
AcDbEntity
  8
0
  6
BYLAYER
 62
   256
100
AcDbTrace
 10
-0.0128751706037
 20
0.0294771653543
 30
0.0
 11
-0.0128
 21
0.0294866141732
 31
0.0
 12
0.0136480839895
 22
0.0294771653543
 32
0.0
 13
0.0133630446194
 23
0.0294866141732
 33
0.0
  0
SOLID
  5
178
330
36
100
AcDbEntity
  8
0
  6
BYLAYER
 62
   256
100
AcDbTrace
 10
-0.0128
 20
0.0294866141732
 30
0.0
 11
-0.0128
 21
0.0295052493438
 31
0.0
 12
0.0133630446194
 22
0.0294866141732
 32
0.0
 13
0.0128
 23
0.0295052493438
 33
0.0
  0
SOLID
  5
179
330
36
100
AcDbEntity
  8
0
  6
BYLAYER
 62
   256
100
AcDbTrace
 10
-0.0128
 20
0.0295052493438
 30
0.0
 11
-0.0128
 21
0.0295499737533
 31
0.0
 12
0.0128
 22
0.0295052493438
 32
0.0
 13
0.0128
 23
0.0295499737533
 33
0.0
  0
ENDBLK
  5
158
330
36
100
AcDbEntity
  8
0
100
AcDbBlockEnd
  0
BLOCK
  5
17A
330
37
100
AcDbEntity
  8
0
100
AcDbBlockBegin
  2
CUSTOM_61
 70
     0
 10
0.0
 20
0.0
 30
0.0
  3
CUSTOM_61
  1

  0
SOLID
  5
17C
330
37
100
AcDbEntity
  8
0
  6
BYLAYER
 62
   256
100
AcDbTrace
 10
-0.0498
 20
-0.0295499737533
 30
0.0
 11
-0.0523341732283
 21
-0.0293306036745
 31
0.0
 12
0.0498
 22
-0.0295499737533
 32
0.0
 13
0.0516737532808
 23
-0.0293306036745
 33
0.0
  0
SOLID
  5
17D
330
37
100
AcDbEntity
  8
0
  6
BYLAYER
 62
   256
100
AcDbTrace
 10
-0.0523341732283
 20
-0.0293306036745
 30
0.0
 11
-0.052937007874
 21
-0.0291512335958
 31
0.0
 12
0.0516737532808
 22
-0.0293306036745
 32
0.0
 13
0.053205984252
 23
-0.0291512335958
 33
0.0
  0
SOLID
  5
17E
330
37
100
AcDbEntity
  8
0
  6
BYLAYER
 62
   256
100
AcDbTrace
 10
-0.052937007874
 20
-0.0291512335958
 30
0.0
 11
-0.0556209973753
 21
-0.0283526509186
 31
0.0
 12
0.053205984252
 22
-0.0291512335958
 32
0.0
 13
0.055397007874
 23
-0.0283526509186
 33
0.0
  0
SOLID
  5
17F
330
37
100
AcDbEntity
  8
0
  6
BYLAYER
 62
   256
100
AcDbTrace
 10
-0.0556209973753
 20
-0.0283526509186
 30
0.0
 11
-0.0562739107612
 21
-0.0279769028871
 31
0.0
 12
0.055397007874
 22
-0.0283526509186
 32
0.0
 13
0.0564279265092
 23
-0.0279769028871
 33
0.0
  0
SOLID
  5
180
330
37
100
AcDbEntity
  8
0
  6
BYLAYER
 62
   256
100
AcDbTrace
 10
-0.0562739107612
 20
-0.0279769028871
 30
0.0
 11
-0.0585932808399
 21
-0.0266422047244
 31
0.0
 12
0.0564279265092
 22
-0.0279769028871
 32
0.0
 13
0.0584537532808
 23
-0.0266422047244
 33
0.0
  0
SOLID
  5
181
330
37
100
AcDbEntity
  8
0
  6
BYLAYER
 62
   256
100
AcDbTrace
 10
-0.0585932808399
 20
-0.0266422047244
 30
0.0
 11
-0.0591795800525
 21
-0.0260902362205
 31
0.0
 12
0.0584537532808
 22
-0.0266422047244
 32
0.0
 13
0.0592915485564
 23
-0.0260902362205
 33
0.0
  0
SOLID
  5
182
330
37
100
AcDbEntity
  8
0
  6
BYLAYER
 62
   256
100
AcDbTrace
 10
-0.0591795800525
 20
-0.0260902362205
 30
0.0
 11
-0.0610902362205
 21
-0.0242915485564
 31
0.0
 12
0.0592915485564
 22
-0.0260902362205
 32
0.0
 13
0.0609847769029
 23
-0.0242915485564
 33
0.0
  0
SOLID
  5
183
330
37
100
AcDbEntity
  8
0
  6
BYLAYER
 62
   256
100
AcDbTrace
 10
-0.0610902362205
 20
-0.0242915485564
 30
0.0
 11
-0.0615502362205
 21
-0.0235932808399
 31
0.0
 12
0.0609847769029
 22
-0.0242915485564
 32
0.0
 13
0.0616422047244
 23
-0.0235932808399
 33
0.0
  0
SOLID
  5
184
330
37
100
AcDbEntity
  8
0
  6
BYLAYER
 62
   256
100
AcDbTrace
 10
-0.0615502362205
 20
-0.0235932808399
 30
0.0
 11
-0.0629769028871
 21
-0.0214279265092
 31
0.0
 12
0.0616422047244
 22
-0.0235932808399
 32
0.0
 13
0.0628882414698
 23
-0.0214279265092
 33
0.0
  0
SOLID
  5
185
330
37
100
AcDbEntity
  8
0
  6
BYLAYER
 62
   256
100
AcDbTrace
 10
-0.0629769028871
 20
-0.0214279265092
 30
0.0
 11
-0.063271023622
 21
-0.0206209973753
 31
0.0
 12
0.0628882414698
 22
-0.0214279265092
 32
0.0
 13
0.0633526509186
 23
-0.0206209973753
 33
0.0
  0
SOLID
  5
186
330
37
100
AcDbEntity
  8
0
  6
BYLAYER
 62
   256
100
AcDbTrace
 10
-0.063271023622
 20
-0.0206209973753
 30
0.0
 11
-0.0641512335958
 21
-0.018205984252
 31
0.0
 12
0.0633526509186
 22
-0.0206209973753
 32
0.0
 13
0.0640711811024
 23
-0.018205984252
 33
0.0
  0
SOLID
  5
187
330
37
100
AcDbEntity
  8
0
  6
BYLAYER
 62
   256
100
AcDbTrace
 10
-0.0641512335958
 20
-0.018205984252
 30
0.0
 11
-0.0642532808399
 21
-0.0173341732283
 31
0.0
 12
0.0640711811024
 22
-0.018205984252
 32
0.0
 13
0.0643306036745
 23
-0.0173341732283
 33
0.0
  0
SOLID
  5
188
330
37
100
AcDbEntity
  8
0
  6
BYLAYER
 62
   256
100
AcDbTrace
 10
-0.0642532808399
 20
-0.0173341732283
 30
0.0
 11
-0.0645499737533
 21
-0.0148
 31
0.0
 12
0.0643306036745
 22
-0.0173341732283
 32
0.0
 13
0.0645499737533
 23
-0.0148
 33
0.0
  0
SOLID
  5
189
330
37
100
AcDbEntity
  8
0
  6
BYLAYER
 62
   256
100
AcDbTrace
 10
-0.0645499737533
 20
-0.0148
 30
0.0
 11
-0.0645499737533
 21
-0.0147499737533
 31
0.0
 12
0.0645499737533
 22
-0.0148
 32
0.0
 13
0.0645499737533
 23
-0.0147499737533
 33
0.0
  0
SOLID
  5
18A
330
37
100
AcDbEntity
  8
0
  6
BYLAYER
 62
   256
100
AcDbTrace
 10
-0.0645499737533
 20
-0.0147499737533
 30
0.0
 11
-0.0645499737533
 21
0.0147499737533
 31
0.0
 12
0.0645499737533
 22
-0.0147499737533
 32
0.0
 13
0.0645499737533
 23
0.0147499737533
 33
0.0
  0
SOLID
  5
18B
330
37
100
AcDbEntity
  8
0
  6
BYLAYER
 62
   256
100
AcDbTrace
 10
-0.0645499737533
 20
0.0147499737533
 30
0.0
 11
-0.0645499737533
 21
0.0148
 31
0.0
 12
0.0645499737533
 22
0.0147499737533
 32
0.0
 13
0.0645499737533
 23
0.0148
 33
0.0
  0
SOLID
  5
18C
330
37
100
AcDbEntity
  8
0
  6
BYLAYER
 62
   256
100
AcDbTrace
 10
-0.0645499737533
 20
0.0148
 30
0.0
 11
-0.0643306036745
 21
0.0173341732283
 31
0.0
 12
0.0645499737533
 22
0.0148
 32
0.0
 13
0.0642533858268
 23
0.0173341732283
 33
0.0
  0
SOLID
  5
18D
330
37
100
AcDbEntity
  8
0
  6
BYLAYER
 62
   256
100
AcDbTrace
 10
-0.0643306036745
 20
0.0173341732283
 30
0.0
 11
-0.0640712335958
 21
0.018205984252
 31
0.0
 12
0.0642533858268
 22
0.0173341732283
 32
0.0
 13
0.0641512335958
 23
0.018205984252
 33
0.0
  0
SOLID
  5
18E
330
37
100
AcDbEntity
  8
0
  6
BYLAYER
 62
   256
100
AcDbTrace
 10
-0.0640712335958
 20
0.018205984252
 30
0.0
 11
-0.0633526509186
 21
0.0206209973753
 31
0.0
 12
0.0641512335958
 22
0.018205984252
 32
0.0
 13
0.0632710761155
 23
0.0206209973753
 33
0.0
  0
SOLID
  5
18F
330
37
100
AcDbEntity
  8
0
  6
BYLAYER
 62
   256
100
AcDbTrace
 10
-0.0633526509186
 20
0.0206209973753
 30
0.0
 11
-0.0628883464567
 21
0.0214279265092
 31
0.0
 12
0.0632710761155
 22
0.0206209973753
 32
0.0
 13
0.0629769028871
 23
0.0214279265092
 33
0.0
  0
SOLID
  5
190
330
37
100
AcDbEntity
  8
0
  6
BYLAYER
 62
   256
100
AcDbTrace
 10
-0.0628883464567
 20
0.0214279265092
 30
0.0
 11
-0.0616422047244
 21
0.0235932808399
 31
0.0
 12
0.0629769028871
 22
0.0214279265092
 32
0.0
 13
0.0615502887139
 23
0.0235932808399
 33
0.0
  0
SOLID
  5
191
330
37
100
AcDbEntity
  8
0
  6
BYLAYER
 62
   256
100
AcDbTrace
 10
-0.0616422047244
 20
0.0235932808399
 30
0.0
 11
-0.0609848818898
 21
0.0242915485564
 31
0.0
 12
0.0615502887139
 22
0.0235932808399
 32
0.0
 13
0.0610902362205
 23
0.0242915485564
 33
0.0
  0
SOLID
  5
192
330
37
100
AcDbEntity
  8
0
  6
BYLAYER
 62
   256
100
AcDbTrace
 10
-0.0609848818898
 20
0.0242915485564
 30
0.0
 11
-0.0592915485564
 21
0.0260902362205
 31
0.0
 12
0.0610902362205
 22
0.0242915485564
 32
0.0
 13
0.0591796850394
 23
0.0260902362205
 33
0.0
  0
SOLID
  5
193
330
37
100
AcDbEntity
  8
0
  6
BYLAYER
 62
   256
100
AcDbTrace
 10
-0.0592915485564
 20
0.0260902362205
 30
0.0
 11
-0.0584538582677
 21
0.0266422047244
 31
0.0
 12
0.0591796850394
 22
0.0260902362205
 32
0.0
 13
0.0585932808399
 23
0.0266422047244
 33
0.0
  0
SOLID
  5
194
330
37
100
AcDbEntity
  8
0
  6
BYLAYER
 62
   256
100
AcDbTrace
 10
-0.0584538582677
 20
0.0266422047244
 30
0.0
 11
-0.0564279265092
 21
0.0279769028871
 31
0.0
 12
0.0585932808399
 22
0.0266422047244
 32
0.0
 13
0.056274015748
 23
0.0279769028871
 33
0.0
  0
SOLID
  5
195
330
37
100
AcDbEntity
  8
0
  6
BYLAYER
 62
   256
100
AcDbTrace
 10
-0.0564279265092
 20
0.0279769028871
 30
0.0
 11
-0.0553970603675
 21
0.0283526509186
 31
0.0
 12
0.056274015748
 22
0.0279769028871
 32
0.0
 13
0.0556209973753
 23
0.0283526509186
 33
0.0
  0
SOLID
  5
196
330
37
100
AcDbEntity
  8
0
  6
BYLAYER
 62
   256
100
AcDbTrace
 10
-0.0553970603675
 20
0.0283526509186
 30
0.0
 11
-0.053205984252
 21
0.0291512335958
 31
0.0
 12
0.0556209973753
 22
0.0283526509186
 32
0.0
 13
0.0529370603675
 23
0.0291512335958
 33
0.0
  0
SOLID
  5
197
330
37
100
AcDbEntity
  8
0
  6
BYLAYER
 62
   256
100
AcDbTrace
 10
-0.053205984252
 20
0.0291512335958
 30
0.0
 11
-0.0516738582677
 21
0.0293306036745
 31
0.0
 12
0.0529370603675
 22
0.0291512335958
 32
0.0
 13
0.0523341732283
 23
0.0293306036745
 33
0.0
  0
SOLID
  5
198
330
37
100
AcDbEntity
  8
0
  6
BYLAYER
 62
   256
100
AcDbTrace
 10
-0.0516738582677
 20
0.0293306036745
 30
0.0
 11
-0.0498
 21
0.0295499737533
 31
0.0
 12
0.0523341732283
 22
0.0293306036745
 32
0.0
 13
0.0498
 23
0.0295499737533
 33
0.0
  0
ENDBLK
  5
17B
330
37
100
AcDbEntity
  8
0
100
AcDbBlockEnd
  0
BLOCK
  5
199
330
38
100
AcDbEntity
  8
0
100
AcDbBlockBegin
  2
CUSTOM_62
 70
     0
 10
0.0
 20
0.0
 30
0.0
  3
CUSTOM_62
  1

  0
SOLID
  5
19B
330
38
100
AcDbEntity
  8
0
  6
BYLAYER
 62
   256
100
AcDbTrace
 10
-0.00984997375328
 20
-0.0295499737533
 30
0.0
 11
-0.0112196850394
 21
-0.0294471391076
 31
0.0
 12
0.00984997375328
 22
-0.0295499737533
 32
0.0
 13
0.0105409973753
 23
-0.0294471391076
 33
0.0
  0
SOLID
  5
19C
330
38
100
AcDbEntity
  8
0
  6
BYLAYER
 62
   256
100
AcDbTrace
 10
-0.0112196850394
 20
-0.0294471391076
 30
0.0
 11
-0.0122665091864
 21
-0.029137847769
 31
0.0
 12
0.0105409973753
 22
-0.0294471391076
 32
0.0
 13
0.0126195275591
 23
-0.029137847769
 33
0.0
  0
SOLID
  5
19D
330
38
100
AcDbEntity
  8
0
  6
BYLAYER
 62
   256
100
AcDbTrace
 10
-0.0122665091864
 20
-0.029137847769
 30
0.0
 11
-0.0139049343832
 21
-0.0286538582677
 31
0.0
 12
0.0126195275591
 22
-0.029137847769
 32
0.0
 13
0.0136666666667
 23
-0.0286538582677
 33
0.0
  0
SOLID
  5
19E
330
38
100
AcDbEntity
  8
0
  6
BYLAYER
 62
   256
100
AcDbTrace
 10
-0.0139049343832
 20
-0.0286538582677
 30
0.0
 11
-0.0149765879265
 21
-0.0279631496063
 31
0.0
 12
0.0136666666667
 22
-0.0286538582677
 32
0.0
 13
0.0151611548556
 23
-0.0279631496063
 33
0.0
  0
SOLID
  5
19F
330
38
100
AcDbEntity
  8
0
  6
BYLAYER
 62
   256
100
AcDbTrace
 10
-0.0149765879265
 20
-0.0279631496063
 30
0.0
 11
-0.0162584776903
 21
-0.027137007874
 31
0.0
 12
0.0151611548556
 22
-0.0279631496063
 32
0.0
 13
0.0161066141732
 23
-0.027137007874
 33
0.0
  0
SOLID
  5
1A0
330
38
100
AcDbEntity
  8
0
  6
BYLAYER
 62
   256
100
AcDbTrace
 10
-0.0162584776903
 20
-0.027137007874
 30
0.0
 11
-0.017137480315
 21
-0.0261206824147
 31
0.0
 12
0.0161066141732
 22
-0.027137007874
 32
0.0
 13
0.0172696587927
 23
-0.0261206824147
 33
0.0
  0
SOLID
  5
1A1
330
38
100
AcDbEntity
  8
0
  6
BYLAYER
 62
   256
100
AcDbTrace
 10
-0.017137480315
 20
-0.0261206824147
 30
0.0
 11
-0.0180902362205
 21
-0.0250192125984
 31
0.0
 12
0.0172696587927
 22
-0.0261206824147
 32
0.0
 13
0.0179716535433
 23
-0.0250192125984
 33
0.0
  0
SOLID
  5
1A2
330
38
100
AcDbEntity
  8
0
  6
BYLAYER
 62
   256
100
AcDbTrace
 10
-0.0180902362205
 20
-0.0250192125984
 30
0.0
 11
-0.0186646194226
 21
-0.0237594225722
 31
0.0
 12
0.0179716535433
 22
-0.0250192125984
 32
0.0
 13
0.0187745406824
 23
-0.0237594225722
 33
0.0
  0
SOLID
  5
1A3
330
38
100
AcDbEntity
  8
0
  6
BYLAYER
 62
   256
100
AcDbTrace
 10
-0.0186646194226
 20
-0.0237594225722
 30
0.0
 11
-0.0192519685039
 21
-0.0224715485564
 31
0.0
 12
0.0187745406824
 22
-0.0237594225722
 32
0.0
 13
0.0191478740157
 23
-0.0224715485564
 33
0.0
  0
SOLID
  5
1A4
330
38
100
AcDbEntity
  8
0
  6
BYLAYER
 62
   256
100
AcDbTrace
 10
-0.0192519685039
 20
-0.0224715485564
 30
0.0
 11
-0.0194532283465
 21
-0.0210701312336
 31
0.0
 12
0.0191478740157
 22
-0.0224715485564
 32
0.0
 13
0.0195542257218
 23
-0.0210701312336
 33
0.0
  0
SOLID
  5
1A5
330
38
100
AcDbEntity
  8
0
  6
BYLAYER
 62
   256
100
AcDbTrace
 10
-0.0194532283465
 20
-0.0210701312336
 30
0.0
 11
-0.0196499737533
 21
-0.0197
 31
0.0
 12
0.0195542257218
 22
-0.0210701312336
 32
0.0
 13
0.0196499737533
 23
-0.0197
 33
0.0
  0
SOLID
  5
1A6
330
38
100
AcDbEntity
  8
0
  6
BYLAYER
 62
   256
100
AcDbTrace
 10
-0.0197
 20
-0.0197
 30
0.0
 11
-0.0197
 21
0.0197
 31
0.0
 12
0.0197
 22
-0.0197
 32
0.0
 13
0.0197
 23
0.0197
 33
0.0
  0
SOLID
  5
1A7
330
38
100
AcDbEntity
  8
0
  6
BYLAYER
 62
   256
100
AcDbTrace
 10
-0.0196499737533
 20
0.0197
 30
0.0
 11
-0.0195542257218
 21
0.0210701312336
 31
0.0
 12
0.0196499737533
 22
0.0197
 32
0.0
 13
0.0194532808399
 23
0.0210701312336
 33
0.0
  0
SOLID
  5
1A8
330
38
100
AcDbEntity
  8
0
  6
BYLAYER
 62
   256
100
AcDbTrace
 10
-0.0195542257218
 20
0.0210701312336
 30
0.0
 11
-0.0191479265092
 21
0.0224715485564
 31
0.0
 12
0.0194532808399
 22
0.0210701312336
 32
0.0
 13
0.0192519685039
 23
0.0224715485564
 33
0.0
  0
SOLID
  5
1A9
330
38
100
AcDbEntity
  8
0
  6
BYLAYER
 62
   256
100
AcDbTrace
 10
-0.0191479265092
 20
0.0224715485564
 30
0.0
 11
-0.0187745406824
 21
0.0237594225722
 31
0.0
 12
0.0192519685039
 22
0.0224715485564
 32
0.0
 13
0.0186647244094
 23
0.0237594225722
 33
0.0
  0
SOLID
  5
1AA
330
38
100
AcDbEntity
  8
0
  6
BYLAYER
 62
   256
100
AcDbTrace
 10
-0.0187745406824
 20
0.0237594225722
 30
0.0
 11
-0.0179717060367
 21
0.0250192125984
 31
0.0
 12
0.0186647244094
 22
0.0237594225722
 32
0.0
 13
0.0180902362205
 23
0.0250192125984
 33
0.0
  0
SOLID
  5
1AB
330
38
100
AcDbEntity
  8
0
  6
BYLAYER
 62
   256
100
AcDbTrace
 10
-0.0179717060367
 20
0.0250192125984
 30
0.0
 11
-0.0172696587927
 21
0.0261206824147
 31
0.0
 12
0.0180902362205
 22
0.0250192125984
 32
0.0
 13
0.0171375328084
 23
0.0261206824147
 33
0.0
  0
SOLID
  5
1AC
330
38
100
AcDbEntity
  8
0
  6
BYLAYER
 62
   256
100
AcDbTrace
 10
-0.0172696587927
 20
0.0261206824147
 30
0.0
 11
-0.0161066666667
 21
0.027137007874
 31
0.0
 12
0.0171375328084
 22
0.0261206824147
 32
0.0
 13
0.0162584776903
 23
0.027137007874
 33
0.0
  0
SOLID
  5
1AD
330
38
100
AcDbEntity
  8
0
  6
BYLAYER
 62
   256
100
AcDbTrace
 10
-0.0161066666667
 20
0.027137007874
 30
0.0
 11
-0.0151611548556
 21
0.0279631496063
 31
0.0
 12
0.0162584776903
 22
0.027137007874
 32
0.0
 13
0.0149766929134
 23
0.0279631496063
 33
0.0
  0
SOLID
  5
1AE
330
38
100
AcDbEntity
  8
0
  6
BYLAYER
 62
   256
100
AcDbTrace
 10
-0.0151611548556
 20
0.0279631496063
 30
0.0
 11
-0.0136667716535
 21
0.0286538582677
 31
0.0
 12
0.0149766929134
 22
0.0279631496063
 32
0.0
 13
0.0139049343832
 23
0.0286538582677
 33
0.0
  0
SOLID
  5
1AF
330
38
100
AcDbEntity
  8
0
  6
BYLAYER
 62
   256
100
AcDbTrace
 10
-0.0136667716535
 20
0.0286538582677
 30
0.0
 11
-0.0126195275591
 21
0.029137847769
 31
0.0
 12
0.0139049343832
 22
0.0286538582677
 32
0.0
 13
0.0122666141732
 23
0.029137847769
 33
0.0
  0
SOLID
  5
1B0
330
38
100
AcDbEntity
  8
0
  6
BYLAYER
 62
   256
100
AcDbTrace
 10
-0.0126195275591
 20
0.029137847769
 30
0.0
 11
-0.0105411023622
 21
0.0294471391076
 31
0.0
 12
0.0122666141732
 22
0.029137847769
 32
0.0
 13
0.0112196850394
 23
0.0294471391076
 33
0.0
  0
SOLID
  5
1B1
330
38
100
AcDbEntity
  8
0
  6
BYLAYER
 62
   256
100
AcDbTrace
 10
-0.0105411023622
 20
0.0294471391076
 30
0.0
 11
-0.00984997375328
 21
0.0295499737533
 31
0.0
 12
0.0112196850394
 22
0.0294471391076
 32
0.0
 13
0.00984997375328
 23
0.0295499737533
 33
0.0
  0
ENDBLK
  5
19A
330
38
100
AcDbEntity
  8
0
100
AcDbBlockEnd
  0
BLOCK
  5
1B2
330
39
100
AcDbEntity
  8
0
100
AcDbBlockBegin
  2
ROUND_63
 70
     0
 10
0.0
 20
0.0
 30
0.0
  3
ROUND_63
  1

  0
HATCH
  5
1B4
330
39
100
AcDbEntity
  8
0
100
AcDbHatch
 10
0.0
 20
0.0
 30
0.0
210
0.0
220
0.0
230
1.0
  2
SOLID
 70
     1
 71
     0
 91
     1
 92
     0
 93
     1
 72
     2
 10
-2.77555756156E-017
 20
-1.38777878078E-017
 40
0.0375
 50
0.0
 51
360.0
 73
     1
 97
     0
 75
     0
 76
     1
 98
     1
 10
0.0
 20
0.0
  0
ENDBLK
  5
1B3
330
39
100
AcDbEntity
  8
0
100
AcDbBlockEnd
  0
BLOCK
  5
1B5
330
3A
100
AcDbEntity
  8
0
100
AcDbBlockBegin
  2
ROUND_64
 70
     0
 10
0.0
 20
0.0
 30
0.0
  3
ROUND_64
  1

  0
HATCH
  5
1B7
330
3A
100
AcDbEntity
  8
0
100
AcDbHatch
 10
0.0
 20
0.0
 30
0.0
210
0.0
220
0.0
230
1.0
  2
SOLID
 70
     1
 71
     0
 91
     1
 92
     0
 93
     1
 72
     2
 10
-2.77555756156E-017
 20
-1.38777878078E-017
 40
0.00394997375328
 50
0.0
 51
360.0
 73
     1
 97
     0
 75
     0
 76
     1
 98
     1
 10
0.0
 20
0.0
  0
ENDBLK
  5
1B6
330
3A
100
AcDbEntity
  8
0
100
AcDbBlockEnd
  0
BLOCK
  5
1B8
330
3B
100
AcDbEntity
  8
0
100
AcDbBlockBegin
  2
ROUND_65
 70
     0
 10
0.0
 20
0.0
 30
0.0
  3
ROUND_65
  1

  0
HATCH
  5
1BA
330
3B
100
AcDbEntity
  8
0
100
AcDbHatch
 10
0.0
 20
0.0
 30
0.0
210
0.0
220
0.0
230
1.0
  2
SOLID
 70
     1
 71
     0
 91
     1
 92
     0
 93
     1
 72
     2
 10
-2.77555756156E-017
 20
-1.38777878078E-017
 40
0.01
 50
0.0
 51
360.0
 73
     1
 97
     0
 75
     0
 76
     1
 98
     1
 10
0.0
 20
0.0
  0
ENDBLK
  5
1B9
330
3B
100
AcDbEntity
  8
0
100
AcDbBlockEnd
  0
BLOCK
  5
1BB
330
3C
100
AcDbEntity
  8
0
100
AcDbBlockBegin
  2
ROUND_66
 70
     0
 10
0.0
 20
0.0
 30
0.0
  3
ROUND_66
  1

  0
HATCH
  5
1BD
330
3C
100
AcDbEntity
  8
0
100
AcDbHatch
 10
0.0
 20
0.0
 30
0.0
210
0.0
220
0.0
230
1.0
  2
SOLID
 70
     1
 71
     0
 91
     1
 92
     0
 93
     1
 72
     2
 10
-2.77555756156E-017
 20
-1.38777878078E-017
 40
0.0035
 50
0.0
 51
360.0
 73
     1
 97
     0
 75
     0
 76
     1
 98
     1
 10
0.0
 20
0.0
  0
ENDBLK
  5
1BC
330
3C
100
AcDbEntity
  8
0
100
AcDbBlockEnd
  0
BLOCK
  5
1BE
330
3D
100
AcDbEntity
  8
0
100
AcDbBlockBegin
  2
CUSTOM_67
 70
     0
 10
0.0
 20
0.0
 30
0.0
  3
CUSTOM_67
  1

  0
SOLID
  5
1C0
330
3D
100
AcDbEntity
  8
0
  6
BYLAYER
 62
   256
100
AcDbTrace
 10
-0.0283499737533
 20
-0.0807
 30
0.0
 11
-0.0301946981627
 21
-0.0803350131234
 31
0.0
 12
0.0283499737533
 22
-0.0807
 32
0.0
 13
0.0300773228346
 23
-0.0803350131234
 33
0.0
  0
SOLID
  5
1C1
330
3D
100
AcDbEntity
  8
0
  6
BYLAYER
 62
   256
100
AcDbTrace
 10
-0.0301946981627
 20
-0.0803350131234
 30
0.0
 11
-0.0302719685039
 21
-0.0802844619423
 31
0.0
 12
0.0300773228346
 22
-0.0803350131234
 32
0.0
 13
0.0303165879265
 23
-0.0802844619423
 33
0.0
  0
SOLID
  5
1C2
330
3D
100
AcDbEntity
  8
0
  6
BYLAYER
 62
   256
100
AcDbTrace
 10
-0.0302719685039
 20
-0.0802844619423
 30
0.0
 11
-0.0318770603675
 21
-0.0792351181102
 31
0.0
 12
0.0303165879265
 22
-0.0802844619423
 32
0.0
 13
0.0318342257218
 23
-0.0792351181102
 33
0.0
  0
SOLID
  5
1C3
330
3D
100
AcDbEntity
  8
0
  6
BYLAYER
 62
   256
100
AcDbTrace
 10
-0.0318770603675
 20
-0.0792351181102
 30
0.0
 11
-0.0319405249344
 21
-0.079141312336
 31
0.0
 12
0.0318342257218
 22
-0.0792351181102
 32
0.0
 13
0.0319699212598
 23
-0.079141312336
 33
0.0
  0
SOLID
  5
1C4
330
3D
100
AcDbEntity
  8
0
  6
BYLAYER
 62
   256
100
AcDbTrace
 10
-0.0319405249344
 20
-0.079141312336
 30
0.0
 11
-0.033003832021
 21
-0.0775705511811
 31
0.0
 12
0.0319699212598
 22
-0.079141312336
 32
0.0
 13
0.0329749606299
 23
-0.0775705511811
 33
0.0
  0
SOLID
  5
1C5
330
3D
100
AcDbEntity
  8
0
  6
BYLAYER
 62
   256
100
AcDbTrace
 10
-0.033003832021
 20
-0.0775705511811
 30
0.0
 11
-0.0330283989501
 21
-0.0774482414698
 31
0.0
 12
0.0329749606299
 22
-0.0775705511811
 32
0.0
 13
0.0330532283465
 23
-0.0774482414698
 33
0.0
  0
SOLID
  5
1C6
330
3D
100
AcDbEntity
  8
0
  6
BYLAYER
 62
   256
100
AcDbTrace
 10
-0.0330283989501
 20
-0.0774482414698
 30
0.0
 11
-0.0334
 21
-0.0756
 31
0.0
 12
0.0330532283465
 22
-0.0774482414698
 32
0.0
 13
0.0334
 23
-0.0756
 33
0.0
  0
SOLID
  5
1C7
330
3D
100
AcDbEntity
  8
0
  6
BYLAYER
 62
   256
100
AcDbTrace
 10
-0.0334499737533
 20
-0.0756
 30
0.0
 11
-0.0334499737533
 21
0.0756
 31
0.0
 12
0.0334499737533
 22
-0.0756
 32
0.0
 13
0.0334499737533
 23
0.0756
 33
0.0
  0
SOLID
  5
1C8
330
3D
100
AcDbEntity
  8
0
  6
BYLAYER
 62
   256
100
AcDbTrace
 10
-0.0334
 20
0.0756
 30
0.0
 11
-0.0330532283465
 21
0.0774482414698
 31
0.0
 12
0.0334
 22
0.0756
 32
0.0
 13
0.033028503937
 23
0.0774482414698
 33
0.0
  0
SOLID
  5
1C9
330
3D
100
AcDbEntity
  8
0
  6
BYLAYER
 62
   256
100
AcDbTrace
 10
-0.0330532283465
 20
0.0774482414698
 30
0.0
 11
-0.0329750131234
 21
0.0775705511811
 31
0.0
 12
0.033028503937
 22
0.0774482414698
 32
0.0
 13
0.033003832021
 23
0.0775705511811
 33
0.0
  0
SOLID
  5
1CA
330
3D
100
AcDbEntity
  8
0
  6
BYLAYER
 62
   256
100
AcDbTrace
 10
-0.0329750131234
 20
0.0775705511811
 30
0.0
 11
-0.0319699212598
 21
0.079141312336
 31
0.0
 12
0.033003832021
 22
0.0775705511811
 32
0.0
 13
0.0319406299213
 23
0.079141312336
 33
0.0
  0
SOLID
  5
1CB
330
3D
100
AcDbEntity
  8
0
  6
BYLAYER
 62
   256
100
AcDbTrace
 10
-0.0319699212598
 20
0.079141312336
 30
0.0
 11
-0.0318343307087
 21
0.0792351181102
 31
0.0
 12
0.0319406299213
 22
0.079141312336
 32
0.0
 13
0.0318770603675
 23
0.0792351181102
 33
0.0
  0
SOLID
  5
1CC
330
3D
100
AcDbEntity
  8
0
  6
BYLAYER
 62
   256
100
AcDbTrace
 10
-0.0318343307087
 20
0.0792351181102
 30
0.0
 11
-0.0303165879265
 21
0.0802844619423
 31
0.0
 12
0.0318770603675
 22
0.0792351181102
 32
0.0
 13
0.0302720209974
 23
0.0802844619423
 33
0.0
  0
SOLID
  5
1CD
330
3D
100
AcDbEntity
  8
0
  6
BYLAYER
 62
   256
100
AcDbTrace
 10
-0.0303165879265
 20
0.0802844619423
 30
0.0
 11
-0.0300773753281
 21
0.0803350131234
 31
0.0
 12
0.0302720209974
 22
0.0802844619423
 32
0.0
 13
0.0301946981627
 23
0.0803350131234
 33
0.0
  0
SOLID
  5
1CE
330
3D
100
AcDbEntity
  8
0
  6
BYLAYER
 62
   256
100
AcDbTrace
 10
-0.0300773753281
 20
0.0803350131234
 30
0.0
 11
-0.0283499737533
 21
0.0807
 31
0.0
 12
0.0301946981627
 22
0.0803350131234
 32
0.0
 13
0.0283499737533
 23
0.0807
 33
0.0
  0
ENDBLK
  5
1BF
330
3D
100
AcDbEntity
  8
0
100
AcDbBlockEnd
  0
BLOCK
  5
1CF
330
3E
100
AcDbEntity
  8
0
100
AcDbBlockBegin
  2
CUSTOM_68
 70
     0
 10
0.0
 20
0.0
 30
0.0
  3
CUSTOM_68
  1

  0
SOLID
  5
1D1
330
3E
100
AcDbEntity
  8
0
  6
BYLAYER
 62
   256
100
AcDbTrace
 10
-0.0053
 20
-0.0256
 30
0.0
 11
-0.0053
 21
-0.0255436220472
 31
0.0
 12
0.0053
 22
-0.0256
 32
0.0
 13
0.0053
 23
-0.0255436220472
 33
0.0
  0
SOLID
  5
1D2
330
3E
100
AcDbEntity
  8
0
  6
BYLAYER
 62
   256
100
AcDbTrace
 10
-0.0053
 20
-0.0255436220472
 30
0.0
 11
-0.00635118110236
 21
-0.025317007874
 31
0.0
 12
0.0053
 22
-0.0255436220472
 32
0.0
 13
0.00608540682415
 23
-0.025317007874
 33
0.0
  0
SOLID
  5
1D3
330
3E
100
AcDbEntity
  8
0
  6
BYLAYER
 62
   256
100
AcDbTrace
 10
-0.00635118110236
 20
-0.025317007874
 30
0.0
 11
-0.00654524934383
 21
-0.0251515485564
 31
0.0
 12
0.00608540682415
 22
-0.025317007874
 32
0.0
 13
0.0066588976378
 23
-0.0251515485564
 33
0.0
  0
SOLID
  5
1D4
330
3E
100
AcDbEntity
  8
0
  6
BYLAYER
 62
   256
100
AcDbTrace
 10
-0.00654524934383
 20
-0.0251515485564
 30
0.0
 11
-0.00742771653543
 21
-0.0243997375328
 31
0.0
 12
0.0066588976378
 22
-0.0251515485564
 32
0.0
 13
0.00732887139108
 23
-0.0243997375328
 33
0.0
  0
SOLID
  5
1D5
330
3E
100
AcDbEntity
  8
0
  6
BYLAYER
 62
   256
100
AcDbTrace
 10
-0.00742771653543
 20
-0.0243997375328
 30
0.0
 11
-0.00752272965879
 21
-0.0240957480315
 31
0.0
 12
0.00732887139108
 22
-0.0243997375328
 32
0.0
 13
0.00759989501312
 23
-0.0240957480315
 33
0.0
  0
SOLID
  5
1D6
330
3E
100
AcDbEntity
  8
0
  6
BYLAYER
 62
   256
100
AcDbTrace
 10
-0.00752272965879
 20
-0.0240957480315
 30
0.0
 11
-0.00784997375328
 21
-0.0230499737533
 31
0.0
 12
0.00759989501312
 22
-0.0240957480315
 32
0.0
 13
0.00784997375328
 23
-0.0230499737533
 33
0.0
  0
SOLID
  5
1D7
330
3E
100
AcDbEntity
  8
0
  6
BYLAYER
 62
   256
100
AcDbTrace
 10
-0.00784997375328
 20
-0.0230499737533
 30
0.0
 11
-0.00784997375328
 21
-0.023
 31
0.0
 12
0.00784997375328
 22
-0.0230499737533
 32
0.0
 13
0.00784997375328
 23
-0.023
 33
0.0
  0
SOLID
  5
1D8
330
3E
100
AcDbEntity
  8
0
  6
BYLAYER
 62
   256
100
AcDbTrace
 10
-0.00784997375328
 20
-0.023
 30
0.0
 11
-0.00784997375328
 21
0.023
 31
0.0
 12
0.00784997375328
 22
-0.023
 32
0.0
 13
0.00784997375328
 23
0.023
 33
0.0
  0
SOLID
  5
1D9
330
3E
100
AcDbEntity
  8
0
  6
BYLAYER
 62
   256
100
AcDbTrace
 10
-0.00784997375328
 20
0.023
 30
0.0
 11
-0.00784997375328
 21
0.0230499737533
 31
0.0
 12
0.00784997375328
 22
0.023
 32
0.0
 13
0.00784997375328
 23
0.0230499737533
 33
0.0
  0
SOLID
  5
1DA
330
3E
100
AcDbEntity
  8
0
  6
BYLAYER
 62
   256
100
AcDbTrace
 10
-0.00784997375328
 20
0.0230499737533
 30
0.0
 11
-0.00759989501312
 21
0.0240958005249
 31
0.0
 12
0.00784997375328
 22
0.0230499737533
 32
0.0
 13
0.00752283464567
 23
0.0240958005249
 33
0.0
  0
SOLID
  5
1DB
330
3E
100
AcDbEntity
  8
0
  6
BYLAYER
 62
   256
100
AcDbTrace
 10
-0.00759989501312
 20
0.0240958005249
 30
0.0
 11
-0.00732902887139
 21
0.0243997375328
 31
0.0
 12
0.00752283464567
 22
0.0240958005249
 32
0.0
 13
0.00742771653543
 23
0.0243997375328
 33
0.0
  0
SOLID
  5
1DC
330
3E
100
AcDbEntity
  8
0
  6
BYLAYER
 62
   256
100
AcDbTrace
 10
-0.00732902887139
 20
0.0243997375328
 30
0.0
 11
-0.00665879265092
 21
0.0251515485564
 31
0.0
 12
0.00742771653543
 22
0.0243997375328
 32
0.0
 13
0.00654535433071
 23
0.0251515485564
 33
0.0
  0
SOLID
  5
1DD
330
3E
100
AcDbEntity
  8
0
  6
BYLAYER
 62
   256
100
AcDbTrace
 10
-0.00665879265092
 20
0.0251515485564
 30
0.0
 11
-0.00608551181102
 21
0.025317007874
 31
0.0
 12
0.00654535433071
 22
0.0251515485564
 32
0.0
 13
0.00635118110236
 23
0.025317007874
 33
0.0
  0
SOLID
  5
1DE
330
3E
100
AcDbEntity
  8
0
  6
BYLAYER
 62
   256
100
AcDbTrace
 10
-0.00608551181102
 20
0.025317007874
 30
0.0
 11
-0.0053
 21
0.0255436220472
 31
0.0
 12
0.00635118110236
 22
0.025317007874
 32
0.0
 13
0.0053
 23
0.0255436220472
 33
0.0
  0
SOLID
  5
1DF
330
3E
100
AcDbEntity
  8
0
  6
BYLAYER
 62
   256
100
AcDbTrace
 10
-0.0053
 20
0.0255436220472
 30
0.0
 11
-0.0053
 21
0.0256
 31
0.0
 12
0.0053
 22
0.0255436220472
 32
0.0
 13
0.0053
 23
0.0256
 33
0.0
  0
ENDBLK
  5
1D0
330
3E
100
AcDbEntity
  8
0
100
AcDbBlockEnd
  0
BLOCK
  5
1E0
330
3F
100
AcDbEntity
  8
0
100
AcDbBlockBegin
  2
CUSTOM_69
 70
     0
 10
0.0
 20
0.0
 30
0.0
  3
CUSTOM_69
  1

  0
SOLID
  5
1E2
330
3F
100
AcDbEntity
  8
0
  6
BYLAYER
 62
   256
100
AcDbTrace
 10
-0.0230499737533
 20
-0.00784997375328
 30
0.0
 11
-0.0241017847769
 21
-0.00759984251969
 31
0.0
 12
0.0230499737533
 22
-0.00784997375328
 32
0.0
 13
0.0238563779528
 23
-0.00759984251969
 33
0.0
  0
SOLID
  5
1E3
330
3F
100
AcDbEntity
  8
0
  6
BYLAYER
 62
   256
100
AcDbTrace
 10
-0.0241017847769
 20
-0.00759984251969
 30
0.0
 11
-0.0242913385827
 21
-0.00743091863517
 31
0.0
 12
0.0238563779528
 22
-0.00759984251969
 32
0.0
 13
0.024400839895
 23
-0.00743091863517
 33
0.0
  0
SOLID
  5
1E4
330
3F
100
AcDbEntity
  8
0
  6
BYLAYER
 62
   256
100
AcDbTrace
 10
-0.0242913385827
 20
-0.00743091863517
 30
0.0
 11
-0.0251577952756
 21
-0.0066588976378
 31
0.0
 12
0.024400839895
 22
-0.00743091863517
 32
0.0
 13
0.0250618897638
 23
-0.0066588976378
 33
0.0
  0
SOLID
  5
1E5
330
3F
100
AcDbEntity
  8
0
  6
BYLAYER
 62
   256
100
AcDbTrace
 10
-0.0251577952756
 20
-0.0066588976378
 30
0.0
 11
-0.0252450393701
 21
-0.00635658792651
 31
0.0
 12
0.0250618897638
 22
-0.0066588976378
 32
0.0
 13
0.0253207874016
 23
-0.00635658792651
 33
0.0
  0
SOLID
  5
1E6
330
3F
100
AcDbEntity
  8
0
  6
BYLAYER
 62
   256
100
AcDbTrace
 10
-0.0252450393701
 20
-0.00635658792651
 30
0.0
 11
-0.0255499737533
 21
-0.0053
 31
0.0
 12
0.0253207874016
 22
-0.00635658792651
 32
0.0
 13
0.0255499737533
 23
-0.0053
 33
0.0
  0
SOLID
  5
1E7
330
3F
100
AcDbEntity
  8
0
  6
BYLAYER
 62
   256
100
AcDbTrace
 10
-0.0256
 20
-0.0053
 30
0.0
 11
-0.0256
 21
0.0053
 31
0.0
 12
0.0256
 22
-0.0053
 32
0.0
 13
0.0256
 23
0.0053
 33
0.0
  0
SOLID
  5
1E8
330
3F
100
AcDbEntity
  8
0
  6
BYLAYER
 62
   256
100
AcDbTrace
 10
-0.0255499737533
 20
0.0053
 30
0.0
 11
-0.0253207874016
 21
0.00635658792651
 31
0.0
 12
0.0255499737533
 22
0.0053
 32
0.0
 13
0.0252450918635
 23
0.00635658792651
 33
0.0
  0
SOLID
  5
1E9
330
3F
100
AcDbEntity
  8
0
  6
BYLAYER
 62
   256
100
AcDbTrace
 10
-0.0253207874016
 20
0.00635658792651
 30
0.0
 11
-0.0250619422572
 21
0.0066588976378
 31
0.0
 12
0.0252450918635
 22
0.00635658792651
 32
0.0
 13
0.0251577952756
 23
0.0066588976378
 33
0.0
  0
SOLID
  5
1EA
330
3F
100
AcDbEntity
  8
0
  6
BYLAYER
 62
   256
100
AcDbTrace
 10
-0.0250619422572
 20
0.0066588976378
 30
0.0
 11
-0.024400839895
 21
0.00743091863517
 31
0.0
 12
0.0251577952756
 22
0.0066588976378
 32
0.0
 13
0.0242913910761
 23
0.00743091863517
 33
0.0
  0
SOLID
  5
1EB
330
3F
100
AcDbEntity
  8
0
  6
BYLAYER
 62
   256
100
AcDbTrace
 10
-0.024400839895
 20
0.00743091863517
 30
0.0
 11
-0.0238564304462
 21
0.00759984251969
 31
0.0
 12
0.0242913910761
 22
0.00743091863517
 32
0.0
 13
0.0241017847769
 23
0.00759984251969
 33
0.0
  0
SOLID
  5
1EC
330
3F
100
AcDbEntity
  8
0
  6
BYLAYER
 62
   256
100
AcDbTrace
 10
-0.0238564304462
 20
0.00759984251969
 30
0.0
 11
-0.0230499737533
 21
0.00784997375328
 31
0.0
 12
0.0241017847769
 22
0.00759984251969
 32
0.0
 13
0.0230499737533
 23
0.00784997375328
 33
0.0
  0
ENDBLK
  5
1E1
330
3F
100
AcDbEntity
  8
0
100
AcDbBlockEnd
  0
BLOCK
  5
1ED
330
40
100
AcDbEntity
  8
0
100
AcDbBlockBegin
  2
CUSTOM_70
 70
     0
 10
0.0
 20
0.0
 30
0.0
  3
CUSTOM_70
  1

  0
SOLID
  5
1EF
330
40
100
AcDbEntity
  8
0
  6
BYLAYER
 62
   256
100
AcDbTrace
 10
-0.0247576902887
 20
-0.0236
 30
0.0
 11
-0.0264305511811
 21
-0.0235198950131
 31
0.0
 12
0.0247576902887
 22
-0.0236
 32
0.0
 13
0.0259954330709
 23
-0.0235198950131
 33
0.0
  0
SOLID
  5
1F0
330
40
100
AcDbEntity
  8
0
  6
BYLAYER
 62
   256
100
AcDbTrace
 10
-0.0264305511811
 20
-0.0235198950131
 30
0.0
 11
-0.0265028871391
 21
-0.0234830446194
 31
0.0
 12
0.0259954330709
 22
-0.0235198950131
 32
0.0
 13
0.0265650393701
 23
-0.0234830446194
 33
0.0
  0
SOLID
  5
1F1
330
40
100
AcDbEntity
  8
0
  6
BYLAYER
 62
   256
100
AcDbTrace
 10
-0.0265028871391
 20
-0.0234830446194
 30
0.0
 11
-0.0280444619423
 21
-0.0226981627297
 31
0.0
 12
0.0265650393701
 22
-0.0234830446194
 32
0.0
 13
0.0279862992126
 23
-0.0226981627297
 33
0.0
  0
SOLID
  5
1F2
330
40
100
AcDbEntity
  8
0
  6
BYLAYER
 62
   256
100
AcDbTrace
 10
-0.0280444619423
 20
-0.0226981627297
 30
0.0
 11
-0.0281148031496
 21
-0.0226075590551
 31
0.0
 12
0.0279862992126
 22
-0.0226981627297
 32
0.0
 13
0.0281504461942
 23
-0.0226075590551
 33
0.0
  0
SOLID
  5
1F3
330
40
100
AcDbEntity
  8
0
  6
BYLAYER
 62
   256
100
AcDbTrace
 10
-0.0281148031496
 20
-0.0226075590551
 30
0.0
 11
-0.0291548031496
 21
-0.0212674015748
 31
0.0
 12
0.0281504461942
 22
-0.0226075590551
 32
0.0
 13
0.02912
 23
-0.0212674015748
 33
0.0
  0
SOLID
  5
1F4
330
40
100
AcDbEntity
  8
0
  6
BYLAYER
 62
   256
100
AcDbTrace
 10
-0.0291548031496
 20
-0.0212674015748
 30
0.0
 11
-0.0291832020997
 21
-0.0211401574803
 31
0.0
 12
0.02912
 22
-0.0212674015748
 32
0.0
 13
0.0292121259843
 23
-0.0211401574803
 33
0.0
  0
SOLID
  5
1F5
330
40
100
AcDbEntity
  8
0
  6
BYLAYER
 62
   256
100
AcDbTrace
 10
-0.0291832020997
 20
-0.0211401574803
 30
0.0
 11
-0.0295499737533
 21
-0.0195
 31
0.0
 12
0.0292121259843
 22
-0.0211401574803
 32
0.0
 13
0.0295499737533
 23
-0.0195
 33
0.0
  0
SOLID
  5
1F6
330
40
100
AcDbEntity
  8
0
  6
BYLAYER
 62
   256
100
AcDbTrace
 10
-0.0295499737533
 20
-0.0195
 30
0.0
 11
-0.0295499737533
 21
0.0195
 31
0.0
 12
0.0295499737533
 22
-0.0195
 32
0.0
 13
0.0295499737533
 23
0.0195
 33
0.0
  0
SOLID
  5
1F7
330
40
100
AcDbEntity
  8
0
  6
BYLAYER
 62
   256
100
AcDbTrace
 10
-0.0295499737533
 20
0.0195
 30
0.0
 11
-0.0292120209974
 21
0.0211403149606
 31
0.0
 12
0.0295499737533
 22
0.0195
 32
0.0
 13
0.0291831496063
 23
0.0211403149606
 33
0.0
  0
SOLID
  5
1F8
330
40
100
AcDbEntity
  8
0
  6
BYLAYER
 62
   256
100
AcDbTrace
 10
-0.0292120209974
 20
0.0211403149606
 30
0.0
 11
-0.0291201574803
 21
0.0212674015748
 31
0.0
 12
0.0291831496063
 22
0.0211403149606
 32
0.0
 13
0.0291546981627
 23
0.0212674015748
 33
0.0
  0
SOLID
  5
1F9
330
40
100
AcDbEntity
  8
0
  6
BYLAYER
 62
   256
100
AcDbTrace
 10
-0.0291201574803
 20
0.0212674015748
 30
0.0
 11
-0.0281503937008
 21
0.0226076115486
 31
0.0
 12
0.0291546981627
 22
0.0212674015748
 32
0.0
 13
0.0281146981627
 23
0.0226076115486
 33
0.0
  0
SOLID
  5
1FA
330
40
100
AcDbEntity
  8
0
  6
BYLAYER
 62
   256
100
AcDbTrace
 10
-0.0281503937008
 20
0.0226076115486
 30
0.0
 11
-0.0279864566929
 21
0.0226981627297
 31
0.0
 12
0.0281146981627
 22
0.0226076115486
 32
0.0
 13
0.0280444094488
 23
0.0226981627297
 33
0.0
  0
SOLID
  5
1FB
330
40
100
AcDbEntity
  8
0
  6
BYLAYER
 62
   256
100
AcDbTrace
 10
-0.0279864566929
 20
0.0226981627297
 30
0.0
 11
-0.0265649343832
 21
0.0234830446194
 31
0.0
 12
0.0280444094488
 22
0.0226981627297
 32
0.0
 13
0.0265028346457
 23
0.0234830446194
 33
0.0
  0
SOLID
  5
1FC
330
40
100
AcDbEntity
  8
0
  6
BYLAYER
 62
   256
100
AcDbTrace
 10
-0.0265649343832
 20
0.0234830446194
 30
0.0
 11
-0.0259954330709
 21
0.0235198950131
 31
0.0
 12
0.0265028346457
 22
0.0234830446194
 32
0.0
 13
0.0264303937008
 23
0.0235198950131
 33
0.0
  0
SOLID
  5
1FD
330
40
100
AcDbEntity
  8
0
  6
BYLAYER
 62
   256
100
AcDbTrace
 10
-0.0259954330709
 20
0.0235198950131
 30
0.0
 11
-0.0247576902887
 21
0.0236
 31
0.0
 12
0.0264303937008
 22
0.0235198950131
 32
0.0
 13
0.0247576902887
 23
0.0236
 33
0.0
  0
ENDBLK
  5
1EE
330
40
100
AcDbEntity
  8
0
100
AcDbBlockEnd
  0
BLOCK
  5
1FE
330
41
100
AcDbEntity
  8
0
100
AcDbBlockBegin
  2
CUSTOM_71
 70
     0
 10
0.0
 20
0.0
 30
0.0
  3
CUSTOM_71
  1

  0
SOLID
  5
200
330
41
100
AcDbEntity
  8
0
  6
BYLAYER
 62
   256
100
AcDbTrace
 10
-0.0318
 20
-0.00884997375328
 30
0.0
 11
-0.0329962729659
 21
-0.00856446194226
 31
0.0
 12
0.0318
 22
-0.00884997375328
 32
0.0
 13
0.0328094488189
 23
-0.00856446194226
 33
0.0
  0
SOLID
  5
201
330
41
100
AcDbEntity
  8
0
  6
BYLAYER
 62
   256
100
AcDbTrace
 10
-0.0329962729659
 20
-0.00856446194226
 30
0.0
 11
-0.0331124934383
 21
-0.00845748031496
 31
0.0
 12
0.0328094488189
 22
-0.00856446194226
 32
0.0
 13
0.0331877690289
 23
-0.00845748031496
 33
0.0
  0
SOLID
  5
202
330
41
100
AcDbEntity
  8
0
  6
BYLAYER
 62
   256
100
AcDbTrace
 10
-0.0331124934383
 20
-0.00845748031496
 30
0.0
 11
-0.034057480315
 21
-0.00758776902887
 31
0.0
 12
0.0331877690289
 22
-0.00845748031496
 32
0.0
 13
0.0339881889764
 23
-0.00758776902887
 33
0.0
  0
SOLID
  5
203
330
41
100
AcDbEntity
  8
0
  6
BYLAYER
 62
   256
100
AcDbTrace
 10
-0.034057480315
 20
-0.00758776902887
 30
0.0
 11
-0.0341115485564
 21
-0.00739627296588
 31
0.0
 12
0.0339881889764
 22
-0.00758776902887
 32
0.0
 13
0.0341644619423
 23
-0.00739627296588
 33
0.0
  0
SOLID
  5
204
330
41
100
AcDbEntity
  8
0
  6
BYLAYER
 62
   256
100
AcDbTrace
 10
-0.0341115485564
 20
-0.00739627296588
 30
0.0
 11
-0.0344499737533
 21
-0.0062
 31
0.0
 12
0.0341644619423
 22
-0.00739627296588
 32
0.0
 13
0.0344499737533
 23
-0.0062
 33
0.0
  0
SOLID
  5
205
330
41
100
AcDbEntity
  8
0
  6
BYLAYER
 62
   256
100
AcDbTrace
 10
-0.0344499737533
 20
-0.0062
 30
0.0
 11
-0.0344499737533
 21
0.0062
 31
0.0
 12
0.0344499737533
 22
-0.0062
 32
0.0
 13
0.0344499737533
 23
0.0062
 33
0.0
  0
SOLID
  5
206
330
41
100
AcDbEntity
  8
0
  6
BYLAYER
 62
   256
100
AcDbTrace
 10
-0.0344499737533
 20
0.0062
 30
0.0
 11
-0.0341644619423
 21
0.00739627296588
 31
0.0
 12
0.0344499737533
 22
0.0062
 32
0.0
 13
0.0341116535433
 23
0.00739627296588
 33
0.0
  0
SOLID
  5
207
330
41
100
AcDbEntity
  8
0
  6
BYLAYER
 62
   256
100
AcDbTrace
 10
-0.0341644619423
 20
0.00739627296588
 30
0.0
 11
-0.0339882414698
 21
0.00758776902887
 31
0.0
 12
0.0341116535433
 22
0.00739627296588
 32
0.0
 13
0.034057480315
 23
0.00758776902887
 33
0.0
  0
SOLID
  5
208
330
41
100
AcDbEntity
  8
0
  6
BYLAYER
 62
   256
100
AcDbTrace
 10
-0.0339882414698
 20
0.00758776902887
 30
0.0
 11
-0.0331877690289
 21
0.00845748031496
 31
0.0
 12
0.034057480315
 22
0.00758776902887
 32
0.0
 13
0.0331125984252
 23
0.00845748031496
 33
0.0
  0
SOLID
  5
209
330
41
100
AcDbEntity
  8
0
  6
BYLAYER
 62
   256
100
AcDbTrace
 10
-0.0331877690289
 20
0.00845748031496
 30
0.0
 11
-0.0328095013123
 21
0.00856446194226
 31
0.0
 12
0.0331125984252
 22
0.00845748031496
 32
0.0
 13
0.0329962729659
 23
0.00856446194226
 33
0.0
  0
SOLID
  5
20A
330
41
100
AcDbEntity
  8
0
  6
BYLAYER
 62
   256
100
AcDbTrace
 10
-0.0328095013123
 20
0.00856446194226
 30
0.0
 11
-0.0318
 21
0.00884997375328
 31
0.0
 12
0.0329962729659
 22
0.00856446194226
 32
0.0
 13
0.0318
 23
0.00884997375328
 33
0.0
  0
ENDBLK
  5
1FF
330
41
100
AcDbEntity
  8
0
100
AcDbBlockEnd
  0
BLOCK
  5
20B
330
42
100
AcDbEntity
  8
0
100
AcDbBlockBegin
  2
OBLONG_72
 70
     0
 10
0.0
 20
0.0
 30
0.0
  3
OBLONG_72
  1

  0
LWPOLYLINE
  5
20D
330
42
100
AcDbEntity
  8
0
  6
BYLAYER
370
   211
 62
   256
100
AcDbPolyline
 90
     2
 70
     0
 43
0.0277
 10
0.0344499737533
 20
-1.38777878078E-017
 10
-0.0344499737533
 20
-1.38777878078E-017
  0
LWPOLYLINE
  5
20E
330
42
100
AcDbEntity
  8
0
  6
BYLAYER
370
   211
 62
   256
100
AcDbPolyline
 90
     4
 70
     0
 43
0.0138499737533
 10
0.0275250393701
 20
-1.38777878078E-017
 42
0.0
 10
0.0275250393701
 20
-1.38777878078E-017
 42
1
 10
0.0413749081365
 20
-1.38777878078E-017
 42
1
 10
0.0275250393701
 20
-1.38777878078E-017
 42
0.0
  0
LWPOLYLINE
  5
20F
330
42
100
AcDbEntity
  8
0
  6
BYLAYER
370
   211
 62
   256
100
AcDbPolyline
 90
     4
 70
     0
 43
0.0138499737533
 10
-0.0413749081365
 20
-1.38777878078E-017
 42
0.0
 10
-0.0413749081365
 20
-1.38777878078E-017
 42
1
 10
-0.0275250393701
 20
-1.38777878078E-017
 42
1
 10
-0.0413749081365
 20
-1.38777878078E-017
 42
0.0
  0
ENDBLK
  5
20C
330
42
100
AcDbEntity
  8
0
100
AcDbBlockEnd
  0
BLOCK
  5
210
330
43
100
AcDbEntity
  8
0
100
AcDbBlockBegin
  2
CUSTOM_73
 70
     0
 10
0.0
 20
0.0
 30
0.0
  3
CUSTOM_73
  1

  0
SOLID
  5
212
330
43
100
AcDbEntity
  8
0
  6
BYLAYER
 62
   256
100
AcDbTrace
 10
-0.0453
 20
-0.0433499737533
 30
0.0
 11
-0.0476537007874
 21
-0.0429935433071
 31
0.0
 12
0.0453
 22
-0.0433499737533
 32
0.0
 13
0.0475255643045
 23
-0.0429935433071
 33
0.0
  0
SOLID
  5
213
330
43
100
AcDbEntity
  8
0
  6
BYLAYER
 62
   256
100
AcDbTrace
 10
-0.0476537007874
 20
-0.0429935433071
 30
0.0
 11
-0.0477367454068
 21
-0.0429524409449
 31
0.0
 12
0.0475255643045
 22
-0.0429935433071
 32
0.0
 13
0.0477822572178
 23
-0.0429524409449
 33
0.0
  0
SOLID
  5
214
330
43
100
AcDbEntity
  8
0
  6
BYLAYER
 62
   256
100
AcDbTrace
 10
-0.0477367454068
 20
-0.0429524409449
 30
0.0
 11
-0.0499069816273
 21
-0.0418788976378
 31
0.0
 12
0.0477822572178
 22
-0.0429524409449
 32
0.0
 13
0.0498628871391
 23
-0.0418788976378
 33
0.0
  0
SOLID
  5
215
330
43
100
AcDbEntity
  8
0
  6
BYLAYER
 62
   256
100
AcDbTrace
 10
-0.0499069816273
 20
-0.0418788976378
 30
0.0
 11
-0.0499875590551
 21
-0.0417996850394
 31
0.0
 12
0.0498628871391
 22
-0.0418788976378
 32
0.0
 13
0.0500164304462
 23
-0.0417996850394
 33
0.0
  0
SOLID
  5
216
330
43
100
AcDbEntity
  8
0
  6
BYLAYER
 62
   256
100
AcDbTrace
 10
-0.0499875590551
 20
-0.0417996850394
 30
0.0
 11
-0.0516996850394
 21
-0.0401164304462
 31
0.0
 12
0.0500164304462
 22
-0.0417996850394
 32
0.0
 13
0.0516712335958
 23
-0.0401164304462
 33
0.0
  0
SOLID
  5
217
330
43
100
AcDbEntity
  8
0
  6
BYLAYER
 62
   256
100
AcDbTrace
 10
-0.0516996850394
 20
-0.0401164304462
 30
0.0
 11
-0.0517561154856
 21
-0.0400069816273
 31
0.0
 12
0.0516712335958
 22
-0.0401164304462
 32
0.0
 13
0.0517788976378
 23
-0.0400069816273
 33
0.0
  0
SOLID
  5
218
330
43
100
AcDbEntity
  8
0
  6
BYLAYER
 62
   256
100
AcDbTrace
 10
-0.0517561154856
 20
-0.0400069816273
 30
0.0
 11
-0.0528524409449
 21
-0.0378822572178
 31
0.0
 12
0.0517788976378
 22
-0.0400069816273
 32
0.0
 13
0.0528299212598
 23
-0.0378822572178
 33
0.0
  0
SOLID
  5
219
330
43
100
AcDbEntity
  8
0
  6
BYLAYER
 62
   256
100
AcDbTrace
 10
-0.0528524409449
 20
-0.0378822572178
 30
0.0
 11
-0.0528729658793
 21
-0.0377537007874
 31
0.0
 12
0.0528299212598
 22
-0.0378822572178
 32
0.0
 13
0.0528935433071
 23
-0.0377537007874
 33
0.0
  0
SOLID
  5
21A
330
43
100
AcDbEntity
  8
0
  6
BYLAYER
 62
   256
100
AcDbTrace
 10
-0.0528729658793
 20
-0.0377537007874
 30
0.0
 11
-0.0532499737533
 21
-0.0354
 31
0.0
 12
0.0528935433071
 22
-0.0377537007874
 32
0.0
 13
0.0532499737533
 23
-0.0354
 33
0.0
  0
SOLID
  5
21B
330
43
100
AcDbEntity
  8
0
  6
BYLAYER
 62
   256
100
AcDbTrace
 10
-0.0532499737533
 20
-0.0354
 30
0.0
 11
-0.053237480315
 21
-0.0349541732283
 31
0.0
 12
0.0532499737533
 22
-0.0354
 32
0.0
 13
0.053237480315
 23
-0.0349541732283
 33
0.0
  0
SOLID
  5
21C
330
43
100
AcDbEntity
  8
0
  6
BYLAYER
 62
   256
100
AcDbTrace
 10
-0.053237480315
 20
-0.0349541732283
 30
0.0
 11
-0.0532000524934
 21
-0.034509816273
 31
0.0
 12
0.053237480315
 22
-0.0349541732283
 32
0.0
 13
0.0532
 23
-0.034509816273
 33
0.0
  0
SOLID
  5
21D
330
43
100
AcDbEntity
  8
0
  6
BYLAYER
 62
   256
100
AcDbTrace
 10
-0.0532000524934
 20
-0.034509816273
 30
0.0
 11
-0.0532
 21
-0.0345097637795
 31
0.0
 12
0.0532
 22
-0.034509816273
 32
0.0
 13
0.0532
 23
-0.0345097637795
 33
0.0
  0
SOLID
  5
21E
330
43
100
AcDbEntity
  8
0
  6
BYLAYER
 62
   256
100
AcDbTrace
 10
-0.0532
 20
-0.0345097637795
 30
0.0
 11
-0.0532
 21
0.0345097637795
 31
0.0
 12
0.0532
 22
-0.0345097637795
 32
0.0
 13
0.0532
 23
0.0345097637795
 33
0.0
  0
SOLID
  5
21F
330
43
100
AcDbEntity
  8
0
  6
BYLAYER
 62
   256
100
AcDbTrace
 10
-0.0532
 20
0.0345097637795
 30
0.0
 11
-0.0532
 21
0.034509816273
 31
0.0
 12
0.0532
 22
0.0345097637795
 32
0.0
 13
0.0532
 23
0.034509816273
 33
0.0
  0
SOLID
  5
220
330
43
100
AcDbEntity
  8
0
  6
BYLAYER
 62
   256
100
AcDbTrace
 10
-0.0532
 20
0.034509816273
 30
0.0
 11
-0.053237480315
 21
0.0349541732283
 31
0.0
 12
0.0532
 22
0.034509816273
 32
0.0
 13
0.053237480315
 23
0.0349541732283
 33
0.0
  0
SOLID
  5
221
330
43
100
AcDbEntity
  8
0
  6
BYLAYER
 62
   256
100
AcDbTrace
 10
-0.053237480315
 20
0.0349541732283
 30
0.0
 11
-0.0532499737533
 21
0.0354
 31
0.0
 12
0.053237480315
 22
0.0349541732283
 32
0.0
 13
0.0532499737533
 23
0.0354
 33
0.0
  0
SOLID
  5
222
330
43
100
AcDbEntity
  8
0
  6
BYLAYER
 62
   256
100
AcDbTrace
 10
-0.0532499737533
 20
0.0354
 30
0.0
 11
-0.0528935433071
 21
0.0377537007874
 31
0.0
 12
0.0532499737533
 22
0.0354
 32
0.0
 13
0.0528730708661
 23
0.0377537007874
 33
0.0
  0
SOLID
  5
223
330
43
100
AcDbEntity
  8
0
  6
BYLAYER
 62
   256
100
AcDbTrace
 10
-0.0528935433071
 20
0.0377537007874
 30
0.0
 11
-0.0528299737533
 21
0.0378822572178
 31
0.0
 12
0.0528730708661
 22
0.0377537007874
 32
0.0
 13
0.0528524409449
 23
0.0378822572178
 33
0.0
  0
SOLID
  5
224
330
43
100
AcDbEntity
  8
0
  6
BYLAYER
 62
   256
100
AcDbTrace
 10
-0.0528299737533
 20
0.0378822572178
 30
0.0
 11
-0.0517788976378
 21
0.0400069816273
 31
0.0
 12
0.0528524409449
 22
0.0378822572178
 32
0.0
 13
0.0517562204724
 23
0.0400069816273
 33
0.0
  0
SOLID
  5
225
330
43
100
AcDbEntity
  8
0
  6
BYLAYER
 62
   256
100
AcDbTrace
 10
-0.0517788976378
 20
0.0400069816273
 30
0.0
 11
-0.0516713385827
 21
0.0401164304462
 31
0.0
 12
0.0517562204724
 22
0.0400069816273
 32
0.0
 13
0.0516996850394
 23
0.0401164304462
 33
0.0
  0
SOLID
  5
226
330
43
100
AcDbEntity
  8
0
  6
BYLAYER
 62
   256
100
AcDbTrace
 10
-0.0516713385827
 20
0.0401164304462
 30
0.0
 11
-0.0500164304462
 21
0.0417996850394
 31
0.0
 12
0.0516996850394
 22
0.0401164304462
 32
0.0
 13
0.0499876115486
 23
0.0417996850394
 33
0.0
  0
SOLID
  5
227
330
43
100
AcDbEntity
  8
0
  6
BYLAYER
 62
   256
100
AcDbTrace
 10
-0.0500164304462
 20
0.0417996850394
 30
0.0
 11
-0.049862992126
 21
0.0418788976378
 31
0.0
 12
0.0499876115486
 22
0.0417996850394
 32
0.0
 13
0.0499069816273
 23
0.0418788976378
 33
0.0
  0
SOLID
  5
228
330
43
100
AcDbEntity
  8
0
  6
BYLAYER
 62
   256
100
AcDbTrace
 10
-0.049862992126
 20
0.0418788976378
 30
0.0
 11
-0.0477822572178
 21
0.0429524409449
 31
0.0
 12
0.0499069816273
 22
0.0418788976378
 32
0.0
 13
0.0477368503937
 23
0.0429524409449
 33
0.0
  0
SOLID
  5
229
330
43
100
AcDbEntity
  8
0
  6
BYLAYER
 62
   256
100
AcDbTrace
 10
-0.0477822572178
 20
0.0429524409449
 30
0.0
 11
-0.0475256692913
 21
0.0429935433071
 31
0.0
 12
0.0477368503937
 22
0.0429524409449
 32
0.0
 13
0.0476537007874
 23
0.0429935433071
 33
0.0
  0
SOLID
  5
22A
330
43
100
AcDbEntity
  8
0
  6
BYLAYER
 62
   256
100
AcDbTrace
 10
-0.0475256692913
 20
0.0429935433071
 30
0.0
 11
-0.0453
 21
0.0433499737533
 31
0.0
 12
0.0476537007874
 22
0.0429935433071
 32
0.0
 13
0.0453
 23
0.0433499737533
 33
0.0
  0
ENDBLK
  5
211
330
43
100
AcDbEntity
  8
0
100
AcDbBlockEnd
  0
BLOCK
  5
22B
330
44
100
AcDbEntity
  8
0
100
AcDbBlockBegin
  2
CUSTOM_74
 70
     0
 10
0.0
 20
0.0
 30
0.0
  3
CUSTOM_74
  1

  0
SOLID
  5
22D
330
44
100
AcDbEntity
  8
0
  6
BYLAYER
 62
   256
100
AcDbTrace
 10
-0.0128
 20
-0.0335499737533
 30
0.0
 11
-0.0128
 21
-0.0334773228346
 31
0.0
 12
0.0128
 22
-0.0335499737533
 32
0.0
 13
0.0128
 23
-0.0334773228346
 33
0.0
  0
SOLID
  5
22E
330
44
100
AcDbEntity
  8
0
  6
BYLAYER
 62
   256
100
AcDbTrace
 10
-0.0128
 20
-0.0334773228346
 30
0.0
 11
-0.0134414173228
 21
-0.0334650393701
 31
0.0
 12
0.0128
 22
-0.0334773228346
 32
0.0
 13
0.0128
 23
-0.0334650393701
 33
0.0
  0
SOLID
  5
22F
330
44
100
AcDbEntity
  8
0
  6
BYLAYER
 62
   256
100
AcDbTrace
 10
-0.0134414173228
 20
-0.0334650393701
 30
0.0
 11
-0.0134965354331
 21
-0.0334568503937
 31
0.0
 12
0.0128
 22
-0.0334650393701
 32
0.0
 13
0.0128
 23
-0.0334568503937
 33
0.0
  0
SOLID
  5
230
330
44
100
AcDbEntity
  8
0
  6
BYLAYER
 62
   256
100
AcDbTrace
 10
-0.0134965354331
 20
-0.0334568503937
 30
0.0
 11
-0.0161837795276
 21
-0.0330580052493
 31
0.0
 12
0.0128
 22
-0.0334568503937
 32
0.0
 13
0.0164387926509
 23
-0.0330580052493
 33
0.0
  0
SOLID
  5
231
330
44
100
AcDbEntity
  8
0
  6
BYLAYER
 62
   256
100
AcDbTrace
 10
-0.0161837795276
 20
-0.0330580052493
 30
0.0
 11
-0.0170623622047
 21
-0.0329276115486
 31
0.0
 12
0.0164387926509
 22
-0.0330580052493
 32
0.0
 13
0.0168225721785
 23
-0.0329276115486
 33
0.0
  0
SOLID
  5
232
330
44
100
AcDbEntity
  8
0
  6
BYLAYER
 62
   256
100
AcDbTrace
 10
-0.0170623622047
 20
-0.0329276115486
 30
0.0
 11
-0.0197969028871
 21
-0.0318805249344
 31
0.0
 12
0.0168225721785
 22
-0.0329276115486
 32
0.0
 13
0.0199048818898
 23
-0.0318805249344
 33
0.0
  0
SOLID
  5
233
330
44
100
AcDbEntity
  8
0
  6
BYLAYER
 62
   256
100
AcDbTrace
 10
-0.0197969028871
 20
-0.0318805249344
 30
0.0
 11
-0.0204809448819
 21
-0.0316186351706
 31
0.0
 12
0.0199048818898
 22
-0.0318805249344
 32
0.0
 13
0.0203360629921
 23
-0.0316186351706
 33
0.0
  0
SOLID
  5
234
330
44
100
AcDbEntity
  8
0
  6
BYLAYER
 62
   256
100
AcDbTrace
 10
-0.0204809448819
 20
-0.0316186351706
 30
0.0
 11
-0.0229598425197
 21
-0.0299803149606
 31
0.0
 12
0.0203360629921
 22
-0.0316186351706
 32
0.0
 13
0.0230335958005
 23
-0.0299803149606
 33
0.0
  0
SOLID
  5
235
330
44
100
AcDbEntity
  8
0
  6
BYLAYER
 62
   256
100
AcDbTrace
 10
-0.0229598425197
 20
-0.0299803149606
 30
0.0
 11
-0.0235348031496
 21
-0.0296003149606
 31
0.0
 12
0.0230335958005
 22
-0.0299803149606
 32
0.0
 13
0.0234300787402
 23
-0.0296003149606
 33
0.0
  0
SOLID
  5
236
330
44
100
AcDbEntity
  8
0
  6
BYLAYER
 62
   256
100
AcDbTrace
 10
-0.0235348031496
 20
-0.0296003149606
 30
0.0
 11
-0.0256159580052
 21
-0.0274474540682
 31
0.0
 12
0.0234300787402
 22
-0.0296003149606
 32
0.0
 13
0.0256765354331
 23
-0.0274474540682
 33
0.0
  0
SOLID
  5
237
330
44
100
AcDbEntity
  8
0
  6
BYLAYER
 62
   256
100
AcDbTrace
 10
-0.0256159580052
 20
-0.0274474540682
 30
0.0
 11
-0.0260791076115
 21
-0.0269683989501
 31
0.0
 12
0.0256765354331
 22
-0.0274474540682
 32
0.0
 13
0.0259960629921
 23
-0.0269683989501
 33
0.0
  0
SOLID
  5
238
330
44
100
AcDbEntity
  8
0
  6
BYLAYER
 62
   256
100
AcDbTrace
 10
-0.0260791076115
 20
-0.0269683989501
 30
0.0
 11
-0.0276529133858
 21
-0.0244022572178
 31
0.0
 12
0.0259960629921
 22
-0.0269683989501
 32
0.0
 13
0.0277080839895
 23
-0.0244022572178
 33
0.0
  0
SOLID
  5
239
330
44
100
AcDbEntity
  8
0
  6
BYLAYER
 62
   256
100
AcDbTrace
 10
-0.0276529133858
 20
-0.0244022572178
 30
0.0
 11
-0.0279929133858
 21
-0.0238479265092
 31
0.0
 12
0.0277080839895
 22
-0.0244022572178
 32
0.0
 13
0.0279230446194
 23
-0.0238479265092
 33
0.0
  0
SOLID
  5
23A
330
44
100
AcDbEntity
  8
0
  6
BYLAYER
 62
   256
100
AcDbTrace
 10
-0.0279929133858
 20
-0.0238479265092
 30
0.0
 11
-0.0289777952756
 21
-0.0209894488189
 31
0.0
 12
0.0279230446194
 22
-0.0238479265092
 32
0.0
 13
0.0290318635171
 23
-0.0209894488189
 33
0.0
  0
SOLID
  5
23B
330
44
100
AcDbEntity
  8
0
  6
BYLAYER
 62
   256
100
AcDbTrace
 10
-0.0289777952756
 20
-0.0209894488189
 30
0.0
 11
-0.0291854068241
 21
-0.0203869816273
 31
0.0
 12
0.0290318635171
 22
-0.0209894488189
 32
0.0
 13
0.0291239370079
 23
-0.0203869816273
 33
0.0
  0
SOLID
  5
23C
330
44
100
AcDbEntity
  8
0
  6
BYLAYER
 62
   256
100
AcDbTrace
 10
-0.0291854068241
 20
-0.0203869816273
 30
0.0
 11
-0.0295291863517
 21
-0.0173708661417
 31
0.0
 12
0.0291239370079
 22
-0.0203869816273
 32
0.0
 13
0.0295850393701
 23
-0.0173708661417
 33
0.0
  0
SOLID
  5
23D
330
44
100
AcDbEntity
  8
0
  6
BYLAYER
 62
   256
100
AcDbTrace
 10
-0.0295291863517
 20
-0.0173708661417
 30
0.0
 11
-0.0296
 21
-0.0167499737533
 31
0.0
 12
0.0295850393701
 22
-0.0173708661417
 32
0.0
 13
0.0296
 23
-0.0167499737533
 33
0.0
  0
SOLID
  5
23E
330
44
100
AcDbEntity
  8
0
  6
BYLAYER
 62
   256
100
AcDbTrace
 10
-0.0296
 20
-0.0167499737533
 30
0.0
 11
-0.0296
 21
-0.0167
 31
0.0
 12
0.0296
 22
-0.0167499737533
 32
0.0
 13
0.0296
 23
-0.0167
 33
0.0
  0
SOLID
  5
23F
330
44
100
AcDbEntity
  8
0
  6
BYLAYER
 62
   256
100
AcDbTrace
 10
-0.0296
 20
-0.0167
 30
0.0
 11
-0.0296
 21
0.0167
 31
0.0
 12
0.0296
 22
-0.0167
 32
0.0
 13
0.0296
 23
0.0167
 33
0.0
  0
SOLID
  5
240
330
44
100
AcDbEntity
  8
0
  6
BYLAYER
 62
   256
100
AcDbTrace
 10
-0.0296
 20
0.0167
 30
0.0
 11
-0.0296
 21
0.0167499737533
 31
0.0
 12
0.0296
 22
0.0167
 32
0.0
 13
0.0296
 23
0.0167499737533
 33
0.0
  0
SOLID
  5
241
330
44
100
AcDbEntity
  8
0
  6
BYLAYER
 62
   256
100
AcDbTrace
 10
-0.0296
 20
0.0167499737533
 30
0.0
 11
-0.0295850918635
 21
0.0173678740157
 31
0.0
 12
0.0296
 22
0.0167499737533
 32
0.0
 13
0.0295296062992
 23
0.0173678740157
 33
0.0
  0
SOLID
  5
242
330
44
100
AcDbEntity
  8
0
  6
BYLAYER
 62
   256
100
AcDbTrace
 10
-0.0295850918635
 20
0.0173678740157
 30
0.0
 11
-0.0291236220472
 21
0.0203869816273
 31
0.0
 12
0.0295296062992
 22
0.0173678740157
 32
0.0
 13
0.0291853543307
 23
0.0203869816273
 33
0.0
  0
SOLID
  5
243
330
44
100
AcDbEntity
  8
0
  6
BYLAYER
 62
   256
100
AcDbTrace
 10
-0.0291236220472
 20
0.0203869816273
 30
0.0
 11
-0.0290319685039
 21
0.0209864566929
 31
0.0
 12
0.0291853543307
 22
0.0203869816273
 32
0.0
 13
0.0289787926509
 23
0.0209864566929
 33
0.0
  0
SOLID
  5
244
330
44
100
AcDbEntity
  8
0
  6
BYLAYER
 62
   256
100
AcDbTrace
 10
-0.0290319685039
 20
0.0209864566929
 30
0.0
 11
-0.0279220997375
 21
0.0238479265092
 31
0.0
 12
0.0289787926509
 22
0.0209864566929
 32
0.0
 13
0.027992808399
 23
0.0238479265092
 33
0.0
  0
SOLID
  5
245
330
44
100
AcDbEntity
  8
0
  6
BYLAYER
 62
   256
100
AcDbTrace
 10
-0.0279220997375
 20
0.0238479265092
 30
0.0
 11
-0.0277081889764
 21
0.0243993700787
 31
0.0
 12
0.027992808399
 22
0.0238479265092
 32
0.0
 13
0.0276546981627
 23
0.0243993700787
 33
0.0
  0
SOLID
  5
246
330
44
100
AcDbEntity
  8
0
  6
BYLAYER
 62
   256
100
AcDbTrace
 10
-0.0277081889764
 20
0.0243993700787
 30
0.0
 11
-0.0259942257218
 21
0.0269683989501
 31
0.0
 12
0.0276546981627
 22
0.0243993700787
 32
0.0
 13
0.0260790551181
 23
0.0269683989501
 33
0.0
  0
SOLID
  5
247
330
44
100
AcDbEntity
  8
0
  6
BYLAYER
 62
   256
100
AcDbTrace
 10
-0.0259942257218
 20
0.0269683989501
 30
0.0
 11
-0.0256765879265
 21
0.0274444619423
 31
0.0
 12
0.0260790551181
 22
0.0269683989501
 32
0.0
 13
0.0256188976378
 23
0.0274444619423
 33
0.0
  0
SOLID
  5
248
330
44
100
AcDbEntity
  8
0
  6
BYLAYER
 62
   256
100
AcDbTrace
 10
-0.0256765879265
 20
0.0274444619423
 30
0.0
 11
-0.0234271391076
 21
0.0296003149606
 31
0.0
 12
0.0256188976378
 22
0.0274444619423
 32
0.0
 13
0.0235348031496
 23
0.0296003149606
 33
0.0
  0
SOLID
  5
249
330
44
100
AcDbEntity
  8
0
  6
BYLAYER
 62
   256
100
AcDbTrace
 10
-0.0234271391076
 20
0.0296003149606
 30
0.0
 11
-0.0230337007874
 21
0.0299773228346
 31
0.0
 12
0.0235348031496
 22
0.0296003149606
 32
0.0
 13
0.0229644094488
 23
0.0299773228346
 33
0.0
  0
SOLID
  5
24A
330
44
100
AcDbEntity
  8
0
  6
BYLAYER
 62
   256
100
AcDbTrace
 10
-0.0230337007874
 20
0.0299773228346
 30
0.0
 11
-0.0203313385827
 21
0.0316186351706
 31
0.0
 12
0.0229644094488
 22
0.0299773228346
 32
0.0
 13
0.020480839895
 23
0.0316186351706
 33
0.0
  0
SOLID
  5
24B
330
44
100
AcDbEntity
  8
0
  6
BYLAYER
 62
   256
100
AcDbTrace
 10
-0.0203313385827
 20
0.0316186351706
 30
0.0
 11
-0.0199048818898
 21
0.0318776377953
 31
0.0
 12
0.020480839895
 22
0.0316186351706
 32
0.0
 13
0.0198045669291
 23
0.0318776377953
 33
0.0
  0
SOLID
  5
24C
330
44
100
AcDbEntity
  8
0
  6
BYLAYER
 62
   256
100
AcDbTrace
 10
-0.0199048818898
 20
0.0318776377953
 30
0.0
 11
-0.0168140682415
 21
0.0329276115486
 31
0.0
 12
0.0198045669291
 22
0.0318776377953
 32
0.0
 13
0.0170622572178
 23
0.0329276115486
 33
0.0
  0
SOLID
  5
24D
330
44
100
AcDbEntity
  8
0
  6
BYLAYER
 62
   256
100
AcDbTrace
 10
-0.0168140682415
 20
0.0329276115486
 30
0.0
 11
-0.0164387926509
 21
0.0330551181102
 31
0.0
 12
0.0170622572178
 22
0.0329276115486
 32
0.0
 13
0.0162033595801
 23
0.0330551181102
 33
0.0
  0
SOLID
  5
24E
330
44
100
AcDbEntity
  8
0
  6
BYLAYER
 62
   256
100
AcDbTrace
 10
-0.0164387926509
 20
0.0330551181102
 30
0.0
 11
-0.0128
 21
0.0334539107612
 31
0.0
 12
0.0162033595801
 22
0.0330551181102
 32
0.0
 13
0.0135162204724
 23
0.0334539107612
 33
0.0
  0
SOLID
  5
24F
330
44
100
AcDbEntity
  8
0
  6
BYLAYER
 62
   256
100
AcDbTrace
 10
-0.0128
 20
0.0334539107612
 30
0.0
 11
-0.0128
 21
0.0334650393701
 31
0.0
 12
0.0135162204724
 22
0.0334539107612
 32
0.0
 13
0.013441312336
 23
0.0334650393701
 33
0.0
  0
SOLID
  5
250
330
44
100
AcDbEntity
  8
0
  6
BYLAYER
 62
   256
100
AcDbTrace
 10
-0.0128
 20
0.0334650393701
 30
0.0
 11
-0.0128
 21
0.0334773228346
 31
0.0
 12
0.013441312336
 22
0.0334650393701
 32
0.0
 13
0.0128
 23
0.0334773228346
 33
0.0
  0
SOLID
  5
251
330
44
100
AcDbEntity
  8
0
  6
BYLAYER
 62
   256
100
AcDbTrace
 10
-0.0128
 20
0.0334773228346
 30
0.0
 11
-0.0128
 21
0.0335499737533
 31
0.0
 12
0.0128
 22
0.0334773228346
 32
0.0
 13
0.0128
 23
0.0335499737533
 33
0.0
  0
ENDBLK
  5
22C
330
44
100
AcDbEntity
  8
0
100
AcDbBlockEnd
  0
BLOCK
  5
252
330
45
100
AcDbEntity
  8
0
100
AcDbBlockBegin
  2
CUSTOM_75
 70
     0
 10
0.0
 20
0.0
 30
0.0
  3
CUSTOM_75
  1

  0
SOLID
  5
254
330
45
100
AcDbEntity
  8
0
  6
BYLAYER
 62
   256
100
AcDbTrace
 10
-0.0498
 20
-0.0335499737533
 30
0.0
 11
-0.0521233595801
 21
-0.0334054068241
 31
0.0
 12
0.0498
 22
-0.0335499737533
 32
0.0
 13
0.0511939107612
 23
-0.0334054068241
 33
0.0
  0
SOLID
  5
255
330
45
100
AcDbEntity
  8
0
  6
BYLAYER
 62
   256
100
AcDbTrace
 10
-0.0521233595801
 20
-0.0334054068241
 30
0.0
 11
-0.0532219422572
 21
-0.033151023622
 31
0.0
 12
0.0511939107612
 22
-0.0334054068241
 32
0.0
 13
0.0536471391076
 23
-0.033151023622
 33
0.0
  0
SOLID
  5
256
330
45
100
AcDbEntity
  8
0
  6
BYLAYER
 62
   256
100
AcDbTrace
 10
-0.0532219422572
 20
-0.033151023622
 30
0.0
 11
-0.055891496063
 21
-0.032532808399
 31
0.0
 12
0.0536471391076
 22
-0.033151023622
 32
0.0
 13
0.0555770603675
 23
-0.032532808399
 33
0.0
  0
SOLID
  5
257
330
45
100
AcDbEntity
  8
0
  6
BYLAYER
 62
   256
100
AcDbTrace
 10
-0.055891496063
 20
-0.032532808399
 30
0.0
 11
-0.0571025721785
 21
-0.0319711811024
 31
0.0
 12
0.0555770603675
 22
-0.032532808399
 32
0.0
 13
0.0573306036745
 23
-0.0319711811024
 33
0.0
  0
SOLID
  5
258
330
45
100
AcDbEntity
  8
0
  6
BYLAYER
 62
   256
100
AcDbTrace
 10
-0.0571025721785
 20
-0.0319711811024
 30
0.0
 11
-0.0594003674541
 21
-0.0309056692913
 31
0.0
 12
0.0573306036745
 22
-0.0319711811024
 32
0.0
 13
0.0592061417323
 23
-0.0309056692913
 33
0.0
  0
SOLID
  5
259
330
45
100
AcDbEntity
  8
0
  6
BYLAYER
 62
   256
100
AcDbTrace
 10
-0.0594003674541
 20
-0.0309056692913
 30
0.0
 11
-0.0605332808399
 21
-0.0300606299213
 31
0.0
 12
0.0592061417323
 22
-0.0309056692913
 32
0.0
 13
0.0606937007874
 23
-0.0300606299213
 33
0.0
  0
SOLID
  5
25A
330
45
100
AcDbEntity
  8
0
  6
BYLAYER
 62
   256
100
AcDbTrace
 10
-0.0605332808399
 20
-0.0300606299213
 30
0.0
 11
-0.0625006824147
 21
-0.0285931233596
 31
0.0
 12
0.0606937007874
 22
-0.0300606299213
 32
0.0
 13
0.0623557480315
 23
-0.0285931233596
 33
0.0
  0
SOLID
  5
25B
330
45
100
AcDbEntity
  8
0
  6
BYLAYER
 62
   256
100
AcDbTrace
 10
-0.0625006824147
 20
-0.0285931233596
 30
0.0
 11
-0.0634651968504
 21
-0.0275006824147
 31
0.0
 12
0.0623557480315
 22
-0.0285931233596
 32
0.0
 13
0.0635931233596
 23
-0.0275006824147
 33
0.0
  0
SOLID
  5
25C
330
45
100
AcDbEntity
  8
0
  6
BYLAYER
 62
   256
100
AcDbTrace
 10
-0.0634651968504
 20
-0.0275006824147
 30
0.0
 11
-0.0650606299213
 21
-0.0256937007874
 31
0.0
 12
0.0635931233596
 22
-0.0275006824147
 32
0.0
 13
0.0649409448819
 23
-0.0256937007874
 33
0.0
  0
SOLID
  5
25D
330
45
100
AcDbEntity
  8
0
  6
BYLAYER
 62
   256
100
AcDbTrace
 10
-0.0650606299213
 20
-0.0256937007874
 30
0.0
 11
-0.0657952755906
 21
-0.0244003674541
 31
0.0
 12
0.0649409448819
 22
-0.0256937007874
 32
0.0
 13
0.0659056692913
 23
-0.0244003674541
 33
0.0
  0
SOLID
  5
25E
330
45
100
AcDbEntity
  8
0
  6
BYLAYER
 62
   256
100
AcDbTrace
 10
-0.0657952755906
 20
-0.0244003674541
 30
0.0
 11
-0.0669711811024
 21
-0.0223306036745
 31
0.0
 12
0.0659056692913
 22
-0.0244003674541
 32
0.0
 13
0.0668654068241
 23
-0.0223306036745
 33
0.0
  0
SOLID
  5
25F
330
45
100
AcDbEntity
  8
0
  6
BYLAYER
 62
   256
100
AcDbTrace
 10
-0.0669711811024
 20
-0.0223306036745
 30
0.0
 11
-0.0674321259843
 21
-0.020891496063
 31
0.0
 12
0.0668654068241
 22
-0.0223306036745
 32
0.0
 13
0.067532808399
 23
-0.020891496063
 33
0.0
  0
SOLID
  5
260
330
45
100
AcDbEntity
  8
0
  6
BYLAYER
 62
   256
100
AcDbTrace
 10
-0.0674321259843
 20
-0.020891496063
 30
0.0
 11
-0.068151023622
 21
-0.0186471391076
 31
0.0
 12
0.067532808399
 22
-0.020891496063
 32
0.0
 13
0.0680524934383
 23
-0.0186471391076
 33
0.0
  0
SOLID
  5
261
330
45
100
AcDbEntity
  8
0
  6
BYLAYER
 62
   256
100
AcDbTrace
 10
-0.068151023622
 20
-0.0186471391076
 30
0.0
 11
-0.068308976378
 21
-0.0171233595801
 31
0.0
 12
0.0680524934383
 22
-0.0186471391076
 32
0.0
 13
0.0684054068241
 23
-0.0171233595801
 33
0.0
  0
SOLID
  5
262
330
45
100
AcDbEntity
  8
0
  6
BYLAYER
 62
   256
100
AcDbTrace
 10
-0.068308976378
 20
-0.0171233595801
 30
0.0
 11
-0.0685499737533
 21
-0.0148
 31
0.0
 12
0.0684054068241
 22
-0.0171233595801
 32
0.0
 13
0.0685499737533
 23
-0.0148
 33
0.0
  0
SOLID
  5
263
330
45
100
AcDbEntity
  8
0
  6
BYLAYER
 62
   256
100
AcDbTrace
 10
-0.0685499737533
 20
-0.0148
 30
0.0
 11
-0.0685499737533
 21
-0.0147499737533
 31
0.0
 12
0.0685499737533
 22
-0.0148
 32
0.0
 13
0.0685499737533
 23
-0.0147499737533
 33
0.0
  0
SOLID
  5
264
330
45
100
AcDbEntity
  8
0
  6
BYLAYER
 62
   256
100
AcDbTrace
 10
-0.0685499737533
 20
-0.0147499737533
 30
0.0
 11
-0.0685499737533
 21
0.0147499737533
 31
0.0
 12
0.0685499737533
 22
-0.0147499737533
 32
0.0
 13
0.0685499737533
 23
0.0147499737533
 33
0.0
  0
SOLID
  5
265
330
45
100
AcDbEntity
  8
0
  6
BYLAYER
 62
   256
100
AcDbTrace
 10
-0.0685499737533
 20
0.0147499737533
 30
0.0
 11
-0.0685499737533
 21
0.0148
 31
0.0
 12
0.0685499737533
 22
0.0147499737533
 32
0.0
 13
0.0685499737533
 23
0.0148
 33
0.0
  0
SOLID
  5
266
330
45
100
AcDbEntity
  8
0
  6
BYLAYER
 62
   256
100
AcDbTrace
 10
-0.0685499737533
 20
0.0148
 30
0.0
 11
-0.0684054068241
 21
0.0171233595801
 31
0.0
 12
0.0685499737533
 22
0.0148
 32
0.0
 13
0.0683090288714
 23
0.0171233595801
 33
0.0
  0
SOLID
  5
267
330
45
100
AcDbEntity
  8
0
  6
BYLAYER
 62
   256
100
AcDbTrace
 10
-0.0684054068241
 20
0.0171233595801
 30
0.0
 11
-0.0680525984252
 21
0.0186471391076
 31
0.0
 12
0.0683090288714
 22
0.0171233595801
 32
0.0
 13
0.068151023622
 23
0.0186471391076
 33
0.0
  0
SOLID
  5
268
330
45
100
AcDbEntity
  8
0
  6
BYLAYER
 62
   256
100
AcDbTrace
 10
-0.0680525984252
 20
0.0186471391076
 30
0.0
 11
-0.067532808399
 21
0.020891496063
 31
0.0
 12
0.068151023622
 22
0.0186471391076
 32
0.0
 13
0.0674321784777
 23
0.020891496063
 33
0.0
  0
SOLID
  5
269
330
45
100
AcDbEntity
  8
0
  6
BYLAYER
 62
   256
100
AcDbTrace
 10
-0.067532808399
 20
0.020891496063
 30
0.0
 11
-0.066865511811
 21
0.0223306036745
 31
0.0
 12
0.0674321784777
 22
0.020891496063
 32
0.0
 13
0.0669711811024
 23
0.0223306036745
 33
0.0
  0
SOLID
  5
26A
330
45
100
AcDbEntity
  8
0
  6
BYLAYER
 62
   256
100
AcDbTrace
 10
-0.066865511811
 20
0.0223306036745
 30
0.0
 11
-0.0659056692913
 21
0.0244003674541
 31
0.0
 12
0.0669711811024
 22
0.0223306036745
 32
0.0
 13
0.065795328084
 23
0.0244003674541
 33
0.0
  0
SOLID
  5
26B
330
45
100
AcDbEntity
  8
0
  6
BYLAYER
 62
   256
100
AcDbTrace
 10
-0.0659056692913
 20
0.0244003674541
 30
0.0
 11
-0.0649409973753
 21
0.0256937007874
 31
0.0
 12
0.065795328084
 22
0.0244003674541
 32
0.0
 13
0.0650606299213
 23
0.0256937007874
 33
0.0
  0
SOLID
  5
26C
330
45
100
AcDbEntity
  8
0
  6
BYLAYER
 62
   256
100
AcDbTrace
 10
-0.0649409973753
 20
0.0256937007874
 30
0.0
 11
-0.0635931233596
 21
0.0275006824147
 31
0.0
 12
0.0650606299213
 22
0.0256937007874
 32
0.0
 13
0.0634652493438
 23
0.0275006824147
 33
0.0
  0
SOLID
  5
26D
330
45
100
AcDbEntity
  8
0
  6
BYLAYER
 62
   256
100
AcDbTrace
 10
-0.0635931233596
 20
0.0275006824147
 30
0.0
 11
-0.0623558005249
 21
0.0285931233596
 31
0.0
 12
0.0634652493438
 22
0.0275006824147
 32
0.0
 13
0.0625006824147
 23
0.0285931233596
 33
0.0
  0
SOLID
  5
26E
330
45
100
AcDbEntity
  8
0
  6
BYLAYER
 62
   256
100
AcDbTrace
 10
-0.0623558005249
 20
0.0285931233596
 30
0.0
 11
-0.0606937007874
 21
0.0300606299213
 31
0.0
 12
0.0625006824147
 22
0.0285931233596
 32
0.0
 13
0.0605333858268
 23
0.0300606299213
 33
0.0
  0
SOLID
  5
26F
330
45
100
AcDbEntity
  8
0
  6
BYLAYER
 62
   256
100
AcDbTrace
 10
-0.0606937007874
 20
0.0300606299213
 30
0.0
 11
-0.0592061942257
 21
0.0309056692913
 31
0.0
 12
0.0605333858268
 22
0.0300606299213
 32
0.0
 13
0.0594003674541
 23
0.0309056692913
 33
0.0
  0
SOLID
  5
270
330
45
100
AcDbEntity
  8
0
  6
BYLAYER
 62
   256
100
AcDbTrace
 10
-0.0592061942257
 20
0.0309056692913
 30
0.0
 11
-0.0573306036745
 21
0.0319711811024
 31
0.0
 12
0.0594003674541
 22
0.0309056692913
 32
0.0
 13
0.0571026771654
 23
0.0319711811024
 33
0.0
  0
SOLID
  5
271
330
45
100
AcDbEntity
  8
0
  6
BYLAYER
 62
   256
100
AcDbTrace
 10
-0.0573306036745
 20
0.0319711811024
 30
0.0
 11
-0.0555771653543
 21
0.032532808399
 31
0.0
 12
0.0571026771654
 22
0.0319711811024
 32
0.0
 13
0.055891496063
 23
0.032532808399
 33
0.0
  0
SOLID
  5
272
330
45
100
AcDbEntity
  8
0
  6
BYLAYER
 62
   256
100
AcDbTrace
 10
-0.0555771653543
 20
0.032532808399
 30
0.0
 11
-0.0536471391076
 21
0.033151023622
 31
0.0
 12
0.055891496063
 22
0.032532808399
 32
0.0
 13
0.0532220472441
 23
0.033151023622
 33
0.0
  0
SOLID
  5
273
330
45
100
AcDbEntity
  8
0
  6
BYLAYER
 62
   256
100
AcDbTrace
 10
-0.0536471391076
 20
0.033151023622
 30
0.0
 11
-0.051194015748
 21
0.0334054068241
 31
0.0
 12
0.0532220472441
 22
0.033151023622
 32
0.0
 13
0.0521233595801
 23
0.0334054068241
 33
0.0
  0
SOLID
  5
274
330
45
100
AcDbEntity
  8
0
  6
BYLAYER
 62
   256
100
AcDbTrace
 10
-0.051194015748
 20
0.0334054068241
 30
0.0
 11
-0.0498
 21
0.0335499737533
 31
0.0
 12
0.0521233595801
 22
0.0334054068241
 32
0.0
 13
0.0498
 23
0.0335499737533
 33
0.0
  0
ENDBLK
  5
253
330
45
100
AcDbEntity
  8
0
100
AcDbBlockEnd
  0
BLOCK
  5
275
330
46
100
AcDbEntity
  8
0
100
AcDbBlockBegin
  2
CUSTOM_76
 70
     0
 10
0.0
 20
0.0
 30
0.0
  3
CUSTOM_76
  1

  0
SOLID
  5
277
330
46
100
AcDbEntity
  8
0
  6
BYLAYER
 62
   256
100
AcDbTrace
 10
-0.00984997375328
 20
-0.0335499737533
 30
0.0
 11
-0.0115665091864
 21
-0.0334369028871
 31
0.0
 12
0.00984997375328
 22
-0.0335499737533
 32
0.0
 13
0.0107580052493
 23
-0.0334369028871
 33
0.0
  0
SOLID
  5
278
330
46
100
AcDbEntity
  8
0
  6
BYLAYER
 62
   256
100
AcDbTrace
 10
-0.0115665091864
 20
-0.0334369028871
 30
0.0
 11
-0.0127404724409
 21
-0.0331394225722
 31
0.0
 12
0.0107580052493
 22
-0.0334369028871
 32
0.0
 13
0.0131471391076
 23
-0.0331394225722
 33
0.0
  0
SOLID
  5
279
330
46
100
AcDbEntity
  8
0
  6
BYLAYER
 62
   256
100
AcDbTrace
 10
-0.0127404724409
 20
-0.0331394225722
 30
0.0
 11
-0.0147874015748
 21
-0.0326207874016
 31
0.0
 12
0.0131471391076
 22
-0.0331394225722
 32
0.0
 13
0.0145071391076
 23
-0.0326207874016
 33
0.0
  0
SOLID
  5
27A
330
46
100
AcDbEntity
  8
0
  6
BYLAYER
 62
   256
100
AcDbTrace
 10
-0.0147874015748
 20
-0.0326207874016
 30
0.0
 11
-0.0160387926509
 21
-0.0319554855643
 31
0.0
 12
0.0145071391076
 22
-0.0326207874016
 32
0.0
 13
0.0162517060367
 23
-0.0319554855643
 33
0.0
  0
SOLID
  5
27B
330
46
100
AcDbEntity
  8
0
  6
BYLAYER
 62
   256
100
AcDbTrace
 10
-0.0160387926509
 20
-0.0319554855643
 30
0.0
 11
-0.0177212598425
 21
-0.0310611023622
 31
0.0
 12
0.0162517060367
 22
-0.0319554855643
 32
0.0
 13
0.0175455643045
 23
-0.0310611023622
 33
0.0
  0
SOLID
  5
27C
330
46
100
AcDbEntity
  8
0
  6
BYLAYER
 62
   256
100
AcDbTrace
 10
-0.0177212598425
 20
-0.0310611023622
 30
0.0
 11
-0.0188349606299
 21
-0.0300661417323
 31
0.0
 12
0.0175455643045
 22
-0.0310611023622
 32
0.0
 13
0.0189849343832
 23
-0.0300661417323
 33
0.0
  0
SOLID
  5
27D
330
46
100
AcDbEntity
  8
0
  6
BYLAYER
 62
   256
100
AcDbTrace
 10
-0.0188349606299
 20
-0.0300661417323
 30
0.0
 11
-0.0201992125984
 21
-0.0288474540682
 31
0.0
 12
0.0189849343832
 22
-0.0300661417323
 32
0.0
 13
0.0200656692913
 23
-0.0288474540682
 33
0.0
  0
SOLID
  5
27E
330
46
100
AcDbEntity
  8
0
  6
BYLAYER
 62
   256
100
AcDbTrace
 10
-0.0201992125984
 20
-0.0288474540682
 30
0.0
 11
-0.0210683989501
 21
-0.0275802099738
 31
0.0
 12
0.0200656692913
 22
-0.0288474540682
 32
0.0
 13
0.0211896062992
 23
-0.0275802099738
 33
0.0
  0
SOLID
  5
27F
330
46
100
AcDbEntity
  8
0
  6
BYLAYER
 62
   256
100
AcDbTrace
 10
-0.0210683989501
 20
-0.0275802099738
 30
0.0
 11
-0.0220786351706
 21
-0.0261074540682
 31
0.0
 12
0.0211896062992
 22
-0.0275802099738
 32
0.0
 13
0.0219656692913
 23
-0.0261074540682
 33
0.0
  0
SOLID
  5
280
330
46
100
AcDbEntity
  8
0
  6
BYLAYER
 62
   256
100
AcDbTrace
 10
-0.0220786351706
 20
-0.0261074540682
 30
0.0
 11
-0.0226318635171
 21
-0.0246407874016
 31
0.0
 12
0.0219656692913
 22
-0.0261074540682
 32
0.0
 13
0.0227386351706
 23
-0.0246407874016
 33
0.0
  0
SOLID
  5
281
330
46
100
AcDbEntity
  8
0
  6
BYLAYER
 62
   256
100
AcDbTrace
 10
-0.0226318635171
 20
-0.0246407874016
 30
0.0
 11
-0.0232513910761
 21
-0.0229986351706
 31
0.0
 12
0.0227386351706
 22
-0.0246407874016
 32
0.0
 13
0.0231483989501
 23
-0.0229986351706
 33
0.0
  0
SOLID
  5
282
330
46
100
AcDbEntity
  8
0
  6
BYLAYER
 62
   256
100
AcDbTrace
 10
-0.0232513910761
 20
-0.0229986351706
 30
0.0
 11
-0.023442519685
 21
-0.0214169028871
 31
0.0
 12
0.0231483989501
 22
-0.0229986351706
 32
0.0
 13
0.0235431496063
 23
-0.0214169028871
 33
0.0
  0
SOLID
  5
283
330
46
100
AcDbEntity
  8
0
  6
BYLAYER
 62
   256
100
AcDbTrace
 10
-0.023442519685
 20
-0.0214169028871
 30
0.0
 11
-0.0236499737533
 21
-0.0197
 31
0.0
 12
0.0235431496063
 22
-0.0214169028871
 32
0.0
 13
0.0236499737533
 23
-0.0197
 33
0.0
  0
SOLID
  5
284
330
46
100
AcDbEntity
  8
0
  6
BYLAYER
 62
   256
100
AcDbTrace
 10
-0.0237
 20
-0.0197
 30
0.0
 11
-0.0237
 21
0.0197
 31
0.0
 12
0.0237
 22
-0.0197
 32
0.0
 13
0.0237
 23
0.0197
 33
0.0
  0
SOLID
  5
285
330
46
100
AcDbEntity
  8
0
  6
BYLAYER
 62
   256
100
AcDbTrace
 10
-0.0236499737533
 20
0.0197
 30
0.0
 11
-0.0235431496063
 21
0.0214169028871
 31
0.0
 12
0.0236499737533
 22
0.0197
 32
0.0
 13
0.0234425721785
 23
0.0214169028871
 33
0.0
  0
SOLID
  5
286
330
46
100
AcDbEntity
  8
0
  6
BYLAYER
 62
   256
100
AcDbTrace
 10
-0.0235431496063
 20
0.0214169028871
 30
0.0
 11
-0.023148503937
 21
0.0229986351706
 31
0.0
 12
0.0234425721785
 22
0.0214169028871
 32
0.0
 13
0.0232513910761
 23
0.0229986351706
 33
0.0
  0
SOLID
  5
287
330
46
100
AcDbEntity
  8
0
  6
BYLAYER
 62
   256
100
AcDbTrace
 10
-0.023148503937
 20
0.0229986351706
 30
0.0
 11
-0.0227386351706
 21
0.0246407874016
 31
0.0
 12
0.0232513910761
 22
0.0229986351706
 32
0.0
 13
0.0226319685039
 23
0.0246407874016
 33
0.0
  0
SOLID
  5
288
330
46
100
AcDbEntity
  8
0
  6
BYLAYER
 62
   256
100
AcDbTrace
 10
-0.0227386351706
 20
0.0246407874016
 30
0.0
 11
-0.0219657217848
 21
0.0261074540682
 31
0.0
 12
0.0226319685039
 22
0.0246407874016
 32
0.0
 13
0.0220786351706
 23
0.0261074540682
 33
0.0
  0
SOLID
  5
289
330
46
100
AcDbEntity
  8
0
  6
BYLAYER
 62
   256
100
AcDbTrace
 10
-0.0219657217848
 20
0.0261074540682
 30
0.0
 11
-0.0211896062992
 21
0.0275802099738
 31
0.0
 12
0.0220786351706
 22
0.0261074540682
 32
0.0
 13
0.021068503937
 23
0.0275802099738
 33
0.0
  0
SOLID
  5
28A
330
46
100
AcDbEntity
  8
0
  6
BYLAYER
 62
   256
100
AcDbTrace
 10
-0.0211896062992
 20
0.0275802099738
 30
0.0
 11
-0.0200657217848
 21
0.0288474540682
 31
0.0
 12
0.021068503937
 22
0.0275802099738
 32
0.0
 13
0.0201992125984
 23
0.0288474540682
 33
0.0
  0
SOLID
  5
28B
330
46
100
AcDbEntity
  8
0
  6
BYLAYER
 62
   256
100
AcDbTrace
 10
-0.0200657217848
 20
0.0288474540682
 30
0.0
 11
-0.0189849343832
 21
0.0300661417323
 31
0.0
 12
0.0201992125984
 22
0.0288474540682
 32
0.0
 13
0.0188350131234
 23
0.0300661417323
 33
0.0
  0
SOLID
  5
28C
330
46
100
AcDbEntity
  8
0
  6
BYLAYER
 62
   256
100
AcDbTrace
 10
-0.0189849343832
 20
0.0300661417323
 30
0.0
 11
-0.0175456692913
 21
0.0310611023622
 31
0.0
 12
0.0188350131234
 22
0.0300661417323
 32
0.0
 13
0.0177212598425
 23
0.0310611023622
 33
0.0
  0
SOLID
  5
28D
330
46
100
AcDbEntity
  8
0
  6
BYLAYER
 62
   256
100
AcDbTrace
 10
-0.0175456692913
 20
0.0310611023622
 30
0.0
 11
-0.0162517060367
 21
0.0319554855643
 31
0.0
 12
0.0177212598425
 22
0.0310611023622
 32
0.0
 13
0.0160388976378
 23
0.0319554855643
 33
0.0
  0
SOLID
  5
28E
330
46
100
AcDbEntity
  8
0
  6
BYLAYER
 62
   256
100
AcDbTrace
 10
-0.0162517060367
 20
0.0319554855643
 30
0.0
 11
-0.0145072440945
 21
0.0326207874016
 31
0.0
 12
0.0160388976378
 22
0.0319554855643
 32
0.0
 13
0.0147874015748
 23
0.0326207874016
 33
0.0
  0
SOLID
  5
28F
330
46
100
AcDbEntity
  8
0
  6
BYLAYER
 62
   256
100
AcDbTrace
 10
-0.0145072440945
 20
0.0326207874016
 30
0.0
 11
-0.0131471391076
 21
0.0331394225722
 31
0.0
 12
0.0147874015748
 22
0.0326207874016
 32
0.0
 13
0.0127405249344
 23
0.0331394225722
 33
0.0
  0
SOLID
  5
290
330
46
100
AcDbEntity
  8
0
  6
BYLAYER
 62
   256
100
AcDbTrace
 10
-0.0131471391076
 20
0.0331394225722
 30
0.0
 11
-0.0107581102362
 21
0.0334369028871
 31
0.0
 12
0.0127405249344
 22
0.0331394225722
 32
0.0
 13
0.0115665091864
 23
0.0334369028871
 33
0.0
  0
SOLID
  5
291
330
46
100
AcDbEntity
  8
0
  6
BYLAYER
 62
   256
100
AcDbTrace
 10
-0.0107581102362
 20
0.0334369028871
 30
0.0
 11
-0.00984997375328
 21
0.0335499737533
 31
0.0
 12
0.0115665091864
 22
0.0334369028871
 32
0.0
 13
0.00984997375328
 23
0.0335499737533
 33
0.0
  0
ENDBLK
  5
276
330
46
100
AcDbEntity
  8
0
100
AcDbBlockEnd
  0
BLOCK
  5
292
330
47
100
AcDbEntity
  8
0
100
AcDbBlockBegin
  2
ROUND_77
 70
     0
 10
0.0
 20
0.0
 30
0.0
  3
ROUND_77
  1

  0
HATCH
  5
294
330
47
100
AcDbEntity
  8
0
100
AcDbHatch
 10
0.0
 20
0.0
 30
0.0
210
0.0
220
0.0
230
1.0
  2
SOLID
 70
     1
 71
     0
 91
     1
 92
     0
 93
     1
 72
     2
 10
-2.77555756156E-017
 20
-1.38777878078E-017
 40
0.0394499737533
 50
0.0
 51
360.0
 73
     1
 97
     0
 75
     0
 76
     1
 98
     1
 10
0.0
 20
0.0
  0
ENDBLK
  5
293
330
47
100
AcDbEntity
  8
0
100
AcDbBlockEnd
  0
BLOCK
  5
295
330
48
100
AcDbEntity
  8
0
100
AcDbBlockBegin
  2
ROUND_78
 70
     0
 10
0.0
 20
0.0
 30
0.0
  3
ROUND_78
  1

  0
HATCH
  5
297
330
48
100
AcDbEntity
  8
0
100
AcDbHatch
 10
0.0
 20
0.0
 30
0.0
210
0.0
220
0.0
230
1.0
  2
SOLID
 70
     1
 71
     0
 91
     1
 92
     0
 93
     1
 72
     2
 10
-2.77555756156E-017
 20
-1.38777878078E-017
 40
0.006
 50
0.0
 51
360.0
 73
     1
 97
     0
 75
     0
 76
     1
 98
     1
 10
0.0
 20
0.0
  0
ENDBLK
  5
296
330
48
100
AcDbEntity
  8
0
100
AcDbBlockEnd
  0
BLOCK
  5
298
330
49
100
AcDbEntity
  8
0
100
AcDbBlockBegin
  2
ROUND_79
 70
     0
 10
0.0
 20
0.0
 30
0.0
  3
ROUND_79
  1

  0
HATCH
  5
29A
330
49
100
AcDbEntity
  8
0
100
AcDbHatch
 10
0.0
 20
0.0
 30
0.0
210
0.0
220
0.0
230
1.0
  2
SOLID
 70
     1
 71
     0
 91
     1
 92
     0
 93
     1
 72
     2
 10
-2.77555756156E-017
 20
-1.38777878078E-017
 40
0.0157499737533
 50
0.0
 51
360.0
 73
     1
 97
     0
 75
     0
 76
     1
 98
     1
 10
0.0
 20
0.0
  0
ENDBLK
  5
299
330
49
100
AcDbEntity
  8
0
100
AcDbBlockEnd
  0
ENDSEC
  0
SECTION
  2
ENTITIES
  0
INSERT
  5
29B
330
13
100
AcDbEntity
  8
PCB_KUR_GKO
100
AcDbBlockReference
  2
ROUND_3
 10
-2.77555756156E-017
 20
-1.38777878078E-017
 30
0.0
  0
LWPOLYLINE
  5
29C
330
13
100
AcDbEntity
  8
PCB_KUR_GKO
  6
BYLAYER
370
   211
 62
   256
100
AcDbPolyline
 90
     2
 70
     0
 43
0.0118
 10
-2.77555756156E-017
 20
-1.38777878078E-017
 10
-2.77555756156E-017
 20
1.5748
  0
INSERT
  5
29D
330
13
100
AcDbEntity
  8
PCB_KUR_GKO
100
AcDbBlockReference
  2
ROUND_3
 10
-2.77555756156E-017
 20
1.5748
 30
0.0
  0
LWPOLYLINE
  5
29E
330
13
100
AcDbEntity
  8
PCB_KUR_GKO
  6
BYLAYER
370
   211
 62
   256
100
AcDbPolyline
 90
     2
 70
     0
 43
0.0118
 10
-2.77555756156E-017
 20
1.5748
 10
2.3622
 20
1.5748
  0
INSERT
  5
29F
330
13
100
AcDbEntity
  8
PCB_KUR_GKO
100
AcDbBlockReference
  2
ROUND_3
 10
2.3622
 20
1.5748
 30
0.0
  0
INSERT
  5
2A0
330
13
100
AcDbEntity
  8
PCB_KUR_GKO
100
AcDbBlockReference
  2
ROUND_3
 10
2.3622
 20
-1.38777878078E-017
 30
0.0
  0
LWPOLYLINE
  5
2A1
330
13
100
AcDbEntity
  8
PCB_KUR_GKO
  6
BYLAYER
370
   211
 62
   256
100
AcDbPolyline
 90
     2
 70
     0
 43
0.0118
 10
2.3622
 20
-1.38777878078E-017
 10
2.3622
 20
1.5748
  0
INSERT
  5
2A2
330
13
100
AcDbEntity
  8
PCB_KUR_GKO
100
AcDbBlockReference
  2
ROUND_3
 10
2.3622
 20
1.5748
 30
0.0
  0
INSERT
  5
2A3
330
13
100
AcDbEntity
  8
PCB_KUR_GKO
100
AcDbBlockReference
  2
ROUND_3
 10
-2.77555756156E-017
 20
-1.38777878078E-017
 30
0.0
  0
LWPOLYLINE
  5
2A4
330
13
100
AcDbEntity
  8
PCB_KUR_GKO
  6
BYLAYER
370
   211
 62
   256
100
AcDbPolyline
 90
     2
 70
     0
 43
0.0118
 10
-2.77555756156E-017
 20
-1.38777878078E-017
 10
2.3622
 20
-1.38777878078E-017
  0
INSERT
  5
2A5
330
13
100
AcDbEntity
  8
PCB_KUR_GKO
100
AcDbBlockReference
  2
ROUND_3
 10
2.3622
 20
-1.38777878078E-017
 30
0.0
  0
INSERT
  5
2A6
330
13
100
AcDbEntity
  8
PCB_KUR_GTP
100
AcDbBlockReference
  2
CUSTOM_4
 10
1.7961
 20
0.7584
 30
0.0
  0
INSERT
  5
2A7
330
13
100
AcDbEntity
  8
PCB_KUR_GTP
100
AcDbBlockReference
  2
CUSTOM_4
 10
1.8531
 20
0.7584
 30
0.0
  0
INSERT
  5
2A8
330
13
100
AcDbEntity
  8
PCB_KUR_GTP
100
AcDbBlockReference
  2
CUSTOM_5
 10
1.865
 20
0.8312
 30
0.0
  0
INSERT
  5
2A9
330
13
100
AcDbEntity
  8
PCB_KUR_GTP
100
AcDbBlockReference
  2
CUSTOM_5
 10
1.7961
 20
0.8312
 30
0.0
  0
INSERT
  5
2AA
330
13
100
AcDbEntity
  8
PCB_KUR_GTP
100
AcDbBlockReference
  2
CUSTOM_5
 10
0.5991
 20
0.2434
 30
0.0
  0
INSERT
  5
2AB
330
13
100
AcDbEntity
  8
PCB_KUR_GTP
100
AcDbBlockReference
  2
CUSTOM_5
 10
0.668
 20
0.2434
 30
0.0
  0
INSERT
  5
2AC
330
13
100
AcDbEntity
  8
PCB_KUR_GTP
100
AcDbBlockReference
  2
CUSTOM_5
 10
0.5996
 20
0.3399
 30
0.0
  0
INSERT
  5
2AD
330
13
100
AcDbEntity
  8
PCB_KUR_GTP
100
AcDbBlockReference
  2
CUSTOM_5
 10
0.6685
 20
0.3399
 30
0.0
  0
INSERT
  5
2AE
330
13
100
AcDbEntity
  8
PCB_KUR_GTP
100
AcDbBlockReference
  2
CUSTOM_31
 10
0.9882
 20
1.0331
 30
0.0
  0
INSERT
  5
2AF
330
13
100
AcDbEntity
  8
PCB_KUR_GTP
100
AcDbBlockReference
  2
CUSTOM_31
 10
0.9882
 20
1.2772
 30
0.0
  0
INSERT
  5
2B0
330
13
100
AcDbEntity
  8
PCB_KUR_GTP
100
AcDbBlockReference
  2
CUSTOM_31
 10
0.3563
 20
1.2643
 30
0.0
  0
INSERT
  5
2B1
330
13
100
AcDbEntity
  8
PCB_KUR_GTP
100
AcDbBlockReference
  2
CUSTOM_31
 10
0.3563
 20
1.0202
 30
0.0
  0
INSERT
  5
2B2
330
13
100
AcDbEntity
  8
PCB_KUR_GTP
100
AcDbBlockReference
  2
CUSTOM_32
 10
1.4617
 20
0.9109
 30
0.0
  0
INSERT
  5
2B3
330
13
100
AcDbEntity
  8
PCB_KUR_GTP
100
AcDbBlockReference
  2
CUSTOM_32
 10
1.442
 20
0.9109
 30
0.0
  0
INSERT
  5
2B4
330
13
100
AcDbEntity
  8
PCB_KUR_GTP
100
AcDbBlockReference
  2
CUSTOM_32
 10
1.4223
 20
0.9109
 30
0.0
  0
INSERT
  5
2B5
330
13
100
AcDbEntity
  8
PCB_KUR_GTP
100
AcDbBlockReference
  2
CUSTOM_32
 10
1.4026
 20
0.9109
 30
0.0
  0
INSERT
  5
2B6
330
13
100
AcDbEntity
  8
PCB_KUR_GTP
100
AcDbBlockReference
  2
CUSTOM_32
 10
1.383
 20
0.9109
 30
0.0
  0
INSERT
  5
2B7
330
13
100
AcDbEntity
  8
PCB_KUR_GTP
100
AcDbBlockReference
  2
CUSTOM_32
 10
1.3633
 20
0.9109
 30
0.0
  0
INSERT
  5
2B8
330
13
100
AcDbEntity
  8
PCB_KUR_GTP
100
AcDbBlockReference
  2
CUSTOM_32
 10
1.3436
 20
0.9109
 30
0.0
  0
INSERT
  5
2B9
330
13
100
AcDbEntity
  8
PCB_KUR_GTP
100
AcDbBlockReference
  2
CUSTOM_32
 10
1.3239
 20
0.9109
 30
0.0
  0
INSERT
  5
2BA
330
13
100
AcDbEntity
  8
PCB_KUR_GTP
100
AcDbBlockReference
  2
CUSTOM_32
 10
1.3042
 20
0.9109
 30
0.0
  0
INSERT
  5
2BB
330
13
100
AcDbEntity
  8
PCB_KUR_GTP
100
AcDbBlockReference
  2
CUSTOM_32
 10
1.2845
 20
0.9109
 30
0.0
  0
INSERT
  5
2BC
330
13
100
AcDbEntity
  8
PCB_KUR_GTP
100
AcDbBlockReference
  2
CUSTOM_32
 10
1.2648
 20
0.9109
 30
0.0
  0
INSERT
  5
2BD
330
13
100
AcDbEntity
  8
PCB_KUR_GTP
100
AcDbBlockReference
  2
CUSTOM_32
 10
1.4814
 20
0.9109
 30
0.0
  0
INSERT
  5
2BE
330
13
100
AcDbEntity
  8
PCB_KUR_GTP
100
AcDbBlockReference
  2
CUSTOM_32
 10
1.4814
 20
0.5683
 30
0.0
  0
INSERT
  5
2BF
330
13
100
AcDbEntity
  8
PCB_KUR_GTP
100
AcDbBlockReference
  2
CUSTOM_32
 10
1.4617
 20
0.5683
 30
0.0
  0
INSERT
  5
2C0
330
13
100
AcDbEntity
  8
PCB_KUR_GTP
100
AcDbBlockReference
  2
CUSTOM_32
 10
1.442
 20
0.5683
 30
0.0
  0
INSERT
  5
2C1
330
13
100
AcDbEntity
  8
PCB_KUR_GTP
100
AcDbBlockReference
  2
CUSTOM_32
 10
1.4223
 20
0.5683
 30
0.0
  0
INSERT
  5
2C2
330
13
100
AcDbEntity
  8
PCB_KUR_GTP
100
AcDbBlockReference
  2
CUSTOM_32
 10
1.4026
 20
0.5683
 30
0.0
  0
INSERT
  5
2C3
330
13
100
AcDbEntity
  8
PCB_KUR_GTP
100
AcDbBlockReference
  2
CUSTOM_32
 10
1.383
 20
0.5683
 30
0.0
  0
INSERT
  5
2C4
330
13
100
AcDbEntity
  8
PCB_KUR_GTP
100
AcDbBlockReference
  2
CUSTOM_32
 10
1.3633
 20
0.5683
 30
0.0
  0
INSERT
  5
2C5
330
13
100
AcDbEntity
  8
PCB_KUR_GTP
100
AcDbBlockReference
  2
CUSTOM_32
 10
1.3436
 20
0.5683
 30
0.0
  0
INSERT
  5
2C6
330
13
100
AcDbEntity
  8
PCB_KUR_GTP
100
AcDbBlockReference
  2
CUSTOM_32
 10
1.3239
 20
0.5683
 30
0.0
  0
INSERT
  5
2C7
330
13
100
AcDbEntity
  8
PCB_KUR_GTP
100
AcDbBlockReference
  2
CUSTOM_32
 10
1.3042
 20
0.5683
 30
0.0
  0
INSERT
  5
2C8
330
13
100
AcDbEntity
  8
PCB_KUR_GTP
100
AcDbBlockReference
  2
CUSTOM_32
 10
1.2845
 20
0.5683
 30
0.0
  0
INSERT
  5
2C9
330
13
100
AcDbEntity
  8
PCB_KUR_GTP
100
AcDbBlockReference
  2
CUSTOM_32
 10
1.2648
 20
0.5683
 30
0.0
  0
INSERT
  5
2CA
330
13
100
AcDbEntity
  8
PCB_KUR_GTP
100
AcDbBlockReference
  2
CUSTOM_33
 10
1.2019
 20
0.6313
 30
0.0
  0
INSERT
  5
2CB
330
13
100
AcDbEntity
  8
PCB_KUR_GTP
100
AcDbBlockReference
  2
CUSTOM_33
 10
1.2019
 20
0.651
 30
0.0
  0
INSERT
  5
2CC
330
13
100
AcDbEntity
  8
PCB_KUR_GTP
100
AcDbBlockReference
  2
CUSTOM_33
 10
1.2019
 20
0.6707
 30
0.0
  0
INSERT
  5
2CD
330
13
100
AcDbEntity
  8
PCB_KUR_GTP
100
AcDbBlockReference
  2
CUSTOM_33
 10
1.2019
 20
0.6904
 30
0.0
  0
INSERT
  5
2CE
330
13
100
AcDbEntity
  8
PCB_KUR_GTP
100
AcDbBlockReference
  2
CUSTOM_33
 10
1.2019
 20
0.7101
 30
0.0
  0
INSERT
  5
2CF
330
13
100
AcDbEntity
  8
PCB_KUR_GTP
100
AcDbBlockReference
  2
CUSTOM_33
 10
1.2019
 20
0.7298
 30
0.0
  0
INSERT
  5
2D0
330
13
100
AcDbEntity
  8
PCB_KUR_GTP
100
AcDbBlockReference
  2
CUSTOM_33
 10
1.2019
 20
0.7494
 30
0.0
  0
INSERT
  5
2D1
330
13
100
AcDbEntity
  8
PCB_KUR_GTP
100
AcDbBlockReference
  2
CUSTOM_33
 10
1.2019
 20
0.7691
 30
0.0
  0
INSERT
  5
2D2
330
13
100
AcDbEntity
  8
PCB_KUR_GTP
100
AcDbBlockReference
  2
CUSTOM_33
 10
1.2019
 20
0.7888
 30
0.0
  0
INSERT
  5
2D3
330
13
100
AcDbEntity
  8
PCB_KUR_GTP
100
AcDbBlockReference
  2
CUSTOM_33
 10
1.2019
 20
0.8085
 30
0.0
  0
INSERT
  5
2D4
330
13
100
AcDbEntity
  8
PCB_KUR_GTP
100
AcDbBlockReference
  2
CUSTOM_33
 10
1.2019
 20
0.8282
 30
0.0
  0
INSERT
  5
2D5
330
13
100
AcDbEntity
  8
PCB_KUR_GTP
100
AcDbBlockReference
  2
CUSTOM_33
 10
1.2019
 20
0.8479
 30
0.0
  0
INSERT
  5
2D6
330
13
100
AcDbEntity
  8
PCB_KUR_GTP
100
AcDbBlockReference
  2
CUSTOM_33
 10
1.5444
 20
0.6313
 30
0.0
  0
INSERT
  5
2D7
330
13
100
AcDbEntity
  8
PCB_KUR_GTP
100
AcDbBlockReference
  2
CUSTOM_33
 10
1.5444
 20
0.651
 30
0.0
  0
INSERT
  5
2D8
330
13
100
AcDbEntity
  8
PCB_KUR_GTP
100
AcDbBlockReference
  2
CUSTOM_33
 10
1.5444
 20
0.6707
 30
0.0
  0
INSERT
  5
2D9
330
13
100
AcDbEntity
  8
PCB_KUR_GTP
100
AcDbBlockReference
  2
CUSTOM_33
 10
1.5444
 20
0.6904
 30
0.0
  0
INSERT
  5
2DA
330
13
100
AcDbEntity
  8
PCB_KUR_GTP
100
AcDbBlockReference
  2
CUSTOM_33
 10
1.5444
 20
0.7101
 30
0.0
  0
INSERT
  5
2DB
330
13
100
AcDbEntity
  8
PCB_KUR_GTP
100
AcDbBlockReference
  2
CUSTOM_33
 10
1.5444
 20
0.7298
 30
0.0
  0
INSERT
  5
2DC
330
13
100
AcDbEntity
  8
PCB_KUR_GTP
100
AcDbBlockReference
  2
CUSTOM_33
 10
1.5444
 20
0.7494
 30
0.0
  0
INSERT
  5
2DD
330
13
100
AcDbEntity
  8
PCB_KUR_GTP
100
AcDbBlockReference
  2
CUSTOM_33
 10
1.5444
 20
0.7691
 30
0.0
  0
INSERT
  5
2DE
330
13
100
AcDbEntity
  8
PCB_KUR_GTP
100
AcDbBlockReference
  2
CUSTOM_33
 10
1.5444
 20
0.7888
 30
0.0
  0
INSERT
  5
2DF
330
13
100
AcDbEntity
  8
PCB_KUR_GTP
100
AcDbBlockReference
  2
CUSTOM_33
 10
1.5444
 20
0.8085
 30
0.0
  0
INSERT
  5
2E0
330
13
100
AcDbEntity
  8
PCB_KUR_GTP
100
AcDbBlockReference
  2
CUSTOM_33
 10
1.5444
 20
0.8282
 30
0.0
  0
INSERT
  5
2E1
330
13
100
AcDbEntity
  8
PCB_KUR_GTP
100
AcDbBlockReference
  2
CUSTOM_33
 10
1.5444
 20
0.8479
 30
0.0
  0
INSERT
  5
2E2
330
13
100
AcDbEntity
  8
PCB_KUR_GTP
100
AcDbBlockReference
  2
CUSTOM_56
 10
1.9253
 20
0.3661
 30
0.0
  0
INSERT
  5
2E3
330
13
100
AcDbEntity
  8
PCB_KUR_GTP
100
AcDbBlockReference
  2
CUSTOM_56
 10
1.9253
 20
0.2972
 30
0.0
  0
INSERT
  5
2E4
330
13
100
AcDbEntity
  8
PCB_KUR_GTP
100
AcDbBlockReference
  2
CUSTOM_56
 10
1.9253
 20
0.561
 30
0.0
  0
INSERT
  5
2E5
330
13
100
AcDbEntity
  8
PCB_KUR_GTP
100
AcDbBlockReference
  2
CUSTOM_56
 10
1.9253
 20
0.6299
 30
0.0
  0
INSERT
  5
2E6
330
13
100
AcDbEntity
  8
PCB_KUR_GTP
100
AcDbBlockReference
  2
CUSTOM_57
 10
0.6051
 20
0.468
 30
0.0
  0
INSERT
  5
2E7
330
13
100
AcDbEntity
  8
PCB_KUR_GTP
100
AcDbBlockReference
  2
CUSTOM_57
 10
0.6051
 20
0.4935
 30
0.0
  0
INSERT
  5
2E8
330
13
100
AcDbEntity
  8
PCB_KUR_GTP
100
AcDbBlockReference
  2
CUSTOM_57
 10
0.6051
 20
0.5191
 30
0.0
  0
INSERT
  5
2E9
330
13
100
AcDbEntity
  8
PCB_KUR_GTP
100
AcDbBlockReference
  2
CUSTOM_57
 10
0.6051
 20
0.5447
 30
0.0
  0
INSERT
  5
2EA
330
13
100
AcDbEntity
  8
PCB_KUR_GTP
100
AcDbBlockReference
  2
CUSTOM_57
 10
0.6051
 20
0.5703
 30
0.0
  0
INSERT
  5
2EB
330
13
100
AcDbEntity
  8
PCB_KUR_GTP
100
AcDbBlockReference
  2
CUSTOM_57
 10
0.6051
 20
0.5959
 30
0.0
  0
INSERT
  5
2EC
330
13
100
AcDbEntity
  8
PCB_KUR_GTP
100
AcDbBlockReference
  2
CUSTOM_57
 10
0.6051
 20
0.6215
 30
0.0
  0
INSERT
  5
2ED
330
13
100
AcDbEntity
  8
PCB_KUR_GTP
100
AcDbBlockReference
  2
CUSTOM_57
 10
0.6051
 20
0.6471
 30
0.0
  0
INSERT
  5
2EE
330
13
100
AcDbEntity
  8
PCB_KUR_GTP
100
AcDbBlockReference
  2
CUSTOM_57
 10
0.6051
 20
0.6727
 30
0.0
  0
INSERT
  5
2EF
330
13
100
AcDbEntity
  8
PCB_KUR_GTP
100
AcDbBlockReference
  2
CUSTOM_57
 10
0.6051
 20
0.6983
 30
0.0
  0
INSERT
  5
2F0
330
13
100
AcDbEntity
  8
PCB_KUR_GTP
100
AcDbBlockReference
  2
CUSTOM_57
 10
0.6051
 20
0.7239
 30
0.0
  0
INSERT
  5
2F1
330
13
100
AcDbEntity
  8
PCB_KUR_GTP
100
AcDbBlockReference
  2
CUSTOM_57
 10
0.6051
 20
0.7494
 30
0.0
  0
INSERT
  5
2F2
330
13
100
AcDbEntity
  8
PCB_KUR_GTP
100
AcDbBlockReference
  2
CUSTOM_57
 10
0.6051
 20
0.775
 30
0.0
  0
INSERT
  5
2F3
330
13
100
AcDbEntity
  8
PCB_KUR_GTP
100
AcDbBlockReference
  2
CUSTOM_57
 10
0.6051
 20
0.8006
 30
0.0
  0
INSERT
  5
2F4
330
13
100
AcDbEntity
  8
PCB_KUR_GTP
100
AcDbBlockReference
  2
CUSTOM_57
 10
0.8751
 20
0.8006
 30
0.0
  0
INSERT
  5
2F5
330
13
100
AcDbEntity
  8
PCB_KUR_GTP
100
AcDbBlockReference
  2
CUSTOM_57
 10
0.8751
 20
0.775
 30
0.0
  0
INSERT
  5
2F6
330
13
100
AcDbEntity
  8
PCB_KUR_GTP
100
AcDbBlockReference
  2
CUSTOM_57
 10
0.8751
 20
0.7494
 30
0.0
  0
INSERT
  5
2F7
330
13
100
AcDbEntity
  8
PCB_KUR_GTP
100
AcDbBlockReference
  2
CUSTOM_57
 10
0.8751
 20
0.7239
 30
0.0
  0
INSERT
  5
2F8
330
13
100
AcDbEntity
  8
PCB_KUR_GTP
100
AcDbBlockReference
  2
CUSTOM_57
 10
0.8751
 20
0.6983
 30
0.0
  0
INSERT
  5
2F9
330
13
100
AcDbEntity
  8
PCB_KUR_GTP
100
AcDbBlockReference
  2
CUSTOM_57
 10
0.8751
 20
0.6727
 30
0.0
  0
INSERT
  5
2FA
330
13
100
AcDbEntity
  8
PCB_KUR_GTP
100
AcDbBlockReference
  2
CUSTOM_57
 10
0.8751
 20
0.6471
 30
0.0
  0
INSERT
  5
2FB
330
13
100
AcDbEntity
  8
PCB_KUR_GTP
100
AcDbBlockReference
  2
CUSTOM_57
 10
0.8751
 20
0.6215
 30
0.0
  0
INSERT
  5
2FC
330
13
100
AcDbEntity
  8
PCB_KUR_GTP
100
AcDbBlockReference
  2
CUSTOM_57
 10
0.8751
 20
0.5959
 30
0.0
  0
INSERT
  5
2FD
330
13
100
AcDbEntity
  8
PCB_KUR_GTP
100
AcDbBlockReference
  2
CUSTOM_57
 10
0.8751
 20
0.5703
 30
0.0
  0
INSERT
  5
2FE
330
13
100
AcDbEntity
  8
PCB_KUR_GTP
100
AcDbBlockReference
  2
CUSTOM_57
 10
0.8751
 20
0.5447
 30
0.0
  0
INSERT
  5
2FF
330
13
100
AcDbEntity
  8
PCB_KUR_GTP
100
AcDbBlockReference
  2
CUSTOM_57
 10
0.8751
 20
0.5191
 30
0.0
  0
INSERT
  5
300
330
13
100
AcDbEntity
  8
PCB_KUR_GTP
100
AcDbBlockReference
  2
CUSTOM_57
 10
0.8751
 20
0.4935
 30
0.0
  0
INSERT
  5
301
330
13
100
AcDbEntity
  8
PCB_KUR_GTP
100
AcDbBlockReference
  2
CUSTOM_57
 10
0.8751
 20
0.468
 30
0.0
  0
INSERT
  5
302
330
13
100
AcDbEntity
  8
PCB_KUR_GTP
100
AcDbBlockReference
  2
CUSTOM_10
 10
0.1347
 20
1.129
 30
0.0
  0
INSERT
  5
303
330
13
100
AcDbEntity
  8
PCB_KUR_GTP
100
AcDbBlockReference
  2
CUSTOM_10
 10
0.1347
 20
1.1861
 30
0.0
  0
INSERT
  5
304
330
13
100
AcDbEntity
  8
PCB_KUR_GTP
100
AcDbBlockReference
  2
CUSTOM_10
 10
1.1977
 20
1.1182
 30
0.0
  0
INSERT
  5
305
330
13
100
AcDbEntity
  8
PCB_KUR_GTP
100
AcDbBlockReference
  2
CUSTOM_10
 10
1.1977
 20
1.1753
 30
0.0
  0
INSERT
  5
306
330
13
100
AcDbEntity
  8
PCB_KUR_GTP
100
AcDbBlockReference
  2
OBLONG_58
 10
0.348
 20
0.5841
 30
0.0
  0
INSERT
  5
307
330
13
100
AcDbEntity
  8
PCB_KUR_GTP
100
AcDbBlockReference
  2
OBLONG_58
 10
0.348
 20
0.6156
 30
0.0
  0
INSERT
  5
308
330
13
100
AcDbEntity
  8
PCB_KUR_GTP
100
AcDbBlockReference
  2
OBLONG_58
 10
0.348
 20
0.7101
 30
0.0
  0
INSERT
  5
309
330
13
100
AcDbEntity
  8
PCB_KUR_GTP
100
AcDbBlockReference
  2
OBLONG_58
 10
0.348
 20
0.6786
 30
0.0
  0
INSERT
  5
30A
330
13
100
AcDbEntity
  8
PCB_KUR_GTP
100
AcDbBlockReference
  2
OBLONG_58
 10
0.348
 20
0.6471
 30
0.0
  0
INSERT
  5
30B
330
13
100
AcDbEntity
  8
PCB_KUR_GTP
100
AcDbBlockReference
  2
CUSTOM_59
 10
0.3431
 20
0.4719
 30
0.0
  0
INSERT
  5
30C
330
13
100
AcDbEntity
  8
PCB_KUR_GTP
100
AcDbBlockReference
  2
CUSTOM_59
 10
0.1285
 20
0.4719
 30
0.0
  0
INSERT
  5
30D
330
13
100
AcDbEntity
  8
PCB_KUR_GTP
100
AcDbBlockReference
  2
CUSTOM_59
 10
0.3431
 20
0.8223
 30
0.0
  0
INSERT
  5
30E
330
13
100
AcDbEntity
  8
PCB_KUR_GTP
100
AcDbBlockReference
  2
CUSTOM_59
 10
0.1285
 20
0.8223
 30
0.0
  0
INSERT
  5
30F
330
13
100
AcDbEntity
  8
PCB_KUR_GTP
100
AcDbBlockReference
  2
CUSTOM_60
 10
0.8357
 20
0.2416
 30
0.0
  0
INSERT
  5
310
330
13
100
AcDbEntity
  8
PCB_KUR_GTP
100
AcDbBlockReference
  2
CUSTOM_60
 10
0.7609
 20
0.2416
 30
0.0
  0
INSERT
  5
311
330
13
100
AcDbEntity
  8
PCB_KUR_GTP
100
AcDbBlockReference
  2
CUSTOM_60
 10
0.7615
 20
0.3399
 30
0.0
  0
INSERT
  5
312
330
13
100
AcDbEntity
  8
PCB_KUR_GTP
100
AcDbBlockReference
  2
CUSTOM_60
 10
0.8363
 20
0.3399
 30
0.0
  0
INSERT
  5
313
330
13
100
AcDbEntity
  8
PCB_KUR_GTP
100
AcDbBlockReference
  2
CUSTOM_61
 10
0.6749
 20
0.9765
 30
0.0
  0
INSERT
  5
314
330
13
100
AcDbEntity
  8
PCB_KUR_GTP
100
AcDbBlockReference
  2
CUSTOM_62
 10
0.5843
 20
1.2245
 30
0.0
  0
INSERT
  5
315
330
13
100
AcDbEntity
  8
PCB_KUR_GTP
100
AcDbBlockReference
  2
CUSTOM_62
 10
0.6749
 20
1.2245
 30
0.0
  0
INSERT
  5
316
330
13
100
AcDbEntity
  8
PCB_KUR_GTP
100
AcDbBlockReference
  2
CUSTOM_62
 10
0.7654
 20
1.2245
 30
0.0
  0
INSERT
  5
317
330
13
100
AcDbEntity
  8
PCB_KUR_GTP
100
AcDbBlockReference
  2
ROUND_63
 10
1.4046
 20
1.4345
 30
0.0
  0
INSERT
  5
318
330
13
100
AcDbEntity
  8
PCB_KUR_GTS
100
AcDbBlockReference
  2
CUSTOM_19
 10
1.7961
 20
0.7584
 30
0.0
  0
INSERT
  5
319
330
13
100
AcDbEntity
  8
PCB_KUR_GTS
100
AcDbBlockReference
  2
CUSTOM_19
 10
1.8531
 20
0.7584
 30
0.0
  0
INSERT
  5
31A
330
13
100
AcDbEntity
  8
PCB_KUR_GTS
100
AcDbBlockReference
  2
CUSTOM_20
 10
1.865
 20
0.8312
 30
0.0
  0
INSERT
  5
31B
330
13
100
AcDbEntity
  8
PCB_KUR_GTS
100
AcDbBlockReference
  2
CUSTOM_20
 10
1.7961
 20
0.8312
 30
0.0
  0
INSERT
  5
31C
330
13
100
AcDbEntity
  8
PCB_KUR_GTS
100
AcDbBlockReference
  2
CUSTOM_20
 10
0.5991
 20
0.2434
 30
0.0
  0
INSERT
  5
31D
330
13
100
AcDbEntity
  8
PCB_KUR_GTS
100
AcDbBlockReference
  2
CUSTOM_20
 10
0.668
 20
0.2434
 30
0.0
  0
INSERT
  5
31E
330
13
100
AcDbEntity
  8
PCB_KUR_GTS
100
AcDbBlockReference
  2
CUSTOM_20
 10
0.5996
 20
0.3399
 30
0.0
  0
INSERT
  5
31F
330
13
100
AcDbEntity
  8
PCB_KUR_GTS
100
AcDbBlockReference
  2
CUSTOM_20
 10
0.6685
 20
0.3399
 30
0.0
  0
INSERT
  5
320
330
13
100
AcDbEntity
  8
PCB_KUR_GTS
100
AcDbBlockReference
  2
CUSTOM_67
 10
0.9882
 20
1.0331
 30
0.0
  0
INSERT
  5
321
330
13
100
AcDbEntity
  8
PCB_KUR_GTS
100
AcDbBlockReference
  2
CUSTOM_67
 10
0.9882
 20
1.2772
 30
0.0
  0
INSERT
  5
322
330
13
100
AcDbEntity
  8
PCB_KUR_GTS
100
AcDbBlockReference
  2
CUSTOM_67
 10
0.3563
 20
1.2643
 30
0.0
  0
INSERT
  5
323
330
13
100
AcDbEntity
  8
PCB_KUR_GTS
100
AcDbBlockReference
  2
CUSTOM_67
 10
0.3563
 20
1.0202
 30
0.0
  0
INSERT
  5
324
330
13
100
AcDbEntity
  8
PCB_KUR_GTS
100
AcDbBlockReference
  2
CUSTOM_68
 10
1.4617
 20
0.9109
 30
0.0
  0
INSERT
  5
325
330
13
100
AcDbEntity
  8
PCB_KUR_GTS
100
AcDbBlockReference
  2
CUSTOM_68
 10
1.442
 20
0.9109
 30
0.0
  0
INSERT
  5
326
330
13
100
AcDbEntity
  8
PCB_KUR_GTS
100
AcDbBlockReference
  2
CUSTOM_68
 10
1.4223
 20
0.9109
 30
0.0
  0
INSERT
  5
327
330
13
100
AcDbEntity
  8
PCB_KUR_GTS
100
AcDbBlockReference
  2
CUSTOM_68
 10
1.4026
 20
0.9109
 30
0.0
  0
INSERT
  5
328
330
13
100
AcDbEntity
  8
PCB_KUR_GTS
100
AcDbBlockReference
  2
CUSTOM_68
 10
1.383
 20
0.9109
 30
0.0
  0
INSERT
  5
329
330
13
100
AcDbEntity
  8
PCB_KUR_GTS
100
AcDbBlockReference
  2
CUSTOM_68
 10
1.3633
 20
0.9109
 30
0.0
  0
INSERT
  5
32A
330
13
100
AcDbEntity
  8
PCB_KUR_GTS
100
AcDbBlockReference
  2
CUSTOM_68
 10
1.3436
 20
0.9109
 30
0.0
  0
INSERT
  5
32B
330
13
100
AcDbEntity
  8
PCB_KUR_GTS
100
AcDbBlockReference
  2
CUSTOM_68
 10
1.3239
 20
0.9109
 30
0.0
  0
INSERT
  5
32C
330
13
100
AcDbEntity
  8
PCB_KUR_GTS
100
AcDbBlockReference
  2
CUSTOM_68
 10
1.3042
 20
0.9109
 30
0.0
  0
INSERT
  5
32D
330
13
100
AcDbEntity
  8
PCB_KUR_GTS
100
AcDbBlockReference
  2
CUSTOM_68
 10
1.2845
 20
0.9109
 30
0.0
  0
INSERT
  5
32E
330
13
100
AcDbEntity
  8
PCB_KUR_GTS
100
AcDbBlockReference
  2
CUSTOM_68
 10
1.2648
 20
0.9109
 30
0.0
  0
INSERT
  5
32F
330
13
100
AcDbEntity
  8
PCB_KUR_GTS
100
AcDbBlockReference
  2
CUSTOM_68
 10
1.4814
 20
0.9109
 30
0.0
  0
INSERT
  5
330
330
13
100
AcDbEntity
  8
PCB_KUR_GTS
100
AcDbBlockReference
  2
CUSTOM_68
 10
1.4814
 20
0.5683
 30
0.0
  0
INSERT
  5
331
330
13
100
AcDbEntity
  8
PCB_KUR_GTS
100
AcDbBlockReference
  2
CUSTOM_68
 10
1.4617
 20
0.5683
 30
0.0
  0
INSERT
  5
332
330
13
100
AcDbEntity
  8
PCB_KUR_GTS
100
AcDbBlockReference
  2
CUSTOM_68
 10
1.442
 20
0.5683
 30
0.0
  0
INSERT
  5
333
330
13
100
AcDbEntity
  8
PCB_KUR_GTS
100
AcDbBlockReference
  2
CUSTOM_68
 10
1.4223
 20
0.5683
 30
0.0
  0
INSERT
  5
334
330
13
100
AcDbEntity
  8
PCB_KUR_GTS
100
AcDbBlockReference
  2
CUSTOM_68
 10
1.4026
 20
0.5683
 30
0.0
  0
INSERT
  5
335
330
13
100
AcDbEntity
  8
PCB_KUR_GTS
100
AcDbBlockReference
  2
CUSTOM_68
 10
1.383
 20
0.5683
 30
0.0
  0
INSERT
  5
336
330
13
100
AcDbEntity
  8
PCB_KUR_GTS
100
AcDbBlockReference
  2
CUSTOM_68
 10
1.3633
 20
0.5683
 30
0.0
  0
INSERT
  5
337
330
13
100
AcDbEntity
  8
PCB_KUR_GTS
100
AcDbBlockReference
  2
CUSTOM_68
 10
1.3436
 20
0.5683
 30
0.0
  0
INSERT
  5
338
330
13
100
AcDbEntity
  8
PCB_KUR_GTS
100
AcDbBlockReference
  2
CUSTOM_68
 10
1.3239
 20
0.5683
 30
0.0
  0
INSERT
  5
339
330
13
100
AcDbEntity
  8
PCB_KUR_GTS
100
AcDbBlockReference
  2
CUSTOM_68
 10
1.3042
 20
0.5683
 30
0.0
  0
INSERT
  5
33A
330
13
100
AcDbEntity
  8
PCB_KUR_GTS
100
AcDbBlockReference
  2
CUSTOM_68
 10
1.2845
 20
0.5683
 30
0.0
  0
INSERT
  5
33B
330
13
100
AcDbEntity
  8
PCB_KUR_GTS
100
AcDbBlockReference
  2
CUSTOM_68
 10
1.2648
 20
0.5683
 30
0.0
  0
INSERT
  5
33C
330
13
100
AcDbEntity
  8
PCB_KUR_GTS
100
AcDbBlockReference
  2
CUSTOM_69
 10
1.2019
 20
0.6313
 30
0.0
  0
INSERT
  5
33D
330
13
100
AcDbEntity
  8
PCB_KUR_GTS
100
AcDbBlockReference
  2
CUSTOM_69
 10
1.2019
 20
0.651
 30
0.0
  0
INSERT
  5
33E
330
13
100
AcDbEntity
  8
PCB_KUR_GTS
100
AcDbBlockReference
  2
CUSTOM_69
 10
1.2019
 20
0.6707
 30
0.0
  0
INSERT
  5
33F
330
13
100
AcDbEntity
  8
PCB_KUR_GTS
100
AcDbBlockReference
  2
CUSTOM_69
 10
1.2019
 20
0.6904
 30
0.0
  0
INSERT
  5
340
330
13
100
AcDbEntity
  8
PCB_KUR_GTS
100
AcDbBlockReference
  2
CUSTOM_69
 10
1.2019
 20
0.7101
 30
0.0
  0
INSERT
  5
341
330
13
100
AcDbEntity
  8
PCB_KUR_GTS
100
AcDbBlockReference
  2
CUSTOM_69
 10
1.2019
 20
0.7298
 30
0.0
  0
INSERT
  5
342
330
13
100
AcDbEntity
  8
PCB_KUR_GTS
100
AcDbBlockReference
  2
CUSTOM_69
 10
1.2019
 20
0.7494
 30
0.0
  0
INSERT
  5
343
330
13
100
AcDbEntity
  8
PCB_KUR_GTS
100
AcDbBlockReference
  2
CUSTOM_69
 10
1.2019
 20
0.7691
 30
0.0
  0
INSERT
  5
344
330
13
100
AcDbEntity
  8
PCB_KUR_GTS
100
AcDbBlockReference
  2
CUSTOM_69
 10
1.2019
 20
0.7888
 30
0.0
  0
INSERT
  5
345
330
13
100
AcDbEntity
  8
PCB_KUR_GTS
100
AcDbBlockReference
  2
CUSTOM_69
 10
1.2019
 20
0.8085
 30
0.0
  0
INSERT
  5
346
330
13
100
AcDbEntity
  8
PCB_KUR_GTS
100
AcDbBlockReference
  2
CUSTOM_69
 10
1.2019
 20
0.8282
 30
0.0
  0
INSERT
  5
347
330
13
100
AcDbEntity
  8
PCB_KUR_GTS
100
AcDbBlockReference
  2
CUSTOM_69
 10
1.2019
 20
0.8479
 30
0.0
  0
INSERT
  5
348
330
13
100
AcDbEntity
  8
PCB_KUR_GTS
100
AcDbBlockReference
  2
CUSTOM_69
 10
1.5444
 20
0.6313
 30
0.0
  0
INSERT
  5
349
330
13
100
AcDbEntity
  8
PCB_KUR_GTS
100
AcDbBlockReference
  2
CUSTOM_69
 10
1.5444
 20
0.651
 30
0.0
  0
INSERT
  5
34A
330
13
100
AcDbEntity
  8
PCB_KUR_GTS
100
AcDbBlockReference
  2
CUSTOM_69
 10
1.5444
 20
0.6707
 30
0.0
  0
INSERT
  5
34B
330
13
100
AcDbEntity
  8
PCB_KUR_GTS
100
AcDbBlockReference
  2
CUSTOM_69
 10
1.5444
 20
0.6904
 30
0.0
  0
INSERT
  5
34C
330
13
100
AcDbEntity
  8
PCB_KUR_GTS
100
AcDbBlockReference
  2
CUSTOM_69
 10
1.5444
 20
0.7101
 30
0.0
  0
INSERT
  5
34D
330
13
100
AcDbEntity
  8
PCB_KUR_GTS
100
AcDbBlockReference
  2
CUSTOM_69
 10
1.5444
 20
0.7298
 30
0.0
  0
INSERT
  5
34E
330
13
100
AcDbEntity
  8
PCB_KUR_GTS
100
AcDbBlockReference
  2
CUSTOM_69
 10
1.5444
 20
0.7494
 30
0.0
  0
INSERT
  5
34F
330
13
100
AcDbEntity
  8
PCB_KUR_GTS
100
AcDbBlockReference
  2
CUSTOM_69
 10
1.5444
 20
0.7691
 30
0.0
  0
INSERT
  5
350
330
13
100
AcDbEntity
  8
PCB_KUR_GTS
100
AcDbBlockReference
  2
CUSTOM_69
 10
1.5444
 20
0.7888
 30
0.0
  0
INSERT
  5
351
330
13
100
AcDbEntity
  8
PCB_KUR_GTS
100
AcDbBlockReference
  2
CUSTOM_69
 10
1.5444
 20
0.8085
 30
0.0
  0
INSERT
  5
352
330
13
100
AcDbEntity
  8
PCB_KUR_GTS
100
AcDbBlockReference
  2
CUSTOM_69
 10
1.5444
 20
0.8282
 30
0.0
  0
INSERT
  5
353
330
13
100
AcDbEntity
  8
PCB_KUR_GTS
100
AcDbBlockReference
  2
CUSTOM_69
 10
1.5444
 20
0.8479
 30
0.0
  0
INSERT
  5
354
330
13
100
AcDbEntity
  8
PCB_KUR_GTS
100
AcDbBlockReference
  2
CUSTOM_70
 10
1.9253
 20
0.3661
 30
0.0
  0
INSERT
  5
355
330
13
100
AcDbEntity
  8
PCB_KUR_GTS
100
AcDbBlockReference
  2
CUSTOM_70
 10
1.9253
 20
0.2972
 30
0.0
  0
INSERT
  5
356
330
13
100
AcDbEntity
  8
PCB_KUR_GTS
100
AcDbBlockReference
  2
CUSTOM_70
 10
1.9253
 20
0.561
 30
0.0
  0
INSERT
  5
357
330
13
100
AcDbEntity
  8
PCB_KUR_GTS
100
AcDbBlockReference
  2
CUSTOM_70
 10
1.9253
 20
0.6299
 30
0.0
  0
INSERT
  5
358
330
13
100
AcDbEntity
  8
PCB_KUR_GTS
100
AcDbBlockReference
  2
CUSTOM_71
 10
0.6051
 20
0.468
 30
0.0
  0
INSERT
  5
359
330
13
100
AcDbEntity
  8
PCB_KUR_GTS
100
AcDbBlockReference
  2
CUSTOM_71
 10
0.6051
 20
0.4935
 30
0.0
  0
INSERT
  5
35A
330
13
100
AcDbEntity
  8
PCB_KUR_GTS
100
AcDbBlockReference
  2
CUSTOM_71
 10
0.6051
 20
0.5191
 30
0.0
  0
INSERT
  5
35B
330
13
100
AcDbEntity
  8
PCB_KUR_GTS
100
AcDbBlockReference
  2
CUSTOM_71
 10
0.6051
 20
0.5447
 30
0.0
  0
INSERT
  5
35C
330
13
100
AcDbEntity
  8
PCB_KUR_GTS
100
AcDbBlockReference
  2
CUSTOM_71
 10
0.6051
 20
0.5703
 30
0.0
  0
INSERT
  5
35D
330
13
100
AcDbEntity
  8
PCB_KUR_GTS
100
AcDbBlockReference
  2
CUSTOM_71
 10
0.6051
 20
0.5959
 30
0.0
  0
INSERT
  5
35E
330
13
100
AcDbEntity
  8
PCB_KUR_GTS
100
AcDbBlockReference
  2
CUSTOM_71
 10
0.6051
 20
0.6215
 30
0.0
  0
INSERT
  5
35F
330
13
100
AcDbEntity
  8
PCB_KUR_GTS
100
AcDbBlockReference
  2
CUSTOM_71
 10
0.6051
 20
0.6471
 30
0.0
  0
INSERT
  5
360
330
13
100
AcDbEntity
  8
PCB_KUR_GTS
100
AcDbBlockReference
  2
CUSTOM_71
 10
0.6051
 20
0.6727
 30
0.0
  0
INSERT
  5
361
330
13
100
AcDbEntity
  8
PCB_KUR_GTS
100
AcDbBlockReference
  2
CUSTOM_71
 10
0.6051
 20
0.6983
 30
0.0
  0
INSERT
  5
362
330
13
100
AcDbEntity
  8
PCB_KUR_GTS
100
AcDbBlockReference
  2
CUSTOM_71
 10
0.6051
 20
0.7239
 30
0.0
  0
INSERT
  5
363
330
13
100
AcDbEntity
  8
PCB_KUR_GTS
100
AcDbBlockReference
  2
CUSTOM_71
 10
0.6051
 20
0.7494
 30
0.0
  0
INSERT
  5
364
330
13
100
AcDbEntity
  8
PCB_KUR_GTS
100
AcDbBlockReference
  2
CUSTOM_71
 10
0.6051
 20
0.775
 30
0.0
  0
INSERT
  5
365
330
13
100
AcDbEntity
  8
PCB_KUR_GTS
100
AcDbBlockReference
  2
CUSTOM_71
 10
0.6051
 20
0.8006
 30
0.0
  0
INSERT
  5
366
330
13
100
AcDbEntity
  8
PCB_KUR_GTS
100
AcDbBlockReference
  2
CUSTOM_71
 10
0.8751
 20
0.8006
 30
0.0
  0
INSERT
  5
367
330
13
100
AcDbEntity
  8
PCB_KUR_GTS
100
AcDbBlockReference
  2
CUSTOM_71
 10
0.8751
 20
0.775
 30
0.0
  0
INSERT
  5
368
330
13
100
AcDbEntity
  8
PCB_KUR_GTS
100
AcDbBlockReference
  2
CUSTOM_71
 10
0.8751
 20
0.7494
 30
0.0
  0
INSERT
  5
369
330
13
100
AcDbEntity
  8
PCB_KUR_GTS
100
AcDbBlockReference
  2
CUSTOM_71
 10
0.8751
 20
0.7239
 30
0.0
  0
INSERT
  5
36A
330
13
100
AcDbEntity
  8
PCB_KUR_GTS
100
AcDbBlockReference
  2
CUSTOM_71
 10
0.8751
 20
0.6983
 30
0.0
  0
INSERT
  5
36B
330
13
100
AcDbEntity
  8
PCB_KUR_GTS
100
AcDbBlockReference
  2
CUSTOM_71
 10
0.8751
 20
0.6727
 30
0.0
  0
INSERT
  5
36C
330
13
100
AcDbEntity
  8
PCB_KUR_GTS
100
AcDbBlockReference
  2
CUSTOM_71
 10
0.8751
 20
0.6471
 30
0.0
  0
INSERT
  5
36D
330
13
100
AcDbEntity
  8
PCB_KUR_GTS
100
AcDbBlockReference
  2
CUSTOM_71
 10
0.8751
 20
0.6215
 30
0.0
  0
INSERT
  5
36E
330
13
100
AcDbEntity
  8
PCB_KUR_GTS
100
AcDbBlockReference
  2
CUSTOM_71
 10
0.8751
 20
0.5959
 30
0.0
  0
INSERT
  5
36F
330
13
100
AcDbEntity
  8
PCB_KUR_GTS
100
AcDbBlockReference
  2
CUSTOM_71
 10
0.8751
 20
0.5703
 30
0.0
  0
INSERT
  5
370
330
13
100
AcDbEntity
  8
PCB_KUR_GTS
100
AcDbBlockReference
  2
CUSTOM_71
 10
0.8751
 20
0.5447
 30
0.0
  0
INSERT
  5
371
330
13
100
AcDbEntity
  8
PCB_KUR_GTS
100
AcDbBlockReference
  2
CUSTOM_71
 10
0.8751
 20
0.5191
 30
0.0
  0
INSERT
  5
372
330
13
100
AcDbEntity
  8
PCB_KUR_GTS
100
AcDbBlockReference
  2
CUSTOM_71
 10
0.8751
 20
0.4935
 30
0.0
  0
INSERT
  5
373
330
13
100
AcDbEntity
  8
PCB_KUR_GTS
100
AcDbBlockReference
  2
CUSTOM_71
 10
0.8751
 20
0.468
 30
0.0
  0
INSERT
  5
374
330
13
100
AcDbEntity
  8
PCB_KUR_GTS
100
AcDbBlockReference
  2
CUSTOM_28
 10
0.1347
 20
1.129
 30
0.0
  0
INSERT
  5
375
330
13
100
AcDbEntity
  8
PCB_KUR_GTS
100
AcDbBlockReference
  2
CUSTOM_28
 10
0.1347
 20
1.1861
 30
0.0
  0
INSERT
  5
376
330
13
100
AcDbEntity
  8
PCB_KUR_GTS
100
AcDbBlockReference
  2
CUSTOM_28
 10
1.1977
 20
1.1182
 30
0.0
  0
INSERT
  5
377
330
13
100
AcDbEntity
  8
PCB_KUR_GTS
100
AcDbBlockReference
  2
CUSTOM_28
 10
1.1977
 20
1.1753
 30
0.0
  0
INSERT
  5
378
330
13
100
AcDbEntity
  8
PCB_KUR_GTS
100
AcDbBlockReference
  2
OBLONG_72
 10
0.348
 20
0.5841
 30
0.0
  0
INSERT
  5
379
330
13
100
AcDbEntity
  8
PCB_KUR_GTS
100
AcDbBlockReference
  2
OBLONG_72
 10
0.348
 20
0.6156
 30
0.0
  0
INSERT
  5
37A
330
13
100
AcDbEntity
  8
PCB_KUR_GTS
100
AcDbBlockReference
  2
OBLONG_72
 10
0.348
 20
0.7101
 30
0.0
  0
INSERT
  5
37B
330
13
100
AcDbEntity
  8
PCB_KUR_GTS
100
AcDbBlockReference
  2
OBLONG_72
 10
0.348
 20
0.6786
 30
0.0
  0
INSERT
  5
37C
330
13
100
AcDbEntity
  8
PCB_KUR_GTS
100
AcDbBlockReference
  2
OBLONG_72
 10
0.348
 20
0.6471
 30
0.0
  0
INSERT
  5
37D
330
13
100
AcDbEntity
  8
PCB_KUR_GTS
100
AcDbBlockReference
  2
CUSTOM_73
 10
0.3431
 20
0.4719
 30
0.0
  0
INSERT
  5
37E
330
13
100
AcDbEntity
  8
PCB_KUR_GTS
100
AcDbBlockReference
  2
CUSTOM_73
 10
0.1285
 20
0.4719
 30
0.0
  0
INSERT
  5
37F
330
13
100
AcDbEntity
  8
PCB_KUR_GTS
100
AcDbBlockReference
  2
CUSTOM_73
 10
0.3431
 20
0.8223
 30
0.0
  0
INSERT
  5
380
330
13
100
AcDbEntity
  8
PCB_KUR_GTS
100
AcDbBlockReference
  2
CUSTOM_73
 10
0.1285
 20
0.8223
 30
0.0
  0
INSERT
  5
381
330
13
100
AcDbEntity
  8
PCB_KUR_GTS
100
AcDbBlockReference
  2
CUSTOM_74
 10
0.8357
 20
0.2416
 30
0.0
  0
INSERT
  5
382
330
13
100
AcDbEntity
  8
PCB_KUR_GTS
100
AcDbBlockReference
  2
CUSTOM_74
 10
0.7609
 20
0.2416
 30
0.0
  0
INSERT
  5
383
330
13
100
AcDbEntity
  8
PCB_KUR_GTS
100
AcDbBlockReference
  2
CUSTOM_74
 10
0.7615
 20
0.3399
 30
0.0
  0
INSERT
  5
384
330
13
100
AcDbEntity
  8
PCB_KUR_GTS
100
AcDbBlockReference
  2
CUSTOM_74
 10
0.8363
 20
0.3399
 30
0.0
  0
INSERT
  5
385
330
13
100
AcDbEntity
  8
PCB_KUR_GTS
100
AcDbBlockReference
  2
CUSTOM_75
 10
0.6749
 20
0.9765
 30
0.0
  0
INSERT
  5
386
330
13
100
AcDbEntity
  8
PCB_KUR_GTS
100
AcDbBlockReference
  2
CUSTOM_76
 10
0.5843
 20
1.2245
 30
0.0
  0
INSERT
  5
387
330
13
100
AcDbEntity
  8
PCB_KUR_GTS
100
AcDbBlockReference
  2
CUSTOM_76
 10
0.6749
 20
1.2245
 30
0.0
  0
INSERT
  5
388
330
13
100
AcDbEntity
  8
PCB_KUR_GTS
100
AcDbBlockReference
  2
CUSTOM_76
 10
0.7654
 20
1.2245
 30
0.0
  0
INSERT
  5
389
330
13
100
AcDbEntity
  8
PCB_KUR_GTS
100
AcDbBlockReference
  2
ROUND_77
 10
1.4046
 20
1.4345
 30
0.0
  0
INSERT
  5
38A
330
13
100
AcDbEntity
  8
PCB_KUR_GTS
100
AcDbBlockReference
  2
ROUND_17
 10
1.7324
 20
0.3656
 30
0.0
  0
INSERT
  5
38B
330
13
100
AcDbEntity
  8
PCB_KUR_GTS
100
AcDbBlockReference
  2
ROUND_17
 10
1.7324
 20
0.5577
 30
0.0
  0
INSERT
  5
38C
330
13
100
AcDbEntity
  8
PCB_KUR_GTS
100
AcDbBlockReference
  2
ROUND_21
 10
1.777
 20
1.108
 30
0.0
  0
INSERT
  5
38D
330
13
100
AcDbEntity
  8
PCB_KUR_GTS
100
AcDbBlockReference
  2
ROUND_21
 10
1.642
 20
0.14
 30
0.0
  0
INSERT
  5
38E
330
13
100
AcDbEntity
  8
PCB_KUR_GTS
100
AcDbBlockReference
  2
ROUND_21
 10
1.542
 20
0.14
 30
0.0
  0
INSERT
  5
38F
330
13
100
AcDbEntity
  8
PCB_KUR_GTS
100
AcDbBlockReference
  2
ROUND_21
 10
1.442
 20
0.14
 30
0.0
  0
INSERT
  5
390
330
13
100
AcDbEntity
  8
PCB_KUR_GTS
100
AcDbBlockReference
  2
ROUND_21
 10
1.342
 20
0.14
 30
0.0
  0
INSERT
  5
391
330
13
100
AcDbEntity
  8
PCB_KUR_GTS
100
AcDbBlockReference
  2
ROUND_22
 10
2.2638
 20
0.0984
 30
0.0
  0
INSERT
  5
392
330
13
100
AcDbEntity
  8
PCB_KUR_GTS
100
AcDbBlockReference
  2
ROUND_22
 10
0.0984
 20
0.0984
 30
0.0
  0
INSERT
  5
393
330
13
100
AcDbEntity
  8
PCB_KUR_GTS
100
AcDbBlockReference
  2
ROUND_22
 10
2.2638
 20
1.4764
 30
0.0
  0
INSERT
  5
394
330
13
100
AcDbEntity
  8
PCB_KUR_GTS
100
AcDbBlockReference
  2
ROUND_22
 10
0.0984
 20
1.4764
 30
0.0
  0
INSERT
  5
395
330
13
100
AcDbEntity
  8
PCB_KUR_GTS
100
AcDbBlockReference
  2
ROUND_23
 10
0.2468
 20
0.5605
 30
0.0
  0
INSERT
  5
396
330
13
100
AcDbEntity
  8
PCB_KUR_GTS
100
AcDbBlockReference
  2
ROUND_23
 10
0.2468
 20
0.7337
 30
0.0
  0
INSERT
  5
397
330
13
100
AcDbEntity
  8
PCB_KUR_GTS
100
AcDbBlockReference
  2
SQUARE_24
 10
1.777
 20
1.408
 30
0.0
  0
INSERT
  5
398
330
13
100
AcDbEntity
  8
PCB_KUR_GTS
100
AcDbBlockReference
  2
ROUND_6
 10
1.342
 20
0.7835
 30
0.0
  0
INSERT
  5
399
330
13
100
AcDbEntity
  8
PCB_KUR_GTS
100
AcDbBlockReference
  2
ROUND_6
 10
1.342
 20
0.698
 30
0.0
  0
INSERT
  5
39A
330
13
100
AcDbEntity
  8
PCB_KUR_GTS
100
AcDbBlockReference
  2
ROUND_6
 10
1.266
 20
1.086
 30
0.0
  0
INSERT
  5
39B
330
13
100
AcDbEntity
  8
PCB_KUR_GTS
100
AcDbBlockReference
  2
ROUND_6
 10
1.461
 20
0.986
 30
0.0
  0
INSERT
  5
39C
330
13
100
AcDbEntity
  8
PCB_KUR_TXT
100
AcDbBlockReference
  2
ROUND_8
 10
1.4814
 20
0.5125
 30
0.0
  0
INSERT
  5
39D
330
13
100
AcDbEntity
  8
PCB_KUR_TXT
100
AcDbBlockReference
  2
ROUND_8
 10
1.4627
 20
0.6247
 30
0.0
  0
INSERT
  5
39E
330
13
100
AcDbEntity
  8
PCB_KUR_TXT
100
AcDbBlockReference
  2
ROUND_8
 10
1.1509
 20
0.6313
 30
0.0
  0
INSERT
  5
39F
330
13
100
AcDbEntity
  8
PCB_KUR_TXT
100
AcDbBlockReference
  2
ROUND_8
 10
0.9444
 20
0.6215
 30
0.0
  0
INSERT
  5
3A0
330
13
100
AcDbEntity
  8
PCB_KUR_TXT
100
AcDbBlockReference
  2
ROUND_8
 10
0.9444
 20
0.5447
 30
0.0
  0
INSERT
  5
3A1
330
13
100
AcDbEntity
  8
PCB_KUR_TXT
100
AcDbBlockReference
  2
ROUND_8
 10
0.9381
 20
0.5191
 30
0.0
  0
INSERT
  5
3A2
330
13
100
AcDbEntity
  8
PCB_KUR_TXT
100
AcDbBlockReference
  2
ROUND_8
 10
0.748
 20
0.648
 30
0.0
  0
INSERT
  5
3A3
330
13
100
AcDbEntity
  8
PCB_KUR_TXT
100
AcDbBlockReference
  2
ROUND_8
 10
0.6802
 20
0.6471
 30
0.0
  0
INSERT
  5
3A4
330
13
100
AcDbEntity
  8
PCB_KUR_TXT
100
AcDbBlockReference
  2
ROUND_8
 10
0.4996
 20
0.3405
 30
0.0
  0
INSERT
  5
3A5
330
13
100
AcDbEntity
  8
PCB_KUR_TXT
100
AcDbBlockReference
  2
ROUND_8
 10
0.499
 20
0.244
 30
0.0
  0
INSERT
  5
3A6
330
13
100
AcDbEntity
  8
PCB_KUR_TXT
100
AcDbBlockReference
  2
ROUND_8
 10
0.362
 20
0.738
 30
0.0
  0
INSERT
  5
3A7
330
13
100
AcDbEntity
  8
PCB_KUR_TXT
100
AcDbBlockReference
  2
ROUND_8
 10
0.342
 20
0.738
 30
0.0
  0
INSERT
  5
3A8
330
13
100
AcDbEntity
  8
PCB_KUR_TXT
100
AcDbBlockReference
  2
ROUND_8
 10
0.322
 20
0.738
 30
0.0
  0
INSERT
  5
3A9
330
13
100
AcDbEntity
  8
PCB_KUR_TXT
100
AcDbBlockReference
  2
ROUND_8
 10
0.332
 20
0.758
 30
0.0
  0
INSERT
  5
3AA
330
13
100
AcDbEntity
  8
PCB_KUR_TXT
100
AcDbBlockReference
  2
ROUND_8
 10
0.352
 20
0.758
 30
0.0
  0
INSERT
  5
3AB
330
13
100
AcDbEntity
  8
PCB_KUR_TXT
100
AcDbBlockReference
  2
ROUND_8
 10
0.312
 20
0.758
 30
0.0
  0
INSERT
  5
3AC
330
13
100
AcDbEntity
  8
PCB_KUR_TXT
100
AcDbBlockReference
  2
ROUND_8
 10
0.252
 20
1.07
 30
0.0
  0
INSERT
  5
3AD
330
13
100
AcDbEntity
  8
PCB_KUR_TXT
100
AcDbBlockReference
  2
ROUND_8
 10
0.232
 20
1.07
 30
0.0
  0
INSERT
  5
3AE
330
13
100
AcDbEntity
  8
PCB_KUR_TXT
100
AcDbBlockReference
  2
ROUND_8
 10
0.212
 20
1.07
 30
0.0
  0
INSERT
  5
3AF
330
13
100
AcDbEntity
  8
PCB_KUR_TXT
100
AcDbBlockReference
  2
ROUND_8
 10
0.7654
 20
1.1802
 30
0.0
  0
INSERT
  5
3B0
330
13
100
AcDbEntity
  8
PCB_KUR_TXT
100
AcDbBlockReference
  2
ROUND_8
 10
1.0784
 20
0.9749
 30
0.0
  0
INSERT
  5
3B1
330
13
100
AcDbEntity
  8
PCB_KUR_TXT
100
AcDbBlockReference
  2
ROUND_8
 10
1.0984
 20
0.9749
 30
0.0
  0
INSERT
  5
3B2
330
13
100
AcDbEntity
  8
PCB_KUR_TXT
100
AcDbBlockReference
  2
ROUND_8
 10
1.1184
 20
0.9749
 30
0.0
  0
INSERT
  5
3B3
330
13
100
AcDbEntity
  8
PCB_KUR_TXT
100
AcDbBlockReference
  2
ROUND_8
 10
1.1284
 20
0.9549
 30
0.0
  0
INSERT
  5
3B4
330
13
100
AcDbEntity
  8
PCB_KUR_TXT
100
AcDbBlockReference
  2
ROUND_8
 10
1.1084
 20
0.9549
 30
0.0
  0
INSERT
  5
3B5
330
13
100
AcDbEntity
  8
PCB_KUR_TXT
100
AcDbBlockReference
  2
ROUND_8
 10
1.0884
 20
0.9549
 30
0.0
  0
INSERT
  5
3B6
330
13
100
AcDbEntity
  8
PCB_KUR_TXT
100
AcDbBlockReference
  2
ROUND_8
 10
0.9882
 20
0.8768
 30
0.0
  0
INSERT
  5
3B7
330
13
100
AcDbEntity
  8
PCB_KUR_TXT
100
AcDbBlockReference
  2
ROUND_8
 10
0.9882
 20
0.8261
 30
0.0
  0
INSERT
  5
3B8
330
13
100
AcDbEntity
  8
PCB_KUR_TXT
100
AcDbBlockReference
  2
ROUND_8
 10
0.9444
 20
0.7494
 30
0.0
  0
INSERT
  5
3B9
330
13
100
AcDbEntity
  8
PCB_KUR_TXT
100
AcDbBlockReference
  2
ROUND_8
 10
0.9444
 20
0.7239
 30
0.0
  0
INSERT
  5
3BA
330
13
100
AcDbEntity
  8
PCB_KUR_TXT
100
AcDbBlockReference
  2
ROUND_8
 10
1.1497
 20
0.7101
 30
0.0
  0
INSERT
  5
3BB
330
13
100
AcDbEntity
  8
PCB_KUR_TXT
100
AcDbBlockReference
  2
ROUND_8
 10
1.342
 20
0.698
 30
0.0
  0
INSERT
  5
3BC
330
13
100
AcDbEntity
  8
PCB_KUR_TXT
100
AcDbBlockReference
  2
ROUND_8
 10
1.342
 20
0.7835
 30
0.0
  0
INSERT
  5
3BD
330
13
100
AcDbEntity
  8
PCB_KUR_TXT
100
AcDbBlockReference
  2
ROUND_8
 10
1.3235
 20
0.9483
 30
0.0
  0
INSERT
  5
3BE
330
13
100
AcDbEntity
  8
PCB_KUR_TXT
100
AcDbBlockReference
  2
ROUND_8
 10
1.3425
 20
0.9935
 30
0.0
  0
INSERT
  5
3BF
330
13
100
AcDbEntity
  8
PCB_KUR_TXT
100
AcDbBlockReference
  2
ROUND_8
 10
1.266
 20
1.086
 30
0.0
  0
INSERT
  5
3C0
330
13
100
AcDbEntity
  8
PCB_KUR_TXT
100
AcDbBlockReference
  2
ROUND_8
 10
1.1977
 20
1.0769
 30
0.0
  0
INSERT
  5
3C1
330
13
100
AcDbEntity
  8
PCB_KUR_TXT
100
AcDbBlockReference
  2
ROUND_8
 10
1.461
 20
0.986
 30
0.0
  0
INSERT
  5
3C2
330
13
100
AcDbEntity
  8
PCB_KUR_TXT
100
AcDbBlockReference
  2
ROUND_8
 10
1.4818
 20
0.9483
 30
0.0
  0
INSERT
  5
3C3
330
13
100
AcDbEntity
  8
PCB_KUR_TXT
100
AcDbBlockReference
  2
ROUND_8
 10
1.5975
 20
0.8479
 30
0.0
  0
INSERT
  5
3C4
330
13
100
AcDbEntity
  8
PCB_KUR_TXT
100
AcDbBlockReference
  2
ROUND_8
 10
1.5916
 20
0.7691
 30
0.0
  0
INSERT
  5
3C5
330
13
100
AcDbEntity
  8
PCB_KUR_TXT
100
AcDbBlockReference
  2
ROUND_8
 10
1.9128
 20
0.8316
 30
0.0
  0
INSERT
  5
3C6
330
13
100
AcDbEntity
  8
PCB_KUR_TXT
100
AcDbBlockReference
  2
ROUND_78
 10
0.9882
 20
0.9209
 30
0.0
  0
INSERT
  5
3C7
330
13
100
AcDbEntity
  8
PCB_KUR_TXT
100
AcDbBlockReference
  2
ROUND_79
 10
1.7324
 20
0.3656
 30
0.0
  0
INSERT
  5
3C8
330
13
100
AcDbEntity
  8
PCB_KUR_TXT
100
AcDbBlockReference
  2
ROUND_79
 10
1.7324
 20
0.5577
 30
0.0
  0
INSERT
  5
3C9
330
13
100
AcDbEntity
  8
PCB_KUR_TXT
100
AcDbBlockReference
  2
ROUND_14
 10
1.442
 20
0.14
 30
0.0
  0
INSERT
  5
3CA
330
13
100
AcDbEntity
  8
PCB_KUR_TXT
100
AcDbBlockReference
  2
ROUND_14
 10
1.542
 20
0.14
 30
0.0
  0
INSERT
  5
3CB
330
13
100
AcDbEntity
  8
PCB_KUR_TXT
100
AcDbBlockReference
  2
ROUND_14
 10
1.642
 20
0.14
 30
0.0
  0
INSERT
  5
3CC
330
13
100
AcDbEntity
  8
PCB_KUR_TXT
100
AcDbBlockReference
  2
ROUND_14
 10
1.342
 20
0.14
 30
0.0
  0
INSERT
  5
3CD
330
13
100
AcDbEntity
  8
PCB_KUR_TXT
100
AcDbBlockReference
  2
ROUND_14
 10
0.2468
 20
0.5605
 30
0.0
  0
INSERT
  5
3CE
330
13
100
AcDbEntity
  8
PCB_KUR_TXT
100
AcDbBlockReference
  2
ROUND_14
 10
0.2468
 20
0.7337
 30
0.0
  0
INSERT
  5
3CF
330
13
100
AcDbEntity
  8
PCB_KUR_TXT
100
AcDbBlockReference
  2
ROUND_14
 10
1.777
 20
1.108
 30
0.0
  0
INSERT
  5
3D0
330
13
100
AcDbEntity
  8
PCB_KUR_TXT
100
AcDbBlockReference
  2
ROUND_14
 10
1.777
 20
1.408
 30
0.0
  0
INSERT
  5
3D1
330
13
100
AcDbEntity
  8
PCB_KUR_TXT
100
AcDbBlockReference
  2
ROUND_12
 10
2.2638
 20
0.0984
 30
0.0
  0
INSERT
  5
3D2
330
13
100
AcDbEntity
  8
PCB_KUR_TXT
100
AcDbBlockReference
  2
ROUND_12
 10
0.0984
 20
0.0984
 30
0.0
  0
INSERT
  5
3D3
330
13
100
AcDbEntity
  8
PCB_KUR_TXT
100
AcDbBlockReference
  2
ROUND_12
 10
0.0984
 20
1.4764
 30
0.0
  0
INSERT
  5
3D4
330
13
100
AcDbEntity
  8
PCB_KUR_TXT
100
AcDbBlockReference
  2
ROUND_12
 10
2.2638
 20
1.4764
 30
0.0
  0
ENDSEC
  0
SECTION
  2
OBJECTS
  0
DICTIONARY
  5
4A
102
{ACAD_REACTORS
330
0
102
}
330
0
100
AcDbDictionary
280
     1
281
     0
  3
ACAD_GROUP
350
4B
  3
ACAD_LAYOUT
350
4C
  3
ACAD_MLINESTYLE
350
4F
  0
DICTIONARY
  5
4B
102
{ACAD_REACTORS
330
4A
102
}
330
4A
100
AcDbDictionary
280
     1
281
     0
  0
DICTIONARY
  5
4C
102
{ACAD_REACTORS
330
4A
102
}
330
4A
100
AcDbDictionary
280
     1
281
     0
  3
Model
350
4D
  3
Layout1
350
4E
  0
LAYOUT
  5
4D
102
{ACAD_REACTORS
330
4C
102
}
330
4C
100
AcDbPlotSettings
  1

  2
none_device
  4
ISO_A4_(210.00_x_297.00_MM)
 40
0.0
 41
0.0
 42
0.0
 43
0.0
 44
210.0
 45
297.0
 46
0.0
 47
0.0
 48
0.0
 49
0.0
140
0.0
141
0.0
141
1.0
143
1.0
 72
     1
 73
     0
 74
     5
  7

 75
    16
147
1.0
 76
     0
 77
     2
148
0.0
149
0.0
100
AcDbLayout
  1
Model
 70
     1
 71
     0
 10
-0.1923
 20
-0.0645
 11
3.9138
 21
2.2614
 12
0.0
 22
0.0
 32
0.0
 14
-0.1923
 24
-0.0645
 34
0.0
 15
3.9138
 25
2.2614
 35
0.0
146
0.0
 13
0.0
 23
0.0
 33
0.0
 16
1.0
 26
0.0
 36
0.0
 17
0.0
 27
1.0
 37
0.0
 76
     0
330
13
  0
LAYOUT
  5
4E
102
{ACAD_REACTORS
330
4C
102
}
330
4C
100
AcDbPlotSettings
  1

  2
none_device
  4

 40
0.0
 41
0.0
 42
0.0
 43
0.0
 44
0.0
 45
0.0
 46
0.0
 47
0.0
 48
0.0
 49
0.0
140
0.0
141
0.0
141
1.0
143
1.0
 72
     1
 73
     0
 74
     5
  7

 75
    16
147
1.0
 76
     0
 77
     2
148
0.0
149
0.0
100
AcDbLayout
  1
Layout1
 70
     1
 71
     1
 10
100000000000000000000.0
 20
100000000000000000000.0
 11
-100000000000000000000.0
 21
-100000000000000000000.0
 12
0.0
 22
0.0
 32
0.0
 14
100000000000000000000.0
 24
100000000000000000000.0
 34
0.0
 15
-100000000000000000000.0
 25
-100000000000000000000.0
 35
0.0
146
0.0
 13
0.0
 23
0.0
 33
0.0
 16
1.0
 26
0.0
 36
0.0
 17
0.0
 27
1.0
 37
0.0
 76
     0
330
14
  0
DICTIONARY
  5
4F
102
{ACAD_REACTORS
330
4A
102
}
330
4A
100
AcDbDictionary
280
     1
281
     0
  0
ENDSEC
  0
EOF
